<svg width="116" height="116" viewBox="0 0 116 116" fill="none" xmlns="http://www.w3.org/2000/svg">
<path fill-rule="evenodd" clip-rule="evenodd" d="M77.2204 57.0721H77.2111V37.6677V27.0106C77.2111 24.399 75.1611 22.3537 72.5682 22.3537C70.0578 22.3537 67.5474 22.3559 65.0368 22.3582C57.8635 22.3644 50.6895 22.3707 43.513 22.3257C41.6549 22.3116 39.5347 23.7391 39.0995 25.6253C38.9169 26.4209 38.7765 27.2447 38.7765 28.0543C38.7712 30.885 38.7854 33.7172 38.7995 36.5493C38.8104 38.7275 38.8213 40.9056 38.8233 43.0828C38.8296 52.868 38.8275 62.6533 38.8254 72.4372L38.8254 72.4372C38.8244 77.3286 38.8233 82.2197 38.8233 87.1103C38.8233 89.9231 40.7984 91.9263 43.6066 91.9263C53.2339 91.9356 62.8613 91.9403 72.4933 91.9075C73.2282 91.9075 74.0285 91.7016 74.6884 91.3693C76.509 90.452 77.2251 88.842 77.2251 86.8528C77.222 80.2349 77.223 73.617 77.2241 66.999C77.2246 63.6901 77.2251 60.3811 77.2251 57.0721H77.2204ZM58.0078 87.143C56.922 87.143 56.103 86.324 56.0983 85.2335C56.0983 84.1429 56.9173 83.3005 57.9891 83.2911C59.075 83.2864 59.9595 84.1664 59.9455 85.2428C59.9314 86.3146 59.089 87.143 58.0078 87.143ZM74.9879 78.7981V79.5375H41.0137V78.7232V29.084C41.0137 28.8769 41.0081 28.6699 41.0025 28.463V28.463C40.9904 28.0151 40.9782 27.5679 41.0231 27.123C41.1962 25.4568 42.268 24.5067 43.9436 24.5067C44.9241 24.5067 45.9057 24.5137 46.8874 24.5207L46.8875 24.5207L46.8876 24.5207C47.8692 24.5277 48.8509 24.5348 49.8314 24.5348C57.2169 24.5348 64.6024 24.5348 71.9879 24.5394C72.3763 24.5394 72.7742 24.5628 73.1579 24.6424C74.2485 24.8764 74.899 25.7236 74.9833 26.9638C74.9945 27.1435 74.9937 27.3232 74.993 27.5028V27.503C74.9928 27.5479 74.9926 27.5929 74.9926 27.6378V78.7887L74.9879 78.7981ZM58.41 43.2231C53.1868 43.0546 48.6937 47.178 48.6937 52.4994C48.6703 57.5495 52.8358 61.8413 57.7782 61.8647C63.0716 61.8881 67.3025 57.7695 67.3353 52.5697C67.3681 47.5758 63.2354 43.3822 58.4053 43.2231H58.41ZM61.7564 51.0486C60.3289 52.5041 58.8967 53.9503 57.4459 55.3778C56.9591 55.8552 56.5238 55.8552 56.0137 55.3872C55.424 54.8443 54.853 54.2733 54.3101 53.6836C53.8608 53.1968 53.8888 52.6492 54.3101 52.2327C54.7172 51.8302 55.3397 51.8442 55.8124 52.3029C56.0039 52.4883 56.1776 52.6894 56.3528 52.8923C56.4474 53.0019 56.5424 53.1119 56.6408 53.2202C57.7548 52.1297 58.8359 51.072 59.9217 50.0236C60.123 49.8317 60.3336 49.6351 60.5723 49.5041C61.0216 49.2607 61.513 49.3964 61.8173 49.7942C62.1589 50.2435 62.1683 50.6367 61.7658 51.0486H61.7564ZM56.6064 30.243C55.4464 30.2469 54.2863 30.2507 53.1263 30.2306V30.2353C52.354 30.2259 51.9749 29.8281 51.9843 29.1588C51.989 28.5036 52.3868 28.087 53.1497 28.087C56.4165 28.0683 59.6834 28.073 62.9502 28.087C63.6289 28.0917 64.0594 28.5598 64.0548 29.1775C64.0454 29.7907 63.6616 30.2213 62.983 30.2306C61.7962 30.2507 60.6094 30.2469 59.4226 30.243C58.9479 30.2415 58.4732 30.24 57.9985 30.24C57.5344 30.24 57.0704 30.2415 56.6064 30.243Z" fill="#007643"/>
<circle cx="58.0001" cy="57.6744" r="56.6744" stroke="#007643" stroke-width="2"/>
</svg>
