<svg width="265" height="281" viewBox="0 0 265 281" fill="none" xmlns="http://www.w3.org/2000/svg">
<rect x="0.226562" y="0.0625" width="263.945" height="280.938" rx="10" fill="white"/>
<path d="M21.9912 20.2979C21.9912 21.4235 21.7861 22.3646 21.376 23.1211C20.9658 23.873 20.3711 24.4404 19.5918 24.8232C18.8171 25.2015 17.876 25.3906 16.7686 25.3906H14.0547V15.3965H17.0693C18.0856 15.3965 18.9606 15.5833 19.6943 15.957C20.4281 16.3262 20.9932 16.8753 21.3896 17.6045C21.7907 18.3291 21.9912 19.2269 21.9912 20.2979ZM20.7676 20.3389C20.7676 19.4411 20.6172 18.7005 20.3164 18.1172C20.0202 17.5339 19.5827 17.1009 19.0039 16.8184C18.4297 16.5312 17.7256 16.3877 16.8916 16.3877H15.2168V24.3926H16.6318C18.0081 24.3926 19.0404 24.0531 19.7285 23.374C20.4212 22.695 20.7676 21.6833 20.7676 20.3389ZM26.8447 17.7754C27.738 17.7754 28.401 17.9759 28.834 18.377C29.2669 18.778 29.4834 19.4183 29.4834 20.2979V25.3906H28.6562L28.4375 24.2832H28.3828C28.1732 24.5566 27.9544 24.7868 27.7266 24.9736C27.4987 25.1559 27.2344 25.2949 26.9336 25.3906C26.6374 25.4818 26.2728 25.5273 25.8398 25.5273C25.3841 25.5273 24.9785 25.4476 24.623 25.2881C24.2721 25.1286 23.9941 24.887 23.7891 24.5635C23.5885 24.2399 23.4883 23.8298 23.4883 23.333C23.4883 22.5856 23.7845 22.0114 24.377 21.6104C24.9694 21.2093 25.8717 20.9906 27.084 20.9541L28.376 20.8994V20.4414C28.376 19.7943 28.237 19.3408 27.959 19.0811C27.681 18.8213 27.2891 18.6914 26.7832 18.6914C26.3913 18.6914 26.0176 18.7484 25.6621 18.8623C25.3066 18.9762 24.9694 19.1107 24.6504 19.2656L24.3018 18.4043C24.639 18.2311 25.0264 18.083 25.4639 17.96C25.9014 17.8369 26.3617 17.7754 26.8447 17.7754ZM28.3623 21.6992L27.2207 21.7471C26.2865 21.7835 25.6279 21.9362 25.2451 22.2051C24.8623 22.474 24.6709 22.8545 24.6709 23.3467C24.6709 23.7751 24.8008 24.0918 25.0605 24.2969C25.3203 24.502 25.6644 24.6045 26.0928 24.6045C26.7581 24.6045 27.3027 24.4199 27.7266 24.0508C28.1504 23.6816 28.3623 23.1279 28.3623 22.3896V21.6992ZM32.9561 17.8984V25.3906H31.8213V17.8984H32.9561ZM32.4023 15.0957C32.5892 15.0957 32.7487 15.1572 32.8809 15.2803C33.0176 15.3988 33.0859 15.5856 33.0859 15.8408C33.0859 16.0915 33.0176 16.2783 32.8809 16.4014C32.7487 16.5244 32.5892 16.5859 32.4023 16.5859C32.2064 16.5859 32.0423 16.5244 31.9102 16.4014C31.7826 16.2783 31.7188 16.0915 31.7188 15.8408C31.7188 15.5856 31.7826 15.3988 31.9102 15.2803C32.0423 15.1572 32.2064 15.0957 32.4023 15.0957ZM36.5039 25.3906H35.3623V14.7539H36.5039V25.3906ZM37.7207 17.8984H38.9375L40.5918 22.2461C40.6875 22.5013 40.7764 22.7474 40.8584 22.9844C40.9404 23.2168 41.0133 23.4401 41.0771 23.6543C41.141 23.8685 41.1911 24.0758 41.2275 24.2764H41.2754C41.3392 24.0485 41.4303 23.75 41.5488 23.3809C41.6673 23.0072 41.7949 22.6266 41.9316 22.2393L43.4971 17.8984H44.7207L41.46 26.4912C41.2868 26.9515 41.084 27.3525 40.8516 27.6943C40.6237 28.0361 40.3457 28.2982 40.0176 28.4805C39.6895 28.6673 39.293 28.7607 38.8281 28.7607C38.6139 28.7607 38.4248 28.7471 38.2607 28.7197C38.0967 28.6969 37.9554 28.6696 37.8369 28.6377V27.7285C37.9372 27.7513 38.0579 27.7718 38.1992 27.79C38.3451 27.8083 38.4954 27.8174 38.6504 27.8174C38.9329 27.8174 39.1768 27.7627 39.3818 27.6533C39.5915 27.5485 39.7715 27.3936 39.9219 27.1885C40.0723 26.9834 40.2021 26.7396 40.3115 26.457L40.7217 25.4043L37.7207 17.8984Z" fill="#007643"/>
<path d="M18.9766 36.8203C18.513 36.8203 18.1016 36.9115 17.7422 37.0938C17.388 37.2708 17.0885 37.5286 16.8438 37.8672C16.6042 38.2057 16.4219 38.6146 16.2969 39.0938C16.1719 39.5729 16.1094 40.112 16.1094 40.7109C16.1094 41.5182 16.2083 42.2083 16.4062 42.7812C16.6094 43.349 16.9219 43.7839 17.3438 44.0859C17.7656 44.3828 18.3099 44.5312 18.9766 44.5312C19.4401 44.5312 19.9036 44.4792 20.3672 44.375C20.8359 44.2708 21.3438 44.1224 21.8906 43.9297V45.9609C21.3854 46.1693 20.888 46.3177 20.3984 46.4062C19.9089 46.5 19.3594 46.5469 18.75 46.5469C17.5729 46.5469 16.6042 46.3047 15.8438 45.8203C15.0885 45.3307 14.5286 44.6484 14.1641 43.7734C13.7995 42.8932 13.6172 41.8672 13.6172 40.6953C13.6172 39.8307 13.7344 39.0391 13.9688 38.3203C14.2031 37.6016 14.5469 36.9792 15 36.4531C15.4531 35.9271 16.013 35.5208 16.6797 35.2344C17.3464 34.9479 18.112 34.8047 18.9766 34.8047C19.5443 34.8047 20.112 34.8776 20.6797 35.0234C21.2526 35.1641 21.7995 35.3594 22.3203 35.6094L21.5391 37.5781C21.112 37.375 20.6823 37.1979 20.25 37.0469C19.8177 36.8958 19.3932 36.8203 18.9766 36.8203ZM34.6953 40.6641C34.6953 41.5443 34.5859 42.3464 34.3672 43.0703C34.1484 43.7891 33.8151 44.4089 33.3672 44.9297C32.9245 45.4505 32.362 45.8516 31.6797 46.1328C30.9974 46.4089 30.1901 46.5469 29.2578 46.5469C28.3255 46.5469 27.5182 46.4089 26.8359 46.1328C26.1536 45.8516 25.5885 45.4505 25.1406 44.9297C24.6979 44.4089 24.3672 43.7865 24.1484 43.0625C23.9297 42.3385 23.8203 41.5339 23.8203 40.6484C23.8203 39.4661 24.013 38.4375 24.3984 37.5625C24.7891 36.6823 25.388 36 26.1953 35.5156C27.0026 35.0312 28.0286 34.7891 29.2734 34.7891C30.513 34.7891 31.5312 35.0312 32.3281 35.5156C33.1302 36 33.724 36.6823 34.1094 37.5625C34.5 38.4427 34.6953 39.4766 34.6953 40.6641ZM26.3594 40.6641C26.3594 41.4609 26.4583 42.1484 26.6562 42.7266C26.8594 43.2995 27.1745 43.7422 27.6016 44.0547C28.0286 44.362 28.5807 44.5156 29.2578 44.5156C29.9453 44.5156 30.5026 44.362 30.9297 44.0547C31.3568 43.7422 31.6667 43.2995 31.8594 42.7266C32.0573 42.1484 32.1562 41.4609 32.1562 40.6641C32.1562 39.4661 31.9323 38.5234 31.4844 37.8359C31.0365 37.1484 30.2995 36.8047 29.2734 36.8047C28.5911 36.8047 28.0339 36.9609 27.6016 37.2734C27.1745 37.5807 26.8594 38.0234 26.6562 38.6016C26.4583 39.1745 26.3594 39.862 26.3594 40.6641ZM46.0234 34.9688L42.1406 46.3906H39.5L35.625 34.9688H38.0703L40.2188 41.7656C40.2552 41.8802 40.3151 42.0964 40.3984 42.4141C40.4818 42.7266 40.5651 43.0599 40.6484 43.4141C40.737 43.763 40.7969 44.0521 40.8281 44.2812C40.8594 44.0521 40.9141 43.763 40.9922 43.4141C41.0755 43.0651 41.1562 42.7344 41.2344 42.4219C41.3177 42.1042 41.3776 41.8854 41.4141 41.7656L43.5781 34.9688H46.0234ZM47.4688 46.3906V34.9688H49.8906V46.3906H47.4688ZM62.2422 40.5703C62.2422 41.8568 61.9948 42.9323 61.5 43.7969C61.0104 44.6562 60.2995 45.3047 59.3672 45.7422C58.4349 46.1745 57.3125 46.3906 56 46.3906H52.7656V34.9688H56.3516C57.5495 34.9688 58.5885 35.1823 59.4688 35.6094C60.349 36.0312 61.0312 36.6589 61.5156 37.4922C62 38.3203 62.2422 39.3464 62.2422 40.5703ZM59.7266 40.6328C59.7266 39.7891 59.6016 39.0964 59.3516 38.5547C59.1068 38.0078 58.7422 37.6042 58.2578 37.3438C57.7786 37.0833 57.1849 36.9531 56.4766 36.9531H55.1875V44.3906H56.2266C57.4089 44.3906 58.2865 44.0755 58.8594 43.4453C59.4375 42.8151 59.7266 41.8776 59.7266 40.6328ZM72.0938 34.9688C73.1302 34.9688 73.9844 35.0938 74.6562 35.3438C75.3333 35.5938 75.8359 35.9714 76.1641 36.4766C76.4922 36.9818 76.6562 37.6198 76.6562 38.3906C76.6562 38.9115 76.5573 39.3672 76.3594 39.7578C76.1615 40.1484 75.901 40.4792 75.5781 40.75C75.2552 41.0208 74.9062 41.2422 74.5312 41.4141L77.8906 46.3906H75.2031L72.4766 42.0078H71.1875V46.3906H68.7656V34.9688H72.0938ZM71.9219 36.9531H71.1875V40.0391H71.9688C72.7708 40.0391 73.3438 39.9062 73.6875 39.6406C74.0365 39.3698 74.2109 38.974 74.2109 38.4531C74.2109 37.9115 74.0234 37.526 73.6484 37.2969C73.2786 37.0677 72.7031 36.9531 71.9219 36.9531ZM82.7422 37.4922C83.5495 37.4922 84.2448 37.6484 84.8281 37.9609C85.4115 38.2682 85.862 38.7161 86.1797 39.3047C86.4974 39.8932 86.6562 40.612 86.6562 41.4609V42.6172H81.0234C81.0495 43.2891 81.25 43.8177 81.625 44.2031C82.0052 44.5833 82.5312 44.7734 83.2031 44.7734C83.7604 44.7734 84.2708 44.7161 84.7344 44.6016C85.1979 44.487 85.6745 44.3151 86.1641 44.0859V45.9297C85.7318 46.1432 85.2786 46.2995 84.8047 46.3984C84.3359 46.4974 83.7656 46.5469 83.0938 46.5469C82.2188 46.5469 81.4427 46.3854 80.7656 46.0625C80.0938 45.7396 79.5651 45.2474 79.1797 44.5859C78.7995 43.9245 78.6094 43.0911 78.6094 42.0859C78.6094 41.0651 78.7812 40.2161 79.125 39.5391C79.474 38.8568 79.9583 38.3464 80.5781 38.0078C81.1979 37.6641 81.9193 37.4922 82.7422 37.4922ZM82.7578 39.1875C82.2943 39.1875 81.9089 39.3359 81.6016 39.6328C81.2995 39.9297 81.125 40.3958 81.0781 41.0312H84.4219C84.4167 40.6771 84.3516 40.362 84.2266 40.0859C84.1068 39.8099 83.9245 39.5911 83.6797 39.4297C83.4401 39.2682 83.1328 39.1875 82.7578 39.1875ZM90.9766 46.3906H88.5938V34.2344H90.9766V46.3906ZM95.8672 37.6562V46.3906H93.4844V37.6562H95.8672ZM94.6797 34.2344C95.0339 34.2344 95.3385 34.3177 95.5938 34.4844C95.849 34.6458 95.9766 34.9505 95.9766 35.3984C95.9766 35.8411 95.849 36.1484 95.5938 36.3203C95.3385 36.487 95.0339 36.5703 94.6797 36.5703C94.3203 36.5703 94.013 36.487 93.7578 36.3203C93.5078 36.1484 93.3828 35.8411 93.3828 35.3984C93.3828 34.9505 93.5078 34.6458 93.7578 34.4844C94.013 34.3177 94.3203 34.2344 94.6797 34.2344ZM101.977 37.4922C102.784 37.4922 103.479 37.6484 104.062 37.9609C104.646 38.2682 105.096 38.7161 105.414 39.3047C105.732 39.8932 105.891 40.612 105.891 41.4609V42.6172H100.258C100.284 43.2891 100.484 43.8177 100.859 44.2031C101.24 44.5833 101.766 44.7734 102.438 44.7734C102.995 44.7734 103.505 44.7161 103.969 44.6016C104.432 44.487 104.909 44.3151 105.398 44.0859V45.9297C104.966 46.1432 104.513 46.2995 104.039 46.3984C103.57 46.4974 103 46.5469 102.328 46.5469C101.453 46.5469 100.677 46.3854 100 46.0625C99.3281 45.7396 98.7995 45.2474 98.4141 44.5859C98.0339 43.9245 97.8438 43.0911 97.8438 42.0859C97.8438 41.0651 98.0156 40.2161 98.3594 39.5391C98.7083 38.8568 99.1927 38.3464 99.8125 38.0078C100.432 37.6641 101.154 37.4922 101.977 37.4922ZM101.992 39.1875C101.529 39.1875 101.143 39.3359 100.836 39.6328C100.534 39.9297 100.359 40.3958 100.312 41.0312H103.656C103.651 40.6771 103.586 40.362 103.461 40.0859C103.341 39.8099 103.159 39.5911 102.914 39.4297C102.674 39.2682 102.367 39.1875 101.992 39.1875ZM112.656 39.4453H110.594V46.3906H108.211V39.4453H106.898V38.2969L108.211 37.6562V37.0156C108.211 36.2708 108.336 35.6927 108.586 35.2812C108.841 34.8646 109.198 34.5729 109.656 34.4062C110.12 34.2344 110.667 34.1484 111.297 34.1484C111.76 34.1484 112.182 34.1875 112.562 34.2656C112.943 34.3385 113.253 34.4219 113.492 34.5156L112.883 36.2656C112.701 36.2083 112.503 36.1562 112.289 36.1094C112.076 36.0625 111.831 36.0391 111.555 36.0391C111.221 36.0391 110.977 36.1406 110.82 36.3438C110.669 36.5417 110.594 36.7969 110.594 37.1094V37.6562H112.656V39.4453ZM122.023 34.9688C123.497 34.9688 124.573 35.2865 125.25 35.9219C125.927 36.5521 126.266 37.4219 126.266 38.5312C126.266 39.0312 126.19 39.5104 126.039 39.9688C125.888 40.4219 125.641 40.8255 125.297 41.1797C124.958 41.5339 124.505 41.8151 123.938 42.0234C123.37 42.2266 122.669 42.3281 121.836 42.3281H120.797V46.3906H118.375V34.9688H122.023ZM121.898 36.9531H120.797V40.3438H121.594C122.047 40.3438 122.44 40.2839 122.773 40.1641C123.107 40.0443 123.365 39.8568 123.547 39.6016C123.729 39.3464 123.82 39.0182 123.82 38.6172C123.82 38.0547 123.664 37.638 123.352 37.3672C123.039 37.0911 122.555 36.9531 121.898 36.9531ZM131.812 37.4766C132.984 37.4766 133.883 37.7318 134.508 38.2422C135.133 38.7526 135.445 39.5286 135.445 40.5703V46.3906H133.781L133.32 45.2031H133.258C133.008 45.5156 132.753 45.7708 132.492 45.9688C132.232 46.1667 131.932 46.3125 131.594 46.4062C131.255 46.5 130.844 46.5469 130.359 46.5469C129.844 46.5469 129.38 46.4479 128.969 46.25C128.562 46.0521 128.242 45.75 128.008 45.3438C127.773 44.9323 127.656 44.4115 127.656 43.7812C127.656 42.8542 127.982 42.1719 128.633 41.7344C129.284 41.2917 130.26 41.0469 131.562 41L133.078 40.9531V40.5703C133.078 40.112 132.958 39.776 132.719 39.5625C132.479 39.349 132.146 39.2422 131.719 39.2422C131.297 39.2422 130.883 39.3021 130.477 39.4219C130.07 39.5417 129.664 39.6927 129.258 39.875L128.469 38.2656C128.932 38.0208 129.451 37.8281 130.023 37.6875C130.602 37.5469 131.198 37.4766 131.812 37.4766ZM133.078 42.3438L132.156 42.375C131.385 42.3958 130.849 42.5339 130.547 42.7891C130.25 43.0443 130.102 43.3802 130.102 43.7969C130.102 44.1615 130.208 44.4219 130.422 44.5781C130.635 44.7292 130.914 44.8047 131.258 44.8047C131.768 44.8047 132.198 44.6536 132.547 44.3516C132.901 44.0495 133.078 43.6198 133.078 43.0625V42.3438ZM141.453 46.5469C140.589 46.5469 139.852 46.3906 139.242 46.0781C138.633 45.7604 138.169 45.2708 137.852 44.6094C137.534 43.9479 137.375 43.1016 137.375 42.0703C137.375 41.0026 137.555 40.1328 137.914 39.4609C138.279 38.7839 138.781 38.2865 139.422 37.9688C140.068 37.651 140.815 37.4922 141.664 37.4922C142.268 37.4922 142.789 37.5521 143.227 37.6719C143.669 37.7865 144.055 37.9245 144.383 38.0859L143.68 39.9297C143.305 39.7786 142.956 39.6562 142.633 39.5625C142.31 39.4635 141.987 39.4141 141.664 39.4141C141.247 39.4141 140.901 39.513 140.625 39.7109C140.349 39.9036 140.143 40.1953 140.008 40.5859C139.872 40.9766 139.805 41.4661 139.805 42.0547C139.805 42.6328 139.878 43.112 140.023 43.4922C140.169 43.8724 140.38 44.1562 140.656 44.3438C140.932 44.526 141.268 44.6172 141.664 44.6172C142.159 44.6172 142.599 44.5521 142.984 44.4219C143.37 44.2865 143.745 44.099 144.109 43.8594V45.8984C143.745 46.1276 143.362 46.2917 142.961 46.3906C142.565 46.4948 142.062 46.5469 141.453 46.5469ZM148.523 34.2344V39.6719C148.523 40 148.51 40.3281 148.484 40.6562C148.458 40.9844 148.43 41.3125 148.398 41.6406H148.43C148.591 41.4115 148.755 41.1849 148.922 40.9609C149.094 40.737 149.276 40.5208 149.469 40.3125L151.914 37.6562H154.602L151.133 41.4453L154.812 46.3906H152.062L149.547 42.8516L148.523 43.6719V46.3906H146.141V34.2344H148.523ZM159.641 37.4766C160.812 37.4766 161.711 37.7318 162.336 38.2422C162.961 38.7526 163.273 39.5286 163.273 40.5703V46.3906H161.609L161.148 45.2031H161.086C160.836 45.5156 160.581 45.7708 160.32 45.9688C160.06 46.1667 159.76 46.3125 159.422 46.4062C159.083 46.5 158.672 46.5469 158.188 46.5469C157.672 46.5469 157.208 46.4479 156.797 46.25C156.391 46.0521 156.07 45.75 155.836 45.3438C155.602 44.9323 155.484 44.4115 155.484 43.7812C155.484 42.8542 155.81 42.1719 156.461 41.7344C157.112 41.2917 158.089 41.0469 159.391 41L160.906 40.9531V40.5703C160.906 40.112 160.786 39.776 160.547 39.5625C160.307 39.349 159.974 39.2422 159.547 39.2422C159.125 39.2422 158.711 39.3021 158.305 39.4219C157.898 39.5417 157.492 39.6927 157.086 39.875L156.297 38.2656C156.76 38.0208 157.279 37.8281 157.852 37.6875C158.43 37.5469 159.026 37.4766 159.641 37.4766ZM160.906 42.3438L159.984 42.375C159.214 42.3958 158.677 42.5339 158.375 42.7891C158.078 43.0443 157.93 43.3802 157.93 43.7969C157.93 44.1615 158.036 44.4219 158.25 44.5781C158.464 44.7292 158.742 44.8047 159.086 44.8047C159.596 44.8047 160.026 44.6536 160.375 44.3516C160.729 44.0495 160.906 43.6198 160.906 43.0625V42.3438ZM168.289 50.2344C167.07 50.2344 166.138 50.0208 165.492 49.5938C164.852 49.1719 164.531 48.5781 164.531 47.8125C164.531 47.2865 164.695 46.8464 165.023 46.4922C165.352 46.138 165.833 45.8854 166.469 45.7344C166.224 45.6302 166.01 45.4609 165.828 45.2266C165.646 44.987 165.555 44.7344 165.555 44.4688C165.555 44.1354 165.651 43.8594 165.844 43.6406C166.036 43.4167 166.315 43.1979 166.68 42.9844C166.221 42.7865 165.857 42.4688 165.586 42.0312C165.32 41.5938 165.188 41.0781 165.188 40.4844C165.188 39.849 165.326 39.3099 165.602 38.8672C165.883 38.4193 166.289 38.0781 166.82 37.8438C167.357 37.6094 168.008 37.4922 168.773 37.4922C168.935 37.4922 169.122 37.5026 169.336 37.5234C169.549 37.5443 169.745 37.5677 169.922 37.5938C170.104 37.6198 170.227 37.6406 170.289 37.6562H173.336V38.8672L171.969 39.2188C172.094 39.4115 172.188 39.6172 172.25 39.8359C172.312 40.0547 172.344 40.2865 172.344 40.5312C172.344 41.4688 172.016 42.2005 171.359 42.7266C170.708 43.2474 169.802 43.5078 168.641 43.5078C168.365 43.4922 168.104 43.4714 167.859 43.4453C167.74 43.5391 167.648 43.638 167.586 43.7422C167.523 43.8464 167.492 43.9557 167.492 44.0703C167.492 44.1849 167.539 44.2812 167.633 44.3594C167.732 44.4323 167.878 44.4896 168.07 44.5312C168.268 44.5677 168.513 44.5859 168.805 44.5859H170.289C171.247 44.5859 171.977 44.7917 172.477 45.2031C172.982 45.6146 173.234 46.2188 173.234 47.0156C173.234 48.0365 172.807 48.8281 171.953 49.3906C171.104 49.9531 169.883 50.2344 168.289 50.2344ZM168.391 48.6797C168.958 48.6797 169.445 48.625 169.852 48.5156C170.263 48.4115 170.578 48.2604 170.797 48.0625C171.016 47.8698 171.125 47.638 171.125 47.3672C171.125 47.1484 171.06 46.974 170.93 46.8438C170.805 46.7188 170.612 46.6302 170.352 46.5781C170.096 46.526 169.768 46.5 169.367 46.5H168.133C167.841 46.5 167.578 46.5469 167.344 46.6406C167.115 46.7344 166.932 46.8646 166.797 47.0312C166.661 47.2031 166.594 47.401 166.594 47.625C166.594 47.9531 166.75 48.2109 167.062 48.3984C167.38 48.5859 167.823 48.6797 168.391 48.6797ZM168.773 42.0547C169.221 42.0547 169.549 41.9167 169.758 41.6406C169.966 41.3646 170.07 40.9896 170.07 40.5156C170.07 39.9896 169.961 39.5964 169.742 39.3359C169.529 39.0703 169.206 38.9375 168.773 38.9375C168.336 38.9375 168.008 39.0703 167.789 39.3359C167.57 39.5964 167.461 39.9896 167.461 40.5156C167.461 40.9896 167.568 41.3646 167.781 41.6406C168 41.9167 168.331 42.0547 168.773 42.0547ZM178.383 37.4922C179.19 37.4922 179.885 37.6484 180.469 37.9609C181.052 38.2682 181.503 38.7161 181.82 39.3047C182.138 39.8932 182.297 40.612 182.297 41.4609V42.6172H176.664C176.69 43.2891 176.891 43.8177 177.266 44.2031C177.646 44.5833 178.172 44.7734 178.844 44.7734C179.401 44.7734 179.911 44.7161 180.375 44.6016C180.839 44.487 181.315 44.3151 181.805 44.0859V45.9297C181.372 46.1432 180.919 46.2995 180.445 46.3984C179.977 46.4974 179.406 46.5469 178.734 46.5469C177.859 46.5469 177.083 46.3854 176.406 46.0625C175.734 45.7396 175.206 45.2474 174.82 44.5859C174.44 43.9245 174.25 43.0911 174.25 42.0859C174.25 41.0651 174.422 40.2161 174.766 39.5391C175.115 38.8568 175.599 38.3464 176.219 38.0078C176.839 37.6641 177.56 37.4922 178.383 37.4922ZM178.398 39.1875C177.935 39.1875 177.549 39.3359 177.242 39.6328C176.94 39.9297 176.766 40.3958 176.719 41.0312H180.062C180.057 40.6771 179.992 40.362 179.867 40.0859C179.747 39.8099 179.565 39.5911 179.32 39.4297C179.081 39.2682 178.773 39.1875 178.398 39.1875Z" fill="#303030"/>
<path d="M17.4531 224.273C18.4896 224.273 19.3438 224.398 20.0156 224.648C20.6927 224.898 21.1953 225.276 21.5234 225.781C21.8516 226.286 22.0156 226.924 22.0156 227.695C22.0156 228.216 21.9167 228.672 21.7188 229.062C21.5208 229.453 21.2604 229.784 20.9375 230.055C20.6146 230.326 20.2656 230.547 19.8906 230.719L23.25 235.695H20.5625L17.8359 231.312H16.5469V235.695H14.125V224.273H17.4531ZM17.2812 226.258H16.5469V229.344H17.3281C18.1302 229.344 18.7031 229.211 19.0469 228.945C19.3958 228.674 19.5703 228.279 19.5703 227.758C19.5703 227.216 19.3828 226.831 19.0078 226.602C18.638 226.372 18.0625 226.258 17.2812 226.258ZM30.5938 233.102C30.5938 233.695 30.4531 234.198 30.1719 234.609C29.8958 235.016 29.4818 235.326 28.9297 235.539C28.3776 235.747 27.6901 235.852 26.8672 235.852C26.2578 235.852 25.7344 235.812 25.2969 235.734C24.8646 235.656 24.4271 235.526 23.9844 235.344V233.375C24.4583 233.589 24.9661 233.766 25.5078 233.906C26.0547 234.042 26.5339 234.109 26.9453 234.109C27.4089 234.109 27.7396 234.042 27.9375 233.906C28.1406 233.766 28.2422 233.583 28.2422 233.359C28.2422 233.214 28.2005 233.083 28.1172 232.969C28.0391 232.849 27.8672 232.716 27.6016 232.57C27.3359 232.419 26.9193 232.224 26.3516 231.984C25.8047 231.755 25.3542 231.523 25 231.289C24.651 231.055 24.3906 230.779 24.2188 230.461C24.0521 230.138 23.9688 229.729 23.9688 229.234C23.9688 228.427 24.2812 227.82 24.9062 227.414C25.5365 227.003 26.3776 226.797 27.4297 226.797C27.9714 226.797 28.487 226.852 28.9766 226.961C29.4714 227.07 29.9792 227.245 30.5 227.484L29.7812 229.203C29.349 229.016 28.9401 228.862 28.5547 228.742C28.1745 228.622 27.7865 228.562 27.3906 228.562C27.0417 228.562 26.7786 228.609 26.6016 228.703C26.4245 228.797 26.3359 228.94 26.3359 229.133C26.3359 229.273 26.3802 229.398 26.4688 229.508C26.5625 229.617 26.7396 229.74 27 229.875C27.2656 230.005 27.6536 230.174 28.1641 230.383C28.6589 230.586 29.0885 230.799 29.4531 231.023C29.8177 231.242 30.099 231.516 30.2969 231.844C30.4948 232.167 30.5938 232.586 30.5938 233.102ZM32.1172 234.578C32.1172 234.089 32.25 233.745 32.5156 233.547C32.7865 233.349 33.112 233.25 33.4922 233.25C33.862 233.25 34.1797 233.349 34.4453 233.547C34.7161 233.745 34.8516 234.089 34.8516 234.578C34.8516 235.047 34.7161 235.385 34.4453 235.594C34.1797 235.802 33.862 235.906 33.4922 235.906C33.112 235.906 32.7865 235.802 32.5156 235.594C32.25 235.385 32.1172 235.047 32.1172 234.578ZM48.1016 226.828C48.1016 227.354 47.9922 227.81 47.7734 228.195C47.5547 228.581 47.2578 228.896 46.8828 229.141C46.513 229.385 46.0964 229.565 45.6328 229.68V229.727C46.5495 229.841 47.2448 230.122 47.7188 230.57C48.1979 231.018 48.4375 231.617 48.4375 232.367C48.4375 233.034 48.2734 233.63 47.9453 234.156C47.6224 234.682 47.1224 235.096 46.4453 235.398C45.7682 235.701 44.8958 235.852 43.8281 235.852C43.1979 235.852 42.6094 235.799 42.0625 235.695C41.5208 235.596 41.0104 235.443 40.5312 235.234V233.18C41.0208 233.43 41.5339 233.62 42.0703 233.75C42.6068 233.875 43.1068 233.938 43.5703 233.938C44.4349 233.938 45.0391 233.789 45.3828 233.492C45.7318 233.19 45.9062 232.768 45.9062 232.227C45.9062 231.909 45.8255 231.641 45.6641 231.422C45.5026 231.203 45.2214 231.036 44.8203 230.922C44.4245 230.807 43.8698 230.75 43.1562 230.75H42.2891V228.898H43.1719C43.875 228.898 44.4089 228.833 44.7734 228.703C45.1432 228.568 45.3932 228.385 45.5234 228.156C45.6589 227.922 45.7266 227.656 45.7266 227.359C45.7266 226.953 45.6016 226.635 45.3516 226.406C45.1016 226.177 44.6849 226.062 44.1016 226.062C43.737 226.062 43.4036 226.109 43.1016 226.203C42.8047 226.292 42.5365 226.401 42.2969 226.531C42.0573 226.656 41.8464 226.779 41.6641 226.898L40.5469 225.234C40.9948 224.911 41.5182 224.643 42.1172 224.43C42.7214 224.216 43.4401 224.109 44.2734 224.109C45.4505 224.109 46.3828 224.346 47.0703 224.82C47.7578 225.294 48.1016 225.964 48.1016 226.828ZM49.9922 234.578C49.9922 234.089 50.125 233.745 50.3906 233.547C50.6615 233.349 50.987 233.25 51.3672 233.25C51.737 233.25 52.0547 233.349 52.3203 233.547C52.5911 233.745 52.7266 234.089 52.7266 234.578C52.7266 235.047 52.5911 235.385 52.3203 235.594C52.0547 235.802 51.737 235.906 51.3672 235.906C50.987 235.906 50.6615 235.802 50.3906 235.594C50.125 235.385 49.9922 235.047 49.9922 234.578ZM62.2031 229.984C62.2031 230.906 62.1302 231.729 61.9844 232.453C61.8438 233.177 61.6146 233.792 61.2969 234.297C60.9844 234.802 60.5729 235.188 60.0625 235.453C59.5521 235.719 58.9323 235.852 58.2031 235.852C57.2865 235.852 56.5339 235.62 55.9453 235.156C55.3568 234.688 54.9219 234.016 54.6406 233.141C54.3594 232.26 54.2188 231.208 54.2188 229.984C54.2188 228.75 54.3464 227.695 54.6016 226.82C54.862 225.94 55.2839 225.266 55.8672 224.797C56.4505 224.328 57.2292 224.094 58.2031 224.094C59.1146 224.094 59.8646 224.328 60.4531 224.797C61.0469 225.26 61.487 225.932 61.7734 226.812C62.0599 227.688 62.2031 228.745 62.2031 229.984ZM56.6172 229.984C56.6172 230.854 56.6641 231.581 56.7578 232.164C56.8568 232.742 57.0208 233.177 57.25 233.469C57.4792 233.76 57.7969 233.906 58.2031 233.906C58.6042 233.906 58.9193 233.763 59.1484 233.477C59.3828 233.185 59.5495 232.75 59.6484 232.172C59.7474 231.589 59.7969 230.859 59.7969 229.984C59.7969 229.115 59.7474 228.388 59.6484 227.805C59.5495 227.221 59.3828 226.784 59.1484 226.492C58.9193 226.195 58.6042 226.047 58.2031 226.047C57.7969 226.047 57.4792 226.195 57.25 226.492C57.0208 226.784 56.8568 227.221 56.7578 227.805C56.6641 228.388 56.6172 229.115 56.6172 229.984ZM71.3594 229.984C71.3594 230.906 71.2865 231.729 71.1406 232.453C71 233.177 70.7708 233.792 70.4531 234.297C70.1406 234.802 69.7292 235.188 69.2188 235.453C68.7083 235.719 68.0885 235.852 67.3594 235.852C66.4427 235.852 65.6901 235.62 65.1016 235.156C64.513 234.688 64.0781 234.016 63.7969 233.141C63.5156 232.26 63.375 231.208 63.375 229.984C63.375 228.75 63.5026 227.695 63.7578 226.82C64.0182 225.94 64.4401 225.266 65.0234 224.797C65.6068 224.328 66.3854 224.094 67.3594 224.094C68.2708 224.094 69.0208 224.328 69.6094 224.797C70.2031 225.26 70.6432 225.932 70.9297 226.812C71.2161 227.688 71.3594 228.745 71.3594 229.984ZM65.7734 229.984C65.7734 230.854 65.8203 231.581 65.9141 232.164C66.013 232.742 66.1771 233.177 66.4062 233.469C66.6354 233.76 66.9531 233.906 67.3594 233.906C67.7604 233.906 68.0755 233.763 68.3047 233.477C68.5391 233.185 68.7057 232.75 68.8047 232.172C68.9036 231.589 68.9531 230.859 68.9531 229.984C68.9531 229.115 68.9036 228.388 68.8047 227.805C68.7057 227.221 68.5391 226.784 68.3047 226.492C68.0755 226.195 67.7604 226.047 67.3594 226.047C66.9531 226.047 66.6354 226.195 66.4062 226.492C66.1771 226.784 66.013 227.221 65.9141 227.805C65.8203 228.388 65.7734 229.115 65.7734 229.984ZM78.4844 224.273L74.2266 235.695H72.0625L76.3203 224.273H78.4844ZM89.4766 229.875C89.4766 231.161 89.2292 232.237 88.7344 233.102C88.2448 233.961 87.5339 234.609 86.6016 235.047C85.6693 235.479 84.5469 235.695 83.2344 235.695H80V224.273H83.5859C84.7839 224.273 85.8229 224.487 86.7031 224.914C87.5833 225.336 88.2656 225.964 88.75 226.797C89.2344 227.625 89.4766 228.651 89.4766 229.875ZM86.9609 229.938C86.9609 229.094 86.8359 228.401 86.5859 227.859C86.3411 227.312 85.9766 226.909 85.4922 226.648C85.013 226.388 84.4193 226.258 83.7109 226.258H82.4219V233.695H83.4609C84.6432 233.695 85.5208 233.38 86.0938 232.75C86.6719 232.12 86.9609 231.182 86.9609 229.938ZM95.2344 226.781C96.4062 226.781 97.3047 227.036 97.9297 227.547C98.5547 228.057 98.8672 228.833 98.8672 229.875V235.695H97.2031L96.7422 234.508H96.6797C96.4297 234.82 96.1745 235.076 95.9141 235.273C95.6536 235.471 95.3542 235.617 95.0156 235.711C94.6771 235.805 94.2656 235.852 93.7812 235.852C93.2656 235.852 92.8021 235.753 92.3906 235.555C91.9844 235.357 91.6641 235.055 91.4297 234.648C91.1953 234.237 91.0781 233.716 91.0781 233.086C91.0781 232.159 91.4036 231.477 92.0547 231.039C92.7057 230.596 93.6823 230.352 94.9844 230.305L96.5 230.258V229.875C96.5 229.417 96.3802 229.081 96.1406 228.867C95.901 228.654 95.5677 228.547 95.1406 228.547C94.7188 228.547 94.3047 228.607 93.8984 228.727C93.4922 228.846 93.0859 228.997 92.6797 229.18L91.8906 227.57C92.3542 227.326 92.8724 227.133 93.4453 226.992C94.0234 226.852 94.6198 226.781 95.2344 226.781ZM96.5 231.648L95.5781 231.68C94.8073 231.701 94.2708 231.839 93.9688 232.094C93.6719 232.349 93.5234 232.685 93.5234 233.102C93.5234 233.466 93.6302 233.727 93.8438 233.883C94.0573 234.034 94.3359 234.109 94.6797 234.109C95.1901 234.109 95.6198 233.958 95.9688 233.656C96.3229 233.354 96.5 232.924 96.5 232.367V231.648ZM100.078 226.961H102.688L104.336 231.875C104.388 232.031 104.432 232.19 104.469 232.352C104.505 232.513 104.536 232.68 104.562 232.852C104.589 233.023 104.609 233.203 104.625 233.391H104.672C104.703 233.109 104.745 232.846 104.797 232.602C104.854 232.357 104.924 232.115 105.008 231.875L106.625 226.961H109.18L105.484 236.812C105.26 237.417 104.969 237.919 104.609 238.32C104.25 238.727 103.836 239.031 103.367 239.234C102.904 239.438 102.393 239.539 101.836 239.539C101.565 239.539 101.331 239.523 101.133 239.492C100.935 239.466 100.766 239.438 100.625 239.406V237.516C100.734 237.542 100.872 237.565 101.039 237.586C101.206 237.607 101.38 237.617 101.562 237.617C101.896 237.617 102.182 237.547 102.422 237.406C102.661 237.266 102.862 237.076 103.023 236.836C103.185 236.602 103.312 236.344 103.406 236.062L103.547 235.633L100.078 226.961Z" fill="#D99956"/>
<path d="M17.1187 242.536C16.6854 242.536 16.2951 242.611 15.9478 242.761C15.604 242.908 15.3104 243.123 15.0669 243.406C14.827 243.685 14.6426 244.023 14.5137 244.421C14.3848 244.818 14.3203 245.266 14.3203 245.764C14.3203 246.423 14.4224 246.995 14.6265 247.482C14.8341 247.966 15.1421 248.34 15.5503 248.605C15.9621 248.87 16.4759 249.002 17.0918 249.002C17.4427 249.002 17.7721 248.974 18.0801 248.917C18.3916 248.856 18.6942 248.78 18.9878 248.691V249.486C18.7013 249.593 18.4006 249.672 18.0854 249.722C17.7703 249.776 17.3962 249.803 16.9629 249.803C16.1644 249.803 15.4966 249.638 14.9595 249.309C14.4259 248.976 14.0249 248.507 13.7563 247.901C13.4914 247.296 13.3589 246.582 13.3589 245.758C13.3589 245.164 13.4412 244.621 13.606 244.131C13.7743 243.637 14.0177 243.211 14.3364 242.853C14.6587 242.494 15.0526 242.219 15.5181 242.025C15.9871 241.828 16.5243 241.73 17.1294 241.73C17.5269 241.73 17.91 241.769 18.2788 241.848C18.6476 241.927 18.9806 242.04 19.2778 242.187L18.9126 242.96C18.6619 242.845 18.3862 242.747 18.0854 242.665C17.7882 242.579 17.466 242.536 17.1187 242.536ZM25.6318 246.741C25.6318 247.225 25.5692 247.656 25.4438 248.036C25.3185 248.415 25.1377 248.736 24.9014 248.997C24.665 249.258 24.3786 249.459 24.042 249.599C23.709 249.735 23.3312 249.803 22.9087 249.803C22.5148 249.803 22.1532 249.735 21.8237 249.599C21.4979 249.459 21.215 249.258 20.9751 248.997C20.7388 248.736 20.5544 248.415 20.4219 248.036C20.293 247.656 20.2285 247.225 20.2285 246.741C20.2285 246.097 20.3377 245.549 20.5562 245.098C20.7746 244.643 21.0861 244.297 21.4907 244.061C21.8989 243.821 22.3841 243.701 22.9463 243.701C23.4834 243.701 23.9525 243.821 24.3535 244.061C24.7581 244.301 25.0715 244.648 25.2935 245.103C25.519 245.554 25.6318 246.1 25.6318 246.741ZM21.1523 246.741C21.1523 247.214 21.215 247.624 21.3403 247.971C21.4657 248.319 21.659 248.587 21.9204 248.777C22.1818 248.967 22.5184 249.062 22.9302 249.062C23.3384 249.062 23.6732 248.967 23.9346 248.777C24.1995 248.587 24.3947 248.319 24.52 247.971C24.6453 247.624 24.708 247.214 24.708 246.741C24.708 246.272 24.6453 245.868 24.52 245.527C24.3947 245.184 24.2013 244.919 23.9399 244.732C23.6785 244.546 23.3402 244.453 22.9248 244.453C22.3125 244.453 21.8631 244.655 21.5767 245.06C21.2938 245.465 21.1523 246.025 21.1523 246.741ZM29.9609 243.701C30.6592 243.701 31.1873 243.873 31.5454 244.217C31.9035 244.557 32.0825 245.105 32.0825 245.86V249.695H31.2017V245.919C31.2017 245.429 31.0889 245.062 30.8633 244.818C30.6413 244.575 30.2993 244.453 29.8374 244.453C29.1857 244.453 28.7274 244.638 28.4624 245.006C28.1974 245.375 28.0649 245.91 28.0649 246.612V249.695H27.1733V243.809H27.8931L28.0273 244.657H28.0757C28.201 244.45 28.3604 244.276 28.5537 244.136C28.7471 243.993 28.9637 243.886 29.2036 243.814C29.4435 243.739 29.696 243.701 29.9609 243.701ZM37.7275 248.084C37.7275 248.46 37.6326 248.777 37.4429 249.035C37.2567 249.289 36.9881 249.48 36.6372 249.609C36.2899 249.738 35.8745 249.803 35.3911 249.803C34.9793 249.803 34.623 249.771 34.3223 249.706C34.0215 249.642 33.7583 249.55 33.5327 249.432V248.61C33.7726 248.729 34.0591 248.836 34.3921 248.933C34.7251 249.029 35.0653 249.078 35.4126 249.078C35.9211 249.078 36.2899 248.995 36.519 248.831C36.7482 248.666 36.8628 248.442 36.8628 248.159C36.8628 247.998 36.8162 247.857 36.7231 247.735C36.6336 247.61 36.4814 247.49 36.2666 247.375C36.0518 247.257 35.7546 247.128 35.375 246.988C34.999 246.845 34.6732 246.704 34.3975 246.564C34.1253 246.421 33.9141 246.247 33.7637 246.043C33.6169 245.839 33.5435 245.574 33.5435 245.248C33.5435 244.75 33.744 244.369 34.145 244.104C34.5496 243.835 35.0796 243.701 35.7349 243.701C36.0894 243.701 36.4206 243.737 36.7285 243.809C37.04 243.877 37.3301 243.97 37.5986 244.088L37.2979 244.802C37.0544 244.698 36.7948 244.611 36.519 244.539C36.2433 244.467 35.9622 244.432 35.6758 244.432C35.264 244.432 34.9471 244.5 34.7251 244.636C34.5067 244.772 34.3975 244.958 34.3975 245.194C34.3975 245.377 34.4476 245.527 34.5479 245.646C34.6517 245.764 34.8164 245.875 35.042 245.979C35.2676 246.082 35.5648 246.204 35.9336 246.344C36.3024 246.48 36.6211 246.621 36.8896 246.768C37.1582 246.911 37.3641 247.087 37.5073 247.294C37.6541 247.499 37.7275 247.762 37.7275 248.084ZM44.0225 243.809V249.695H43.292L43.1631 248.868H43.1147C42.993 249.072 42.8354 249.244 42.6421 249.384C42.4487 249.523 42.2303 249.627 41.9868 249.695C41.7469 249.767 41.4909 249.803 41.2188 249.803C40.7533 249.803 40.363 249.728 40.0479 249.577C39.7327 249.427 39.4946 249.194 39.3335 248.879C39.1759 248.564 39.0972 248.159 39.0972 247.665V243.809H39.9995V247.601C39.9995 248.091 40.1105 248.458 40.3325 248.702C40.5545 248.942 40.8929 249.062 41.3477 249.062C41.7845 249.062 42.1318 248.979 42.3896 248.814C42.651 248.65 42.839 248.408 42.9536 248.089C43.0682 247.767 43.1255 247.373 43.1255 246.908V243.809H44.0225ZM52.2993 243.701C52.9474 243.701 53.4362 243.871 53.7656 244.211C54.0951 244.548 54.2598 245.09 54.2598 245.839V249.695H53.3789V245.882C53.3789 245.406 53.2751 245.049 53.0674 244.813C52.8633 244.573 52.5589 244.453 52.1543 244.453C51.585 244.453 51.1714 244.618 50.9136 244.947C50.6558 245.277 50.5269 245.762 50.5269 246.403V249.695H49.6406V245.882C49.6406 245.563 49.5941 245.298 49.501 245.087C49.4115 244.876 49.2754 244.718 49.0928 244.614C48.9137 244.507 48.6864 244.453 48.4106 244.453C48.0203 244.453 47.707 244.534 47.4707 244.695C47.2344 244.856 47.0625 245.096 46.9551 245.415C46.8512 245.73 46.7993 246.118 46.7993 246.58V249.695H45.9077V243.809H46.6274L46.7617 244.641H46.8101C46.9282 244.437 47.0768 244.265 47.2559 244.125C47.4349 243.986 47.6354 243.88 47.8574 243.809C48.0794 243.737 48.3158 243.701 48.5664 243.701C49.014 243.701 49.3882 243.785 49.689 243.954C49.9933 244.118 50.2135 244.371 50.3496 244.711H50.3979C50.5913 244.371 50.8563 244.118 51.1929 243.954C51.5295 243.785 51.8983 243.701 52.2993 243.701ZM58.3579 243.701C58.8592 243.701 59.2889 243.812 59.647 244.034C60.005 244.256 60.279 244.568 60.4688 244.969C60.6585 245.366 60.7534 245.832 60.7534 246.365V246.918H56.6875C56.6982 247.61 56.8701 248.136 57.2031 248.498C57.5361 248.859 58.0052 249.04 58.6104 249.04C58.9827 249.04 59.3122 249.006 59.5986 248.938C59.8851 248.87 60.1823 248.77 60.4902 248.637V249.421C60.193 249.554 59.8976 249.651 59.604 249.711C59.314 249.772 58.9702 249.803 58.5728 249.803C58.007 249.803 57.5129 249.688 57.0903 249.459C56.6714 249.226 56.3455 248.886 56.1128 248.438C55.88 247.991 55.7637 247.443 55.7637 246.795C55.7637 246.161 55.8693 245.613 56.0806 245.151C56.2954 244.686 56.5962 244.328 56.9829 244.077C57.3732 243.826 57.8315 243.701 58.3579 243.701ZM58.3472 244.432C57.8709 244.432 57.4914 244.587 57.2085 244.899C56.9256 245.21 56.7573 245.646 56.7036 246.204H59.8188C59.8153 245.853 59.7598 245.545 59.6523 245.28C59.5485 245.012 59.3892 244.804 59.1743 244.657C58.9595 244.507 58.6838 244.432 58.3472 244.432ZM64.9429 243.701C65.061 243.701 65.1846 243.708 65.3135 243.723C65.4424 243.733 65.557 243.75 65.6572 243.771L65.5444 244.598C65.4478 244.573 65.3403 244.553 65.2222 244.539C65.104 244.525 64.993 244.518 64.8892 244.518C64.6528 244.518 64.429 244.566 64.2178 244.663C64.0101 244.756 63.8275 244.892 63.6699 245.071C63.5124 245.246 63.3888 245.459 63.2993 245.71C63.2098 245.957 63.165 246.233 63.165 246.537V249.695H62.2681V243.809H63.0093L63.106 244.894H63.1436C63.2653 244.675 63.4121 244.476 63.584 244.297C63.7559 244.115 63.9546 243.97 64.1802 243.862C64.4093 243.755 64.6636 243.701 64.9429 243.701ZM71.8125 241.843C72.8258 241.843 73.5653 242.042 74.0308 242.439C74.4998 242.833 74.7344 243.399 74.7344 244.136C74.7344 244.469 74.6789 244.786 74.5679 245.087C74.4604 245.384 74.285 245.647 74.0415 245.876C73.798 246.102 73.4775 246.281 73.0801 246.414C72.6862 246.542 72.2028 246.607 71.6299 246.607H70.6738V249.695H69.7607V241.843H71.8125ZM71.7266 242.622H70.6738V245.823H71.5278C72.0291 245.823 72.4463 245.769 72.7793 245.662C73.1159 245.554 73.3683 245.381 73.5366 245.141C73.7049 244.897 73.7891 244.575 73.7891 244.174C73.7891 243.651 73.6226 243.263 73.2896 243.008C72.9565 242.75 72.4355 242.622 71.7266 242.622ZM78.9185 243.701C79.0366 243.701 79.1602 243.708 79.2891 243.723C79.418 243.733 79.5326 243.75 79.6328 243.771L79.52 244.598C79.4233 244.573 79.3159 244.553 79.1978 244.539C79.0796 244.525 78.9686 244.518 78.8647 244.518C78.6284 244.518 78.4046 244.566 78.1934 244.663C77.9857 244.756 77.8031 244.892 77.6455 245.071C77.488 245.246 77.3644 245.459 77.2749 245.71C77.1854 245.957 77.1406 246.233 77.1406 246.537V249.695H76.2437V243.809H76.9849L77.0815 244.894H77.1191C77.2409 244.675 77.3877 244.476 77.5596 244.297C77.7314 244.115 77.9302 243.97 78.1558 243.862C78.3849 243.755 78.6392 243.701 78.9185 243.701ZM81.6362 243.809V249.695H80.7446V243.809H81.6362ZM81.2012 241.606C81.348 241.606 81.4733 241.655 81.5771 241.751C81.6846 241.845 81.7383 241.991 81.7383 242.192C81.7383 242.389 81.6846 242.536 81.5771 242.632C81.4733 242.729 81.348 242.777 81.2012 242.777C81.0472 242.777 80.9183 242.729 80.8145 242.632C80.7142 242.536 80.6641 242.389 80.6641 242.192C80.6641 241.991 80.7142 241.845 80.8145 241.751C80.9183 241.655 81.0472 241.606 81.2012 241.606ZM85.8848 249.803C85.3548 249.803 84.8875 249.694 84.4829 249.475C84.0783 249.257 83.7632 248.924 83.5376 248.476C83.312 248.028 83.1992 247.465 83.1992 246.784C83.1992 246.072 83.3174 245.49 83.5537 245.039C83.7936 244.584 84.123 244.247 84.542 244.029C84.9609 243.81 85.4372 243.701 85.9707 243.701C86.2643 243.701 86.5472 243.732 86.8193 243.792C87.0951 243.85 87.3206 243.923 87.4961 244.013L87.2275 244.759C87.0485 244.688 86.8408 244.623 86.6045 244.566C86.3717 244.509 86.1533 244.48 85.9492 244.48C85.541 244.48 85.2008 244.568 84.9287 244.743C84.6602 244.919 84.4578 245.176 84.3218 245.517C84.1893 245.857 84.123 246.276 84.123 246.773C84.123 247.25 84.1875 247.656 84.3164 247.993C84.4489 248.329 84.644 248.587 84.9019 248.766C85.1632 248.942 85.4891 249.029 85.8794 249.029C86.1909 249.029 86.472 248.997 86.7227 248.933C86.9733 248.865 87.2007 248.786 87.4048 248.696V249.491C87.2078 249.591 86.9876 249.668 86.7441 249.722C86.5042 249.776 86.2178 249.803 85.8848 249.803ZM91.0679 243.701C91.5692 243.701 91.9989 243.812 92.3569 244.034C92.715 244.256 92.9889 244.568 93.1787 244.969C93.3685 245.366 93.4634 245.832 93.4634 246.365V246.918H89.3975C89.4082 247.61 89.5801 248.136 89.9131 248.498C90.2461 248.859 90.7152 249.04 91.3203 249.04C91.6927 249.04 92.0221 249.006 92.3086 248.938C92.5951 248.87 92.8923 248.77 93.2002 248.637V249.421C92.903 249.554 92.6076 249.651 92.314 249.711C92.0239 249.772 91.6802 249.803 91.2827 249.803C90.717 249.803 90.2228 249.688 89.8003 249.459C89.3813 249.226 89.0555 248.886 88.8228 248.438C88.59 247.991 88.4736 247.443 88.4736 246.795C88.4736 246.161 88.5793 245.613 88.7905 245.151C89.0054 244.686 89.3062 244.328 89.6929 244.077C90.0832 243.826 90.5415 243.701 91.0679 243.701ZM91.0571 244.432C90.5809 244.432 90.2013 244.587 89.9185 244.899C89.6356 245.21 89.4673 245.646 89.4136 246.204H92.5288C92.5252 245.853 92.4697 245.545 92.3623 245.28C92.2585 245.012 92.0991 244.804 91.8843 244.657C91.6694 244.507 91.3937 244.432 91.0571 244.432Z" fill="#007643"/>
<path d="M34.2324 137.131C34.2324 137.559 34.1436 137.929 33.9658 138.242C33.7881 138.555 33.5469 138.811 33.2422 139.01C32.9417 139.209 32.6032 139.355 32.2266 139.448V139.486C32.9714 139.579 33.5363 139.808 33.9214 140.172C34.3107 140.536 34.5054 141.022 34.5054 141.632C34.5054 142.174 34.3721 142.658 34.1055 143.085C33.8431 143.513 33.4368 143.849 32.8867 144.095C32.3366 144.34 31.6278 144.463 30.7603 144.463C30.2482 144.463 29.77 144.421 29.3257 144.336C28.8856 144.256 28.4709 144.131 28.0815 143.961V142.292C28.4793 142.495 28.8962 142.65 29.332 142.755C29.7679 142.857 30.1742 142.908 30.5508 142.908C31.2533 142.908 31.7441 142.787 32.0234 142.546C32.307 142.3 32.4487 141.958 32.4487 141.518C32.4487 141.259 32.3831 141.042 32.252 140.864C32.1208 140.686 31.8923 140.551 31.5664 140.458C31.2448 140.364 30.7941 140.318 30.2144 140.318H29.5098V138.813H30.2271C30.7983 138.813 31.2321 138.761 31.5283 138.655C31.8288 138.545 32.0319 138.397 32.1377 138.21C32.2477 138.02 32.3027 137.804 32.3027 137.563C32.3027 137.233 32.2012 136.975 31.998 136.789C31.7949 136.602 31.4564 136.509 30.9824 136.509C30.6862 136.509 30.4154 136.547 30.1699 136.624C29.9287 136.695 29.7108 136.784 29.5161 136.89C29.3215 136.992 29.1501 137.091 29.002 137.188L28.0942 135.836C28.4582 135.574 28.8835 135.356 29.3701 135.183C29.861 135.009 30.445 134.922 31.1221 134.922C32.0785 134.922 32.8359 135.115 33.3945 135.5C33.9531 135.885 34.2324 136.429 34.2324 137.131ZM41.9829 139.696C41.9829 140.445 41.9237 141.113 41.8052 141.702C41.6909 142.29 41.5047 142.789 41.2466 143.2C40.9927 143.61 40.6584 143.923 40.2437 144.139C39.8289 144.355 39.3254 144.463 38.7329 144.463C37.9881 144.463 37.3766 144.275 36.8984 143.898C36.4202 143.517 36.0669 142.971 35.8384 142.26C35.6099 141.545 35.4956 140.69 35.4956 139.696C35.4956 138.693 35.5993 137.836 35.8066 137.125C36.0182 136.41 36.361 135.862 36.835 135.481C37.3089 135.1 37.9416 134.91 38.7329 134.91C39.4735 134.91 40.0828 135.1 40.561 135.481C41.0435 135.858 41.401 136.403 41.6338 137.119C41.8665 137.83 41.9829 138.689 41.9829 139.696ZM37.4443 139.696C37.4443 140.403 37.4824 140.993 37.5586 141.467C37.639 141.937 37.7723 142.29 37.9585 142.527C38.1447 142.764 38.4028 142.882 38.7329 142.882C39.0588 142.882 39.3148 142.766 39.501 142.533C39.6914 142.296 39.8268 141.943 39.9072 141.473C39.9876 140.999 40.0278 140.407 40.0278 139.696C40.0278 138.989 39.9876 138.399 39.9072 137.925C39.8268 137.451 39.6914 137.095 39.501 136.858C39.3148 136.617 39.0588 136.497 38.7329 136.497C38.4028 136.497 38.1447 136.617 37.9585 136.858C37.7723 137.095 37.639 137.451 37.5586 137.925C37.4824 138.399 37.4443 138.989 37.4443 139.696ZM50.9395 144.336L48.7051 137.055H48.6479C48.6564 137.229 48.6691 137.491 48.686 137.842C48.7072 138.189 48.7262 138.56 48.7432 138.953C48.7601 139.347 48.7686 139.702 48.7686 140.02V144.336H47.0103V135.056H49.689L51.8853 142.152H51.9233L54.2529 135.056H56.9316V144.336H55.0972V139.943C55.0972 139.651 55.1014 139.315 55.1099 138.934C55.1226 138.553 55.1374 138.191 55.1543 137.849C55.1712 137.502 55.1839 137.241 55.1924 137.068H55.1353L52.7422 144.336H50.9395ZM61.0576 137.239V144.336H59.1216V137.239H61.0576ZM60.0928 134.459C60.3805 134.459 60.6281 134.527 60.8354 134.662C61.0428 134.793 61.1465 135.041 61.1465 135.405C61.1465 135.764 61.0428 136.014 60.8354 136.154C60.6281 136.289 60.3805 136.357 60.0928 136.357C59.8008 136.357 59.5511 136.289 59.3438 136.154C59.1406 136.014 59.0391 135.764 59.0391 135.405C59.0391 135.041 59.1406 134.793 59.3438 134.662C59.5511 134.527 59.8008 134.459 60.0928 134.459ZM67.126 137.106C67.8835 137.106 68.4928 137.313 68.9541 137.728C69.4154 138.139 69.646 138.799 69.646 139.708V144.336H67.71V140.191C67.71 139.683 67.6169 139.3 67.4307 139.042C67.2487 138.784 66.9609 138.655 66.5674 138.655C65.9749 138.655 65.5708 138.856 65.355 139.258C65.1392 139.66 65.0312 140.24 65.0312 140.997V144.336H63.0952V137.239H64.5742L64.8345 138.147H64.9424C65.0947 137.902 65.283 137.703 65.5073 137.55C65.7358 137.398 65.9876 137.286 66.2627 137.214C66.542 137.142 66.8298 137.106 67.126 137.106ZM76.5903 142.229C76.5903 142.711 76.4761 143.119 76.2476 143.454C76.0233 143.784 75.6868 144.035 75.2383 144.209C74.7897 144.378 74.2311 144.463 73.5625 144.463C73.0674 144.463 72.6421 144.431 72.2866 144.368C71.9354 144.304 71.5799 144.198 71.2202 144.05V142.451C71.6053 142.624 72.0179 142.768 72.458 142.882C72.9023 142.992 73.2917 143.047 73.626 143.047C74.0026 143.047 74.2713 142.992 74.4321 142.882C74.5972 142.768 74.6797 142.62 74.6797 142.438C74.6797 142.319 74.6458 142.214 74.5781 142.121C74.5146 142.023 74.375 141.915 74.1592 141.797C73.9434 141.674 73.6048 141.515 73.1436 141.321C72.6992 141.135 72.3332 140.946 72.0454 140.756C71.7619 140.565 71.5503 140.341 71.4106 140.083C71.2752 139.821 71.2075 139.488 71.2075 139.086C71.2075 138.431 71.4614 137.938 71.9692 137.607C72.4813 137.273 73.1647 137.106 74.0195 137.106C74.4596 137.106 74.8786 137.15 75.2764 137.239C75.6784 137.328 76.091 137.47 76.5142 137.665L75.9302 139.061C75.5789 138.909 75.2467 138.784 74.9336 138.687C74.6247 138.589 74.3094 138.541 73.9878 138.541C73.7043 138.541 73.4906 138.579 73.3467 138.655C73.2028 138.731 73.1309 138.847 73.1309 139.004C73.1309 139.118 73.1668 139.22 73.2388 139.309C73.3149 139.397 73.4588 139.497 73.6704 139.607C73.8862 139.713 74.2015 139.85 74.6162 140.02C75.0182 140.185 75.3674 140.358 75.6636 140.54C75.9598 140.718 76.1883 140.94 76.3491 141.207C76.5099 141.469 76.5903 141.81 76.5903 142.229Z" fill="#197745"/>
<path d="M41.4326 154.399C41.4326 155.004 41.3556 155.556 41.2017 156.053C41.0513 156.547 40.8239 156.973 40.5195 157.332C40.2152 157.686 39.8338 157.96 39.3755 158.153C38.9172 158.347 38.38 158.443 37.7642 158.443C37.1375 158.443 36.5933 158.347 36.1313 158.153C35.673 157.96 35.2917 157.684 34.9873 157.326C34.6865 156.968 34.4609 156.54 34.3105 156.042C34.1602 155.545 34.085 154.993 34.085 154.388C34.085 153.579 34.2174 152.874 34.4824 152.272C34.751 151.667 35.1574 151.198 35.7017 150.865C36.2495 150.528 36.9406 150.36 37.7749 150.36C38.5913 150.36 39.2699 150.526 39.8105 150.859C40.3512 151.192 40.7559 151.661 41.0244 152.267C41.2965 152.868 41.4326 153.579 41.4326 154.399ZM35.4385 154.399C35.4385 155.004 35.5208 155.529 35.6855 155.973C35.8503 156.413 36.1027 156.753 36.4429 156.993C36.7866 157.229 37.2271 157.348 37.7642 157.348C38.3049 157.348 38.7453 157.229 39.0854 156.993C39.4256 156.753 39.6763 156.413 39.8374 155.973C39.9985 155.529 40.0791 155.004 40.0791 154.399C40.0791 153.479 39.8947 152.759 39.5259 152.24C39.1606 151.717 38.577 151.456 37.7749 151.456C37.2378 151.456 36.7956 151.574 36.4482 151.81C36.1045 152.046 35.8503 152.385 35.6855 152.825C35.5208 153.262 35.4385 153.787 35.4385 154.399ZM46.0894 152.277C46.759 152.277 47.2799 152.451 47.6523 152.798C48.0283 153.142 48.2163 153.695 48.2163 154.458V158.336H46.9541V154.694C46.9541 154.232 46.8592 153.887 46.6694 153.658C46.4797 153.425 46.186 153.309 45.7886 153.309C45.2121 153.309 44.811 153.486 44.5854 153.84C44.3634 154.195 44.2524 154.709 44.2524 155.382V158.336H42.9902V152.39H43.9731L44.1504 153.196H44.2202C44.3491 152.988 44.5085 152.818 44.6982 152.686C44.8916 152.549 45.1064 152.447 45.3428 152.379C45.5827 152.311 45.8315 152.277 46.0894 152.277ZM59.5225 158.336H57.938L54.0923 152.068H54.0439C54.0583 152.279 54.0708 152.503 54.0815 152.739C54.0959 152.976 54.1066 153.219 54.1138 153.47C54.1245 153.72 54.1335 153.975 54.1406 154.232V158.336H52.9697V150.483H54.5435L58.3838 156.708H58.4214C58.4142 156.526 58.4053 156.316 58.3945 156.08C58.3838 155.844 58.373 155.6 58.3623 155.35C58.3551 155.095 58.3498 154.85 58.3462 154.614V150.483H59.5225V158.336ZM63.8247 152.277C64.3547 152.277 64.8094 152.387 65.189 152.605C65.5685 152.823 65.8604 153.133 66.0645 153.534C66.2686 153.935 66.3706 154.415 66.3706 154.974V155.65H62.4014C62.4157 156.227 62.5697 156.671 62.8633 156.982C63.1605 157.294 63.5758 157.45 64.1094 157.45C64.4889 157.45 64.8291 157.414 65.1299 157.342C65.4342 157.267 65.7476 157.158 66.0698 157.015V158.041C65.7726 158.18 65.4701 158.282 65.1621 158.347C64.8542 158.411 64.4854 158.443 64.0557 158.443C63.472 158.443 62.9582 158.331 62.5142 158.105C62.0737 157.876 61.7282 157.536 61.4775 157.084C61.2305 156.633 61.1069 156.073 61.1069 155.403C61.1069 154.737 61.2197 154.172 61.4453 153.706C61.6709 153.241 61.9878 152.886 62.396 152.643C62.8042 152.399 63.2804 152.277 63.8247 152.277ZM63.8247 153.228C63.4272 153.228 63.105 153.357 62.8579 153.615C62.6144 153.873 62.4712 154.25 62.4282 154.748H65.1353C65.1317 154.451 65.0815 154.188 64.9849 153.958C64.8918 153.729 64.7485 153.55 64.5552 153.421C64.3654 153.292 64.1219 153.228 63.8247 153.228ZM70.0068 157.423C70.1715 157.423 70.3345 157.409 70.4956 157.38C70.6567 157.348 70.8035 157.31 70.936 157.267V158.223C70.7964 158.284 70.6156 158.336 70.3936 158.379C70.1715 158.422 69.9406 158.443 69.7007 158.443C69.3641 158.443 69.0615 158.388 68.793 158.277C68.5244 158.162 68.3114 157.967 68.1538 157.691C67.9963 157.416 67.9175 157.034 67.9175 156.547V153.352H67.1064V152.788L67.9766 152.342L68.3901 151.069H69.1851V152.39H70.8877V153.352H69.1851V156.531C69.1851 156.832 69.2603 157.056 69.4106 157.203C69.561 157.349 69.7598 157.423 70.0068 157.423Z" fill="#303030"/>
<path d="M111.558 145.469H109.597V140.099C109.597 139.951 109.599 139.769 109.603 139.553C109.607 139.333 109.614 139.108 109.622 138.88C109.631 138.647 109.639 138.438 109.647 138.251C109.601 138.306 109.506 138.402 109.362 138.537C109.222 138.668 109.091 138.787 108.968 138.893L107.902 139.75L106.956 138.569L109.946 136.188H111.558V145.469ZM120.584 140.829C120.584 141.578 120.525 142.246 120.407 142.834C120.292 143.423 120.106 143.922 119.848 144.333C119.594 144.743 119.26 145.056 118.845 145.272C118.431 145.488 117.927 145.596 117.334 145.596C116.59 145.596 115.978 145.407 115.5 145.031C115.022 144.65 114.668 144.104 114.44 143.393C114.211 142.678 114.097 141.823 114.097 140.829C114.097 139.826 114.201 138.969 114.408 138.258C114.62 137.543 114.963 136.995 115.437 136.614C115.91 136.233 116.543 136.042 117.334 136.042C118.075 136.042 118.684 136.233 119.163 136.614C119.645 136.99 120.003 137.536 120.235 138.251C120.468 138.962 120.584 139.821 120.584 140.829ZM116.046 140.829C116.046 141.535 116.084 142.126 116.16 142.6C116.241 143.069 116.374 143.423 116.56 143.66C116.746 143.897 117.004 144.015 117.334 144.015C117.66 144.015 117.916 143.899 118.103 143.666C118.293 143.429 118.428 143.076 118.509 142.606C118.589 142.132 118.629 141.54 118.629 140.829C118.629 140.122 118.589 139.532 118.509 139.058C118.428 138.584 118.293 138.228 118.103 137.991C117.916 137.75 117.66 137.629 117.334 137.629C117.004 137.629 116.746 137.75 116.56 137.991C116.374 138.228 116.241 138.584 116.16 139.058C116.084 139.532 116.046 140.122 116.046 140.829ZM128.024 140.829C128.024 141.578 127.965 142.246 127.846 142.834C127.732 143.423 127.546 143.922 127.288 144.333C127.034 144.743 126.699 145.056 126.285 145.272C125.87 145.488 125.366 145.596 124.774 145.596C124.029 145.596 123.418 145.407 122.939 145.031C122.461 144.65 122.108 144.104 121.879 143.393C121.651 142.678 121.537 141.823 121.537 140.829C121.537 139.826 121.64 138.969 121.848 138.258C122.059 137.543 122.402 136.995 122.876 136.614C123.35 136.233 123.983 136.042 124.774 136.042C125.514 136.042 126.124 136.233 126.602 136.614C127.084 136.99 127.442 137.536 127.675 138.251C127.908 138.962 128.024 139.821 128.024 140.829ZM123.485 140.829C123.485 141.535 123.523 142.126 123.6 142.6C123.68 143.069 123.813 143.423 124 143.66C124.186 143.897 124.444 144.015 124.774 144.015C125.1 144.015 125.356 143.899 125.542 143.666C125.732 143.429 125.868 143.076 125.948 142.606C126.029 142.132 126.069 141.54 126.069 140.829C126.069 140.122 126.029 139.532 125.948 139.058C125.868 138.584 125.732 138.228 125.542 137.991C125.356 137.75 125.1 137.629 124.774 137.629C124.444 137.629 124.186 137.75 124 137.991C123.813 138.228 123.68 138.584 123.6 139.058C123.523 139.532 123.485 140.122 123.485 140.829ZM136.98 145.469L134.746 138.188H134.689C134.697 138.361 134.71 138.624 134.727 138.975C134.748 139.322 134.767 139.692 134.784 140.086C134.801 140.479 134.81 140.835 134.81 141.152V145.469H133.051V136.188H135.73L137.926 143.285H137.964L140.294 136.188H142.973V145.469H141.138V141.076C141.138 140.784 141.142 140.448 141.151 140.067C141.164 139.686 141.178 139.324 141.195 138.981C141.212 138.634 141.225 138.374 141.233 138.201H141.176L138.783 145.469H136.98ZM145.315 136.188H148.203C149.439 136.188 150.374 136.362 151.009 136.709C151.644 137.056 151.961 137.665 151.961 138.537C151.961 138.888 151.904 139.206 151.79 139.489C151.68 139.773 151.519 140.006 151.307 140.188C151.096 140.369 150.837 140.488 150.533 140.543V140.606C150.842 140.67 151.121 140.78 151.371 140.937C151.62 141.089 151.819 141.313 151.967 141.609C152.12 141.901 152.196 142.291 152.196 142.777C152.196 143.34 152.058 143.823 151.783 144.225C151.508 144.627 151.115 144.936 150.603 145.151C150.095 145.363 149.49 145.469 148.787 145.469H145.315V136.188ZM147.283 139.864H148.425C148.997 139.864 149.392 139.775 149.612 139.597C149.832 139.415 149.942 139.149 149.942 138.797C149.942 138.442 149.811 138.188 149.549 138.036C149.291 137.879 148.88 137.801 148.317 137.801H147.283V139.864ZM147.283 141.425V143.844H148.565C149.157 143.844 149.57 143.729 149.803 143.501C150.035 143.272 150.152 142.966 150.152 142.581C150.152 142.352 150.101 142.151 150 141.978C149.898 141.804 149.727 141.669 149.485 141.571C149.248 141.474 148.92 141.425 148.501 141.425H147.283ZM158.848 143.361C158.848 143.844 158.734 144.252 158.505 144.586C158.281 144.917 157.945 145.168 157.496 145.342C157.048 145.511 156.489 145.596 155.82 145.596C155.325 145.596 154.9 145.564 154.544 145.5C154.193 145.437 153.838 145.331 153.478 145.183V143.583C153.863 143.757 154.276 143.901 154.716 144.015C155.16 144.125 155.549 144.18 155.884 144.18C156.26 144.18 156.529 144.125 156.69 144.015C156.855 143.901 156.938 143.753 156.938 143.571C156.938 143.452 156.904 143.347 156.836 143.253C156.772 143.156 156.633 143.048 156.417 142.93C156.201 142.807 155.863 142.648 155.401 142.454C154.957 142.267 154.591 142.079 154.303 141.889C154.02 141.698 153.808 141.474 153.668 141.216C153.533 140.953 153.465 140.621 153.465 140.219C153.465 139.563 153.719 139.07 154.227 138.74C154.739 138.406 155.423 138.239 156.277 138.239C156.717 138.239 157.136 138.283 157.534 138.372C157.936 138.461 158.349 138.603 158.772 138.797L158.188 140.194C157.837 140.042 157.505 139.917 157.191 139.819C156.882 139.722 156.567 139.673 156.246 139.673C155.962 139.673 155.748 139.711 155.604 139.788C155.461 139.864 155.389 139.98 155.389 140.137C155.389 140.251 155.425 140.353 155.497 140.441C155.573 140.53 155.717 140.63 155.928 140.74C156.144 140.846 156.459 140.983 156.874 141.152C157.276 141.317 157.625 141.491 157.921 141.673C158.218 141.851 158.446 142.073 158.607 142.339C158.768 142.602 158.848 142.942 158.848 143.361Z" fill="#197745"/>
<path d="M112.06 159.469V151.616H113.349V159.469H112.06ZM118.393 153.41C119.062 153.41 119.583 153.584 119.956 153.931C120.332 154.275 120.52 154.828 120.52 155.591V159.469H119.257V155.827C119.257 155.365 119.162 155.02 118.973 154.791C118.783 154.558 118.489 154.441 118.092 154.441C117.515 154.441 117.114 154.619 116.889 154.973C116.667 155.328 116.556 155.841 116.556 156.515V159.469H115.293V153.523H116.276L116.454 154.329H116.523C116.652 154.121 116.812 153.951 117.001 153.818C117.195 153.682 117.41 153.58 117.646 153.512C117.886 153.444 118.135 153.41 118.393 153.41ZM124.5 158.556C124.664 158.556 124.827 158.541 124.988 158.513C125.149 158.48 125.296 158.443 125.429 158.4V159.356C125.289 159.417 125.108 159.469 124.886 159.512C124.664 159.555 124.433 159.576 124.193 159.576C123.857 159.576 123.554 159.521 123.286 159.41C123.017 159.295 122.804 159.1 122.646 158.824C122.489 158.549 122.41 158.167 122.41 157.68V154.484H121.599V153.92L122.469 153.475L122.883 152.202H123.678V153.523H125.38V154.484H123.678V157.664C123.678 157.965 123.753 158.189 123.903 158.335C124.054 158.482 124.252 158.556 124.5 158.556ZM129.006 153.41C129.536 153.41 129.991 153.519 130.37 153.738C130.75 153.956 131.042 154.266 131.246 154.667C131.45 155.068 131.552 155.548 131.552 156.106V156.783H127.583C127.597 157.36 127.751 157.804 128.044 158.115C128.342 158.427 128.757 158.583 129.291 158.583C129.67 158.583 130.01 158.547 130.311 158.475C130.615 158.4 130.929 158.291 131.251 158.147V159.173C130.954 159.313 130.651 159.415 130.343 159.479C130.035 159.544 129.667 159.576 129.237 159.576C128.653 159.576 128.139 159.463 127.695 159.238C127.255 159.009 126.909 158.668 126.659 158.217C126.412 157.766 126.288 157.206 126.288 156.536C126.288 155.87 126.401 155.304 126.626 154.839C126.852 154.373 127.169 154.019 127.577 153.775C127.985 153.532 128.462 153.41 129.006 153.41ZM129.006 154.361C128.608 154.361 128.286 154.49 128.039 154.748C127.796 155.005 127.652 155.383 127.609 155.881H130.316C130.313 155.584 130.263 155.32 130.166 155.091C130.073 154.862 129.93 154.683 129.736 154.554C129.547 154.425 129.303 154.361 129.006 154.361ZM135.988 153.41C136.089 153.41 136.198 153.416 136.316 153.426C136.434 153.437 136.536 153.451 136.622 153.469L136.504 154.651C136.429 154.629 136.336 154.613 136.225 154.603C136.117 154.592 136.021 154.586 135.935 154.586C135.709 154.586 135.494 154.624 135.29 154.699C135.086 154.771 134.905 154.882 134.748 155.032C134.59 155.179 134.466 155.363 134.377 155.585C134.287 155.807 134.243 156.065 134.243 156.359V159.469H132.975V153.523H133.963L134.135 154.57H134.194C134.312 154.359 134.459 154.166 134.635 153.99C134.81 153.815 135.011 153.675 135.236 153.571C135.465 153.464 135.716 153.41 135.988 153.41ZM140.822 153.41C141.492 153.41 142.013 153.584 142.385 153.931C142.761 154.275 142.949 154.828 142.949 155.591V159.469H141.687V155.827C141.687 155.365 141.592 155.02 141.402 154.791C141.213 154.558 140.919 154.441 140.521 154.441C139.945 154.441 139.544 154.619 139.318 154.973C139.096 155.328 138.985 155.841 138.985 156.515V159.469H137.723V153.523H138.706L138.883 154.329H138.953C139.082 154.121 139.241 153.951 139.431 153.818C139.625 153.682 139.839 153.58 140.076 153.512C140.316 153.444 140.564 153.41 140.822 153.41ZM147.085 153.41C147.615 153.41 148.07 153.519 148.449 153.738C148.829 153.956 149.121 154.266 149.325 154.667C149.529 155.068 149.631 155.548 149.631 156.106V156.783H145.662C145.676 157.36 145.83 157.804 146.124 158.115C146.421 158.427 146.836 158.583 147.37 158.583C147.749 158.583 148.089 158.547 148.39 158.475C148.694 158.4 149.008 158.291 149.33 158.147V159.173C149.033 159.313 148.73 159.415 148.422 159.479C148.114 159.544 147.746 159.576 147.316 159.576C146.732 159.576 146.218 159.463 145.774 159.238C145.334 159.009 144.988 158.668 144.738 158.217C144.491 157.766 144.367 157.206 144.367 156.536C144.367 155.87 144.48 155.304 144.706 154.839C144.931 154.373 145.248 154.019 145.656 153.775C146.064 153.532 146.541 153.41 147.085 153.41ZM147.085 154.361C146.688 154.361 146.365 154.49 146.118 154.748C145.875 155.005 145.731 155.383 145.688 155.881H148.396C148.392 155.584 148.342 155.32 148.245 155.091C148.152 154.862 148.009 154.683 147.815 154.554C147.626 154.425 147.382 154.361 147.085 154.361ZM153.267 158.556C153.432 158.556 153.595 158.541 153.756 158.513C153.917 158.48 154.064 158.443 154.196 158.4V159.356C154.057 159.417 153.876 159.469 153.654 159.512C153.432 159.555 153.201 159.576 152.961 159.576C152.624 159.576 152.322 159.521 152.053 159.41C151.785 159.295 151.572 159.1 151.414 158.824C151.257 158.549 151.178 158.167 151.178 157.68V154.484H150.367V153.92L151.237 153.475L151.65 152.202H152.445V153.523H154.148V154.484H152.445V157.664C152.445 157.965 152.521 158.189 152.671 158.335C152.821 158.482 153.02 158.556 153.267 158.556Z" fill="#303030"/>
<path d="M198.278 145.469H196.317V140.099C196.317 139.951 196.319 139.769 196.323 139.553C196.327 139.333 196.334 139.108 196.342 138.88C196.351 138.647 196.359 138.438 196.368 138.251C196.321 138.306 196.226 138.402 196.082 138.537C195.942 138.668 195.811 138.787 195.688 138.893L194.622 139.75L193.676 138.569L196.666 136.188H198.278V145.469ZM207.355 145.469H200.868V144.104L203.198 141.749C203.667 141.267 204.044 140.865 204.328 140.543C204.615 140.217 204.823 139.921 204.95 139.654C205.081 139.388 205.146 139.102 205.146 138.797C205.146 138.429 205.043 138.154 204.835 137.972C204.632 137.786 204.359 137.693 204.017 137.693C203.657 137.693 203.308 137.775 202.969 137.94C202.631 138.105 202.277 138.34 201.909 138.645L200.843 137.382C201.109 137.153 201.391 136.938 201.687 136.734C201.987 136.531 202.334 136.368 202.728 136.246C203.126 136.119 203.602 136.055 204.156 136.055C204.766 136.055 205.288 136.165 205.724 136.385C206.164 136.605 206.503 136.906 206.74 137.287C206.977 137.663 207.095 138.091 207.095 138.569C207.095 139.081 206.994 139.549 206.791 139.972C206.587 140.395 206.291 140.814 205.902 141.229C205.517 141.643 205.051 142.102 204.505 142.606L203.312 143.729V143.818H207.355V145.469ZM219.937 145.469H217.975V141.463H214.3V145.469H212.332V136.188H214.3V139.826H217.975V136.188H219.937V145.469ZM226.094 138.239C226.191 138.239 226.303 138.245 226.43 138.258C226.561 138.266 226.667 138.279 226.748 138.296L226.602 140.111C226.538 140.09 226.447 140.075 226.329 140.067C226.214 140.054 226.115 140.048 226.03 140.048C225.781 140.048 225.537 140.08 225.3 140.143C225.068 140.207 224.858 140.31 224.672 140.454C224.486 140.594 224.338 140.78 224.228 141.013C224.122 141.241 224.069 141.523 224.069 141.857V145.469H222.133V138.372H223.599L223.885 139.565H223.98C224.12 139.324 224.293 139.104 224.5 138.905C224.712 138.702 224.951 138.541 225.218 138.423C225.489 138.3 225.781 138.239 226.094 138.239ZM232.987 143.361C232.987 143.844 232.873 144.252 232.645 144.586C232.42 144.917 232.084 145.168 231.635 145.342C231.187 145.511 230.628 145.596 229.959 145.596C229.464 145.596 229.039 145.564 228.684 145.5C228.332 145.437 227.977 145.331 227.617 145.183V143.583C228.002 143.757 228.415 143.901 228.855 144.015C229.299 144.125 229.689 144.18 230.023 144.18C230.4 144.18 230.668 144.125 230.829 144.015C230.994 143.901 231.077 143.753 231.077 143.571C231.077 143.452 231.043 143.347 230.975 143.253C230.912 143.156 230.772 143.048 230.556 142.93C230.34 142.807 230.002 142.648 229.541 142.454C229.096 142.267 228.73 142.079 228.442 141.889C228.159 141.698 227.947 141.474 227.808 141.216C227.672 140.953 227.604 140.621 227.604 140.219C227.604 139.563 227.858 139.07 228.366 138.74C228.878 138.406 229.562 138.239 230.417 138.239C230.857 138.239 231.276 138.283 231.673 138.372C232.075 138.461 232.488 138.603 232.911 138.797L232.327 140.194C231.976 140.042 231.644 139.917 231.331 139.819C231.022 139.722 230.706 139.673 230.385 139.673C230.101 139.673 229.888 139.711 229.744 139.788C229.6 139.864 229.528 139.98 229.528 140.137C229.528 140.251 229.564 140.353 229.636 140.441C229.712 140.53 229.856 140.63 230.067 140.74C230.283 140.846 230.598 140.983 231.013 141.152C231.415 141.317 231.764 141.491 232.061 141.673C232.357 141.851 232.585 142.073 232.746 142.339C232.907 142.602 232.987 142.942 232.987 143.361Z" fill="#197745"/>
<path d="M200.278 151.616L197.533 159.469H196.169L193.424 151.616H194.746L196.4 156.536C196.45 156.679 196.504 156.853 196.561 157.057C196.622 157.261 196.677 157.467 196.728 157.675C196.781 157.882 196.822 158.067 196.851 158.228C196.88 158.067 196.919 157.882 196.969 157.675C197.023 157.467 197.078 157.261 197.136 157.057C197.193 156.853 197.247 156.678 197.297 156.531L198.957 151.616H200.278ZM203.511 153.41C204.263 153.41 204.831 153.577 205.214 153.91C205.601 154.243 205.794 154.762 205.794 155.467V159.469H204.897L204.655 158.625H204.612C204.444 158.84 204.27 159.018 204.091 159.157C203.912 159.297 203.705 159.401 203.468 159.469C203.236 159.54 202.951 159.576 202.614 159.576C202.26 159.576 201.943 159.512 201.664 159.383C201.384 159.25 201.164 159.05 201.003 158.781C200.842 158.513 200.761 158.173 200.761 157.761C200.761 157.148 200.989 156.688 201.443 156.38C201.902 156.072 202.593 155.902 203.517 155.87L204.548 155.833V155.521C204.548 155.109 204.451 154.816 204.258 154.64C204.068 154.465 203.799 154.377 203.452 154.377C203.155 154.377 202.867 154.42 202.587 154.506C202.308 154.592 202.036 154.697 201.771 154.823L201.363 153.931C201.653 153.777 201.982 153.652 202.351 153.555C202.723 153.458 203.11 153.41 203.511 153.41ZM204.542 156.627L203.774 156.654C203.144 156.676 202.702 156.783 202.448 156.977C202.194 157.17 202.066 157.435 202.066 157.771C202.066 158.065 202.154 158.28 202.33 158.416C202.505 158.549 202.736 158.615 203.022 158.615C203.459 158.615 203.821 158.491 204.107 158.244C204.397 157.993 204.542 157.626 204.542 157.143V156.627ZM208.829 159.469H207.561V151.111H208.829V159.469ZM211.896 153.523V159.469H210.633V153.523H211.896ZM211.272 151.246C211.466 151.246 211.632 151.298 211.772 151.401C211.915 151.505 211.987 151.684 211.987 151.938C211.987 152.189 211.915 152.368 211.772 152.476C211.632 152.579 211.466 152.631 211.272 152.631C211.072 152.631 210.902 152.579 210.762 152.476C210.626 152.368 210.558 152.189 210.558 151.938C210.558 151.684 210.626 151.505 210.762 151.401C210.902 151.298 211.072 151.246 211.272 151.246ZM215.704 159.576C214.995 159.576 214.425 159.318 213.996 158.803C213.569 158.284 213.356 157.519 213.356 156.509C213.356 155.489 213.573 154.717 214.006 154.194C214.443 153.672 215.018 153.41 215.73 153.41C216.031 153.41 216.294 153.451 216.52 153.534C216.746 153.612 216.939 153.72 217.1 153.856C217.265 153.992 217.404 154.144 217.519 154.312H217.578C217.56 154.201 217.539 154.042 217.514 153.834C217.492 153.623 217.481 153.428 217.481 153.249V151.111H218.749V159.469H217.761L217.535 158.658H217.481C217.374 158.83 217.238 158.985 217.073 159.125C216.912 159.261 216.719 159.37 216.493 159.453C216.271 159.535 216.008 159.576 215.704 159.576ZM216.058 158.55C216.599 158.55 216.98 158.395 217.202 158.083C217.424 157.771 217.539 157.304 217.546 156.681V156.515C217.546 155.849 217.438 155.338 217.224 154.984C217.009 154.626 216.617 154.447 216.047 154.447C215.593 154.447 215.245 154.631 215.005 155C214.769 155.365 214.651 155.875 214.651 156.531C214.651 157.186 214.769 157.687 215.005 158.035C215.245 158.378 215.596 158.55 216.058 158.55ZM221.821 153.523V159.469H220.559V153.523H221.821ZM221.198 151.246C221.392 151.246 221.558 151.298 221.698 151.401C221.841 151.505 221.913 151.684 221.913 151.938C221.913 152.189 221.841 152.368 221.698 152.476C221.558 152.579 221.392 152.631 221.198 152.631C220.998 152.631 220.828 152.579 220.688 152.476C220.552 152.368 220.484 152.189 220.484 151.938C220.484 151.684 220.552 151.505 220.688 151.401C220.828 151.298 220.998 151.246 221.198 151.246ZM225.844 158.556C226.009 158.556 226.172 158.541 226.333 158.513C226.494 158.48 226.641 158.443 226.773 158.4V159.356C226.634 159.417 226.453 159.469 226.231 159.512C226.009 159.555 225.778 159.576 225.538 159.576C225.201 159.576 224.899 159.521 224.63 159.41C224.362 159.295 224.149 159.1 223.991 158.824C223.834 158.549 223.755 158.167 223.755 157.68V154.484H222.944V153.92L223.814 153.475L224.228 152.202H225.022V153.523H226.725V154.484H225.022V157.664C225.022 157.965 225.098 158.189 225.248 158.335C225.398 158.482 225.597 158.556 225.844 158.556ZM227.085 153.523H228.46L229.679 156.917C229.733 157.071 229.781 157.224 229.824 157.374C229.871 157.521 229.91 157.666 229.942 157.809C229.978 157.952 230.007 158.096 230.028 158.239H230.061C230.096 158.053 230.146 157.845 230.211 157.616C230.279 157.383 230.354 157.15 230.437 156.917L231.607 153.523H232.966L230.415 160.285C230.268 160.672 230.087 161.001 229.873 161.273C229.661 161.549 229.411 161.757 229.121 161.896C228.831 162.04 228.499 162.111 228.127 162.111C227.948 162.111 227.792 162.101 227.66 162.079C227.527 162.061 227.414 162.042 227.321 162.02V161.01C227.396 161.028 227.491 161.044 227.606 161.059C227.721 161.073 227.839 161.08 227.96 161.08C228.186 161.08 228.381 161.035 228.546 160.946C228.711 160.856 228.85 160.729 228.965 160.564C229.079 160.403 229.174 160.219 229.25 160.011L229.459 159.453L227.085 153.523Z" fill="#303030"/>
<rect x="145.227" y="228.891" width="109.883" height="29.4531" rx="14.7266" fill="#3E4095"/>
<path d="M172.336 239.551L169.342 248.117H167.854L164.859 239.551H166.301L168.105 244.918C168.16 245.074 168.219 245.264 168.281 245.486C168.348 245.709 168.408 245.934 168.463 246.16C168.521 246.387 168.566 246.588 168.598 246.764C168.629 246.588 168.672 246.387 168.727 246.16C168.785 245.934 168.846 245.709 168.908 245.486C168.971 245.264 169.029 245.072 169.084 244.912L170.895 239.551H172.336ZM174.697 241.631V248.117H173.32V241.631H174.697ZM174.018 239.146C174.229 239.146 174.41 239.203 174.562 239.316C174.719 239.43 174.797 239.625 174.797 239.902C174.797 240.176 174.719 240.371 174.562 240.488C174.41 240.602 174.229 240.658 174.018 240.658C173.799 240.658 173.613 240.602 173.461 240.488C173.312 240.371 173.238 240.176 173.238 239.902C173.238 239.625 173.312 239.43 173.461 239.316C173.613 239.203 173.799 239.146 174.018 239.146ZM179.256 241.508C179.834 241.508 180.33 241.627 180.744 241.865C181.158 242.104 181.477 242.441 181.699 242.879C181.922 243.316 182.033 243.84 182.033 244.449V245.188H177.703C177.719 245.816 177.887 246.301 178.207 246.641C178.531 246.98 178.984 247.15 179.566 247.15C179.98 247.15 180.352 247.111 180.68 247.033C181.012 246.951 181.354 246.832 181.705 246.676V247.795C181.381 247.947 181.051 248.059 180.715 248.129C180.379 248.199 179.977 248.234 179.508 248.234C178.871 248.234 178.311 248.111 177.826 247.865C177.346 247.615 176.969 247.244 176.695 246.752C176.426 246.26 176.291 245.648 176.291 244.918C176.291 244.191 176.414 243.574 176.66 243.066C176.906 242.559 177.252 242.172 177.697 241.906C178.143 241.641 178.662 241.508 179.256 241.508ZM179.256 242.545C178.822 242.545 178.471 242.686 178.201 242.967C177.936 243.248 177.779 243.66 177.732 244.203H180.686C180.682 243.879 180.627 243.592 180.521 243.342C180.42 243.092 180.264 242.896 180.053 242.756C179.846 242.615 179.58 242.545 179.256 242.545ZM188.889 248.111L188.068 245.094C188.029 244.945 187.982 244.766 187.928 244.555C187.873 244.344 187.818 244.127 187.764 243.904C187.709 243.678 187.658 243.469 187.611 243.277C187.568 243.086 187.535 242.938 187.512 242.832H187.465C187.445 242.938 187.414 243.086 187.371 243.277C187.328 243.469 187.279 243.678 187.225 243.904C187.17 244.131 187.115 244.352 187.061 244.566C187.01 244.781 186.963 244.965 186.92 245.117L186.059 248.111H184.547L182.73 241.625H184.125L184.969 244.848C185.023 245.066 185.076 245.303 185.127 245.557C185.182 245.811 185.229 246.053 185.268 246.283C185.307 246.514 185.336 246.703 185.355 246.852H185.402C185.418 246.746 185.439 246.613 185.467 246.453C185.494 246.289 185.525 246.119 185.561 245.943C185.596 245.764 185.631 245.596 185.666 245.439C185.701 245.279 185.734 245.15 185.766 245.053L186.762 241.625H188.268L189.223 245.053C189.266 245.201 189.312 245.389 189.363 245.615C189.414 245.838 189.459 246.062 189.498 246.289C189.541 246.512 189.568 246.697 189.58 246.846H189.627C189.643 246.713 189.67 246.533 189.709 246.307C189.752 246.076 189.801 245.832 189.855 245.574C189.91 245.312 189.967 245.07 190.025 244.848L190.887 241.625H192.258L190.43 248.111H188.889ZM203.584 243.752C203.584 244.717 203.404 245.523 203.045 246.172C202.686 246.816 202.164 247.303 201.48 247.631C200.797 247.955 199.973 248.117 199.008 248.117H196.629V239.551H199.266C200.152 239.551 200.918 239.711 201.562 240.031C202.207 240.348 202.705 240.818 203.057 241.443C203.408 242.064 203.584 242.834 203.584 243.752ZM202.119 243.793C202.119 243.09 202.008 242.512 201.785 242.059C201.566 241.605 201.242 241.27 200.812 241.051C200.387 240.828 199.861 240.717 199.236 240.717H198.035V246.939H199.031C200.066 246.939 200.84 246.676 201.352 246.148C201.863 245.621 202.119 244.836 202.119 243.793ZM207.873 241.508C208.451 241.508 208.947 241.627 209.361 241.865C209.775 242.104 210.094 242.441 210.316 242.879C210.539 243.316 210.65 243.84 210.65 244.449V245.188H206.32C206.336 245.816 206.504 246.301 206.824 246.641C207.148 246.98 207.602 247.15 208.184 247.15C208.598 247.15 208.969 247.111 209.297 247.033C209.629 246.951 209.971 246.832 210.322 246.676V247.795C209.998 247.947 209.668 248.059 209.332 248.129C208.996 248.199 208.594 248.234 208.125 248.234C207.488 248.234 206.928 248.111 206.443 247.865C205.963 247.615 205.586 247.244 205.312 246.752C205.043 246.26 204.908 245.648 204.908 244.918C204.908 244.191 205.031 243.574 205.277 243.066C205.523 242.559 205.869 242.172 206.314 241.906C206.76 241.641 207.279 241.508 207.873 241.508ZM207.873 242.545C207.439 242.545 207.088 242.686 206.818 242.967C206.553 243.248 206.396 243.66 206.35 244.203H209.303C209.299 243.879 209.244 243.592 209.139 243.342C209.037 243.092 208.881 242.896 208.67 242.756C208.463 242.615 208.197 242.545 207.873 242.545ZM214.617 247.121C214.797 247.121 214.975 247.105 215.15 247.074C215.326 247.039 215.486 246.998 215.631 246.951V247.994C215.479 248.061 215.281 248.117 215.039 248.164C214.797 248.211 214.545 248.234 214.283 248.234C213.916 248.234 213.586 248.174 213.293 248.053C213 247.928 212.768 247.715 212.596 247.414C212.424 247.113 212.338 246.697 212.338 246.166V242.68H211.453V242.064L212.402 241.578L212.854 240.189H213.721V241.631H215.578V242.68H213.721V246.148C213.721 246.477 213.803 246.721 213.967 246.881C214.131 247.041 214.348 247.121 214.617 247.121ZM219.492 241.508C220.312 241.508 220.932 241.689 221.35 242.053C221.771 242.416 221.982 242.982 221.982 243.752V248.117H221.004L220.74 247.197H220.693C220.51 247.432 220.32 247.625 220.125 247.777C219.93 247.93 219.703 248.043 219.445 248.117C219.191 248.195 218.881 248.234 218.514 248.234C218.127 248.234 217.781 248.164 217.477 248.023C217.172 247.879 216.932 247.66 216.756 247.367C216.58 247.074 216.492 246.703 216.492 246.254C216.492 245.586 216.74 245.084 217.236 244.748C217.736 244.412 218.49 244.227 219.498 244.191L220.623 244.15V243.811C220.623 243.361 220.518 243.041 220.307 242.85C220.1 242.658 219.807 242.562 219.428 242.562C219.104 242.562 218.789 242.609 218.484 242.703C218.18 242.797 217.883 242.912 217.594 243.049L217.148 242.076C217.465 241.908 217.824 241.771 218.227 241.666C218.633 241.561 219.055 241.508 219.492 241.508ZM220.617 245.018L219.779 245.047C219.092 245.07 218.609 245.188 218.332 245.398C218.055 245.609 217.916 245.898 217.916 246.266C217.916 246.586 218.012 246.82 218.203 246.969C218.395 247.113 218.646 247.186 218.959 247.186C219.436 247.186 219.83 247.051 220.143 246.781C220.459 246.508 220.617 246.107 220.617 245.58V245.018ZM225.287 241.631V248.117H223.91V241.631H225.287ZM224.607 239.146C224.818 239.146 225 239.203 225.152 239.316C225.309 239.43 225.387 239.625 225.387 239.902C225.387 240.176 225.309 240.371 225.152 240.488C225 240.602 224.818 240.658 224.607 240.658C224.389 240.658 224.203 240.602 224.051 240.488C223.902 240.371 223.828 240.176 223.828 239.902C223.828 239.625 223.902 239.43 224.051 239.316C224.203 239.203 224.389 239.146 224.607 239.146ZM228.645 248.117H227.262V239H228.645V248.117ZM234.973 246.266C234.973 246.691 234.869 247.051 234.662 247.344C234.455 247.637 234.152 247.859 233.754 248.012C233.359 248.16 232.875 248.234 232.301 248.234C231.848 248.234 231.457 248.201 231.129 248.135C230.805 248.072 230.498 247.975 230.209 247.842V246.652C230.518 246.797 230.863 246.922 231.246 247.027C231.633 247.133 231.998 247.186 232.342 247.186C232.795 247.186 233.121 247.115 233.32 246.975C233.52 246.83 233.619 246.639 233.619 246.4C233.619 246.26 233.578 246.135 233.496 246.025C233.418 245.912 233.27 245.797 233.051 245.68C232.836 245.559 232.52 245.414 232.102 245.246C231.691 245.082 231.346 244.918 231.064 244.754C230.783 244.59 230.57 244.393 230.426 244.162C230.281 243.928 230.209 243.629 230.209 243.266C230.209 242.691 230.436 242.256 230.889 241.959C231.346 241.658 231.949 241.508 232.699 241.508C233.098 241.508 233.473 241.549 233.824 241.631C234.18 241.709 234.527 241.824 234.867 241.977L234.434 243.014C234.141 242.885 233.846 242.779 233.549 242.697C233.256 242.611 232.957 242.568 232.652 242.568C232.297 242.568 232.025 242.623 231.838 242.732C231.654 242.842 231.562 242.998 231.562 243.201C231.562 243.354 231.607 243.482 231.697 243.588C231.787 243.693 231.941 243.799 232.16 243.904C232.383 244.01 232.691 244.141 233.086 244.297C233.473 244.445 233.807 244.602 234.088 244.766C234.373 244.926 234.592 245.123 234.744 245.357C234.896 245.592 234.973 245.895 234.973 246.266Z" fill="white"/>
<path d="M59.315 103.933H57.5722C57.5715 103.24 57.2959 102.575 56.8058 102.085C56.3156 101.595 55.6511 101.319 54.958 101.319V99.5757C56.1131 99.5771 57.2205 100.037 58.0373 100.853C58.8541 101.67 59.3136 102.778 59.315 103.933Z" fill="#303030"/>
<path d="M62.8004 103.933H61.0576C61.0557 102.316 60.4125 100.765 59.269 99.6215C58.1254 98.478 56.575 97.8348 54.9578 97.8329V96.0901C57.0371 96.0925 59.0305 96.9195 60.5008 98.3897C61.971 99.86 62.7981 101.853 62.8004 103.933ZM61.0576 117.875H60.9094C43.7865 116.89 41.3553 102.443 41.0155 98.0334C40.9624 97.3421 41.186 96.6581 41.6372 96.1317C42.0884 95.6054 42.7302 95.2798 43.4214 95.2266C43.4906 95.2214 43.56 95.2188 43.6297 95.2188H48.2219C48.571 95.2184 48.9121 95.3229 49.2011 95.5187C49.49 95.7144 49.7136 95.9924 49.8427 96.3167L51.1672 99.5757C51.2948 99.8925 51.3264 100.24 51.2583 100.574C51.1901 100.909 51.0251 101.216 50.7838 101.458L48.9278 103.331C49.2165 104.98 50.0051 106.499 51.1867 107.684C52.3683 108.868 53.8856 109.661 55.5329 109.954L57.4239 108.081C57.6692 107.842 57.9793 107.681 58.3155 107.617C58.6518 107.554 58.9993 107.591 59.3148 107.723L62.5999 109.039C62.9193 109.172 63.1918 109.398 63.3827 109.686C63.5736 109.975 63.6742 110.314 63.6718 110.66V115.261C63.6718 115.954 63.3963 116.619 62.9061 117.109C62.4158 117.6 61.7509 117.875 61.0576 117.875ZM43.6297 96.9615C43.5153 96.9612 43.4019 96.9834 43.296 97.0269C43.1902 97.0703 43.0939 97.1342 43.0127 97.2149C42.9316 97.2956 42.8671 97.3915 42.823 97.497C42.7789 97.6026 42.756 97.7159 42.7557 97.8303C42.7557 97.8547 42.7565 97.8788 42.7583 97.9026C43.1591 103.061 45.7297 115.261 61.0053 116.132C61.2359 116.146 61.4626 116.068 61.6355 115.914C61.8084 115.761 61.9133 115.545 61.9272 115.315L61.929 115.261V110.66L58.6438 109.344L56.1429 111.828L55.7246 111.775C48.1435 110.825 47.1153 103.244 47.1153 103.166L47.063 102.748L49.5377 100.247L48.2306 96.9615H43.6297Z" fill="#303030"/>
<path d="M121.914 104.964C122.492 105.542 123.409 105.598 124.032 105.077C129.322 100.727 137.003 100.727 142.304 105.066C142.939 105.587 143.868 105.542 144.445 104.964C145.114 104.295 145.068 103.185 144.332 102.585C137.864 97.2946 128.507 97.2946 122.027 102.585C121.291 103.174 121.234 104.284 121.914 104.964ZM130.704 113.754L132.37 115.42C132.811 115.861 133.525 115.861 133.967 115.42L135.632 113.754C136.165 113.222 136.051 112.304 135.372 111.953C134.686 111.601 133.927 111.418 133.157 111.418C132.387 111.418 131.628 111.601 130.942 111.953C130.297 112.304 130.172 113.222 130.704 113.754ZM126.479 109.529C127.034 110.084 127.906 110.141 128.552 109.676C129.904 108.72 131.518 108.207 133.174 108.207C134.829 108.207 136.444 108.72 137.796 109.676C138.442 110.129 139.314 110.084 139.869 109.529L139.88 109.518C140.56 108.838 140.515 107.683 139.733 107.127C135.836 104.307 130.523 104.307 126.615 107.127C125.833 107.694 125.788 108.838 126.479 109.529Z" fill="#303030"/>
<path d="M214.317 95.2188C208.064 95.2188 203 100.294 203 106.547C203 112.8 208.064 117.875 214.317 117.875C220.581 117.875 225.656 112.8 225.656 106.547C225.656 100.294 220.581 95.2188 214.317 95.2188ZM214.328 115.609C209.321 115.609 205.266 111.554 205.266 106.547C205.266 101.54 209.321 97.4844 214.328 97.4844C219.335 97.4844 223.391 101.54 223.391 106.547C223.391 111.554 219.335 115.609 214.328 115.609ZM214.895 100.883H213.195V107.68L219.143 111.248L219.992 109.855L214.895 106.83V100.883Z" fill="#303030"/>
</svg>
