<svg width="117" height="116" viewBox="0 0 117 116" fill="none" xmlns="http://www.w3.org/2000/svg">
<path d="M45.7711 22.3256C54.309 22.3256 62.8424 22.3256 71.3803 22.3256C72.1599 22.3256 73.0522 22.8101 73.7942 23.2153C76.5031 24.704 77.7592 27.0341 77.7592 30.0777C77.7547 48.0705 77.7592 66.0633 77.7547 84.0561C77.7547 84.3028 77.7413 84.5539 77.7279 84.8005C77.5089 88.7294 74.2859 91.7686 70.2896 91.773C62.4446 91.7862 54.5996 91.7862 46.7545 91.773C42.642 91.7642 39.3163 88.496 39.3163 84.4437C39.3073 66.1778 39.3073 47.9163 39.3163 29.6504C39.3163 27.2367 40.3712 25.3075 42.2844 23.8143C43.317 23.0083 44.9022 22.3256 45.7756 22.3256H45.7711ZM58.5735 28.6682C57.0134 28.6682 55.4534 28.6594 53.8933 28.6682C52.8428 28.677 52.1589 29.2672 52.1231 30.1658C52.0874 31.0599 52.816 31.7778 53.862 31.7867C56.9598 31.8043 60.0531 31.8043 63.1509 31.7867C64.2237 31.7823 64.921 31.1172 64.9121 30.1966C64.9032 29.2716 64.2148 28.6726 63.1151 28.6682C61.5998 28.6594 60.0889 28.6682 58.5735 28.6682ZM58.5467 85.4348C60.3124 85.426 61.7428 84.0077 61.7249 82.2855C61.707 80.5677 60.2453 79.1494 58.502 79.1626C56.7497 79.1714 55.3327 80.5941 55.3461 82.3295C55.3595 84.0914 56.7542 85.4436 58.5467 85.4348Z" fill="#007643"/>
<circle cx="58.5348" cy="57.6744" r="56.6744" stroke="#007643" stroke-width="2"/>
</svg>
