<svg width="119" height="35" viewBox="0 0 119 35" fill="none" xmlns="http://www.w3.org/2000/svg">
<rect y="0.648438" width="118.945" height="33.9844" rx="16.9922" fill="#D99956"/>
<path d="M44.3086 13.5742L41.3145 22.1406H39.8262L36.832 13.5742H38.2734L40.0781 18.9414C40.1328 19.0977 40.1914 19.2871 40.2539 19.5098C40.3203 19.7324 40.3809 19.957 40.4355 20.1836C40.4941 20.4102 40.5391 20.6113 40.5703 20.7871C40.6016 20.6113 40.6445 20.4102 40.6992 20.1836C40.7578 19.957 40.8184 19.7324 40.8809 19.5098C40.9434 19.2871 41.002 19.0957 41.0566 18.9355L42.8672 13.5742H44.3086ZM46.6699 15.6543V22.1406H45.293V15.6543H46.6699ZM45.9902 13.1699C46.2012 13.1699 46.3828 13.2266 46.5352 13.3398C46.6914 13.4531 46.7695 13.6484 46.7695 13.9258C46.7695 14.1992 46.6914 14.3945 46.5352 14.5117C46.3828 14.625 46.2012 14.6816 45.9902 14.6816C45.7715 14.6816 45.5859 14.625 45.4336 14.5117C45.2852 14.3945 45.2109 14.1992 45.2109 13.9258C45.2109 13.6484 45.2852 13.4531 45.4336 13.3398C45.5859 13.2266 45.7715 13.1699 45.9902 13.1699ZM51.2285 15.5312C51.8066 15.5312 52.3027 15.6504 52.7168 15.8887C53.1309 16.127 53.4492 16.4648 53.6719 16.9023C53.8945 17.3398 54.0059 17.8633 54.0059 18.4727V19.2109H49.6758C49.6914 19.8398 49.8594 20.3242 50.1797 20.6641C50.5039 21.0039 50.957 21.1738 51.5391 21.1738C51.9531 21.1738 52.3242 21.1348 52.6523 21.0566C52.9844 20.9746 53.3262 20.8555 53.6777 20.6992V21.8184C53.3535 21.9707 53.0234 22.082 52.6875 22.1523C52.3516 22.2227 51.9492 22.2578 51.4805 22.2578C50.8438 22.2578 50.2832 22.1348 49.7988 21.8887C49.3184 21.6387 48.9414 21.2676 48.668 20.7754C48.3984 20.2832 48.2637 19.6719 48.2637 18.9414C48.2637 18.2148 48.3867 17.5977 48.6328 17.0898C48.8789 16.582 49.2246 16.1953 49.6699 15.9297C50.1152 15.6641 50.6348 15.5312 51.2285 15.5312ZM51.2285 16.5684C50.7949 16.5684 50.4434 16.709 50.1738 16.9902C49.9082 17.2715 49.752 17.6836 49.7051 18.2266H52.6582C52.6543 17.9023 52.5996 17.6152 52.4941 17.3652C52.3926 17.1152 52.2363 16.9199 52.0254 16.7793C51.8184 16.6387 51.5527 16.5684 51.2285 16.5684ZM60.8613 22.1348L60.041 19.1172C60.002 18.9688 59.9551 18.7891 59.9004 18.5781C59.8457 18.3672 59.791 18.1504 59.7363 17.9277C59.6816 17.7012 59.6309 17.4922 59.584 17.3008C59.541 17.1094 59.5078 16.9609 59.4844 16.8555H59.4375C59.418 16.9609 59.3867 17.1094 59.3438 17.3008C59.3008 17.4922 59.252 17.7012 59.1973 17.9277C59.1426 18.1543 59.0879 18.375 59.0332 18.5898C58.9824 18.8047 58.9355 18.9883 58.8926 19.1406L58.0312 22.1348H56.5195L54.7031 15.6484H56.0977L56.9414 18.8711C56.9961 19.0898 57.0488 19.3262 57.0996 19.5801C57.1543 19.834 57.2012 20.0762 57.2402 20.3066C57.2793 20.5371 57.3086 20.7266 57.3281 20.875H57.375C57.3906 20.7695 57.4121 20.6367 57.4395 20.4766C57.4668 20.3125 57.498 20.1426 57.5332 19.9668C57.5684 19.7871 57.6035 19.6191 57.6387 19.4629C57.6738 19.3027 57.707 19.1738 57.7383 19.0762L58.7344 15.6484H60.2402L61.1953 19.0762C61.2383 19.2246 61.2852 19.4121 61.3359 19.6387C61.3867 19.8613 61.4316 20.0859 61.4707 20.3125C61.5137 20.5352 61.541 20.7207 61.5527 20.8691H61.5996C61.6152 20.7363 61.6426 20.5566 61.6816 20.3301C61.7246 20.0996 61.7734 19.8555 61.8281 19.5977C61.8828 19.3359 61.9395 19.0938 61.998 18.8711L62.8594 15.6484H64.2305L62.4023 22.1348H60.8613ZM73.9102 22.1406L73.0723 19.7617H69.7969L68.959 22.1406H67.4766L70.6641 13.5391H72.2227L75.4043 22.1406H73.9102ZM72.709 18.5547L71.8945 16.2109C71.8633 16.1094 71.8184 15.9668 71.7598 15.7832C71.7012 15.5957 71.6426 15.4062 71.584 15.2148C71.5254 15.0195 71.4766 14.8555 71.4375 14.7227C71.3984 14.8828 71.3496 15.0625 71.291 15.2617C71.2363 15.457 71.1816 15.6406 71.127 15.8125C71.0762 15.9844 71.0371 16.1172 71.0098 16.2109L70.1895 18.5547H72.709ZM77.7773 22.1406H76.3945V13.0234H77.7773V22.1406ZM81.1289 22.1406H79.7461V13.0234H81.1289V22.1406Z" fill="white"/>
</svg>
