<svg width="1128" height="190" viewBox="0 0 1128 190" fill="none" xmlns="http://www.w3.org/2000/svg">
<g filter="url(#filter0_d_316_921)">
<rect x="8" y="8" width="174" height="174" rx="18" fill="#F6F6F6"/>
</g>
<path d="M81.9108 30.3256C90.4487 30.3256 98.9821 30.3256 107.52 30.3256C108.3 30.3256 109.192 30.8101 109.934 31.2153C112.643 32.704 113.899 35.0341 113.899 38.0777C113.894 56.0705 113.899 74.0633 113.894 92.0561C113.894 92.3028 113.881 92.5539 113.868 92.8005C113.649 96.7294 110.426 99.7686 106.429 99.773C98.5842 99.7862 90.7392 99.7862 82.8942 99.773C78.7817 99.7642 75.4559 96.496 75.4559 92.4437C75.447 74.1778 75.447 55.9163 75.4559 37.6504C75.4559 35.2367 76.5109 33.3075 78.4241 31.8143C79.4567 31.0083 81.0418 30.3256 81.9152 30.3256H81.9108ZM94.7131 36.6682C93.1531 36.6682 91.593 36.6594 90.0329 36.6682C88.9825 36.677 88.2985 37.2672 88.2628 38.1658C88.227 39.0599 88.9556 39.7778 90.0016 39.7867C93.0994 39.8043 96.1927 39.8043 99.2905 39.7867C100.363 39.7823 101.061 39.1172 101.052 38.1966C101.043 37.2716 100.354 36.6726 99.2548 36.6682C97.7394 36.6594 96.2285 36.6682 94.7131 36.6682ZM94.6863 93.4348C96.452 93.426 97.8824 92.0077 97.8646 90.2855C97.8467 88.5677 96.385 87.1494 94.6416 87.1626C92.8893 87.1714 91.4723 88.5941 91.4857 90.3295C91.4991 92.0914 92.8938 93.4436 94.6863 93.4348Z" fill="#007643"/>
<path d="M66.895 161.915L64.6338 155.357H64.5855C64.5962 155.503 64.6087 155.704 64.6231 155.958C64.6374 156.212 64.6499 156.485 64.6607 156.775C64.6714 157.065 64.6768 157.342 64.6768 157.607V161.915H63.5059V154.062H65.3159L67.4912 160.33H67.5235L69.7739 154.062H71.5786V161.915H70.3486V157.543C70.3486 157.303 70.3522 157.043 70.3594 156.764C70.3701 156.485 70.3809 156.22 70.3916 155.969C70.4059 155.718 70.4167 155.518 70.4238 155.367H70.3809L68.0337 161.915H66.895ZM72.6206 155.969H73.9956L75.2149 159.363C75.2686 159.517 75.3169 159.67 75.3599 159.82C75.4064 159.967 75.4458 160.112 75.478 160.255C75.5138 160.398 75.5425 160.542 75.564 160.685H75.5962C75.632 160.499 75.6821 160.291 75.7466 160.062C75.8146 159.829 75.8898 159.596 75.9722 159.363L77.1431 155.969H78.502L75.9507 162.731C75.8039 163.118 75.6231 163.447 75.4082 163.719C75.197 163.995 74.9463 164.203 74.6563 164.342C74.3662 164.486 74.035 164.557 73.6626 164.557C73.4836 164.557 73.3278 164.547 73.1953 164.525C73.0628 164.507 72.95 164.487 72.8569 164.466V163.456C72.9321 163.474 73.027 163.49 73.1416 163.505C73.2562 163.519 73.3744 163.526 73.4961 163.526C73.7217 163.526 73.9168 163.481 74.0816 163.392C74.2463 163.302 74.3859 163.175 74.5005 163.01C74.6151 162.849 74.71 162.665 74.7852 162.457L74.9946 161.899L72.6206 155.969ZM86.9238 159.777C86.9238 160.243 86.8093 160.644 86.5801 160.98C86.3545 161.317 86.0287 161.575 85.6026 161.754C85.18 161.933 84.6751 162.022 84.0879 162.022C83.8014 162.022 83.5275 162.006 83.2661 161.974C83.0047 161.942 82.7577 161.895 82.5249 161.834C82.2958 161.77 82.0863 161.693 81.8965 161.603V160.389C82.2152 160.529 82.5715 160.656 82.9653 160.771C83.3592 160.882 83.7603 160.937 84.1685 160.937C84.5015 160.937 84.7772 160.894 84.9956 160.808C85.2176 160.719 85.3823 160.593 85.4898 160.432C85.5972 160.268 85.6509 160.076 85.6509 159.858C85.6509 159.625 85.5882 159.428 85.4629 159.267C85.3376 159.106 85.1478 158.959 84.8936 158.826C84.6429 158.69 84.3278 158.545 83.9483 158.391C83.6904 158.287 83.4434 158.169 83.207 158.037C82.9743 157.904 82.7666 157.749 82.584 157.57C82.4014 157.39 82.2564 157.179 82.1489 156.936C82.0451 156.689 81.9932 156.399 81.9932 156.066C81.9932 155.622 82.0988 155.242 82.3101 154.927C82.5249 154.612 82.8257 154.37 83.2124 154.202C83.6027 154.034 84.0575 153.949 84.5767 153.949C84.9885 153.949 85.3752 153.992 85.7368 154.078C86.1021 154.164 86.4601 154.286 86.8111 154.444L86.4028 155.48C86.0806 155.348 85.7673 155.242 85.4629 155.163C85.1621 155.084 84.8542 155.045 84.5391 155.045C84.2669 155.045 84.036 155.086 83.8462 155.169C83.6564 155.251 83.5114 155.367 83.4111 155.518C83.3145 155.665 83.2661 155.84 83.2661 156.044C83.2661 156.273 83.3216 156.467 83.4326 156.624C83.5472 156.778 83.7227 156.92 83.959 157.049C84.1989 157.177 84.5069 157.321 84.8828 157.478C85.3161 157.657 85.6831 157.845 85.9839 158.042C86.2883 158.239 86.521 158.475 86.6821 158.751C86.8433 159.023 86.9238 159.365 86.9238 159.777ZM91.7847 155.045C91.4087 155.045 91.0721 155.113 90.7749 155.249C90.4813 155.385 90.2324 155.582 90.0283 155.84C89.8242 156.094 89.6685 156.404 89.5611 156.769C89.4536 157.131 89.3999 157.539 89.3999 157.994C89.3999 158.603 89.4859 159.127 89.6577 159.568C89.8296 160.004 90.091 160.341 90.4419 160.577C90.7928 160.81 91.2368 160.926 91.7739 160.926C92.1069 160.926 92.431 160.894 92.7461 160.83C93.0612 160.765 93.3871 160.678 93.7236 160.567V161.662C93.405 161.788 93.0827 161.879 92.7569 161.936C92.431 161.994 92.055 162.022 91.6289 162.022C90.8268 162.022 90.1608 161.856 89.6309 161.523C89.1045 161.19 88.7106 160.721 88.4492 160.115C88.1914 159.51 88.0625 158.801 88.0625 157.988C88.0625 157.394 88.1449 156.85 88.3096 156.356C88.4743 155.862 88.7142 155.435 89.0293 155.077C89.3444 154.716 89.7329 154.438 90.1948 154.245C90.6603 154.048 91.1921 153.949 91.7901 153.949C92.1839 153.949 92.5707 153.994 92.9502 154.084C93.3333 154.17 93.6878 154.293 94.0137 154.454L93.5625 155.518C93.2904 155.389 93.0057 155.278 92.7085 155.185C92.4113 155.092 92.1034 155.045 91.7847 155.045ZM102.382 157.978C102.382 158.583 102.305 159.134 102.151 159.632C102.001 160.126 101.773 160.552 101.469 160.91C101.164 161.265 100.783 161.539 100.325 161.732C99.8664 161.925 99.3293 162.022 98.7134 162.022C98.0868 162.022 97.5425 161.925 97.0806 161.732C96.6222 161.539 96.2409 161.263 95.9365 160.905C95.6358 160.547 95.4102 160.119 95.2598 159.621C95.1094 159.124 95.0342 158.572 95.0342 157.967C95.0342 157.158 95.1667 156.452 95.4317 155.851C95.7002 155.246 96.1066 154.777 96.6509 154.444C97.1987 154.107 97.8898 153.939 98.7241 153.939C99.5405 153.939 100.219 154.105 100.76 154.438C101.3 154.771 101.705 155.24 101.974 155.845C102.246 156.447 102.382 157.158 102.382 157.978ZM96.3877 157.978C96.3877 158.583 96.4701 159.107 96.6348 159.551C96.7995 159.992 97.0519 160.332 97.3921 160.572C97.7359 160.808 98.1763 160.926 98.7134 160.926C99.2541 160.926 99.6945 160.808 100.035 160.572C100.375 160.332 100.626 159.992 100.787 159.551C100.948 159.107 101.028 158.583 101.028 157.978C101.028 157.057 100.844 156.338 100.475 155.819C100.11 155.296 99.5262 155.034 98.7241 155.034C98.187 155.034 97.7448 155.153 97.3975 155.389C97.0537 155.625 96.7995 155.964 96.6348 156.404C96.4701 156.841 96.3877 157.365 96.3877 157.978ZM111.792 161.915L111.024 159.734H108.021L107.253 161.915H105.895L108.816 154.03H110.245L113.162 161.915H111.792ZM110.691 158.628L109.944 156.479C109.916 156.386 109.875 156.255 109.821 156.087C109.767 155.915 109.713 155.742 109.66 155.566C109.606 155.387 109.561 155.237 109.525 155.115C109.49 155.262 109.445 155.426 109.391 155.609C109.341 155.788 109.291 155.956 109.241 156.114C109.194 156.272 109.158 156.393 109.133 156.479L108.381 158.628H110.691ZM117.12 155.856C117.826 155.856 118.391 156.114 118.817 156.63C119.247 157.145 119.462 157.911 119.462 158.928C119.462 159.602 119.362 160.169 119.161 160.631C118.964 161.089 118.687 161.437 118.329 161.673C117.974 161.906 117.561 162.022 117.088 162.022C116.787 162.022 116.526 161.983 116.304 161.904C116.082 161.825 115.892 161.723 115.734 161.598C115.577 161.469 115.444 161.329 115.337 161.179H115.262C115.28 161.322 115.296 161.481 115.31 161.657C115.328 161.829 115.337 161.986 115.337 162.13V164.552H114.069V155.969H115.101L115.278 156.791H115.337C115.448 156.622 115.582 156.467 115.74 156.323C115.901 156.18 116.094 156.067 116.32 155.985C116.549 155.899 116.816 155.856 117.12 155.856ZM116.782 156.887C116.434 156.887 116.155 156.957 115.944 157.097C115.736 157.233 115.584 157.439 115.487 157.715C115.394 157.99 115.344 158.336 115.337 158.751V158.928C115.337 159.369 115.382 159.743 115.471 160.051C115.564 160.355 115.716 160.588 115.928 160.749C116.143 160.907 116.433 160.986 116.798 160.986C117.106 160.986 117.36 160.901 117.561 160.733C117.765 160.565 117.917 160.325 118.017 160.013C118.117 159.702 118.167 159.335 118.167 158.912C118.167 158.271 118.053 157.774 117.824 157.419C117.598 157.065 117.251 156.887 116.782 156.887ZM123.974 155.856C124.679 155.856 125.245 156.114 125.671 156.63C126.101 157.145 126.315 157.911 126.315 158.928C126.315 159.602 126.215 160.169 126.015 160.631C125.818 161.089 125.54 161.437 125.182 161.673C124.828 161.906 124.414 162.022 123.941 162.022C123.641 162.022 123.379 161.983 123.157 161.904C122.935 161.825 122.745 161.723 122.588 161.598C122.43 161.469 122.298 161.329 122.19 161.179H122.115C122.133 161.322 122.149 161.481 122.164 161.657C122.181 161.829 122.19 161.986 122.19 162.13V164.552H120.923V155.969H121.954L122.131 156.791H122.19C122.301 156.622 122.436 156.467 122.593 156.323C122.754 156.18 122.948 156.067 123.173 155.985C123.403 155.899 123.669 155.856 123.974 155.856ZM123.635 156.887C123.288 156.887 123.009 156.957 122.797 157.097C122.59 157.233 122.438 157.439 122.341 157.715C122.248 157.99 122.198 158.336 122.19 158.751V158.928C122.19 159.369 122.235 159.743 122.325 160.051C122.418 160.355 122.57 160.588 122.781 160.749C122.996 160.907 123.286 160.986 123.651 160.986C123.959 160.986 124.214 160.901 124.414 160.733C124.618 160.565 124.77 160.325 124.871 160.013C124.971 159.702 125.021 159.335 125.021 158.912C125.021 158.271 124.906 157.774 124.677 157.419C124.452 157.065 124.104 156.887 123.635 156.887Z" fill="#434343"/>
<path d="M266.085 154.062C266.762 154.062 267.321 154.145 267.761 154.309C268.205 154.474 268.535 154.725 268.749 155.061C268.968 155.398 269.077 155.826 269.077 156.345C269.077 156.732 269.005 157.061 268.862 157.333C268.719 157.605 268.531 157.831 268.298 158.01C268.066 158.189 267.817 158.332 267.552 158.44L269.781 161.915H268.325L266.429 158.767H265.167V161.915H263.878V154.062H266.085ZM265.999 155.136H265.167V157.704H266.059C266.657 157.704 267.09 157.593 267.358 157.371C267.63 157.149 267.767 156.821 267.767 156.388C267.767 155.933 267.622 155.611 267.331 155.421C267.045 155.231 266.601 155.136 265.999 155.136ZM273.143 155.856C273.673 155.856 274.128 155.965 274.507 156.184C274.887 156.402 275.179 156.712 275.383 157.113C275.587 157.514 275.689 157.994 275.689 158.552V159.229H271.72C271.734 159.806 271.888 160.25 272.182 160.561C272.479 160.873 272.894 161.029 273.428 161.029C273.807 161.029 274.147 160.993 274.448 160.921C274.753 160.846 275.066 160.737 275.388 160.593V161.619C275.091 161.759 274.788 161.861 274.48 161.925C274.172 161.99 273.804 162.022 273.374 162.022C272.79 162.022 272.276 161.909 271.832 161.684C271.392 161.455 271.046 161.114 270.796 160.663C270.549 160.212 270.425 159.652 270.425 158.982C270.425 158.316 270.538 157.75 270.764 157.285C270.989 156.819 271.306 156.465 271.714 156.221C272.122 155.978 272.599 155.856 273.143 155.856ZM273.143 156.807C272.746 156.807 272.423 156.936 272.176 157.194C271.933 157.451 271.789 157.829 271.747 158.327H274.454C274.45 158.03 274.4 157.766 274.303 157.537C274.21 157.308 274.067 157.129 273.873 157C273.684 156.871 273.44 156.807 273.143 156.807ZM279.508 162.022C278.946 162.022 278.459 161.913 278.047 161.695C277.635 161.476 277.318 161.141 277.096 160.69C276.874 160.239 276.763 159.666 276.763 158.971C276.763 158.248 276.885 157.657 277.128 157.199C277.372 156.741 277.708 156.402 278.138 156.184C278.571 155.965 279.067 155.856 279.626 155.856C279.98 155.856 280.301 155.892 280.587 155.964C280.877 156.032 281.123 156.116 281.323 156.216L280.947 157.226C280.729 157.136 280.505 157.061 280.276 157C280.047 156.939 279.826 156.909 279.615 156.909C279.268 156.909 278.978 156.986 278.745 157.14C278.516 157.294 278.344 157.523 278.229 157.827C278.118 158.132 278.063 158.509 278.063 158.961C278.063 159.397 278.12 159.766 278.235 160.067C278.349 160.364 278.519 160.59 278.745 160.744C278.971 160.894 279.248 160.969 279.578 160.969C279.903 160.969 280.195 160.93 280.453 160.851C280.711 160.772 280.954 160.67 281.184 160.545V161.641C280.958 161.77 280.716 161.865 280.458 161.925C280.201 161.99 279.884 162.022 279.508 162.022ZM283.842 153.557V155.657C283.842 155.876 283.835 156.089 283.821 156.297C283.81 156.504 283.797 156.665 283.783 156.78H283.853C283.978 156.572 284.132 156.402 284.315 156.27C284.497 156.134 284.702 156.032 284.927 155.964C285.156 155.896 285.4 155.862 285.658 155.862C286.112 155.862 286.499 155.938 286.818 156.092C287.136 156.243 287.38 156.477 287.548 156.796C287.72 157.115 287.806 157.528 287.806 158.037V161.915H286.544V158.273C286.544 157.811 286.449 157.466 286.259 157.237C286.069 157.004 285.776 156.887 285.378 156.887C284.995 156.887 284.691 156.968 284.465 157.129C284.243 157.287 284.084 157.521 283.987 157.833C283.891 158.141 283.842 158.517 283.842 158.961V161.915H282.58V153.557H283.842ZM291.904 155.856C292.656 155.856 293.224 156.023 293.607 156.356C293.994 156.689 294.187 157.208 294.187 157.913V161.915H293.29L293.048 161.071H293.005C292.837 161.286 292.663 161.464 292.484 161.603C292.305 161.743 292.098 161.847 291.861 161.915C291.629 161.986 291.344 162.022 291.007 162.022C290.653 162.022 290.336 161.958 290.057 161.829C289.777 161.696 289.557 161.496 289.396 161.227C289.235 160.959 289.154 160.619 289.154 160.207C289.154 159.594 289.382 159.134 289.836 158.826C290.295 158.518 290.986 158.348 291.91 158.316L292.941 158.279V157.967C292.941 157.555 292.844 157.262 292.651 157.086C292.461 156.911 292.192 156.823 291.845 156.823C291.548 156.823 291.26 156.866 290.98 156.952C290.701 157.038 290.429 157.143 290.164 157.269L289.756 156.377C290.046 156.223 290.375 156.098 290.744 156.001C291.116 155.904 291.503 155.856 291.904 155.856ZM292.935 159.073L292.167 159.1C291.537 159.122 291.095 159.229 290.841 159.423C290.587 159.616 290.459 159.881 290.459 160.217C290.459 160.511 290.547 160.726 290.723 160.862C290.898 160.994 291.129 161.061 291.415 161.061C291.852 161.061 292.214 160.937 292.5 160.69C292.79 160.439 292.935 160.072 292.935 159.589V159.073ZM298.967 155.856C299.067 155.856 299.177 155.862 299.295 155.872C299.413 155.883 299.515 155.897 299.601 155.915L299.483 157.097C299.408 157.075 299.315 157.059 299.204 157.049C299.096 157.038 298.999 157.032 298.914 157.032C298.688 157.032 298.473 157.07 298.269 157.145C298.065 157.217 297.884 157.328 297.727 157.478C297.569 157.625 297.445 157.809 297.356 158.031C297.266 158.253 297.222 158.511 297.222 158.805V161.915H295.954V155.969H296.942L297.114 157.016H297.173C297.291 156.805 297.438 156.612 297.614 156.436C297.789 156.261 297.99 156.121 298.215 156.017C298.444 155.91 298.695 155.856 298.967 155.856ZM302.399 164.557C301.594 164.557 300.976 164.412 300.546 164.122C300.117 163.832 299.902 163.426 299.902 162.903C299.902 162.538 300.016 162.228 300.246 161.974C300.475 161.723 300.802 161.549 301.228 161.453C301.067 161.381 300.928 161.27 300.81 161.12C300.695 160.966 300.638 160.796 300.638 160.61C300.638 160.388 300.7 160.198 300.826 160.04C300.951 159.883 301.139 159.73 301.39 159.584C301.078 159.451 300.827 159.236 300.638 158.939C300.451 158.638 300.358 158.286 300.358 157.881C300.358 157.451 300.45 157.086 300.632 156.785C300.815 156.481 301.082 156.25 301.433 156.092C301.783 155.931 302.208 155.851 302.706 155.851C302.813 155.851 302.929 155.858 303.055 155.872C303.184 155.883 303.302 155.897 303.409 155.915C303.52 155.93 303.604 155.946 303.662 155.964H305.719V156.667L304.709 156.855C304.806 156.991 304.883 157.147 304.94 157.322C304.997 157.494 305.026 157.682 305.026 157.886C305.026 158.502 304.813 158.987 304.387 159.342C303.964 159.693 303.38 159.868 302.636 159.868C302.457 159.861 302.283 159.847 302.115 159.825C301.986 159.904 301.887 159.992 301.819 160.089C301.751 160.182 301.717 160.287 301.717 160.405C301.717 160.502 301.751 160.581 301.819 160.642C301.887 160.699 301.988 160.742 302.12 160.771C302.256 160.799 302.421 160.814 302.614 160.814H303.64C304.292 160.814 304.789 160.952 305.133 161.227C305.477 161.503 305.649 161.908 305.649 162.441C305.649 163.118 305.37 163.639 304.811 164.004C304.252 164.373 303.449 164.557 302.399 164.557ZM302.448 163.671C302.888 163.671 303.259 163.628 303.56 163.542C303.86 163.456 304.088 163.333 304.242 163.172C304.396 163.014 304.473 162.826 304.473 162.608C304.473 162.414 304.424 162.266 304.328 162.162C304.231 162.058 304.086 161.986 303.893 161.947C303.699 161.908 303.459 161.888 303.173 161.888H302.238C302.005 161.888 301.8 161.924 301.621 161.995C301.442 162.07 301.302 162.178 301.202 162.318C301.105 162.457 301.057 162.626 301.057 162.822C301.057 163.095 301.177 163.304 301.416 163.451C301.66 163.598 302.004 163.671 302.448 163.671ZM302.695 159.041C303.064 159.041 303.338 158.941 303.517 158.74C303.696 158.536 303.785 158.25 303.785 157.881C303.785 157.48 303.692 157.179 303.506 156.979C303.323 156.778 303.051 156.678 302.689 156.678C302.335 156.678 302.065 156.78 301.878 156.984C301.696 157.188 301.604 157.491 301.604 157.892C301.604 158.253 301.696 158.536 301.878 158.74C302.065 158.941 302.337 159.041 302.695 159.041ZM309.172 155.856C309.702 155.856 310.157 155.965 310.537 156.184C310.916 156.402 311.208 156.712 311.412 157.113C311.616 157.514 311.718 157.994 311.718 158.552V159.229H307.749C307.763 159.806 307.917 160.25 308.211 160.561C308.508 160.873 308.923 161.029 309.457 161.029C309.837 161.029 310.177 160.993 310.477 160.921C310.782 160.846 311.095 160.737 311.417 160.593V161.619C311.12 161.759 310.818 161.861 310.51 161.925C310.202 161.99 309.833 162.022 309.403 162.022C308.82 162.022 308.306 161.909 307.862 161.684C307.421 161.455 307.076 161.114 306.825 160.663C306.578 160.212 306.455 159.652 306.455 158.982C306.455 158.316 306.567 157.75 306.793 157.285C307.018 156.819 307.335 156.465 307.744 156.221C308.152 155.978 308.628 155.856 309.172 155.856ZM309.172 156.807C308.775 156.807 308.453 156.936 308.206 157.194C307.962 157.451 307.819 157.829 307.776 158.327H310.483C310.479 158.03 310.429 157.766 310.332 157.537C310.239 157.308 310.096 157.129 309.903 157C309.713 156.871 309.47 156.807 309.172 156.807Z" fill="#434343"/>
<g filter="url(#filter1_d_316_921)">
<circle cx="288.163" cy="65.6744" r="57.6744" fill="#F6F6F6"/>
</g>
<path d="M320.263 42.7353C316.128 40.9335 311.99 40.248 307.855 40.248C294.726 40.2469 281.599 47.1517 268.471 47.1517C265.178 47.1517 261.888 46.7176 258.595 45.6323C258.225 45.5105 257.855 45.4529 257.492 45.4529C255.658 45.4529 254.055 46.928 254.055 48.9756V84.1096C254.055 85.5083 254.825 86.8339 256.063 87.3721C260.197 89.175 264.335 89.8605 268.471 89.8605C281.599 89.8605 294.727 82.9557 307.856 82.9557C311.148 82.9557 314.439 83.3898 317.731 84.4751C318.101 84.5969 318.472 84.6545 318.834 84.6545C320.669 84.6545 322.272 83.1794 322.272 81.1318V45.9989C322.271 44.5991 321.5 43.2746 320.263 42.7353ZM259.171 51.3466C261.315 51.9047 263.554 52.1849 265.856 52.3355C265.229 55.5902 262.475 58.0432 259.171 58.0432V51.3466ZM259.171 82.9081V77.6168C262.834 77.6168 265.798 80.6368 265.962 84.4164C263.56 84.2159 261.315 83.7176 259.171 82.9081ZM288.163 75.6855C283.453 75.6855 279.636 70.9247 279.636 65.0542C279.636 59.1827 283.454 54.423 288.163 54.423C292.872 54.423 296.69 59.1827 296.69 65.0542C296.69 70.9269 292.871 75.6855 288.163 75.6855ZM317.154 78.7619C315.287 78.2757 313.348 78.0033 311.365 77.8272C311.99 74.9391 314.296 72.7464 317.154 72.3699V78.7619ZM317.154 52.6146C313.862 52.1816 311.307 49.3256 311.206 45.7984C313.289 46.0387 315.266 46.4884 317.154 47.2004V52.6146Z" fill="#007643"/>
<path d="M451.452 164.101C451.255 164.101 451.083 164.088 450.936 164.063C450.786 164.042 450.657 164.011 450.549 163.972V162.892C450.664 162.921 450.787 162.946 450.92 162.967C451.052 162.989 451.194 163 451.344 163C451.541 163 451.72 162.962 451.881 162.887C452.042 162.812 452.17 162.676 452.263 162.479C452.359 162.282 452.408 162.004 452.408 161.646V154.062H453.697V161.603C453.697 162.187 453.604 162.661 453.417 163.027C453.231 163.395 452.97 163.666 452.633 163.838C452.297 164.013 451.903 164.101 451.452 164.101ZM460.862 158.928C460.862 159.423 460.797 159.861 460.668 160.244C460.539 160.627 460.351 160.952 460.104 161.216C459.857 161.478 459.56 161.678 459.213 161.818C458.865 161.954 458.473 162.022 458.037 162.022C457.628 162.022 457.254 161.954 456.914 161.818C456.574 161.678 456.278 161.478 456.028 161.216C455.781 160.952 455.589 160.627 455.453 160.244C455.317 159.861 455.249 159.423 455.249 158.928C455.249 158.273 455.362 157.718 455.587 157.263C455.816 156.805 456.142 156.456 456.565 156.216C456.987 155.976 457.49 155.856 458.074 155.856C458.622 155.856 459.105 155.976 459.524 156.216C459.943 156.456 460.271 156.805 460.507 157.263C460.744 157.722 460.862 158.277 460.862 158.928ZM456.549 158.928C456.549 159.362 456.601 159.732 456.704 160.04C456.812 160.348 456.977 160.584 457.199 160.749C457.421 160.91 457.707 160.991 458.058 160.991C458.409 160.991 458.695 160.91 458.917 160.749C459.139 160.584 459.302 160.348 459.406 160.04C459.51 159.732 459.562 159.362 459.562 158.928C459.562 158.495 459.51 158.128 459.406 157.827C459.302 157.523 459.139 157.292 458.917 157.134C458.695 156.973 458.407 156.893 458.053 156.893C457.53 156.893 457.149 157.068 456.909 157.419C456.669 157.77 456.549 158.273 456.549 158.928ZM463.574 155.969V161.915H462.312V155.969H463.574ZM462.951 153.692C463.144 153.692 463.311 153.744 463.451 153.847C463.594 153.951 463.665 154.13 463.665 154.384C463.665 154.635 463.594 154.814 463.451 154.922C463.311 155.025 463.144 155.077 462.951 155.077C462.751 155.077 462.58 155.025 462.441 154.922C462.305 154.814 462.237 154.635 462.237 154.384C462.237 154.13 462.305 153.951 462.441 153.847C462.58 153.744 462.751 153.692 462.951 153.692ZM468.483 155.856C469.153 155.856 469.674 156.03 470.046 156.377C470.422 156.721 470.61 157.274 470.61 158.037V161.915H469.348V158.273C469.348 157.811 469.253 157.466 469.063 157.237C468.874 157.004 468.58 156.887 468.183 156.887C467.606 156.887 467.205 157.065 466.979 157.419C466.757 157.774 466.646 158.287 466.646 158.961V161.915H465.384V155.969H466.367L466.544 156.775H466.614C466.743 156.567 466.902 156.397 467.092 156.264C467.286 156.128 467.5 156.026 467.737 155.958C467.977 155.89 468.225 155.856 468.483 155.856ZM479.897 159.777C479.897 160.243 479.782 160.644 479.553 160.98C479.328 161.317 479.002 161.575 478.576 161.754C478.153 161.933 477.648 162.022 477.061 162.022C476.774 162.022 476.501 162.006 476.239 161.974C475.978 161.942 475.731 161.895 475.498 161.834C475.269 161.77 475.059 161.693 474.87 161.603V160.389C475.188 160.529 475.545 160.656 475.938 160.771C476.332 160.882 476.733 160.937 477.142 160.937C477.475 160.937 477.75 160.894 477.969 160.808C478.191 160.719 478.355 160.593 478.463 160.432C478.57 160.268 478.624 160.076 478.624 159.858C478.624 159.625 478.561 159.428 478.436 159.267C478.311 159.106 478.121 158.959 477.867 158.826C477.616 158.69 477.301 158.545 476.921 158.391C476.663 158.287 476.416 158.169 476.18 158.037C475.947 157.904 475.74 157.749 475.557 157.57C475.374 157.39 475.229 157.179 475.122 156.936C475.018 156.689 474.966 156.399 474.966 156.066C474.966 155.622 475.072 155.242 475.283 154.927C475.498 154.612 475.799 154.37 476.185 154.202C476.576 154.034 477.031 153.949 477.55 153.949C477.961 153.949 478.348 153.992 478.71 154.078C479.075 154.164 479.433 154.286 479.784 154.444L479.376 155.48C479.054 155.348 478.74 155.242 478.436 155.163C478.135 155.084 477.827 155.045 477.512 155.045C477.24 155.045 477.009 155.086 476.819 155.169C476.629 155.251 476.484 155.367 476.384 155.518C476.288 155.665 476.239 155.84 476.239 156.044C476.239 156.273 476.295 156.467 476.406 156.624C476.52 156.778 476.696 156.92 476.932 157.049C477.172 157.177 477.48 157.321 477.856 157.478C478.289 157.657 478.656 157.845 478.957 158.042C479.261 158.239 479.494 158.475 479.655 158.751C479.816 159.023 479.897 159.365 479.897 159.777ZM484.758 155.045C484.382 155.045 484.045 155.113 483.748 155.249C483.454 155.385 483.205 155.582 483.001 155.84C482.797 156.094 482.642 156.404 482.534 156.769C482.427 157.131 482.373 157.539 482.373 157.994C482.373 158.603 482.459 159.127 482.631 159.568C482.803 160.004 483.064 160.341 483.415 160.577C483.766 160.81 484.21 160.926 484.747 160.926C485.08 160.926 485.404 160.894 485.719 160.83C486.034 160.765 486.36 160.678 486.697 160.567V161.662C486.378 161.788 486.056 161.879 485.73 161.936C485.404 161.994 485.028 162.022 484.602 162.022C483.8 162.022 483.134 161.856 482.604 161.523C482.078 161.19 481.684 160.721 481.422 160.115C481.164 159.51 481.036 158.801 481.036 157.988C481.036 157.394 481.118 156.85 481.283 156.356C481.447 155.862 481.687 155.435 482.002 155.077C482.317 154.716 482.706 154.438 483.168 154.245C483.633 154.048 484.165 153.949 484.763 153.949C485.157 153.949 485.544 153.994 485.923 154.084C486.306 154.17 486.661 154.293 486.987 154.454L486.536 155.518C486.263 155.389 485.979 155.278 485.682 155.185C485.384 155.092 485.076 155.045 484.758 155.045ZM495.355 157.978C495.355 158.583 495.278 159.134 495.124 159.632C494.974 160.126 494.746 160.552 494.442 160.91C494.137 161.265 493.756 161.539 493.298 161.732C492.839 161.925 492.302 162.022 491.686 162.022C491.06 162.022 490.516 161.925 490.054 161.732C489.595 161.539 489.214 161.263 488.91 160.905C488.609 160.547 488.383 160.119 488.233 159.621C488.082 159.124 488.007 158.572 488.007 157.967C488.007 157.158 488.14 156.452 488.405 155.851C488.673 155.246 489.08 154.777 489.624 154.444C490.172 154.107 490.863 153.939 491.697 153.939C492.514 153.939 493.192 154.105 493.733 154.438C494.274 154.771 494.678 155.24 494.947 155.845C495.219 156.447 495.355 157.158 495.355 157.978ZM489.361 157.978C489.361 158.583 489.443 159.107 489.608 159.551C489.773 159.992 490.025 160.332 490.365 160.572C490.709 160.808 491.149 160.926 491.686 160.926C492.227 160.926 492.668 160.808 493.008 160.572C493.348 160.332 493.599 159.992 493.76 159.551C493.921 159.107 494.001 158.583 494.001 157.978C494.001 157.057 493.817 156.338 493.448 155.819C493.083 155.296 492.499 155.034 491.697 155.034C491.16 155.034 490.718 155.153 490.371 155.389C490.027 155.625 489.773 155.964 489.608 156.404C489.443 156.841 489.361 157.365 489.361 157.978ZM504.964 160.191H503.9V161.915H502.654V160.191H499.082V159.235L502.67 154.041H503.9V159.143H504.964V160.191ZM502.654 159.143V157.194C502.654 157.032 502.656 156.869 502.66 156.705C502.667 156.536 502.674 156.375 502.681 156.221C502.688 156.067 502.695 155.926 502.703 155.797C502.71 155.665 502.715 155.555 502.719 155.469H502.676C502.608 155.613 502.532 155.759 502.45 155.91C502.368 156.057 502.28 156.2 502.187 156.34L500.253 159.143H502.654ZM509.363 157.65H512.295V161.592C511.884 161.729 511.457 161.834 511.017 161.909C510.577 161.985 510.082 162.022 509.535 162.022C508.736 162.022 508.059 161.865 507.504 161.549C506.953 161.231 506.534 160.771 506.247 160.169C505.961 159.564 505.818 158.835 505.818 157.983C505.818 157.163 505.977 156.452 506.296 155.851C506.614 155.246 507.078 154.778 507.687 154.449C508.296 154.116 509.033 153.949 509.9 153.949C510.326 153.949 510.738 153.992 511.135 154.078C511.536 154.161 511.903 154.275 512.236 154.422L511.785 155.486C511.52 155.36 511.223 155.255 510.893 155.169C510.564 155.083 510.222 155.04 509.868 155.04C509.305 155.04 508.82 155.161 508.412 155.405C508.007 155.648 507.696 155.992 507.477 156.436C507.259 156.877 507.15 157.398 507.15 157.999C507.15 158.583 507.238 159.095 507.413 159.535C507.588 159.976 507.862 160.32 508.235 160.567C508.611 160.81 509.096 160.932 509.69 160.932C509.988 160.932 510.24 160.916 510.448 160.883C510.655 160.851 510.847 160.815 511.022 160.776V158.751H509.363V157.65Z" fill="#434343"/>
<g filter="url(#filter2_d_316_921)">
<circle cx="481.651" cy="65.6744" r="57.6744" fill="#F6F6F6"/>
</g>
<path d="M505.205 52.5755L489.814 37.1603C489.395 36.7513 488.832 36.5238 488.247 36.5271H461.862C460.696 36.5271 459.578 36.9912 458.753 37.8171C457.928 38.6431 457.465 39.7634 457.465 40.9315V89.3795C457.465 90.5476 457.928 91.6679 458.753 92.4939C459.578 93.3198 460.696 93.7839 461.862 93.7839H501.439C502.606 93.7839 503.724 93.3198 504.549 92.4939C505.374 91.6679 505.837 90.5476 505.837 89.3795V54.1446C505.84 53.5587 505.613 52.9951 505.205 52.5755ZM501.439 89.3795H461.862V40.9315H487.34L501.439 55.053V89.3795Z" fill="#007643"/>
<path d="M494.766 60.7131H468.536C467.956 60.7131 467.4 60.9448 466.99 61.3571C466.58 61.7695 466.35 62.3287 466.35 62.9119V82.7005C466.35 83.2836 466.58 83.8428 466.99 84.2552C467.4 84.6675 467.956 84.8992 468.536 84.8992H494.766C495.346 84.8992 495.902 84.6675 496.312 84.2552C496.722 83.8428 496.952 83.2836 496.952 82.7005V62.9119C496.952 62.3287 496.722 61.7695 496.312 61.3571C495.902 60.9448 495.346 60.7131 494.766 60.7131ZM479.465 78.303C479.465 78.8861 479.235 79.4454 478.825 79.8577C478.415 80.2701 477.859 80.5017 477.279 80.5017C476.699 80.5017 476.143 80.2701 475.733 79.8577C475.324 79.4454 475.093 78.8861 475.093 78.303V67.3093C475.093 66.7262 475.324 66.1669 475.733 65.7546C476.143 65.3422 476.699 65.1106 477.279 65.1106C477.859 65.1106 478.415 65.3422 478.825 65.7546C479.235 66.1669 479.465 66.7262 479.465 67.3093V78.303ZM488.209 78.303C488.209 78.8861 487.978 79.4454 487.568 79.8577C487.159 80.2701 486.603 80.5017 486.023 80.5017C485.443 80.5017 484.887 80.2701 484.477 79.8577C484.067 79.4454 483.837 78.8861 483.837 78.303V67.3093C483.837 66.7262 484.067 66.1669 484.477 65.7546C484.887 65.3422 485.443 65.1106 486.023 65.1106C486.603 65.1106 487.159 65.3422 487.568 65.7546C487.978 66.1669 488.209 66.7262 488.209 67.3093V78.303Z" fill="#007643"/>
<path d="M658.567 154.062C659.58 154.062 660.319 154.27 660.785 154.685C661.25 155.101 661.483 155.682 661.483 156.431C661.483 156.771 661.429 157.095 661.322 157.403C661.218 157.707 661.046 157.978 660.806 158.214C660.566 158.447 660.249 158.631 659.856 158.767C659.465 158.903 658.984 158.971 658.411 158.971H657.573V161.915H656.284V154.062H658.567ZM658.481 155.131H657.573V157.897H658.276C658.681 157.897 659.025 157.851 659.308 157.758C659.591 157.661 659.805 157.509 659.952 157.301C660.099 157.093 660.172 156.819 660.172 156.479C660.172 156.024 660.035 155.686 659.759 155.464C659.487 155.242 659.061 155.131 658.481 155.131ZM665.936 155.856C666.036 155.856 666.145 155.862 666.263 155.872C666.381 155.883 666.484 155.897 666.569 155.915L666.451 157.097C666.376 157.075 666.283 157.059 666.172 157.049C666.065 157.038 665.968 157.032 665.882 157.032C665.656 157.032 665.442 157.07 665.237 157.145C665.033 157.217 664.853 157.328 664.695 157.478C664.537 157.625 664.414 157.809 664.324 158.031C664.235 158.253 664.19 158.511 664.19 158.805V161.915H662.922V155.969H663.911L664.083 157.016H664.142C664.26 156.805 664.407 156.612 664.582 156.436C664.758 156.261 664.958 156.121 665.184 156.017C665.413 155.91 665.664 155.856 665.936 155.856ZM670.039 155.856C670.569 155.856 671.024 155.965 671.403 156.184C671.783 156.402 672.075 156.712 672.279 157.113C672.483 157.514 672.585 157.994 672.585 158.552V159.229H668.616C668.63 159.806 668.784 160.25 669.078 160.561C669.375 160.873 669.79 161.029 670.324 161.029C670.703 161.029 671.044 160.993 671.344 160.921C671.649 160.846 671.962 160.737 672.284 160.593V161.619C671.987 161.759 671.685 161.861 671.377 161.925C671.069 161.99 670.7 162.022 670.27 162.022C669.686 162.022 669.173 161.909 668.729 161.684C668.288 161.455 667.943 161.114 667.692 160.663C667.445 160.212 667.321 159.652 667.321 158.982C667.321 158.316 667.434 157.75 667.66 157.285C667.885 156.819 668.202 156.465 668.61 156.221C669.019 155.978 669.495 155.856 670.039 155.856ZM670.039 156.807C669.642 156.807 669.319 156.936 669.072 157.194C668.829 157.451 668.686 157.829 668.643 158.327H671.35C671.346 158.03 671.296 157.766 671.199 157.537C671.106 157.308 670.963 157.129 670.77 157C670.58 156.871 670.336 156.807 670.039 156.807ZM677.059 155.856C677.765 155.856 678.33 156.114 678.756 156.63C679.186 157.145 679.401 157.911 679.401 158.928C679.401 159.602 679.301 160.169 679.1 160.631C678.903 161.089 678.626 161.437 678.268 161.673C677.913 161.906 677.5 162.022 677.027 162.022C676.726 162.022 676.465 161.983 676.243 161.904C676.021 161.825 675.831 161.723 675.673 161.598C675.516 161.469 675.383 161.329 675.276 161.179H675.201C675.219 161.322 675.235 161.481 675.249 161.657C675.267 161.829 675.276 161.986 675.276 162.13V164.552H674.008V155.969H675.04L675.217 156.791H675.276C675.387 156.622 675.521 156.467 675.679 156.323C675.84 156.18 676.033 156.067 676.259 155.985C676.488 155.899 676.755 155.856 677.059 155.856ZM676.721 156.887C676.373 156.887 676.094 156.957 675.883 157.097C675.675 157.233 675.523 157.439 675.426 157.715C675.333 157.99 675.283 158.336 675.276 158.751V158.928C675.276 159.369 675.321 159.743 675.41 160.051C675.503 160.355 675.656 160.588 675.867 160.749C676.082 160.907 676.372 160.986 676.737 160.986C677.045 160.986 677.299 160.901 677.5 160.733C677.704 160.565 677.856 160.325 677.956 160.013C678.056 159.702 678.107 159.335 678.107 158.912C678.107 158.271 677.992 157.774 677.763 157.419C677.537 157.065 677.19 156.887 676.721 156.887ZM683.193 155.856C683.945 155.856 684.512 156.023 684.896 156.356C685.282 156.689 685.476 157.208 685.476 157.913V161.915H684.579L684.337 161.071H684.294C684.126 161.286 683.952 161.464 683.773 161.603C683.594 161.743 683.386 161.847 683.15 161.915C682.917 161.986 682.633 162.022 682.296 162.022C681.942 162.022 681.625 161.958 681.345 161.829C681.066 161.696 680.846 161.496 680.685 161.227C680.524 160.959 680.443 160.619 680.443 160.207C680.443 159.594 680.67 159.134 681.125 158.826C681.583 158.518 682.275 158.348 683.198 158.316L684.23 158.279V157.967C684.23 157.555 684.133 157.262 683.94 157.086C683.75 156.911 683.481 156.823 683.134 156.823C682.837 156.823 682.548 156.866 682.269 156.952C681.99 157.038 681.718 157.143 681.453 157.269L681.045 156.377C681.335 156.223 681.664 156.098 682.033 156.001C682.405 155.904 682.792 155.856 683.193 155.856ZM684.224 159.073L683.456 159.1C682.826 159.122 682.384 159.229 682.13 159.423C681.875 159.616 681.748 159.881 681.748 160.217C681.748 160.511 681.836 160.726 682.011 160.862C682.187 160.994 682.418 161.061 682.704 161.061C683.141 161.061 683.503 160.937 683.789 160.69C684.079 160.439 684.224 160.072 684.224 159.589V159.073ZM688.505 155.969V161.915H687.243V155.969H688.505ZM687.882 153.692C688.075 153.692 688.242 153.744 688.381 153.847C688.525 153.951 688.596 154.13 688.596 154.384C688.596 154.635 688.525 154.814 688.381 154.922C688.242 155.025 688.075 155.077 687.882 155.077C687.681 155.077 687.511 155.025 687.372 154.922C687.236 154.814 687.168 154.635 687.168 154.384C687.168 154.13 687.236 153.951 687.372 153.847C687.511 153.744 687.681 153.692 687.882 153.692ZM692.313 162.022C691.604 162.022 691.035 161.764 690.605 161.249C690.179 160.73 689.966 159.965 689.966 158.955C689.966 157.935 690.183 157.163 690.616 156.64C691.053 156.118 691.627 155.856 692.34 155.856C692.641 155.856 692.904 155.897 693.13 155.98C693.355 156.058 693.548 156.166 693.71 156.302C693.874 156.438 694.014 156.59 694.129 156.758H694.188C694.17 156.647 694.148 156.488 694.123 156.28C694.102 156.069 694.091 155.874 694.091 155.695V153.557H695.359V161.915H694.37L694.145 161.104H694.091C693.984 161.276 693.847 161.431 693.683 161.571C693.522 161.707 693.328 161.816 693.103 161.899C692.881 161.981 692.617 162.022 692.313 162.022ZM692.668 160.996C693.208 160.996 693.59 160.841 693.812 160.529C694.034 160.217 694.148 159.75 694.155 159.127V158.961C694.155 158.295 694.048 157.784 693.833 157.43C693.618 157.072 693.226 156.893 692.657 156.893C692.202 156.893 691.855 157.077 691.615 157.446C691.379 157.811 691.26 158.321 691.26 158.977C691.26 159.632 691.379 160.133 691.615 160.481C691.855 160.824 692.206 160.996 692.668 160.996Z" fill="#434343"/>
<g filter="url(#filter3_d_316_921)">
<circle cx="675.139" cy="65.6744" r="57.6744" fill="#F6F6F6"/>
</g>
<path fill-rule="evenodd" clip-rule="evenodd" d="M694.359 65.0721H694.35V45.6677V35.0106C694.35 32.399 692.3 30.3537 689.707 30.3537C687.196 30.3537 684.686 30.3559 682.176 30.3582C675.002 30.3644 667.828 30.3707 660.652 30.3257C658.794 30.3116 656.673 31.7391 656.238 33.6253C656.056 34.4209 655.915 35.2447 655.915 36.0543C655.91 38.885 655.924 41.7172 655.938 44.5493C655.949 46.7275 655.96 48.9056 655.962 51.0828C655.968 60.868 655.966 70.6533 655.964 80.4372L655.964 80.4372C655.963 85.3286 655.962 90.2197 655.962 95.1103C655.962 97.9231 657.937 99.9263 660.745 99.9263C670.373 99.9356 680 99.9403 689.632 99.9075C690.367 99.9075 691.167 99.7016 691.827 99.3693C693.648 98.452 694.364 96.842 694.364 94.8528C694.361 88.2349 694.362 81.617 694.363 74.999C694.363 71.6901 694.364 68.3811 694.364 65.0721H694.359ZM675.147 95.143C674.061 95.143 673.242 94.324 673.237 93.2335C673.237 92.1429 674.056 91.3005 675.128 91.2911C676.214 91.2864 677.098 92.1664 677.084 93.2428C677.07 94.3146 676.228 95.143 675.147 95.143ZM692.127 86.7981V87.5375H658.152V86.7232V37.084C658.152 36.8769 658.147 36.6699 658.141 36.463V36.463C658.129 36.0151 658.117 35.5679 658.162 35.123C658.335 33.4568 659.407 32.5067 661.082 32.5067C662.063 32.5067 663.044 32.5137 664.026 32.5207L664.026 32.5207L664.026 32.5207C665.008 32.5277 665.99 32.5348 666.97 32.5348C674.356 32.5348 681.741 32.5348 689.127 32.5394C689.515 32.5394 689.913 32.5628 690.297 32.6424C691.387 32.8764 692.038 33.7236 692.122 34.9638C692.133 35.1435 692.132 35.3232 692.132 35.5028V35.503C692.131 35.5479 692.131 35.5929 692.131 35.6378V86.7887L692.127 86.7981ZM675.549 51.2231C670.325 51.0546 665.832 55.178 665.832 60.4994C665.809 65.5495 669.974 69.8413 674.917 69.8647C680.21 69.8881 684.441 65.7695 684.474 60.5697C684.507 55.5758 680.374 51.3822 675.544 51.2231H675.549ZM678.895 59.0486C677.468 60.5041 676.035 61.9503 674.585 63.3778C674.098 63.8552 673.663 63.8552 673.152 63.3872C672.563 62.8443 671.992 62.2733 671.449 61.6836C670.999 61.1968 671.028 60.6492 671.449 60.2327C671.856 59.8302 672.478 59.8442 672.951 60.3029C673.143 60.4883 673.316 60.6894 673.491 60.8923C673.586 61.0019 673.681 61.1119 673.78 61.2202C674.893 60.1297 675.975 59.072 677.06 58.0236C677.262 57.8317 677.472 57.6351 677.711 57.5041C678.16 57.2607 678.652 57.3964 678.956 57.7942C679.298 58.2435 679.307 58.6367 678.904 59.0486H678.895ZM673.745 38.243C672.585 38.2469 671.425 38.2507 670.265 38.2306V38.2353C669.493 38.2259 669.114 37.8281 669.123 37.1588C669.128 36.5036 669.525 36.087 670.288 36.087C673.555 36.0683 676.822 36.073 680.089 36.087C680.768 36.0917 681.198 36.5598 681.193 37.1775C681.184 37.7907 680.8 38.2213 680.122 38.2306C678.935 38.2507 677.748 38.2469 676.561 38.243C676.087 38.2415 675.612 38.24 675.137 38.24C674.673 38.24 674.209 38.2415 673.745 38.243Z" fill="#007643"/>
<path d="M850.006 154.062C851.019 154.062 851.758 154.27 852.224 154.685C852.689 155.101 852.922 155.682 852.922 156.431C852.922 156.771 852.868 157.095 852.761 157.403C852.657 157.707 852.485 157.978 852.245 158.214C852.006 158.447 851.689 158.631 851.295 158.767C850.904 158.903 850.423 158.971 849.85 158.971H849.012V161.915H847.723V154.062H850.006ZM849.92 155.131H849.012V157.897H849.716C850.12 157.897 850.464 157.851 850.747 157.758C851.03 157.661 851.245 157.509 851.391 157.301C851.538 157.093 851.612 156.819 851.612 156.479C851.612 156.024 851.474 155.686 851.198 155.464C850.926 155.242 850.5 155.131 849.92 155.131ZM859.625 158.928C859.625 159.423 859.561 159.861 859.432 160.244C859.303 160.627 859.115 160.952 858.868 161.216C858.621 161.478 858.324 161.678 857.976 161.818C857.629 161.954 857.237 162.022 856.8 162.022C856.392 162.022 856.018 161.954 855.678 161.818C855.337 161.678 855.042 161.478 854.791 161.216C854.544 160.952 854.353 160.627 854.217 160.244C854.081 159.861 854.013 159.423 854.013 158.928C854.013 158.273 854.125 157.718 854.351 157.263C854.58 156.805 854.906 156.456 855.328 156.216C855.751 155.976 856.254 155.856 856.838 155.856C857.386 155.856 857.869 155.976 858.288 156.216C858.707 156.456 859.034 156.805 859.271 157.263C859.507 157.722 859.625 158.277 859.625 158.928ZM855.312 158.928C855.312 159.362 855.364 159.732 855.468 160.04C855.576 160.348 855.74 160.584 855.962 160.749C856.184 160.91 856.471 160.991 856.822 160.991C857.173 160.991 857.459 160.91 857.681 160.749C857.903 160.584 858.066 160.348 858.17 160.04C858.274 159.732 858.326 159.362 858.326 158.928C858.326 158.495 858.274 158.128 858.17 157.827C858.066 157.523 857.903 157.292 857.681 157.134C857.459 156.973 857.171 156.893 856.816 156.893C856.293 156.893 855.912 157.068 855.672 157.419C855.432 157.77 855.312 158.273 855.312 158.928ZM865.072 160.217C865.072 160.608 864.977 160.937 864.787 161.206C864.597 161.474 864.32 161.678 863.954 161.818C863.593 161.954 863.149 162.022 862.622 162.022C862.207 162.022 861.849 161.992 861.548 161.931C861.251 161.874 860.97 161.784 860.705 161.662V160.572C860.988 160.704 861.305 160.819 861.656 160.916C862.01 161.012 862.345 161.061 862.66 161.061C863.075 161.061 863.374 160.996 863.557 160.867C863.74 160.735 863.831 160.559 863.831 160.341C863.831 160.212 863.793 160.098 863.718 159.997C863.646 159.893 863.51 159.788 863.31 159.68C863.113 159.569 862.823 159.437 862.44 159.283C862.064 159.133 861.747 158.982 861.489 158.832C861.231 158.681 861.036 158.501 860.904 158.289C860.771 158.074 860.705 157.8 860.705 157.467C860.705 156.941 860.913 156.542 861.328 156.27C861.747 155.994 862.3 155.856 862.988 155.856C863.353 155.856 863.697 155.894 864.019 155.969C864.345 156.041 864.663 156.146 864.975 156.286L864.577 157.237C864.309 157.118 864.039 157.022 863.766 156.946C863.498 156.868 863.224 156.828 862.945 156.828C862.619 156.828 862.37 156.878 862.198 156.979C862.03 157.079 861.946 157.222 861.946 157.408C861.946 157.548 861.987 157.666 862.069 157.763C862.152 157.86 862.293 157.956 862.493 158.053C862.698 158.15 862.98 158.27 863.342 158.413C863.697 158.549 864.003 158.692 864.261 158.842C864.522 158.989 864.722 159.17 864.862 159.385C865.002 159.6 865.072 159.877 865.072 160.217ZM868.649 161.002C868.813 161.002 868.976 160.987 869.138 160.959C869.299 160.926 869.445 160.889 869.578 160.846V161.802C869.438 161.863 869.257 161.915 869.035 161.958C868.813 162.001 868.583 162.022 868.343 162.022C868.006 162.022 867.703 161.967 867.435 161.856C867.166 161.741 866.953 161.546 866.796 161.27C866.638 160.994 866.559 160.613 866.559 160.126V156.93H865.748V156.366L866.618 155.921L867.032 154.648H867.827V155.969H869.53V156.93H867.827V160.11C867.827 160.411 867.902 160.635 868.053 160.781C868.203 160.928 868.402 161.002 868.649 161.002ZM873.837 155.856C874.543 155.856 875.108 156.114 875.534 156.63C875.964 157.145 876.179 157.911 876.179 158.928C876.179 159.602 876.079 160.169 875.878 160.631C875.681 161.089 875.404 161.437 875.046 161.673C874.691 161.906 874.278 162.022 873.805 162.022C873.504 162.022 873.243 161.983 873.021 161.904C872.799 161.825 872.609 161.723 872.451 161.598C872.294 161.469 872.161 161.329 872.054 161.179H871.979C871.997 161.322 872.013 161.481 872.027 161.657C872.045 161.829 872.054 161.986 872.054 162.13V164.552H870.786V155.969H871.818L871.995 156.791H872.054C872.165 156.622 872.299 156.467 872.457 156.323C872.618 156.18 872.811 156.067 873.037 155.985C873.266 155.899 873.533 155.856 873.837 155.856ZM873.499 156.887C873.152 156.887 872.872 156.957 872.661 157.097C872.453 157.233 872.301 157.439 872.204 157.715C872.111 157.99 872.061 158.336 872.054 158.751V158.928C872.054 159.369 872.099 159.743 872.188 160.051C872.281 160.355 872.434 160.588 872.645 160.749C872.86 160.907 873.15 160.986 873.515 160.986C873.823 160.986 874.077 160.901 874.278 160.733C874.482 160.565 874.634 160.325 874.734 160.013C874.834 159.702 874.885 159.335 874.885 158.912C874.885 158.271 874.77 157.774 874.541 157.419C874.315 157.065 873.968 156.887 873.499 156.887ZM879.971 155.856C880.723 155.856 881.291 156.023 881.674 156.356C882.06 156.689 882.254 157.208 882.254 157.913V161.915H881.357L881.115 161.071H881.072C880.904 161.286 880.73 161.464 880.551 161.603C880.372 161.743 880.164 161.847 879.928 161.915C879.695 161.986 879.411 162.022 879.074 162.022C878.72 162.022 878.403 161.958 878.123 161.829C877.844 161.696 877.624 161.496 877.463 161.227C877.302 160.959 877.221 160.619 877.221 160.207C877.221 159.594 877.448 159.134 877.903 158.826C878.361 158.518 879.053 158.348 879.976 158.316L881.008 158.279V157.967C881.008 157.555 880.911 157.262 880.718 157.086C880.528 156.911 880.259 156.823 879.912 156.823C879.615 156.823 879.326 156.866 879.047 156.952C878.768 157.038 878.496 157.143 878.231 157.269L877.823 156.377C878.113 156.223 878.442 156.098 878.811 156.001C879.183 155.904 879.57 155.856 879.971 155.856ZM881.002 159.073L880.234 159.1C879.604 159.122 879.162 159.229 878.908 159.423C878.653 159.616 878.526 159.881 878.526 160.217C878.526 160.511 878.614 160.726 878.789 160.862C878.965 160.994 879.196 161.061 879.482 161.061C879.919 161.061 880.281 160.937 880.567 160.69C880.857 160.439 881.002 160.072 881.002 159.589V159.073ZM885.283 155.969V161.915H884.021V155.969H885.283ZM884.66 153.692C884.853 153.692 885.02 153.744 885.159 153.847C885.303 153.951 885.374 154.13 885.374 154.384C885.374 154.635 885.303 154.814 885.159 154.922C885.02 155.025 884.853 155.077 884.66 155.077C884.459 155.077 884.289 155.025 884.15 154.922C884.014 154.814 883.946 154.635 883.946 154.384C883.946 154.13 884.014 153.951 884.15 153.847C884.289 153.744 884.459 153.692 884.66 153.692ZM889.091 162.022C888.382 162.022 887.813 161.764 887.383 161.249C886.957 160.73 886.744 159.965 886.744 158.955C886.744 157.935 886.961 157.163 887.394 156.64C887.831 156.118 888.405 155.856 889.118 155.856C889.419 155.856 889.682 155.897 889.908 155.98C890.133 156.058 890.326 156.166 890.488 156.302C890.652 156.438 890.792 156.59 890.907 156.758H890.966C890.948 156.647 890.926 156.488 890.901 156.28C890.88 156.069 890.869 155.874 890.869 155.695V153.557H892.137V161.915H891.148L890.923 161.104H890.869C890.762 161.276 890.625 161.431 890.461 161.571C890.3 161.707 890.106 161.816 889.881 161.899C889.659 161.981 889.395 162.022 889.091 162.022ZM889.446 160.996C889.986 160.996 890.368 160.841 890.59 160.529C890.812 160.217 890.926 159.75 890.933 159.127V158.961C890.933 158.295 890.826 157.784 890.611 157.43C890.396 157.072 890.004 156.893 889.435 156.893C888.98 156.893 888.633 157.077 888.393 157.446C888.157 157.811 888.038 158.321 888.038 158.977C888.038 159.632 888.157 160.133 888.393 160.481C888.633 160.824 888.984 160.996 889.446 160.996Z" fill="#434343"/>
<g filter="url(#filter4_d_316_921)">
<circle cx="868.628" cy="65.6744" r="57.6744" fill="#F6F6F6"/>
</g>
<path fill-rule="evenodd" clip-rule="evenodd" d="M889.087 65.0704H889.077V63.8349V35.0057C889.077 32.3943 887.027 30.3537 884.43 30.3537C881.92 30.3537 879.409 30.3559 876.899 30.3581C869.726 30.3644 862.552 30.3707 855.376 30.3257C853.523 30.3116 851.403 31.739 850.968 33.6298C850.785 34.4254 850.649 35.2491 850.645 36.0587C850.639 38.8893 850.654 41.7214 850.668 44.5532C850.679 46.7313 850.689 48.9093 850.691 51.0864C850.698 60.8712 850.696 70.656 850.694 80.4394C850.693 85.3306 850.691 90.2214 850.691 95.1117C850.691 97.8964 852.657 99.9182 855.423 99.9229C865.087 99.9369 874.752 99.9369 884.421 99.9041C885.137 99.9041 885.918 99.6935 886.559 99.3659C888.375 98.4393 889.091 96.834 889.091 94.845C889.088 88.2274 889.089 81.6098 889.09 74.9922C889.091 71.6834 889.091 68.3746 889.091 65.0658L889.087 65.0704ZM869.852 95.1492C868.771 95.1398 867.961 94.3115 867.97 93.2116C867.98 92.1259 868.808 91.2928 869.884 91.2975C870.942 91.2975 871.808 92.1539 871.817 93.2163C871.827 94.3021 870.961 95.1586 869.856 95.1492H869.852ZM886.854 86.8234V87.5769H886.11H853.635C853.13 87.5769 852.877 87.3257 852.877 86.8234V37.1305C852.877 36.9361 852.873 36.7408 852.87 36.5452C852.86 36.0105 852.849 35.4738 852.915 34.9496C853.106 33.4379 854.178 32.53 855.713 32.5206C856.665 32.515 857.619 32.5245 858.573 32.5341H858.573C859.208 32.5405 859.843 32.5468 860.477 32.5487H860.481C868.277 32.5487 876.073 32.5487 883.864 32.5534C884.252 32.5534 884.655 32.5768 885.029 32.661C886.096 32.8997 886.737 33.7281 886.831 34.9402C886.847 35.1274 886.846 35.3146 886.845 35.5018L886.845 35.6141V86.8187L886.854 86.8234ZM877.335 59.3654C877.153 59.2294 876.966 59.0998 876.779 58.9701L876.779 58.9701C876.644 58.8765 876.509 58.7829 876.376 58.6868C875.841 58.3098 875.306 57.9315 874.771 57.5531C873.599 56.724 872.426 55.8946 871.247 55.0784C870.268 54.4045 869.07 54.8585 868.855 55.977C868.724 56.6603 869.024 57.1657 869.571 57.5542C870.073 57.9121 870.567 58.278 871.061 58.6439L871.061 58.644C871.226 58.766 871.39 58.888 871.555 59.0097C868.822 59.1173 866.15 59.1173 863.483 59.1173H863.482C862.453 59.1173 861.755 59.7164 861.751 60.6056C861.746 61.4901 862.448 62.1032 863.468 62.1032H870.811H871.401C871.41 62.1453 871.42 62.1921 871.424 62.2342C871.244 62.3619 871.063 62.4889 870.882 62.6158L870.882 62.616C870.406 62.9496 869.931 63.2831 869.463 63.6289C868.761 64.1484 868.616 65.0236 869.089 65.7068C869.548 66.3714 870.46 66.5493 871.172 66.0719C873.226 64.6819 875.276 63.2826 877.312 61.8645C878.248 61.214 878.239 60.0393 877.331 59.3607L877.335 59.3654ZM868.899 38.2431C867.585 38.2484 866.271 38.2536 864.956 38.2349H864.952C864.222 38.2209 863.847 37.8231 863.847 37.1772C863.847 36.5314 864.236 36.0914 864.942 36.0914C868.247 36.0727 871.551 36.0727 874.855 36.0914C875.491 36.0914 875.917 36.5641 875.922 37.1585C875.926 37.7763 875.538 38.2209 874.869 38.2302C873.682 38.2503 872.495 38.2465 871.309 38.2426C870.834 38.2411 870.359 38.2396 869.885 38.2396C869.556 38.2405 869.227 38.2418 868.899 38.2431Z" fill="#007643"/>
<path d="M1041.22 161.915V154.062H1042.51V160.819H1045.84V161.915H1041.22ZM1048.33 155.969V161.915H1047.07V155.969H1048.33ZM1047.71 153.692C1047.9 153.692 1048.07 153.744 1048.21 153.847C1048.35 153.951 1048.42 154.13 1048.42 154.384C1048.42 154.635 1048.35 154.814 1048.21 154.922C1048.07 155.025 1047.9 155.077 1047.71 155.077C1047.51 155.077 1047.34 155.025 1047.2 154.922C1047.06 154.814 1047 154.635 1047 154.384C1047 154.13 1047.06 153.951 1047.2 153.847C1047.34 153.744 1047.51 153.692 1047.71 153.692ZM1051.5 161.915L1049.24 155.969H1050.58L1051.8 159.46C1051.88 159.682 1051.95 159.922 1052.02 160.18C1052.08 160.438 1052.13 160.654 1052.15 160.83H1052.19C1052.22 160.647 1052.27 160.429 1052.34 160.174C1052.41 159.917 1052.48 159.679 1052.56 159.46L1053.78 155.969H1055.12L1052.86 161.915H1051.5ZM1058.39 155.856C1058.92 155.856 1059.37 155.965 1059.75 156.184C1060.13 156.402 1060.42 156.712 1060.63 157.113C1060.83 157.514 1060.93 157.994 1060.93 158.552V159.229H1056.96C1056.98 159.806 1057.13 160.25 1057.43 160.561C1057.72 160.873 1058.14 161.029 1058.67 161.029C1059.05 161.029 1059.39 160.993 1059.69 160.921C1060 160.846 1060.31 160.737 1060.63 160.593V161.619C1060.34 161.759 1060.03 161.861 1059.73 161.925C1059.42 161.99 1059.05 162.022 1058.62 162.022C1058.03 162.022 1057.52 161.909 1057.08 161.684C1056.64 161.455 1056.29 161.114 1056.04 160.663C1055.79 160.212 1055.67 159.652 1055.67 158.982C1055.67 158.316 1055.78 157.75 1056.01 157.285C1056.23 156.819 1056.55 156.465 1056.96 156.221C1057.37 155.978 1057.84 155.856 1058.39 155.856ZM1058.39 156.807C1057.99 156.807 1057.67 156.936 1057.42 157.194C1057.18 157.451 1057.03 157.829 1056.99 158.327H1059.7C1059.69 158.03 1059.64 157.766 1059.55 157.537C1059.45 157.308 1059.31 157.129 1059.12 157C1058.93 156.871 1058.68 156.807 1058.39 156.807ZM1068.69 155.045C1068.31 155.045 1067.98 155.113 1067.68 155.249C1067.39 155.385 1067.14 155.582 1066.93 155.84C1066.73 156.094 1066.57 156.404 1066.47 156.769C1066.36 157.131 1066.3 157.539 1066.3 157.994C1066.3 158.603 1066.39 159.127 1066.56 159.568C1066.73 160.004 1067 160.341 1067.35 160.577C1067.7 160.81 1068.14 160.926 1068.68 160.926C1069.01 160.926 1069.34 160.894 1069.65 160.83C1069.97 160.765 1070.29 160.678 1070.63 160.567V161.662C1070.31 161.788 1069.99 161.879 1069.66 161.936C1069.34 161.994 1068.96 162.022 1068.53 162.022C1067.73 162.022 1067.07 161.856 1066.54 161.523C1066.01 161.19 1065.62 160.721 1065.35 160.115C1065.1 159.51 1064.97 158.801 1064.97 157.988C1064.97 157.394 1065.05 156.85 1065.21 156.356C1065.38 155.862 1065.62 155.435 1065.93 155.077C1066.25 154.716 1066.64 154.438 1067.1 154.245C1067.57 154.048 1068.1 153.949 1068.69 153.949C1069.09 153.949 1069.48 153.994 1069.85 154.084C1070.24 154.17 1070.59 154.293 1070.92 154.454L1070.47 155.518C1070.2 155.389 1069.91 155.278 1069.61 155.185C1069.32 155.092 1069.01 155.045 1068.69 155.045ZM1073.45 153.557V155.657C1073.45 155.876 1073.44 156.089 1073.43 156.297C1073.42 156.504 1073.4 156.665 1073.39 156.78H1073.46C1073.58 156.572 1073.74 156.402 1073.92 156.27C1074.1 156.134 1074.31 156.032 1074.53 155.964C1074.76 155.896 1075.01 155.862 1075.26 155.862C1075.72 155.862 1076.11 155.938 1076.42 156.092C1076.74 156.243 1076.99 156.477 1077.15 156.796C1077.33 157.115 1077.41 157.528 1077.41 158.037V161.915H1076.15V158.273C1076.15 157.811 1076.05 157.466 1075.87 157.237C1075.68 157.004 1075.38 156.887 1074.98 156.887C1074.6 156.887 1074.3 156.968 1074.07 157.129C1073.85 157.287 1073.69 157.521 1073.59 157.833C1073.5 158.141 1073.45 158.517 1073.45 158.961V161.915H1072.19V153.557H1073.45ZM1081.51 155.856C1082.26 155.856 1082.83 156.023 1083.21 156.356C1083.6 156.689 1083.79 157.208 1083.79 157.913V161.915H1082.9L1082.65 161.071H1082.61C1082.44 161.286 1082.27 161.464 1082.09 161.603C1081.91 161.743 1081.7 161.847 1081.47 161.915C1081.23 161.986 1080.95 162.022 1080.61 162.022C1080.26 162.022 1079.94 161.958 1079.66 161.829C1079.38 161.696 1079.16 161.496 1079 161.227C1078.84 160.959 1078.76 160.619 1078.76 160.207C1078.76 159.594 1078.99 159.134 1079.44 158.826C1079.9 158.518 1080.59 158.348 1081.52 158.316L1082.55 158.279V157.967C1082.55 157.555 1082.45 157.262 1082.26 157.086C1082.07 156.911 1081.8 156.823 1081.45 156.823C1081.15 156.823 1080.87 156.866 1080.59 156.952C1080.31 157.038 1080.03 157.143 1079.77 157.269L1079.36 156.377C1079.65 156.223 1079.98 156.098 1080.35 156.001C1080.72 155.904 1081.11 155.856 1081.51 155.856ZM1082.54 159.073L1081.77 159.1C1081.14 159.122 1080.7 159.229 1080.45 159.423C1080.19 159.616 1080.07 159.881 1080.07 160.217C1080.07 160.511 1080.15 160.726 1080.33 160.862C1080.5 160.994 1080.73 161.061 1081.02 161.061C1081.46 161.061 1081.82 160.937 1082.11 160.69C1082.4 160.439 1082.54 160.072 1082.54 159.589V159.073ZM1087.77 161.002C1087.94 161.002 1088.1 160.987 1088.26 160.959C1088.42 160.926 1088.57 160.889 1088.7 160.846V161.802C1088.56 161.863 1088.38 161.915 1088.16 161.958C1087.94 162.001 1087.71 162.022 1087.47 162.022C1087.13 162.022 1086.83 161.967 1086.56 161.856C1086.29 161.741 1086.08 161.546 1085.92 161.27C1085.76 160.994 1085.68 160.613 1085.68 160.126V156.93H1084.87V156.366L1085.74 155.921L1086.16 154.648H1086.95V155.969H1088.65V156.93H1086.95V160.11C1086.95 160.411 1087.03 160.635 1087.18 160.781C1087.33 160.928 1087.53 161.002 1087.77 161.002Z" fill="#434343"/>
<g filter="url(#filter5_d_316_921)">
<circle cx="1062.12" cy="65.6744" r="57.6744" fill="#F6F6F6"/>
</g>
<path d="M1064.6 41.4883C1079.26 41.4883 1091.26 51.109 1091.26 62.9871C1091.26 74.8651 1079.26 84.4858 1064.6 84.4858C1061.29 84.4858 1058.12 84.002 1055.18 83.1421C1047.4 89.8604 1037.93 89.8604 1037.93 89.8604C1044.14 83.5989 1045.13 79.3798 1045.26 77.7674C1040.73 73.9245 1037.93 68.7111 1037.93 62.9871C1037.93 51.109 1049.93 41.4883 1064.6 41.4883ZM1077.93 65.6744V60.2997H1072.6V65.6744H1077.93ZM1067.26 65.6744V60.2997H1061.93V65.6744H1067.26ZM1056.6 65.6744V60.2997H1051.26V65.6744H1056.6Z" fill="#007643"/>
<defs>
<filter id="filter0_d_316_921" x="0" y="0" width="190" height="190" filterUnits="userSpaceOnUse" color-interpolation-filters="sRGB">
<feFlood flood-opacity="0" result="BackgroundImageFix"/>
<feColorMatrix in="SourceAlpha" type="matrix" values="0 0 0 0 0 0 0 0 0 0 0 0 0 0 0 0 0 0 127 0" result="hardAlpha"/>
<feOffset/>
<feGaussianBlur stdDeviation="4"/>
<feComposite in2="hardAlpha" operator="out"/>
<feColorMatrix type="matrix" values="0 0 0 0 0 0 0 0 0 0 0 0 0 0 0 0 0 0 0.25 0"/>
<feBlend mode="normal" in2="BackgroundImageFix" result="effect1_dropShadow_316_921"/>
<feBlend mode="normal" in="SourceGraphic" in2="effect1_dropShadow_316_921" result="shape"/>
</filter>
<filter id="filter1_d_316_921" x="222.488" y="0" width="131.349" height="131.349" filterUnits="userSpaceOnUse" color-interpolation-filters="sRGB">
<feFlood flood-opacity="0" result="BackgroundImageFix"/>
<feColorMatrix in="SourceAlpha" type="matrix" values="0 0 0 0 0 0 0 0 0 0 0 0 0 0 0 0 0 0 127 0" result="hardAlpha"/>
<feOffset/>
<feGaussianBlur stdDeviation="4"/>
<feComposite in2="hardAlpha" operator="out"/>
<feColorMatrix type="matrix" values="0 0 0 0 0 0 0 0 0 0 0 0 0 0 0 0 0 0 0.25 0"/>
<feBlend mode="normal" in2="BackgroundImageFix" result="effect1_dropShadow_316_921"/>
<feBlend mode="normal" in="SourceGraphic" in2="effect1_dropShadow_316_921" result="shape"/>
</filter>
<filter id="filter2_d_316_921" x="415.977" y="0" width="131.349" height="131.349" filterUnits="userSpaceOnUse" color-interpolation-filters="sRGB">
<feFlood flood-opacity="0" result="BackgroundImageFix"/>
<feColorMatrix in="SourceAlpha" type="matrix" values="0 0 0 0 0 0 0 0 0 0 0 0 0 0 0 0 0 0 127 0" result="hardAlpha"/>
<feOffset/>
<feGaussianBlur stdDeviation="4"/>
<feComposite in2="hardAlpha" operator="out"/>
<feColorMatrix type="matrix" values="0 0 0 0 0 0 0 0 0 0 0 0 0 0 0 0 0 0 0.25 0"/>
<feBlend mode="normal" in2="BackgroundImageFix" result="effect1_dropShadow_316_921"/>
<feBlend mode="normal" in="SourceGraphic" in2="effect1_dropShadow_316_921" result="shape"/>
</filter>
<filter id="filter3_d_316_921" x="609.465" y="0" width="131.349" height="131.349" filterUnits="userSpaceOnUse" color-interpolation-filters="sRGB">
<feFlood flood-opacity="0" result="BackgroundImageFix"/>
<feColorMatrix in="SourceAlpha" type="matrix" values="0 0 0 0 0 0 0 0 0 0 0 0 0 0 0 0 0 0 127 0" result="hardAlpha"/>
<feOffset/>
<feGaussianBlur stdDeviation="4"/>
<feComposite in2="hardAlpha" operator="out"/>
<feColorMatrix type="matrix" values="0 0 0 0 0 0 0 0 0 0 0 0 0 0 0 0 0 0 0.25 0"/>
<feBlend mode="normal" in2="BackgroundImageFix" result="effect1_dropShadow_316_921"/>
<feBlend mode="normal" in="SourceGraphic" in2="effect1_dropShadow_316_921" result="shape"/>
</filter>
<filter id="filter4_d_316_921" x="802.953" y="0" width="131.349" height="131.349" filterUnits="userSpaceOnUse" color-interpolation-filters="sRGB">
<feFlood flood-opacity="0" result="BackgroundImageFix"/>
<feColorMatrix in="SourceAlpha" type="matrix" values="0 0 0 0 0 0 0 0 0 0 0 0 0 0 0 0 0 0 127 0" result="hardAlpha"/>
<feOffset/>
<feGaussianBlur stdDeviation="4"/>
<feComposite in2="hardAlpha" operator="out"/>
<feColorMatrix type="matrix" values="0 0 0 0 0 0 0 0 0 0 0 0 0 0 0 0 0 0 0.25 0"/>
<feBlend mode="normal" in2="BackgroundImageFix" result="effect1_dropShadow_316_921"/>
<feBlend mode="normal" in="SourceGraphic" in2="effect1_dropShadow_316_921" result="shape"/>
</filter>
<filter id="filter5_d_316_921" x="996.441" y="0" width="131.349" height="131.349" filterUnits="userSpaceOnUse" color-interpolation-filters="sRGB">
<feFlood flood-opacity="0" result="BackgroundImageFix"/>
<feColorMatrix in="SourceAlpha" type="matrix" values="0 0 0 0 0 0 0 0 0 0 0 0 0 0 0 0 0 0 127 0" result="hardAlpha"/>
<feOffset/>
<feGaussianBlur stdDeviation="4"/>
<feComposite in2="hardAlpha" operator="out"/>
<feColorMatrix type="matrix" values="0 0 0 0 0 0 0 0 0 0 0 0 0 0 0 0 0 0 0.25 0"/>
<feBlend mode="normal" in2="BackgroundImageFix" result="effect1_dropShadow_316_921"/>
<feBlend mode="normal" in="SourceGraphic" in2="effect1_dropShadow_316_921" result="shape"/>
</filter>
</defs>
</svg>
