<svg width="1056" height="143" viewBox="0 0 1056 143" fill="none" xmlns="http://www.w3.org/2000/svg">
<g filter="url(#filter0_d_316_1651)">
<rect x="6.60547" y="6" width="130.978" height="130.978" rx="15" fill="white"/>
</g>
<path d="M50.2701 77.5317C50.2701 77.9591 50.1813 78.3294 50.0035 78.6425C49.8258 78.9557 49.5846 79.2117 49.2799 79.4106C48.9794 79.6095 48.6409 79.7555 48.2643 79.8486V79.8867C49.0091 79.9798 49.574 80.2083 49.9591 80.5722C50.3484 80.9361 50.5431 81.4228 50.5431 82.0322C50.5431 82.5738 50.4098 83.0584 50.1432 83.4858C49.8808 83.9132 49.4745 84.2496 48.9244 84.4951C48.3743 84.7405 47.6655 84.8632 46.798 84.8632C46.2859 84.8632 45.8077 84.8209 45.3634 84.7363C44.9233 84.6559 44.5086 84.531 44.1192 84.3618V82.6923C44.517 82.8954 44.9339 83.0499 45.3697 83.1557C45.8056 83.2573 46.2119 83.308 46.5885 83.308C47.291 83.308 47.7818 83.1874 48.0611 82.9462C48.3447 82.7008 48.4864 82.358 48.4864 81.9179C48.4864 81.6598 48.4208 81.4418 48.2897 81.2641C48.1585 81.0864 47.93 80.9509 47.6041 80.8578C47.2825 80.7648 46.8318 80.7182 46.2521 80.7182H45.5475V79.2138H46.2648C46.836 79.2138 47.2698 79.1609 47.566 79.0551C47.8665 78.9451 48.0696 78.797 48.1754 78.6108C48.2854 78.4203 48.3404 78.2045 48.3404 77.9633C48.3404 77.6332 48.2389 77.3751 48.0357 77.1889C47.8326 77.0027 47.4941 76.9096 47.0201 76.9096C46.7239 76.9096 46.4531 76.9477 46.2076 77.0239C45.9664 77.0958 45.7485 77.1847 45.5538 77.2905C45.3592 77.392 45.1878 77.4915 45.0397 77.5888L44.1319 76.2368C44.4959 75.9744 44.9212 75.7564 45.4078 75.5829C45.8987 75.4094 46.4827 75.3227 47.1598 75.3227C48.1162 75.3227 48.8736 75.5152 49.4322 75.9003C49.9908 76.2854 50.2701 76.8292 50.2701 77.5317ZM58.0206 80.0961C58.0206 80.8452 57.9614 81.5138 57.8429 82.102C57.7286 82.6902 57.5424 83.1896 57.2843 83.6C57.0304 84.0105 56.6961 84.3237 56.2814 84.5395C55.8666 84.7553 55.3631 84.8632 54.7706 84.8632C54.0258 84.8632 53.4143 84.6749 52.9361 84.2983C52.4579 83.9174 52.1046 83.3715 51.8761 82.6606C51.6476 81.9454 51.5333 81.0906 51.5333 80.0961C51.5333 79.0932 51.637 78.2363 51.8443 77.5253C52.0559 76.8102 52.3987 76.2621 52.8727 75.8813C53.3466 75.5004 53.9793 75.31 54.7706 75.31C55.5112 75.31 56.1205 75.5004 56.5987 75.8813C57.0812 76.2579 57.4387 76.8038 57.6715 77.519C57.9042 78.2299 58.0206 79.089 58.0206 80.0961ZM53.482 80.0961C53.482 80.8028 53.5201 81.3932 53.5963 81.8671C53.6767 82.3369 53.81 82.6902 53.9962 82.9272C54.1824 83.1642 54.4405 83.2827 54.7706 83.2827C55.0965 83.2827 55.3525 83.1663 55.5387 82.9335C55.7291 82.6966 55.8645 82.3432 55.9449 81.8735C56.0253 81.3995 56.0655 80.8071 56.0655 80.0961C56.0655 79.3894 56.0253 78.7991 55.9449 78.3251C55.8645 77.8512 55.7291 77.4957 55.5387 77.2587C55.3525 77.0175 55.0965 76.8969 54.7706 76.8969C54.4405 76.8969 54.1824 77.0175 53.9962 77.2587C53.81 77.4957 53.6767 77.8512 53.5963 78.3251C53.5201 78.7991 53.482 79.3894 53.482 80.0961ZM65.4601 80.0961C65.4601 80.8452 65.4008 81.5138 65.2823 82.102C65.1681 82.6902 64.9819 83.1896 64.7237 83.6C64.4698 84.0105 64.1355 84.3237 63.7208 84.5395C63.3061 84.7553 62.8025 84.8632 62.2101 84.8632C61.4653 84.8632 60.8538 84.6749 60.3756 84.2983C59.8974 83.9174 59.544 83.3715 59.3155 82.6606C59.087 81.9454 58.9728 81.0906 58.9728 80.0961C58.9728 79.0932 59.0764 78.2363 59.2838 77.5253C59.4954 76.8102 59.8382 76.2621 60.3121 75.8813C60.7861 75.5004 61.4187 75.31 62.2101 75.31C62.9506 75.31 63.56 75.5004 64.0382 75.8813C64.5206 76.2579 64.8782 76.8038 65.1109 77.519C65.3437 78.2299 65.4601 79.089 65.4601 80.0961ZM60.9215 80.0961C60.9215 80.8028 60.9596 81.3932 61.0357 81.8671C61.1162 82.3369 61.2495 82.6902 61.4356 82.9272C61.6218 83.1642 61.88 83.2827 62.2101 83.2827C62.5359 83.2827 62.7919 83.1663 62.9781 82.9335C63.1686 82.6966 63.304 82.3432 63.3844 81.8735C63.4648 81.3995 63.505 80.8071 63.505 80.0961C63.505 79.3894 63.4648 78.7991 63.3844 78.3251C63.304 77.8512 63.1686 77.4957 62.9781 77.2587C62.7919 77.0175 62.5359 76.8969 62.2101 76.8969C61.88 76.8969 61.6218 77.0175 61.4356 77.2587C61.2495 77.4957 61.1162 77.8512 61.0357 78.3251C60.9596 78.7991 60.9215 79.3894 60.9215 80.0961ZM74.4166 84.7363L72.1822 77.4555H72.1251C72.1336 77.629 72.1463 77.8914 72.1632 78.2426C72.1843 78.5896 72.2034 78.9599 72.2203 79.3535C72.2372 79.747 72.2457 80.1025 72.2457 80.4199V84.7363H70.4874V75.456H73.1661L75.3624 82.5527H75.4005L77.7301 75.456H80.4088V84.7363H78.5743V80.3437C78.5743 80.0517 78.5786 79.7153 78.587 79.3344C78.5997 78.9536 78.6145 78.5917 78.6315 78.249C78.6484 77.902 78.6611 77.6417 78.6695 77.4682H78.6124L76.2193 84.7363H74.4166ZM84.5348 77.6396V84.7363H82.5987V77.6396H84.5348ZM83.5699 74.8593C83.8577 74.8593 84.1052 74.927 84.3126 75.0624C84.52 75.1936 84.6236 75.4412 84.6236 75.8051C84.6236 76.1648 84.52 76.4145 84.3126 76.5541C84.1052 76.6896 83.8577 76.7573 83.5699 76.7573C83.2779 76.7573 83.0283 76.6896 82.8209 76.5541C82.6178 76.4145 82.5162 76.1648 82.5162 75.8051C82.5162 75.4412 82.6178 75.1936 82.8209 75.0624C83.0283 74.927 83.2779 74.8593 83.5699 74.8593ZM90.6031 77.5063C91.3606 77.5063 91.97 77.7136 92.4313 78.1284C92.8925 78.5388 93.1231 79.199 93.1231 80.1088V84.7363H91.1871V80.5912C91.1871 80.0834 91.094 79.7005 90.9078 79.4423C90.7259 79.1842 90.4381 79.0551 90.0445 79.0551C89.4521 79.0551 89.048 79.2561 88.8321 79.6581C88.6163 80.0602 88.5084 80.6399 88.5084 81.3974V84.7363H86.5724V77.6396H88.0514L88.3116 78.5473H88.4195C88.5719 78.3019 88.7602 78.103 88.9845 77.9506C89.213 77.7983 89.4648 77.6861 89.7398 77.6142C90.0191 77.5423 90.3069 77.5063 90.6031 77.5063ZM100.067 82.6288C100.067 83.1113 99.9532 83.5196 99.7247 83.8539C99.5004 84.184 99.164 84.4358 98.7154 84.6093C98.2669 84.7786 97.7083 84.8632 97.0397 84.8632C96.5445 84.8632 96.1192 84.8315 95.7638 84.768C95.4125 84.7045 95.0571 84.5987 94.6974 84.4506V82.851C95.0825 83.0245 95.4951 83.1684 95.9352 83.2827C96.3795 83.3927 96.7688 83.4477 97.1031 83.4477C97.4798 83.4477 97.7485 83.3927 97.9093 83.2827C98.0743 83.1684 98.1568 83.0203 98.1568 82.8383C98.1568 82.7198 98.123 82.614 98.0553 82.5209C97.9918 82.4236 97.8522 82.3157 97.6363 82.1972C97.4205 82.0745 97.082 81.9158 96.6207 81.7211C96.1764 81.5349 95.8103 81.3466 95.5226 81.1562C95.239 80.9658 95.0275 80.7415 94.8878 80.4833C94.7524 80.221 94.6847 79.8888 94.6847 79.4868C94.6847 78.8308 94.9386 78.3378 95.4464 78.0078C95.9584 77.6734 96.6419 77.5063 97.4967 77.5063C97.9368 77.5063 98.3557 77.5507 98.7535 77.6396C99.1555 77.7285 99.5681 77.8702 99.9913 78.0649L99.4073 79.4614C99.0561 79.309 98.7239 79.1842 98.4108 79.0869C98.1018 78.9895 97.7866 78.9409 97.465 78.9409C97.1814 78.9409 96.9677 78.9789 96.8238 79.0551C96.68 79.1313 96.608 79.2477 96.608 79.4042C96.608 79.5185 96.644 79.6201 96.7159 79.7089C96.7921 79.7978 96.936 79.8972 97.1476 80.0073C97.3634 80.1131 97.6787 80.2506 98.0934 80.4199C98.4954 80.5849 98.8445 80.7584 99.1407 80.9404C99.437 81.1181 99.6655 81.3403 99.8263 81.6069C99.9871 81.8692 100.067 82.2099 100.067 82.6288Z" fill="#00612E"/>
<path d="M60.379 94.7993C60.379 95.4044 60.302 95.9558 60.1481 96.4536C59.9977 96.9477 59.7703 97.3738 59.4659 97.7319C59.1616 98.0864 58.7802 98.3603 58.3219 98.5536C57.8635 98.747 57.3264 98.8437 56.7106 98.8437C56.0839 98.8437 55.5397 98.747 55.0777 98.5536C54.6194 98.3603 54.2381 98.0846 53.9337 97.7265C53.6329 97.3684 53.4073 96.9405 53.2569 96.4428C53.1065 95.9451 53.0314 95.3937 53.0314 94.7885C53.0314 93.9793 53.1638 93.2739 53.4288 92.6723C53.6974 92.0672 54.1038 91.5981 54.6481 91.2651C55.1959 90.9285 55.887 90.7602 56.7213 90.7602C57.5377 90.7602 58.2162 90.9267 58.7569 91.2597C59.2976 91.5927 59.7023 92.0618 59.9708 92.6669C60.2429 93.2685 60.379 93.9793 60.379 94.7993ZM54.3849 94.7993C54.3849 95.4044 54.4672 95.929 54.6319 96.373C54.7967 96.8134 55.0491 97.1536 55.3893 97.3935C55.733 97.6298 56.1734 97.748 56.7106 97.748C57.2512 97.748 57.6917 97.6298 58.0318 97.3935C58.372 97.1536 58.6227 96.8134 58.7838 96.373C58.9449 95.929 59.0255 95.4044 59.0255 94.7993C59.0255 93.879 58.8411 93.1593 58.4723 92.6401C58.107 92.1173 57.5234 91.8559 56.7213 91.8559C56.1842 91.8559 55.742 91.9741 55.3946 92.2104C55.0509 92.4467 54.7967 92.7851 54.6319 93.2255C54.4672 93.6624 54.3849 94.187 54.3849 94.7993ZM68.6183 98.7363H67.0338L63.1881 92.4682H63.1398C63.1541 92.6795 63.1666 92.9033 63.1773 93.1396C63.1917 93.3759 63.2024 93.6194 63.2096 93.8701C63.2203 94.1207 63.2293 94.3749 63.2364 94.6328V98.7363H62.0655V90.8837H63.6393L67.4796 97.1088H67.5172C67.51 96.9262 67.5011 96.7167 67.4903 96.4804C67.4796 96.2441 67.4689 96.0006 67.4581 95.7499C67.4509 95.4957 67.4456 95.2504 67.442 95.0141V90.8837H68.6183V98.7363ZM80.0909 98.7363H78.5065L74.6607 92.4682H74.6124C74.6267 92.6795 74.6393 92.9033 74.65 93.1396C74.6643 93.3759 74.6751 93.6194 74.6822 93.8701C74.693 94.1207 74.7019 94.3749 74.7091 94.6328V98.7363H73.5382V90.8837H75.1119L78.9523 97.1088H78.9898C78.9827 96.9262 78.9737 96.7167 78.963 96.4804C78.9523 96.2441 78.9415 96.0006 78.9308 95.7499C78.9236 95.4957 78.9182 95.2504 78.9147 95.0141V90.8837H80.0909V98.7363ZM84.3932 92.6777C84.9231 92.6777 85.3779 92.7869 85.7574 93.0053C86.137 93.2237 86.4288 93.5335 86.6329 93.9345C86.837 94.3356 86.9391 94.8154 86.9391 95.374V96.0507H82.9698C82.9842 96.6272 83.1381 97.0712 83.4317 97.3828C83.7289 97.6943 84.1443 97.85 84.6778 97.85C85.0574 97.85 85.3976 97.8142 85.6983 97.7426C86.0027 97.6674 86.316 97.5582 86.6383 97.415V98.4409C86.3411 98.5805 86.0385 98.6826 85.7306 98.747C85.4226 98.8115 85.0538 98.8437 84.6241 98.8437C84.0405 98.8437 83.5266 98.7309 83.0826 98.5053C82.6422 98.2761 82.2967 97.936 82.046 97.4848C81.7989 97.0336 81.6754 96.4732 81.6754 95.8036C81.6754 95.1376 81.7882 94.5719 82.0138 94.1064C82.2394 93.6409 82.5563 93.2864 82.9645 93.0429C83.3727 92.7994 83.8489 92.6777 84.3932 92.6777ZM84.3932 93.6284C83.9957 93.6284 83.6734 93.7573 83.4264 94.0151C83.1829 94.2729 83.0397 94.6507 82.9967 95.1484H85.7037C85.7001 94.8512 85.65 94.588 85.5533 94.3588C85.4602 94.1297 85.317 93.9506 85.1236 93.8217C84.9339 93.6928 84.6904 93.6284 84.3932 93.6284ZM90.5753 97.8232C90.74 97.8232 90.9029 97.8089 91.0641 97.7802C91.2252 97.748 91.372 97.7104 91.5045 97.6674V98.6235C91.3648 98.6843 91.184 98.7363 90.962 98.7792C90.74 98.8222 90.5091 98.8437 90.2691 98.8437C89.9326 98.8437 89.63 98.7882 89.3614 98.6772C89.0929 98.5626 88.8798 98.3675 88.7223 98.0917C88.5647 97.816 88.4859 97.4347 88.4859 96.9477V93.7519H87.6749V93.1879L88.545 92.7421L88.9586 91.4692H89.7535V92.7905H91.4562V93.7519H89.7535V96.9316C89.7535 97.2324 89.8287 97.4562 89.9791 97.603C90.1295 97.7498 90.3282 97.8232 90.5753 97.8232Z" fill="#303030"/>
<path d="M82.6198 38.8946H80.2562C80.2553 37.9547 79.8815 37.0534 79.2168 36.3888C78.5521 35.7241 77.6509 35.3503 76.7109 35.3493V32.9858C78.2775 32.9877 79.7793 33.6108 80.887 34.7185C81.9948 35.8263 82.6179 37.3281 82.6198 38.8946Z" fill="#303030"/>
<path d="M87.3456 38.8946H84.9821C84.9796 36.7014 84.1072 34.5987 82.5564 33.0479C81.0056 31.4971 78.9029 30.6247 76.7097 30.6222V28.2587C79.5296 28.2618 82.2331 29.3834 84.227 31.3773C86.2209 33.3713 87.3425 36.0747 87.3456 38.8946ZM84.9821 57.8029H84.7812C61.5595 56.4675 58.2623 36.8738 57.8014 30.894C57.7294 29.9566 58.0327 29.0289 58.6446 28.3151C59.2565 27.6012 60.1269 27.1597 61.0643 27.0875C61.1581 27.0805 61.2522 27.0769 61.3467 27.0769H67.5747C68.048 27.0764 68.5106 27.2181 68.9025 27.4836C69.2944 27.7491 69.5976 28.1262 69.7727 28.5659L71.569 32.9857C71.742 33.4154 71.7849 33.8863 71.6925 34.3402C71.6 34.794 71.3763 35.2106 71.0491 35.5384L68.5319 38.0792C68.9235 40.3143 69.993 42.3749 71.5954 43.9815C73.1978 45.5882 75.2556 46.6631 77.4897 47.0606L80.0541 44.5198C80.3868 44.1962 80.8074 43.9777 81.2634 43.8915C81.7194 43.8053 82.1908 43.8553 82.6186 44.0353L87.0738 45.8197C87.507 46.0004 87.8765 46.3059 88.1354 46.6974C88.3942 47.0889 88.5307 47.5485 88.5274 48.0178V54.2576C88.5274 55.1978 88.1539 56.0996 87.489 56.7645C86.8241 57.4293 85.9224 57.8029 84.9821 57.8029ZM61.3467 29.4404C61.1916 29.44 61.0378 29.4701 60.8942 29.529C60.7507 29.588 60.6201 29.6747 60.5101 29.7841C60.4 29.8935 60.3126 30.0235 60.2527 30.1667C60.1929 30.3099 60.1619 30.4635 60.1614 30.6187C60.1614 30.6518 60.1626 30.6844 60.165 30.7167C60.7086 37.7128 64.1948 54.2576 84.9112 55.4393C85.224 55.4581 85.5314 55.3518 85.7659 55.1439C86.0003 54.9361 86.1426 54.6436 86.1615 54.3308L86.1639 54.2576V48.0178L81.7086 46.2334L78.3169 49.6014L77.7497 49.5305C67.4683 48.2424 66.0738 37.961 66.0738 37.8546L66.0029 37.2874L69.3591 33.8957L67.5865 29.4404H61.3467Z" fill="#303030"/>
<g filter="url(#filter1_d_316_1651)">
<rect x="766.881" y="6" width="130.978" height="130.978" rx="15" fill="white"/>
</g>
<path d="M810.541 33.8516C810.541 32.4541 811.116 31.1139 812.139 30.1257C813.163 29.1375 814.551 28.5824 815.998 28.5824H848.743C850.19 28.5824 851.578 29.1375 852.602 30.1257C853.625 31.1139 854.2 32.4541 854.2 33.8516V54.9286C854.2 56.326 853.625 57.6663 852.602 58.6545C851.578 59.6426 850.19 60.1978 848.743 60.1978H815.998C814.551 60.1978 813.163 59.6426 812.139 58.6545C811.116 57.6663 810.541 56.326 810.541 54.9286V33.8516ZM815.998 31.217C815.275 31.217 814.581 31.4946 814.069 31.9887C813.557 32.4828 813.27 33.1529 813.27 33.8516V34.4233L832.371 45.4887L851.472 34.4233V33.8516C851.472 33.1529 851.184 32.4828 850.672 31.9887C850.161 31.4946 849.467 31.217 848.743 31.217H815.998ZM851.472 37.4953L838.625 44.9381L851.472 52.5706V37.4953ZM851.379 55.6109L835.989 46.4662L832.371 48.5607L828.752 46.4662L813.363 55.6083C813.518 56.1689 813.86 56.6645 814.337 57.0179C814.813 57.3714 815.397 57.5631 815.998 57.5632H848.743C849.344 57.5632 849.927 57.372 850.404 57.019C850.881 56.666 851.223 56.1711 851.379 55.6109ZM813.27 52.5706L826.116 44.9381L813.27 37.4953V52.5706Z" fill="#303030"/>
<path d="M825.724 82.1591C825.724 82.7092 825.59 83.1874 825.324 83.5937C825.057 83.9999 824.668 84.3131 824.156 84.5331C823.648 84.7532 823.03 84.8632 822.302 84.8632C821.981 84.8632 821.665 84.8421 821.356 84.7997C821.052 84.7574 820.758 84.6961 820.474 84.6157C820.195 84.531 819.928 84.4273 819.674 84.3046V82.4765C820.114 82.6712 820.571 82.8468 821.045 83.0034C821.519 83.1599 821.989 83.2382 822.455 83.2382C822.776 83.2382 823.034 83.1959 823.229 83.1113C823.428 83.0266 823.572 82.9103 823.661 82.7621C823.749 82.614 823.794 82.4448 823.794 82.2543C823.794 82.0216 823.716 81.8227 823.559 81.6577C823.402 81.4926 823.187 81.3382 822.912 81.1943C822.641 81.0504 822.334 80.8959 821.991 80.7309C821.775 80.6293 821.541 80.5066 821.287 80.3627C821.033 80.2146 820.791 80.0348 820.563 79.8232C820.334 79.6116 820.146 79.3556 819.998 79.0551C819.854 78.7504 819.782 78.3865 819.782 77.9633C819.782 77.409 819.909 76.935 820.163 76.5414C820.417 76.1479 820.779 75.8474 821.249 75.6401C821.722 75.4285 822.281 75.3227 822.924 75.3227C823.407 75.3227 823.866 75.3798 824.302 75.4941C824.742 75.6041 825.201 75.7649 825.679 75.9765L825.044 77.5063C824.617 77.3328 824.234 77.1995 823.895 77.1064C823.557 77.0091 823.212 76.9604 822.861 76.9604C822.615 76.9604 822.406 77.0006 822.232 77.081C822.059 77.1572 821.928 77.2672 821.839 77.4111C821.75 77.5507 821.706 77.7136 821.706 77.8998C821.706 78.1199 821.769 78.3061 821.896 78.4584C822.027 78.6065 822.222 78.7504 822.48 78.8901C822.742 79.0297 823.068 79.1926 823.458 79.3788C823.931 79.6031 824.336 79.838 824.67 80.0834C825.008 80.3246 825.269 80.6103 825.451 80.9404C825.633 81.2662 825.724 81.6725 825.724 82.1591ZM831.335 84.7363L829.101 77.4555H829.043C829.052 77.629 829.065 77.8914 829.082 78.2426C829.103 78.5896 829.122 78.9599 829.139 79.3535C829.156 79.747 829.164 80.1025 829.164 80.4199V84.7363H827.406V75.456H830.084L832.281 82.5527H832.319L834.648 75.456H837.327V84.7363H835.493V80.3437C835.493 80.0517 835.497 79.7153 835.505 79.3344C835.518 78.9536 835.533 78.5917 835.55 78.249C835.567 77.902 835.579 77.6417 835.588 77.4682H835.531L833.138 84.7363H831.335ZM845.147 82.1591C845.147 82.7092 845.014 83.1874 844.748 83.5937C844.481 83.9999 844.092 84.3131 843.58 84.5331C843.072 84.7532 842.454 84.8632 841.726 84.8632C841.404 84.8632 841.089 84.8421 840.78 84.7997C840.476 84.7574 840.181 84.6961 839.898 84.6157C839.619 84.531 839.352 84.4273 839.098 84.3046V82.4765C839.538 82.6712 839.995 82.8468 840.469 83.0034C840.943 83.1599 841.413 83.2382 841.878 83.2382C842.2 83.2382 842.458 83.1959 842.653 83.1113C842.852 83.0266 842.996 82.9103 843.084 82.7621C843.173 82.614 843.218 82.4448 843.218 82.2543C843.218 82.0216 843.139 81.8227 842.983 81.6577C842.826 81.4926 842.61 81.3382 842.335 81.1943C842.065 81.0504 841.758 80.8959 841.415 80.7309C841.199 80.6293 840.964 80.5066 840.71 80.3627C840.457 80.2146 840.215 80.0348 839.987 79.8232C839.758 79.6116 839.57 79.3556 839.422 79.0551C839.278 78.7504 839.206 78.3865 839.206 77.9633C839.206 77.409 839.333 76.935 839.587 76.5414C839.841 76.1479 840.203 75.8474 840.672 75.6401C841.146 75.4285 841.705 75.3227 842.348 75.3227C842.831 75.3227 843.29 75.3798 843.726 75.4941C844.166 75.6041 844.625 75.7649 845.103 75.9765L844.468 77.5063C844.041 77.3328 843.658 77.1995 843.319 77.1064C842.981 77.0091 842.636 76.9604 842.285 76.9604C842.039 76.9604 841.83 77.0006 841.656 77.081C841.483 77.1572 841.352 77.2672 841.263 77.4111C841.174 77.5507 841.129 77.7136 841.129 77.8998C841.129 78.1199 841.193 78.3061 841.32 78.4584C841.451 78.6065 841.646 78.7504 841.904 78.8901C842.166 79.0297 842.492 79.1926 842.881 79.3788C843.355 79.6031 843.759 79.838 844.094 80.0834C844.432 80.3246 844.693 80.6103 844.874 80.9404C845.056 81.2662 845.147 81.6725 845.147 82.1591Z" fill="#00612E"/>
<path d="M808.312 94.7993C808.312 95.4044 808.235 95.9558 808.082 96.4536C807.931 96.9477 807.704 97.3738 807.399 97.7319C807.095 98.0864 806.714 98.3603 806.255 98.5536C805.797 98.747 805.26 98.8437 804.644 98.8437C804.017 98.8437 803.473 98.747 803.011 98.5536C802.553 98.3603 802.172 98.0846 801.867 97.7265C801.566 97.3684 801.341 96.9405 801.19 96.4428C801.04 95.9451 800.965 95.3937 800.965 94.7885C800.965 93.9793 801.097 93.2739 801.362 92.6723C801.631 92.0672 802.037 91.5981 802.582 91.2651C803.129 90.9285 803.82 90.7602 804.655 90.7602C805.471 90.7602 806.15 90.9267 806.69 91.2597C807.231 91.5927 807.636 92.0618 807.904 92.6669C808.176 93.2685 808.312 93.9793 808.312 94.7993ZM802.318 94.7993C802.318 95.4044 802.401 95.929 802.565 96.373C802.73 96.8134 802.983 97.1536 803.323 97.3935C803.666 97.6298 804.107 97.748 804.644 97.748C805.185 97.748 805.625 97.6298 805.965 97.3935C806.305 97.1536 806.556 96.8134 806.717 96.373C806.878 95.929 806.959 95.4044 806.959 94.7993C806.959 93.879 806.775 93.1593 806.406 92.6401C806.041 92.1173 805.457 91.8559 804.655 91.8559C804.118 91.8559 803.675 91.9741 803.328 92.2104C802.984 92.4467 802.73 92.7851 802.565 93.2255C802.401 93.6624 802.318 94.187 802.318 94.7993ZM816.552 98.7363H814.967L811.122 92.4682H811.073C811.088 92.6795 811.1 92.9033 811.111 93.1396C811.125 93.3759 811.136 93.6194 811.143 93.8701C811.154 94.1207 811.163 94.3749 811.17 94.6328V98.7363H809.999V90.8837H811.573L815.413 97.1088H815.451C815.444 96.9262 815.435 96.7167 815.424 96.4804C815.413 96.2441 815.402 96.0006 815.392 95.7499C815.384 95.4957 815.379 95.2504 815.375 95.0141V90.8837H816.552V98.7363ZM821.789 90.8837L818.861 98.7363H817.68L820.607 90.8837H821.789ZM829.883 94.7993C829.883 95.4044 829.806 95.9558 829.652 96.4536C829.501 96.9477 829.274 97.3738 828.97 97.7319C828.665 98.0864 828.284 98.3603 827.826 98.5536C827.367 98.747 826.83 98.8437 826.214 98.8437C825.588 98.8437 825.043 98.747 824.582 98.5536C824.123 98.3603 823.742 98.0846 823.437 97.7265C823.137 97.3684 822.911 96.9405 822.761 96.4428C822.61 95.9451 822.535 95.3937 822.535 94.7885C822.535 93.9793 822.668 93.2739 822.933 92.6723C823.201 92.0672 823.608 91.5981 824.152 91.2651C824.7 90.9285 825.391 90.7602 826.225 90.7602C827.041 90.7602 827.72 90.9267 828.261 91.2597C828.801 91.5927 829.206 92.0618 829.475 92.6669C829.747 93.2685 829.883 93.9793 829.883 94.7993ZM823.889 94.7993C823.889 95.4044 823.971 95.929 824.136 96.373C824.3 96.8134 824.553 97.1536 824.893 97.3935C825.237 97.6298 825.677 97.748 826.214 97.748C826.755 97.748 827.195 97.6298 827.536 97.3935C827.876 97.1536 828.126 96.8134 828.288 96.373C828.449 95.929 828.529 95.4044 828.529 94.7993C828.529 93.879 828.345 93.1593 827.976 92.6401C827.611 92.1173 827.027 91.8559 826.225 91.8559C825.688 91.8559 825.246 91.9741 824.898 92.2104C824.555 92.4467 824.3 92.7851 824.136 93.2255C823.971 93.6624 823.889 94.187 823.889 94.7993ZM832.848 98.7363H831.569V90.8837H836.006V91.9687H832.848V94.4179H835.802V95.4975H832.848V98.7363ZM838.713 98.7363H837.435V90.8837H841.871V91.9687H838.713V94.4179H841.667V95.4975H838.713V98.7363ZM852.71 98.7363H851.125L847.28 92.4682H847.231C847.246 92.6795 847.258 92.9033 847.269 93.1396C847.283 93.3759 847.294 93.6194 847.301 93.8701C847.312 94.1207 847.321 94.3749 847.328 94.6328V98.7363H846.157V90.8837H847.731L851.571 97.1088H851.609C851.602 96.9262 851.593 96.7167 851.582 96.4804C851.571 96.2441 851.561 96.0006 851.55 95.7499C851.543 95.4957 851.537 95.2504 851.534 95.0141V90.8837H852.71V98.7363ZM857.012 92.6777C857.542 92.6777 857.997 92.7869 858.376 93.0053C858.756 93.2237 859.048 93.5335 859.252 93.9345C859.456 94.3356 859.558 94.8154 859.558 95.374V96.0507H855.589C855.603 96.6272 855.757 97.0712 856.051 97.3828C856.348 97.6943 856.763 97.85 857.297 97.85C857.676 97.85 858.017 97.8142 858.317 97.7426C858.622 97.6674 858.935 97.5582 859.257 97.415V98.4409C858.96 98.5805 858.658 98.6826 858.35 98.747C858.042 98.8115 857.673 98.8437 857.243 98.8437C856.659 98.8437 856.146 98.7309 855.702 98.5053C855.261 98.2761 854.916 97.936 854.665 97.4848C854.418 97.0336 854.294 96.4732 854.294 95.8036C854.294 95.1376 854.407 94.5719 854.633 94.1064C854.858 93.6409 855.175 93.2864 855.583 93.0429C855.992 92.7994 856.468 92.6777 857.012 92.6777ZM857.012 93.6284C856.615 93.6284 856.292 93.7573 856.045 94.0151C855.802 94.2729 855.659 94.6507 855.616 95.1484H858.323C858.319 94.8512 858.269 94.588 858.172 94.3588C858.079 94.1297 857.936 93.9506 857.743 93.8217C857.553 93.6928 857.309 93.6284 857.012 93.6284ZM863.194 97.8232C863.359 97.8232 863.522 97.8089 863.683 97.7802C863.844 97.748 863.991 97.7104 864.124 97.6674V98.6235C863.984 98.6843 863.803 98.7363 863.581 98.7792C863.359 98.8222 863.128 98.8437 862.888 98.8437C862.552 98.8437 862.249 98.7882 861.98 98.6772C861.712 98.5626 861.499 98.3675 861.341 98.0917C861.184 97.816 861.105 97.4347 861.105 96.9477V93.7519H860.294V93.1879L861.164 92.7421L861.578 91.4692H862.373V92.7905H864.075V93.7519H862.373V96.9316C862.373 97.2324 862.448 97.4562 862.598 97.603C862.749 97.7498 862.947 97.8232 863.194 97.8232Z" fill="#303030"/>
<g filter="url(#filter2_d_316_1651)">
<rect x="158.66" y="6" width="130.978" height="130.978" rx="15" fill="white"/>
</g>
<path d="M201.051 84.7363H199.089V79.3661C199.089 79.218 199.092 79.0361 199.096 78.8203C199.1 78.6002 199.106 78.3759 199.115 78.1474C199.123 77.9147 199.132 77.7052 199.14 77.519C199.094 77.574 198.998 77.6692 198.855 77.8046C198.715 77.9358 198.584 78.0543 198.461 78.1601L197.395 79.017L196.449 77.8364L199.439 75.456H201.051V84.7363ZM210.077 80.0961C210.077 80.8452 210.018 81.5138 209.9 82.102C209.785 82.6902 209.599 83.1896 209.341 83.6C209.087 84.0105 208.753 84.3237 208.338 84.5395C207.923 84.7553 207.42 84.8632 206.827 84.8632C206.082 84.8632 205.471 84.6749 204.993 84.2983C204.515 83.9174 204.161 83.3715 203.933 82.6606C203.704 81.9454 203.59 81.0906 203.59 80.0961C203.59 79.0932 203.694 78.2363 203.901 77.5253C204.113 76.8102 204.455 76.2621 204.929 75.8813C205.403 75.5004 206.036 75.31 206.827 75.31C207.568 75.31 208.177 75.5004 208.655 75.8813C209.138 76.2579 209.495 76.8038 209.728 77.519C209.961 78.2299 210.077 79.089 210.077 80.0961ZM205.539 80.0961C205.539 80.8028 205.577 81.3932 205.653 81.8671C205.733 82.3369 205.867 82.6902 206.053 82.9272C206.239 83.1642 206.497 83.2827 206.827 83.2827C207.153 83.2827 207.409 83.1663 207.595 82.9335C207.786 82.6966 207.921 82.3432 208.002 81.8735C208.082 81.3995 208.122 80.8071 208.122 80.0961C208.122 79.3894 208.082 78.7991 208.002 78.3251C207.921 77.8512 207.786 77.4957 207.595 77.2587C207.409 77.0175 207.153 76.8969 206.827 76.8969C206.497 76.8969 206.239 77.0175 206.053 77.2587C205.867 77.4957 205.733 77.8512 205.653 78.3251C205.577 78.7991 205.539 79.3894 205.539 80.0961ZM217.517 80.0961C217.517 80.8452 217.457 81.5138 217.339 82.102C217.225 82.6902 217.039 83.1896 216.78 83.6C216.526 84.0105 216.192 84.3237 215.777 84.5395C215.363 84.7553 214.859 84.8632 214.267 84.8632C213.522 84.8632 212.91 84.6749 212.432 84.2983C211.954 83.9174 211.601 83.3715 211.372 82.6606C211.144 81.9454 211.029 81.0906 211.029 80.0961C211.029 79.0932 211.133 78.2363 211.34 77.5253C211.552 76.8102 211.895 76.2621 212.369 75.8813C212.843 75.5004 213.475 75.31 214.267 75.31C215.007 75.31 215.617 75.5004 216.095 75.8813C216.577 76.2579 216.935 76.8038 217.168 77.519C217.4 78.2299 217.517 79.089 217.517 80.0961ZM212.978 80.0961C212.978 80.8028 213.016 81.3932 213.092 81.8671C213.173 82.3369 213.306 82.6902 213.492 82.9272C213.678 83.1642 213.937 83.2827 214.267 83.2827C214.593 83.2827 214.849 83.1663 215.035 82.9335C215.225 82.6966 215.361 82.3432 215.441 81.8735C215.521 81.3995 215.562 80.8071 215.562 80.0961C215.562 79.3894 215.521 78.7991 215.441 78.3251C215.361 77.8512 215.225 77.4957 215.035 77.2587C214.849 77.0175 214.593 76.8969 214.267 76.8969C213.937 76.8969 213.678 77.0175 213.492 77.2587C213.306 77.4957 213.173 77.8512 213.092 78.3251C213.016 78.7991 212.978 79.3894 212.978 80.0961ZM226.473 84.7363L224.239 77.4555H224.182C224.19 77.629 224.203 77.8914 224.22 78.2426C224.241 78.5896 224.26 78.9599 224.277 79.3535C224.294 79.747 224.302 80.1025 224.302 80.4199V84.7363H222.544V75.456H225.223L227.419 82.5527H227.457L229.787 75.456H232.465V84.7363H230.631V80.3437C230.631 80.0517 230.635 79.7153 230.644 79.3344C230.656 78.9536 230.671 78.5917 230.688 78.249C230.705 77.902 230.718 77.6417 230.726 77.4682H230.669L228.276 84.7363H226.473ZM236.591 77.6396V84.7363H234.655V77.6396H236.591ZM235.627 74.8593C235.914 74.8593 236.162 74.927 236.369 75.0624C236.577 75.1936 236.68 75.4412 236.68 75.8051C236.68 76.1648 236.577 76.4145 236.369 76.5541C236.162 76.6896 235.914 76.7573 235.627 76.7573C235.335 76.7573 235.085 76.6896 234.878 76.5541C234.674 76.4145 234.573 76.1648 234.573 75.8051C234.573 75.4412 234.674 75.1936 234.878 75.0624C235.085 74.927 235.335 74.8593 235.627 74.8593ZM242.66 77.5063C243.417 77.5063 244.027 77.7136 244.488 78.1284C244.949 78.5388 245.18 79.199 245.18 80.1088V84.7363H243.244V80.5912C243.244 80.0834 243.151 79.7005 242.964 79.4423C242.782 79.1842 242.495 79.0551 242.101 79.0551C241.509 79.0551 241.105 79.2561 240.889 79.6581C240.673 80.0602 240.565 80.6399 240.565 81.3974V84.7363H238.629V77.6396H240.108L240.368 78.5473H240.476C240.629 78.3019 240.817 78.103 241.041 77.9506C241.27 77.7983 241.521 77.6861 241.796 77.6142C242.076 77.5423 242.364 77.5063 242.66 77.5063ZM252.124 82.6288C252.124 83.1113 252.01 83.5196 251.781 83.8539C251.557 84.184 251.221 84.4358 250.772 84.6093C250.324 84.7786 249.765 84.8632 249.096 84.8632C248.601 84.8632 248.176 84.8315 247.82 84.768C247.469 84.7045 247.114 84.5987 246.754 84.4506V82.851C247.139 83.0245 247.552 83.1684 247.992 83.2827C248.436 83.3927 248.825 83.4477 249.16 83.4477C249.536 83.4477 249.805 83.3927 249.966 83.2827C250.131 83.1684 250.213 83.0203 250.213 82.8383C250.213 82.7198 250.18 82.614 250.112 82.5209C250.048 82.4236 249.909 82.3157 249.693 82.1972C249.477 82.0745 249.139 81.9158 248.677 81.7211C248.233 81.5349 247.867 81.3466 247.579 81.1562C247.296 80.9658 247.084 80.7415 246.944 80.4833C246.809 80.221 246.741 79.8888 246.741 79.4868C246.741 78.8308 246.995 78.3378 247.503 78.0078C248.015 77.6734 248.699 77.5063 249.553 77.5063C249.993 77.5063 250.412 77.5507 250.81 77.6396C251.212 77.7285 251.625 77.8702 252.048 78.0649L251.464 79.4614C251.113 79.309 250.781 79.1842 250.467 79.0869C250.158 78.9895 249.843 78.9409 249.522 78.9409C249.238 78.9409 249.024 78.9789 248.88 79.0551C248.737 79.1313 248.665 79.2477 248.665 79.4042C248.665 79.5185 248.701 79.6201 248.773 79.7089C248.849 79.7978 248.993 79.8972 249.204 80.0073C249.42 80.1131 249.735 80.2506 250.15 80.4199C250.552 80.5849 250.901 80.7584 251.197 80.9404C251.494 81.1181 251.722 81.3403 251.883 81.6069C252.044 81.8692 252.124 82.2099 252.124 82.6288Z" fill="#00612E"/>
<path d="M210.878 94.7993C210.878 95.4044 210.801 95.9558 210.647 96.4536C210.497 96.9477 210.269 97.3738 209.965 97.7319C209.661 98.0864 209.279 98.3603 208.821 98.5536C208.363 98.747 207.825 98.8437 207.21 98.8437C206.583 98.8437 206.039 98.747 205.577 98.5536C205.118 98.3603 204.737 98.0846 204.433 97.7265C204.132 97.3684 203.906 96.9405 203.756 96.4428C203.606 95.9451 203.53 95.3937 203.53 94.7885C203.53 93.9793 203.663 93.2739 203.928 92.6723C204.196 92.0672 204.603 91.5981 205.147 91.2651C205.695 90.9285 206.386 90.7602 207.22 90.7602C208.037 90.7602 208.715 90.9267 209.256 91.2597C209.797 91.5927 210.201 92.0618 210.47 92.6669C210.742 93.2685 210.878 93.9793 210.878 94.7993ZM204.884 94.7993C204.884 95.4044 204.966 95.929 205.131 96.373C205.296 96.8134 205.548 97.1536 205.888 97.3935C206.232 97.6298 206.672 97.748 207.21 97.748C207.75 97.748 208.191 97.6298 208.531 97.3935C208.871 97.1536 209.122 96.8134 209.283 96.373C209.444 95.929 209.525 95.4044 209.525 94.7993C209.525 93.879 209.34 93.1593 208.971 92.6401C208.606 92.1173 208.022 91.8559 207.22 91.8559C206.683 91.8559 206.241 91.9741 205.894 92.2104C205.55 92.4467 205.296 92.7851 205.131 93.2255C204.966 93.6624 204.884 94.187 204.884 94.7993ZM213.843 98.7363H212.565V90.8837H217.001V91.9687H213.843V94.4179H216.797V95.4975H213.843V98.7363ZM219.708 98.7363H218.43V90.8837H222.866V91.9687H219.708V94.4179H222.662V95.4975H219.708V98.7363ZM233.705 98.7363H232.121L228.275 92.4682H228.227C228.241 92.6795 228.254 92.9033 228.264 93.1396C228.279 93.3759 228.289 93.6194 228.296 93.8701C228.307 94.1207 228.316 94.3749 228.323 94.6328V98.7363H227.152V90.8837H228.726L232.567 97.1088H232.604C232.597 96.9262 232.588 96.7167 232.577 96.4804C232.567 96.2441 232.556 96.0006 232.545 95.7499C232.538 95.4957 232.532 95.2504 232.529 95.0141V90.8837H233.705V98.7363ZM238.007 92.6777C238.537 92.6777 238.992 92.7869 239.372 93.0053C239.751 93.2237 240.043 93.5335 240.247 93.9345C240.451 94.3356 240.553 94.8154 240.553 95.374V96.0507H236.584C236.598 96.6272 236.752 97.0712 237.046 97.3828C237.343 97.6943 237.759 97.85 238.292 97.85C238.672 97.85 239.012 97.8142 239.313 97.7426C239.617 97.6674 239.93 97.5582 240.253 97.415V98.4409C239.955 98.5805 239.653 98.6826 239.345 98.747C239.037 98.8115 238.668 98.8437 238.238 98.8437C237.655 98.8437 237.141 98.7309 236.697 98.5053C236.256 98.2761 235.911 97.936 235.66 97.4848C235.413 97.0336 235.29 96.4732 235.29 95.8036C235.29 95.1376 235.402 94.5719 235.628 94.1064C235.854 93.6409 236.171 93.2864 236.579 93.0429C236.987 92.7994 237.463 92.6777 238.007 92.6777ZM238.007 93.6284C237.61 93.6284 237.288 93.7573 237.041 94.0151C236.797 94.2729 236.654 94.6507 236.611 95.1484H239.318C239.314 94.8512 239.264 94.588 239.168 94.3588C239.074 94.1297 238.931 93.9506 238.738 93.8217C238.548 93.6928 238.305 93.6284 238.007 93.6284ZM244.19 97.8232C244.354 97.8232 244.517 97.8089 244.678 97.7802C244.839 97.748 244.986 97.7104 245.119 97.6674V98.6235C244.979 98.6843 244.798 98.7363 244.576 98.7792C244.354 98.8222 244.123 98.8437 243.883 98.8437C243.547 98.8437 243.244 98.7882 242.976 98.6772C242.707 98.5626 242.494 98.3675 242.337 98.0917C242.179 97.816 242.1 97.4347 242.1 96.9477V93.7519H241.289V93.1879L242.159 92.7421L242.573 91.4692H243.368V92.7905H245.07V93.7519H243.368V96.9316C243.368 97.2324 243.443 97.4562 243.593 97.603C243.744 97.7498 243.942 97.8232 244.19 97.8232Z" fill="#303030"/>
<path d="M234.674 38.8946H232.311C232.31 37.9547 231.936 37.0534 231.271 36.3888C230.607 35.7241 229.706 35.3503 228.766 35.3493V32.9858C230.332 32.9877 231.834 33.6108 232.942 34.7185C234.049 35.8263 234.673 37.3281 234.674 38.8946Z" fill="#303030"/>
<path d="M239.402 38.8946H237.039C237.036 36.7014 236.164 34.5987 234.613 33.0479C233.062 31.4971 230.96 30.6247 228.766 30.6222V28.2587C231.586 28.2618 234.29 29.3834 236.284 31.3773C238.278 33.3713 239.399 36.0747 239.402 38.8946ZM237.039 57.8029H236.838C213.616 56.4675 210.319 36.8738 209.858 30.894C209.786 29.9566 210.089 29.0289 210.701 28.3151C211.313 27.6012 212.184 27.1597 213.121 27.0875C213.215 27.0805 213.309 27.0769 213.403 27.0769H219.631C220.105 27.0764 220.567 27.2181 220.959 27.4836C221.351 27.7491 221.654 28.1262 221.829 28.5659L223.626 32.9857C223.799 33.4154 223.842 33.8863 223.749 34.3402C223.657 34.794 223.433 35.2106 223.106 35.5384L220.589 38.0792C220.98 40.3143 222.05 42.3749 223.652 43.9815C225.254 45.5882 227.312 46.6631 229.546 47.0606L232.111 44.5198C232.443 44.1962 232.864 43.9777 233.32 43.8915C233.776 43.8053 234.247 43.8553 234.675 44.0353L239.13 45.8197C239.564 46.0004 239.933 46.3059 240.192 46.6974C240.451 47.0889 240.587 47.5485 240.584 48.0178V54.2576C240.584 55.1978 240.211 56.0996 239.546 56.7645C238.881 57.4293 237.979 57.8029 237.039 57.8029ZM213.403 29.4404C213.248 29.44 213.094 29.4701 212.951 29.529C212.807 29.588 212.677 29.6747 212.567 29.7841C212.457 29.8935 212.369 30.0235 212.309 30.1667C212.25 30.3099 212.219 30.4635 212.218 30.6187C212.218 30.6518 212.219 30.6844 212.222 30.7167C212.765 37.7128 216.251 54.2576 236.968 55.4393C237.281 55.4581 237.588 55.3518 237.823 55.1439C238.057 54.9361 238.199 54.6436 238.218 54.3308L238.221 54.2576V48.0178L233.765 46.2334L230.374 49.6014L229.806 49.5305C219.525 48.2424 218.13 37.961 218.13 37.8546L218.06 37.2874L221.416 33.8957L219.643 29.4404H213.403Z" fill="#303030"/>
<g filter="url(#filter3_d_316_1651)">
<rect x="462.771" y="6" width="130.978" height="130.978" rx="15" fill="white"/>
</g>
<path d="M519.356 84.7363H517.42V75.456H522.739V77.0683H519.356V79.4614H522.504V81.0673H519.356V84.7363ZM527.417 75.3227C527.916 75.3227 528.361 75.401 528.75 75.5576C529.139 75.7141 529.446 75.9426 529.671 76.2431C529.899 76.5436 530.013 76.9096 530.013 77.3412C530.013 77.9379 529.836 78.4394 529.48 78.8456C529.129 79.2519 528.689 79.6074 528.16 79.912L529.963 81.6703C530.14 81.3784 530.29 81.0694 530.413 80.7436C530.54 80.4177 530.65 80.0898 530.743 79.7597H532.762C532.631 80.2464 532.438 80.7669 532.184 81.3212C531.935 81.8714 531.615 82.3898 531.226 82.8764L533.136 84.7363H530.743L530.013 84.019C529.764 84.1925 529.495 84.3427 529.207 84.4697C528.924 84.5966 528.619 84.6939 528.293 84.7617C527.971 84.8294 527.631 84.8632 527.271 84.8632C526.569 84.8632 525.966 84.7532 525.462 84.5331C524.958 84.3131 524.573 84.0063 524.307 83.6127C524.04 83.2149 523.907 82.7537 523.907 82.2289C523.907 81.7888 523.975 81.4122 524.11 81.0991C524.245 80.7817 524.44 80.5045 524.694 80.2675C524.948 80.0263 525.253 79.8041 525.608 79.601C525.384 79.3386 525.204 79.0932 525.068 78.8647C524.937 78.6362 524.842 78.4098 524.783 78.1855C524.728 77.957 524.7 77.7179 524.7 77.4682C524.7 77.0281 524.815 76.6494 525.043 76.332C525.276 76.0104 525.595 75.7628 526.002 75.5893C526.412 75.4116 526.884 75.3227 527.417 75.3227ZM526.738 80.7563C526.577 80.879 526.435 81.006 526.313 81.1371C526.194 81.2683 526.103 81.408 526.04 81.5561C525.976 81.7042 525.944 81.8671 525.944 82.0449C525.944 82.4173 526.084 82.7092 526.363 82.9208C526.643 83.1324 526.99 83.2382 527.404 83.2382C527.684 83.2382 527.944 83.2044 528.185 83.1367C528.426 83.0689 528.646 82.9737 528.845 82.851L526.738 80.7563ZM527.404 76.8207C527.189 76.8207 526.981 76.8758 526.782 76.9858C526.588 77.0958 526.49 77.301 526.49 77.6015C526.49 77.8131 526.545 78.0204 526.655 78.2236C526.765 78.4225 526.911 78.6256 527.093 78.8329C527.457 78.6341 527.737 78.4352 527.931 78.2363C528.126 78.0331 528.223 77.8025 528.223 77.5444C528.223 77.2862 528.134 77.1022 527.957 76.9921C527.783 76.8779 527.599 76.8207 527.404 76.8207ZM536.24 84.7363H534.304V75.456H539.624V77.0683H536.24V79.4614H539.389V81.0673H536.24V84.7363Z" fill="#00612E"/>
<path d="M507.384 98.7363L506.616 96.5556H503.613L502.845 98.7363H501.486L504.408 90.8515H505.837L508.754 98.7363H507.384ZM506.283 95.4492L505.536 93.3007C505.508 93.2076 505.466 93.0769 505.413 92.9086C505.359 92.7368 505.305 92.5631 505.252 92.3876C505.198 92.2086 505.153 92.0582 505.117 91.9365C505.081 92.0833 505.037 92.248 504.983 92.4306C504.933 92.6096 504.883 92.7779 504.833 92.9355C504.786 93.093 504.75 93.2148 504.725 93.3007L503.973 95.4492H506.283ZM512.057 98.8437C511.495 98.8437 511.008 98.7345 510.596 98.5161C510.184 98.2976 509.867 97.9628 509.645 97.5117C509.423 97.0605 509.312 96.4876 509.312 95.7929C509.312 95.0696 509.434 94.4788 509.677 94.0204C509.921 93.5621 510.257 93.2237 510.687 93.0053C511.12 92.7869 511.616 92.6777 512.175 92.6777C512.529 92.6777 512.85 92.7135 513.136 92.7851C513.426 92.8531 513.672 92.9373 513.872 93.0375L513.496 94.0473C513.278 93.9578 513.054 93.8826 512.825 93.8217C512.596 93.7608 512.375 93.7304 512.164 93.7304C511.817 93.7304 511.527 93.8074 511.294 93.9614C511.065 94.1153 510.893 94.3445 510.778 94.6489C510.667 94.9532 510.612 95.331 510.612 95.7822C510.612 96.219 510.669 96.5878 510.784 96.8886C510.898 97.1858 511.068 97.4114 511.294 97.5654C511.52 97.7158 511.797 97.791 512.127 97.791C512.452 97.791 512.744 97.7516 513.002 97.6728C513.26 97.594 513.503 97.492 513.733 97.3666V98.4623C513.507 98.5912 513.265 98.6861 513.007 98.747C512.75 98.8115 512.433 98.8437 512.057 98.8437ZM517.342 97.8232C517.507 97.8232 517.67 97.8089 517.831 97.7802C517.992 97.748 518.139 97.7104 518.271 97.6674V98.6235C518.131 98.6843 517.951 98.7363 517.729 98.7792C517.507 98.8222 517.276 98.8437 517.036 98.8437C516.699 98.8437 516.397 98.7882 516.128 98.6772C515.859 98.5626 515.646 98.3675 515.489 98.0917C515.331 97.816 515.253 97.4347 515.253 96.9477V93.7519H514.442V93.1879L515.312 92.7421L515.725 91.4692H516.52V92.7905H518.223V93.7519H516.52V96.9316C516.52 97.2324 516.595 97.4562 516.746 97.603C516.896 97.7498 517.095 97.8232 517.342 97.8232ZM520.742 92.7905V98.7363H519.48V92.7905H520.742ZM520.119 90.5131C520.312 90.5131 520.479 90.565 520.618 90.6689C520.761 90.7727 520.833 90.9518 520.833 91.206C520.833 91.4566 520.761 91.6357 520.618 91.7431C520.479 91.8469 520.312 91.8989 520.119 91.8989C519.918 91.8989 519.748 91.8469 519.609 91.7431C519.472 91.6357 519.404 91.4566 519.404 91.206C519.404 90.9518 519.472 90.7727 519.609 90.6689C519.748 90.565 519.918 90.5131 520.119 90.5131ZM523.911 98.7363L521.65 92.7905H522.987L524.212 96.2817C524.29 96.5037 524.362 96.7436 524.426 97.0014C524.491 97.2592 524.536 97.4759 524.561 97.6513H524.604C524.629 97.4687 524.677 97.2503 524.749 96.996C524.82 96.7382 524.894 96.5001 524.969 96.2817L526.193 92.7905H527.525L525.264 98.7363H523.911ZM530.759 92.6777C531.511 92.6777 532.078 92.8442 532.462 93.1772C532.848 93.5102 533.042 94.0294 533.042 94.7348V98.7363H532.145L531.903 97.893H531.86C531.692 98.1078 531.518 98.2851 531.339 98.4247C531.16 98.5644 530.952 98.6682 530.716 98.7363C530.483 98.8079 530.199 98.8437 529.862 98.8437C529.507 98.8437 529.191 98.7792 528.911 98.6503C528.632 98.5178 528.412 98.3173 528.251 98.0488C528.089 97.7802 528.009 97.44 528.009 97.0283C528.009 96.416 528.236 95.9558 528.691 95.6479C529.149 95.3399 529.84 95.1699 530.764 95.1376L531.796 95.1V94.7885C531.796 94.3767 531.699 94.0831 531.505 93.9077C531.316 93.7322 531.047 93.6445 530.7 93.6445C530.403 93.6445 530.114 93.6874 529.835 93.7734C529.556 93.8593 529.284 93.9649 529.019 94.0903L528.61 93.1987C528.9 93.0447 529.23 92.9194 529.599 92.8227C529.971 92.726 530.358 92.6777 530.759 92.6777ZM531.79 95.895L531.022 95.9218C530.392 95.9433 529.95 96.0507 529.695 96.2441C529.441 96.4374 529.314 96.7024 529.314 97.039C529.314 97.3326 529.402 97.5475 529.577 97.6835C529.753 97.816 529.984 97.8823 530.27 97.8823C530.707 97.8823 531.069 97.7587 531.355 97.5117C531.645 97.261 531.79 96.894 531.79 96.4106V95.895ZM537.022 97.8232C537.186 97.8232 537.349 97.8089 537.51 97.7802C537.671 97.748 537.818 97.7104 537.951 97.6674V98.6235C537.811 98.6843 537.63 98.7363 537.408 98.7792C537.186 98.8222 536.955 98.8437 536.715 98.8437C536.379 98.8437 536.076 98.7882 535.808 98.6772C535.539 98.5626 535.326 98.3675 535.169 98.0917C535.011 97.816 534.932 97.4347 534.932 96.9477V93.7519H534.121V93.1879L534.991 92.7421L535.405 91.4692H536.2V92.7905H537.902V93.7519H536.2V96.9316C536.2 97.2324 536.275 97.4562 536.425 97.603C536.576 97.7498 536.775 97.8232 537.022 97.8232ZM540.421 92.7905V98.7363H539.159V92.7905H540.421ZM539.798 90.5131C539.992 90.5131 540.158 90.565 540.298 90.6689C540.441 90.7727 540.513 90.9518 540.513 91.206C540.513 91.4566 540.441 91.6357 540.298 91.7431C540.158 91.8469 539.992 91.8989 539.798 91.8989C539.598 91.8989 539.428 91.8469 539.288 91.7431C539.152 91.6357 539.084 91.4566 539.084 91.206C539.084 90.9518 539.152 90.7727 539.288 90.6689C539.428 90.565 539.598 90.5131 539.798 90.5131ZM547.495 95.7499C547.495 96.2441 547.431 96.6827 547.302 97.0659C547.173 97.449 546.985 97.7731 546.738 98.038C546.491 98.2994 546.194 98.4999 545.846 98.6396C545.499 98.7757 545.107 98.8437 544.67 98.8437C544.262 98.8437 543.888 98.7757 543.547 98.6396C543.207 98.4999 542.912 98.2994 542.661 98.038C542.414 97.7731 542.223 97.449 542.087 97.0659C541.95 96.6827 541.882 96.2441 541.882 95.7499C541.882 95.0947 541.995 94.5397 542.221 94.0849C542.45 93.6266 542.776 93.2774 543.198 93.0375C543.621 92.7976 544.124 92.6777 544.708 92.6777C545.255 92.6777 545.739 92.7976 546.158 93.0375C546.577 93.2774 546.904 93.6266 547.141 94.0849C547.377 94.5432 547.495 95.0982 547.495 95.7499ZM543.182 95.7499C543.182 96.1832 543.234 96.5538 543.338 96.8618C543.445 97.1697 543.61 97.406 543.832 97.5707C544.054 97.7319 544.341 97.8124 544.692 97.8124C545.042 97.8124 545.329 97.7319 545.551 97.5707C545.773 97.406 545.936 97.1697 546.04 96.8618C546.143 96.5538 546.195 96.1832 546.195 95.7499C546.195 95.3167 546.143 94.9496 546.04 94.6489C545.936 94.3445 545.773 94.1135 545.551 93.956C545.329 93.7949 545.041 93.7143 544.686 93.7143C544.163 93.7143 543.782 93.8898 543.542 94.2407C543.302 94.5916 543.182 95.0947 543.182 95.7499ZM552.045 92.6777C552.714 92.6777 553.235 92.8513 553.608 93.1987C553.984 93.5424 554.171 94.0956 554.171 94.8583V98.7363H552.909V95.0947C552.909 94.6328 552.814 94.2872 552.625 94.058C552.435 93.8253 552.141 93.7089 551.744 93.7089C551.167 93.7089 550.766 93.8862 550.541 94.2407C550.319 94.5952 550.208 95.109 550.208 95.7822V98.7363H548.945V92.7905H549.928L550.106 93.5961H550.175C550.304 93.3884 550.464 93.2184 550.653 93.0859C550.847 92.9498 551.062 92.8478 551.298 92.7797C551.538 92.7117 551.787 92.6777 552.045 92.6777Z" fill="#303030"/>
<path d="M515.464 54.1758C514.636 54.1758 513.928 53.8812 513.338 53.2921C512.748 52.7019 512.453 51.9928 512.453 51.1648V33.0989C512.453 32.2709 512.748 31.5623 513.338 30.9731C513.928 30.383 514.636 30.0879 515.464 30.0879H542.563C543.391 30.0879 544.1 30.383 544.69 30.9731C545.279 31.5623 545.574 32.2709 545.574 33.0989V51.1648C545.574 51.9928 545.279 52.7019 544.69 53.2921C544.1 53.8812 543.391 54.1758 542.563 54.1758H515.464ZM515.464 51.1648H542.563V33.0989H515.464V51.1648ZM516.217 46.6483H518.099V41.3791L521.938 46.6483H523.744V37.6154H521.862V42.8846L518.099 37.6154H516.217V46.6483ZM525.25 46.6483H531.272V44.7665H527.508V43.1104H531.272V41.2285H527.508V39.4972H531.272V37.6154H525.25V46.6483ZM534.283 46.6483H540.305C540.731 46.6483 541.089 46.5038 541.377 46.2147C541.666 45.9267 541.81 45.5694 541.81 45.1428V37.6154H539.928V44.3901H538.272V39.1209H536.39V44.3901H534.659V37.6154H532.777V45.1428C532.777 45.5694 532.922 45.9267 533.211 46.2147C533.499 46.5038 533.856 46.6483 534.283 46.6483Z" fill="#303030"/>
<g filter="url(#filter4_d_316_1651)">
<rect x="614.824" y="6" width="130.978" height="130.978" rx="15" fill="white"/>
</g>
<path d="M661.859 84.7363H659.923V75.456H665.243V77.0683H661.859V79.4614H665.008V81.0673H661.859V84.7363ZM669.813 77.4936C670.765 77.4936 671.495 77.7009 672.003 78.1157C672.511 78.5304 672.765 79.1609 672.765 80.0073V84.7363H671.413L671.038 83.7714H670.987C670.784 84.0253 670.577 84.2327 670.365 84.3935C670.154 84.5543 669.91 84.6728 669.635 84.749C669.36 84.8251 669.026 84.8632 668.632 84.8632C668.213 84.8632 667.837 84.7828 667.503 84.622C667.172 84.4612 666.912 84.2158 666.722 83.8857C666.531 83.5514 666.436 83.1282 666.436 82.6161C666.436 81.8629 666.701 81.3085 667.23 80.9531C667.759 80.5934 668.552 80.3945 669.61 80.3564L670.841 80.3183V80.0073C670.841 79.6349 670.744 79.3619 670.549 79.1884C670.355 79.0149 670.084 78.9282 669.737 78.9282C669.394 78.9282 669.058 78.9768 668.728 79.0742C668.398 79.1715 668.067 79.2942 667.737 79.4423L667.096 78.1347C667.473 77.9358 667.894 77.7792 668.359 77.665C668.829 77.5507 669.314 77.4936 669.813 77.4936ZM670.841 81.4482L670.092 81.4736C669.466 81.4905 669.03 81.6026 668.785 81.81C668.544 82.0174 668.423 82.2903 668.423 82.6288C668.423 82.9251 668.51 83.1367 668.683 83.2636C668.857 83.3863 669.083 83.4477 669.362 83.4477C669.777 83.4477 670.126 83.325 670.41 83.0795C670.698 82.8341 670.841 82.485 670.841 82.0322V81.4482ZM683.099 77.5063C683.903 77.5063 684.51 77.7136 684.921 78.1284C685.335 78.5388 685.543 79.199 685.543 80.1088V84.7363H683.6V80.5912C683.6 80.0834 683.513 79.7005 683.34 79.4423C683.166 79.1842 682.898 79.0551 682.534 79.0551C682.022 79.0551 681.658 79.2392 681.442 79.6074C681.226 79.9713 681.118 80.4939 681.118 81.1752V84.7363H679.182V80.5912C679.182 80.2527 679.144 79.9692 679.068 79.7407C678.992 79.5121 678.875 79.3408 678.719 79.2265C678.562 79.1122 678.361 79.0551 678.116 79.0551C677.756 79.0551 677.473 79.1461 677.265 79.3281C677.062 79.5058 676.916 79.7703 676.827 80.1215C676.743 80.4685 676.7 80.8938 676.7 81.3974V84.7363H674.764V77.6396H676.243L676.504 78.5473H676.611C676.755 78.3019 676.935 78.103 677.151 77.9506C677.371 77.7983 677.612 77.6861 677.875 77.6142C678.137 77.5423 678.404 77.5063 678.674 77.5063C679.195 77.5063 679.635 77.5909 679.995 77.7602C680.359 77.9295 680.638 78.1918 680.833 78.5473H681.004C681.216 78.1834 681.514 77.9189 681.899 77.7538C682.288 77.5888 682.688 77.5063 683.099 77.5063ZM689.472 77.6396V84.7363H687.536V77.6396H689.472ZM688.507 74.8593C688.795 74.8593 689.042 74.927 689.25 75.0624C689.457 75.1936 689.561 75.4412 689.561 75.8051C689.561 76.1648 689.457 76.4145 689.25 76.5541C689.042 76.6896 688.795 76.7573 688.507 76.7573C688.215 76.7573 687.965 76.6896 687.758 76.5541C687.555 76.4145 687.453 76.1648 687.453 75.8051C687.453 75.4412 687.555 75.1936 687.758 75.0624C687.965 74.927 688.215 74.8593 688.507 74.8593ZM693.445 84.7363H691.509V74.8593H693.445V84.7363ZM694.467 77.6396H696.588L697.927 81.6323C697.969 81.7592 698.005 81.8883 698.035 82.0195C698.064 82.1507 698.09 82.2861 698.111 82.4257C698.132 82.5654 698.149 82.7114 698.162 82.8637H698.2C698.225 82.6352 698.259 82.4215 698.301 82.2226C698.348 82.0237 698.405 81.8269 698.473 81.6323L699.787 77.6396H701.862L698.86 85.644C698.678 86.1349 698.441 86.5432 698.149 86.8691C697.857 87.1992 697.521 87.4467 697.14 87.6118C696.763 87.7768 696.348 87.8593 695.896 87.8593C695.676 87.8593 695.485 87.8466 695.324 87.8212C695.164 87.8001 695.026 87.7768 694.912 87.7514V86.2153C695.001 86.2364 695.113 86.2555 695.248 86.2724C695.384 86.2893 695.525 86.2978 695.673 86.2978C695.944 86.2978 696.177 86.2407 696.372 86.1264C696.566 86.0121 696.729 85.8577 696.86 85.663C696.992 85.4726 697.095 85.2631 697.171 85.0346L697.286 84.6855L694.467 77.6396Z" fill="#00612E"/>
<path d="M661.755 90.8837C662.768 90.8837 663.508 91.0914 663.973 91.5068C664.439 91.9221 664.671 92.504 664.671 93.2524C664.671 93.5925 664.618 93.9166 664.51 94.2245C664.407 94.5289 664.235 94.7993 663.995 95.0356C663.755 95.2683 663.438 95.4527 663.044 95.5888C662.654 95.7249 662.172 95.7929 661.599 95.7929H660.761V98.7363H659.472V90.8837H661.755ZM661.669 91.9526H660.761V94.7187H661.465C661.87 94.7187 662.213 94.6721 662.496 94.579C662.779 94.4824 662.994 94.3302 663.141 94.1225C663.288 93.9148 663.361 93.6409 663.361 93.3007C663.361 92.846 663.223 92.5076 662.947 92.2856C662.675 92.0636 662.249 91.9526 661.669 91.9526ZM668.442 92.6777C669.194 92.6777 669.761 92.8442 670.145 93.1772C670.531 93.5102 670.725 94.0294 670.725 94.7348V98.7363H669.828L669.586 97.893H669.543C669.375 98.1078 669.201 98.2851 669.022 98.4247C668.843 98.5644 668.635 98.6682 668.399 98.7363C668.166 98.8079 667.882 98.8437 667.545 98.8437C667.191 98.8437 666.874 98.7792 666.594 98.6503C666.315 98.5178 666.095 98.3173 665.934 98.0488C665.773 97.7802 665.692 97.44 665.692 97.0283C665.692 96.416 665.919 95.9558 666.374 95.6479C666.832 95.3399 667.524 95.1699 668.447 95.1376L669.479 95.1V94.7885C669.479 94.3767 669.382 94.0831 669.189 93.9077C668.999 93.7322 668.73 93.6445 668.383 93.6445C668.086 93.6445 667.797 93.6874 667.518 93.7734C667.239 93.8593 666.967 93.9649 666.702 94.0903L666.294 93.1987C666.584 93.0447 666.913 92.9194 667.282 92.8227C667.654 92.726 668.041 92.6777 668.442 92.6777ZM669.473 95.895L668.705 95.9218C668.075 95.9433 667.633 96.0507 667.379 96.2441C667.124 96.4374 666.997 96.7024 666.997 97.039C666.997 97.3326 667.085 97.5475 667.26 97.6835C667.436 97.816 667.667 97.8823 667.953 97.8823C668.39 97.8823 668.752 97.7587 669.038 97.5117C669.328 97.261 669.473 96.894 669.473 96.4106V95.895ZM674.887 98.8437C674.325 98.8437 673.838 98.7345 673.426 98.5161C673.015 98.2976 672.698 97.9628 672.476 97.5117C672.254 97.0605 672.143 96.4876 672.143 95.7929C672.143 95.0696 672.264 94.4788 672.508 94.0204C672.751 93.5621 673.088 93.2237 673.518 93.0053C673.951 92.7869 674.447 92.6777 675.005 92.6777C675.36 92.6777 675.68 92.7135 675.967 92.7851C676.257 92.8531 676.502 92.9373 676.703 93.0375L676.327 94.0473C676.108 93.9578 675.885 93.8826 675.655 93.8217C675.426 93.7608 675.206 93.7304 674.995 93.7304C674.647 93.7304 674.357 93.8074 674.125 93.9614C673.895 94.1153 673.724 94.3445 673.609 94.6489C673.498 94.9532 673.442 95.331 673.442 95.7822C673.442 96.219 673.5 96.5878 673.614 96.8886C673.729 97.1858 673.899 97.4114 674.125 97.5654C674.35 97.7158 674.628 97.791 674.957 97.791C675.283 97.791 675.575 97.7516 675.833 97.6728C676.09 97.594 676.334 97.492 676.563 97.3666V98.4623C676.338 98.5912 676.096 98.6861 675.838 98.747C675.58 98.8115 675.263 98.8437 674.887 98.8437ZM679.222 90.3788V94.4179C679.222 94.6005 679.215 94.801 679.2 95.0195C679.186 95.2343 679.172 95.4366 679.157 95.6264H679.184C679.277 95.5011 679.388 95.3543 679.517 95.186C679.65 95.0177 679.775 94.8709 679.893 94.7455L681.709 92.7905H683.159L680.779 95.3471L683.315 98.7363H681.832L679.931 96.1259L679.222 96.7328V98.7363H677.96V90.3788H679.222ZM686.596 92.6777C687.348 92.6777 687.916 92.8442 688.299 93.1772C688.686 93.5102 688.879 94.0294 688.879 94.7348V98.7363H687.982L687.74 97.893H687.697C687.529 98.1078 687.355 98.2851 687.176 98.4247C686.997 98.5644 686.79 98.6682 686.553 98.7363C686.321 98.8079 686.036 98.8437 685.699 98.8437C685.345 98.8437 685.028 98.7792 684.749 98.6503C684.469 98.5178 684.249 98.3173 684.088 98.0488C683.927 97.7802 683.846 97.44 683.846 97.0283C683.846 96.416 684.074 95.9558 684.528 95.6479C684.987 95.3399 685.678 95.1699 686.602 95.1376L687.633 95.1V94.7885C687.633 94.3767 687.536 94.0831 687.343 93.9077C687.153 93.7322 686.885 93.6445 686.537 93.6445C686.24 93.6445 685.952 93.6874 685.672 93.7734C685.393 93.8593 685.121 93.9649 684.856 94.0903L684.448 93.1987C684.738 93.0447 685.067 92.9194 685.436 92.8227C685.809 92.726 686.195 92.6777 686.596 92.6777ZM687.628 95.895L686.859 95.9218C686.229 95.9433 685.787 96.0507 685.533 96.2441C685.279 96.4374 685.151 96.7024 685.151 97.039C685.151 97.3326 685.239 97.5475 685.415 97.6835C685.59 97.816 685.821 97.8823 686.108 97.8823C686.544 97.8823 686.906 97.7587 687.192 97.5117C687.483 97.261 687.628 96.894 687.628 96.4106V95.895ZM692.343 101.379C691.538 101.379 690.92 101.234 690.49 100.944C690.061 100.654 689.846 100.247 689.846 99.7245C689.846 99.3593 689.96 99.0496 690.19 98.7953C690.419 98.5447 690.746 98.371 691.172 98.2744C691.011 98.2027 690.872 98.0917 690.754 97.9413C690.639 97.7874 690.582 97.6173 690.582 97.4311C690.582 97.2091 690.644 97.0193 690.77 96.8618C690.895 96.7042 691.083 96.552 691.334 96.4052C691.022 96.2727 690.771 96.0579 690.582 95.7607C690.395 95.4599 690.302 95.1072 690.302 94.7026C690.302 94.2729 690.394 93.9077 690.576 93.6069C690.759 93.3025 691.026 93.0716 691.377 92.914C691.727 92.7529 692.152 92.6723 692.65 92.6723C692.757 92.6723 692.873 92.6795 692.999 92.6938C693.128 92.7045 693.246 92.7189 693.353 92.7368C693.464 92.7511 693.548 92.7672 693.606 92.7851H695.663V93.4887L694.653 93.6767C694.75 93.8128 694.827 93.9685 694.884 94.144C694.941 94.3159 694.97 94.5038 694.97 94.7079C694.97 95.3238 694.757 95.809 694.331 96.1635C693.908 96.5144 693.324 96.6899 692.58 96.6899C692.401 96.6827 692.227 96.6684 692.059 96.6469C691.93 96.7257 691.831 96.8134 691.763 96.9101C691.695 97.0032 691.661 97.1088 691.661 97.227C691.661 97.3237 691.695 97.4024 691.763 97.4633C691.831 97.5206 691.932 97.5636 692.064 97.5922C692.2 97.6209 692.365 97.6352 692.558 97.6352H693.584C694.236 97.6352 694.734 97.7731 695.077 98.0488C695.421 98.3245 695.593 98.7291 695.593 99.2626C695.593 99.9394 695.314 100.46 694.755 100.826C694.196 101.194 693.393 101.379 692.343 101.379ZM692.392 100.493C692.832 100.493 693.203 100.45 693.504 100.364C693.804 100.278 694.032 100.154 694.186 99.9931C694.34 99.8356 694.417 99.6476 694.417 99.4291C694.417 99.2358 694.368 99.0872 694.272 98.9833C694.175 98.8795 694.03 98.8079 693.837 98.7685C693.643 98.7291 693.403 98.7094 693.117 98.7094H692.182C691.949 98.7094 691.744 98.7452 691.565 98.8168C691.386 98.892 691.246 98.9995 691.146 99.1391C691.049 99.2787 691.001 99.447 691.001 99.644C691.001 99.9161 691.121 100.126 691.36 100.272C691.604 100.419 691.948 100.493 692.392 100.493ZM692.639 95.8627C693.008 95.8627 693.282 95.7625 693.461 95.562C693.64 95.3578 693.729 95.0714 693.729 94.7026C693.729 94.3015 693.636 94.0008 693.45 93.8002C693.267 93.5997 692.995 93.4995 692.633 93.4995C692.279 93.4995 692.009 93.6015 691.822 93.8056C691.64 94.0097 691.548 94.3123 691.548 94.7133C691.548 95.075 691.64 95.3578 691.822 95.562C692.009 95.7625 692.281 95.8627 692.639 95.8627ZM699.116 92.6777C699.646 92.6777 700.101 92.7869 700.481 93.0053C700.86 93.2237 701.152 93.5335 701.356 93.9345C701.56 94.3356 701.662 94.8154 701.662 95.374V96.0507H697.693C697.707 96.6272 697.861 97.0712 698.155 97.3828C698.452 97.6943 698.867 97.85 699.401 97.85C699.781 97.85 700.121 97.8142 700.421 97.7426C700.726 97.6674 701.039 97.5582 701.361 97.415V98.4409C701.064 98.5805 700.762 98.6826 700.454 98.747C700.146 98.8115 699.777 98.8437 699.347 98.8437C698.764 98.8437 698.25 98.7309 697.806 98.5053C697.365 98.2761 697.02 97.936 696.769 97.4848C696.522 97.0336 696.399 96.4732 696.399 95.8036C696.399 95.1376 696.511 94.5719 696.737 94.1064C696.963 93.6409 697.279 93.2864 697.688 93.0429C698.096 92.7994 698.572 92.6777 699.116 92.6777ZM699.116 93.6284C698.719 93.6284 698.397 93.7573 698.15 94.0151C697.906 94.2729 697.763 94.6507 697.72 95.1484H700.427C700.423 94.8512 700.373 94.588 700.276 94.3588C700.183 94.1297 700.04 93.9506 699.847 93.8217C699.657 93.6928 699.414 93.6284 699.116 93.6284Z" fill="#303030"/>
<path d="M693.488 52.8527C694.6 53.4173 695.52 54.2112 696.247 55.2344C696.973 56.2577 697.433 57.4103 697.626 58.6923H695.753C695.628 58.0219 695.395 57.3985 695.055 56.8222C694.714 56.2459 694.299 55.7519 693.811 55.3403C693.323 54.9286 692.772 54.5993 692.159 54.3523C691.546 54.1053 690.91 53.9877 690.251 53.9995C689.582 53.9995 688.946 54.1171 688.344 54.3523C687.742 54.5875 687.191 54.911 686.692 55.3226C686.192 55.7343 685.778 56.2341 685.448 56.8222C685.119 57.4103 684.886 58.0336 684.75 58.6923H682.877C683.058 57.422 683.512 56.2753 684.239 55.2521C684.966 54.2288 685.891 53.429 687.015 52.8527C686.368 52.3235 685.869 51.6825 685.517 50.9297C685.165 50.177 684.983 49.3772 684.971 48.5304C684.971 48.0011 685.04 47.4895 685.176 46.9955C685.312 46.5015 685.517 46.0369 685.789 45.6018C686.062 45.1666 686.385 44.7785 686.76 44.4374C687.135 44.0963 687.555 43.8081 688.02 43.5729C687.714 43.1142 687.362 42.7084 686.964 42.3556C686.567 42.0028 686.135 41.6911 685.67 41.4206C685.204 41.1501 684.716 40.956 684.205 40.8384C683.694 40.7208 683.166 40.6502 682.621 40.6267C681.713 40.6267 680.844 40.809 680.015 41.1736C679.186 41.5382 678.465 42.0733 677.852 42.779C678.125 43.5435 678.261 44.3315 678.261 45.1431C678.261 46.2251 678.028 47.2425 677.562 48.1952C677.097 49.1479 676.444 49.9476 675.604 50.5945C676.342 50.9826 677.006 51.459 677.597 52.0235C678.187 52.5881 678.698 53.2232 679.129 53.9289C679.561 54.6346 679.885 55.3873 680.1 56.1871C680.316 56.9869 680.43 57.8219 680.441 58.6923H678.261C678.261 57.7631 678.09 56.8869 677.75 56.0636C677.409 55.2403 676.944 54.5228 676.353 53.9113C675.763 53.2997 675.064 52.8116 674.258 52.4469C673.452 52.0823 672.606 51.9059 671.72 51.9177C670.812 51.9177 669.966 52.0941 669.183 52.4469C668.399 52.7998 667.707 53.282 667.105 53.8936C666.503 54.5052 666.032 55.2285 665.691 56.0636C665.35 56.8987 665.18 57.7749 665.18 58.6923H663C663 57.8337 663.114 57.0045 663.341 56.2047C663.568 55.405 663.891 54.6522 664.311 53.9465C664.732 53.2408 665.237 52.6057 665.827 52.0412C666.418 51.4766 667.088 50.9944 667.837 50.5945C666.997 49.9476 666.344 49.1479 665.878 48.1952C665.413 47.2425 665.18 46.2251 665.18 45.1431C665.18 44.2139 665.35 43.3377 665.691 42.5144C666.032 41.6911 666.497 40.9736 667.088 40.362C667.678 39.7504 668.371 39.2623 669.166 38.8977C669.96 38.5331 670.812 38.3567 671.72 38.3685C672.686 38.3685 673.6 38.5802 674.463 39.0036C675.326 39.427 676.075 40.0151 676.711 40.7678C677.006 40.4738 677.324 40.2091 677.665 39.9739C678.005 39.7387 678.363 39.5152 678.738 39.3035C677.897 38.6566 677.245 37.8568 676.779 36.9042C676.313 35.9515 676.081 34.9341 676.081 33.8521C676.081 32.9229 676.251 32.0467 676.592 31.2234C676.932 30.4001 677.398 29.6826 677.988 29.071C678.579 28.4594 679.271 27.9713 680.066 27.6067C680.861 27.2421 681.713 27.0657 682.621 27.0775C683.518 27.0775 684.364 27.2539 685.159 27.6067C685.954 27.9596 686.646 28.4418 687.237 29.0534C687.827 29.665 688.298 30.3883 688.65 31.2234C689.002 32.0584 689.173 32.9347 689.161 33.8521C689.161 34.9341 688.929 35.9515 688.463 36.9042C687.998 37.8568 687.345 38.6566 686.504 39.3035C687.299 39.7387 688.015 40.2679 688.65 40.8913C689.286 41.5147 689.826 42.238 690.268 43.0613C690.995 43.0613 691.676 43.2024 692.312 43.4847C692.948 43.767 693.51 44.161 693.999 44.6667C694.487 45.1725 694.861 45.7488 695.123 46.3957C695.384 47.0426 695.52 47.7541 695.531 48.5304C695.531 49.3772 695.355 50.177 695.003 50.9297C694.651 51.6825 694.146 52.3235 693.488 52.8527ZM671.72 49.6595C672.322 49.6595 672.884 49.5419 673.407 49.3066C673.929 49.0714 674.395 48.748 674.803 48.3363C675.212 47.9247 675.524 47.4483 675.74 46.9073C675.956 46.3663 676.069 45.7782 676.081 45.1431C676.081 44.5197 675.967 43.9375 675.74 43.3965C675.513 42.8555 675.201 42.3732 674.803 41.9498C674.406 41.5264 673.946 41.203 673.424 40.9795C672.901 40.756 672.334 40.6384 671.72 40.6267C671.119 40.6267 670.557 40.7443 670.034 40.9795C669.512 41.2147 669.046 41.5382 668.638 41.9498C668.229 42.3615 667.917 42.8378 667.701 43.3789C667.485 43.9199 667.372 44.508 667.36 45.1431C667.36 45.7664 667.474 46.3486 667.701 46.8897C667.928 47.4307 668.24 47.9129 668.638 48.3363C669.035 48.7597 669.495 49.0832 670.017 49.3066C670.54 49.5301 671.107 49.6477 671.72 49.6595ZM678.261 33.8521C678.261 34.4754 678.374 35.0576 678.601 35.5986C678.829 36.1397 679.141 36.6219 679.538 37.0453C679.936 37.4687 680.396 37.7922 680.918 38.0156C681.44 38.2391 682.008 38.3567 682.621 38.3685C683.223 38.3685 683.785 38.2509 684.307 38.0156C684.83 37.7804 685.295 37.457 685.704 37.0453C686.113 36.6336 686.425 36.1573 686.641 35.6163C686.856 35.0753 686.97 34.4872 686.981 33.8521C686.981 33.2287 686.868 32.6465 686.641 32.1055C686.414 31.5645 686.101 31.0822 685.704 30.6588C685.306 30.2354 684.847 29.912 684.324 29.6885C683.802 29.465 683.234 29.3474 682.621 29.3357C682.019 29.3357 681.457 29.4533 680.935 29.6885C680.413 29.9237 679.947 30.2472 679.538 30.6588C679.129 31.0705 678.817 31.5468 678.601 32.0878C678.386 32.6289 678.272 33.2169 678.261 33.8521ZM690.251 44.9667C689.775 44.9667 689.332 45.0607 688.923 45.2489C688.514 45.4371 688.151 45.69 687.833 46.0075C687.515 46.3251 687.265 46.7015 687.083 47.1366C686.902 47.5718 686.811 48.0364 686.811 48.5304C686.811 49.0244 686.902 49.4831 687.083 49.9065C687.265 50.3299 687.509 50.7062 687.816 51.0356C688.122 51.3649 688.486 51.6236 688.906 51.8118C689.326 52 689.775 52.0941 690.251 52.0941C690.728 52.0941 691.171 52 691.58 51.8118C691.989 51.6236 692.352 51.3708 692.67 51.0532C692.988 50.7357 693.238 50.3593 693.419 49.9241C693.601 49.4889 693.692 49.0244 693.692 48.5304C693.692 48.0364 693.601 47.5777 693.419 47.1543C693.238 46.7309 692.994 46.3545 692.687 46.0252C692.38 45.6959 692.017 45.4371 691.597 45.2489C691.177 45.0607 690.728 44.9667 690.251 44.9667Z" fill="#303030"/>
<g filter="url(#filter5_d_316_1651)">
<rect x="310.715" y="6" width="130.978" height="130.978" rx="15" fill="white"/>
</g>
<path d="M367.297 84.7363H365.361V75.456H370.68V77.0683H367.297V79.4614H370.445V81.0673H367.297V84.7363ZM375.359 75.3227C375.858 75.3227 376.302 75.401 376.692 75.5576C377.081 75.7141 377.388 75.9426 377.612 76.2431C377.84 76.5436 377.955 76.9096 377.955 77.3412C377.955 77.9379 377.777 78.4394 377.421 78.8456C377.07 79.2519 376.63 79.6074 376.101 79.912L377.904 81.6703C378.082 81.3784 378.232 81.0694 378.355 80.7436C378.482 80.4177 378.592 80.0898 378.685 79.7597H380.703C380.572 80.2464 380.379 80.7669 380.126 81.3212C379.876 81.8714 379.556 82.3898 379.167 82.8764L381.078 84.7363H378.685L377.955 84.019C377.705 84.1925 377.436 84.3427 377.149 84.4697C376.865 84.5966 376.56 84.6939 376.234 84.7617C375.913 84.8294 375.572 84.8632 375.213 84.8632C374.51 84.8632 373.907 84.7532 373.403 84.5331C372.9 84.3131 372.515 84.0063 372.248 83.6127C371.982 83.2149 371.848 82.7537 371.848 82.2289C371.848 81.7888 371.916 81.4122 372.051 81.0991C372.187 80.7817 372.381 80.5045 372.635 80.2675C372.889 80.0263 373.194 79.8041 373.549 79.601C373.325 79.3386 373.145 79.0932 373.01 78.8647C372.879 78.6362 372.783 78.4098 372.724 78.1855C372.669 77.957 372.642 77.7179 372.642 77.4682C372.642 77.0281 372.756 76.6494 372.984 76.332C373.217 76.0104 373.537 75.7628 373.943 75.5893C374.353 75.4116 374.825 75.3227 375.359 75.3227ZM374.679 80.7563C374.518 80.879 374.377 81.006 374.254 81.1371C374.136 81.2683 374.045 81.408 373.981 81.5561C373.918 81.7042 373.886 81.8671 373.886 82.0449C373.886 82.4173 374.025 82.7092 374.305 82.9208C374.584 83.1324 374.931 83.2382 375.346 83.2382C375.625 83.2382 375.885 83.2044 376.127 83.1367C376.368 83.0689 376.588 82.9737 376.787 82.851L374.679 80.7563ZM375.346 76.8207C375.13 76.8207 374.923 76.8758 374.724 76.9858C374.529 77.0958 374.432 77.301 374.432 77.6015C374.432 77.8131 374.487 78.0204 374.597 78.2236C374.707 78.4225 374.853 78.6256 375.035 78.8329C375.399 78.6341 375.678 78.4352 375.873 78.2363C376.067 78.0331 376.165 77.8025 376.165 77.5444C376.165 77.2862 376.076 77.1022 375.898 76.9921C375.725 76.8779 375.54 76.8207 375.346 76.8207ZM384.182 84.7363H382.246V75.456H387.565V77.0683H384.182V79.4614H387.33V81.0673H384.182V84.7363Z" fill="#00612E"/>
<path d="M355.325 98.7363L354.557 96.5556H351.555L350.787 98.7363H349.428L352.35 90.8515H353.778L356.695 98.7363H355.325ZM354.224 95.4492L353.478 93.3007C353.449 93.2076 353.408 93.0769 353.354 92.9086C353.3 92.7368 353.247 92.5631 353.193 92.3876C353.139 92.2086 353.095 92.0582 353.059 91.9365C353.023 92.0833 352.978 92.248 352.924 92.4306C352.874 92.6096 352.824 92.7779 352.774 92.9355C352.727 93.093 352.692 93.2148 352.667 93.3007L351.915 95.4492H354.224ZM359.998 98.8437C359.436 98.8437 358.949 98.7345 358.537 98.5161C358.125 98.2976 357.809 97.9628 357.587 97.5117C357.365 97.0605 357.254 96.4876 357.254 95.7929C357.254 95.0696 357.375 94.4788 357.619 94.0204C357.862 93.5621 358.199 93.2237 358.629 93.0053C359.062 92.7869 359.558 92.6777 360.116 92.6777C360.471 92.6777 360.791 92.7135 361.078 92.7851C361.368 92.8531 361.613 92.9373 361.814 93.0375L361.438 94.0473C361.219 93.9578 360.995 93.8826 360.766 93.8217C360.537 93.7608 360.317 93.7304 360.106 93.7304C359.758 93.7304 359.468 93.8074 359.235 93.9614C359.006 94.1153 358.834 94.3445 358.72 94.6489C358.609 94.9532 358.553 95.331 358.553 95.7822C358.553 96.219 358.611 96.5878 358.725 96.8886C358.84 97.1858 359.01 97.4114 359.235 97.5654C359.461 97.7158 359.739 97.791 360.068 97.791C360.394 97.791 360.686 97.7516 360.943 97.6728C361.201 97.594 361.445 97.492 361.674 97.3666V98.4623C361.448 98.5912 361.207 98.6861 360.949 98.747C360.691 98.8115 360.374 98.8437 359.998 98.8437ZM365.283 97.8232C365.448 97.8232 365.611 97.8089 365.772 97.7802C365.933 97.748 366.08 97.7104 366.213 97.6674V98.6235C366.073 98.6843 365.892 98.7363 365.67 98.7792C365.448 98.8222 365.217 98.8437 364.977 98.8437C364.641 98.8437 364.338 98.7882 364.069 98.6772C363.801 98.5626 363.588 98.3675 363.43 98.0917C363.273 97.816 363.194 97.4347 363.194 96.9477V93.7519H362.383V93.1879L363.253 92.7421L363.667 91.4692H364.462V92.7905H366.164V93.7519H364.462V96.9316C364.462 97.2324 364.537 97.4562 364.687 97.603C364.838 97.7498 365.036 97.8232 365.283 97.8232ZM368.683 92.7905V98.7363H367.421V92.7905H368.683ZM368.06 90.5131C368.254 90.5131 368.42 90.565 368.56 90.6689C368.703 90.7727 368.775 90.9518 368.775 91.206C368.775 91.4566 368.703 91.6357 368.56 91.7431C368.42 91.8469 368.254 91.8989 368.06 91.8989C367.86 91.8989 367.69 91.8469 367.55 91.7431C367.414 91.6357 367.346 91.4566 367.346 91.206C367.346 90.9518 367.414 90.7727 367.55 90.6689C367.69 90.565 367.86 90.5131 368.06 90.5131ZM371.852 98.7363L369.591 92.7905H370.928L372.153 96.2817C372.232 96.5037 372.303 96.7436 372.368 97.0014C372.432 97.2592 372.477 97.4759 372.502 97.6513H372.545C372.57 97.4687 372.618 97.2503 372.69 96.996C372.762 96.7382 372.835 96.5001 372.91 96.2817L374.135 92.7905H375.467L373.206 98.7363H371.852ZM378.7 92.6777C379.452 92.6777 380.02 92.8442 380.403 93.1772C380.79 93.5102 380.983 94.0294 380.983 94.7348V98.7363H380.086L379.844 97.893H379.801C379.633 98.1078 379.459 98.2851 379.28 98.4247C379.101 98.5644 378.894 98.6682 378.657 98.7363C378.425 98.8079 378.14 98.8437 377.803 98.8437C377.449 98.8437 377.132 98.7792 376.853 98.6503C376.573 98.5178 376.353 98.3173 376.192 98.0488C376.031 97.7802 375.95 97.44 375.95 97.0283C375.95 96.416 376.178 95.9558 376.632 95.6479C377.091 95.3399 377.782 95.1699 378.706 95.1376L379.737 95.1V94.7885C379.737 94.3767 379.64 94.0831 379.447 93.9077C379.257 93.7322 378.989 93.6445 378.641 93.6445C378.344 93.6445 378.056 93.6874 377.776 93.7734C377.497 93.8593 377.225 93.9649 376.96 94.0903L376.552 93.1987C376.842 93.0447 377.171 92.9194 377.54 92.8227C377.913 92.726 378.299 92.6777 378.7 92.6777ZM379.732 95.895L378.963 95.9218C378.333 95.9433 377.891 96.0507 377.637 96.2441C377.383 96.4374 377.255 96.7024 377.255 97.039C377.255 97.3326 377.343 97.5475 377.519 97.6835C377.694 97.816 377.925 97.8823 378.212 97.8823C378.648 97.8823 379.01 97.7587 379.296 97.5117C379.587 97.261 379.732 96.894 379.732 96.4106V95.895ZM384.963 97.8232C385.128 97.8232 385.291 97.8089 385.452 97.7802C385.613 97.748 385.76 97.7104 385.892 97.6674V98.6235C385.753 98.6843 385.572 98.7363 385.35 98.7792C385.128 98.8222 384.897 98.8437 384.657 98.8437C384.32 98.8437 384.018 98.7882 383.749 98.6772C383.481 98.5626 383.268 98.3675 383.11 98.0917C382.952 97.816 382.874 97.4347 382.874 96.9477V93.7519H382.063V93.1879L382.933 92.7421L383.346 91.4692H384.141V92.7905H385.844V93.7519H384.141V96.9316C384.141 97.2324 384.216 97.4562 384.367 97.603C384.517 97.7498 384.716 97.8232 384.963 97.8232ZM388.363 92.7905V98.7363H387.101V92.7905H388.363ZM387.74 90.5131C387.933 90.5131 388.1 90.565 388.239 90.6689C388.383 90.7727 388.454 90.9518 388.454 91.206C388.454 91.4566 388.383 91.6357 388.239 91.7431C388.1 91.8469 387.933 91.8989 387.74 91.8989C387.539 91.8989 387.369 91.8469 387.23 91.7431C387.094 91.6357 387.025 91.4566 387.025 91.206C387.025 90.9518 387.094 90.7727 387.23 90.6689C387.369 90.565 387.539 90.5131 387.74 90.5131ZM395.437 95.7499C395.437 96.2441 395.372 96.6827 395.243 97.0659C395.114 97.449 394.926 97.7731 394.679 98.038C394.432 98.2994 394.135 98.4999 393.788 98.6396C393.44 98.7757 393.048 98.8437 392.611 98.8437C392.203 98.8437 391.829 98.7757 391.489 98.6396C391.149 98.4999 390.853 98.2994 390.603 98.038C390.356 97.7731 390.164 97.449 390.028 97.0659C389.892 96.6827 389.824 96.2441 389.824 95.7499C389.824 95.0947 389.937 94.5397 390.162 94.0849C390.391 93.6266 390.717 93.2774 391.14 93.0375C391.562 92.7976 392.065 92.6777 392.649 92.6777C393.197 92.6777 393.68 92.7976 394.099 93.0375C394.518 93.2774 394.846 93.6266 395.082 94.0849C395.318 94.5432 395.437 95.0982 395.437 95.7499ZM391.124 95.7499C391.124 96.1832 391.176 96.5538 391.279 96.8618C391.387 97.1697 391.552 97.406 391.774 97.5707C391.996 97.7319 392.282 97.8124 392.633 97.8124C392.984 97.8124 393.27 97.7319 393.492 97.5707C393.714 97.406 393.877 97.1697 393.981 96.8618C394.085 96.5538 394.137 96.1832 394.137 95.7499C394.137 95.3167 394.085 94.9496 393.981 94.6489C393.877 94.3445 393.714 94.1135 393.492 93.956C393.27 93.7949 392.982 93.7143 392.628 93.7143C392.105 93.7143 391.723 93.8898 391.484 94.2407C391.244 94.5916 391.124 95.0947 391.124 95.7499ZM399.986 92.6777C400.656 92.6777 401.177 92.8513 401.549 93.1987C401.925 93.5424 402.113 94.0956 402.113 94.8583V98.7363H400.851V95.0947C400.851 94.6328 400.756 94.2872 400.566 94.058C400.376 93.8253 400.083 93.7089 399.685 93.7089C399.109 93.7089 398.708 93.8862 398.482 94.2407C398.26 94.5952 398.149 95.109 398.149 95.7822V98.7363H396.887V92.7905H397.87L398.047 93.5961H398.117C398.246 93.3884 398.405 93.2184 398.595 93.0859C398.788 92.9498 399.003 92.8478 399.239 92.7797C399.479 92.7117 399.728 92.6777 399.986 92.6777Z" fill="#303030"/>
<path d="M376.644 24.0659C373.369 24.0659 370.167 25.0372 367.444 26.8569C364.721 28.6765 362.598 31.2629 361.345 34.2889C360.091 37.315 359.763 40.6447 360.402 43.8571C361.041 47.0695 362.618 50.0203 364.934 52.3363C367.25 54.6524 370.201 56.2296 373.414 56.8686C376.626 57.5076 379.956 57.1796 382.982 55.9262C386.008 54.6728 388.594 52.5502 390.414 49.8268C392.234 47.1035 393.205 43.9017 393.205 40.6264C393.196 36.2368 391.449 32.0295 388.345 28.9257C385.241 25.8218 381.034 24.0743 376.644 24.0659ZM376.644 54.639C373.873 54.639 371.164 53.8172 368.859 52.2775C366.555 50.7377 364.759 48.5493 363.698 45.9888C362.638 43.4283 362.36 40.6108 362.901 37.8926C363.442 35.1744 364.776 32.6776 366.736 30.7179C368.696 28.7582 371.192 27.4236 373.911 26.8829C376.629 26.3422 379.446 26.6197 382.007 27.6803C384.567 28.7409 386.756 30.537 388.296 32.8413C389.835 35.1457 390.657 37.8549 390.657 40.6264C390.653 44.3414 389.175 47.9032 386.548 50.5302C383.921 53.1571 380.36 54.6348 376.644 54.639Z" fill="#303030"/>
<path d="M375.587 35.1845L376.019 32.5211H379.534C379.757 32.5211 379.971 32.4321 380.129 32.2735C380.287 32.1149 380.375 31.8999 380.375 31.6756C380.375 31.4514 380.287 31.2363 380.129 31.0778C379.971 30.9192 379.757 30.8301 379.534 30.8301H375.303C375.103 30.83 374.91 30.9011 374.758 31.0308C374.606 31.1605 374.504 31.3404 374.472 31.5382L373.651 36.6325C373.622 36.8084 373.65 36.9889 373.729 37.1483C373.809 37.3076 373.937 37.4376 374.094 37.5196C374.252 37.6017 374.431 37.6316 374.607 37.6052C374.782 37.5787 374.945 37.4972 375.072 37.3723C375.269 37.1737 375.504 37.0163 375.762 36.9093C376.02 36.8023 376.297 36.7477 376.576 36.7487C376.854 36.7479 377.129 36.8027 377.386 36.9097C377.643 37.0168 377.875 37.174 378.071 37.3723C378.267 37.567 378.424 37.799 378.53 38.0548C378.637 38.3107 378.692 38.5852 378.692 38.8625C378.692 39.1399 378.637 39.4144 378.53 39.6702C378.424 39.9261 378.267 40.1581 378.071 40.3528C377.875 40.5511 377.643 40.7083 377.386 40.8154C377.129 40.9224 376.854 40.9771 376.576 40.9763C376.297 40.9774 376.02 40.9228 375.762 40.8158C375.504 40.7087 375.269 40.5514 375.072 40.3528C374.994 40.2687 374.901 40.2012 374.797 40.1545C374.693 40.1078 374.58 40.0828 374.466 40.0811C374.352 40.0793 374.239 40.1008 374.134 40.1443C374.028 40.1878 373.933 40.2523 373.853 40.3339C373.773 40.4156 373.71 40.5127 373.669 40.6194C373.627 40.726 373.608 40.84 373.612 40.9545C373.616 41.0689 373.642 41.1813 373.691 41.285C373.739 41.3887 373.808 41.4814 373.893 41.5576C374.334 41.9988 374.876 42.3242 375.472 42.5049C376.068 42.6856 376.699 42.7161 377.309 42.5937C377.919 42.4714 378.49 42.1999 378.971 41.8033C379.452 41.4067 379.828 40.8972 380.067 40.3198C380.305 39.7425 380.398 39.115 380.338 38.4929C380.277 37.8709 380.065 37.2733 379.72 36.7531C379.375 36.2329 378.908 35.8061 378.359 35.5104C377.811 35.2147 377.199 35.0592 376.576 35.0577C376.243 35.0576 375.91 35.1002 375.587 35.1845Z" fill="#303030"/>
<path d="M371.485 47.8674C371.485 48.1348 371.428 48.3887 371.313 48.6292C371.198 48.8674 371.018 49.0607 370.775 49.209C370.533 49.3573 370.22 49.4314 369.837 49.4314C369.645 49.4314 369.476 49.4213 369.33 49.4011C369.186 49.3809 369.052 49.3483 368.928 49.3034C368.803 49.2562 368.673 49.1955 368.539 49.1213V47.9348C368.767 48.0696 368.998 48.173 369.23 48.2449C369.462 48.3146 369.672 48.3494 369.86 48.3494C369.973 48.3494 370.065 48.3337 370.136 48.3022C370.209 48.2708 370.263 48.2281 370.297 48.1741C370.332 48.1179 370.349 48.0539 370.349 47.982C370.349 47.8966 370.323 47.8247 370.271 47.7663C370.221 47.7056 370.141 47.6427 370.03 47.5775C369.918 47.5123 369.772 47.4314 369.589 47.3348C369.434 47.2494 369.293 47.1617 369.166 47.0719C369.042 46.982 368.934 46.8797 368.844 46.7651C368.756 46.6483 368.688 46.5123 368.64 46.3572C368.592 46.2022 368.568 46.019 368.568 45.8078C368.568 45.4909 368.634 45.2258 368.766 45.0123C368.901 44.7965 369.087 44.6347 369.325 44.5269C369.564 44.419 369.841 44.3651 370.153 44.3651C370.428 44.3651 370.674 44.401 370.893 44.4729C371.113 44.5449 371.311 44.6269 371.485 44.719L371.137 45.7471C370.957 45.6505 370.78 45.5741 370.605 45.5179C370.43 45.4595 370.268 45.4303 370.119 45.4303C370.021 45.4303 369.94 45.4449 369.877 45.4741C369.816 45.5011 369.77 45.5381 369.739 45.5853C369.71 45.6325 369.696 45.6864 369.696 45.7471C369.696 45.8235 369.721 45.8921 369.771 45.9527C369.822 46.0134 369.908 46.0797 370.027 46.1516C370.148 46.2213 370.312 46.3123 370.519 46.4247C370.724 46.5325 370.899 46.6494 371.042 46.7752C371.186 46.8988 371.296 47.0483 371.37 47.2235C371.447 47.3966 371.485 47.6112 371.485 47.8674Z" fill="#303030"/>
<path d="M374.009 45.4572C373.875 45.4572 373.755 45.4909 373.649 45.5584C373.544 45.6235 373.454 45.719 373.379 45.8449C373.304 45.9707 373.246 46.1247 373.206 46.3067C373.168 46.4865 373.149 46.691 373.149 46.9202C373.149 47.2303 373.182 47.491 373.249 47.7022C373.316 47.9134 373.418 48.073 373.554 48.1809C373.692 48.2887 373.865 48.3427 374.072 48.3427C374.26 48.3427 374.441 48.3123 374.613 48.2517C374.788 48.191 374.963 48.1179 375.14 48.0325V49.1584C374.954 49.255 374.763 49.3247 374.567 49.3674C374.373 49.4101 374.167 49.4314 373.949 49.4314C373.492 49.4314 373.118 49.3258 372.826 49.1146C372.537 48.9011 372.323 48.6056 372.185 48.2281C372.049 47.8505 371.98 47.4123 371.98 46.9134C371.98 46.5404 372.025 46.1988 372.113 45.8887C372.203 45.5786 372.334 45.31 372.507 45.0831C372.68 44.8539 372.893 44.6774 373.146 44.5538C373.401 44.428 373.692 44.3651 374.02 44.3651C374.224 44.3651 374.438 44.3932 374.662 44.4493C374.888 44.5033 375.109 44.5909 375.324 44.7123L374.976 45.7606C374.822 45.6752 374.667 45.6033 374.51 45.5449C374.352 45.4864 374.185 45.4572 374.009 45.4572Z" fill="#303030"/>
<path d="M379.899 46.8932C379.899 47.273 379.86 47.6191 379.781 47.9314C379.704 48.2415 379.583 48.509 379.418 48.7337C379.253 48.9584 379.041 49.1314 378.783 49.2528C378.524 49.3719 378.214 49.4314 377.853 49.4314C377.5 49.4314 377.194 49.3719 376.935 49.2528C376.678 49.1314 376.466 48.9595 376.299 48.7371C376.132 48.5123 376.009 48.2438 375.928 47.9314C375.848 47.6191 375.807 47.2707 375.807 46.8865C375.807 46.3741 375.879 45.9291 376.023 45.5516C376.169 45.1718 376.393 44.8786 376.696 44.6718C377 44.4628 377.387 44.3583 377.859 44.3583C378.338 44.3583 378.728 44.4628 379.027 44.6718C379.328 44.8808 379.549 45.1752 379.689 45.555C379.829 45.9348 379.899 46.3808 379.899 46.8932ZM377.004 46.8932C377.004 47.1898 377.033 47.4449 377.091 47.6584C377.148 47.8719 377.239 48.0359 377.364 48.1505C377.489 48.2651 377.652 48.3224 377.853 48.3224C378.062 48.3224 378.228 48.2651 378.351 48.1505C378.476 48.0359 378.565 47.8719 378.619 47.6584C378.674 47.4449 378.702 47.1898 378.702 46.8932C378.702 46.4483 378.639 46.0966 378.512 45.8381C378.385 45.5797 378.168 45.4505 377.859 45.4505C377.654 45.4505 377.488 45.5089 377.361 45.6258C377.236 45.7426 377.145 45.9089 377.088 46.1247C377.032 46.3404 377.004 46.5966 377.004 46.8932Z" fill="#303030"/>
<path d="M382.491 49.364L381.631 45.8145H381.605C381.613 45.9067 381.621 46.0314 381.628 46.1887C381.638 46.346 381.646 46.5157 381.654 46.6977C381.662 46.8797 381.666 47.055 381.666 47.2235V49.364H380.659V44.4359H382.172L383.05 47.9348H383.073L383.933 44.4359H385.449V49.364H384.405V47.2033C384.405 47.0483 384.407 46.882 384.411 46.7044C384.416 46.5247 384.422 46.3561 384.428 46.1988C384.436 46.0393 384.442 45.9134 384.448 45.8213H384.422L383.573 49.364H382.491Z" fill="#303030"/>
<g filter="url(#filter6_d_316_1651)">
<rect x="918.936" y="6" width="130.978" height="130.978" rx="15" fill="white"/>
</g>
<path d="M977.779 82.1591C977.779 82.7092 977.646 83.1874 977.379 83.5937C977.113 83.9999 976.723 84.3131 976.211 84.5331C975.703 84.7532 975.086 84.8632 974.358 84.8632C974.036 84.8632 973.721 84.8421 973.412 84.7997C973.107 84.7574 972.813 84.6961 972.53 84.6157C972.25 84.531 971.984 84.4273 971.73 84.3046V82.4765C972.17 82.6712 972.627 82.8468 973.101 83.0034C973.575 83.1599 974.045 83.2382 974.51 83.2382C974.832 83.2382 975.09 83.1959 975.285 83.1113C975.483 83.0266 975.627 82.9103 975.716 82.7621C975.805 82.614 975.849 82.4448 975.849 82.2543C975.849 82.0216 975.771 81.8227 975.615 81.6577C975.458 81.4926 975.242 81.3382 974.967 81.1943C974.696 81.0504 974.39 80.8959 974.047 80.7309C973.831 80.6293 973.596 80.5066 973.342 80.3627C973.088 80.2146 972.847 80.0348 972.619 79.8232C972.39 79.6116 972.202 79.3556 972.054 79.0551C971.91 78.7504 971.838 78.3865 971.838 77.9633C971.838 77.409 971.965 76.935 972.219 76.5414C972.473 76.1479 972.834 75.8474 973.304 75.6401C973.778 75.4285 974.337 75.3227 974.98 75.3227C975.462 75.3227 975.921 75.3798 976.357 75.4941C976.797 75.6041 977.257 75.7649 977.735 75.9765L977.1 77.5063C976.673 77.3328 976.29 77.1995 975.951 77.1064C975.612 77.0091 975.268 76.9604 974.916 76.9604C974.671 76.9604 974.461 77.0006 974.288 77.081C974.114 77.1572 973.983 77.2672 973.894 77.4111C973.806 77.5507 973.761 77.7136 973.761 77.8998C973.761 78.1199 973.825 78.3061 973.952 78.4584C974.083 78.6065 974.277 78.7504 974.536 78.8901C974.798 79.0297 975.124 79.1926 975.513 79.3788C975.987 79.6031 976.391 79.838 976.725 80.0834C977.064 80.3246 977.324 80.6103 977.506 80.9404C977.688 81.2662 977.779 81.6725 977.779 82.1591ZM983.39 84.7363L981.156 77.4555H981.099C981.107 77.629 981.12 77.8914 981.137 78.2426C981.158 78.5896 981.177 78.9599 981.194 79.3535C981.211 79.747 981.22 80.1025 981.22 80.4199V84.7363H979.461V75.456H982.14L984.336 82.5527H984.374L986.704 75.456H989.383V84.7363H987.548V80.3437C987.548 80.0517 987.552 79.7153 987.561 79.3344C987.574 78.9536 987.588 78.5917 987.605 78.249C987.622 77.902 987.635 77.6417 987.643 77.4682H987.586L985.193 84.7363H983.39ZM997.203 82.1591C997.203 82.7092 997.07 83.1874 996.803 83.5937C996.536 83.9999 996.147 84.3131 995.635 84.5331C995.127 84.7532 994.509 84.8632 993.782 84.8632C993.46 84.8632 993.145 84.8421 992.836 84.7997C992.531 84.7574 992.237 84.6961 991.953 84.6157C991.674 84.531 991.408 84.4273 991.154 84.3046V82.4765C991.594 82.6712 992.051 82.8468 992.525 83.0034C992.999 83.1599 993.468 83.2382 993.934 83.2382C994.256 83.2382 994.514 83.1959 994.708 83.1113C994.907 83.0266 995.051 82.9103 995.14 82.7621C995.229 82.614 995.273 82.4448 995.273 82.2543C995.273 82.0216 995.195 81.8227 995.038 81.6577C994.882 81.4926 994.666 81.3382 994.391 81.1943C994.12 81.0504 993.813 80.8959 993.471 80.7309C993.255 80.6293 993.02 80.5066 992.766 80.3627C992.512 80.2146 992.271 80.0348 992.042 79.8232C991.814 79.6116 991.626 79.3556 991.477 79.0551C991.334 78.7504 991.262 78.3865 991.262 77.9633C991.262 77.409 991.389 76.935 991.642 76.5414C991.896 76.1479 992.258 75.8474 992.728 75.6401C993.202 75.4285 993.76 75.3227 994.404 75.3227C994.886 75.3227 995.345 75.3798 995.781 75.4941C996.221 75.6041 996.68 75.7649 997.159 75.9765L996.524 77.5063C996.096 77.3328 995.713 77.1995 995.375 77.1064C995.036 77.0091 994.691 76.9604 994.34 76.9604C994.095 76.9604 993.885 77.0006 993.712 77.081C993.538 77.1572 993.407 77.2672 993.318 77.4111C993.229 77.5507 993.185 77.7136 993.185 77.8998C993.185 78.1199 993.248 78.3061 993.375 78.4584C993.507 78.6065 993.701 78.7504 993.959 78.8901C994.222 79.0297 994.548 79.1926 994.937 79.3788C995.411 79.6031 995.815 79.838 996.149 80.0834C996.488 80.3246 996.748 80.6103 996.93 80.9404C997.112 81.2662 997.203 81.6725 997.203 82.1591Z" fill="#00612E"/>
<path d="M950.582 98.7363V90.8837H951.871V98.7363H950.582ZM956.914 92.6777C957.584 92.6777 958.105 92.8513 958.477 93.1987C958.853 93.5424 959.041 94.0956 959.041 94.8583V98.7363H957.779V95.0947C957.779 94.6328 957.684 94.2872 957.494 94.058C957.305 93.8253 957.011 93.7089 956.614 93.7089C956.037 93.7089 955.636 93.8862 955.411 94.2407C955.189 94.5952 955.078 95.109 955.078 95.7822V98.7363H953.815V92.7905H954.798L954.975 93.5961H955.045C955.174 93.3884 955.334 93.2184 955.523 93.0859C955.717 92.9498 955.932 92.8478 956.168 92.7797C956.408 92.7117 956.657 92.6777 956.914 92.6777ZM963.021 97.8232C963.186 97.8232 963.349 97.8089 963.51 97.7802C963.671 97.748 963.818 97.7104 963.951 97.6674V98.6235C963.811 98.6843 963.63 98.7363 963.408 98.7792C963.186 98.8222 962.955 98.8437 962.715 98.8437C962.379 98.8437 962.076 98.7882 961.807 98.6772C961.539 98.5626 961.326 98.3675 961.168 98.0917C961.011 97.816 960.932 97.4347 960.932 96.9477V93.7519H960.121V93.1879L960.991 92.7421L961.405 91.4692H962.2V92.7905H963.902V93.7519H962.2V96.9316C962.2 97.2324 962.275 97.4562 962.425 97.603C962.576 97.7498 962.774 97.8232 963.021 97.8232ZM967.528 92.6777C968.058 92.6777 968.512 92.7869 968.892 93.0053C969.272 93.2237 969.563 93.5335 969.767 93.9345C969.972 94.3356 970.074 94.8154 970.074 95.374V96.0507H966.104C966.119 96.6272 966.273 97.0712 966.566 97.3828C966.863 97.6943 967.279 97.85 967.812 97.85C968.192 97.85 968.532 97.8142 968.833 97.7426C969.137 97.6674 969.451 97.5582 969.773 97.415V98.4409C969.476 98.5805 969.173 98.6826 968.865 98.747C968.557 98.8115 968.188 98.8437 967.759 98.8437C967.175 98.8437 966.661 98.7309 966.217 98.5053C965.777 98.2761 965.431 97.936 965.181 97.4848C964.933 97.0336 964.81 96.4732 964.81 95.8036C964.81 95.1376 964.923 94.5719 965.148 94.1064C965.374 93.6409 965.691 93.2864 966.099 93.0429C966.507 92.7994 966.983 92.6777 967.528 92.6777ZM967.528 93.6284C967.13 93.6284 966.808 93.7573 966.561 94.0151C966.317 94.2729 966.174 94.6507 966.131 95.1484H968.838C968.835 94.8512 968.785 94.588 968.688 94.3588C968.595 94.1297 968.452 93.9506 968.258 93.8217C968.068 93.6928 967.825 93.6284 967.528 93.6284ZM974.51 92.6777C974.61 92.6777 974.72 92.683 974.838 92.6938C974.956 92.7045 975.058 92.7189 975.144 92.7368L975.026 93.9184C974.951 93.8969 974.857 93.8808 974.746 93.8701C974.639 93.8593 974.542 93.8539 974.456 93.8539C974.231 93.8539 974.016 93.8915 973.812 93.9667C973.608 94.0384 973.427 94.1494 973.269 94.2997C973.112 94.4466 972.988 94.631 972.899 94.853C972.809 95.075 972.765 95.3328 972.765 95.6264V98.7363H971.497V92.7905H972.485L972.657 93.8378H972.716C972.834 93.6266 972.981 93.4332 973.157 93.2578C973.332 93.0823 973.533 92.9426 973.758 92.8388C973.987 92.7314 974.238 92.6777 974.51 92.6777ZM979.344 92.6777C980.014 92.6777 980.535 92.8513 980.907 93.1987C981.283 93.5424 981.471 94.0956 981.471 94.8583V98.7363H980.209V95.0947C980.209 94.6328 980.114 94.2872 979.924 94.058C979.734 93.8253 979.441 93.7089 979.043 93.7089C978.467 93.7089 978.066 93.8862 977.84 94.2407C977.618 94.5952 977.507 95.109 977.507 95.7822V98.7363H976.245V92.7905H977.228L977.405 93.5961H977.475C977.604 93.3884 977.763 93.2184 977.953 93.0859C978.146 92.9498 978.361 92.8478 978.598 92.7797C978.837 92.7117 979.086 92.6777 979.344 92.6777ZM985.569 92.6777C986.321 92.6777 986.889 92.8442 987.272 93.1772C987.659 93.5102 987.852 94.0294 987.852 94.7348V98.7363H986.955L986.713 97.893H986.67C986.502 98.1078 986.328 98.2851 986.149 98.4247C985.97 98.5644 985.763 98.6682 985.526 98.7363C985.293 98.8079 985.009 98.8437 984.672 98.8437C984.318 98.8437 984.001 98.7792 983.722 98.6503C983.442 98.5178 983.222 98.3173 983.061 98.0488C982.9 97.7802 982.819 97.44 982.819 97.0283C982.819 96.416 983.047 95.9558 983.501 95.6479C983.96 95.3399 984.651 95.1699 985.575 95.1376L986.606 95.1V94.7885C986.606 94.3767 986.509 94.0831 986.316 93.9077C986.126 93.7322 985.857 93.6445 985.51 93.6445C985.213 93.6445 984.925 93.6874 984.645 93.7734C984.366 93.8593 984.094 93.9649 983.829 94.0903L983.421 93.1987C983.711 93.0447 984.04 92.9194 984.409 92.8227C984.781 92.726 985.168 92.6777 985.569 92.6777ZM986.6 95.895L985.832 95.9218C985.202 95.9433 984.76 96.0507 984.506 96.2441C984.251 96.4374 984.124 96.7024 984.124 97.039C984.124 97.3326 984.212 97.5475 984.388 97.6835C984.563 97.816 984.794 97.8823 985.08 97.8823C985.517 97.8823 985.879 97.7587 986.165 97.5117C986.455 97.261 986.6 96.894 986.6 96.4106V95.895ZM991.832 97.8232C991.997 97.8232 992.16 97.8089 992.321 97.7802C992.482 97.748 992.629 97.7104 992.761 97.6674V98.6235C992.621 98.6843 992.441 98.7363 992.219 98.7792C991.997 98.8222 991.766 98.8437 991.526 98.8437C991.189 98.8437 990.887 98.7882 990.618 98.6772C990.349 98.5626 990.136 98.3675 989.979 98.0917C989.821 97.816 989.743 97.4347 989.743 96.9477V93.7519H988.932V93.1879L989.802 92.7421L990.215 91.4692H991.01V92.7905H992.713V93.7519H991.01V96.9316C991.01 97.2324 991.085 97.4562 991.236 97.603C991.386 97.7498 991.585 97.8232 991.832 97.8232ZM995.232 92.7905V98.7363H993.97V92.7905H995.232ZM994.609 90.5131C994.802 90.5131 994.969 90.565 995.108 90.6689C995.251 90.7727 995.323 90.9518 995.323 91.206C995.323 91.4566 995.251 91.6357 995.108 91.7431C994.969 91.8469 994.802 91.8989 994.609 91.8989C994.408 91.8989 994.238 91.8469 994.098 91.7431C993.962 91.6357 993.894 91.4566 993.894 91.206C993.894 90.9518 993.962 90.7727 994.098 90.6689C994.238 90.565 994.408 90.5131 994.609 90.5131ZM1002.31 95.7499C1002.31 96.2441 1002.24 96.6827 1002.11 97.0659C1001.98 97.449 1001.8 97.7731 1001.55 98.038C1001.3 98.2994 1001 98.4999 1000.66 98.6396C1000.31 98.7757 999.917 98.8437 999.48 98.8437C999.072 98.8437 998.698 98.7757 998.358 98.6396C998.018 98.4999 997.722 98.2994 997.472 98.038C997.224 97.7731 997.033 97.449 996.897 97.0659C996.761 96.6827 996.693 96.2441 996.693 95.7499C996.693 95.0947 996.806 94.5397 997.031 94.0849C997.26 93.6266 997.586 93.2774 998.009 93.0375C998.431 92.7976 998.934 92.6777 999.518 92.6777C1000.07 92.6777 1000.55 92.7976 1000.97 93.0375C1001.39 93.2774 1001.71 93.6266 1001.95 94.0849C1002.19 94.5432 1002.31 95.0982 1002.31 95.7499ZM997.993 95.7499C997.993 96.1832 998.044 96.5538 998.148 96.8618C998.256 97.1697 998.42 97.406 998.642 97.5707C998.864 97.7319 999.151 97.8124 999.502 97.8124C999.853 97.8124 1000.14 97.7319 1000.36 97.5707C1000.58 97.406 1000.75 97.1697 1000.85 96.8618C1000.95 96.5538 1001.01 96.1832 1001.01 95.7499C1001.01 95.3167 1000.95 94.9496 1000.85 94.6489C1000.75 94.3445 1000.58 94.1135 1000.36 93.956C1000.14 93.7949 999.851 93.7143 999.496 93.7143C998.974 93.7143 998.592 93.8898 998.352 94.2407C998.112 94.5916 997.993 95.0947 997.993 95.7499ZM1006.85 92.6777C1007.52 92.6777 1008.05 92.8513 1008.42 93.1987C1008.79 93.5424 1008.98 94.0956 1008.98 94.8583V98.7363H1007.72V95.0947C1007.72 94.6328 1007.62 94.2872 1007.43 94.058C1007.25 93.8253 1006.95 93.7089 1006.55 93.7089C1005.98 93.7089 1005.58 93.8862 1005.35 94.2407C1005.13 94.5952 1005.02 95.109 1005.02 95.7822V98.7363H1003.76V92.7905H1004.74L1004.92 93.5961H1004.99C1005.11 93.3884 1005.27 93.2184 1005.46 93.0859C1005.66 92.9498 1005.87 92.8478 1006.11 92.7797C1006.35 92.7117 1006.6 92.6777 1006.85 92.6777ZM1013.08 92.6777C1013.83 92.6777 1014.4 92.8442 1014.78 93.1772C1015.17 93.5102 1015.36 94.0294 1015.36 94.7348V98.7363H1014.47L1014.22 97.893H1014.18C1014.01 98.1078 1013.84 98.2851 1013.66 98.4247C1013.48 98.5644 1013.27 98.6682 1013.04 98.7363C1012.8 98.8079 1012.52 98.8437 1012.18 98.8437C1011.83 98.8437 1011.51 98.7792 1011.23 98.6503C1010.95 98.5178 1010.73 98.3173 1010.57 98.0488C1010.41 97.7802 1010.33 97.44 1010.33 97.0283C1010.33 96.416 1010.56 95.9558 1011.01 95.6479C1011.47 95.3399 1012.16 95.1699 1013.09 95.1376L1014.12 95.1V94.7885C1014.12 94.3767 1014.02 94.0831 1013.83 93.9077C1013.64 93.7322 1013.37 93.6445 1013.02 93.6445C1012.72 93.6445 1012.44 93.6874 1012.16 93.7734C1011.88 93.8593 1011.6 93.9649 1011.34 94.0903L1010.93 93.1987C1011.22 93.0447 1011.55 92.9194 1011.92 92.8227C1012.29 92.726 1012.68 92.6777 1013.08 92.6777ZM1014.11 95.895L1013.34 95.9218C1012.71 95.9433 1012.27 96.0507 1012.02 96.2441C1011.76 96.4374 1011.64 96.7024 1011.64 97.039C1011.64 97.3326 1011.72 97.5475 1011.9 97.6835C1012.07 97.816 1012.3 97.8823 1012.59 97.8823C1013.03 97.8823 1013.39 97.7587 1013.68 97.5117C1013.97 97.261 1014.11 96.894 1014.11 96.4106V95.895ZM1018.4 98.7363H1017.13V90.3788H1018.4V98.7363Z" fill="#303030"/>
<path d="M985.619 59.5747C994.178 59.5747 1001.12 52.6371 1001.12 44.0785C1001.12 35.52 994.178 28.5824 985.619 28.5824C977.061 28.5824 970.123 35.52 970.123 44.0785C970.123 52.6371 977.061 59.5747 985.619 59.5747Z" stroke="#303030" stroke-width="1.5"/>
<path d="M971.672 49.4912C973.711 50.3086 975.179 50.3086 976.076 49.4912C977.421 48.2639 976.26 44.5418 978.145 43.5151C980.027 42.4885 982.898 47.039 985.58 45.542C988.263 44.0443 985.328 40.051 987.189 38.4324C989.051 36.813 991.471 38.6393 991.894 35.9321C992.317 33.2257 989.92 34.3995 989.46 31.8411C989.154 30.1365 989.154 29.2401 989.46 29.1525M989.508 59.0709C988.057 57.5849 987.534 56.2041 987.941 54.9273C988.55 53.0119 989.557 53.1251 989.995 51.9412C990.434 50.7573 989.195 49.0705 991.944 47.6294C993.777 46.6686 996.298 47.7812 999.505 50.9696" stroke="#303030" stroke-width="1.5" stroke-linecap="round"/>
<defs>
<filter id="filter0_d_316_1651" x="0.605469" y="0" width="142.979" height="142.978" filterUnits="userSpaceOnUse" color-interpolation-filters="sRGB">
<feFlood flood-opacity="0" result="BackgroundImageFix"/>
<feColorMatrix in="SourceAlpha" type="matrix" values="0 0 0 0 0 0 0 0 0 0 0 0 0 0 0 0 0 0 127 0" result="hardAlpha"/>
<feOffset/>
<feGaussianBlur stdDeviation="3"/>
<feComposite in2="hardAlpha" operator="out"/>
<feColorMatrix type="matrix" values="0 0 0 0 0 0 0 0 0 0 0 0 0 0 0 0 0 0 0.25 0"/>
<feBlend mode="normal" in2="BackgroundImageFix" result="effect1_dropShadow_316_1651"/>
<feBlend mode="normal" in="SourceGraphic" in2="effect1_dropShadow_316_1651" result="shape"/>
</filter>
<filter id="filter1_d_316_1651" x="760.881" y="0" width="142.979" height="142.978" filterUnits="userSpaceOnUse" color-interpolation-filters="sRGB">
<feFlood flood-opacity="0" result="BackgroundImageFix"/>
<feColorMatrix in="SourceAlpha" type="matrix" values="0 0 0 0 0 0 0 0 0 0 0 0 0 0 0 0 0 0 127 0" result="hardAlpha"/>
<feOffset/>
<feGaussianBlur stdDeviation="3"/>
<feComposite in2="hardAlpha" operator="out"/>
<feColorMatrix type="matrix" values="0 0 0 0 0 0 0 0 0 0 0 0 0 0 0 0 0 0 0.25 0"/>
<feBlend mode="normal" in2="BackgroundImageFix" result="effect1_dropShadow_316_1651"/>
<feBlend mode="normal" in="SourceGraphic" in2="effect1_dropShadow_316_1651" result="shape"/>
</filter>
<filter id="filter2_d_316_1651" x="152.66" y="0" width="142.979" height="142.978" filterUnits="userSpaceOnUse" color-interpolation-filters="sRGB">
<feFlood flood-opacity="0" result="BackgroundImageFix"/>
<feColorMatrix in="SourceAlpha" type="matrix" values="0 0 0 0 0 0 0 0 0 0 0 0 0 0 0 0 0 0 127 0" result="hardAlpha"/>
<feOffset/>
<feGaussianBlur stdDeviation="3"/>
<feComposite in2="hardAlpha" operator="out"/>
<feColorMatrix type="matrix" values="0 0 0 0 0 0 0 0 0 0 0 0 0 0 0 0 0 0 0.25 0"/>
<feBlend mode="normal" in2="BackgroundImageFix" result="effect1_dropShadow_316_1651"/>
<feBlend mode="normal" in="SourceGraphic" in2="effect1_dropShadow_316_1651" result="shape"/>
</filter>
<filter id="filter3_d_316_1651" x="456.771" y="0" width="142.979" height="142.978" filterUnits="userSpaceOnUse" color-interpolation-filters="sRGB">
<feFlood flood-opacity="0" result="BackgroundImageFix"/>
<feColorMatrix in="SourceAlpha" type="matrix" values="0 0 0 0 0 0 0 0 0 0 0 0 0 0 0 0 0 0 127 0" result="hardAlpha"/>
<feOffset/>
<feGaussianBlur stdDeviation="3"/>
<feComposite in2="hardAlpha" operator="out"/>
<feColorMatrix type="matrix" values="0 0 0 0 0 0 0 0 0 0 0 0 0 0 0 0 0 0 0.25 0"/>
<feBlend mode="normal" in2="BackgroundImageFix" result="effect1_dropShadow_316_1651"/>
<feBlend mode="normal" in="SourceGraphic" in2="effect1_dropShadow_316_1651" result="shape"/>
</filter>
<filter id="filter4_d_316_1651" x="608.824" y="0" width="142.979" height="142.978" filterUnits="userSpaceOnUse" color-interpolation-filters="sRGB">
<feFlood flood-opacity="0" result="BackgroundImageFix"/>
<feColorMatrix in="SourceAlpha" type="matrix" values="0 0 0 0 0 0 0 0 0 0 0 0 0 0 0 0 0 0 127 0" result="hardAlpha"/>
<feOffset/>
<feGaussianBlur stdDeviation="3"/>
<feComposite in2="hardAlpha" operator="out"/>
<feColorMatrix type="matrix" values="0 0 0 0 0 0 0 0 0 0 0 0 0 0 0 0 0 0 0.25 0"/>
<feBlend mode="normal" in2="BackgroundImageFix" result="effect1_dropShadow_316_1651"/>
<feBlend mode="normal" in="SourceGraphic" in2="effect1_dropShadow_316_1651" result="shape"/>
</filter>
<filter id="filter5_d_316_1651" x="304.715" y="0" width="142.979" height="142.978" filterUnits="userSpaceOnUse" color-interpolation-filters="sRGB">
<feFlood flood-opacity="0" result="BackgroundImageFix"/>
<feColorMatrix in="SourceAlpha" type="matrix" values="0 0 0 0 0 0 0 0 0 0 0 0 0 0 0 0 0 0 127 0" result="hardAlpha"/>
<feOffset/>
<feGaussianBlur stdDeviation="3"/>
<feComposite in2="hardAlpha" operator="out"/>
<feColorMatrix type="matrix" values="0 0 0 0 0 0 0 0 0 0 0 0 0 0 0 0 0 0 0.25 0"/>
<feBlend mode="normal" in2="BackgroundImageFix" result="effect1_dropShadow_316_1651"/>
<feBlend mode="normal" in="SourceGraphic" in2="effect1_dropShadow_316_1651" result="shape"/>
</filter>
<filter id="filter6_d_316_1651" x="912.936" y="0" width="142.979" height="142.978" filterUnits="userSpaceOnUse" color-interpolation-filters="sRGB">
<feFlood flood-opacity="0" result="BackgroundImageFix"/>
<feColorMatrix in="SourceAlpha" type="matrix" values="0 0 0 0 0 0 0 0 0 0 0 0 0 0 0 0 0 0 127 0" result="hardAlpha"/>
<feOffset/>
<feGaussianBlur stdDeviation="3"/>
<feComposite in2="hardAlpha" operator="out"/>
<feColorMatrix type="matrix" values="0 0 0 0 0 0 0 0 0 0 0 0 0 0 0 0 0 0 0.25 0"/>
<feBlend mode="normal" in2="BackgroundImageFix" result="effect1_dropShadow_316_1651"/>
<feBlend mode="normal" in="SourceGraphic" in2="effect1_dropShadow_316_1651" result="shape"/>
</filter>
</defs>
</svg>
