<svg width="196" height="41" viewBox="0 0 196 41" fill="none" xmlns="http://www.w3.org/2000/svg">
<path d="M6.36 14.76V6.64H10.8C13.96 6.64 15.36 8.16 15.36 10.72C15.36 13.2 13.96 14.76 10.8 14.76H6.36ZM21.12 10.72C21.12 5.88 17.76 2.08 11.04 2.08H0.76V30H6.36V19.28H11.04C18.24 19.28 21.12 14.96 21.12 10.72ZM23.6559 18.84C23.6559 25.76 28.1359 30.36 33.7359 30.36C37.2559 30.36 39.7759 28.68 41.0959 26.76V30H46.7359V7.84H41.0959V11C39.7759 9.16 37.3359 7.48 33.7759 7.48C28.1359 7.48 23.6559 11.92 23.6559 18.84ZM41.0959 18.92C41.0959 23.12 38.2959 25.44 35.2159 25.44C32.2159 25.44 29.3759 23.04 29.3759 18.84C29.3759 14.64 32.2159 12.4 35.2159 12.4C38.2959 12.4 41.0959 14.72 41.0959 18.92ZM50.7653 18.92C50.7653 25.88 55.3253 30.36 61.7253 30.36C67.2453 30.36 70.9653 27.24 72.1653 22.52H66.1253C65.4453 24.52 64.0053 25.56 61.6853 25.56C58.5653 25.56 56.4853 23.24 56.4853 18.92C56.4853 14.6 58.5653 12.24 61.6853 12.24C64.0053 12.24 65.4853 13.44 66.1253 15.32H72.1653C70.9653 10.36 67.2453 7.48 61.7253 7.48C55.3253 7.48 50.7653 11.96 50.7653 18.92ZM76.2678 30H81.8678V20.56L89.3878 30H96.6678L86.8278 18.96L96.5878 7.84H89.3078L81.8678 17.24V0.4H76.2678V30ZM98.1872 18.84C98.1872 25.76 102.667 30.36 108.267 30.36C111.787 30.36 114.307 28.68 115.627 26.76V30H121.267V7.84H115.627V11C114.307 9.16 111.867 7.48 108.307 7.48C102.667 7.48 98.1872 11.92 98.1872 18.84ZM115.627 18.92C115.627 23.12 112.827 25.44 109.747 25.44C106.747 25.44 103.907 23.04 103.907 18.84C103.907 14.64 106.747 12.4 109.747 12.4C112.827 12.4 115.627 14.72 115.627 18.92ZM125.297 18.84C125.297 25.76 129.777 30.36 135.417 30.36C138.897 30.36 141.417 28.64 142.737 26.72V30.16C142.737 34.28 140.337 36.04 137.257 36.04C134.457 36.04 132.377 34.72 131.817 32.72H126.257C126.817 37.8 131.177 40.92 137.417 40.92C144.697 40.92 148.377 36.16 148.377 30.16V7.84H142.737V11C141.417 9.08 138.897 7.48 135.417 7.48C129.777 7.48 125.297 11.92 125.297 18.84ZM142.737 18.92C142.737 23.12 139.937 25.44 136.857 25.44C133.857 25.44 131.017 23.04 131.017 18.84C131.017 14.64 133.857 12.4 136.857 12.4C139.937 12.4 142.737 14.72 142.737 18.92ZM163.366 12.08C166.246 12.08 168.566 13.92 168.646 16.84H158.126C158.566 13.8 160.686 12.08 163.366 12.08ZM173.886 23.04H167.846C167.126 24.52 165.806 25.72 163.406 25.72C160.606 25.72 158.366 23.88 158.086 20.6H174.286C174.406 19.88 174.446 19.16 174.446 18.44C174.446 11.84 169.926 7.48 163.526 7.48C156.966 7.48 152.406 11.92 152.406 18.92C152.406 25.88 157.086 30.36 163.526 30.36C169.006 30.36 172.686 27.12 173.886 23.04ZM195.733 23.68C195.573 15.56 183.293 18.08 183.293 14.04C183.293 12.76 184.373 11.92 186.453 11.92C188.653 11.92 190.013 13.08 190.173 14.8H195.533C195.213 10.4 191.973 7.48 186.613 7.48C181.133 7.48 177.853 10.44 177.853 14.12C177.853 22.24 190.373 19.72 190.373 23.68C190.373 24.96 189.173 25.96 186.973 25.96C184.733 25.96 183.173 24.68 182.973 23H177.333C177.573 27.12 181.453 30.36 187.013 30.36C192.413 30.36 195.733 27.48 195.733 23.68Z" fill="black"/>
</svg>
