<svg width="154" height="20" viewBox="0 0 154 20" fill="none" xmlns="http://www.w3.org/2000/svg">
<path d="M8.14139 9.78612H12.0865L11.5628 3.80183L8.13709 9.78612H8.14139ZM0.199544 13.3406L1.27706 12.2459C1.78362 13.0272 2.43614 13.4222 3.25179 13.4222C4.06744 13.4222 4.76718 13.0959 5.45404 12.4434C6.1409 11.7909 6.96943 10.6318 7.91816 8.98764L11.3568 3.06775C10.7686 2.98619 10.2792 2.95184 9.85425 2.95184C8.74668 2.95184 7.89669 3.23088 7.29139 3.78466C6.6861 4.33844 6.37701 5.13692 6.37701 6.16721L4.82728 6.93564C4.92601 5.93969 5.20076 5.12404 5.6601 4.45435C6.16666 3.73744 6.75478 3.21371 7.43735 2.90462C8.11992 2.59553 9.11587 2.39806 10.4209 2.31649C10.6828 2.29932 11.0734 2.26927 11.5972 2.21776L13.2285 1.92584L13.3272 4.58314L13.7994 10.078C13.8981 11.3659 14.0441 12.1987 14.2416 12.6065C14.439 13.0144 14.7782 13.2118 15.2847 13.2118C15.3835 13.2118 15.6926 13.1947 16.2163 13.1775L16.1176 13.7012L12.4643 14.3065L12.1381 10.3742H7.79796C6.94796 11.8252 6.16666 12.8555 5.4154 13.4222C4.66415 14.0103 3.76693 14.3022 2.74093 14.3022C1.71493 14.3022 0.912164 13.976 0.195251 13.3406H0.199544Z" fill="#2792D0"/>
<path d="M23.8451 6.49347C23.1754 6.20155 22.5229 6.0513 21.8532 6.0513C20.8916 6.0513 20.106 6.66948 19.535 7.88007C18.8481 9.33107 18.509 10.6189 18.509 11.778C18.509 12.6108 18.7537 13.0358 19.2431 13.0358C19.6981 13.0358 20.3678 12.5464 21.2178 11.5848C22.0807 10.6232 22.8319 9.52854 23.4845 8.30507L23.8451 6.49347ZM23.2097 9.69167H23.0638C22.4456 11.0311 21.7244 12.1043 20.8787 12.9543C20.0459 13.7871 19.2646 14.2121 18.5305 14.2121C17.4057 14.2121 16.8348 13.5123 16.8348 12.1086C16.8348 11.147 17.1138 10.151 17.6676 9.10784C18.2214 8.04749 18.9254 7.18462 19.8055 6.46342C20.3764 5.9912 20.9645 5.68211 21.5527 5.51898C22.1408 5.35585 22.9865 5.27429 24.0983 5.27429C24.4074 4.21395 24.7337 3.41547 25.0771 2.86169C25.4206 2.3079 25.8928 1.78417 26.5109 1.31195C27.5541 0.479134 28.7132 0.0541382 29.9839 0.0541382C30.5076 0.0541382 30.997 0.118531 31.4177 0.234439L30.323 1.35918C29.6877 1.08014 29.1468 0.951352 28.7089 0.951352C27.8589 0.951352 27.2236 1.26044 26.7986 1.86574C26.3564 2.48391 25.9829 3.64299 25.6395 5.35585L24.3817 11.6535C24.2529 12.2717 24.2014 12.6666 24.2014 12.8426C24.2014 13.1861 24.3473 13.3492 24.6564 13.3492C25.193 13.3492 25.9958 12.7783 27.039 11.602L26.893 12.3361C25.7339 13.5939 24.6908 14.2121 23.7764 14.2121C23.008 14.2121 22.6173 13.8214 22.6173 13.0058C22.6173 12.7439 22.6817 12.306 22.8148 11.6535L23.2054 9.69596L23.2097 9.69167Z" fill="#2792D0"/>
<path d="M34.7447 6.49347C34.075 6.20155 33.4225 6.0513 32.7528 6.0513C31.7912 6.0513 31.0056 6.66948 30.4347 7.88007C29.7478 9.33107 29.4087 10.6189 29.4087 11.778C29.4087 12.6108 29.6534 13.0358 30.1427 13.0358C30.5978 13.0358 31.2675 12.5464 32.1175 11.5848C32.9803 10.6232 33.7316 9.52854 34.3841 8.30507L34.7447 6.49347ZM34.1094 9.69167H33.9634C33.3452 11.0311 32.624 12.1043 31.7783 12.9543C30.9455 13.7871 30.1642 14.2121 29.4301 14.2121C28.3054 14.2121 27.7344 13.5123 27.7344 12.1086C27.7344 11.147 28.0135 10.151 28.5673 9.10784C29.121 8.04749 29.8251 7.18462 30.7051 6.46342C31.2761 5.9912 31.8642 5.68211 32.4523 5.51898C33.0404 5.35585 33.8861 5.27429 34.998 5.27429C35.3071 4.21395 35.6333 3.41547 35.9768 2.86169C36.3202 2.3079 36.7924 1.78417 37.4106 1.31195C38.4538 0.479134 39.6129 0.0541382 40.8835 0.0541382C41.4073 0.0541382 41.8967 0.118531 42.3174 0.234439L41.2227 1.35918C40.5873 1.08014 40.0464 0.951352 39.6086 0.951352C38.7586 0.951352 38.1232 1.26044 37.6982 1.86574C37.2561 2.48391 36.8826 3.64299 36.5391 5.35585L35.2813 11.6535C35.1525 12.2717 35.101 12.6666 35.101 12.8426C35.101 13.1861 35.247 13.3492 35.5561 13.3492C36.0927 13.3492 36.8955 12.7783 37.9386 11.602L37.7927 12.3361C36.6336 13.5939 35.5904 14.2121 34.676 14.2121C33.9076 14.2121 33.517 13.8214 33.517 13.0058C33.517 12.7439 33.5813 12.306 33.7144 11.6535L34.1051 9.69596L34.1094 9.69167Z" fill="#2792D0"/>
<path d="M50.7142 14.2078L50.7614 12.1343C50.7614 8.00885 50.388 5.15408 49.6367 3.55283C48.8382 1.87431 47.8766 1.02432 46.7175 1.02432C45.6915 1.02432 44.7772 1.69401 43.9787 3.01622L43.5709 2.80587C44.7428 0.977099 46.0307 0.0498352 47.4345 0.0498352C50.7614 0.0498352 52.44 3.88338 52.44 11.5333L54.9856 7.53663C56.5354 5.12403 57.3038 3.62152 57.3038 3.02051C57.3038 2.81016 57.0591 2.71143 56.5869 2.71143H55.9515L56.0503 2.22204H59.476L59.3601 2.71143H58.7076L51.547 14.0146L50.7142 14.2121V14.2078Z" fill="#2792D0"/>
<path d="M65.602 6.4935C64.9323 6.20159 64.2626 6.05134 63.6101 6.05134C62.6485 6.05134 61.8629 6.66951 61.2919 7.88011C60.605 9.3311 60.2659 10.619 60.2659 11.778C60.2659 12.6109 60.5106 13.0359 61 13.0359C61.455 13.0359 62.1247 12.5465 62.9747 11.602C63.8376 10.6404 64.5888 9.54575 65.2414 8.30939L65.602 6.4978V6.4935ZM64.9666 9.6917H64.8207C64.2154 11.0139 63.4984 12.1043 62.6527 12.9543C61.8028 13.7871 61.0215 14.2121 60.2702 14.2121C59.1626 14.2121 58.5917 13.5124 58.5917 12.1086C58.5917 10.5589 59.2099 9.06065 60.4505 7.57531C61.7212 6.04275 63.2709 5.27432 65.1169 5.27432C65.8681 5.27432 66.6666 5.30867 67.4994 5.37306L66.9285 7.72127L66.1472 11.6536C66.0313 12.2717 65.9669 12.6796 65.9669 12.8599C65.9669 13.1861 66.13 13.3492 66.4391 13.3492C66.9628 13.3492 67.7613 12.7783 68.8045 11.602L68.6757 12.3361C67.4994 13.5939 66.4562 14.2121 65.5462 14.2121C64.7777 14.2121 64.3871 13.8215 64.3871 13.0058C64.3871 12.7439 64.4515 12.2889 64.5845 11.6536L64.9752 9.696L64.9666 9.6917Z" fill="#2792D0"/>
<path d="M81.9792 9.68739H81.8332C80.3307 12.7053 78.8668 14.2035 77.4287 14.2035C76.5787 14.2035 76.158 13.6969 76.158 12.701C76.158 12.4091 76.1924 12.0485 76.2868 11.6235L77.0552 7.70837C77.184 7.10307 77.2355 6.69524 77.2355 6.51924C77.2355 6.19298 77.0896 6.02985 76.7633 6.02985C76.2568 6.02985 75.4583 6.6008 74.3979 7.77705L74.5439 7.04297C75.703 5.78515 76.7462 5.16698 77.6734 5.16698C78.4419 5.16698 78.8153 5.55763 78.8153 6.35611C78.8153 6.61797 78.7681 7.07302 78.635 7.70837L77.8537 11.6235C77.7893 11.9841 77.7378 12.2288 77.7378 12.3747C77.7378 12.8169 77.9009 13.0273 78.21 13.0273C78.6179 13.0273 79.2232 12.5379 80.0216 11.5763C80.8373 10.6147 81.5885 9.48991 82.2582 8.21493L82.8292 5.36016L84.5249 5.26142L83.9367 7.70837L83.1554 11.6407C83.0267 12.2588 82.9751 12.6538 82.9751 12.847C82.9751 13.1732 83.1211 13.3363 83.4474 13.3363C83.9711 13.3363 84.7524 12.7654 85.8127 11.5891L85.6668 12.3232C84.5077 13.581 83.4645 14.1992 82.5373 14.1992C81.7688 14.1992 81.3954 13.8086 81.3954 12.9929C81.3954 12.731 81.4426 12.276 81.5757 11.6407L81.9835 9.68309L81.9792 9.68739ZM74.4366 11.5634L74.2906 12.2803C73.0328 13.5682 71.9596 14.2035 71.0624 14.2035C70.2939 14.2035 69.9205 13.7957 69.9205 12.98C69.9205 12.6538 69.9849 12.1987 70.1008 11.6407L71.1783 6.14576C71.5689 4.22254 72.2859 2.72003 73.3462 1.65969C74.4065 0.582174 75.6944 0.0455627 77.2098 0.0455627C77.7464 0.0455627 78.2229 0.109956 78.6436 0.225864L77.5489 1.3506C76.9308 1.07156 76.407 0.942776 75.952 0.942776C75.1192 0.942776 74.4838 1.23469 74.0588 1.85716C73.6338 2.47963 73.2432 3.63442 72.8997 5.36445L71.6591 11.6449C71.5303 12.2631 71.4616 12.6581 71.4616 12.8512C71.4616 13.1775 71.6247 13.3406 71.9338 13.3406C72.2944 13.3406 72.977 12.8684 74.0073 11.9197C74.0889 11.8553 74.2176 11.7222 74.4323 11.5591L74.4366 11.5634Z" fill="#2792D0"/>
<path d="M88.247 10.1124C89.4361 10.0137 90.3677 9.70457 91.0374 9.19801C91.707 8.67428 92.0333 8.00888 92.0333 7.17606C92.0333 6.34324 91.7414 5.96976 91.1533 5.96976C90.5179 5.96976 89.8955 6.39476 89.3116 7.24046C88.7063 8.09045 88.3672 9.03488 88.2513 10.1124H88.247ZM93.5144 11.8424L93.3984 12.4477C91.7028 13.624 90.2689 14.2078 89.0755 14.2078C88.3243 14.2078 87.7061 13.9459 87.2339 13.4265C86.7788 12.8899 86.5341 12.203 86.5341 11.3702C86.5341 9.8677 87.1051 8.46822 88.2642 7.14601C89.4061 5.8238 90.6295 5.15411 91.9346 5.15411C92.4068 5.15411 92.7846 5.31724 93.0765 5.6435C93.3684 5.95259 93.5186 6.37759 93.5186 6.88415C93.5186 7.89727 92.9949 8.77731 91.9517 9.51139C90.9086 10.2455 89.6679 10.6061 88.2341 10.6061L88.2169 10.9667C88.2169 12.5164 88.7879 13.2977 89.9298 13.2977C90.9086 13.2977 92.0977 12.8083 93.5186 11.8467L93.5144 11.8424Z" fill="#2792D0"/>
<path d="M111.557 13.5209C112.356 13.5209 113.042 13.0144 113.643 12.0055C114.232 10.9924 114.524 9.82047 114.524 8.48109C114.524 6.721 114 5.83667 112.927 5.83667C112.158 5.83667 111.476 6.3604 110.87 7.40357C110.265 8.44674 109.956 9.623 109.956 10.928C109.956 12.6581 110.492 13.5209 111.553 13.5209H111.557ZM110.66 14.2078C109.96 14.2078 109.372 13.9288 108.913 13.3921C108.44 12.8555 108.213 12.1687 108.213 11.353C108.213 9.83764 108.801 8.41669 109.96 7.11166C111.119 5.82379 112.373 5.17127 113.742 5.17127C114.476 5.17127 115.082 5.43314 115.554 5.96975C116.043 6.49348 116.271 7.17605 116.271 7.9917C116.271 9.58865 115.7 11.0096 114.541 12.2975C113.382 13.5682 112.094 14.2078 110.66 14.2078ZM102.804 5.95258H100.975L101.529 5.36445H102.916L103.371 3.09781L105.019 2.70715L104.495 5.36445H107.496L106.844 6.06419C106.157 5.98263 105.538 5.94828 105.015 5.94828H104.362L103.285 11.396C103.169 11.9669 103.122 12.3576 103.122 12.5851C103.122 13.0101 103.302 13.2204 103.675 13.2204C104.246 13.2204 105.028 12.7783 106.024 11.9326L105.878 12.6667C104.852 13.6927 103.856 14.1992 102.911 14.1992C102.014 14.1992 101.559 13.6927 101.559 12.6967C101.559 12.3361 101.623 11.8811 101.739 11.2758L102.8 5.94399L102.804 5.95258Z" fill="#2792D0"/>
<path d="M121.68 14.0103L122.804 12.8341H123.277C123.895 12.8341 124.371 12.6366 124.663 12.2803C124.942 11.9068 125.2 11.2028 125.415 10.1596L126.23 6.08135C126.458 4.87505 127.012 3.8791 127.879 3.09779C128.729 2.31649 129.707 1.92154 130.798 1.92154C131.287 1.92154 131.858 2.08467 132.494 2.44527L132.103 4.43717H131.596C131.613 4.29121 131.613 4.17531 131.613 4.09374C131.613 3.09779 131.107 2.6084 130.081 2.6084C129.055 2.6084 128.415 3.45839 128.076 5.17126L127.342 8.84167C127.132 9.93636 126.818 10.7821 126.428 11.3702C126.037 11.9583 125.432 12.4777 124.616 12.9371L129.068 13.0187C130.338 13.0187 131.468 12.7267 132.442 12.1214L132.313 12.7267C131.579 13.3793 131.008 13.8043 130.635 13.9846C130.261 14.182 129.772 14.2636 129.149 14.2636L121.68 14.0189V14.0103Z" fill="#2792D0"/>
<path d="M135.207 19.2133L136.349 18.0242C136.855 18.2345 137.375 18.3333 137.899 18.3333C138.667 18.3333 139.251 18.0714 139.659 17.5648C140.084 17.0411 140.376 16.1954 140.59 15.002L142.106 5.94827H140.328L140.882 5.36015H142.234L142.251 5.24424C142.561 3.71168 143.265 2.45386 144.355 1.49226C145.445 0.530649 146.703 0.0412598 148.154 0.0412598C148.609 0.0412598 149.051 0.0884815 149.442 0.187218L148.3 1.39352C147.794 1.08443 147.287 0.938473 146.785 0.938473C145.986 0.938473 145.381 1.166 145.008 1.63821C144.617 2.11043 144.291 2.96042 144.046 4.21395L143.818 5.35585H146.789L146.154 6.05559C145.484 5.97403 144.801 5.93969 144.115 5.93969H143.707L142.548 12.7911C142.187 14.8646 141.505 16.4787 140.444 17.6035C139.401 18.7454 138.096 19.2992 136.512 19.2992C136.104 19.2992 135.662 19.2648 135.207 19.2004V19.2133ZM136.602 3.78466L137.126 2.70714L139.375 1.23898L138.688 2.70714L136.602 3.78466ZM139.521 11.5977L139.375 12.3318C138.216 13.5896 137.173 14.2078 136.246 14.2078C135.477 14.2078 135.104 13.8171 135.104 13.0015C135.104 12.7396 135.151 12.2846 135.284 11.6621L135.838 8.8889C135.984 8.10759 136.048 7.58386 136.048 7.322C136.048 6.87983 135.885 6.65231 135.542 6.65231C135.297 6.65231 134.872 6.75104 134.254 6.93134L134.353 6.44195L138.251 5.17126L137.645 7.71694L136.864 11.6492C136.735 12.2674 136.666 12.6623 136.666 12.8384C136.666 13.1818 136.83 13.3449 137.139 13.3449C137.662 13.3449 138.461 12.774 139.521 11.5977Z" fill="#2792D0"/>
<path d="M148.575 10.1124C149.764 10.0137 150.695 9.70457 151.365 9.19801C152.035 8.67428 152.361 8.00888 152.361 7.17606C152.361 6.34324 152.069 5.96976 151.481 5.96976C150.846 5.96976 150.223 6.39476 149.639 7.24046C149.034 8.09045 148.695 9.03488 148.579 10.1124H148.575ZM153.842 11.8424L153.726 12.4477C152.031 13.624 150.597 14.2078 149.403 14.2078C148.652 14.2078 148.034 13.9459 147.562 13.4265C147.107 12.8899 146.862 12.203 146.862 11.3702C146.862 9.8677 147.433 8.46822 148.592 7.14601C149.734 5.8238 150.957 5.15411 152.262 5.15411C152.735 5.15411 153.112 5.31724 153.404 5.6435C153.696 5.95259 153.846 6.37759 153.846 6.88415C153.846 7.89727 153.323 8.77731 152.28 9.51139C151.236 10.2455 149.996 10.6061 148.562 10.6061L148.545 10.9667C148.545 12.5164 149.116 13.2977 150.258 13.2977C151.236 13.2977 152.425 12.8083 153.846 11.8467L153.842 11.8424Z" fill="#2792D0"/>
<path d="M8.14155 9.78613V9.73891H12.0395L11.5329 3.9521L8.18019 9.80759L8.14155 9.78613L8.10291 9.76467L11.6016 3.65159L12.1425 9.83765H8.06428L8.10291 9.76896L8.14155 9.79042V9.78613ZM0.199708 13.3406L0.165365 13.3063L1.28152 12.173L1.31157 12.2202C1.81383 12.9929 2.44489 13.3707 3.24766 13.375C4.01609 13.375 4.73729 13.0573 5.41557 12.4091C6.09384 11.7609 6.92666 10.6061 7.8711 8.9619L11.314 3.042L11.3526 3.06347V3.11069C10.7602 3.02913 10.2751 2.99908 9.85012 2.99908C8.74685 2.99908 7.91403 3.27382 7.32161 3.81902C6.72919 4.36421 6.4244 5.14552 6.4244 6.16723V6.19728L4.77593 7.01293L4.78451 6.93136C4.88325 5.93112 5.16229 5.10688 5.62592 4.42861C6.13677 3.7074 6.72919 3.17508 7.42464 2.8617C8.12009 2.54832 9.11604 2.35085 10.4254 2.26928C10.6872 2.25211 11.0779 2.22206 11.5973 2.17055V2.21777V2.17055L13.2801 1.86575L13.3789 4.57886L13.8511 10.0738C13.9498 11.3616 14.0958 12.1901 14.289 12.5851C14.4779 12.9757 14.7955 13.1603 15.2892 13.1603C15.3837 13.1603 15.697 13.1432 16.2165 13.126H16.2723L16.1564 13.7356L12.4216 14.3538L12.0953 10.4172H7.79812V10.37L7.83676 10.3914C6.98676 11.8467 6.20116 12.877 5.44132 13.4565L5.41127 13.4179L5.44132 13.4565C4.68148 14.049 3.77568 14.3495 2.7368 14.3452C1.74944 14.3452 0.88657 14.0146 0.161073 13.3707L0.122437 13.3363L0.15678 13.302L0.191123 13.3363L0.221173 13.302C0.929499 13.9331 1.76661 14.2507 2.7368 14.2507C3.75422 14.2507 4.64285 13.9588 5.38122 13.3793C6.12389 12.8169 6.9052 11.7909 7.7509 10.3442L7.76378 10.3227H12.1726L12.4988 14.2464L16.0705 13.6583L16.1607 13.1689L16.2079 13.1775V13.2247C15.6884 13.2419 15.3794 13.2591 15.2763 13.2591C14.7612 13.2591 14.392 13.053 14.1902 12.628C13.9885 12.2073 13.8425 11.3745 13.7438 10.0823L13.2716 4.58315L13.1771 1.97737L11.5973 2.2607C11.0736 2.30792 10.6829 2.34226 10.4211 2.35944C9.12033 2.441 8.12867 2.63847 7.45039 2.94327C6.77212 3.24806 6.19258 3.76321 5.69031 4.47583L5.65168 4.45007L5.69031 4.47583C5.23956 5.13693 4.96481 5.944 4.86608 6.93136H4.81886L4.79739 6.88414L6.34712 6.11571L6.36859 6.15864H6.32137C6.32137 5.12405 6.63475 4.30841 7.24863 3.74174C7.86251 3.17938 8.72538 2.89605 9.84153 2.89605C10.2665 2.89605 10.7602 2.93039 11.3483 3.01195L11.417 3.02054L7.93978 9.00053C6.99106 10.649 6.15824 11.8124 5.46708 12.4692C4.77593 13.126 4.02896 13.4608 3.23478 13.4608C2.40196 13.4608 1.73227 13.0573 1.22142 12.2631L1.26005 12.2374L1.29439 12.2717L0.229759 13.375L0.195416 13.3406L0.225466 13.3063L0.195416 13.3406H0.199708Z" fill="#2792D0"/>
<path d="M23.845 6.49347L23.8279 6.5364C23.1625 6.24448 22.5185 6.09852 21.8574 6.09852C20.9173 6.09852 20.1532 6.69953 19.5822 7.89724C18.8996 9.34395 18.5605 10.6275 18.5605 11.7737C18.5648 12.6022 18.7966 12.98 19.2474 12.9843C19.6724 12.9843 20.342 12.5078 21.1877 11.5505C22.0506 10.5889 22.7976 9.50278 23.4501 8.27931L23.493 8.30078L23.4458 8.29219L23.8064 6.48059L23.8536 6.48918L23.8365 6.53211L23.8536 6.48918L23.9009 6.49776L23.5402 8.31365C22.8877 9.54571 22.1322 10.6404 21.265 11.6063C20.4107 12.5722 19.7453 13.0702 19.2559 13.0745C18.7279 13.0745 18.4746 12.6065 18.4746 11.7737C18.4746 10.6061 18.8181 9.3096 19.5049 7.85432C20.0802 6.63943 20.8787 5.99979 21.8617 5.99979C22.5357 5.99979 23.1968 6.15004 23.8708 6.44196L23.9051 6.45483L23.8966 6.49347L23.8493 6.48488L23.845 6.49347ZM23.2097 9.69167V9.73889H23.0637V9.69167L23.1067 9.71314C22.4842 11.0525 21.763 12.1343 20.913 12.9886C20.0759 13.8257 19.286 14.2593 18.5304 14.2593C17.38 14.2593 16.7875 13.5209 16.7875 12.1086C16.7875 11.1384 17.0666 10.1338 17.6247 9.08637C18.1827 8.02174 18.8868 7.15028 19.7711 6.42908C20.3463 5.95257 20.9388 5.63919 21.5312 5.47606C22.1236 5.31293 22.9779 5.23136 24.0897 5.23136V5.27858L24.0468 5.2657C24.3559 4.20107 24.6865 3.40259 25.0299 2.84022C25.3776 2.28215 25.8541 1.75412 26.4766 1.27761L26.5066 1.31625L26.4766 1.2819C27.524 0.431913 28.696 0.00262451 29.9796 0.00262451C30.5033 0.00262451 30.997 0.0670178 31.4263 0.182926L31.5036 0.20439L30.3316 1.41069L30.3015 1.39781C29.6705 1.12307 29.1382 0.994281 28.7046 0.994281C27.8675 0.994281 27.2493 1.29908 26.8329 1.8872C26.3993 2.49679 26.0258 3.65158 25.6824 5.36015L24.4246 11.6578C24.2958 12.276 24.2443 12.6666 24.2443 12.8384C24.2529 13.1689 24.3645 13.2891 24.6564 13.2977C25.163 13.2977 25.9657 12.7396 27.0046 11.5677L27.1162 11.4389L26.9316 12.3533L26.923 12.3618C25.7597 13.6197 24.7079 14.2507 23.7721 14.2507C22.9865 14.2507 22.5701 13.83 22.5658 12.9972C22.5658 12.731 22.6302 12.2889 22.7632 11.6363L23.1539 9.67879L23.2011 9.68738L23.2483 9.69596L22.8577 11.6535C22.7289 12.306 22.6645 12.7439 22.6645 12.9972C22.6731 13.7957 23.0251 14.152 23.7764 14.1563C24.6693 14.1563 25.7039 13.5467 26.8587 12.2975L26.893 12.3275L26.8458 12.3189L26.9917 11.5848L27.039 11.5934L27.0733 11.6235C26.0258 12.7997 25.2274 13.3793 24.6564 13.3836C24.3258 13.3836 24.1541 13.1861 24.1541 12.8298C24.1541 12.6452 24.2056 12.2502 24.3344 11.6278L25.5922 5.33439C25.9357 3.61724 26.3092 2.45816 26.7599 1.8271C27.1935 1.21322 27.846 0.891252 28.7046 0.895545C29.1553 0.895545 29.6962 1.02862 30.3359 1.30766L30.3187 1.35059L30.2844 1.31625L31.3791 0.191512L31.4134 0.225855L31.4005 0.268784C30.9798 0.157168 30.4947 0.0927751 29.9753 0.0927751C28.7132 0.0927751 27.567 0.513478 26.5281 1.33771C25.9142 1.80564 25.442 2.32508 25.1029 2.87457C24.7637 3.42406 24.4375 4.21824 24.1284 5.27858L24.1198 5.31293H24.0854C22.9779 5.31293 22.1322 5.39449 21.5526 5.55762C20.9731 5.72075 20.3893 6.02555 19.8226 6.49347C18.9469 7.20609 18.2514 8.06467 17.6976 9.12072C17.1438 10.1596 16.8691 11.147 16.8691 12.1C16.8777 13.4909 17.4186 14.152 18.5176 14.1563C19.2345 14.1563 20.0072 13.7399 20.8314 12.9156C21.6728 12.0742 22.3898 11.001 23.0079 9.66591L23.0208 9.64016H23.2526L23.2397 9.69596L23.1925 9.68738L23.2097 9.69167Z" fill="#2792D0"/>
<path d="M34.7447 6.49347L34.7275 6.5364C34.0621 6.24448 33.4182 6.09852 32.7571 6.09852C31.817 6.09852 31.0528 6.69953 30.4819 7.89724C29.7993 9.34395 29.4602 10.6275 29.4602 11.7737C29.4644 12.6022 29.6963 12.98 30.147 12.9843C30.572 12.9843 31.2417 12.5078 32.0874 11.5505C32.9503 10.5889 33.6972 9.50278 34.3498 8.27931L34.3927 8.30078L34.3455 8.29219L34.7061 6.48059L34.7533 6.48918L34.7361 6.53211L34.7533 6.48918L34.8005 6.49776L34.4399 8.31365C33.7874 9.54571 33.0318 10.6404 32.1647 11.6063C31.3104 12.5722 30.645 13.0702 30.1556 13.0745C29.6276 13.0745 29.3743 12.6065 29.3743 11.7737C29.3743 10.6061 29.7177 9.3096 30.4046 7.85432C30.9798 6.63943 31.7783 5.99979 32.7614 5.99979C33.4354 5.99979 34.0965 6.15004 34.7705 6.44196L34.8048 6.45483L34.7962 6.49347L34.749 6.48488L34.7447 6.49347ZM34.1094 9.69167V9.73889H33.9634V9.69167L34.0063 9.71314C33.3839 11.0525 32.6627 12.1343 31.8127 12.9886C30.9755 13.8257 30.1857 14.2593 29.4301 14.2593C28.2796 14.2593 27.6872 13.5209 27.6872 12.1086C27.6872 11.1384 27.9662 10.1338 28.5243 9.08637C29.0824 8.02174 29.7864 7.15028 30.6708 6.42908C31.246 5.95257 31.8384 5.63919 32.4308 5.47606C33.0233 5.31293 33.8775 5.23136 34.9894 5.23136V5.27858L34.9465 5.2657C35.2556 4.20107 35.5861 3.40259 35.9295 2.84022C36.2773 2.28215 36.7538 1.75412 37.3762 1.27761L37.4063 1.31625L37.3762 1.2819C38.4237 0.431913 39.5914 0.00262451 40.8749 0.00262451C41.3987 0.00262451 41.8924 0.0670178 42.3216 0.182926L42.3989 0.20439L41.227 1.41069L41.1969 1.39781C40.5659 1.12307 40.0335 0.994281 39.6 0.994281C38.7628 0.994281 38.1447 1.29908 37.7283 1.8872C37.2947 2.49679 36.9212 3.65158 36.5778 5.36015L35.3199 11.6578C35.1912 12.276 35.1396 12.6666 35.1396 12.8384C35.1482 13.1689 35.2598 13.2891 35.5518 13.2977C36.0583 13.2977 36.8611 12.7396 37.9 11.5677L38.0159 11.4389L37.8313 12.3533L37.8227 12.3618C36.6593 13.6197 35.6076 14.2507 34.6717 14.2507C33.8861 14.2507 33.4697 13.83 33.4654 12.9972C33.4654 12.731 33.5298 12.2889 33.6629 11.6363L34.0535 9.67879L34.1008 9.68738L34.148 9.69596L33.7573 11.6535C33.6286 12.306 33.5642 12.7439 33.5642 12.9972C33.5727 13.7957 33.9248 14.152 34.676 14.1563C35.5689 14.1563 36.6035 13.5467 37.7583 12.2975L37.7927 12.3275L37.7454 12.3189L37.8914 11.5848L37.9386 11.5934L37.973 11.6235C36.9255 12.7997 36.127 13.3793 35.5561 13.3836C35.2255 13.3836 35.0538 13.1861 35.0538 12.8298C35.0538 12.6452 35.1053 12.2502 35.2341 11.6278L36.4919 5.33439C36.8353 3.61724 37.2088 2.45816 37.6596 1.8271C38.0932 1.21322 38.7457 0.891252 39.6042 0.895545C40.055 0.895545 40.5959 1.02862 41.2355 1.30766L41.2184 1.35059L41.184 1.31625L42.2787 0.191512L42.3131 0.225855L42.3002 0.268784C41.8795 0.157168 41.3944 0.0927751 40.8749 0.0927751C39.6128 0.0927751 38.4666 0.513478 37.4278 1.33771C36.8139 1.80564 36.3417 2.32508 36.0025 2.87457C35.6634 3.42406 35.3371 4.21824 35.028 5.27858L35.0194 5.31293H34.9851C33.8775 5.31293 33.0318 5.39449 32.4523 5.55762C31.8728 5.72075 31.2889 6.02555 30.7223 6.49347C29.8465 7.20609 29.1511 8.06467 28.5973 9.12072C28.0435 10.1596 27.7688 11.147 27.7688 12.1C27.7773 13.4909 28.3182 14.152 29.4172 14.1563C30.1341 14.1563 30.9069 13.7399 31.7311 12.9156C32.5725 12.0742 33.2894 11.001 33.9076 9.66591L33.9205 9.64016H34.1523L34.1394 9.69596L34.0922 9.68738L34.1094 9.69167Z" fill="#2792D0"/>
<path d="M50.7142 14.2078H50.667L50.7142 12.1343H50.7615H50.7142C50.7142 8.00886 50.3365 5.15838 49.5938 3.57431C48.7953 1.90008 47.8466 1.07155 46.7175 1.07155C45.713 1.07155 44.8115 1.72407 44.0173 3.0377L43.9959 3.07633L43.5065 2.81876L43.5322 2.77583C44.7085 0.94706 46.0092 0.00262451 47.4345 0.00262451C50.813 0.0112103 52.4829 3.8834 52.4872 11.5333H52.44L52.4013 11.5076L54.947 7.51088C56.4967 5.10257 57.2609 3.59148 57.2566 3.01623C57.2566 2.8531 57.0591 2.75437 56.5869 2.75437H55.8957L56.0117 2.17053H59.5318L59.3944 2.75437H58.729L51.5728 14.0532L50.6627 14.2679V14.2078H50.7099L50.7014 14.1606L51.5127 13.9674L58.6775 2.65992H59.3172L59.4116 2.26498H56.0846L56.0074 2.65992H56.5869C57.0591 2.65992 57.3424 2.75437 57.351 3.01623C57.351 3.64729 56.5783 5.14121 55.0286 7.55811L52.397 11.6879V11.529C52.397 7.70836 51.9763 4.84071 51.1435 2.93896C50.3107 1.03292 49.0786 0.097068 47.4345 0.0927751C46.0564 0.0927751 44.7772 1.00716 43.6095 2.82734L43.5709 2.80159L43.5923 2.75866L44.0002 2.96901L43.9787 3.01194L43.9401 2.98618C44.7428 1.65968 45.6701 0.972817 46.7218 0.972817C47.9067 0.972817 48.8812 1.83998 49.6839 3.52709C50.4395 5.14121 50.813 7.99598 50.813 12.1257L50.7657 14.1992H50.7185L50.7099 14.152L50.7185 14.1992L50.7142 14.2078Z" fill="#2792D0"/>
<path d="M65.6019 6.49344L65.5847 6.53637C64.9193 6.24446 64.2582 6.0985 63.6143 6.0985C62.6741 6.0985 61.91 6.6995 61.339 7.89722C60.6565 9.34392 60.3173 10.6275 60.3173 11.7737C60.3216 12.6022 60.5534 12.98 61.0042 12.9843C61.4292 12.9843 62.0989 12.5078 62.9446 11.5633C63.8075 10.606 64.5544 9.51564 65.2069 8.27928L65.2499 8.30075L65.2026 8.29216L65.5632 6.48056L65.6105 6.48915L65.5933 6.53208L65.6105 6.48915L65.6577 6.49774L65.2971 8.31363C64.6446 9.56286 63.889 10.6575 63.0219 11.6234C62.1676 12.5722 61.5022 13.0701 61.0128 13.0744C60.4848 13.0744 60.2315 12.6065 60.2315 11.7737C60.2315 10.606 60.5749 9.30958 61.2618 7.85429C61.837 6.6394 62.6355 5.99976 63.6186 5.99976C64.2797 5.99976 64.9537 6.15001 65.6276 6.44193L65.662 6.45481L65.6534 6.49344L65.6062 6.48486L65.6019 6.49344ZM64.9665 9.69164V9.73887H64.8206V9.69164L64.8635 9.70882C64.2582 11.0353 63.537 12.13 62.6827 12.9843C61.8284 13.8214 61.0385 14.255 60.2701 14.255C59.1368 14.255 58.5444 13.5166 58.5444 12.1042C58.5444 10.5416 59.1711 9.03054 60.4161 7.54091C61.6953 5.99976 63.2623 5.22275 65.1168 5.22275C65.868 5.22275 66.6708 5.25709 67.5036 5.32148H67.5594L66.9756 7.7255L66.1943 11.6535L66.1471 11.6449L66.1943 11.6535C66.0784 12.2717 66.014 12.6795 66.014 12.8512C66.0226 13.1603 66.1471 13.2891 66.439 13.2934C66.9284 13.2934 67.7311 12.7353 68.77 11.5633L68.8773 11.4388L68.7142 12.3489L68.7056 12.3575C67.5294 13.6153 66.4776 14.2464 65.5418 14.2464C64.7562 14.2464 64.3398 13.8257 64.3355 12.9929C64.3355 12.7267 64.3999 12.2674 64.5329 11.6277L64.9236 9.67018L64.9708 9.67877L65.018 9.68735L64.6274 11.6449C64.4986 12.2803 64.4342 12.7353 64.4342 12.9886C64.4428 13.7871 64.7948 14.1434 65.5461 14.1477C66.439 14.1477 67.4736 13.5381 68.6455 12.2845L68.6799 12.3146L68.6327 12.306L68.7614 11.5719L68.8087 11.5805L68.843 11.6106C67.7955 12.7868 66.9971 13.3664 66.4433 13.3706C66.117 13.3706 65.9238 13.1775 65.9238 12.834C65.9238 12.6452 65.9882 12.2416 66.1041 11.6192L66.8854 7.68687L67.4564 5.33866L67.4993 5.35153V5.39876C66.6665 5.33436 65.868 5.30002 65.1168 5.30002C63.288 5.30002 61.7555 6.05986 60.4891 7.58384C59.2527 9.06059 58.6388 10.5502 58.6388 12.0871C58.6474 13.478 59.1883 14.1391 60.2744 14.1434C61.0042 14.1434 61.7812 13.727 62.6226 12.9027C63.464 12.0613 64.1809 10.9709 64.7819 9.65301L64.7948 9.62725H65.0266L65.0138 9.68306L64.9665 9.67447V9.69164Z" fill="#2792D0"/>
<path d="M81.9792 9.68738V9.7346H81.8332V9.68738L81.8761 9.70884C80.3736 12.7267 78.9012 14.2464 77.4287 14.2507C76.5573 14.2507 76.1108 13.7098 76.1108 12.7053C76.1108 12.4091 76.1451 12.0442 76.2439 11.6192L76.2911 11.6278L76.2439 11.6192L77.0123 7.70406C77.1411 7.10306 77.1926 6.69524 77.1926 6.52352C77.184 6.21014 77.0767 6.08994 76.7676 6.08135C76.2954 6.07706 75.4926 6.63943 74.4366 7.81139L74.325 7.93588L74.5053 7.02579L74.5138 7.0172C75.6772 5.75939 76.729 5.12833 77.6777 5.12833C78.4633 5.12833 78.8625 5.55333 78.8668 6.36468C78.8668 6.63084 78.8153 7.09018 78.6865 7.72982L77.9052 11.6449L77.858 11.6363L77.9052 11.6449C77.8408 12.0055 77.7893 12.2502 77.7936 12.3876C77.8022 12.8212 77.9396 12.9886 78.2186 12.9929C78.5921 12.9972 79.1974 12.5207 79.9916 11.5591C80.8029 10.5975 81.5542 9.47703 82.2196 8.20633L82.2625 8.2278L82.2153 8.21921L82.7948 5.3301L84.5892 5.22707L83.9882 7.73412L83.2069 11.6621C83.0781 12.2803 83.0266 12.6709 83.0266 12.8598C83.0352 13.1732 83.1425 13.2934 83.4516 13.302C83.941 13.3063 84.7266 12.7439 85.7827 11.572L85.8943 11.4475L85.7097 12.3576L85.7011 12.3661C84.5377 13.624 83.486 14.255 82.5372 14.255C81.7516 14.255 81.3524 13.83 81.3481 13.0015C81.3481 12.7353 81.3996 12.276 81.5284 11.6363L81.9362 9.67879L81.9835 9.68738L82.0307 9.69596L81.6229 11.6535C81.4941 12.2889 81.4426 12.7439 81.4426 12.9972C81.4511 13.8 81.7903 14.152 82.5372 14.1563C83.443 14.1563 84.4819 13.5467 85.6367 12.2975L85.671 12.3275L85.6238 12.3189L85.7698 11.5848L85.817 11.5934L85.8513 11.6235C84.7867 12.7997 84.0054 13.3793 83.4516 13.3836C83.1082 13.3836 82.9322 13.1861 82.9322 12.8469C82.9322 12.6452 82.9837 12.2502 83.1125 11.6321L83.8938 7.69977L84.4647 5.31293L82.8678 5.40308L82.3011 8.2278C81.6314 9.50708 80.8802 10.6361 80.0602 11.602C79.2575 12.5636 78.6565 13.0659 78.2143 13.0702C77.8752 13.0702 77.6949 12.8212 77.6949 12.3704C77.6949 12.2159 77.7464 11.9712 77.8108 11.6106L78.5921 7.69548C78.7209 7.06013 78.7724 6.60509 78.7724 6.35181C78.7638 5.56621 78.4247 5.21419 77.6777 5.2056C76.7719 5.2056 75.733 5.81519 74.5782 7.06442L74.5439 7.03437L74.5911 7.04296L74.4452 7.77704L74.3979 7.76846L74.3636 7.73841C75.4282 6.56216 76.2224 5.98262 76.7633 5.97832C77.1067 5.97832 77.2828 6.1758 77.2828 6.51494C77.2828 6.69953 77.2312 7.11165 77.1025 7.71694L77.0552 7.70836L77.1025 7.71694L76.334 11.6321C76.2353 12.0528 76.2052 12.4091 76.2052 12.6967C76.2138 13.6798 76.6045 14.1434 77.433 14.152C78.8325 14.152 80.2964 12.6752 81.7946 9.66162L81.8075 9.63586H82.0393L82.0264 9.69167L81.9792 9.68309V9.68738ZM74.4366 11.5634L74.4838 11.572L74.3335 12.3017L74.325 12.3103C73.0671 13.6025 71.981 14.2464 71.0624 14.2507C70.2768 14.2507 69.8775 13.8085 69.8732 12.98C69.8732 12.6495 69.9376 12.1901 70.0535 11.6321L71.131 6.13716C71.5217 4.20536 72.2429 2.69426 73.3118 1.62963C74.3765 0.547821 75.6815 0.00262451 77.2098 0.00262451C77.7507 0.00262451 78.2272 0.0670178 78.6565 0.182926L78.7337 0.20439L77.5618 1.41069L77.5317 1.39781C76.9179 1.12307 76.3984 0.994281 75.952 0.994281C75.132 0.994281 74.5138 1.2819 74.0974 1.8872C73.681 2.49679 73.2861 3.65158 72.9469 5.37732L71.7063 11.6578C71.5775 12.276 71.5131 12.6709 71.5131 12.8555C71.5217 13.1646 71.6462 13.2934 71.9381 13.2977C72.2601 13.302 72.9555 12.8341 73.9772 11.8896C74.0545 11.8295 74.1876 11.6965 74.4022 11.529L74.501 11.4518L74.4752 11.572L74.428 11.5634L74.458 11.602C74.2477 11.7651 74.1189 11.8896 74.033 11.9583L74.003 11.924L74.033 11.9583C72.9984 12.907 72.3245 13.3836 71.9295 13.3878C71.6033 13.3878 71.4101 13.1947 71.4101 12.8512C71.4101 12.6452 71.4745 12.2545 71.6076 11.6363L72.8482 5.35586C73.1916 3.62582 73.5823 2.46245 74.0116 1.83139C74.4452 1.20034 75.0977 0.895545 75.9434 0.899838C76.407 0.899838 76.935 1.03292 77.5618 1.31196L77.5446 1.35488L77.5103 1.32054L78.605 0.195804L78.6393 0.230148L78.6264 0.273076C78.2057 0.161461 77.7378 0.097068 77.2012 0.097068C75.6944 0.097068 74.4194 0.629386 73.3676 1.69832C72.3159 2.75007 71.599 4.2397 71.2126 6.15863L70.1351 11.6535C70.0192 12.2073 69.9548 12.6623 69.9548 12.98C69.9634 13.7828 70.3025 14.152 71.0495 14.1563C71.9252 14.1563 72.9942 13.5295 74.2477 12.2459L74.282 12.2803L74.2348 12.2717L74.3808 11.5548L74.428 11.5634L74.458 11.602L74.428 11.5634H74.4366Z" fill="#2792D0"/>
<path d="M88.2468 10.1124V10.0651C89.4274 9.96641 90.3503 9.66162 91.0071 9.15935C91.664 8.6442 91.9816 7.99168 91.9816 7.17174C91.9773 6.38185 91.7069 6.01695 91.1488 6.01266C90.5349 6.01266 89.9253 6.42049 89.3458 7.26618C88.7448 8.10759 88.4057 9.04773 88.294 10.1167H88.2468V10.0651V10.1124L88.2039 10.1081C88.3198 9.02627 88.6632 8.06895 89.2728 7.21467C89.8652 6.36039 90.4963 5.92251 91.1531 5.92251C91.767 5.92251 92.0804 6.36897 92.0804 7.17603C92.0804 8.02173 91.7455 8.7086 91.0672 9.23662C90.389 9.75177 89.4488 10.0609 88.2554 10.1596H88.1996L88.2039 10.1081H88.2511L88.2468 10.1124ZM93.5142 11.8467L93.5614 11.8553L93.4455 12.4778L93.4283 12.4906C91.7284 13.6669 90.2859 14.2593 89.0796 14.2593C88.3198 14.2593 87.6845 13.9931 87.2036 13.4608C86.74 12.9156 86.491 12.2159 86.491 11.3745C86.491 9.86338 87.0663 8.44673 88.2296 7.12023C89.3758 5.79372 90.6122 5.11545 91.9344 5.11545C92.4195 5.11545 92.8102 5.28287 93.1107 5.62201L93.0763 5.65206L93.1107 5.62201C93.4155 5.94398 93.5657 6.37756 93.5657 6.8927C93.5657 7.923 93.0334 8.81592 91.9816 9.55859C90.9299 10.297 89.6806 10.6619 88.2382 10.6619V10.6146H88.2855L88.2683 10.9752H88.2211H88.2683C88.2769 12.5164 88.8221 13.2591 89.9339 13.2633C90.8955 13.2633 92.0804 12.7783 93.497 11.8209L93.5915 11.7565L93.57 11.8682L93.5228 11.8596L93.5485 11.8982C92.1276 12.8641 90.9299 13.3578 89.9339 13.3578C88.7663 13.3578 88.1781 12.5379 88.1738 10.9795L88.191 10.6189V10.576H88.2382C89.6678 10.576 90.8955 10.2197 91.9301 9.4899C92.9647 8.76011 93.4756 7.89724 93.4756 6.90129C93.4756 6.40331 93.3339 5.99549 93.0463 5.69499C92.7586 5.37731 92.4023 5.22277 91.9387 5.22277C90.6508 5.22277 89.4402 5.87958 88.3026 7.1975C87.1521 8.51112 86.5855 9.90202 86.5855 11.3917C86.5855 12.2159 86.8259 12.8856 87.2766 13.4179L87.2423 13.4479L87.2766 13.4179C87.7403 13.9287 88.3456 14.1863 89.0839 14.1863C90.2602 14.1863 91.6897 13.6068 93.3811 12.4348L93.4069 12.4735L93.3596 12.4649L93.4756 11.8596L93.5228 11.8682L93.5485 11.9068L93.5228 11.8682L93.5142 11.8467Z" fill="#2792D0"/>
<path d="M111.557 13.5209V13.4737C112.334 13.4737 113.004 12.9843 113.605 11.9798C114.189 10.9752 114.481 9.81186 114.481 8.48107C114.476 6.72098 113.97 5.88816 112.927 5.88387C112.184 5.88387 111.514 6.39043 110.913 7.42502C110.312 8.4639 110.008 9.62727 110.008 10.9237C110.012 12.6495 110.536 13.4694 111.562 13.4694V13.5638C110.467 13.5638 109.917 12.658 109.917 10.9237C109.917 9.6101 110.231 8.42955 110.836 7.3778C111.441 6.32604 112.141 5.78943 112.931 5.78943C114.043 5.78943 114.575 6.7124 114.575 8.47677C114.575 9.82045 114.279 11.0053 113.687 12.0227C113.081 13.0401 112.382 13.5638 111.557 13.5638V13.5166V13.5209ZM110.66 14.2078V14.255C109.947 14.255 109.342 13.9717 108.879 13.4222C108.398 12.877 108.166 12.1772 108.166 11.353C108.166 9.82474 108.758 8.39092 109.922 7.08159C111.085 5.78513 112.356 5.12403 113.742 5.12403C114.489 5.12403 115.108 5.39019 115.588 5.93968L115.554 5.96973L115.588 5.93968C116.086 6.472 116.318 7.17174 116.318 7.99597C116.318 9.6058 115.743 11.0396 114.575 12.3318C113.412 13.6111 112.107 14.255 110.66 14.255V14.1606C112.081 14.1606 113.356 13.5338 114.507 12.2674C115.657 10.9838 116.224 9.58005 116.224 7.99168C116.224 7.18462 116 6.51493 115.52 5.99978C115.056 5.47175 114.468 5.21847 113.742 5.21418C112.386 5.21418 111.145 5.85811 109.995 7.14169C108.844 8.43814 108.26 9.84621 108.26 11.353C108.26 12.1601 108.484 12.8341 108.952 13.3621C109.402 13.8901 109.973 14.1606 110.66 14.1606V14.2078ZM102.804 5.95256V5.99978H100.868L101.512 5.3215H102.881L103.336 3.06344L105.084 2.64703L104.56 5.3215H107.612L106.869 6.11998H106.848C106.165 6.03412 105.547 6.00407 105.028 6.00407H104.414L103.345 11.4131C103.229 11.9841 103.182 12.3747 103.182 12.5937C103.19 13.0058 103.336 13.1775 103.688 13.1818C104.234 13.1818 105.015 12.7525 106.007 11.9025L106.11 11.8166L105.934 12.6967L105.925 12.7053C104.895 13.7356 103.886 14.2507 102.924 14.2507C102.006 14.2507 101.525 13.7141 101.525 12.7053C101.525 12.3404 101.589 11.881 101.705 11.2757L102.765 5.93968L102.813 5.94826L102.86 5.95685L101.8 11.2886C101.684 11.8896 101.619 12.3447 101.619 12.6967C101.628 13.6798 102.049 14.1434 102.929 14.152C103.856 14.152 104.843 13.654 105.865 12.6323L105.899 12.6666L105.852 12.658L105.998 11.924L106.045 11.9325L106.075 11.9669C105.075 12.8169 104.289 13.2633 103.697 13.2676C103.302 13.2676 103.096 13.0229 103.096 12.5851C103.096 12.349 103.148 11.9583 103.259 11.3874L104.341 5.90104H105.032C105.556 5.90104 106.178 5.93539 106.865 6.01695V6.06417L106.827 6.03412L107.406 5.41165H104.457L104.976 2.76723L103.427 3.13642L102.967 5.41165H101.563L101.096 5.90534H102.873L102.86 5.96114L102.813 5.95256H102.804Z" fill="#2792D0"/>
<path d="M121.68 14.0103L121.646 13.9803L122.783 12.7911H123.277C123.886 12.7911 124.346 12.5979 124.629 12.2545L124.663 12.2846L124.625 12.2588C124.895 11.8939 125.157 11.1985 125.367 10.1553L126.183 6.07705C126.415 4.86217 126.973 3.85763 127.844 3.06774C128.699 2.27785 129.69 1.8829 130.794 1.8829C131.292 1.8829 131.871 2.05033 132.511 2.41093L132.541 2.4281L132.137 4.48869H131.541V4.43717C131.562 4.29121 131.562 4.1796 131.562 4.09803C131.554 3.11926 131.086 2.6685 130.077 2.65992C129.115 2.65992 128.458 3.47556 128.115 5.18413L127.381 8.85455C127.166 9.94924 126.857 10.8035 126.462 11.4002C126.067 11.9969 125.458 12.5207 124.638 12.98L124.616 12.9414V12.8942L129.068 12.9757V13.0229V12.9757C130.334 12.9757 131.45 12.6838 132.421 12.0871L132.515 12.0313L132.361 12.7568L132.348 12.7654C131.614 13.4179 131.038 13.8429 130.656 14.0275L130.635 13.9846L130.656 14.0275C130.27 14.2292 129.776 14.3108 129.15 14.3108L121.577 14.0618L121.65 13.9888L121.684 14.0189V13.9717L129.154 14.2164V14.2636V14.2164C129.768 14.2164 130.253 14.1348 130.618 13.9459C130.983 13.7699 131.554 13.3492 132.288 12.6967L132.318 12.731L132.27 12.7224L132.399 12.1171L132.446 12.1257L132.472 12.1644C131.485 12.774 130.352 13.0702 129.072 13.0702L124.449 12.9843L124.599 12.9027C125.41 12.4477 126.007 11.9326 126.393 11.353C126.78 10.7735 127.089 9.93207 127.299 8.84167L128.033 5.17126C128.372 3.4541 129.055 2.57406 130.085 2.57406C131.129 2.57406 131.665 3.0935 131.665 4.10662C131.665 4.18818 131.665 4.30409 131.648 4.45434H131.601V4.40283H132.069L132.451 2.44957L132.498 2.45815L132.476 2.49679C131.845 2.14048 131.283 1.98164 130.802 1.98164C129.72 1.98164 128.755 2.368 127.913 3.14501C127.055 3.92203 126.505 4.9051 126.282 6.10281L125.466 10.1811C125.252 11.2285 124.994 11.9326 124.706 12.3189C124.402 12.6924 123.912 12.8899 123.285 12.8899H122.83L121.719 14.0489L121.684 14.0189V13.9717V14.0189L121.68 14.0103Z" fill="#2792D0"/>
<path d="M135.207 19.2133L135.172 19.1832L136.336 17.9684L136.366 17.9812C136.864 18.1916 137.383 18.286 137.898 18.286C138.654 18.286 139.225 18.0328 139.624 17.5348C140.041 17.0239 140.332 16.1825 140.543 14.9934L142.05 5.9955H140.221L140.865 5.31722H142.2L142.208 5.24424C142.522 3.70309 143.226 2.43669 144.329 1.4665C145.424 0.496307 146.694 0.00262451 148.154 0.00262451C148.613 0.00262451 149.06 0.0498463 149.455 0.152876L149.532 0.170047L148.309 1.46221L148.279 1.44074C147.781 1.13595 147.283 0.989989 146.785 0.989989C145.995 0.989989 145.407 1.21322 145.042 1.67256C144.66 2.13619 144.333 2.9776 144.089 4.22683L143.87 5.31293H146.888L146.166 6.1114H146.141C145.475 6.02555 144.793 5.9955 144.106 5.9955H143.737L142.586 12.8083C142.226 14.8861 141.539 16.5088 140.47 17.6421C139.418 18.7926 138.1 19.355 136.503 19.355C136.091 19.355 135.649 19.3206 135.194 19.2562L135.104 19.2433L135.168 19.179L135.202 19.209L135.211 19.1618C135.666 19.2262 136.104 19.2605 136.507 19.2605C138.079 19.2605 139.367 18.711 140.405 17.5777C141.457 16.4616 142.14 14.856 142.496 12.7911L143.659 5.90105H144.106C144.793 5.90105 145.48 5.9354 146.149 6.01696V6.06418L146.111 6.03413L146.677 5.41166H143.758L143.999 4.21395C144.243 2.95613 144.57 2.10185 144.969 1.61675L145.003 1.6468L144.969 1.61675C145.355 1.12736 145.978 0.895545 146.785 0.899838C147.3 0.899838 147.815 1.05009 148.326 1.36347L148.3 1.40211L148.266 1.37206L149.408 0.165754L149.442 0.195804L149.429 0.238733C149.043 0.139997 148.605 0.0927751 148.15 0.0927751C146.707 0.0927751 145.467 0.577871 144.381 1.53089C143.295 2.48821 142.599 3.73314 142.29 5.25712L142.243 5.24853L142.29 5.25712L142.273 5.37303V5.41166H140.895L140.427 5.90534H142.153L140.629 15.0106C140.414 16.204 140.122 17.0583 139.688 17.5949C139.272 18.11 138.667 18.3805 137.89 18.3805C137.362 18.3805 136.834 18.2817 136.323 18.0671L136.34 18.0242L136.374 18.0542L135.232 19.2433L135.198 19.2133L135.207 19.1661L135.198 19.2133H135.207ZM136.602 3.78466L136.559 3.76319L137.087 2.67709L139.487 1.11448L138.727 2.74578L136.503 3.89198L136.563 3.76749L136.606 3.78895L136.585 3.74602L138.658 2.67709L139.268 1.37206L137.164 2.74578L136.649 3.81042L136.606 3.78895L136.585 3.74602L136.606 3.78895L136.602 3.78466ZM139.521 11.5977L139.568 11.6063L139.418 12.3533L139.409 12.3618C138.246 13.6197 137.194 14.2507 136.246 14.2507C135.46 14.2507 135.061 13.8257 135.056 12.9972C135.056 12.731 135.108 12.2717 135.237 11.6492L135.791 8.87602C135.937 8.09472 136.001 7.57528 136.001 7.31771C135.992 6.88412 135.855 6.69953 135.542 6.69524C135.31 6.69524 134.885 6.78968 134.267 6.96998L134.194 6.99145L134.314 6.39903L138.315 5.09399L137.692 7.71694L136.911 11.6492C136.782 12.2674 136.718 12.6623 136.718 12.8298C136.726 13.156 136.851 13.2805 137.143 13.2891C137.632 13.2891 138.435 12.731 139.491 11.5591L139.603 11.4346L139.568 11.602L139.521 11.5934L139.555 11.6235C138.491 12.7997 137.692 13.3793 137.139 13.3836C136.812 13.3836 136.619 13.1904 136.619 12.8298C136.619 12.6409 136.683 12.2502 136.817 11.6278L137.598 7.69548L138.182 5.23136L134.387 6.46771L134.292 6.93134L134.245 6.92276L134.232 6.87983C134.855 6.69953 135.28 6.60079 135.533 6.60079C135.902 6.60079 136.082 6.86695 136.087 7.31771C136.087 7.58386 136.022 8.1076 135.872 8.89319L135.318 11.6664C135.19 12.2846 135.138 12.7396 135.138 12.9929C135.147 13.7957 135.486 14.1477 136.233 14.152C137.139 14.152 138.177 13.5424 139.332 12.2932L139.367 12.3232L139.319 12.3146L139.465 11.5805L139.512 11.5891L139.547 11.6192L139.512 11.5891L139.521 11.5977Z" fill="#2792D0"/>
<path d="M148.575 10.1124V10.0651C149.755 9.96641 150.678 9.66162 151.335 9.15935C151.992 8.6442 152.309 7.99168 152.309 7.17174C152.305 6.38185 152.035 6.01695 151.477 6.01266C150.863 6.01266 150.253 6.42049 149.674 7.26618C149.073 8.10759 148.733 9.04773 148.622 10.1167H148.575V10.0651V10.1124L148.532 10.1081C148.648 9.02627 148.991 8.06895 149.601 7.21467C150.193 6.36039 150.824 5.92251 151.481 5.92251C152.095 5.92251 152.408 6.36897 152.408 7.17603C152.408 8.02173 152.073 8.7086 151.395 9.23662C150.717 9.75177 149.777 10.0609 148.583 10.1596H148.527L148.532 10.1081H148.579L148.575 10.1124ZM153.842 11.8467L153.889 11.8553L153.773 12.4778L153.756 12.4906C152.056 13.6669 150.614 14.2593 149.407 14.2593C148.648 14.2593 148.012 13.9931 147.531 13.4608C147.068 12.9156 146.819 12.2159 146.819 11.3745C146.819 9.86338 147.394 8.44673 148.557 7.12023C149.704 5.79372 150.94 5.11545 152.262 5.11545C152.747 5.11545 153.138 5.28287 153.438 5.62201L153.404 5.65206L153.438 5.62201C153.743 5.94398 153.893 6.37756 153.893 6.8927C153.893 7.923 153.361 8.81592 152.309 9.55859C151.258 10.297 150.008 10.6619 148.566 10.6619V10.6146H148.613L148.596 10.9752H148.549H148.596C148.605 12.5164 149.15 13.2591 150.262 13.2633C151.223 13.2633 152.408 12.7783 153.825 11.8209L153.919 11.7565L153.898 11.8682L153.851 11.8596L153.876 11.8982C152.455 12.8641 151.258 13.3578 150.262 13.3578C149.09 13.3578 148.506 12.5379 148.502 10.9795L148.519 10.6189V10.576H148.566C149.996 10.576 151.223 10.2197 152.258 9.4899C153.292 8.76011 153.803 7.89724 153.803 6.90129C153.803 6.40331 153.662 5.99549 153.374 5.69499C153.086 5.37731 152.73 5.22277 152.266 5.21848C150.979 5.21848 149.768 5.87529 148.63 7.19321C147.48 8.50683 146.913 9.89773 146.913 11.3874C146.913 12.2116 147.154 12.8813 147.604 13.4136L147.57 13.4437L147.604 13.4136C148.068 13.9245 148.673 14.182 149.412 14.182C150.588 14.182 152.017 13.6025 153.709 12.4305L153.735 12.4692L153.687 12.4606L153.803 11.8553L153.851 11.8639L153.876 11.9025L153.851 11.8639L153.842 11.8467Z" fill="#2792D0"/>
</svg>
