<svg width="199" height="75" viewBox="0 0 199 75" fill="none" xmlns="http://www.w3.org/2000/svg">
<path d="M4.056 9.144C3.4 9.144 2.812 8.984 2.292 8.664C1.78 8.336 1.372 7.868 1.068 7.26C0.772 6.652 0.624 5.92 0.624 5.064C0.624 4.216 0.776 3.488 1.08 2.88C1.384 2.272 1.8 1.804 2.328 1.476C2.856 1.148 3.452 0.983999 4.116 0.983999C4.596 0.983999 5.02 1.084 5.388 1.284C5.756 1.476 6.052 1.7 6.276 1.956L5.736 2.604C5.528 2.38 5.292 2.2 5.028 2.064C4.764 1.928 4.464 1.86 4.128 1.86C3.632 1.86 3.196 1.992 2.82 2.256C2.452 2.512 2.164 2.876 1.956 3.348C1.756 3.82 1.656 4.384 1.656 5.04C1.656 5.696 1.756 6.268 1.956 6.756C2.156 7.236 2.436 7.608 2.796 7.872C3.164 8.136 3.596 8.268 4.092 8.268C4.468 8.268 4.804 8.188 5.1 8.028C5.396 7.868 5.668 7.652 5.916 7.38L6.468 8.004C6.156 8.364 5.804 8.644 5.412 8.844C5.02 9.044 4.568 9.144 4.056 9.144ZM7.83947 9V0.456H8.82347V2.784L8.78747 3.984C9.06747 3.72 9.35947 3.496 9.66347 3.312C9.97547 3.12 10.3315 3.024 10.7315 3.024C11.3475 3.024 11.7955 3.22 12.0755 3.612C12.3635 3.996 12.5075 4.56 12.5075 5.304V9H11.5235V5.436C11.5235 4.892 11.4355 4.496 11.2595 4.248C11.0835 4 10.8035 3.876 10.4195 3.876C10.1235 3.876 9.85547 3.952 9.61547 4.104C9.38347 4.256 9.11947 4.48 8.82347 4.776V9H7.83947ZM16.7308 9.144C16.2108 9.144 15.7388 9.024 15.3148 8.784C14.8908 8.536 14.5548 8.184 14.3068 7.728C14.0588 7.272 13.9348 6.728 13.9348 6.096C13.9348 5.456 14.0588 4.908 14.3068 4.452C14.5628 3.996 14.8908 3.644 15.2908 3.396C15.6908 3.148 16.1108 3.024 16.5508 3.024C17.2948 3.024 17.8668 3.272 18.2668 3.768C18.6748 4.264 18.8788 4.928 18.8788 5.76C18.8788 5.864 18.8748 5.968 18.8668 6.072C18.8668 6.168 18.8588 6.252 18.8428 6.324H14.9068C14.9468 6.94 15.1388 7.432 15.4828 7.8C15.8348 8.168 16.2908 8.352 16.8508 8.352C17.1308 8.352 17.3868 8.312 17.6188 8.232C17.8588 8.144 18.0868 8.032 18.3028 7.896L18.6508 8.544C18.4028 8.704 18.1188 8.844 17.7988 8.964C17.4868 9.084 17.1308 9.144 16.7308 9.144ZM14.8948 5.616H18.0148C18.0148 5.024 17.8868 4.576 17.6308 4.272C17.3828 3.96 17.0308 3.804 16.5748 3.804C16.1668 3.804 15.7988 3.964 15.4708 4.284C15.1508 4.596 14.9588 5.04 14.8948 5.616ZM22.6239 9.144C22.1119 9.144 21.6479 9.024 21.2319 8.784C20.8159 8.544 20.4879 8.196 20.2479 7.74C20.0079 7.284 19.8879 6.736 19.8879 6.096C19.8879 5.44 20.0159 4.884 20.2719 4.428C20.5359 3.972 20.8799 3.624 21.3039 3.384C21.7359 3.144 22.1999 3.024 22.6959 3.024C23.0799 3.024 23.4079 3.092 23.6799 3.228C23.9599 3.364 24.1999 3.524 24.3999 3.708L23.8959 4.356C23.7279 4.204 23.5479 4.08 23.3559 3.984C23.1719 3.888 22.9639 3.84 22.7319 3.84C22.3799 3.84 22.0639 3.936 21.7839 4.128C21.5119 4.312 21.2959 4.576 21.1359 4.92C20.9839 5.256 20.9079 5.648 20.9079 6.096C20.9079 6.76 21.0719 7.3 21.3999 7.716C21.7359 8.124 22.1719 8.328 22.7079 8.328C22.9799 8.328 23.2319 8.272 23.4639 8.16C23.6959 8.04 23.8999 7.9 24.0759 7.74L24.5079 8.4C24.2439 8.632 23.9519 8.816 23.6319 8.952C23.3119 9.08 22.9759 9.144 22.6239 9.144ZM25.7926 9V0.456H26.7646V6.24H26.8006L29.2846 3.168H30.3766L28.4206 5.508L30.6406 9H29.5606L27.8566 6.192L26.7646 7.464V9H25.7926ZM39.6706 9.144C39.1986 9.144 38.7546 9.024 38.3386 8.784C37.9306 8.544 37.5986 8.196 37.3426 7.74C37.0946 7.284 36.9706 6.736 36.9706 6.096C36.9706 5.44 37.0946 4.884 37.3426 4.428C37.5986 3.972 37.9306 3.624 38.3386 3.384C38.7546 3.144 39.1986 3.024 39.6706 3.024C40.1506 3.024 40.5946 3.144 41.0026 3.384C41.4106 3.624 41.7386 3.972 41.9866 4.428C42.2426 4.884 42.3706 5.44 42.3706 6.096C42.3706 6.736 42.2426 7.284 41.9866 7.74C41.7386 8.196 41.4106 8.544 41.0026 8.784C40.5946 9.024 40.1506 9.144 39.6706 9.144ZM39.6706 8.328C40.1746 8.328 40.5786 8.124 40.8826 7.716C41.1946 7.3 41.3506 6.76 41.3506 6.096C41.3506 5.424 41.1946 4.88 40.8826 4.464C40.5786 4.048 40.1746 3.84 39.6706 3.84C39.1746 3.84 38.7706 4.048 38.4586 4.464C38.1466 4.88 37.9906 5.424 37.9906 6.096C37.9906 6.76 38.1466 7.3 38.4586 7.716C38.7706 8.124 39.1746 8.328 39.6706 8.328ZM45.6105 9.144C44.9945 9.144 44.5425 8.952 44.2545 8.568C43.9665 8.176 43.8225 7.608 43.8225 6.864V3.168H44.8185V6.732C44.8185 7.276 44.9025 7.672 45.0705 7.92C45.2465 8.168 45.5265 8.292 45.9105 8.292C46.2145 8.292 46.4825 8.216 46.7145 8.064C46.9545 7.904 47.2105 7.652 47.4825 7.308V3.168H48.4665V9H47.6505L47.5665 8.088H47.5305C47.2585 8.408 46.9705 8.664 46.6665 8.856C46.3625 9.048 46.0105 9.144 45.6105 9.144ZM52.2699 9.144C51.6459 9.144 51.2099 8.964 50.9619 8.604C50.7219 8.244 50.6019 7.776 50.6019 7.2V3.972H49.7379V3.228L50.6499 3.168L50.7699 1.536H51.5979V3.168H53.1699V3.972H51.5979V7.212C51.5979 7.572 51.6619 7.852 51.7899 8.052C51.9259 8.244 52.1619 8.34 52.4979 8.34C52.6019 8.34 52.7139 8.324 52.8339 8.292C52.9539 8.252 53.0619 8.216 53.1579 8.184L53.3499 8.928C53.1899 8.984 53.0139 9.032 52.8219 9.072C52.6379 9.12 52.4539 9.144 52.2699 9.144ZM62.4372 9.144C61.8852 9.144 61.3732 9.04 60.9012 8.832C60.4292 8.616 60.0212 8.332 59.6772 7.98L60.2772 7.284C60.5572 7.58 60.8852 7.82 61.2612 8.004C61.6452 8.18 62.0412 8.268 62.4492 8.268C62.9692 8.268 63.3732 8.152 63.6612 7.92C63.9492 7.68 64.0932 7.368 64.0932 6.984C64.0932 6.712 64.0332 6.496 63.9132 6.336C63.8012 6.176 63.6452 6.04 63.4452 5.928C63.2532 5.816 63.0332 5.704 62.7852 5.592L61.6572 5.1C61.4092 4.996 61.1612 4.86 60.9132 4.692C60.6732 4.524 60.4692 4.308 60.3012 4.044C60.1412 3.78 60.0612 3.456 60.0612 3.072C60.0612 2.672 60.1652 2.316 60.3732 2.004C60.5892 1.684 60.8852 1.436 61.2612 1.26C61.6372 1.076 62.0612 0.983999 62.5332 0.983999C63.0052 0.983999 63.4412 1.076 63.8412 1.26C64.2412 1.436 64.5812 1.668 64.8612 1.956L64.3212 2.604C64.0812 2.372 63.8132 2.192 63.5172 2.064C63.2292 1.928 62.9012 1.86 62.5332 1.86C62.0932 1.86 61.7372 1.964 61.4652 2.172C61.2012 2.38 61.0692 2.66 61.0692 3.012C61.0692 3.26 61.1332 3.468 61.2612 3.636C61.3972 3.796 61.5652 3.928 61.7652 4.032C61.9652 4.136 62.1692 4.232 62.3772 4.32L63.4932 4.8C63.7972 4.928 64.0692 5.084 64.3092 5.268C64.5572 5.444 64.7532 5.664 64.8972 5.928C65.0412 6.184 65.1132 6.508 65.1132 6.9C65.1132 7.316 65.0052 7.696 64.7892 8.04C64.5732 8.376 64.2652 8.644 63.8652 8.844C63.4652 9.044 62.9892 9.144 62.4372 9.144ZM69.6393 9.144C68.9833 9.144 68.3953 8.984 67.8753 8.664C67.3633 8.336 66.9553 7.868 66.6513 7.26C66.3553 6.652 66.2073 5.92 66.2073 5.064C66.2073 4.216 66.3593 3.488 66.6633 2.88C66.9673 2.272 67.3833 1.804 67.9113 1.476C68.4393 1.148 69.0353 0.983999 69.6993 0.983999C70.1793 0.983999 70.6033 1.084 70.9713 1.284C71.3393 1.476 71.6353 1.7 71.8593 1.956L71.3193 2.604C71.1113 2.38 70.8753 2.2 70.6113 2.064C70.3473 1.928 70.0473 1.86 69.7113 1.86C69.2153 1.86 68.7793 1.992 68.4033 2.256C68.0353 2.512 67.7473 2.876 67.5393 3.348C67.3393 3.82 67.2393 4.384 67.2393 5.04C67.2393 5.696 67.3393 6.268 67.5393 6.756C67.7393 7.236 68.0193 7.608 68.3793 7.872C68.7473 8.136 69.1793 8.268 69.6753 8.268C70.0513 8.268 70.3873 8.188 70.6833 8.028C70.9793 7.868 71.2513 7.652 71.4993 7.38L72.0513 8.004C71.7393 8.364 71.3873 8.644 70.9953 8.844C70.6033 9.044 70.1513 9.144 69.6393 9.144ZM76.0712 9.144C75.4152 9.144 74.8312 8.976 74.3192 8.64C73.8152 8.304 73.4192 7.828 73.1312 7.212C72.8512 6.596 72.7112 5.868 72.7112 5.028C72.7112 4.188 72.8512 3.468 73.1312 2.868C73.4192 2.26 73.8152 1.796 74.3192 1.476C74.8312 1.148 75.4152 0.983999 76.0712 0.983999C76.7352 0.983999 77.3192 1.148 77.8232 1.476C78.3272 1.796 78.7232 2.26 79.0112 2.868C79.2992 3.468 79.4432 4.188 79.4432 5.028C79.4432 5.868 79.2992 6.596 79.0112 7.212C78.7232 7.828 78.3272 8.304 77.8232 8.64C77.3192 8.976 76.7352 9.144 76.0712 9.144ZM76.0712 8.268C76.5432 8.268 76.9512 8.136 77.2952 7.872C77.6472 7.6 77.9192 7.224 78.1112 6.744C78.3032 6.256 78.3992 5.684 78.3992 5.028C78.3992 4.052 78.1872 3.28 77.7632 2.712C77.3392 2.144 76.7752 1.86 76.0712 1.86C75.3672 1.86 74.8032 2.144 74.3792 2.712C73.9552 3.28 73.7432 4.052 73.7432 5.028C73.7432 5.684 73.8392 6.256 74.0312 6.744C74.2232 7.224 74.4952 7.6 74.8472 7.872C75.1992 8.136 75.6072 8.268 76.0712 8.268ZM86.9726 6.096H89.3726V3.876C89.3726 3.668 89.3806 3.42 89.3966 3.132C89.4126 2.844 89.4246 2.6 89.4326 2.4H89.3846C89.2886 2.584 89.1886 2.764 89.0846 2.94C88.9806 3.116 88.8726 3.296 88.7606 3.48L86.9726 6.096ZM89.3726 9V6.888H85.9286V6.24L89.2046 1.344H90.3086V6.096H91.3526V6.888H90.3086V9H89.3726ZM95.8655 9.144C95.1775 9.144 94.5655 8.984 94.0295 8.664C93.4935 8.336 93.0735 7.868 92.7695 7.26C92.4655 6.652 92.3135 5.92 92.3135 5.064C92.3135 4.216 92.4695 3.488 92.7815 2.88C93.0935 2.272 93.5215 1.804 94.0655 1.476C94.6095 1.148 95.2295 0.983999 95.9255 0.983999C96.4695 0.983999 96.9255 1.088 97.2935 1.296C97.6695 1.496 97.9695 1.716 98.1935 1.956L97.6415 2.604C97.4415 2.396 97.2095 2.22 96.9455 2.076C96.6815 1.932 96.3495 1.86 95.9495 1.86C95.4215 1.86 94.9615 1.992 94.5695 2.256C94.1775 2.512 93.8735 2.876 93.6575 3.348C93.4495 3.82 93.3455 4.384 93.3455 5.04C93.3455 6.032 93.5695 6.82 94.0175 7.404C94.4735 7.98 95.1215 8.268 95.9615 8.268C96.2415 8.268 96.5095 8.228 96.7655 8.148C97.0215 8.06 97.2255 7.944 97.3775 7.8V5.748H95.7095V4.92H98.2895V8.232C98.0415 8.496 97.7055 8.716 97.2815 8.892C96.8655 9.06 96.3935 9.144 95.8655 9.144ZM105.748 9V0.456H106.732V2.784L106.696 3.984C106.976 3.72 107.268 3.496 107.572 3.312C107.884 3.12 108.24 3.024 108.64 3.024C109.256 3.024 109.704 3.22 109.984 3.612C110.272 3.996 110.416 4.56 110.416 5.304V9H109.432V5.436C109.432 4.892 109.344 4.496 109.168 4.248C108.992 4 108.712 3.876 108.328 3.876C108.032 3.876 107.764 3.952 107.524 4.104C107.292 4.256 107.028 4.48 106.732 4.776V9H105.748ZM114.544 9.144C114.072 9.144 113.628 9.024 113.212 8.784C112.804 8.544 112.472 8.196 112.216 7.74C111.968 7.284 111.844 6.736 111.844 6.096C111.844 5.44 111.968 4.884 112.216 4.428C112.472 3.972 112.804 3.624 113.212 3.384C113.628 3.144 114.072 3.024 114.544 3.024C115.024 3.024 115.468 3.144 115.876 3.384C116.284 3.624 116.612 3.972 116.86 4.428C117.116 4.884 117.244 5.44 117.244 6.096C117.244 6.736 117.116 7.284 116.86 7.74C116.612 8.196 116.284 8.544 115.876 8.784C115.468 9.024 115.024 9.144 114.544 9.144ZM114.544 8.328C115.048 8.328 115.452 8.124 115.756 7.716C116.068 7.3 116.224 6.76 116.224 6.096C116.224 5.424 116.068 4.88 115.756 4.464C115.452 4.048 115.048 3.84 114.544 3.84C114.048 3.84 113.644 4.048 113.332 4.464C113.02 4.88 112.864 5.424 112.864 6.096C112.864 6.76 113.02 7.3 113.332 7.716C113.644 8.124 114.048 8.328 114.544 8.328ZM120.416 9.144C119.792 9.144 119.356 8.964 119.108 8.604C118.868 8.244 118.748 7.776 118.748 7.2V3.972H117.884V3.228L118.796 3.168L118.916 1.536H119.744V3.168H121.316V3.972H119.744V7.212C119.744 7.572 119.808 7.852 119.936 8.052C120.072 8.244 120.308 8.34 120.644 8.34C120.748 8.34 120.86 8.324 120.98 8.292C121.1 8.252 121.208 8.216 121.304 8.184L121.496 8.928C121.336 8.984 121.16 9.032 120.968 9.072C120.784 9.12 120.6 9.144 120.416 9.144ZM128.304 11.46V3.168H129.12L129.204 3.84H129.24C129.504 3.616 129.792 3.424 130.104 3.264C130.424 3.104 130.756 3.024 131.1 3.024C131.852 3.024 132.424 3.296 132.816 3.84C133.208 4.376 133.404 5.096 133.404 6C133.404 6.656 133.284 7.22 133.044 7.692C132.812 8.164 132.504 8.524 132.12 8.772C131.744 9.02 131.332 9.144 130.884 9.144C130.612 9.144 130.34 9.084 130.068 8.964C129.804 8.844 129.536 8.68 129.264 8.472L129.288 9.492V11.46H128.304ZM130.716 8.316C131.196 8.316 131.592 8.112 131.904 7.704C132.224 7.288 132.384 6.72 132.384 6C132.384 5.36 132.264 4.844 132.024 4.452C131.792 4.052 131.4 3.852 130.848 3.852C130.6 3.852 130.348 3.92 130.092 4.056C129.844 4.192 129.576 4.388 129.288 4.644V7.704C129.552 7.928 129.808 8.088 130.056 8.184C130.304 8.272 130.524 8.316 130.716 8.316ZM136.14 9.144C135.652 9.144 135.244 9 134.916 8.712C134.596 8.416 134.436 8.008 134.436 7.488C134.436 6.848 134.72 6.36 135.288 6.024C135.864 5.68 136.772 5.44 138.012 5.304C138.012 5.056 137.976 4.82 137.904 4.596C137.84 4.372 137.72 4.192 137.544 4.056C137.376 3.912 137.132 3.84 136.812 3.84C136.476 3.84 136.16 3.904 135.864 4.032C135.568 4.16 135.304 4.304 135.072 4.464L134.688 3.78C134.96 3.604 135.292 3.436 135.684 3.276C136.084 3.108 136.516 3.024 136.98 3.024C137.692 3.024 138.208 3.244 138.528 3.684C138.848 4.116 139.008 4.696 139.008 5.424V9H138.192L138.108 8.304H138.072C137.8 8.528 137.5 8.724 137.172 8.892C136.852 9.06 136.508 9.144 136.14 9.144ZM136.428 8.352C136.708 8.352 136.972 8.284 137.22 8.148C137.468 8.012 137.732 7.82 138.012 7.572V5.952C137.044 6.072 136.364 6.252 135.972 6.492C135.588 6.732 135.396 7.04 135.396 7.416C135.396 7.744 135.496 7.984 135.696 8.136C135.896 8.28 136.14 8.352 136.428 8.352ZM143.147 9.144C142.635 9.144 142.171 9.024 141.755 8.784C141.339 8.544 141.011 8.196 140.771 7.74C140.531 7.284 140.411 6.736 140.411 6.096C140.411 5.44 140.539 4.884 140.795 4.428C141.059 3.972 141.403 3.624 141.827 3.384C142.259 3.144 142.723 3.024 143.219 3.024C143.603 3.024 143.931 3.092 144.203 3.228C144.483 3.364 144.723 3.524 144.923 3.708L144.419 4.356C144.251 4.204 144.071 4.08 143.879 3.984C143.695 3.888 143.487 3.84 143.255 3.84C142.903 3.84 142.587 3.936 142.307 4.128C142.035 4.312 141.819 4.576 141.659 4.92C141.507 5.256 141.431 5.648 141.431 6.096C141.431 6.76 141.595 7.3 141.923 7.716C142.259 8.124 142.695 8.328 143.231 8.328C143.503 8.328 143.755 8.272 143.987 8.16C144.219 8.04 144.423 7.9 144.599 7.74L145.031 8.4C144.767 8.632 144.475 8.816 144.155 8.952C143.835 9.08 143.499 9.144 143.147 9.144ZM146.315 9V0.456H147.287V6.24H147.323L149.807 3.168H150.899L148.943 5.508L151.163 9H150.083L148.379 6.192L147.287 7.464V9H146.315ZM153.484 9.144C152.996 9.144 152.588 9 152.26 8.712C151.94 8.416 151.78 8.008 151.78 7.488C151.78 6.848 152.064 6.36 152.632 6.024C153.208 5.68 154.116 5.44 155.356 5.304C155.356 5.056 155.32 4.82 155.248 4.596C155.184 4.372 155.064 4.192 154.888 4.056C154.72 3.912 154.476 3.84 154.156 3.84C153.82 3.84 153.504 3.904 153.208 4.032C152.912 4.16 152.648 4.304 152.416 4.464L152.032 3.78C152.304 3.604 152.636 3.436 153.028 3.276C153.428 3.108 153.86 3.024 154.324 3.024C155.036 3.024 155.552 3.244 155.872 3.684C156.192 4.116 156.352 4.696 156.352 5.424V9H155.536L155.452 8.304H155.416C155.144 8.528 154.844 8.724 154.516 8.892C154.196 9.06 153.852 9.144 153.484 9.144ZM153.772 8.352C154.052 8.352 154.316 8.284 154.564 8.148C154.812 8.012 155.076 7.82 155.356 7.572V5.952C154.388 6.072 153.708 6.252 153.316 6.492C152.932 6.732 152.74 7.04 152.74 7.416C152.74 7.744 152.84 7.984 153.04 8.136C153.24 8.28 153.484 8.352 153.772 8.352ZM160.154 11.688C159.442 11.688 158.862 11.552 158.414 11.28C157.966 11.008 157.742 10.62 157.742 10.116C157.742 9.868 157.818 9.628 157.97 9.396C158.122 9.172 158.33 8.972 158.594 8.796V8.748C158.45 8.66 158.326 8.536 158.222 8.376C158.126 8.216 158.078 8.024 158.078 7.8C158.078 7.552 158.146 7.336 158.282 7.152C158.418 6.968 158.562 6.824 158.714 6.72V6.672C158.522 6.512 158.346 6.296 158.186 6.024C158.034 5.752 157.958 5.444 157.958 5.1C157.958 4.676 158.058 4.308 158.258 3.996C158.458 3.684 158.726 3.444 159.062 3.276C159.398 3.108 159.762 3.024 160.154 3.024C160.314 3.024 160.466 3.04 160.61 3.072C160.754 3.096 160.878 3.128 160.982 3.168H163.01V3.924H161.81C161.946 4.052 162.058 4.224 162.146 4.44C162.242 4.648 162.29 4.876 162.29 5.124C162.29 5.54 162.194 5.9 162.002 6.204C161.81 6.508 161.554 6.744 161.234 6.912C160.914 7.072 160.554 7.152 160.154 7.152C159.842 7.152 159.55 7.084 159.278 6.948C159.174 7.036 159.086 7.136 159.014 7.248C158.942 7.352 158.906 7.484 158.906 7.644C158.906 7.828 158.978 7.98 159.122 8.1C159.274 8.22 159.546 8.28 159.938 8.28H161.066C161.746 8.28 162.254 8.392 162.59 8.616C162.934 8.832 163.106 9.184 163.106 9.672C163.106 10.032 162.986 10.364 162.746 10.668C162.506 10.972 162.166 11.216 161.726 11.4C161.286 11.592 160.762 11.688 160.154 11.688ZM160.154 6.492C160.49 6.492 160.778 6.368 161.018 6.12C161.266 5.864 161.39 5.524 161.39 5.1C161.39 4.676 161.27 4.344 161.03 4.104C160.79 3.864 160.498 3.744 160.154 3.744C159.81 3.744 159.518 3.864 159.278 4.104C159.038 4.344 158.918 4.676 158.918 5.1C158.918 5.524 159.038 5.864 159.278 6.12C159.526 6.368 159.818 6.492 160.154 6.492ZM160.298 11.004C160.858 11.004 161.306 10.88 161.642 10.632C161.978 10.392 162.146 10.12 162.146 9.816C162.146 9.544 162.042 9.356 161.834 9.252C161.634 9.148 161.346 9.096 160.97 9.096H159.962C159.85 9.096 159.726 9.088 159.59 9.072C159.462 9.056 159.334 9.032 159.206 9C158.998 9.152 158.846 9.312 158.75 9.48C158.654 9.648 158.606 9.816 158.606 9.984C158.606 10.296 158.754 10.544 159.05 10.728C159.354 10.912 159.77 11.004 160.298 11.004ZM166.433 9.144C165.913 9.144 165.441 9.024 165.017 8.784C164.593 8.536 164.257 8.184 164.009 7.728C163.761 7.272 163.637 6.728 163.637 6.096C163.637 5.456 163.761 4.908 164.009 4.452C164.265 3.996 164.593 3.644 164.993 3.396C165.393 3.148 165.813 3.024 166.253 3.024C166.997 3.024 167.569 3.272 167.969 3.768C168.377 4.264 168.581 4.928 168.581 5.76C168.581 5.864 168.577 5.968 168.569 6.072C168.569 6.168 168.561 6.252 168.545 6.324H164.609C164.649 6.94 164.841 7.432 165.185 7.8C165.537 8.168 165.993 8.352 166.553 8.352C166.833 8.352 167.089 8.312 167.321 8.232C167.561 8.144 167.789 8.032 168.005 7.896L168.353 8.544C168.105 8.704 167.821 8.844 167.501 8.964C167.189 9.084 166.833 9.144 166.433 9.144ZM164.597 5.616H167.717C167.717 5.024 167.589 4.576 167.333 4.272C167.085 3.96 166.733 3.804 166.277 3.804C165.869 3.804 165.501 3.964 165.173 4.284C164.853 4.596 164.661 5.04 164.597 5.616ZM171.546 9.144C171.13 9.144 170.734 9.068 170.358 8.916C169.982 8.756 169.654 8.564 169.374 8.34L169.866 7.68C170.122 7.88 170.386 8.048 170.658 8.184C170.93 8.312 171.238 8.376 171.582 8.376C171.966 8.376 172.254 8.288 172.446 8.112C172.638 7.928 172.734 7.712 172.734 7.464C172.734 7.264 172.666 7.096 172.53 6.96C172.402 6.824 172.234 6.712 172.026 6.624C171.826 6.528 171.618 6.44 171.402 6.36C171.13 6.256 170.862 6.14 170.598 6.012C170.334 5.876 170.118 5.704 169.95 5.496C169.782 5.28 169.698 5.008 169.698 4.68C169.698 4.208 169.874 3.816 170.226 3.504C170.586 3.184 171.082 3.024 171.714 3.024C172.074 3.024 172.41 3.088 172.722 3.216C173.034 3.344 173.302 3.5 173.526 3.684L173.046 4.308C172.846 4.156 172.638 4.032 172.422 3.936C172.206 3.84 171.97 3.792 171.714 3.792C171.346 3.792 171.074 3.876 170.898 4.044C170.73 4.212 170.646 4.408 170.646 4.632C170.646 4.816 170.706 4.968 170.826 5.088C170.946 5.2 171.102 5.3 171.294 5.388C171.486 5.468 171.69 5.552 171.906 5.64C172.186 5.744 172.462 5.864 172.734 6C173.006 6.128 173.23 6.304 173.406 6.528C173.59 6.744 173.682 7.036 173.682 7.404C173.682 7.716 173.598 8.004 173.43 8.268C173.27 8.532 173.03 8.744 172.71 8.904C172.398 9.064 172.01 9.144 171.546 9.144ZM182.062 9.144C181.574 9.144 181.166 9 180.838 8.712C180.518 8.416 180.358 8.008 180.358 7.488C180.358 6.848 180.642 6.36 181.21 6.024C181.786 5.68 182.694 5.44 183.934 5.304C183.934 5.056 183.898 4.82 183.826 4.596C183.762 4.372 183.642 4.192 183.466 4.056C183.298 3.912 183.054 3.84 182.734 3.84C182.398 3.84 182.082 3.904 181.786 4.032C181.49 4.16 181.226 4.304 180.994 4.464L180.61 3.78C180.882 3.604 181.214 3.436 181.606 3.276C182.006 3.108 182.438 3.024 182.902 3.024C183.614 3.024 184.13 3.244 184.45 3.684C184.77 4.116 184.93 4.696 184.93 5.424V9H184.114L184.03 8.304H183.994C183.722 8.528 183.422 8.724 183.094 8.892C182.774 9.06 182.43 9.144 182.062 9.144ZM182.35 8.352C182.63 8.352 182.894 8.284 183.142 8.148C183.39 8.012 183.654 7.82 183.934 7.572V5.952C182.966 6.072 182.286 6.252 181.894 6.492C181.51 6.732 181.318 7.04 181.318 7.416C181.318 7.744 181.418 7.984 181.618 8.136C181.818 8.28 182.062 8.352 182.35 8.352ZM186.765 9V3.168H187.581L187.665 4.008H187.701C187.981 3.728 188.277 3.496 188.589 3.312C188.901 3.12 189.257 3.024 189.657 3.024C190.273 3.024 190.721 3.22 191.001 3.612C191.289 3.996 191.433 4.56 191.433 5.304V9H190.449V5.436C190.449 4.892 190.361 4.496 190.185 4.248C190.009 4 189.729 3.876 189.345 3.876C189.049 3.876 188.781 3.952 188.541 4.104C188.309 4.256 188.045 4.48 187.749 4.776V9H186.765ZM195.32 9.144C194.592 9.144 194.008 8.88 193.568 8.352C193.128 7.816 192.908 7.064 192.908 6.096C192.908 5.464 193.024 4.92 193.256 4.464C193.496 4 193.808 3.644 194.192 3.396C194.584 3.148 195 3.024 195.44 3.024C195.776 3.024 196.068 3.084 196.316 3.204C196.564 3.324 196.816 3.488 197.072 3.696L197.024 2.7V0.456H198.02V9H197.204L197.12 8.316H197.084C196.86 8.54 196.596 8.736 196.292 8.904C195.988 9.064 195.664 9.144 195.32 9.144ZM195.536 8.316C196.048 8.316 196.544 8.048 197.024 7.512V4.464C196.776 4.24 196.536 4.084 196.304 3.996C196.08 3.9 195.848 3.852 195.608 3.852C195.296 3.852 195.012 3.948 194.756 4.14C194.508 4.324 194.308 4.584 194.156 4.92C194.004 5.248 193.928 5.636 193.928 6.084C193.928 6.78 194.068 7.328 194.348 7.728C194.628 8.12 195.024 8.316 195.536 8.316ZM3.348 30.144C2.828 30.144 2.356 30.024 1.932 29.784C1.508 29.536 1.172 29.184 0.924 28.728C0.676 28.272 0.552 27.728 0.552 27.096C0.552 26.456 0.676 25.908 0.924 25.452C1.18 24.996 1.508 24.644 1.908 24.396C2.308 24.148 2.728 24.024 3.168 24.024C3.912 24.024 4.484 24.272 4.884 24.768C5.292 25.264 5.496 25.928 5.496 26.76C5.496 26.864 5.492 26.968 5.484 27.072C5.484 27.168 5.476 27.252 5.46 27.324H1.524C1.564 27.94 1.756 28.432 2.1 28.8C2.452 29.168 2.908 29.352 3.468 29.352C3.748 29.352 4.004 29.312 4.236 29.232C4.476 29.144 4.704 29.032 4.92 28.896L5.268 29.544C5.02 29.704 4.736 29.844 4.416 29.964C4.104 30.084 3.748 30.144 3.348 30.144ZM1.512 26.616H4.632C4.632 26.024 4.504 25.576 4.248 25.272C4 24.96 3.648 24.804 3.192 24.804C2.784 24.804 2.416 24.964 2.088 25.284C1.768 25.596 1.576 26.04 1.512 26.616ZM6.93713 30V24.168H7.75313L7.83713 25.008H7.87313C8.15313 24.728 8.44913 24.496 8.76113 24.312C9.07313 24.12 9.42913 24.024 9.82913 24.024C10.4451 24.024 10.8931 24.22 11.1731 24.612C11.4611 24.996 11.6051 25.56 11.6051 26.304V30H10.6211V26.436C10.6211 25.892 10.5331 25.496 10.3571 25.248C10.1811 25 9.90113 24.876 9.51713 24.876C9.22113 24.876 8.95313 24.952 8.71313 25.104C8.48113 25.256 8.21713 25.48 7.92113 25.776V30H6.93713ZM12.8996 32.604C12.7236 32.604 12.5636 32.588 12.4196 32.556C12.2676 32.524 12.1396 32.488 12.0356 32.448L12.2396 31.704C12.3116 31.728 12.3956 31.748 12.4916 31.764C12.5876 31.788 12.6876 31.8 12.7916 31.8C13.0796 31.8 13.2716 31.696 13.3676 31.488C13.4636 31.288 13.5116 31.012 13.5116 30.66V24.168H14.4956V30.66C14.4956 31.252 14.3756 31.724 14.1356 32.076C13.8956 32.428 13.4836 32.604 12.8996 32.604ZM13.9916 22.968C13.7996 22.968 13.6396 22.912 13.5116 22.8C13.3916 22.68 13.3316 22.52 13.3316 22.32C13.3316 22.128 13.3916 21.972 13.5116 21.852C13.6396 21.732 13.7996 21.672 13.9916 21.672C14.1836 21.672 14.3396 21.732 14.4596 21.852C14.5876 21.972 14.6516 22.128 14.6516 22.32C14.6516 22.52 14.5876 22.68 14.4596 22.8C14.3396 22.912 14.1836 22.968 13.9916 22.968ZM18.7325 30.144C18.2605 30.144 17.8165 30.024 17.4005 29.784C16.9925 29.544 16.6605 29.196 16.4045 28.74C16.1565 28.284 16.0325 27.736 16.0325 27.096C16.0325 26.44 16.1565 25.884 16.4045 25.428C16.6605 24.972 16.9925 24.624 17.4005 24.384C17.8165 24.144 18.2605 24.024 18.7325 24.024C19.2125 24.024 19.6565 24.144 20.0645 24.384C20.4725 24.624 20.8005 24.972 21.0485 25.428C21.3045 25.884 21.4325 26.44 21.4325 27.096C21.4325 27.736 21.3045 28.284 21.0485 28.74C20.8005 29.196 20.4725 29.544 20.0645 29.784C19.6565 30.024 19.2125 30.144 18.7325 30.144ZM18.7325 29.328C19.2365 29.328 19.6405 29.124 19.9445 28.716C20.2565 28.3 20.4125 27.76 20.4125 27.096C20.4125 26.424 20.2565 25.88 19.9445 25.464C19.6405 25.048 19.2365 24.84 18.7325 24.84C18.2365 24.84 17.8325 25.048 17.5205 25.464C17.2085 25.88 17.0525 26.424 17.0525 27.096C17.0525 27.76 17.2085 28.3 17.5205 28.716C17.8325 29.124 18.2365 29.328 18.7325 29.328ZM23.0175 32.508C22.8895 32.508 22.7655 32.496 22.6455 32.472C22.5335 32.448 22.4295 32.42 22.3335 32.388L22.5255 31.608C22.5895 31.624 22.6615 31.64 22.7415 31.656C22.8215 31.68 22.8975 31.692 22.9695 31.692C23.2975 31.692 23.5695 31.572 23.7855 31.332C24.0015 31.1 24.1695 30.804 24.2895 30.444L24.4215 30.012L22.0815 24.168H23.1015L24.2895 27.396C24.3775 27.644 24.4695 27.912 24.5655 28.2C24.6695 28.488 24.7655 28.768 24.8535 29.04H24.9015C24.9895 28.776 25.0735 28.5 25.1535 28.212C25.2335 27.924 25.3135 27.652 25.3935 27.396L26.4375 24.168H27.3975L25.2015 30.48C25.0655 30.864 24.9015 31.208 24.7095 31.512C24.5255 31.816 24.2935 32.056 24.0135 32.232C23.7415 32.416 23.4095 32.508 23.0175 32.508ZM39.2077 30.144C38.5837 30.144 38.1477 29.964 37.8997 29.604C37.6597 29.244 37.5397 28.776 37.5397 28.2V24.972H36.6757V24.228L37.5877 24.168L37.7077 22.536H38.5357V24.168H40.1077V24.972H38.5357V28.212C38.5357 28.572 38.5997 28.852 38.7277 29.052C38.8637 29.244 39.0997 29.34 39.4357 29.34C39.5397 29.34 39.6517 29.324 39.7717 29.292C39.8917 29.252 39.9997 29.216 40.0957 29.184L40.2877 29.928C40.1277 29.984 39.9517 30.032 39.7597 30.072C39.5757 30.12 39.3917 30.144 39.2077 30.144ZM41.4264 30V21.456H42.4104V23.784L42.3744 24.984C42.6544 24.72 42.9464 24.496 43.2504 24.312C43.5624 24.12 43.9184 24.024 44.3184 24.024C44.9344 24.024 45.3824 24.22 45.6624 24.612C45.9504 24.996 46.0944 25.56 46.0944 26.304V30H45.1104V26.436C45.1104 25.892 45.0224 25.496 44.8464 25.248C44.6704 25 44.3904 24.876 44.0064 24.876C43.7104 24.876 43.4424 24.952 43.2024 25.104C42.9704 25.256 42.7064 25.48 42.4104 25.776V30H41.4264ZM50.3177 30.144C49.7977 30.144 49.3257 30.024 48.9017 29.784C48.4777 29.536 48.1417 29.184 47.8937 28.728C47.6457 28.272 47.5217 27.728 47.5217 27.096C47.5217 26.456 47.6457 25.908 47.8937 25.452C48.1497 24.996 48.4777 24.644 48.8777 24.396C49.2777 24.148 49.6977 24.024 50.1377 24.024C50.8817 24.024 51.4537 24.272 51.8537 24.768C52.2617 25.264 52.4657 25.928 52.4657 26.76C52.4657 26.864 52.4617 26.968 52.4537 27.072C52.4537 27.168 52.4457 27.252 52.4297 27.324H48.4937C48.5337 27.94 48.7257 28.432 49.0697 28.8C49.4217 29.168 49.8777 29.352 50.4377 29.352C50.7177 29.352 50.9737 29.312 51.2057 29.232C51.4457 29.144 51.6737 29.032 51.8897 28.896L52.2377 29.544C51.9897 29.704 51.7057 29.844 51.3857 29.964C51.0737 30.084 50.7177 30.144 50.3177 30.144ZM48.4817 26.616H51.6017C51.6017 26.024 51.4737 25.576 51.2177 25.272C50.9697 24.96 50.6177 24.804 50.1617 24.804C49.7537 24.804 49.3857 24.964 49.0577 25.284C48.7377 25.596 48.5457 26.04 48.4817 26.616ZM62.7555 30V24.168H63.5715L63.6555 25.008H63.6915C63.9475 24.728 64.2275 24.496 64.5315 24.312C64.8355 24.12 65.1595 24.024 65.5035 24.024C65.9515 24.024 66.2995 24.124 66.5475 24.324C66.8035 24.516 66.9915 24.788 67.1115 25.14C67.4155 24.812 67.7235 24.544 68.0355 24.336C68.3475 24.128 68.6795 24.024 69.0315 24.024C69.6315 24.024 70.0755 24.22 70.3635 24.612C70.6595 24.996 70.8075 25.56 70.8075 26.304V30H69.8235V26.436C69.8235 25.892 69.7355 25.496 69.5595 25.248C69.3835 25 69.1115 24.876 68.7435 24.876C68.3115 24.876 67.8235 25.176 67.2795 25.776V30H66.2955V26.436C66.2955 25.892 66.2075 25.496 66.0315 25.248C65.8555 25 65.5795 24.876 65.2035 24.876C64.7715 24.876 64.2835 25.176 63.7395 25.776V30H62.7555ZM74.9727 30.144C74.5007 30.144 74.0567 30.024 73.6407 29.784C73.2327 29.544 72.9007 29.196 72.6447 28.74C72.3967 28.284 72.2727 27.736 72.2727 27.096C72.2727 26.44 72.3967 25.884 72.6447 25.428C72.9007 24.972 73.2327 24.624 73.6407 24.384C74.0567 24.144 74.5007 24.024 74.9727 24.024C75.4527 24.024 75.8967 24.144 76.3047 24.384C76.7127 24.624 77.0407 24.972 77.2887 25.428C77.5447 25.884 77.6727 26.44 77.6727 27.096C77.6727 27.736 77.5447 28.284 77.2887 28.74C77.0407 29.196 76.7127 29.544 76.3047 29.784C75.8967 30.024 75.4527 30.144 74.9727 30.144ZM74.9727 29.328C75.4767 29.328 75.8807 29.124 76.1847 28.716C76.4967 28.3 76.6527 27.76 76.6527 27.096C76.6527 26.424 76.4967 25.88 76.1847 25.464C75.8807 25.048 75.4767 24.84 74.9727 24.84C74.4767 24.84 74.0727 25.048 73.7607 25.464C73.4487 25.88 73.2927 26.424 73.2927 27.096C73.2927 27.76 73.4487 28.3 73.7607 28.716C74.0727 29.124 74.4767 29.328 74.9727 29.328ZM80.7326 30.144C80.3166 30.144 79.9206 30.068 79.5446 29.916C79.1686 29.756 78.8406 29.564 78.5606 29.34L79.0526 28.68C79.3086 28.88 79.5726 29.048 79.8446 29.184C80.1166 29.312 80.4246 29.376 80.7686 29.376C81.1526 29.376 81.4406 29.288 81.6326 29.112C81.8246 28.928 81.9206 28.712 81.9206 28.464C81.9206 28.264 81.8526 28.096 81.7166 27.96C81.5886 27.824 81.4206 27.712 81.2126 27.624C81.0126 27.528 80.8046 27.44 80.5886 27.36C80.3166 27.256 80.0486 27.14 79.7846 27.012C79.5206 26.876 79.3046 26.704 79.1366 26.496C78.9686 26.28 78.8846 26.008 78.8846 25.68C78.8846 25.208 79.0606 24.816 79.4126 24.504C79.7726 24.184 80.2686 24.024 80.9006 24.024C81.2606 24.024 81.5966 24.088 81.9086 24.216C82.2206 24.344 82.4886 24.5 82.7126 24.684L82.2326 25.308C82.0326 25.156 81.8246 25.032 81.6086 24.936C81.3926 24.84 81.1566 24.792 80.9006 24.792C80.5326 24.792 80.2606 24.876 80.0846 25.044C79.9166 25.212 79.8326 25.408 79.8326 25.632C79.8326 25.816 79.8926 25.968 80.0126 26.088C80.1326 26.2 80.2886 26.3 80.4806 26.388C80.6726 26.468 80.8766 26.552 81.0926 26.64C81.3726 26.744 81.6486 26.864 81.9206 27C82.1926 27.128 82.4166 27.304 82.5926 27.528C82.7766 27.744 82.8686 28.036 82.8686 28.404C82.8686 28.716 82.7846 29.004 82.6166 29.268C82.4566 29.532 82.2166 29.744 81.8966 29.904C81.5846 30.064 81.1966 30.144 80.7326 30.144ZM85.8376 30.144C85.2136 30.144 84.7776 29.964 84.5296 29.604C84.2896 29.244 84.1696 28.776 84.1696 28.2V24.972H83.3056V24.228L84.2176 24.168L84.3376 22.536H85.1656V24.168H86.7376V24.972H85.1656V28.212C85.1656 28.572 85.2296 28.852 85.3576 29.052C85.4936 29.244 85.7296 29.34 86.0656 29.34C86.1696 29.34 86.2816 29.324 86.4016 29.292C86.5216 29.252 86.6296 29.216 86.7256 29.184L86.9176 29.928C86.7576 29.984 86.5816 30.032 86.3896 30.072C86.2056 30.12 86.0216 30.144 85.8376 30.144ZM99.2689 30.144C98.7489 30.144 98.2769 30.024 97.8529 29.784C97.4289 29.536 97.0929 29.184 96.8449 28.728C96.5969 28.272 96.4729 27.728 96.4729 27.096C96.4729 26.456 96.5969 25.908 96.8449 25.452C97.1009 24.996 97.4289 24.644 97.8289 24.396C98.2289 24.148 98.6489 24.024 99.0889 24.024C99.8329 24.024 100.405 24.272 100.805 24.768C101.213 25.264 101.417 25.928 101.417 26.76C101.417 26.864 101.413 26.968 101.405 27.072C101.405 27.168 101.397 27.252 101.381 27.324H97.4449C97.4849 27.94 97.6769 28.432 98.0209 28.8C98.3729 29.168 98.8289 29.352 99.3889 29.352C99.6689 29.352 99.9249 29.312 100.157 29.232C100.397 29.144 100.625 29.032 100.841 28.896L101.189 29.544C100.941 29.704 100.657 29.844 100.337 29.964C100.025 30.084 99.6689 30.144 99.2689 30.144ZM97.4329 26.616H100.553C100.553 26.024 100.425 25.576 100.169 25.272C99.9209 24.96 99.5689 24.804 99.1129 24.804C98.7049 24.804 98.3369 24.964 98.0089 25.284C97.6889 25.596 97.4969 26.04 97.4329 26.616ZM101.96 30L103.868 26.952L102.104 24.168H103.172L103.952 25.452C104.04 25.604 104.132 25.764 104.228 25.932C104.324 26.1 104.424 26.264 104.528 26.424H104.576C104.664 26.264 104.752 26.1 104.84 25.932C104.928 25.764 105.016 25.604 105.104 25.452L105.812 24.168H106.844L105.08 27.06L106.976 30H105.908L105.056 28.644C104.952 28.468 104.848 28.292 104.744 28.116C104.64 27.94 104.532 27.768 104.42 27.6H104.372C104.268 27.768 104.168 27.94 104.072 28.116C103.976 28.284 103.88 28.46 103.784 28.644L102.992 30H101.96ZM108.131 30V21.456H109.115V23.784L109.079 24.984C109.359 24.72 109.651 24.496 109.955 24.312C110.267 24.12 110.623 24.024 111.023 24.024C111.639 24.024 112.087 24.22 112.367 24.612C112.655 24.996 112.799 25.56 112.799 26.304V30H111.815V26.436C111.815 25.892 111.727 25.496 111.551 25.248C111.375 25 111.095 24.876 110.711 24.876C110.415 24.876 110.147 24.952 109.907 25.104C109.675 25.256 109.411 25.48 109.115 25.776V30H108.131ZM114.659 30V24.168H115.643V30H114.659ZM115.163 22.968C114.971 22.968 114.811 22.912 114.683 22.8C114.563 22.68 114.503 22.52 114.503 22.32C114.503 22.128 114.563 21.972 114.683 21.852C114.811 21.732 114.971 21.672 115.163 21.672C115.355 21.672 115.511 21.732 115.631 21.852C115.759 21.972 115.823 22.128 115.823 22.32C115.823 22.52 115.759 22.68 115.631 22.8C115.511 22.912 115.355 22.968 115.163 22.968ZM118.656 30.144C118.288 30.144 118.02 30.032 117.852 29.808C117.692 29.576 117.612 29.248 117.612 28.824V21.456H118.596V28.896C118.596 29.048 118.624 29.16 118.68 29.232C118.736 29.296 118.8 29.328 118.872 29.328C118.904 29.328 118.932 29.328 118.956 29.328C118.988 29.32 119.032 29.312 119.088 29.304L119.22 30.048C119.156 30.08 119.08 30.104 118.992 30.12C118.904 30.136 118.792 30.144 118.656 30.144ZM122.015 30.144C121.527 30.144 121.119 30 120.791 29.712C120.471 29.416 120.311 29.008 120.311 28.488C120.311 27.848 120.595 27.36 121.163 27.024C121.739 26.68 122.647 26.44 123.887 26.304C123.887 26.056 123.851 25.82 123.779 25.596C123.715 25.372 123.595 25.192 123.419 25.056C123.251 24.912 123.007 24.84 122.687 24.84C122.351 24.84 122.035 24.904 121.739 25.032C121.443 25.16 121.179 25.304 120.947 25.464L120.563 24.78C120.835 24.604 121.167 24.436 121.559 24.276C121.959 24.108 122.391 24.024 122.855 24.024C123.567 24.024 124.083 24.244 124.403 24.684C124.723 25.116 124.883 25.696 124.883 26.424V30H124.067L123.983 29.304H123.947C123.675 29.528 123.375 29.724 123.047 29.892C122.727 30.06 122.383 30.144 122.015 30.144ZM122.303 29.352C122.583 29.352 122.847 29.284 123.095 29.148C123.343 29.012 123.607 28.82 123.887 28.572V26.952C122.919 27.072 122.239 27.252 121.847 27.492C121.463 27.732 121.271 28.04 121.271 28.416C121.271 28.744 121.371 28.984 121.571 29.136C121.771 29.28 122.015 29.352 122.303 29.352ZM126.717 30V24.168H127.533L127.617 25.224H127.653C127.853 24.856 128.097 24.564 128.385 24.348C128.673 24.132 128.981 24.024 129.309 24.024C129.541 24.024 129.749 24.064 129.933 24.144L129.741 25.008C129.645 24.976 129.557 24.952 129.477 24.936C129.397 24.92 129.297 24.912 129.177 24.912C128.929 24.912 128.669 25.012 128.397 25.212C128.133 25.412 127.901 25.76 127.701 26.256V30H126.717ZM131.929 30.144C131.441 30.144 131.033 30 130.705 29.712C130.385 29.416 130.225 29.008 130.225 28.488C130.225 27.848 130.509 27.36 131.077 27.024C131.653 26.68 132.561 26.44 133.801 26.304C133.801 26.056 133.765 25.82 133.693 25.596C133.629 25.372 133.509 25.192 133.333 25.056C133.165 24.912 132.921 24.84 132.601 24.84C132.265 24.84 131.949 24.904 131.653 25.032C131.357 25.16 131.093 25.304 130.861 25.464L130.477 24.78C130.749 24.604 131.081 24.436 131.473 24.276C131.873 24.108 132.305 24.024 132.769 24.024C133.481 24.024 133.997 24.244 134.317 24.684C134.637 25.116 134.797 25.696 134.797 26.424V30H133.981L133.897 29.304H133.861C133.589 29.528 133.289 29.724 132.961 29.892C132.641 30.06 132.297 30.144 131.929 30.144ZM132.217 29.352C132.497 29.352 132.761 29.284 133.009 29.148C133.257 29.012 133.521 28.82 133.801 28.572V26.952C132.833 27.072 132.153 27.252 131.761 27.492C131.377 27.732 131.185 28.04 131.185 28.416C131.185 28.744 131.285 28.984 131.485 29.136C131.685 29.28 131.929 29.352 132.217 29.352ZM138.303 30.144C137.679 30.144 137.243 29.964 136.995 29.604C136.755 29.244 136.635 28.776 136.635 28.2V24.972H135.771V24.228L136.683 24.168L136.803 22.536H137.631V24.168H139.203V24.972H137.631V28.212C137.631 28.572 137.695 28.852 137.823 29.052C137.959 29.244 138.195 29.34 138.531 29.34C138.635 29.34 138.747 29.324 138.867 29.292C138.987 29.252 139.095 29.216 139.191 29.184L139.383 29.928C139.223 29.984 139.047 30.032 138.855 30.072C138.671 30.12 138.487 30.144 138.303 30.144ZM140.522 30V24.168H141.506V30H140.522ZM141.026 22.968C140.834 22.968 140.674 22.912 140.546 22.8C140.426 22.68 140.366 22.52 140.366 22.32C140.366 22.128 140.426 21.972 140.546 21.852C140.674 21.732 140.834 21.672 141.026 21.672C141.218 21.672 141.374 21.732 141.494 21.852C141.622 21.972 141.686 22.128 141.686 22.32C141.686 22.52 141.622 22.68 141.494 22.8C141.374 22.912 141.218 22.968 141.026 22.968ZM143.475 30V24.168H144.291L144.375 25.008H144.411C144.691 24.728 144.987 24.496 145.299 24.312C145.611 24.12 145.967 24.024 146.367 24.024C146.983 24.024 147.431 24.22 147.711 24.612C147.999 24.996 148.143 25.56 148.143 26.304V30H147.159V26.436C147.159 25.892 147.071 25.496 146.895 25.248C146.719 25 146.439 24.876 146.055 24.876C145.759 24.876 145.491 24.952 145.251 25.104C145.019 25.256 144.755 25.48 144.459 25.776V30H143.475ZM152.006 32.688C151.294 32.688 150.714 32.552 150.266 32.28C149.818 32.008 149.594 31.62 149.594 31.116C149.594 30.868 149.67 30.628 149.822 30.396C149.974 30.172 150.182 29.972 150.446 29.796V29.748C150.302 29.66 150.178 29.536 150.074 29.376C149.978 29.216 149.93 29.024 149.93 28.8C149.93 28.552 149.998 28.336 150.134 28.152C150.27 27.968 150.414 27.824 150.566 27.72V27.672C150.374 27.512 150.198 27.296 150.038 27.024C149.886 26.752 149.81 26.444 149.81 26.1C149.81 25.676 149.91 25.308 150.11 24.996C150.31 24.684 150.578 24.444 150.914 24.276C151.25 24.108 151.614 24.024 152.006 24.024C152.166 24.024 152.318 24.04 152.462 24.072C152.606 24.096 152.73 24.128 152.834 24.168H154.862V24.924H153.662C153.798 25.052 153.91 25.224 153.998 25.44C154.094 25.648 154.142 25.876 154.142 26.124C154.142 26.54 154.046 26.9 153.854 27.204C153.662 27.508 153.406 27.744 153.086 27.912C152.766 28.072 152.406 28.152 152.006 28.152C151.694 28.152 151.402 28.084 151.13 27.948C151.026 28.036 150.938 28.136 150.866 28.248C150.794 28.352 150.758 28.484 150.758 28.644C150.758 28.828 150.83 28.98 150.974 29.1C151.126 29.22 151.398 29.28 151.79 29.28H152.918C153.598 29.28 154.106 29.392 154.442 29.616C154.786 29.832 154.958 30.184 154.958 30.672C154.958 31.032 154.838 31.364 154.598 31.668C154.358 31.972 154.018 32.216 153.578 32.4C153.138 32.592 152.614 32.688 152.006 32.688ZM152.006 27.492C152.342 27.492 152.63 27.368 152.87 27.12C153.118 26.864 153.242 26.524 153.242 26.1C153.242 25.676 153.122 25.344 152.882 25.104C152.642 24.864 152.35 24.744 152.006 24.744C151.662 24.744 151.37 24.864 151.13 25.104C150.89 25.344 150.77 25.676 150.77 26.1C150.77 26.524 150.89 26.864 151.13 27.12C151.378 27.368 151.67 27.492 152.006 27.492ZM152.15 32.004C152.71 32.004 153.158 31.88 153.494 31.632C153.83 31.392 153.998 31.12 153.998 30.816C153.998 30.544 153.894 30.356 153.686 30.252C153.486 30.148 153.198 30.096 152.822 30.096H151.814C151.702 30.096 151.578 30.088 151.442 30.072C151.314 30.056 151.186 30.032 151.058 30C150.85 30.152 150.698 30.312 150.602 30.48C150.506 30.648 150.458 30.816 150.458 30.984C150.458 31.296 150.606 31.544 150.902 31.728C151.206 31.912 151.622 32.004 152.15 32.004ZM164.933 30V24.168H165.749L165.833 25.008H165.869C166.125 24.728 166.405 24.496 166.709 24.312C167.013 24.12 167.337 24.024 167.681 24.024C168.129 24.024 168.477 24.124 168.725 24.324C168.981 24.516 169.169 24.788 169.289 25.14C169.593 24.812 169.901 24.544 170.213 24.336C170.525 24.128 170.857 24.024 171.209 24.024C171.809 24.024 172.253 24.22 172.541 24.612C172.837 24.996 172.985 25.56 172.985 26.304V30H172.001V26.436C172.001 25.892 171.913 25.496 171.737 25.248C171.561 25 171.289 24.876 170.921 24.876C170.489 24.876 170.001 25.176 169.457 25.776V30H168.473V26.436C168.473 25.892 168.385 25.496 168.209 25.248C168.033 25 167.757 24.876 167.381 24.876C166.949 24.876 166.461 25.176 165.917 25.776V30H164.933ZM177.15 30.144C176.678 30.144 176.234 30.024 175.818 29.784C175.41 29.544 175.078 29.196 174.822 28.74C174.574 28.284 174.45 27.736 174.45 27.096C174.45 26.44 174.574 25.884 174.822 25.428C175.078 24.972 175.41 24.624 175.818 24.384C176.234 24.144 176.678 24.024 177.15 24.024C177.63 24.024 178.074 24.144 178.482 24.384C178.89 24.624 179.218 24.972 179.466 25.428C179.722 25.884 179.85 26.44 179.85 27.096C179.85 27.736 179.722 28.284 179.466 28.74C179.218 29.196 178.89 29.544 178.482 29.784C178.074 30.024 177.63 30.144 177.15 30.144ZM177.15 29.328C177.654 29.328 178.058 29.124 178.362 28.716C178.674 28.3 178.83 27.76 178.83 27.096C178.83 26.424 178.674 25.88 178.362 25.464C178.058 25.048 177.654 24.84 177.15 24.84C176.654 24.84 176.25 25.048 175.938 25.464C175.626 25.88 175.47 26.424 175.47 27.096C175.47 27.76 175.626 28.3 175.938 28.716C176.25 29.124 176.654 29.328 177.15 29.328ZM183.966 30.144C183.694 30.144 183.41 30.08 183.114 29.952C182.826 29.816 182.554 29.632 182.298 29.4H182.262L182.178 30H181.386V21.456H182.37V23.784L182.346 24.84C182.61 24.608 182.898 24.416 183.21 24.264C183.53 24.104 183.85 24.024 184.17 24.024C184.93 24.024 185.506 24.292 185.898 24.828C186.29 25.364 186.486 26.084 186.486 26.988C186.486 27.652 186.366 28.22 186.126 28.692C185.894 29.164 185.586 29.524 185.202 29.772C184.826 30.02 184.414 30.144 183.966 30.144ZM183.798 29.316C184.278 29.316 184.674 29.112 184.986 28.704C185.306 28.288 185.466 27.72 185.466 27C185.466 26.36 185.346 25.844 185.106 25.452C184.874 25.052 184.482 24.852 183.93 24.852C183.682 24.852 183.43 24.92 183.174 25.056C182.918 25.192 182.65 25.388 182.37 25.644V28.704C182.626 28.928 182.878 29.088 183.126 29.184C183.382 29.272 183.606 29.316 183.798 29.316ZM188.019 30V24.168H189.003V30H188.019ZM188.523 22.968C188.331 22.968 188.171 22.912 188.043 22.8C187.923 22.68 187.863 22.52 187.863 22.32C187.863 22.128 187.923 21.972 188.043 21.852C188.171 21.732 188.331 21.672 188.523 21.672C188.715 21.672 188.871 21.732 188.991 21.852C189.119 21.972 189.183 22.128 189.183 22.32C189.183 22.52 189.119 22.68 188.991 22.8C188.871 22.912 188.715 22.968 188.523 22.968ZM192.016 30.144C191.648 30.144 191.38 30.032 191.212 29.808C191.052 29.576 190.972 29.248 190.972 28.824V21.456H191.956V28.896C191.956 29.048 191.984 29.16 192.04 29.232C192.096 29.296 192.16 29.328 192.232 29.328C192.264 29.328 192.292 29.328 192.316 29.328C192.348 29.32 192.392 29.312 192.448 29.304L192.58 30.048C192.516 30.08 192.44 30.104 192.352 30.12C192.264 30.136 192.152 30.144 192.016 30.144ZM196.395 30.144C195.875 30.144 195.403 30.024 194.979 29.784C194.555 29.536 194.219 29.184 193.971 28.728C193.723 28.272 193.599 27.728 193.599 27.096C193.599 26.456 193.723 25.908 193.971 25.452C194.227 24.996 194.555 24.644 194.955 24.396C195.355 24.148 195.775 24.024 196.215 24.024C196.959 24.024 197.531 24.272 197.931 24.768C198.339 25.264 198.543 25.928 198.543 26.76C198.543 26.864 198.539 26.968 198.531 27.072C198.531 27.168 198.523 27.252 198.507 27.324H194.571C194.611 27.94 194.803 28.432 195.147 28.8C195.499 29.168 195.955 29.352 196.515 29.352C196.795 29.352 197.051 29.312 197.283 29.232C197.523 29.144 197.751 29.032 197.967 28.896L198.315 29.544C198.067 29.704 197.783 29.844 197.463 29.964C197.151 30.084 196.795 30.144 196.395 30.144ZM194.559 26.616H197.679C197.679 26.024 197.551 25.576 197.295 25.272C197.047 24.96 196.695 24.804 196.239 24.804C195.831 24.804 195.463 24.964 195.135 25.284C194.815 25.596 194.623 26.04 194.559 26.616ZM0.984 51V45.168H1.968V51H0.984ZM1.488 43.968C1.296 43.968 1.136 43.912 1.008 43.8C0.888 43.68 0.828 43.52 0.828 43.32C0.828 43.128 0.888 42.972 1.008 42.852C1.136 42.732 1.296 42.672 1.488 42.672C1.68 42.672 1.836 42.732 1.956 42.852C2.084 42.972 2.148 43.128 2.148 43.32C2.148 43.52 2.084 43.68 1.956 43.8C1.836 43.912 1.68 43.968 1.488 43.968ZM3.93713 51V45.168H4.75313L4.83713 46.008H4.87313C5.15313 45.728 5.44913 45.496 5.76113 45.312C6.07313 45.12 6.42913 45.024 6.82913 45.024C7.44513 45.024 7.89313 45.22 8.17313 45.612C8.46113 45.996 8.60513 46.56 8.60513 47.304V51H7.62113V47.436C7.62113 46.892 7.53313 46.496 7.35713 46.248C7.18113 46 6.90113 45.876 6.51713 45.876C6.22113 45.876 5.95313 45.952 5.71313 46.104C5.48113 46.256 5.21713 46.48 4.92113 46.776V51H3.93713ZM12.3356 51.144C11.7116 51.144 11.2756 50.964 11.0276 50.604C10.7876 50.244 10.6676 49.776 10.6676 49.2V45.972H9.80363V45.228L10.7156 45.168L10.8356 43.536H11.6636V45.168H13.2356V45.972H11.6636V49.212C11.6636 49.572 11.7276 49.852 11.8556 50.052C11.9916 50.244 12.2276 50.34 12.5636 50.34C12.6676 50.34 12.7796 50.324 12.8996 50.292C13.0196 50.252 13.1276 50.216 13.2236 50.184L13.4156 50.928C13.2556 50.984 13.0796 51.032 12.8876 51.072C12.7036 51.12 12.5196 51.144 12.3356 51.144ZM16.7543 51.144C16.2343 51.144 15.7623 51.024 15.3383 50.784C14.9143 50.536 14.5783 50.184 14.3303 49.728C14.0823 49.272 13.9583 48.728 13.9583 48.096C13.9583 47.456 14.0823 46.908 14.3303 46.452C14.5863 45.996 14.9143 45.644 15.3143 45.396C15.7143 45.148 16.1343 45.024 16.5742 45.024C17.3183 45.024 17.8903 45.272 18.2903 45.768C18.6983 46.264 18.9023 46.928 18.9023 47.76C18.9023 47.864 18.8983 47.968 18.8903 48.072C18.8903 48.168 18.8823 48.252 18.8663 48.324H14.9303C14.9703 48.94 15.1623 49.432 15.5063 49.8C15.8583 50.168 16.3143 50.352 16.8743 50.352C17.1543 50.352 17.4103 50.312 17.6423 50.232C17.8823 50.144 18.1103 50.032 18.3263 49.896L18.6743 50.544C18.4263 50.704 18.1423 50.844 17.8223 50.964C17.5103 51.084 17.1543 51.144 16.7543 51.144ZM14.9183 47.616H18.0383C18.0383 47.024 17.9103 46.576 17.6543 46.272C17.4063 45.96 17.0543 45.804 16.5983 45.804C16.1903 45.804 15.8223 45.964 15.4943 46.284C15.1743 46.596 14.9823 47.04 14.9183 47.616ZM20.3434 51V45.168H21.1594L21.2434 46.224H21.2794C21.4794 45.856 21.7234 45.564 22.0114 45.348C22.2994 45.132 22.6074 45.024 22.9354 45.024C23.1674 45.024 23.3754 45.064 23.5594 45.144L23.3674 46.008C23.2714 45.976 23.1834 45.952 23.1034 45.936C23.0234 45.92 22.9234 45.912 22.8034 45.912C22.5554 45.912 22.2954 46.012 22.0234 46.212C21.7594 46.412 21.5274 46.76 21.3274 47.256V51H20.3434ZM24.5035 51V45.168H25.3195L25.4035 46.008H25.4395C25.7195 45.728 26.0155 45.496 26.3275 45.312C26.6395 45.12 26.9955 45.024 27.3955 45.024C28.0115 45.024 28.4595 45.22 28.7395 45.612C29.0275 45.996 29.1715 46.56 29.1715 47.304V51H28.1875V47.436C28.1875 46.892 28.0995 46.496 27.9235 46.248C27.7475 46 27.4675 45.876 27.0835 45.876C26.7875 45.876 26.5195 45.952 26.2795 46.104C26.0475 46.256 25.7835 46.48 25.4875 46.776V51H24.5035ZM33.43 51.144C32.91 51.144 32.438 51.024 32.014 50.784C31.59 50.536 31.254 50.184 31.006 49.728C30.758 49.272 30.634 48.728 30.634 48.096C30.634 47.456 30.758 46.908 31.006 46.452C31.262 45.996 31.59 45.644 31.99 45.396C32.39 45.148 32.81 45.024 33.25 45.024C33.994 45.024 34.566 45.272 34.966 45.768C35.374 46.264 35.578 46.928 35.578 47.76C35.578 47.864 35.574 47.968 35.566 48.072C35.566 48.168 35.558 48.252 35.542 48.324H31.606C31.646 48.94 31.838 49.432 32.182 49.8C32.534 50.168 32.99 50.352 33.55 50.352C33.83 50.352 34.086 50.312 34.318 50.232C34.558 50.144 34.786 50.032 35.002 49.896L35.35 50.544C35.102 50.704 34.818 50.844 34.498 50.964C34.186 51.084 33.83 51.144 33.43 51.144ZM31.594 47.616H34.714C34.714 47.024 34.586 46.576 34.33 46.272C34.082 45.96 33.73 45.804 33.274 45.804C32.866 45.804 32.498 45.964 32.17 46.284C31.85 46.596 31.658 47.04 31.594 47.616ZM38.738 51.144C38.114 51.144 37.678 50.964 37.43 50.604C37.19 50.244 37.07 49.776 37.07 49.2V45.972H36.206V45.228L37.118 45.168L37.238 43.536H38.066V45.168H39.638V45.972H38.066V49.212C38.066 49.572 38.13 49.852 38.258 50.052C38.394 50.244 38.63 50.34 38.966 50.34C39.07 50.34 39.182 50.324 39.302 50.292C39.422 50.252 39.53 50.216 39.626 50.184L39.818 50.928C39.658 50.984 39.482 51.032 39.29 51.072C39.106 51.12 38.922 51.144 38.738 51.144ZM44.616 53.46V45.168H45.432L45.516 45.84H45.552C45.816 45.616 46.104 45.424 46.416 45.264C46.736 45.104 47.068 45.024 47.412 45.024C48.164 45.024 48.736 45.296 49.128 45.84C49.52 46.376 49.716 47.096 49.716 48C49.716 48.656 49.596 49.22 49.356 49.692C49.124 50.164 48.816 50.524 48.432 50.772C48.056 51.02 47.644 51.144 47.196 51.144C46.924 51.144 46.652 51.084 46.38 50.964C46.116 50.844 45.848 50.68 45.576 50.472L45.6 51.492V53.46H44.616ZM47.028 50.316C47.508 50.316 47.904 50.112 48.216 49.704C48.536 49.288 48.696 48.72 48.696 48C48.696 47.36 48.576 46.844 48.336 46.452C48.104 46.052 47.712 45.852 47.16 45.852C46.912 45.852 46.66 45.92 46.404 46.056C46.156 46.192 45.888 46.388 45.6 46.644V49.704C45.864 49.928 46.12 50.088 46.368 50.184C46.616 50.272 46.836 50.316 47.028 50.316ZM52.4522 51.144C51.9642 51.144 51.5562 51 51.2282 50.712C50.9082 50.416 50.7482 50.008 50.7482 49.488C50.7482 48.848 51.0322 48.36 51.6002 48.024C52.1762 47.68 53.0842 47.44 54.3242 47.304C54.3242 47.056 54.2882 46.82 54.2162 46.596C54.1522 46.372 54.0322 46.192 53.8562 46.056C53.6882 45.912 53.4442 45.84 53.1242 45.84C52.7882 45.84 52.4722 45.904 52.1762 46.032C51.8802 46.16 51.6162 46.304 51.3842 46.464L51.0002 45.78C51.2722 45.604 51.6042 45.436 51.9962 45.276C52.3962 45.108 52.8282 45.024 53.2922 45.024C54.0042 45.024 54.5202 45.244 54.8402 45.684C55.1602 46.116 55.3202 46.696 55.3202 47.424V51H54.5042L54.4202 50.304H54.3842C54.1122 50.528 53.8122 50.724 53.4842 50.892C53.1642 51.06 52.8202 51.144 52.4522 51.144ZM52.7402 50.352C53.0202 50.352 53.2842 50.284 53.5322 50.148C53.7802 50.012 54.0442 49.82 54.3242 49.572V47.952C53.3562 48.072 52.6762 48.252 52.2842 48.492C51.9002 48.732 51.7082 49.04 51.7082 49.416C51.7082 49.744 51.8082 49.984 52.0082 50.136C52.2082 50.28 52.4522 50.352 52.7402 50.352ZM59.4591 51.144C58.9471 51.144 58.4831 51.024 58.0671 50.784C57.6511 50.544 57.3231 50.196 57.0831 49.74C56.8431 49.284 56.7231 48.736 56.7231 48.096C56.7231 47.44 56.8511 46.884 57.1071 46.428C57.3711 45.972 57.7151 45.624 58.1391 45.384C58.5711 45.144 59.0351 45.024 59.5311 45.024C59.9151 45.024 60.2431 45.092 60.5151 45.228C60.7951 45.364 61.0351 45.524 61.2351 45.708L60.7311 46.356C60.5631 46.204 60.3831 46.08 60.1911 45.984C60.0071 45.888 59.7991 45.84 59.5671 45.84C59.2151 45.84 58.8991 45.936 58.6191 46.128C58.3471 46.312 58.1311 46.576 57.9711 46.92C57.8191 47.256 57.7431 47.648 57.7431 48.096C57.7431 48.76 57.9071 49.3 58.2351 49.716C58.5711 50.124 59.0071 50.328 59.5431 50.328C59.8151 50.328 60.0671 50.272 60.2991 50.16C60.5311 50.04 60.7351 49.9 60.9111 49.74L61.3431 50.4C61.0791 50.632 60.7871 50.816 60.4671 50.952C60.1471 51.08 59.8111 51.144 59.4591 51.144ZM62.6277 51V42.456H63.5997V48.24H63.6357L66.1197 45.168H67.2117L65.2557 47.508L67.4757 51H66.3957L64.6917 48.192L63.5997 49.464V51H62.6277ZM69.796 51.144C69.308 51.144 68.9 51 68.572 50.712C68.252 50.416 68.092 50.008 68.092 49.488C68.092 48.848 68.376 48.36 68.944 48.024C69.52 47.68 70.428 47.44 71.668 47.304C71.668 47.056 71.632 46.82 71.56 46.596C71.496 46.372 71.376 46.192 71.2 46.056C71.032 45.912 70.788 45.84 70.468 45.84C70.132 45.84 69.816 45.904 69.52 46.032C69.224 46.16 68.96 46.304 68.728 46.464L68.344 45.78C68.616 45.604 68.948 45.436 69.34 45.276C69.74 45.108 70.172 45.024 70.636 45.024C71.348 45.024 71.864 45.244 72.184 45.684C72.504 46.116 72.664 46.696 72.664 47.424V51H71.848L71.764 50.304H71.728C71.456 50.528 71.156 50.724 70.828 50.892C70.508 51.06 70.164 51.144 69.796 51.144ZM70.084 50.352C70.364 50.352 70.628 50.284 70.876 50.148C71.124 50.012 71.388 49.82 71.668 49.572V47.952C70.7 48.072 70.02 48.252 69.628 48.492C69.244 48.732 69.052 49.04 69.052 49.416C69.052 49.744 69.152 49.984 69.352 50.136C69.552 50.28 69.796 50.352 70.084 50.352ZM76.4668 53.688C75.7548 53.688 75.1748 53.552 74.7268 53.28C74.2788 53.008 74.0548 52.62 74.0548 52.116C74.0548 51.868 74.1308 51.628 74.2828 51.396C74.4348 51.172 74.6428 50.972 74.9068 50.796V50.748C74.7628 50.66 74.6388 50.536 74.5348 50.376C74.4388 50.216 74.3908 50.024 74.3908 49.8C74.3908 49.552 74.4588 49.336 74.5948 49.152C74.7308 48.968 74.8748 48.824 75.0268 48.72V48.672C74.8348 48.512 74.6588 48.296 74.4988 48.024C74.3468 47.752 74.2708 47.444 74.2708 47.1C74.2708 46.676 74.3708 46.308 74.5708 45.996C74.7708 45.684 75.0388 45.444 75.3748 45.276C75.7108 45.108 76.0748 45.024 76.4668 45.024C76.6268 45.024 76.7788 45.04 76.9228 45.072C77.0668 45.096 77.1908 45.128 77.2948 45.168H79.3228V45.924H78.1228C78.2588 46.052 78.3708 46.224 78.4588 46.44C78.5548 46.648 78.6028 46.876 78.6028 47.124C78.6028 47.54 78.5068 47.9 78.3148 48.204C78.1228 48.508 77.8668 48.744 77.5468 48.912C77.2268 49.072 76.8668 49.152 76.4668 49.152C76.1548 49.152 75.8628 49.084 75.5908 48.948C75.4868 49.036 75.3988 49.136 75.3268 49.248C75.2548 49.352 75.2188 49.484 75.2188 49.644C75.2188 49.828 75.2908 49.98 75.4348 50.1C75.5868 50.22 75.8588 50.28 76.2508 50.28H77.3788C78.0588 50.28 78.5668 50.392 78.9028 50.616C79.2468 50.832 79.4188 51.184 79.4188 51.672C79.4188 52.032 79.2988 52.364 79.0588 52.668C78.8188 52.972 78.4788 53.216 78.0388 53.4C77.5988 53.592 77.0748 53.688 76.4668 53.688ZM76.4668 48.492C76.8028 48.492 77.0908 48.368 77.3308 48.12C77.5788 47.864 77.7028 47.524 77.7028 47.1C77.7028 46.676 77.5828 46.344 77.3428 46.104C77.1028 45.864 76.8108 45.744 76.4668 45.744C76.1228 45.744 75.8308 45.864 75.5908 46.104C75.3508 46.344 75.2308 46.676 75.2308 47.1C75.2308 47.524 75.3508 47.864 75.5908 48.12C75.8388 48.368 76.1308 48.492 76.4668 48.492ZM76.6108 53.004C77.1708 53.004 77.6188 52.88 77.9548 52.632C78.2908 52.392 78.4588 52.12 78.4588 51.816C78.4588 51.544 78.3548 51.356 78.1468 51.252C77.9468 51.148 77.6588 51.096 77.2828 51.096H76.2748C76.1628 51.096 76.0388 51.088 75.9028 51.072C75.7748 51.056 75.6468 51.032 75.5188 51C75.3108 51.152 75.1588 51.312 75.0628 51.48C74.9668 51.648 74.9188 51.816 74.9188 51.984C74.9188 52.296 75.0668 52.544 75.3628 52.728C75.6668 52.912 76.0828 53.004 76.6108 53.004ZM82.7457 51.144C82.2257 51.144 81.7537 51.024 81.3297 50.784C80.9057 50.536 80.5697 50.184 80.3217 49.728C80.0737 49.272 79.9497 48.728 79.9497 48.096C79.9497 47.456 80.0737 46.908 80.3217 46.452C80.5777 45.996 80.9057 45.644 81.3057 45.396C81.7057 45.148 82.1257 45.024 82.5657 45.024C83.3097 45.024 83.8817 45.272 84.2817 45.768C84.6897 46.264 84.8937 46.928 84.8937 47.76C84.8937 47.864 84.8897 47.968 84.8817 48.072C84.8817 48.168 84.8737 48.252 84.8577 48.324H80.9217C80.9617 48.94 81.1537 49.432 81.4977 49.8C81.8497 50.168 82.3057 50.352 82.8657 50.352C83.1457 50.352 83.4017 50.312 83.6337 50.232C83.8737 50.144 84.1017 50.032 84.3177 49.896L84.6657 50.544C84.4177 50.704 84.1337 50.844 83.8137 50.964C83.5017 51.084 83.1457 51.144 82.7457 51.144ZM80.9097 47.616H84.0297C84.0297 47.024 83.9017 46.576 83.6457 46.272C83.3977 45.96 83.0457 45.804 82.5897 45.804C82.1817 45.804 81.8137 45.964 81.4857 46.284C81.1657 46.596 80.9737 47.04 80.9097 47.616ZM87.8588 51.144C87.4428 51.144 87.0468 51.068 86.6708 50.916C86.2948 50.756 85.9668 50.564 85.6868 50.34L86.1788 49.68C86.4348 49.88 86.6988 50.048 86.9708 50.184C87.2428 50.312 87.5508 50.376 87.8948 50.376C88.2788 50.376 88.5668 50.288 88.7588 50.112C88.9508 49.928 89.0468 49.712 89.0468 49.464C89.0468 49.264 88.9788 49.096 88.8428 48.96C88.7148 48.824 88.5468 48.712 88.3388 48.624C88.1388 48.528 87.9308 48.44 87.7148 48.36C87.4428 48.256 87.1748 48.14 86.9108 48.012C86.6468 47.876 86.4308 47.704 86.2628 47.496C86.0948 47.28 86.0108 47.008 86.0108 46.68C86.0108 46.208 86.1868 45.816 86.5388 45.504C86.8988 45.184 87.3948 45.024 88.0268 45.024C88.3868 45.024 88.7228 45.088 89.0348 45.216C89.3468 45.344 89.6148 45.5 89.8388 45.684L89.3588 46.308C89.1588 46.156 88.9508 46.032 88.7348 45.936C88.5188 45.84 88.2828 45.792 88.0268 45.792C87.6588 45.792 87.3868 45.876 87.2108 46.044C87.0428 46.212 86.9588 46.408 86.9588 46.632C86.9588 46.816 87.0188 46.968 87.1388 47.088C87.2588 47.2 87.4148 47.3 87.6068 47.388C87.7988 47.468 88.0028 47.552 88.2188 47.64C88.4988 47.744 88.7748 47.864 89.0468 48C89.3188 48.128 89.5428 48.304 89.7188 48.528C89.9028 48.744 89.9948 49.036 89.9948 49.404C89.9948 49.716 89.9108 50.004 89.7428 50.268C89.5828 50.532 89.3428 50.744 89.0228 50.904C88.7108 51.064 88.3228 51.144 87.8588 51.144ZM91.1821 53.04L90.9421 52.464C91.2861 52.312 91.5541 52.108 91.7461 51.852C91.9381 51.604 92.0301 51.32 92.0221 51C92.0061 51.008 91.9861 51.012 91.9621 51.012C91.9381 51.012 91.9181 51.012 91.9021 51.012C91.7101 51.012 91.5421 50.956 91.3981 50.844C91.2621 50.724 91.1941 50.552 91.1941 50.328C91.1941 50.112 91.2661 49.944 91.4101 49.824C91.5541 49.696 91.7261 49.632 91.9261 49.632C92.1821 49.632 92.3821 49.736 92.5261 49.944C92.6781 50.152 92.7541 50.436 92.7541 50.796C92.7541 51.308 92.6141 51.756 92.3341 52.14C92.0541 52.532 91.6701 52.832 91.1821 53.04ZM100.29 51.144C99.7378 51.144 99.2258 51.04 98.7538 50.832C98.2818 50.616 97.8738 50.332 97.5298 49.98L98.1298 49.284C98.4098 49.58 98.7378 49.82 99.1138 50.004C99.4978 50.18 99.8938 50.268 100.302 50.268C100.822 50.268 101.226 50.152 101.514 49.92C101.802 49.68 101.946 49.368 101.946 48.984C101.946 48.712 101.886 48.496 101.766 48.336C101.654 48.176 101.498 48.04 101.298 47.928C101.106 47.816 100.886 47.704 100.638 47.592L99.5098 47.1C99.2618 46.996 99.0138 46.86 98.7658 46.692C98.5258 46.524 98.3218 46.308 98.1538 46.044C97.9938 45.78 97.9138 45.456 97.9138 45.072C97.9138 44.672 98.0178 44.316 98.2258 44.004C98.4418 43.684 98.7378 43.436 99.1138 43.26C99.4898 43.076 99.9138 42.984 100.386 42.984C100.858 42.984 101.294 43.076 101.694 43.26C102.094 43.436 102.434 43.668 102.714 43.956L102.174 44.604C101.934 44.372 101.666 44.192 101.37 44.064C101.082 43.928 100.754 43.86 100.386 43.86C99.9458 43.86 99.5898 43.964 99.3178 44.172C99.0538 44.38 98.9218 44.66 98.9218 45.012C98.9218 45.26 98.9858 45.468 99.1138 45.636C99.2498 45.796 99.4178 45.928 99.6178 46.032C99.8178 46.136 100.022 46.232 100.23 46.32L101.346 46.8C101.65 46.928 101.922 47.084 102.162 47.268C102.41 47.444 102.606 47.664 102.75 47.928C102.894 48.184 102.966 48.508 102.966 48.9C102.966 49.316 102.858 49.696 102.642 50.04C102.426 50.376 102.118 50.644 101.718 50.844C101.318 51.044 100.842 51.144 100.29 51.144ZM104.516 51V43.128H105.716L107.228 47.328C107.324 47.6 107.416 47.876 107.504 48.156C107.6 48.428 107.696 48.7 107.792 48.972H107.84C107.936 48.7 108.024 48.428 108.104 48.156C108.192 47.876 108.284 47.6 108.38 47.328L109.868 43.128H111.08V51H110.144V46.668C110.144 46.316 110.16 45.928 110.192 45.504C110.224 45.072 110.252 44.684 110.276 44.34H110.228L109.604 46.128L108.116 50.208H107.456L105.968 46.128L105.344 44.34H105.296C105.32 44.684 105.344 45.072 105.368 45.504C105.4 45.928 105.416 46.316 105.416 46.668V51H104.516ZM115.419 51.144C114.867 51.144 114.355 51.04 113.883 50.832C113.411 50.616 113.003 50.332 112.659 49.98L113.259 49.284C113.539 49.58 113.867 49.82 114.243 50.004C114.627 50.18 115.023 50.268 115.431 50.268C115.951 50.268 116.355 50.152 116.643 49.92C116.931 49.68 117.075 49.368 117.075 48.984C117.075 48.712 117.015 48.496 116.895 48.336C116.783 48.176 116.627 48.04 116.427 47.928C116.235 47.816 116.015 47.704 115.767 47.592L114.639 47.1C114.391 46.996 114.143 46.86 113.895 46.692C113.655 46.524 113.451 46.308 113.283 46.044C113.123 45.78 113.043 45.456 113.043 45.072C113.043 44.672 113.147 44.316 113.355 44.004C113.571 43.684 113.867 43.436 114.243 43.26C114.619 43.076 115.043 42.984 115.515 42.984C115.987 42.984 116.423 43.076 116.823 43.26C117.223 43.436 117.563 43.668 117.843 43.956L117.303 44.604C117.063 44.372 116.795 44.192 116.499 44.064C116.211 43.928 115.883 43.86 115.515 43.86C115.075 43.86 114.719 43.964 114.447 44.172C114.183 44.38 114.051 44.66 114.051 45.012C114.051 45.26 114.115 45.468 114.243 45.636C114.379 45.796 114.547 45.928 114.747 46.032C114.947 46.136 115.151 46.232 115.359 46.32L116.475 46.8C116.779 46.928 117.051 47.084 117.291 47.268C117.539 47.444 117.735 47.664 117.879 47.928C118.023 48.184 118.095 48.508 118.095 48.9C118.095 49.316 117.987 49.696 117.771 50.04C117.555 50.376 117.247 50.644 116.847 50.844C116.447 51.044 115.971 51.144 115.419 51.144ZM119.369 53.04L119.129 52.464C119.473 52.312 119.741 52.108 119.933 51.852C120.125 51.604 120.217 51.32 120.209 51C120.193 51.008 120.173 51.012 120.149 51.012C120.125 51.012 120.105 51.012 120.089 51.012C119.897 51.012 119.729 50.956 119.585 50.844C119.449 50.724 119.381 50.552 119.381 50.328C119.381 50.112 119.453 49.944 119.597 49.824C119.741 49.696 119.913 49.632 120.113 49.632C120.369 49.632 120.569 49.736 120.713 49.944C120.865 50.152 120.941 50.436 120.941 50.796C120.941 51.308 120.801 51.756 120.521 52.14C120.241 52.532 119.857 52.832 119.369 53.04ZM127.733 51L125.213 43.128H126.281L127.541 47.376C127.685 47.84 127.809 48.276 127.913 48.684C128.025 49.084 128.157 49.516 128.309 49.98H128.357C128.501 49.516 128.629 49.084 128.741 48.684C128.853 48.276 128.977 47.84 129.113 47.376L130.373 43.128H131.393L128.897 51H127.733ZM134.464 51.144C133.992 51.144 133.548 51.024 133.132 50.784C132.724 50.544 132.392 50.196 132.136 49.74C131.888 49.284 131.764 48.736 131.764 48.096C131.764 47.44 131.888 46.884 132.136 46.428C132.392 45.972 132.724 45.624 133.132 45.384C133.548 45.144 133.992 45.024 134.464 45.024C134.944 45.024 135.388 45.144 135.796 45.384C136.204 45.624 136.532 45.972 136.78 46.428C137.036 46.884 137.164 47.44 137.164 48.096C137.164 48.736 137.036 49.284 136.78 49.74C136.532 50.196 136.204 50.544 135.796 50.784C135.388 51.024 134.944 51.144 134.464 51.144ZM134.464 50.328C134.968 50.328 135.372 50.124 135.676 49.716C135.988 49.3 136.144 48.76 136.144 48.096C136.144 47.424 135.988 46.88 135.676 46.464C135.372 46.048 134.968 45.84 134.464 45.84C133.968 45.84 133.564 46.048 133.252 46.464C132.94 46.88 132.784 47.424 132.784 48.096C132.784 48.76 132.94 49.3 133.252 49.716C133.564 50.124 133.968 50.328 134.464 50.328ZM138.7 51V45.168H139.684V51H138.7ZM139.204 43.968C139.012 43.968 138.852 43.912 138.724 43.8C138.604 43.68 138.544 43.52 138.544 43.32C138.544 43.128 138.604 42.972 138.724 42.852C138.852 42.732 139.012 42.672 139.204 42.672C139.396 42.672 139.552 42.732 139.672 42.852C139.8 42.972 139.864 43.128 139.864 43.32C139.864 43.52 139.8 43.68 139.672 43.8C139.552 43.912 139.396 43.968 139.204 43.968ZM143.958 51.144C143.446 51.144 142.982 51.024 142.566 50.784C142.15 50.544 141.822 50.196 141.582 49.74C141.342 49.284 141.222 48.736 141.222 48.096C141.222 47.44 141.35 46.884 141.606 46.428C141.87 45.972 142.214 45.624 142.638 45.384C143.07 45.144 143.534 45.024 144.03 45.024C144.414 45.024 144.742 45.092 145.014 45.228C145.294 45.364 145.534 45.524 145.734 45.708L145.23 46.356C145.062 46.204 144.882 46.08 144.69 45.984C144.506 45.888 144.298 45.84 144.066 45.84C143.714 45.84 143.398 45.936 143.118 46.128C142.846 46.312 142.63 46.576 142.47 46.92C142.318 47.256 142.242 47.648 142.242 48.096C142.242 48.76 142.406 49.3 142.734 49.716C143.07 50.124 143.506 50.328 144.042 50.328C144.314 50.328 144.566 50.272 144.798 50.16C145.03 50.04 145.234 49.9 145.41 49.74L145.842 50.4C145.578 50.632 145.286 50.816 144.966 50.952C144.646 51.08 144.31 51.144 143.958 51.144ZM149.232 51.144C148.712 51.144 148.24 51.024 147.816 50.784C147.392 50.536 147.056 50.184 146.808 49.728C146.56 49.272 146.436 48.728 146.436 48.096C146.436 47.456 146.56 46.908 146.808 46.452C147.064 45.996 147.392 45.644 147.792 45.396C148.192 45.148 148.612 45.024 149.052 45.024C149.796 45.024 150.368 45.272 150.768 45.768C151.176 46.264 151.38 46.928 151.38 47.76C151.38 47.864 151.376 47.968 151.368 48.072C151.368 48.168 151.36 48.252 151.344 48.324H147.408C147.448 48.94 147.64 49.432 147.984 49.8C148.336 50.168 148.792 50.352 149.352 50.352C149.632 50.352 149.888 50.312 150.12 50.232C150.36 50.144 150.588 50.032 150.804 49.896L151.152 50.544C150.904 50.704 150.62 50.844 150.3 50.964C149.988 51.084 149.632 51.144 149.232 51.144ZM147.396 47.616H150.516C150.516 47.024 150.388 46.576 150.132 46.272C149.884 45.96 149.532 45.804 149.076 45.804C148.668 45.804 148.3 45.964 147.972 46.284C147.652 46.596 147.46 47.04 147.396 47.616ZM157.765 44.832C157.765 45.048 157.797 45.272 157.861 45.504C157.933 45.736 158.025 45.972 158.137 46.212C158.497 45.972 158.809 45.724 159.073 45.468C159.345 45.204 159.481 44.9 159.481 44.556C159.481 44.324 159.421 44.124 159.301 43.956C159.189 43.78 159.001 43.692 158.737 43.692C158.441 43.692 158.205 43.8 158.029 44.016C157.853 44.232 157.765 44.504 157.765 44.832ZM158.281 51.144C157.809 51.144 157.389 51.052 157.021 50.868C156.661 50.676 156.381 50.416 156.181 50.088C155.981 49.76 155.881 49.384 155.881 48.96C155.881 48.608 155.953 48.296 156.097 48.024C156.249 47.752 156.441 47.508 156.673 47.292C156.905 47.076 157.157 46.876 157.429 46.692C157.269 46.364 157.141 46.048 157.045 45.744C156.957 45.432 156.913 45.132 156.913 44.844C156.913 44.492 156.989 44.176 157.141 43.896C157.293 43.616 157.505 43.396 157.777 43.236C158.057 43.068 158.377 42.984 158.737 42.984C159.225 42.984 159.605 43.128 159.877 43.416C160.149 43.704 160.285 44.08 160.285 44.544C160.285 44.888 160.197 45.196 160.021 45.468C159.845 45.74 159.621 45.988 159.349 46.212C159.085 46.436 158.805 46.656 158.509 46.872C158.765 47.272 159.069 47.664 159.421 48.048C159.773 48.424 160.133 48.768 160.501 49.08C160.741 48.752 160.953 48.396 161.137 48.012C161.329 47.62 161.485 47.2 161.605 46.752H162.529C162.377 47.264 162.185 47.76 161.953 48.24C161.729 48.712 161.461 49.156 161.149 49.572C161.421 49.756 161.681 49.912 161.929 50.04C162.177 50.168 162.409 50.264 162.625 50.328L162.361 51.144C162.089 51.064 161.797 50.952 161.485 50.808C161.181 50.656 160.869 50.468 160.549 50.244C160.253 50.516 159.917 50.736 159.541 50.904C159.165 51.064 158.745 51.144 158.281 51.144ZM156.841 48.9C156.841 49.34 156.989 49.692 157.285 49.956C157.589 50.22 157.957 50.352 158.389 50.352C158.661 50.352 158.921 50.296 159.169 50.184C159.425 50.072 159.665 49.916 159.889 49.716C159.505 49.38 159.133 49.012 158.773 48.612C158.421 48.212 158.105 47.8 157.825 47.376C157.553 47.6 157.321 47.836 157.129 48.084C156.937 48.324 156.841 48.596 156.841 48.9ZM167.453 51V42.456H168.437V44.784L168.401 45.984C168.681 45.72 168.973 45.496 169.277 45.312C169.589 45.12 169.945 45.024 170.345 45.024C170.961 45.024 171.409 45.22 171.689 45.612C171.977 45.996 172.121 46.56 172.121 47.304V51H171.137V47.436C171.137 46.892 171.049 46.496 170.873 46.248C170.697 46 170.417 45.876 170.033 45.876C169.737 45.876 169.469 45.952 169.229 46.104C168.997 46.256 168.733 46.48 168.437 46.776V51H167.453ZM174.076 53.508C173.948 53.508 173.824 53.496 173.704 53.472C173.592 53.448 173.488 53.42 173.392 53.388L173.584 52.608C173.648 52.624 173.72 52.64 173.8 52.656C173.88 52.68 173.956 52.692 174.028 52.692C174.356 52.692 174.628 52.572 174.844 52.332C175.06 52.1 175.228 51.804 175.348 51.444L175.48 51.012L173.14 45.168H174.16L175.348 48.396C175.436 48.644 175.528 48.912 175.624 49.2C175.728 49.488 175.824 49.768 175.912 50.04H175.96C176.048 49.776 176.132 49.5 176.212 49.212C176.292 48.924 176.372 48.652 176.452 48.396L177.496 45.168H178.456L176.26 51.48C176.124 51.864 175.96 52.208 175.768 52.512C175.584 52.816 175.352 53.056 175.072 53.232C174.8 53.416 174.468 53.508 174.076 53.508ZM182.162 51.144C181.89 51.144 181.606 51.08 181.31 50.952C181.022 50.816 180.75 50.632 180.494 50.4H180.458L180.374 51H179.582V42.456H180.566V44.784L180.542 45.84C180.806 45.608 181.094 45.416 181.406 45.264C181.726 45.104 182.046 45.024 182.366 45.024C183.126 45.024 183.702 45.292 184.094 45.828C184.486 46.364 184.682 47.084 184.682 47.988C184.682 48.652 184.562 49.22 184.322 49.692C184.09 50.164 183.782 50.524 183.398 50.772C183.022 51.02 182.61 51.144 182.162 51.144ZM181.994 50.316C182.474 50.316 182.87 50.112 183.182 49.704C183.502 49.288 183.662 48.72 183.662 48C183.662 47.36 183.542 46.844 183.302 46.452C183.07 46.052 182.678 45.852 182.126 45.852C181.878 45.852 181.626 45.92 181.37 46.056C181.114 46.192 180.846 46.388 180.566 46.644V49.704C180.822 49.928 181.074 50.088 181.322 50.184C181.578 50.272 181.802 50.316 181.994 50.316ZM186.214 51V45.168H187.03L187.114 46.224H187.15C187.35 45.856 187.594 45.564 187.882 45.348C188.17 45.132 188.478 45.024 188.806 45.024C189.038 45.024 189.246 45.064 189.43 45.144L189.238 46.008C189.142 45.976 189.054 45.952 188.974 45.936C188.894 45.92 188.794 45.912 188.674 45.912C188.426 45.912 188.166 46.012 187.894 46.212C187.63 46.412 187.398 46.76 187.198 47.256V51H186.214ZM190.375 51V45.168H191.359V51H190.375ZM190.879 43.968C190.687 43.968 190.527 43.912 190.399 43.8C190.279 43.68 190.219 43.52 190.219 43.32C190.219 43.128 190.279 42.972 190.399 42.852C190.527 42.732 190.687 42.672 190.879 42.672C191.071 42.672 191.227 42.732 191.347 42.852C191.475 42.972 191.539 43.128 191.539 43.32C191.539 43.52 191.475 43.68 191.347 43.8C191.227 43.912 191.071 43.968 190.879 43.968ZM195.32 51.144C194.592 51.144 194.008 50.88 193.568 50.352C193.128 49.816 192.908 49.064 192.908 48.096C192.908 47.464 193.024 46.92 193.256 46.464C193.496 46 193.808 45.644 194.192 45.396C194.584 45.148 195 45.024 195.44 45.024C195.776 45.024 196.068 45.084 196.316 45.204C196.564 45.324 196.816 45.488 197.072 45.696L197.024 44.7V42.456H198.02V51H197.204L197.12 50.316H197.084C196.86 50.54 196.596 50.736 196.292 50.904C195.988 51.064 195.664 51.144 195.32 51.144ZM195.536 50.316C196.048 50.316 196.544 50.048 197.024 49.512V46.464C196.776 46.24 196.536 46.084 196.304 45.996C196.08 45.9 195.848 45.852 195.608 45.852C195.296 45.852 195.012 45.948 194.756 46.14C194.508 46.324 194.308 46.584 194.156 46.92C194.004 47.248 193.928 47.636 193.928 48.084C193.928 48.78 194.068 49.328 194.348 49.728C194.628 50.12 195.024 50.316 195.536 50.316ZM0.984 74.46V66.168H1.8L1.884 66.84H1.92C2.184 66.616 2.472 66.424 2.784 66.264C3.104 66.104 3.436 66.024 3.78 66.024C4.532 66.024 5.104 66.296 5.496 66.84C5.888 67.376 6.084 68.096 6.084 69C6.084 69.656 5.964 70.22 5.724 70.692C5.492 71.164 5.184 71.524 4.8 71.772C4.424 72.02 4.012 72.144 3.564 72.144C3.292 72.144 3.02 72.084 2.748 71.964C2.484 71.844 2.216 71.68 1.944 71.472L1.968 72.492V74.46H0.984ZM3.396 71.316C3.876 71.316 4.272 71.112 4.584 70.704C4.904 70.288 5.064 69.72 5.064 69C5.064 68.36 4.944 67.844 4.704 67.452C4.472 67.052 4.08 66.852 3.528 66.852C3.28 66.852 3.028 66.92 2.772 67.056C2.524 67.192 2.256 67.388 1.968 67.644V70.704C2.232 70.928 2.488 71.088 2.736 71.184C2.984 71.272 3.204 71.316 3.396 71.316ZM8.82019 72.144C8.33219 72.144 7.92419 72 7.59619 71.712C7.27619 71.416 7.11619 71.008 7.11619 70.488C7.11619 69.848 7.40019 69.36 7.96819 69.024C8.54419 68.68 9.45219 68.44 10.6922 68.304C10.6922 68.056 10.6562 67.82 10.5842 67.596C10.5202 67.372 10.4002 67.192 10.2242 67.056C10.0562 66.912 9.81219 66.84 9.49219 66.84C9.15619 66.84 8.84019 66.904 8.54419 67.032C8.24819 67.16 7.98419 67.304 7.75219 67.464L7.36819 66.78C7.64019 66.604 7.97219 66.436 8.36419 66.276C8.76419 66.108 9.19619 66.024 9.66019 66.024C10.3722 66.024 10.8882 66.244 11.2082 66.684C11.5282 67.116 11.6882 67.696 11.6882 68.424V72H10.8722L10.7882 71.304H10.7522C10.4802 71.528 10.1802 71.724 9.85219 71.892C9.53219 72.06 9.18819 72.144 8.82019 72.144ZM9.10819 71.352C9.38819 71.352 9.65219 71.284 9.90019 71.148C10.1482 71.012 10.4122 70.82 10.6922 70.572V68.952C9.72419 69.072 9.04419 69.252 8.65219 69.492C8.26819 69.732 8.07619 70.04 8.07619 70.416C8.07619 70.744 8.17619 70.984 8.37619 71.136C8.57619 71.28 8.82019 71.352 9.10819 71.352ZM15.8271 72.144C15.3151 72.144 14.8511 72.024 14.4351 71.784C14.0191 71.544 13.6911 71.196 13.4511 70.74C13.2111 70.284 13.0911 69.736 13.0911 69.096C13.0911 68.44 13.2191 67.884 13.4751 67.428C13.7391 66.972 14.0831 66.624 14.5071 66.384C14.9391 66.144 15.4031 66.024 15.8991 66.024C16.2831 66.024 16.6111 66.092 16.8831 66.228C17.1631 66.364 17.4031 66.524 17.6031 66.708L17.0991 67.356C16.9311 67.204 16.7511 67.08 16.5591 66.984C16.3751 66.888 16.1671 66.84 15.9351 66.84C15.5831 66.84 15.2671 66.936 14.9871 67.128C14.7151 67.312 14.4991 67.576 14.3391 67.92C14.1871 68.256 14.1111 68.648 14.1111 69.096C14.1111 69.76 14.2751 70.3 14.6031 70.716C14.9391 71.124 15.3751 71.328 15.9111 71.328C16.1831 71.328 16.4351 71.272 16.6671 71.16C16.8991 71.04 17.1031 70.9 17.2791 70.74L17.7111 71.4C17.4471 71.632 17.1551 71.816 16.8351 71.952C16.5151 72.08 16.1791 72.144 15.8271 72.144ZM18.9957 72V63.456H19.9677V69.24H20.0037L22.4877 66.168H23.5797L21.6237 68.508L23.8437 72H22.7637L21.0597 69.192L19.9677 70.464V72H18.9957ZM26.1639 72.144C25.6759 72.144 25.2679 72 24.9399 71.712C24.6199 71.416 24.4599 71.008 24.4599 70.488C24.4599 69.848 24.7439 69.36 25.3119 69.024C25.8879 68.68 26.7959 68.44 28.0359 68.304C28.0359 68.056 27.9999 67.82 27.9279 67.596C27.8639 67.372 27.7439 67.192 27.5679 67.056C27.3999 66.912 27.1559 66.84 26.8359 66.84C26.4999 66.84 26.1839 66.904 25.8879 67.032C25.5919 67.16 25.3279 67.304 25.0959 67.464L24.7119 66.78C24.9839 66.604 25.3159 66.436 25.7079 66.276C26.1079 66.108 26.5399 66.024 27.0039 66.024C27.7159 66.024 28.2319 66.244 28.5519 66.684C28.8719 67.116 29.0319 67.696 29.0319 68.424V72H28.2159L28.1319 71.304H28.0959C27.8239 71.528 27.5239 71.724 27.1959 71.892C26.8759 72.06 26.5319 72.144 26.1639 72.144ZM26.4519 71.352C26.7319 71.352 26.9959 71.284 27.2439 71.148C27.4919 71.012 27.7559 70.82 28.0359 70.572V68.952C27.0679 69.072 26.3879 69.252 25.9959 69.492C25.6119 69.732 25.4199 70.04 25.4199 70.416C25.4199 70.744 25.5199 70.984 25.7199 71.136C25.9199 71.28 26.1639 71.352 26.4519 71.352ZM32.8348 74.688C32.1228 74.688 31.5428 74.552 31.0948 74.28C30.6468 74.008 30.4228 73.62 30.4228 73.116C30.4228 72.868 30.4988 72.628 30.6508 72.396C30.8028 72.172 31.0108 71.972 31.2748 71.796V71.748C31.1308 71.66 31.0068 71.536 30.9028 71.376C30.8068 71.216 30.7588 71.024 30.7588 70.8C30.7588 70.552 30.8268 70.336 30.9628 70.152C31.0988 69.968 31.2428 69.824 31.3948 69.72V69.672C31.2028 69.512 31.0268 69.296 30.8668 69.024C30.7148 68.752 30.6388 68.444 30.6388 68.1C30.6388 67.676 30.7388 67.308 30.9388 66.996C31.1388 66.684 31.4068 66.444 31.7428 66.276C32.0788 66.108 32.4428 66.024 32.8348 66.024C32.9948 66.024 33.1468 66.04 33.2908 66.072C33.4348 66.096 33.5588 66.128 33.6628 66.168H35.6908V66.924H34.4908C34.6268 67.052 34.7388 67.224 34.8268 67.44C34.9228 67.648 34.9708 67.876 34.9708 68.124C34.9708 68.54 34.8748 68.9 34.6828 69.204C34.4908 69.508 34.2348 69.744 33.9148 69.912C33.5948 70.072 33.2348 70.152 32.8348 70.152C32.5228 70.152 32.2308 70.084 31.9588 69.948C31.8548 70.036 31.7668 70.136 31.6948 70.248C31.6228 70.352 31.5868 70.484 31.5868 70.644C31.5868 70.828 31.6588 70.98 31.8028 71.1C31.9548 71.22 32.2268 71.28 32.6188 71.28H33.7468C34.4268 71.28 34.9348 71.392 35.2708 71.616C35.6148 71.832 35.7868 72.184 35.7868 72.672C35.7868 73.032 35.6668 73.364 35.4268 73.668C35.1868 73.972 34.8468 74.216 34.4068 74.4C33.9668 74.592 33.4428 74.688 32.8348 74.688ZM32.8348 69.492C33.1708 69.492 33.4588 69.368 33.6988 69.12C33.9468 68.864 34.0708 68.524 34.0708 68.1C34.0708 67.676 33.9508 67.344 33.7108 67.104C33.4708 66.864 33.1788 66.744 32.8348 66.744C32.4908 66.744 32.1988 66.864 31.9588 67.104C31.7188 67.344 31.5988 67.676 31.5988 68.1C31.5988 68.524 31.7188 68.864 31.9588 69.12C32.2068 69.368 32.4988 69.492 32.8348 69.492ZM32.9788 74.004C33.5388 74.004 33.9868 73.88 34.3228 73.632C34.6588 73.392 34.8268 73.12 34.8268 72.816C34.8268 72.544 34.7228 72.356 34.5148 72.252C34.3148 72.148 34.0268 72.096 33.6508 72.096H32.6428C32.5308 72.096 32.4068 72.088 32.2708 72.072C32.1428 72.056 32.0148 72.032 31.8868 72C31.6788 72.152 31.5268 72.312 31.4308 72.48C31.3348 72.648 31.2868 72.816 31.2868 72.984C31.2868 73.296 31.4348 73.544 31.7308 73.728C32.0348 73.912 32.4508 74.004 32.9788 74.004ZM39.1136 72.144C38.5936 72.144 38.1216 72.024 37.6976 71.784C37.2736 71.536 36.9376 71.184 36.6896 70.728C36.4416 70.272 36.3176 69.728 36.3176 69.096C36.3176 68.456 36.4416 67.908 36.6896 67.452C36.9456 66.996 37.2736 66.644 37.6736 66.396C38.0736 66.148 38.4936 66.024 38.9336 66.024C39.6776 66.024 40.2496 66.272 40.6496 66.768C41.0576 67.264 41.2616 67.928 41.2616 68.76C41.2616 68.864 41.2576 68.968 41.2496 69.072C41.2496 69.168 41.2416 69.252 41.2256 69.324H37.2896C37.3296 69.94 37.5216 70.432 37.8656 70.8C38.2176 71.168 38.6736 71.352 39.2336 71.352C39.5136 71.352 39.7696 71.312 40.0016 71.232C40.2416 71.144 40.4696 71.032 40.6856 70.896L41.0336 71.544C40.7856 71.704 40.5016 71.844 40.1816 71.964C39.8696 72.084 39.5136 72.144 39.1136 72.144ZM37.2776 68.616H40.3976C40.3976 68.024 40.2696 67.576 40.0136 67.272C39.7656 66.96 39.4136 66.804 38.9576 66.804C38.5496 66.804 38.1816 66.964 37.8536 67.284C37.5336 67.596 37.3416 68.04 37.2776 68.616ZM44.2268 72.144C43.8108 72.144 43.4148 72.068 43.0388 71.916C42.6628 71.756 42.3348 71.564 42.0548 71.34L42.5468 70.68C42.8028 70.88 43.0668 71.048 43.3388 71.184C43.6108 71.312 43.9188 71.376 44.2628 71.376C44.6468 71.376 44.9348 71.288 45.1268 71.112C45.3188 70.928 45.4148 70.712 45.4148 70.464C45.4148 70.264 45.3468 70.096 45.2108 69.96C45.0828 69.824 44.9148 69.712 44.7068 69.624C44.5068 69.528 44.2988 69.44 44.0828 69.36C43.8108 69.256 43.5428 69.14 43.2788 69.012C43.0148 68.876 42.7988 68.704 42.6308 68.496C42.4628 68.28 42.3788 68.008 42.3788 67.68C42.3788 67.208 42.5548 66.816 42.9068 66.504C43.2668 66.184 43.7628 66.024 44.3948 66.024C44.7548 66.024 45.0908 66.088 45.4028 66.216C45.7148 66.344 45.9828 66.5 46.2068 66.684L45.7268 67.308C45.5268 67.156 45.3188 67.032 45.1028 66.936C44.8868 66.84 44.6508 66.792 44.3948 66.792C44.0268 66.792 43.7548 66.876 43.5788 67.044C43.4108 67.212 43.3268 67.408 43.3268 67.632C43.3268 67.816 43.3868 67.968 43.5068 68.088C43.6268 68.2 43.7828 68.3 43.9748 68.388C44.1668 68.468 44.3708 68.552 44.5868 68.64C44.8668 68.744 45.1428 68.864 45.4148 69C45.6868 69.128 45.9108 69.304 46.0868 69.528C46.2708 69.744 46.3628 70.036 46.3628 70.404C46.3628 70.716 46.2788 71.004 46.1108 71.268C45.9508 71.532 45.7108 71.744 45.3908 71.904C45.0788 72.064 44.6908 72.144 44.2268 72.144Z" fill="#303030"/>
</svg>
