<svg width="17" height="29" viewBox="0 0 17 29" fill="none" xmlns="http://www.w3.org/2000/svg">
<path d="M15.8634 0.568394C16.2429 0.947271 16.4326 1.39586 16.4326 1.91417C16.4326 2.43146 16.2429 2.87954 15.8634 3.25842L4.74396 14.3595L15.9013 25.4985C16.2555 25.8521 16.4326 26.2941 16.4326 26.8246C16.4326 27.355 16.2429 27.8096 15.8634 28.1885C15.4839 28.5674 15.0345 28.7568 14.5154 28.7568C13.9972 28.7568 13.5484 28.5674 13.1689 28.1885L0.417636 15.4204C0.265836 15.2688 0.158057 15.1046 0.0943005 14.9278C0.0315564 14.751 0.000184346 14.5616 0.000184364 14.3595C0.000184382 14.1574 0.0315565 13.968 0.0943006 13.7912C0.158058 13.6144 0.265836 13.4502 0.417636 13.2987L13.2069 0.530508C13.5611 0.176889 13.9972 7.79884e-05 14.5154 7.80337e-05C15.0345 7.80791e-05 15.4839 0.189518 15.8634 0.568394Z" fill="#B5B5B5"/>
</svg>
