<svg width="17" height="29" viewBox="0 0 17 29" fill="none" xmlns="http://www.w3.org/2000/svg">
<path d="M0.569253 28.1884C0.189751 27.8096 0 27.361 0 26.8427C0 26.3254 0.189751 25.8773 0.569253 25.4984L11.6887 14.3973L0.531303 3.25834C0.177101 2.90472 0 2.4627 0 1.93227C0 1.40184 0.189751 0.947192 0.569253 0.568315C0.948755 0.189438 1.39808 0 1.91724 0C2.43539 0 2.88421 0.189438 3.26372 0.568315L16.015 13.3365C16.1668 13.488 16.2746 13.6522 16.3383 13.829C16.4011 14.0058 16.4324 14.1953 16.4324 14.3973C16.4324 14.5994 16.4011 14.7888 16.3383 14.9656C16.2746 15.1424 16.1668 15.3066 16.015 15.4582L3.22577 28.2263C2.87156 28.5799 2.43539 28.7568 1.91724 28.7568C1.39808 28.7568 0.948755 28.5673 0.569253 28.1884Z" fill="#B5B5B5"/>
</svg>
