<svg width="64" height="12" viewBox="0 0 64 12" fill="none" xmlns="http://www.w3.org/2000/svg">
<path d="M3.89503 8.91473L1.6338 2.35663H1.58546C1.59621 2.50344 1.60874 2.70396 1.62306 2.95819C1.63739 3.21242 1.64992 3.48456 1.66066 3.7746C1.6714 4.06464 1.67677 4.34214 1.67677 4.60712V8.91473H0.505875V1.06219H2.31593L4.49123 7.33026H4.52345L6.77394 1.06219H8.57863V8.91473H7.34865V4.54266C7.34865 4.30275 7.35223 4.04315 7.35939 3.76385C7.37013 3.48456 7.38087 3.21958 7.39162 2.96893C7.40594 2.71828 7.41668 2.51776 7.42384 2.36737H7.38087L5.03371 8.91473H3.89503ZM9.62062 2.96893H10.9956L12.2149 6.36346C12.2686 6.51744 12.3169 6.66962 12.3599 6.82001C12.4064 6.96682 12.4458 7.11184 12.478 7.25507C12.5138 7.3983 12.5425 7.54152 12.564 7.68475H12.5962C12.632 7.49856 12.6821 7.29087 12.7466 7.06171C12.8146 6.82896 12.8898 6.59621 12.9722 6.36346L14.1431 2.96893H15.502L12.9507 9.73114C12.8039 10.1179 12.6231 10.4473 12.4082 10.7194C12.197 10.9951 11.9463 11.2028 11.6563 11.3425C11.3662 11.4857 11.035 11.5573 10.6626 11.5573C10.4836 11.5573 10.3278 11.5466 10.1953 11.5251C10.0628 11.5072 9.95005 11.4875 9.85695 11.466V10.4562C9.93214 10.4741 10.027 10.4903 10.1416 10.5046C10.2562 10.5189 10.3744 10.5261 10.4961 10.5261C10.7217 10.5261 10.9168 10.4813 11.0816 10.3918C11.2463 10.3023 11.3859 10.1752 11.5005 10.0104C11.6151 9.8493 11.71 9.6649 11.7852 9.45721L11.9946 8.89862L9.62062 2.96893ZM23.9238 6.77704C23.9238 7.24253 23.8093 7.64358 23.5801 7.98016C23.3545 8.31675 23.0287 8.57456 22.6026 8.7536C22.18 8.93264 21.6751 9.02216 21.0879 9.02216C20.8014 9.02216 20.5275 9.00604 20.2661 8.97382C20.0047 8.94159 19.7577 8.89504 19.5249 8.83417C19.2958 8.76971 19.0863 8.69273 18.8965 8.60321V7.38934C19.2152 7.52899 19.5715 7.65611 19.9653 7.77069C20.3592 7.88169 20.7603 7.93719 21.1685 7.93719C21.5015 7.93719 21.7772 7.89423 21.9956 7.80829C22.2176 7.71877 22.3823 7.59344 22.4898 7.43231C22.5972 7.2676 22.6509 7.07603 22.6509 6.8576C22.6509 6.62486 22.5882 6.42792 22.4629 6.26678C22.3376 6.10565 22.1478 5.95884 21.8936 5.82635C21.6429 5.69029 21.3278 5.54527 20.9483 5.3913C20.6904 5.28746 20.4434 5.16929 20.207 5.0368C19.9743 4.90432 19.7666 4.74856 19.584 4.56952C19.4014 4.39048 19.2564 4.17922 19.1489 3.93573C19.0451 3.68866 18.9932 3.39862 18.9932 3.06561C18.9932 2.6216 19.0988 2.24205 19.3101 1.92694C19.5249 1.61184 19.8257 1.37014 20.2124 1.20184C20.6027 1.03355 21.0575 0.949402 21.5767 0.949402C21.9885 0.949402 22.3752 0.992371 22.7368 1.07831C23.1021 1.16425 23.4601 1.28599 23.8111 1.44354L23.4028 2.48016C23.0806 2.34768 22.7673 2.24205 22.4629 2.16327C22.1621 2.08449 21.8542 2.0451 21.5391 2.0451C21.2669 2.0451 21.036 2.08628 20.8462 2.16864C20.6564 2.251 20.5114 2.36737 20.4111 2.51776C20.3145 2.66457 20.2661 2.84003 20.2661 3.04413C20.2661 3.2733 20.3216 3.46665 20.4326 3.62421C20.5472 3.77818 20.7227 3.91962 20.959 4.04852C21.1989 4.17743 21.5069 4.32066 21.8828 4.47821C22.3161 4.65725 22.6831 4.84524 22.9839 5.04218C23.2883 5.23912 23.521 5.47544 23.6821 5.75116C23.8433 6.0233 23.9238 6.36525 23.9238 6.77704ZM28.7847 2.0451C28.4087 2.0451 28.0721 2.11314 27.7749 2.24921C27.4813 2.38527 27.2324 2.58221 27.0283 2.84003C26.8242 3.09426 26.6685 3.40399 26.5611 3.76923C26.4536 4.13088 26.3999 4.53908 26.3999 4.99384C26.3999 5.60256 26.4859 6.12714 26.6577 6.56757C26.8296 7.00441 27.091 7.341 27.4419 7.57733C27.7928 7.81008 28.2368 7.92645 28.7739 7.92645C29.1069 7.92645 29.431 7.89423 29.7461 7.82977C30.0612 7.76532 30.3871 7.67759 30.7236 7.56659V8.66229C30.405 8.78762 30.0827 8.87893 29.7569 8.93622C29.431 8.99351 29.055 9.02216 28.6289 9.02216C27.8268 9.02216 27.1608 8.85565 26.6309 8.52264C26.1045 8.18964 25.7106 7.72056 25.4492 7.11542C25.1914 6.51027 25.0625 5.80129 25.0625 4.98846C25.0625 4.39406 25.1449 3.84979 25.3096 3.35565C25.4743 2.86151 25.7142 2.4354 26.0293 2.07733C26.3444 1.71568 26.7329 1.43817 27.1948 1.24481C27.6603 1.04787 28.1921 0.949402 28.7901 0.949402C29.1839 0.949402 29.5707 0.994161 29.9502 1.08368C30.3333 1.16962 30.6878 1.29315 31.0137 1.45428L30.5625 2.51776C30.2904 2.38885 30.0057 2.27785 29.7085 2.18475C29.4113 2.09165 29.1034 2.0451 28.7847 2.0451ZM39.3819 4.97772C39.3819 5.58287 39.3049 6.1343 39.1509 6.63202C39.0005 7.12616 38.7731 7.55227 38.4688 7.91034C38.1644 8.26483 37.7831 8.53876 37.3247 8.73212C36.8664 8.92548 36.3293 9.02216 35.7134 9.02216C35.0868 9.02216 34.5425 8.92548 34.0806 8.73212C33.6222 8.53876 33.2409 8.26304 32.9365 7.90497C32.6358 7.5469 32.4102 7.119 32.2598 6.62128C32.1094 6.12356 32.0342 5.57212 32.0342 4.96698C32.0342 4.15774 32.1667 3.45233 32.4317 2.85077C32.7002 2.24563 33.1066 1.77655 33.6509 1.44354C34.1987 1.10695 34.8898 0.93866 35.7241 0.93866C36.5405 0.93866 37.2191 1.10516 37.7598 1.43817C38.3005 1.77118 38.7051 2.24025 38.9736 2.8454C39.2458 3.44696 39.3819 4.15774 39.3819 4.97772ZM33.3877 4.97772C33.3877 5.58287 33.4701 6.10744 33.6348 6.55145C33.7995 6.99188 34.0519 7.33205 34.3921 7.57196C34.7359 7.80829 35.1763 7.92645 35.7134 7.92645C36.2541 7.92645 36.6945 7.80829 37.0347 7.57196C37.3749 7.33205 37.6255 6.99188 37.7866 6.55145C37.9478 6.10744 38.0283 5.58287 38.0283 4.97772C38.0283 4.05747 37.8439 3.33775 37.4751 2.81854C37.1099 2.29576 36.5262 2.03436 35.7241 2.03436C35.187 2.03436 34.7448 2.15253 34.3975 2.38885C34.0537 2.62518 33.7995 2.96356 33.6348 3.40399C33.4701 3.84084 33.3877 4.36542 33.3877 4.97772ZM48.792 8.91473L48.0239 6.73407H45.0215L44.2534 8.91473H42.8945L45.8164 1.02997H47.2451L50.1616 8.91473H48.792ZM47.6909 5.62762L46.9444 3.47919C46.9157 3.38609 46.8745 3.25539 46.8208 3.0871C46.7671 2.91522 46.7134 2.74156 46.6597 2.5661C46.606 2.38706 46.5612 2.23667 46.5254 2.11493C46.4896 2.26174 46.4448 2.42645 46.3911 2.60907C46.341 2.78811 46.2909 2.9564 46.2407 3.11395C46.1942 3.2715 46.1584 3.39325 46.1333 3.47919L45.3814 5.62762H47.6909ZM54.1201 2.85614C54.8255 2.85614 55.3913 3.11395 55.8174 3.62958C56.2471 4.1452 56.4619 4.91148 56.4619 5.92841C56.4619 6.60158 56.3617 7.16913 56.1611 7.63104C55.9642 8.08938 55.6867 8.43671 55.3286 8.67303C54.9741 8.90578 54.5606 9.02216 54.0879 9.02216C53.7871 9.02216 53.5257 8.98277 53.3037 8.90399C53.0817 8.82522 52.8919 8.72316 52.7344 8.59784C52.5768 8.46893 52.4444 8.32928 52.3369 8.17889H52.2617C52.2796 8.32212 52.2958 8.48147 52.3101 8.65692C52.328 8.8288 52.3369 8.98635 52.3369 9.12958V11.5519H51.0694V2.96893H52.1006L52.2778 3.79071H52.3369C52.4479 3.62242 52.5822 3.46665 52.7398 3.32343C52.9009 3.1802 53.0943 3.0674 53.3198 2.98505C53.549 2.89911 53.8158 2.85614 54.1201 2.85614ZM53.7818 3.88739C53.4344 3.88739 53.1551 3.95721 52.9439 4.09686C52.7362 4.23293 52.584 4.43882 52.4873 4.71454C52.3942 4.99025 52.3441 5.3358 52.3369 5.75116V5.92841C52.3369 6.36884 52.3817 6.74302 52.4712 7.05096C52.5643 7.35533 52.7165 7.58807 52.9277 7.74921C53.1426 7.90676 53.4326 7.98553 53.7979 7.98553C54.1058 7.98553 54.36 7.90139 54.5606 7.73309C54.7647 7.5648 54.9168 7.32489 55.0171 7.01337C55.1174 6.70184 55.1675 6.33482 55.1675 5.91229C55.1675 5.27134 55.0529 4.77362 54.8237 4.41913C54.5982 4.06464 54.2508 3.88739 53.7818 3.88739ZM60.9736 2.85614C61.6791 2.85614 62.2448 3.11395 62.6709 3.62958C63.1006 4.1452 63.3154 4.91148 63.3154 5.92841C63.3154 6.60158 63.2152 7.16913 63.0147 7.63104C62.8177 8.08938 62.5402 8.43671 62.1821 8.67303C61.8277 8.90578 61.4141 9.02216 60.9414 9.02216C60.6406 9.02216 60.3792 8.98277 60.1572 8.90399C59.9352 8.82522 59.7455 8.72316 59.5879 8.59784C59.4304 8.46893 59.2979 8.32928 59.1904 8.17889H59.1152C59.1332 8.32212 59.1493 8.48147 59.1636 8.65692C59.1815 8.8288 59.1904 8.98635 59.1904 9.12958V11.5519H57.9229V2.96893H58.9541L59.1314 3.79071H59.1904C59.3014 3.62242 59.4357 3.46665 59.5933 3.32343C59.7544 3.1802 59.9478 3.0674 60.1734 2.98505C60.4025 2.89911 60.6693 2.85614 60.9736 2.85614ZM60.6353 3.88739C60.2879 3.88739 60.0086 3.95721 59.7974 4.09686C59.5897 4.23293 59.4375 4.43882 59.3408 4.71454C59.2477 4.99025 59.1976 5.3358 59.1904 5.75116V5.92841C59.1904 6.36884 59.2352 6.74302 59.3247 7.05096C59.4178 7.35533 59.57 7.58807 59.7813 7.74921C59.9961 7.90676 60.2861 7.98553 60.6514 7.98553C60.9593 7.98553 61.2136 7.90139 61.4141 7.73309C61.6182 7.5648 61.7704 7.32489 61.8706 7.01337C61.9709 6.70184 62.021 6.33482 62.021 5.91229C62.021 5.27134 61.9064 4.77362 61.6773 4.41913C61.4517 4.06464 61.1043 3.88739 60.6353 3.88739Z" fill="#434343"/>
</svg>
