<svg width="39" height="70" viewBox="0 0 39 70" fill="none" xmlns="http://www.w3.org/2000/svg">
<path d="M6.91076 0.325562C15.4487 0.325562 23.9821 0.325562 32.52 0.325562C33.2995 0.325562 34.1918 0.810069 34.9338 1.21529C37.6427 2.70405 38.8988 5.03409 38.8988 8.07767C38.8944 26.0705 38.8988 44.0633 38.8944 62.0561C38.8944 62.3028 38.8809 62.5539 38.8675 62.8005C38.6485 66.7294 35.4256 69.7686 31.4293 69.773C23.5842 69.7862 15.7392 69.7862 7.89418 69.773C3.78168 69.7642 0.455924 66.496 0.455924 62.4437C0.446984 44.1778 0.446984 25.9163 0.455924 7.65042C0.455924 5.2367 1.51087 3.30748 3.42407 1.81432C4.45667 1.00828 6.04181 0.325562 6.91523 0.325562H6.91076ZM19.7131 6.6682C18.1531 6.6682 16.593 6.65939 15.0329 6.6682C13.9825 6.67701 13.2985 7.26722 13.2628 8.16576C13.227 9.0599 13.9556 9.77785 15.0016 9.78666C18.0994 9.80428 21.1927 9.80428 24.2905 9.78666C25.3633 9.78225 26.0607 9.11716 26.0517 8.1966C26.0428 7.27163 25.3544 6.6726 24.2548 6.6682C22.7394 6.65939 21.2285 6.6682 19.7131 6.6682ZM19.6863 63.4348C21.452 63.426 22.8824 62.0077 22.8646 60.2855C22.8467 58.5677 21.385 57.1494 19.6416 57.1626C17.8893 57.1714 16.4723 58.5941 16.4857 60.3295C16.4991 62.0914 17.8938 63.4436 19.6863 63.4348Z" fill="#007643"/>
</svg>
