<svg width="49" height="12" viewBox="0 0 49 12" fill="none" xmlns="http://www.w3.org/2000/svg">
<path d="M3.08539 1.06219C3.76215 1.06219 4.32074 1.14455 4.76117 1.30927C5.20518 1.47398 5.53461 1.72463 5.74945 2.06122C5.96788 2.39781 6.07709 2.8257 6.07709 3.34491C6.07709 3.73163 6.00547 4.06106 5.86225 4.33319C5.71902 4.60533 5.53103 4.83091 5.29828 5.00995C5.06553 5.18899 4.81667 5.33221 4.5517 5.43964L6.7807 8.91473H5.32514L3.42914 5.76727H2.16693V8.91473H0.877871V1.06219H3.08539ZM2.99945 2.13641H2.16693V4.7038H3.05853C3.65652 4.7038 4.08978 4.59279 4.35834 4.37079C4.63047 4.14878 4.76654 3.82115 4.76654 3.38788C4.76654 2.93313 4.62152 2.61086 4.33148 2.42108C4.04503 2.2313 3.60102 2.13641 2.99945 2.13641ZM10.143 2.85614C10.673 2.85614 11.1277 2.96535 11.5073 3.18378C11.8868 3.4022 12.1787 3.71193 12.3828 4.11298C12.5869 4.51402 12.6889 4.99384 12.6889 5.55243V6.22919H8.71967C8.73399 6.80568 8.88796 7.24969 9.18158 7.56122C9.47878 7.87274 9.89415 8.0285 10.4277 8.0285C10.8072 8.0285 11.1474 7.9927 11.4482 7.92108C11.7525 7.84589 12.0659 7.73667 12.3881 7.59344V8.61932C12.0909 8.75897 11.7884 8.86102 11.4804 8.92548C11.1725 8.98993 10.8037 9.02216 10.374 9.02216C9.79031 9.02216 9.27647 8.90936 8.83246 8.68378C8.39203 8.45461 8.04649 8.11444 7.79584 7.66327C7.54877 7.2121 7.42523 6.65171 7.42523 5.98212C7.42523 5.3161 7.53803 4.75035 7.76361 4.28485C7.9892 3.81936 8.30609 3.46486 8.7143 3.22137C9.1225 2.97788 9.59874 2.85614 10.143 2.85614ZM10.143 3.80682C9.74555 3.80682 9.42328 3.93573 9.17621 4.19354C8.93272 4.45135 8.78949 4.82912 8.74652 5.32684H11.4536C11.45 5.02964 11.3998 4.76646 11.3032 4.53729C11.2101 4.30813 11.0668 4.12909 10.8735 4.00018C10.6837 3.87128 10.4402 3.80682 10.143 3.80682ZM16.5078 9.02216C15.9456 9.02216 15.4586 8.91294 15.0468 8.69452C14.635 8.47609 14.3181 8.1413 14.0961 7.69012C13.8741 7.23895 13.7631 6.66604 13.7631 5.97137C13.7631 5.24807 13.8849 4.65725 14.1284 4.19891C14.3718 3.74058 14.7084 3.4022 15.1381 3.18378C15.5714 2.96535 16.0673 2.85614 16.6259 2.85614C16.9804 2.85614 17.3009 2.89195 17.5873 2.96356C17.8774 3.0316 18.1227 3.11574 18.3232 3.216L17.9472 4.22577C17.7288 4.13625 17.505 4.06106 17.2758 4.00018C17.0467 3.93931 16.8264 3.90887 16.6152 3.90887C16.2678 3.90887 15.9778 3.98586 15.7451 4.13983C15.5159 4.2938 15.344 4.52297 15.2294 4.82733C15.1184 5.13169 15.0629 5.50946 15.0629 5.96063C15.0629 6.39748 15.1202 6.7663 15.2348 7.06708C15.3494 7.36428 15.5195 7.58986 15.7451 7.74384C15.9706 7.89423 16.2482 7.96942 16.5776 7.96942C16.9034 7.96942 17.1953 7.93003 17.4531 7.85126C17.7109 7.77248 17.9544 7.67043 18.1835 7.5451V8.64081C17.9579 8.76971 17.7162 8.8646 17.4584 8.92548C17.2006 8.98993 16.8837 9.02216 16.5078 9.02216ZM20.8422 0.557312V2.65741C20.8422 2.87583 20.8351 3.08889 20.8207 3.29657C20.81 3.50425 20.7975 3.66538 20.7831 3.77997H20.853C20.9783 3.57229 21.1323 3.4022 21.3149 3.26971C21.4975 3.13365 21.7016 3.0316 21.9272 2.96356C22.1564 2.89553 22.3998 2.86151 22.6577 2.86151C23.1124 2.86151 23.4991 2.9385 23.8178 3.09247C24.1365 3.24286 24.38 3.4774 24.5483 3.79608C24.7202 4.11477 24.8061 4.52834 24.8061 5.0368V8.91473H23.5439V5.27313C23.5439 4.81122 23.449 4.46568 23.2592 4.23651C23.0694 4.00376 22.7758 3.88739 22.3784 3.88739C21.9952 3.88739 21.6909 3.96796 21.4653 4.12909C21.2433 4.28664 21.0839 4.52118 20.9872 4.8327C20.8906 5.14065 20.8422 5.51662 20.8422 5.96063V8.91473H19.58V0.557312H20.8422ZM28.9042 2.85614C29.6562 2.85614 30.2237 3.02264 30.6069 3.35565C30.9936 3.68866 31.187 4.20787 31.187 4.91327V8.91473H30.29L30.0483 8.07147H30.0053C29.837 8.28632 29.6634 8.46356 29.4843 8.60321C29.3053 8.74286 29.0976 8.8467 28.8613 8.91473C28.6285 8.98635 28.3439 9.02216 28.0073 9.02216C27.6528 9.02216 27.3359 8.9577 27.0566 8.8288C26.7773 8.69631 26.5571 8.49579 26.3959 8.22723C26.2348 7.95868 26.1542 7.61851 26.1542 7.20673C26.1542 6.59442 26.3816 6.1343 26.8364 5.82635C27.2947 5.51841 27.9858 5.34833 28.9096 5.3161L29.9409 5.2785V4.96698C29.9409 4.5552 29.8442 4.26158 29.6508 4.08612C29.461 3.91066 29.1925 3.82294 28.8452 3.82294C28.548 3.82294 28.2597 3.86591 27.9804 3.95184C27.7011 4.03778 27.429 4.14341 27.164 4.26874L26.7558 3.37714C27.0458 3.22316 27.3753 3.09784 27.7441 3.00116C28.1165 2.90448 28.5032 2.85614 28.9042 2.85614ZM29.9355 6.07343L29.1674 6.10028C28.5372 6.12177 28.095 6.22919 27.8408 6.42255C27.5865 6.61591 27.4594 6.88088 27.4594 7.21747C27.4594 7.51109 27.5471 7.72593 27.7226 7.862C27.8981 7.99449 28.129 8.06073 28.4155 8.06073C28.8523 8.06073 29.214 7.93719 29.5004 7.69012C29.7905 7.43947 29.9355 7.07245 29.9355 6.58905V6.07343ZM35.9672 2.85614C36.0675 2.85614 36.1767 2.86151 36.2949 2.87225C36.413 2.883 36.5151 2.89732 36.601 2.91522L36.4828 4.09686C36.4077 4.07538 36.3146 4.05927 36.2036 4.04852C36.0961 4.03778 35.9995 4.03241 35.9135 4.03241C35.6879 4.03241 35.4731 4.07001 35.269 4.1452C35.0649 4.21682 34.8841 4.32782 34.7265 4.47821C34.5689 4.62502 34.4454 4.80943 34.3559 5.03143C34.2664 5.25344 34.2216 5.51125 34.2216 5.80487V8.91473H32.954V2.96893H33.9423L34.1142 4.0163H34.1733C34.2914 3.80503 34.4383 3.61167 34.6137 3.43622C34.7892 3.26076 34.9897 3.12111 35.2153 3.01727C35.4444 2.90985 35.6951 2.85614 35.9672 2.85614ZM39.3994 11.5573C38.5937 11.5573 37.976 11.4123 37.5463 11.1223C37.1166 10.8322 36.9018 10.4258 36.9018 9.90302C36.9018 9.53778 37.0164 9.22805 37.2455 8.97382C37.4747 8.72316 37.8023 8.5495 38.2285 8.45282C38.0673 8.38121 37.9277 8.2702 37.8095 8.11981C37.6949 7.96584 37.6376 7.79576 37.6376 7.60956C37.6376 7.38755 37.7003 7.19777 37.8256 7.04022C37.9509 6.88267 38.1389 6.73049 38.3896 6.58368C38.0781 6.45119 37.8274 6.23635 37.6376 5.93915C37.4514 5.63837 37.3583 5.28566 37.3583 4.88104C37.3583 4.45135 37.4496 4.08612 37.6323 3.78534C37.8149 3.48098 38.0816 3.25002 38.4326 3.09247C38.7835 2.93134 39.2078 2.85077 39.7055 2.85077C39.8129 2.85077 39.9293 2.85793 40.0546 2.87225C40.1835 2.883 40.3017 2.89732 40.4091 2.91522C40.5201 2.92955 40.6043 2.94566 40.6616 2.96356H42.7187V3.66718L41.7089 3.85516C41.8056 3.99123 41.8826 4.14699 41.9399 4.32245C41.9972 4.49432 42.0258 4.68231 42.0258 4.88641C42.0258 5.5023 41.8128 5.98749 41.3867 6.34198C40.9641 6.69289 40.3805 6.86835 39.6357 6.86835C39.4566 6.86119 39.283 6.84686 39.1147 6.82538C38.9858 6.90415 38.8873 6.99188 38.8193 7.08856C38.7512 7.18166 38.7172 7.28729 38.7172 7.40546C38.7172 7.50214 38.7512 7.58091 38.8193 7.64178C38.8873 7.69908 38.9876 7.74205 39.1201 7.77069C39.2561 7.79934 39.4208 7.81366 39.6142 7.81366H40.6401C41.2918 7.81366 41.7895 7.95152 42.1332 8.22723C42.477 8.50295 42.6489 8.90757 42.6489 9.4411C42.6489 10.1179 42.3696 10.6389 41.811 11.0041C41.2524 11.3729 40.4485 11.5573 39.3994 11.5573ZM39.4477 10.6711C39.8881 10.6711 40.2587 10.6281 40.5595 10.5422C40.8603 10.4562 41.0877 10.3327 41.2416 10.1716C41.3956 10.014 41.4726 9.82603 41.4726 9.6076C41.4726 9.41425 41.4243 9.26565 41.3276 9.1618C41.2309 9.05796 41.0859 8.98635 40.8925 8.94696C40.6992 8.90757 40.4592 8.88788 40.1728 8.88788H39.2382C39.0055 8.88788 38.7996 8.92369 38.6205 8.9953C38.4415 9.0705 38.3019 9.17792 38.2016 9.31757C38.1049 9.45721 38.0566 9.62551 38.0566 9.82245C38.0566 10.0946 38.1765 10.3041 38.4164 10.4509C38.6599 10.5977 39.0037 10.6711 39.4477 10.6711ZM39.6948 6.0412C40.0636 6.0412 40.3375 5.94094 40.5165 5.74042C40.6956 5.53632 40.7851 5.24986 40.7851 4.88104C40.7851 4.48 40.692 4.17922 40.5058 3.9787C40.3232 3.77818 40.051 3.67792 39.6894 3.67792C39.3349 3.67792 39.0646 3.77997 38.8784 3.98407C38.6957 4.18817 38.6044 4.49074 38.6044 4.89178C38.6044 5.25344 38.6957 5.53632 38.8784 5.74042C39.0646 5.94094 39.3367 6.0412 39.6948 6.0412ZM46.1723 2.85614C46.7023 2.85614 47.157 2.96535 47.5366 3.18378C47.9161 3.4022 48.2079 3.71193 48.412 4.11298C48.6161 4.51402 48.7182 4.99384 48.7182 5.55243V6.22919H44.749C44.7633 6.80568 44.9173 7.24969 45.2109 7.56122C45.5081 7.87274 45.9234 8.0285 46.457 8.0285C46.8365 8.0285 47.1767 7.9927 47.4775 7.92108C47.7818 7.84589 48.0952 7.73667 48.4174 7.59344V8.61932C48.1202 8.75897 47.8176 8.86102 47.5097 8.92548C47.2018 8.98993 46.8329 9.02216 46.4033 9.02216C45.8196 9.02216 45.3058 8.90936 44.8618 8.68378C44.4213 8.45461 44.0758 8.11444 43.8251 7.66327C43.5781 7.2121 43.4545 6.65171 43.4545 5.98212C43.4545 5.3161 43.5673 4.75035 43.7929 4.28485C44.0185 3.81936 44.3354 3.46486 44.7436 3.22137C45.1518 2.97788 45.628 2.85614 46.1723 2.85614ZM46.1723 3.80682C45.7748 3.80682 45.4526 3.93573 45.2055 4.19354C44.962 4.45135 44.8188 4.82912 44.7758 5.32684H47.4828C47.4793 5.02964 47.4291 4.76646 47.3325 4.53729C47.2394 4.30813 47.0961 4.12909 46.9028 4.00018C46.713 3.87128 46.4695 3.80682 46.1723 3.80682Z" fill="#434343"/>
</svg>
