<svg width="69" height="50" viewBox="0 0 69 50" fill="none" xmlns="http://www.w3.org/2000/svg">
<path d="M66.2626 2.73531C62.128 0.93354 57.9903 0.248047 53.8547 0.248047C40.7263 0.24694 27.599 7.1517 14.4706 7.1517C11.1782 7.1517 7.8878 6.71759 4.59531 5.63232C4.22545 5.51051 3.85453 5.45292 3.49213 5.45292C1.65776 5.45292 0.0546875 6.928 0.0546875 8.97562V44.1096C0.0546875 45.5083 0.825315 46.8339 2.0628 47.3721C6.19732 49.175 10.335 49.8605 14.4706 49.8605C27.599 49.8605 40.7274 42.9557 53.8558 42.9557C57.1483 42.9557 60.4386 43.3898 63.7311 44.4751C64.101 44.5969 64.4719 44.6545 64.8343 44.6545C66.6687 44.6545 68.2717 43.1794 68.2717 41.1318V5.99888C68.2707 4.5991 67.5 3.27463 66.2626 2.73531ZM5.17089 11.3466C7.31543 11.9047 9.55376 12.1849 11.8561 12.3355C11.2293 15.5902 8.4751 18.0432 5.17089 18.0432V11.3466ZM5.17089 42.9081V37.6168C8.8343 37.6168 11.7985 40.6368 11.9616 44.4164C9.56016 44.2159 7.31543 43.7176 5.17089 42.9081ZM34.1627 35.6855C29.4526 35.6855 25.6357 30.9247 25.6357 25.0542C25.6357 19.1827 29.4536 14.423 34.1627 14.423C38.8717 14.423 42.6897 19.1827 42.6897 25.0542C42.6897 30.9269 38.8706 35.6855 34.1627 35.6855ZM63.1545 38.7619C61.2871 38.2757 59.3482 38.0033 57.3646 37.8272C57.9903 34.9391 60.2958 32.7464 63.1545 32.3699V38.7619ZM63.1545 12.6146C59.862 12.1816 57.3071 9.32557 57.2058 5.79843C59.2885 6.03874 61.2657 6.48836 63.1545 7.20043V12.6146Z" fill="#007643"/>
</svg>
