<svg width="63" height="12" viewBox="0 0 63 12" fill="none" xmlns="http://www.w3.org/2000/svg">
<path d="M1.45157 11.1008C1.25463 11.1008 1.08275 11.0882 0.935944 11.0632C0.785553 11.0417 0.656647 11.0113 0.549225 10.9719V9.89227C0.663808 9.92092 0.787343 9.94598 0.91983 9.96747C1.05232 9.98895 1.19376 9.99969 1.34415 9.99969C1.54109 9.99969 1.72012 9.9621 1.88126 9.8869C2.04239 9.81171 2.1695 9.67564 2.2626 9.4787C2.35928 9.28176 2.40762 9.00425 2.40762 8.64618V1.06219H3.69669V8.60321C3.69669 9.18687 3.60359 9.66132 3.41739 10.0266C3.23119 10.3954 2.9698 10.6657 2.63321 10.8376C2.29662 11.013 1.90274 11.1008 1.45157 11.1008ZM10.8617 5.92841C10.8617 6.42255 10.7973 6.86119 10.6684 7.24432C10.5395 7.62746 10.3515 7.95152 10.1044 8.21649C9.85733 8.47788 9.56013 8.67841 9.2128 8.81805C8.86547 8.95412 8.47338 9.02216 8.03653 9.02216C7.62833 9.02216 7.25414 8.95412 6.91397 8.81805C6.5738 8.67841 6.27839 8.47788 6.02774 8.21649C5.78067 7.95152 5.5891 7.62746 5.45303 7.24432C5.31697 6.86119 5.24893 6.42255 5.24893 5.92841C5.24893 5.27313 5.36172 4.71812 5.58731 4.26337C5.81648 3.80503 6.14232 3.45591 6.56485 3.216C6.98738 2.97609 7.49047 2.85614 8.07413 2.85614C8.62198 2.85614 9.10538 2.97609 9.52432 3.216C9.94327 3.45591 10.2709 3.80503 10.5072 4.26337C10.7436 4.7217 10.8617 5.27671 10.8617 5.92841ZM6.54874 5.92841C6.54874 6.36167 6.60066 6.73228 6.7045 7.04022C6.81192 7.34816 6.97663 7.58449 7.19864 7.74921C7.42064 7.91034 7.7071 7.99091 8.05801 7.99091C8.40893 7.99091 8.69538 7.91034 8.91739 7.74921C9.13939 7.58449 9.30232 7.34816 9.40616 7.04022C9.51 6.73228 9.56192 6.36167 9.56192 5.92841C9.56192 5.49514 9.51 5.12811 9.40616 4.82733C9.30232 4.52297 9.13939 4.29201 8.91739 4.13446C8.69538 3.97333 8.40714 3.89276 8.05264 3.89276C7.52986 3.89276 7.14851 4.06822 6.9086 4.41913C6.66869 4.77004 6.54874 5.27313 6.54874 5.92841ZM13.5741 2.96893V8.91473H12.3119V2.96893H13.5741ZM12.9511 0.691589C13.1444 0.691589 13.3109 0.74351 13.4506 0.847351C13.5938 0.951192 13.6654 1.13023 13.6654 1.38446C13.6654 1.63511 13.5938 1.81415 13.4506 1.92157C13.3109 2.02541 13.1444 2.07733 12.9511 2.07733C12.7506 2.07733 12.5805 2.02541 12.4408 1.92157C12.3048 1.81415 12.2367 1.63511 12.2367 1.38446C12.2367 1.13023 12.3048 0.951192 12.4408 0.847351C12.5805 0.74351 12.7506 0.691589 12.9511 0.691589ZM18.4833 2.85614C19.1529 2.85614 19.6739 3.02981 20.0463 3.37714C20.4223 3.72089 20.6103 4.27411 20.6103 5.0368V8.91473H19.3481V5.27313C19.3481 4.81122 19.2532 4.46568 19.0634 4.23651C18.8736 4.00376 18.58 3.88739 18.1825 3.88739C17.606 3.88739 17.205 4.06464 16.9794 4.41913C16.7574 4.77362 16.6464 5.28746 16.6464 5.96063V8.91473H15.3842V2.96893H16.3671L16.5443 3.7746H16.6142C16.7431 3.56691 16.9024 3.39683 17.0922 3.26434C17.2856 3.12828 17.5004 3.02622 17.7367 2.95819C17.9766 2.89016 18.2255 2.85614 18.4833 2.85614ZM29.8969 6.77704C29.8969 7.24253 29.7823 7.64358 29.5531 7.98016C29.3275 8.31675 29.0017 8.57456 28.5756 8.7536C28.1531 8.93264 27.6482 9.02216 27.0609 9.02216C26.7745 9.02216 26.5006 9.00604 26.2392 8.97382C25.9778 8.94159 25.7307 8.89504 25.498 8.83417C25.2688 8.76971 25.0593 8.69273 24.8695 8.60321V7.38934C25.1882 7.52899 25.5445 7.65611 25.9384 7.77069C26.3323 7.88169 26.7333 7.93719 27.1415 7.93719C27.4745 7.93719 27.7502 7.89423 27.9687 7.80829C28.1907 7.71877 28.3554 7.59344 28.4628 7.43231C28.5702 7.2676 28.6239 7.07603 28.6239 6.8576C28.6239 6.62486 28.5613 6.42792 28.4359 6.26678C28.3106 6.10565 28.1208 5.95884 27.8666 5.82635C27.616 5.69029 27.3009 5.54527 26.9213 5.3913C26.6635 5.28746 26.4164 5.16929 26.1801 5.0368C25.9473 4.90432 25.7397 4.74856 25.557 4.56952C25.3744 4.39048 25.2294 4.17922 25.122 3.93573C25.0181 3.68866 24.9662 3.39862 24.9662 3.06561C24.9662 2.6216 25.0718 2.24205 25.2831 1.92694C25.498 1.61184 25.7987 1.37014 26.1855 1.20184C26.5758 1.03355 27.0305 0.949402 27.5497 0.949402C27.9615 0.949402 28.3482 0.992371 28.7099 1.07831C29.0751 1.16425 29.4332 1.28599 29.7841 1.44354L29.3759 2.48016C29.0536 2.34768 28.7403 2.24205 28.4359 2.16327C28.1352 2.08449 27.8272 2.0451 27.5121 2.0451C27.24 2.0451 27.009 2.08628 26.8192 2.16864C26.6295 2.251 26.4844 2.36737 26.3842 2.51776C26.2875 2.66457 26.2392 2.84003 26.2392 3.04413C26.2392 3.2733 26.2947 3.46665 26.4057 3.62421C26.5203 3.77818 26.6957 3.91962 26.932 4.04852C27.1719 4.17743 27.4799 4.32066 27.8559 4.47821C28.2891 4.65725 28.6562 4.84524 28.9569 5.04218C29.2613 5.23912 29.494 5.47544 29.6552 5.75116C29.8163 6.0233 29.8969 6.36525 29.8969 6.77704ZM34.7577 2.0451C34.3817 2.0451 34.0452 2.11314 33.748 2.24921C33.4543 2.38527 33.2055 2.58221 33.0014 2.84003C32.7973 3.09426 32.6415 3.40399 32.5341 3.76923C32.4267 4.13088 32.373 4.53908 32.373 4.99384C32.373 5.60256 32.4589 6.12714 32.6308 6.56757C32.8026 7.00441 33.064 7.341 33.4149 7.57733C33.7659 7.81008 34.2099 7.92645 34.747 7.92645C35.08 7.92645 35.404 7.89423 35.7191 7.82977C36.0343 7.76532 36.3601 7.67759 36.6967 7.56659V8.66229C36.378 8.78762 36.0557 8.87893 35.7299 8.93622C35.404 8.99351 35.0281 9.02216 34.602 9.02216C33.7999 9.02216 33.1339 8.85565 32.6039 8.52264C32.0775 8.18964 31.6837 7.72056 31.4223 7.11542C31.1645 6.51027 31.0356 5.80129 31.0356 4.98846C31.0356 4.39406 31.1179 3.84979 31.2826 3.35565C31.4473 2.86151 31.6872 2.4354 32.0023 2.07733C32.3175 1.71568 32.706 1.43817 33.1679 1.24481C33.6334 1.04787 34.1651 0.949402 34.7631 0.949402C35.157 0.949402 35.5437 0.994161 35.9232 1.08368C36.3064 1.16962 36.6609 1.29315 36.9867 1.45428L36.5356 2.51776C36.2634 2.38885 35.9787 2.27785 35.6815 2.18475C35.3843 2.09165 35.0764 2.0451 34.7577 2.0451ZM45.3549 4.97772C45.3549 5.58287 45.2779 6.1343 45.1239 6.63202C44.9735 7.12616 44.7462 7.55227 44.4418 7.91034C44.1374 8.26483 43.7561 8.53876 43.2978 8.73212C42.8394 8.92548 42.3023 9.02216 41.6864 9.02216C41.0598 9.02216 40.5155 8.92548 40.0536 8.73212C39.5953 8.53876 39.2139 8.26304 38.9096 7.90497C38.6088 7.5469 38.3832 7.119 38.2328 6.62128C38.0824 6.12356 38.0072 5.57212 38.0072 4.96698C38.0072 4.15774 38.1397 3.45233 38.4047 2.85077C38.6732 2.24563 39.0797 1.77655 39.6239 1.44354C40.1718 1.10695 40.8629 0.93866 41.6972 0.93866C42.5136 0.93866 43.1921 1.10516 43.7328 1.43817C44.2735 1.77118 44.6781 2.24025 44.9467 2.8454C45.2188 3.44696 45.3549 4.15774 45.3549 4.97772ZM39.3607 4.97772C39.3607 5.58287 39.4431 6.10744 39.6078 6.55145C39.7725 6.99188 40.025 7.33205 40.3651 7.57196C40.7089 7.80829 41.1493 7.92645 41.6864 7.92645C42.2271 7.92645 42.6676 7.80829 43.0077 7.57196C43.3479 7.33205 43.5985 6.99188 43.7597 6.55145C43.9208 6.10744 44.0014 5.58287 44.0014 4.97772C44.0014 4.05747 43.817 3.33775 43.4482 2.81854C43.0829 2.29576 42.4993 2.03436 41.6972 2.03436C41.1601 2.03436 40.7178 2.15253 40.3705 2.38885C40.0268 2.62518 39.7725 2.96356 39.6078 3.40399C39.4431 3.84084 39.3607 4.36542 39.3607 4.97772ZM54.9638 7.19061H53.9003V8.91473H52.6542V7.19061H49.0824V6.23456L52.6703 1.04071H53.9003V6.14325H54.9638V7.19061ZM52.6542 6.14325V4.19354C52.6542 4.03241 52.656 3.86949 52.6596 3.70477C52.6667 3.53648 52.6739 3.37535 52.6811 3.22137C52.6882 3.0674 52.6954 2.92596 52.7025 2.79706C52.7097 2.66457 52.7151 2.55536 52.7187 2.46942H52.6757C52.6077 2.61265 52.5325 2.75946 52.4501 2.90985C52.3677 3.05666 52.28 3.19989 52.1869 3.33954L50.2533 6.14325H52.6542ZM59.3627 4.65009H62.2953V8.59247C61.8835 8.72854 61.4574 8.83417 61.017 8.90936C60.5766 8.98456 60.0824 9.02216 59.5346 9.02216C58.7361 9.02216 58.0593 8.8646 57.5043 8.5495C56.9529 8.23081 56.5339 7.77069 56.2475 7.16913C55.961 6.56399 55.8178 5.83531 55.8178 4.98309C55.8178 4.16311 55.9771 3.45233 56.2958 2.85077C56.6145 2.24563 57.0782 1.77834 57.6869 1.44891C58.2956 1.11591 59.0333 0.949402 59.8998 0.949402C60.3259 0.949402 60.7377 0.992371 61.1352 1.07831C61.5362 1.16066 61.9032 1.27525 62.2362 1.42206L61.7851 2.48553C61.5201 2.36021 61.2229 2.25458 60.8935 2.16864C60.564 2.0827 60.2221 2.03973 59.8676 2.03973C59.3054 2.03973 58.8202 2.16148 58.412 2.40497C58.0074 2.64846 57.6959 2.99221 57.4774 3.43622C57.259 3.87665 57.1498 4.39764 57.1498 4.99921C57.1498 5.58287 57.2375 6.09491 57.413 6.53534C57.5885 6.97577 57.8624 7.31952 58.2348 7.56659C58.6107 7.81008 59.0959 7.93182 59.6903 7.93182C59.9875 7.93182 60.24 7.91571 60.4477 7.88348C60.6553 7.85126 60.8469 7.81545 61.0224 7.77606V5.75116H59.3627V4.65009Z" fill="#434343"/>
</svg>
