<svg width="49" height="58" viewBox="0 0 49 58" fill="none" xmlns="http://www.w3.org/2000/svg">
<path d="M48.2048 16.5755L32.8137 1.16026C32.3948 0.751268 31.832 0.523832 31.2471 0.527135H4.8623C3.69603 0.527135 2.57751 0.991165 1.75283 1.81714C0.928146 2.64312 0.464844 3.76339 0.464844 4.9315V53.3795C0.464844 54.5476 0.928146 55.6679 1.75283 56.4939C2.57751 57.3198 3.69603 57.7839 4.8623 57.7839H44.4394C45.6057 57.7839 46.7242 57.3198 47.5489 56.4939C48.3736 55.6679 48.8369 54.5476 48.8369 53.3795V18.1446C48.8402 17.5587 48.6131 16.9951 48.2048 16.5755V16.5755ZM44.4394 53.3795H4.8623V4.9315H30.3401L44.4394 19.053V53.3795Z" fill="#007643"/>
<path d="M37.7665 24.7131H11.5355C10.9558 24.7131 10.3998 24.9448 9.98985 25.3571C9.57991 25.7695 9.34961 26.3287 9.34961 26.9119V46.7005C9.34961 47.2836 9.57991 47.8428 9.98985 48.2552C10.3998 48.6675 10.9558 48.8992 11.5355 48.8992H37.7665C38.3462 48.8992 38.9022 48.6675 39.3121 48.2552C39.7221 47.8428 39.9524 47.2836 39.9524 46.7005V26.9119C39.9524 26.3287 39.7221 25.7695 39.3121 25.3571C38.9022 24.9448 38.3462 24.7131 37.7665 24.7131ZM22.4651 42.303C22.4651 42.8861 22.2348 43.4454 21.8248 43.8577C21.4149 44.2701 20.8589 44.5017 20.2792 44.5017C19.6994 44.5017 19.1434 44.2701 18.7335 43.8577C18.3236 43.4454 18.0933 42.8861 18.0933 42.303V31.3093C18.0933 30.7262 18.3236 30.1669 18.7335 29.7546C19.1434 29.3422 19.6994 29.1106 20.2792 29.1106C20.8589 29.1106 21.4149 29.3422 21.8248 29.7546C22.2348 30.1669 22.4651 30.7262 22.4651 31.3093V42.303ZM31.2087 42.303C31.2087 42.8861 30.9784 43.4454 30.5685 43.8577C30.1585 44.2701 29.6025 44.5017 29.0228 44.5017C28.4431 44.5017 27.8871 44.2701 27.4771 43.8577C27.0672 43.4454 26.8369 42.8861 26.8369 42.303V31.3093C26.8369 30.7262 27.0672 30.1669 27.4771 29.7546C27.8871 29.3422 28.4431 29.1106 29.0228 29.1106C29.6025 29.1106 30.1585 29.3422 30.5685 29.7546C30.9784 30.1669 31.2087 30.7262 31.2087 31.3093V42.303Z" fill="#007643"/>
</svg>
