<svg width="40" height="12" viewBox="0 0 40 12" fill="none" xmlns="http://www.w3.org/2000/svg">
<path d="M2.56653 1.06219C3.57988 1.06219 4.3193 1.26988 4.78479 1.68524C5.25029 2.10061 5.48304 2.68247 5.48304 3.43085C5.48304 3.77102 5.42933 4.09507 5.3219 4.40302C5.21806 4.70738 5.04619 4.97772 4.80628 5.21405C4.56637 5.4468 4.24947 5.63121 3.85559 5.76727C3.4653 5.90334 2.98369 5.97137 2.41077 5.97137H1.57288V8.91473H0.283817V1.06219H2.56653ZM2.48059 2.13104H1.57288V4.89716H2.27649C2.68112 4.89716 3.02487 4.85061 3.30774 4.75751C3.59062 4.66083 3.80546 4.50865 3.95227 4.30096C4.09908 4.09328 4.17249 3.81936 4.17249 3.47919C4.17249 3.02443 4.03463 2.68606 3.75891 2.46405C3.48678 2.24205 3.06067 2.13104 2.48059 2.13104ZM9.93567 2.85614C10.0359 2.85614 10.1451 2.86151 10.2633 2.87225C10.3815 2.883 10.4835 2.89732 10.5695 2.91522L10.4513 4.09686C10.3761 4.07538 10.283 4.05927 10.172 4.04852C10.0646 4.03778 9.9679 4.03241 9.88196 4.03241C9.65638 4.03241 9.44153 4.07001 9.23743 4.1452C9.03333 4.21682 8.8525 4.32782 8.69495 4.47821C8.5374 4.62502 8.41386 4.80943 8.32434 5.03143C8.23483 5.25344 8.19007 5.51125 8.19007 5.80487V8.91473H6.92249V2.96893H7.91077L8.08265 4.0163H8.14173C8.25989 3.80503 8.4067 3.61167 8.58216 3.43622C8.75761 3.26076 8.95813 3.12111 9.18372 3.01727C9.41289 2.90985 9.66354 2.85614 9.93567 2.85614ZM14.0392 2.85614C14.5691 2.85614 15.0239 2.96535 15.4034 3.18378C15.783 3.4022 16.0748 3.71193 16.2789 4.11298C16.483 4.51402 16.5851 4.99384 16.5851 5.55243V6.22919H12.6158C12.6302 6.80568 12.7841 7.24969 13.0778 7.56122C13.375 7.87274 13.7903 8.0285 14.3239 8.0285C14.7034 8.0285 15.0436 7.9927 15.3444 7.92108C15.6487 7.84589 15.962 7.73667 16.2843 7.59344V8.61932C15.9871 8.75897 15.6845 8.86102 15.3766 8.92548C15.0686 8.98993 14.6998 9.02216 14.2701 9.02216C13.6865 9.02216 13.1727 8.90936 12.7286 8.68378C12.2882 8.45461 11.9427 8.11444 11.692 7.66327C11.445 7.2121 11.3214 6.65171 11.3214 5.98212C11.3214 5.3161 11.4342 4.75035 11.6598 4.28485C11.8854 3.81936 12.2023 3.46486 12.6105 3.22137C13.0187 2.97788 13.4949 2.85614 14.0392 2.85614ZM14.0392 3.80682C13.6417 3.80682 13.3195 3.93573 13.0724 4.19354C12.8289 4.45135 12.6857 4.82912 12.6427 5.32684H15.3497C15.3462 5.02964 15.296 4.76646 15.1993 4.53729C15.1062 4.30813 14.963 4.12909 14.7697 4.00018C14.5799 3.87128 14.3364 3.80682 14.0392 3.80682ZM21.0592 2.85614C21.7646 2.85614 22.3304 3.11395 22.7565 3.62958C23.1862 4.1452 23.401 4.91148 23.401 5.92841C23.401 6.60158 23.3007 7.16913 23.1002 7.63104C22.9033 8.08938 22.6258 8.43671 22.2677 8.67303C21.9132 8.90578 21.4996 9.02216 21.027 9.02216C20.7262 9.02216 20.4648 8.98277 20.2428 8.90399C20.0208 8.82522 19.831 8.72316 19.6735 8.59784C19.5159 8.46893 19.3834 8.32928 19.276 8.17889H19.2008C19.2187 8.32212 19.2348 8.48147 19.2491 8.65692C19.2671 8.8288 19.276 8.98635 19.276 9.12958V11.5519H18.0084V2.96893H19.0397L19.2169 3.79071H19.276C19.387 3.62242 19.5213 3.46665 19.6788 3.32343C19.84 3.1802 20.0333 3.0674 20.2589 2.98505C20.4881 2.89911 20.7548 2.85614 21.0592 2.85614ZM20.7208 3.88739C20.3735 3.88739 20.0942 3.95721 19.8829 4.09686C19.6753 4.23293 19.5231 4.43882 19.4264 4.71454C19.3333 4.99025 19.2832 5.3358 19.276 5.75116V5.92841C19.276 6.36884 19.3208 6.74302 19.4103 7.05096C19.5034 7.35533 19.6556 7.58807 19.8668 7.74921C20.0817 7.90676 20.3717 7.98553 20.7369 7.98553C21.0449 7.98553 21.2991 7.90139 21.4996 7.73309C21.7037 7.5648 21.8559 7.32489 21.9562 7.01337C22.0564 6.70184 22.1066 6.33482 22.1066 5.91229C22.1066 5.27134 21.992 4.77362 21.7628 4.41913C21.5372 4.06464 21.1899 3.88739 20.7208 3.88739ZM27.193 2.85614C27.945 2.85614 28.5125 3.02264 28.8956 3.35565C29.2824 3.68866 29.4757 4.20787 29.4757 4.91327V8.91473H28.5787L28.337 8.07147H28.2941C28.1258 8.28632 27.9521 8.46356 27.7731 8.60321C27.594 8.74286 27.3864 8.8467 27.15 8.91473C26.9173 8.98635 26.6326 9.02216 26.296 9.02216C25.9415 9.02216 25.6246 8.9577 25.3453 8.8288C25.066 8.69631 24.8458 8.49579 24.6847 8.22723C24.5236 7.95868 24.443 7.61851 24.443 7.20673C24.443 6.59442 24.6704 6.1343 25.1251 5.82635C25.5835 5.51841 26.2745 5.34833 27.1984 5.3161L28.2296 5.2785V4.96698C28.2296 4.5552 28.1329 4.26158 27.9396 4.08612C27.7498 3.91066 27.4812 3.82294 27.1339 3.82294C26.8367 3.82294 26.5485 3.86591 26.2692 3.95184C25.9899 4.03778 25.7177 4.14341 25.4528 4.26874L25.0446 3.37714C25.3346 3.22316 25.664 3.09784 26.0328 3.00116C26.4052 2.90448 26.792 2.85614 27.193 2.85614ZM28.2242 6.07343L27.4562 6.10028C26.826 6.12177 26.3838 6.22919 26.1295 6.42255C25.8753 6.61591 25.7482 6.88088 25.7482 7.21747C25.7482 7.51109 25.8359 7.72593 26.0114 7.862C26.1868 7.99449 26.4178 8.06073 26.7042 8.06073C27.1411 8.06073 27.5027 7.93719 27.7892 7.69012C28.0792 7.43947 28.2242 7.07245 28.2242 6.58905V6.07343ZM32.505 2.96893V8.91473H31.2428V2.96893H32.505ZM31.882 0.691589C32.0753 0.691589 32.2418 0.74351 32.3815 0.847351C32.5247 0.951192 32.5963 1.13023 32.5963 1.38446C32.5963 1.63511 32.5247 1.81415 32.3815 1.92157C32.2418 2.02541 32.0753 2.07733 31.882 2.07733C31.6814 2.07733 31.5114 2.02541 31.3717 1.92157C31.2356 1.81415 31.1676 1.63511 31.1676 1.38446C31.1676 1.13023 31.2356 0.951192 31.3717 0.847351C31.5114 0.74351 31.6814 0.691589 31.882 0.691589ZM36.3131 9.02216C35.6041 9.02216 35.0348 8.76434 34.6051 8.24872C34.179 7.72951 33.9659 6.96503 33.9659 5.95526C33.9659 4.93475 34.1826 4.16311 34.6158 3.64032C35.0527 3.11753 35.6274 2.85614 36.34 2.85614C36.6408 2.85614 36.9039 2.89732 37.1295 2.97968C37.3551 3.05845 37.5485 3.16587 37.7096 3.30194C37.8743 3.43801 38.014 3.59019 38.1285 3.75848H38.1876C38.1697 3.64748 38.1482 3.48814 38.1232 3.28046C38.1017 3.06919 38.0909 2.87404 38.0909 2.69501V0.557312H39.3585V8.91473H38.3702L38.1447 8.1037H38.0909C37.9835 8.27557 37.8475 8.43134 37.6827 8.57098C37.5216 8.70705 37.3283 8.81626 37.1027 8.89862C36.8807 8.98098 36.6175 9.02216 36.3131 9.02216ZM36.6676 7.99628C37.2083 7.99628 37.5896 7.84052 37.8116 7.52899C38.0337 7.21747 38.1482 6.75018 38.1554 6.12714V5.96063C38.1554 5.29462 38.048 4.78436 37.8331 4.42987C37.6183 4.0718 37.2262 3.89276 36.6569 3.89276C36.2021 3.89276 35.8548 4.07717 35.6149 4.44598C35.3785 4.81122 35.2604 5.32147 35.2604 5.97675C35.2604 6.63202 35.3785 7.13332 35.6149 7.48065C35.8548 7.8244 36.2057 7.99628 36.6676 7.99628Z" fill="#434343"/>
</svg>
