<svg width="40" height="70" viewBox="0 0 40 70" fill="none" xmlns="http://www.w3.org/2000/svg">
<path fill-rule="evenodd" clip-rule="evenodd" d="M39.3591 35.0721H39.3498V15.6677V5.01064C39.3498 2.39903 37.2998 0.353747 34.7069 0.353747C32.1965 0.353747 29.686 0.355948 27.1755 0.35815C20.0022 0.364442 12.8282 0.370734 5.65165 0.325664C3.79358 0.311623 1.6734 1.73911 1.23814 3.62527C1.05561 4.42092 0.915197 5.24465 0.915197 6.05434C0.909906 8.88505 0.924055 11.7172 0.938202 14.5493C0.949084 16.7275 0.959965 18.9056 0.962 21.0828C0.96824 30.868 0.96616 40.6533 0.964079 50.4372L0.964079 50.4372C0.96304 55.3286 0.962 60.2197 0.962 65.1103C0.962 67.9231 2.93708 69.9263 5.74526 69.9263C15.3726 69.9356 25 69.9403 34.632 69.9075C35.3668 69.9075 36.1672 69.7016 36.8271 69.3693C38.6477 68.452 39.3638 66.842 39.3638 64.8528C39.3607 58.2349 39.3617 51.617 39.3628 44.999C39.3633 41.6901 39.3638 38.3811 39.3638 35.0721H39.3591ZM20.1465 65.143C19.0607 65.143 18.2416 64.324 18.237 63.2335C18.237 62.1429 19.056 61.3005 20.1278 61.2911C21.2136 61.2864 22.0982 62.1664 22.0842 63.2428C22.0701 64.3146 21.2277 65.143 20.1465 65.143ZM37.1266 56.7981V57.5375H3.15238V56.7232V7.08401C3.15238 6.87694 3.14677 6.66988 3.14116 6.46296V6.46296C3.12903 6.0151 3.11692 5.56794 3.16174 5.12296C3.33491 3.45678 4.4067 2.50668 6.08224 2.50668C7.06273 2.50668 8.04438 2.5137 9.02604 2.52072L9.02614 2.52072L9.02624 2.52072C10.0079 2.52774 10.9896 2.53476 11.97 2.53476C19.3555 2.53476 26.741 2.53476 34.1265 2.53944C34.515 2.53944 34.9128 2.56284 35.2966 2.64241C36.3871 2.87642 37.0377 3.72356 37.1219 4.96383C37.1332 5.1435 37.1324 5.32317 37.1317 5.50283V5.503C37.1315 5.54793 37.1313 5.59286 37.1313 5.6378V56.7887L37.1266 56.7981ZM20.5487 21.2231C15.3255 21.0546 10.8324 25.178 10.8324 30.4994C10.809 35.5495 14.9744 39.8413 19.9168 39.8647C25.2102 39.8881 29.4412 35.7695 29.474 30.5697C29.5067 25.5758 25.3741 21.3822 20.544 21.2231H20.5487ZM23.8951 29.0486C22.4676 30.5041 21.0354 31.9503 19.5845 33.3778C19.0978 33.8552 18.6625 33.8552 18.1524 33.3872C17.5626 32.8443 16.9916 32.2733 16.4487 31.6836C15.9994 31.1968 16.0275 30.6492 16.4487 30.2327C16.8559 29.8302 17.4784 29.8442 17.9511 30.3029C18.1426 30.4883 18.3163 30.6894 18.4914 30.8923C18.586 31.0019 18.681 31.1119 18.7795 31.2202C19.8934 30.1297 20.9746 29.072 22.0604 28.0236C22.2617 27.8317 22.4723 27.6351 22.711 27.5041C23.1603 27.2607 23.6517 27.3964 23.9559 27.7942C24.2976 28.2435 24.3069 28.6367 23.9044 29.0486H23.8951ZM18.7451 8.24303C17.585 8.24685 16.425 8.25067 15.2649 8.23061V8.2353C14.4927 8.22593 14.1136 7.82811 14.123 7.15883C14.1276 6.50359 14.5255 6.08704 15.2884 6.08704C18.5552 6.06832 21.822 6.073 25.0889 6.08704C25.7675 6.09172 26.1981 6.55975 26.1934 7.17755C26.1841 7.79067 25.8003 8.22125 25.1216 8.23061C23.9349 8.25067 22.7481 8.24685 21.5613 8.24303C21.0866 8.2415 20.6118 8.23997 20.1371 8.23997C19.6731 8.23997 19.2091 8.2415 18.7451 8.24303Z" fill="#007643"/>
</svg>
