<svg width="46" height="12" viewBox="0 0 46 12" fill="none" xmlns="http://www.w3.org/2000/svg">
<path d="M3.00569 1.06219C4.01903 1.06219 4.75845 1.26988 5.22395 1.68524C5.68944 2.10061 5.92219 2.68247 5.92219 3.43085C5.92219 3.77102 5.86848 4.09507 5.76106 4.40302C5.65722 4.70738 5.48534 4.97772 5.24543 5.21405C5.00552 5.4468 4.68863 5.63121 4.29475 5.76727C3.90445 5.90334 3.42284 5.97137 2.84992 5.97137H2.01203V8.91473H0.722971V1.06219H3.00569ZM2.91975 2.13104H2.01203V4.89716H2.71565C3.12027 4.89716 3.46402 4.85061 3.7469 4.75751C4.02977 4.66083 4.24462 4.50865 4.39143 4.30096C4.53824 4.09328 4.61164 3.81936 4.61164 3.47919C4.61164 3.02443 4.47378 2.68606 4.19807 2.46405C3.92593 2.24205 3.49983 2.13104 2.91975 2.13104ZM12.6253 5.92841C12.6253 6.42255 12.5609 6.86119 12.432 7.24432C12.303 7.62746 12.1151 7.95152 11.868 8.21649C11.6209 8.47788 11.3237 8.67841 10.9764 8.81805C10.6291 8.95412 10.237 9.02216 9.80012 9.02216C9.39192 9.02216 9.01773 8.95412 8.67756 8.81805C8.33739 8.67841 8.04198 8.47788 7.79133 8.21649C7.54426 7.95152 7.35269 7.62746 7.21662 7.24432C7.08056 6.86119 7.01252 6.42255 7.01252 5.92841C7.01252 5.27313 7.12531 4.71812 7.3509 4.26337C7.58007 3.80503 7.90591 3.45591 8.32844 3.216C8.75097 2.97609 9.25406 2.85614 9.83772 2.85614C10.3856 2.85614 10.869 2.97609 11.2879 3.216C11.7069 3.45591 12.0345 3.80503 12.2708 4.26337C12.5072 4.7217 12.6253 5.27671 12.6253 5.92841ZM8.31233 5.92841C8.31233 6.36167 8.36425 6.73228 8.46809 7.04022C8.57551 7.34816 8.74022 7.58449 8.96223 7.74921C9.18423 7.91034 9.47069 7.99091 9.8216 7.99091C10.1725 7.99091 10.459 7.91034 10.681 7.74921C10.903 7.58449 11.0659 7.34816 11.1697 7.04022C11.2736 6.73228 11.3255 6.36167 11.3255 5.92841C11.3255 5.49514 11.2736 5.12811 11.1697 4.82733C11.0659 4.52297 10.903 4.29201 10.681 4.13446C10.459 3.97333 10.1707 3.89276 9.81623 3.89276C9.29345 3.89276 8.9121 4.06822 8.67219 4.41913C8.43228 4.77004 8.31233 5.27313 8.31233 5.92841ZM18.0716 7.21747C18.0716 7.60777 17.9767 7.93719 17.7869 8.20575C17.5972 8.4743 17.3197 8.67841 16.9544 8.81805C16.5928 8.95412 16.1488 9.02216 15.6224 9.02216C15.207 9.02216 14.8489 8.99172 14.5482 8.93085C14.251 8.87356 13.9699 8.78404 13.7049 8.66229V7.57196C13.9878 7.70445 14.3047 7.81903 14.6556 7.91571C15.0101 8.01239 15.3449 8.06073 15.66 8.06073C16.0753 8.06073 16.3743 7.99628 16.557 7.86737C16.7396 7.73488 16.8309 7.55943 16.8309 7.341C16.8309 7.2121 16.7933 7.09751 16.7181 6.99725C16.6465 6.89341 16.5104 6.78778 16.3099 6.68036C16.1129 6.56936 15.8229 6.43687 15.4398 6.2829C15.0638 6.13251 14.7469 5.98212 14.4891 5.83173C14.2313 5.68134 14.0361 5.50051 13.9036 5.28925C13.7711 5.0744 13.7049 4.80048 13.7049 4.46747C13.7049 3.9411 13.9126 3.54185 14.328 3.26971C14.7469 2.994 15.3001 2.85614 15.9876 2.85614C16.3529 2.85614 16.6966 2.89374 17.0189 2.96893C17.3447 3.04055 17.6634 3.14618 17.9749 3.28583L17.5775 4.23651C17.3089 4.11835 17.0386 4.02167 16.7664 3.94647C16.4979 3.8677 16.2239 3.82831 15.9447 3.82831C15.6188 3.82831 15.3699 3.87844 15.1981 3.9787C15.0298 4.07896 14.9456 4.22219 14.9456 4.40839C14.9456 4.54803 14.9868 4.6662 15.0692 4.76288C15.1515 4.85956 15.293 4.95624 15.4935 5.05292C15.6976 5.1496 15.9805 5.26955 16.3421 5.41278C16.6966 5.54885 17.0028 5.69208 17.2606 5.84247C17.522 5.98928 17.7225 6.1701 17.8621 6.38495C18.0018 6.59979 18.0716 6.8773 18.0716 7.21747ZM21.6488 8.00165C21.8135 8.00165 21.9764 7.98733 22.1375 7.95868C22.2987 7.92645 22.4455 7.88885 22.578 7.84589V8.80194C22.4383 8.86281 22.2575 8.91473 22.0355 8.9577C21.8135 9.00067 21.5825 9.02216 21.3426 9.02216C21.006 9.02216 20.7034 8.96665 20.4349 8.85565C20.1663 8.74107 19.9533 8.54592 19.7957 8.2702C19.6382 7.99449 19.5594 7.61314 19.5594 7.12616V3.93036H18.7484V3.36639L19.6185 2.92059L20.0321 1.64764H20.827V2.96893H22.5296V3.93036H20.827V7.11005C20.827 7.41083 20.9022 7.63462 21.0526 7.78143C21.203 7.92824 21.4017 8.00165 21.6488 8.00165ZM26.8372 2.85614C27.5426 2.85614 28.1084 3.11395 28.5345 3.62958C28.9642 4.1452 29.179 4.91148 29.179 5.92841C29.179 6.60158 29.0788 7.16913 28.8782 7.63104C28.6813 8.08938 28.4038 8.43671 28.0457 8.67303C27.6912 8.90578 27.2777 9.02216 26.805 9.02216C26.5042 9.02216 26.2428 8.98277 26.0208 8.90399C25.7988 8.82522 25.609 8.72316 25.4515 8.59784C25.2939 8.46893 25.1614 8.32928 25.054 8.17889H24.9788C24.9967 8.32212 25.0128 8.48147 25.0272 8.65692C25.0451 8.8288 25.054 8.98635 25.054 9.12958V11.5519H23.7864V2.96893H24.8177L24.9949 3.79071H25.054C25.165 3.62242 25.2993 3.46665 25.4569 3.32343C25.618 3.1802 25.8113 3.0674 26.0369 2.98505C26.2661 2.89911 26.5329 2.85614 26.8372 2.85614ZM26.4988 3.88739C26.1515 3.88739 25.8722 3.95721 25.661 4.09686C25.4533 4.23293 25.3011 4.43882 25.2044 4.71454C25.1113 4.99025 25.0612 5.3358 25.054 5.75116V5.92841C25.054 6.36884 25.0988 6.74302 25.1883 7.05096C25.2814 7.35533 25.4336 7.58807 25.6448 7.74921C25.8597 7.90676 26.1497 7.98553 26.515 7.98553C26.8229 7.98553 27.0771 7.90139 27.2777 7.73309C27.4818 7.5648 27.6339 7.32489 27.7342 7.01337C27.8345 6.70184 27.8846 6.33482 27.8846 5.91229C27.8846 5.27134 27.77 4.77362 27.5408 4.41913C27.3153 4.06464 26.9679 3.88739 26.4988 3.88739ZM32.971 2.85614C33.723 2.85614 34.2905 3.02264 34.6737 3.35565C35.0604 3.68866 35.2537 4.20787 35.2537 4.91327V8.91473H34.3568L34.1151 8.07147H34.0721C33.9038 8.28632 33.7301 8.46356 33.5511 8.60321C33.3721 8.74286 33.1644 8.8467 32.928 8.91473C32.6953 8.98635 32.4106 9.02216 32.074 9.02216C31.7196 9.02216 31.4027 8.9577 31.1234 8.8288C30.8441 8.69631 30.6238 8.49579 30.4627 8.22723C30.3016 7.95868 30.221 7.61851 30.221 7.20673C30.221 6.59442 30.4484 6.1343 30.9031 5.82635C31.3615 5.51841 32.0526 5.34833 32.9764 5.3161L34.0076 5.2785V4.96698C34.0076 4.5552 33.911 4.26158 33.7176 4.08612C33.5278 3.91066 33.2593 3.82294 32.9119 3.82294C32.6147 3.82294 32.3265 3.86591 32.0472 3.95184C31.7679 4.03778 31.4958 4.14341 31.2308 4.26874L30.8226 3.37714C31.1126 3.22316 31.442 3.09784 31.8109 3.00116C32.1833 2.90448 32.57 2.85614 32.971 2.85614ZM34.0023 6.07343L33.2342 6.10028C32.604 6.12177 32.1618 6.22919 31.9075 6.42255C31.6533 6.61591 31.5262 6.88088 31.5262 7.21747C31.5262 7.51109 31.6139 7.72593 31.7894 7.862C31.9648 7.99449 32.1958 8.06073 32.4822 8.06073C32.9191 8.06073 33.2807 7.93719 33.5672 7.69012C33.8572 7.43947 34.0023 7.07245 34.0023 6.58905V6.07343ZM38.283 2.96893V8.91473H37.0208V2.96893H38.283ZM37.66 0.691589C37.8533 0.691589 38.0198 0.74351 38.1595 0.847351C38.3027 0.951192 38.3743 1.13023 38.3743 1.38446C38.3743 1.63511 38.3027 1.81415 38.1595 1.92157C38.0198 2.02541 37.8533 2.07733 37.66 2.07733C37.4595 2.07733 37.2894 2.02541 37.1497 1.92157C37.0137 1.81415 36.9456 1.63511 36.9456 1.38446C36.9456 1.13023 37.0137 0.951192 37.1497 0.847351C37.2894 0.74351 37.4595 0.691589 37.66 0.691589ZM42.0911 9.02216C41.3821 9.02216 40.8128 8.76434 40.3831 8.24872C39.957 7.72951 39.744 6.96503 39.744 5.95526C39.744 4.93475 39.9606 4.16311 40.3939 3.64032C40.8307 3.11753 41.4054 2.85614 42.118 2.85614C42.4188 2.85614 42.682 2.89732 42.9075 2.97968C43.1331 3.05845 43.3265 3.16587 43.4876 3.30194C43.6523 3.43801 43.792 3.59019 43.9066 3.75848H43.9656C43.9477 3.64748 43.9263 3.48814 43.9012 3.28046C43.8797 3.06919 43.869 2.87404 43.869 2.69501V0.557312H45.1365V8.91473H44.1483L43.9227 8.1037H43.869C43.7615 8.27557 43.6255 8.43134 43.4608 8.57098C43.2996 8.70705 43.1063 8.81626 42.8807 8.89862C42.6587 8.98098 42.3955 9.02216 42.0911 9.02216ZM42.4456 7.99628C42.9863 7.99628 43.3677 7.84052 43.5897 7.52899C43.8117 7.21747 43.9263 6.75018 43.9334 6.12714V5.96063C43.9334 5.29462 43.826 4.78436 43.6112 4.42987C43.3963 4.0718 43.0042 3.89276 42.4349 3.89276C41.9801 3.89276 41.6328 4.07717 41.3929 4.44598C41.1566 4.81122 41.0384 5.32147 41.0384 5.97675C41.0384 6.63202 41.1566 7.13332 41.3929 7.48065C41.6328 7.8244 41.9837 7.99628 42.4456 7.99628Z" fill="#434343"/>
</svg>
