<svg width="40" height="70" viewBox="0 0 40 70" fill="none" xmlns="http://www.w3.org/2000/svg">
<path fill-rule="evenodd" clip-rule="evenodd" d="M39.0867 35.0704H39.0774V33.8349V5.00572C39.0774 2.39425 37.0275 0.353744 34.4301 0.353744C31.9197 0.353744 29.4094 0.355946 26.8989 0.358148C19.726 0.36444 12.5524 0.370732 5.37623 0.325664C3.52293 0.311624 1.40286 1.73904 0.967613 3.62979C0.785091 4.4254 0.64937 5.24909 0.64469 6.05874C0.639399 8.8893 0.653547 11.7214 0.667693 14.5532C0.678574 16.7313 0.689455 18.9093 0.691489 21.0864C0.69773 30.8712 0.695649 40.656 0.693569 50.4394C0.692529 55.3306 0.691489 60.2214 0.691489 65.1117C0.691489 67.8964 2.65712 69.9182 5.42303 69.9229C15.0874 69.9369 24.7517 69.9369 34.4207 69.9041C35.1367 69.9041 35.9183 69.6935 36.5595 69.3659C38.3753 68.4393 39.0914 66.834 39.0914 64.845C39.0883 58.2274 39.0893 51.6098 39.0904 44.9922C39.0909 41.6834 39.0914 38.3746 39.0914 35.0658L39.0867 35.0704ZM19.8517 65.1492C18.7706 65.1398 17.9609 64.3115 17.9703 63.2116C17.9796 62.1259 18.808 61.2928 19.8844 61.2975C20.9421 61.2975 21.8079 62.1539 21.8173 63.2163C21.8266 64.3021 20.9608 65.1586 19.8563 65.1492H19.8517ZM36.8543 56.8234V57.5769H36.1102H3.63525C3.1298 57.5769 2.87708 57.3257 2.87708 56.8234V7.13047C2.87708 6.93614 2.87338 6.74079 2.86968 6.54516C2.85957 6.01055 2.84942 5.47378 2.91452 4.94956C3.1064 3.4379 4.17814 2.52997 5.7132 2.52061C6.66533 2.51499 7.61916 2.52455 8.57264 2.5341H8.57267C9.20796 2.54046 9.84311 2.54682 10.4775 2.54869H10.4811C18.2769 2.54869 26.0727 2.54869 33.8638 2.55337C34.2522 2.55337 34.6547 2.57677 35.0291 2.66101C36.0962 2.8997 36.7373 3.72807 36.8309 4.9402C36.8465 5.1274 36.8459 5.3146 36.8452 5.5018L36.845 5.61413V56.8187L36.8543 56.8234ZM27.3353 29.3654C27.1532 29.2294 26.9663 29.0998 26.7793 28.9701L26.7793 28.9701C26.6443 28.8765 26.5093 28.7829 26.3759 28.6868C25.8406 28.3098 25.3057 27.9315 24.7707 27.5531C23.5986 26.724 22.4259 25.8946 21.2466 25.0784C20.2685 24.4045 19.0704 24.8585 18.8551 25.977C18.724 26.6603 19.0236 27.1657 19.5711 27.5542C20.073 27.9121 20.5669 28.278 21.0609 28.6439L21.0611 28.644C21.2258 28.766 21.3905 28.888 21.5555 29.0097C18.8224 29.1173 16.1501 29.1173 13.4825 29.1173H13.4824C12.4528 29.1173 11.7554 29.7164 11.7507 30.6056C11.7461 31.4901 12.4481 32.1032 13.4683 32.1032H20.8113H21.401C21.4104 32.1453 21.4198 32.1921 21.4244 32.2342C21.2439 32.3619 21.063 32.4889 20.8821 32.6158L20.8819 32.616C20.4065 32.9496 19.9313 33.2831 19.4635 33.6289C18.7615 34.1484 18.6164 35.0236 19.0891 35.7068C19.5477 36.3714 20.4603 36.5493 21.1717 36.0719C23.2263 34.6819 25.2761 33.2826 27.3119 31.8645C28.248 31.214 28.2386 30.0393 27.3307 29.3607L27.3353 29.3654ZM18.8989 8.24314C17.5847 8.24838 16.2706 8.25362 14.9564 8.2349H14.9517C14.2217 8.22086 13.8472 7.82306 13.8472 7.17721C13.8472 6.53136 14.2357 6.09143 14.9424 6.09143C18.2465 6.07271 21.5506 6.07271 24.8548 6.09143C25.4912 6.09143 25.9171 6.56412 25.9218 7.15849C25.9265 7.77626 25.538 8.22086 24.8688 8.23022C23.6821 8.25028 22.4953 8.24646 21.3086 8.24264C20.8339 8.24111 20.3592 8.23958 19.8845 8.23958C19.556 8.24052 19.2274 8.24183 18.8989 8.24314Z" fill="#007643"/>
</svg>
