<svg width="48" height="10" viewBox="0 0 48 10" fill="none" xmlns="http://www.w3.org/2000/svg">
<path d="M0.216211 8.91473V1.06219H1.50527V7.81903H4.84072V8.91473H0.216211ZM7.33291 2.96893V8.91473H6.0707V2.96893H7.33291ZM6.70986 0.691589C6.90322 0.691589 7.06973 0.74351 7.20938 0.847351C7.3526 0.951192 7.42422 1.13023 7.42422 1.38446C7.42422 1.63511 7.3526 1.81415 7.20938 1.92157C7.06973 2.02541 6.90322 2.07733 6.70986 2.07733C6.50934 2.07733 6.33926 2.02541 6.19961 1.92157C6.06354 1.81415 5.99551 1.63511 5.99551 1.38446C5.99551 1.13023 6.06354 0.951192 6.19961 0.847351C6.33926 0.74351 6.50934 0.691589 6.70986 0.691589ZM10.5019 8.91473L8.24063 2.96893H9.57803L10.8026 6.46014C10.8814 6.68215 10.953 6.92206 11.0175 7.17987C11.0819 7.43768 11.1267 7.65432 11.1518 7.82977H11.1947C11.2198 7.64716 11.2681 7.42873 11.3397 7.1745C11.4114 6.91669 11.4848 6.67857 11.56 6.46014L12.7846 2.96893H14.1166L11.8554 8.91473H10.5019ZM17.3876 2.85614C17.9175 2.85614 18.3723 2.96535 18.7519 3.18378C19.1314 3.4022 19.4232 3.71193 19.6273 4.11298C19.8314 4.51402 19.9335 4.99384 19.9335 5.55243V6.22919H15.9643C15.9786 6.80568 16.1326 7.24969 16.4262 7.56122C16.7234 7.87274 17.1387 8.0285 17.6723 8.0285C18.0518 8.0285 18.392 7.9927 18.6928 7.92108C18.9971 7.84589 19.3104 7.73667 19.6327 7.59344V8.61932C19.3355 8.75897 19.0329 8.86102 18.725 8.92548C18.4171 8.98993 18.0482 9.02216 17.6186 9.02216C17.0349 9.02216 16.5211 8.90936 16.0771 8.68378C15.6366 8.45461 15.2911 8.11444 15.0404 7.66327C14.7934 7.2121 14.6698 6.65171 14.6698 5.98212C14.6698 5.3161 14.7826 4.75035 15.0082 4.28485C15.2338 3.81936 15.5507 3.46486 15.9589 3.22137C16.3671 2.97788 16.8433 2.85614 17.3876 2.85614ZM17.3876 3.80682C16.9901 3.80682 16.6679 3.93573 16.4208 4.19354C16.1773 4.45135 16.0341 4.82912 15.9911 5.32684H18.6981C18.6946 5.02964 18.6444 4.76646 18.5478 4.53729C18.4547 4.30813 18.3114 4.12909 18.1181 4.00018C17.9283 3.87128 17.6848 3.80682 17.3876 3.80682ZM27.6894 2.0451C27.3134 2.0451 26.9768 2.11314 26.6796 2.24921C26.386 2.38527 26.1371 2.58221 25.933 2.84003C25.7289 3.09426 25.5731 3.40399 25.4657 3.76923C25.3583 4.13088 25.3046 4.53908 25.3046 4.99384C25.3046 5.60256 25.3905 6.12714 25.5624 6.56757C25.7343 7.00441 25.9957 7.341 26.3466 7.57733C26.6975 7.81008 27.1415 7.92645 27.6786 7.92645C28.0116 7.92645 28.3357 7.89423 28.6508 7.82977C28.9659 7.76532 29.2917 7.67759 29.6283 7.56659V8.66229C29.3096 8.78762 28.9874 8.87893 28.6615 8.93622C28.3357 8.99351 27.9597 9.02216 27.5336 9.02216C26.7315 9.02216 26.0655 8.85565 25.5355 8.52264C25.0092 8.18964 24.6153 7.72056 24.3539 7.11542C24.0961 6.51027 23.9672 5.80129 23.9672 4.98846C23.9672 4.39406 24.0495 3.84979 24.2143 3.35565C24.379 2.86151 24.6189 2.4354 24.934 2.07733C25.2491 1.71568 25.6376 1.43817 26.0995 1.24481C26.565 1.04787 27.0967 0.949402 27.6947 0.949402C28.0886 0.949402 28.4753 0.994161 28.8549 1.08368C29.238 1.16962 29.5925 1.29315 29.9184 1.45428L29.4672 2.51776C29.1951 2.38885 28.9104 2.27785 28.6132 2.18475C28.316 2.09165 28.008 2.0451 27.6894 2.0451ZM32.4481 0.557312V2.65741C32.4481 2.87583 32.441 3.08889 32.4267 3.29657C32.4159 3.50425 32.4034 3.66538 32.3891 3.77997H32.4589C32.5842 3.57229 32.7382 3.4022 32.9208 3.26971C33.1034 3.13365 33.3075 3.0316 33.5331 2.96356C33.7623 2.89553 34.0058 2.86151 34.2636 2.86151C34.7183 2.86151 35.105 2.9385 35.4237 3.09247C35.7424 3.24286 35.9859 3.4774 36.1542 3.79608C36.3261 4.11477 36.412 4.52834 36.412 5.0368V8.91473H35.1498V5.27313C35.1498 4.81122 35.0549 4.46568 34.8651 4.23651C34.6754 4.00376 34.3817 3.88739 33.9843 3.88739C33.6011 3.88739 33.2968 3.96796 33.0712 4.12909C32.8492 4.28664 32.6898 4.52118 32.5932 4.8327C32.4965 5.14065 32.4481 5.51662 32.4481 5.96063V8.91473H31.1859V0.557312H32.4481ZM40.5102 2.85614C41.2621 2.85614 41.8297 3.02264 42.2128 3.35565C42.5995 3.68866 42.7929 4.20787 42.7929 4.91327V8.91473H41.8959L41.6542 8.07147H41.6112C41.4429 8.28632 41.2693 8.46356 41.0902 8.60321C40.9112 8.74286 40.7035 8.8467 40.4672 8.91473C40.2344 8.98635 39.9498 9.02216 39.6132 9.02216C39.2587 9.02216 38.9418 8.9577 38.6625 8.8288C38.3832 8.69631 38.163 8.49579 38.0019 8.22723C37.8407 7.95868 37.7602 7.61851 37.7602 7.20673C37.7602 6.59442 37.9875 6.1343 38.4423 5.82635C38.9006 5.51841 39.5917 5.34833 40.5155 5.3161L41.5468 5.2785V4.96698C41.5468 4.5552 41.4501 4.26158 41.2567 4.08612C41.067 3.91066 40.7984 3.82294 40.4511 3.82294C40.1539 3.82294 39.8656 3.86591 39.5863 3.95184C39.307 4.03778 39.0349 4.14341 38.7699 4.26874L38.3617 3.37714C38.6518 3.22316 38.9812 3.09784 39.35 3.00116C39.7224 2.90448 40.1091 2.85614 40.5102 2.85614ZM41.5414 6.07343L40.7733 6.10028C40.1431 6.12177 39.7009 6.22919 39.4467 6.42255C39.1924 6.61591 39.0653 6.88088 39.0653 7.21747C39.0653 7.51109 39.1531 7.72593 39.3285 7.862C39.504 7.99449 39.7349 8.06073 40.0214 8.06073C40.4582 8.06073 40.8199 7.93719 41.1063 7.69012C41.3964 7.43947 41.5414 7.07245 41.5414 6.58905V6.07343ZM46.7729 8.00165C46.9376 8.00165 47.1005 7.98733 47.2616 7.95868C47.4228 7.92645 47.5696 7.88885 47.702 7.84589V8.80194C47.5624 8.86281 47.3816 8.91473 47.1596 8.9577C46.9376 9.00067 46.7066 9.02216 46.4667 9.02216C46.1301 9.02216 45.8275 8.96665 45.559 8.85565C45.2904 8.74107 45.0774 8.54592 44.9198 8.2702C44.7623 7.99449 44.6835 7.61314 44.6835 7.12616V3.93036H43.8725V3.36639L44.7426 2.92059L45.1562 1.64764H45.9511V2.96893H47.6537V3.93036H45.9511V7.11005C45.9511 7.41083 46.0263 7.63462 46.1767 7.78143C46.327 7.92824 46.5258 8.00165 46.7729 8.00165Z" fill="#434343"/>
</svg>
