<svg width="55" height="49" viewBox="0 0 55 49" fill="none" xmlns="http://www.w3.org/2000/svg">
<path d="M27.5973 0.488342C42.264 0.488342 54.264 10.109 54.264 21.9871C54.264 33.8651 42.264 43.4858 27.5973 43.4858C24.2907 43.4858 21.1173 43.002 18.184 42.1421C10.3973 48.8604 0.930664 48.8604 0.930664 48.8604C7.144 42.5989 8.13066 38.3798 8.264 36.7674C3.73066 32.9245 0.930664 27.7111 0.930664 21.9871C0.930664 10.109 12.9307 0.488342 27.5973 0.488342ZM40.9307 24.6744V19.2997H35.5973V24.6744H40.9307ZM30.264 24.6744V19.2997H24.9307V24.6744H30.264ZM19.5973 24.6744V19.2997H14.264V24.6744H19.5973Z" fill="#007643"/>
</svg>
