<svg width="10" height="16" viewBox="0 0 10 16" fill="none" xmlns="http://www.w3.org/2000/svg">
<path d="M1.16551 15.5459C0.95621 15.337 0.851562 15.0896 0.851562 14.8038C0.851562 14.5185 0.95621 14.2713 1.16551 14.0624L7.29787 7.94014L1.14458 1.79698C0.949234 1.60196 0.851562 1.35818 0.851562 1.06565C0.851562 0.773118 0.95621 0.522377 1.16551 0.313426C1.3748 0.104475 1.62261 0 1.90892 0C2.19468 0 2.44221 0.104475 2.6515 0.313426L9.68384 7.35507C9.76756 7.43865 9.827 7.5292 9.86216 7.62671C9.89676 7.72422 9.91406 7.82869 9.91406 7.94014C9.91406 8.05158 9.89676 8.15605 9.86216 8.25356C9.827 8.35107 9.76756 8.44162 9.68384 8.5252L2.63057 15.5668C2.43523 15.7619 2.19468 15.8594 1.90892 15.8594C1.62261 15.8594 1.3748 15.7549 1.16551 15.5459Z" fill="#303030"/>
</svg>
