<svg width="10" height="16" viewBox="0 0 10 16" fill="none" xmlns="http://www.w3.org/2000/svg">
<path d="M8.74856 0.313426C8.95785 0.522377 9.0625 0.769775 9.0625 1.05562C9.0625 1.34091 8.95785 1.58803 8.74856 1.79698L2.6162 7.91924L8.76949 14.0624C8.96483 14.2574 9.0625 14.5012 9.0625 14.7937C9.0625 15.0863 8.95785 15.337 8.74856 15.5459C8.53926 15.7549 8.29146 15.8594 8.00514 15.8594C7.71938 15.8594 7.47185 15.7549 7.26256 15.5459L0.230225 8.5043C0.146507 8.42072 0.0870673 8.33018 0.0519063 8.23267C0.0173022 8.13516 6.84406e-07 8.03068 6.94149e-07 7.91924C7.03891e-07 7.8078 0.0173023 7.70332 0.0519064 7.60581C0.0870674 7.5083 0.146507 7.41776 0.230225 7.33418L7.28349 0.292531C7.47883 0.0975102 7.71938 -1.17419e-07 8.00514 -9.24375e-08C8.29146 -6.74069e-08 8.53926 0.104475 8.74856 0.313426Z" fill="#303030"/>
</svg>
