<svg width="96" height="26" viewBox="0 0 96 26" fill="none" xmlns="http://www.w3.org/2000/svg">
<path d="M4.22656 0.210938C5.26302 0.210938 6.11719 0.335938 6.78906 0.585938C7.46615 0.835938 7.96875 1.21354 8.29688 1.71875C8.625 2.22396 8.78906 2.86198 8.78906 3.63281C8.78906 4.15365 8.6901 4.60938 8.49219 5C8.29427 5.39062 8.03385 5.72135 7.71094 5.99219C7.38802 6.26302 7.03906 6.48438 6.66406 6.65625L10.0234 11.6328H7.33594L4.60938 7.25H3.32031V11.6328H0.898438V0.210938H4.22656ZM4.05469 2.19531H3.32031V5.28125H4.10156C4.90365 5.28125 5.47656 5.14844 5.82031 4.88281C6.16927 4.61198 6.34375 4.21615 6.34375 3.69531C6.34375 3.15365 6.15625 2.76823 5.78125 2.53906C5.41146 2.3099 4.83594 2.19531 4.05469 2.19531ZM17.3672 9.03906C17.3672 9.63281 17.2266 10.1354 16.9453 10.5469C16.6693 10.9531 16.2552 11.263 15.7031 11.4766C15.151 11.6849 14.4635 11.7891 13.6406 11.7891C13.0312 11.7891 12.5078 11.75 12.0703 11.6719C11.638 11.5938 11.2005 11.4635 10.7578 11.2812V9.3125C11.2318 9.52604 11.7396 9.70312 12.2812 9.84375C12.8281 9.97917 13.3073 10.0469 13.7188 10.0469C14.1823 10.0469 14.513 9.97917 14.7109 9.84375C14.9141 9.70312 15.0156 9.52083 15.0156 9.29688C15.0156 9.15104 14.974 9.02083 14.8906 8.90625C14.8125 8.78646 14.6406 8.65365 14.375 8.50781C14.1094 8.35677 13.6927 8.16146 13.125 7.92188C12.5781 7.69271 12.1276 7.46094 11.7734 7.22656C11.4245 6.99219 11.1641 6.71615 10.9922 6.39844C10.8255 6.07552 10.7422 5.66667 10.7422 5.17188C10.7422 4.36458 11.0547 3.75781 11.6797 3.35156C12.3099 2.9401 13.151 2.73438 14.2031 2.73438C14.7448 2.73438 15.2604 2.78906 15.75 2.89844C16.2448 3.00781 16.7526 3.18229 17.2734 3.42188L16.5547 5.14062C16.1224 4.95312 15.7135 4.79948 15.3281 4.67969C14.9479 4.5599 14.5599 4.5 14.1641 4.5C13.8151 4.5 13.5521 4.54688 13.375 4.64062C13.1979 4.73438 13.1094 4.8776 13.1094 5.07031C13.1094 5.21094 13.1536 5.33594 13.2422 5.44531C13.3359 5.55469 13.513 5.67708 13.7734 5.8125C14.0391 5.94271 14.4271 6.11198 14.9375 6.32031C15.4323 6.52344 15.862 6.73698 16.2266 6.96094C16.5911 7.17969 16.8724 7.45312 17.0703 7.78125C17.2682 8.10417 17.3672 8.52344 17.3672 9.03906ZM18.8906 10.5156C18.8906 10.026 19.0234 9.68229 19.2891 9.48438C19.5599 9.28646 19.8854 9.1875 20.2656 9.1875C20.6354 9.1875 20.9531 9.28646 21.2188 9.48438C21.4896 9.68229 21.625 10.026 21.625 10.5156C21.625 10.9844 21.4896 11.3229 21.2188 11.5312C20.9531 11.7396 20.6354 11.8438 20.2656 11.8438C19.8854 11.8438 19.5599 11.7396 19.2891 11.5312C19.0234 11.3229 18.8906 10.9844 18.8906 10.5156ZM34.875 2.76562C34.875 3.29167 34.7656 3.7474 34.5469 4.13281C34.3281 4.51823 34.0312 4.83333 33.6562 5.07812C33.2865 5.32292 32.8698 5.5026 32.4062 5.61719V5.66406C33.3229 5.77865 34.0182 6.0599 34.4922 6.50781C34.9714 6.95573 35.2109 7.55469 35.2109 8.30469C35.2109 8.97135 35.0469 9.56771 34.7188 10.0938C34.3958 10.6198 33.8958 11.0339 33.2188 11.3359C32.5417 11.638 31.6693 11.7891 30.6016 11.7891C29.9714 11.7891 29.3828 11.737 28.8359 11.6328C28.2943 11.5339 27.7839 11.3802 27.3047 11.1719V9.11719C27.7943 9.36719 28.3073 9.55729 28.8438 9.6875C29.3802 9.8125 29.8802 9.875 30.3438 9.875C31.2083 9.875 31.8125 9.72656 32.1562 9.42969C32.5052 9.1276 32.6797 8.70573 32.6797 8.16406C32.6797 7.84635 32.599 7.57812 32.4375 7.35938C32.276 7.14062 31.9948 6.97396 31.5938 6.85938C31.1979 6.74479 30.6432 6.6875 29.9297 6.6875H29.0625V4.83594H29.9453C30.6484 4.83594 31.1823 4.77083 31.5469 4.64062C31.9167 4.50521 32.1667 4.32292 32.2969 4.09375C32.4323 3.85938 32.5 3.59375 32.5 3.29688C32.5 2.89062 32.375 2.57292 32.125 2.34375C31.875 2.11458 31.4583 2 30.875 2C30.5104 2 30.1771 2.04688 29.875 2.14062C29.5781 2.22917 29.3099 2.33854 29.0703 2.46875C28.8307 2.59375 28.6198 2.71615 28.4375 2.83594L27.3203 1.17188C27.7682 0.848958 28.2917 0.580729 28.8906 0.367188C29.4948 0.153646 30.2135 0.046875 31.0469 0.046875C32.224 0.046875 33.1562 0.283854 33.8438 0.757812C34.5312 1.23177 34.875 1.90104 34.875 2.76562ZM36.7656 10.5156C36.7656 10.026 36.8984 9.68229 37.1641 9.48438C37.4349 9.28646 37.7604 9.1875 38.1406 9.1875C38.5104 9.1875 38.8281 9.28646 39.0938 9.48438C39.3646 9.68229 39.5 10.026 39.5 10.5156C39.5 10.9844 39.3646 11.3229 39.0938 11.5312C38.8281 11.7396 38.5104 11.8438 38.1406 11.8438C37.7604 11.8438 37.4349 11.7396 37.1641 11.5312C36.8984 11.3229 36.7656 10.9844 36.7656 10.5156ZM48.9766 5.92188C48.9766 6.84375 48.9036 7.66667 48.7578 8.39062C48.6172 9.11458 48.388 9.72917 48.0703 10.2344C47.7578 10.7396 47.3464 11.125 46.8359 11.3906C46.3255 11.6562 45.7057 11.7891 44.9766 11.7891C44.0599 11.7891 43.3073 11.5573 42.7188 11.0938C42.1302 10.625 41.6953 9.95312 41.4141 9.07812C41.1328 8.19792 40.9922 7.14583 40.9922 5.92188C40.9922 4.6875 41.1198 3.63281 41.375 2.75781C41.6354 1.8776 42.0573 1.20312 42.6406 0.734375C43.224 0.265625 44.0026 0.03125 44.9766 0.03125C45.888 0.03125 46.638 0.265625 47.2266 0.734375C47.8203 1.19792 48.2604 1.86979 48.5469 2.75C48.8333 3.625 48.9766 4.68229 48.9766 5.92188ZM43.3906 5.92188C43.3906 6.79167 43.4375 7.51823 43.5312 8.10156C43.6302 8.67969 43.7943 9.11458 44.0234 9.40625C44.2526 9.69792 44.5703 9.84375 44.9766 9.84375C45.3776 9.84375 45.6927 9.70052 45.9219 9.41406C46.1562 9.1224 46.3229 8.6875 46.4219 8.10938C46.5208 7.52604 46.5703 6.79688 46.5703 5.92188C46.5703 5.05208 46.5208 4.32552 46.4219 3.74219C46.3229 3.15885 46.1562 2.72135 45.9219 2.42969C45.6927 2.13281 45.3776 1.98438 44.9766 1.98438C44.5703 1.98438 44.2526 2.13281 44.0234 2.42969C43.7943 2.72135 43.6302 3.15885 43.5312 3.74219C43.4375 4.32552 43.3906 5.05208 43.3906 5.92188ZM58.1328 5.92188C58.1328 6.84375 58.0599 7.66667 57.9141 8.39062C57.7734 9.11458 57.5443 9.72917 57.2266 10.2344C56.9141 10.7396 56.5026 11.125 55.9922 11.3906C55.4818 11.6562 54.862 11.7891 54.1328 11.7891C53.2161 11.7891 52.4635 11.5573 51.875 11.0938C51.2865 10.625 50.8516 9.95312 50.5703 9.07812C50.2891 8.19792 50.1484 7.14583 50.1484 5.92188C50.1484 4.6875 50.276 3.63281 50.5312 2.75781C50.7917 1.8776 51.2135 1.20312 51.7969 0.734375C52.3802 0.265625 53.1589 0.03125 54.1328 0.03125C55.0443 0.03125 55.7943 0.265625 56.3828 0.734375C56.9766 1.19792 57.4167 1.86979 57.7031 2.75C57.9896 3.625 58.1328 4.68229 58.1328 5.92188ZM52.5469 5.92188C52.5469 6.79167 52.5938 7.51823 52.6875 8.10156C52.7865 8.67969 52.9505 9.11458 53.1797 9.40625C53.4089 9.69792 53.7266 9.84375 54.1328 9.84375C54.5339 9.84375 54.849 9.70052 55.0781 9.41406C55.3125 9.1224 55.4792 8.6875 55.5781 8.10938C55.6771 7.52604 55.7266 6.79688 55.7266 5.92188C55.7266 5.05208 55.6771 4.32552 55.5781 3.74219C55.4792 3.15885 55.3125 2.72135 55.0781 2.42969C54.849 2.13281 54.5339 1.98438 54.1328 1.98438C53.7266 1.98438 53.4089 2.13281 53.1797 2.42969C52.9505 2.72135 52.7865 3.15885 52.6875 3.74219C52.5938 4.32552 52.5469 5.05208 52.5469 5.92188ZM65.2578 0.210938L61 11.6328H58.8359L63.0938 0.210938H65.2578ZM76.25 5.8125C76.25 7.09896 76.0026 8.17448 75.5078 9.03906C75.0182 9.89844 74.3073 10.5469 73.375 10.9844C72.4427 11.4167 71.3203 11.6328 70.0078 11.6328H66.7734V0.210938H70.3594C71.5573 0.210938 72.5964 0.424479 73.4766 0.851562C74.3568 1.27344 75.0391 1.90104 75.5234 2.73438C76.0078 3.5625 76.25 4.58854 76.25 5.8125ZM73.7344 5.875C73.7344 5.03125 73.6094 4.33854 73.3594 3.79688C73.1146 3.25 72.75 2.84635 72.2656 2.58594C71.7865 2.32552 71.1927 2.19531 70.4844 2.19531H69.1953V9.63281H70.2344C71.4167 9.63281 72.2943 9.31771 72.8672 8.6875C73.4453 8.05729 73.7344 7.11979 73.7344 5.875ZM82.0078 2.71875C83.1797 2.71875 84.0781 2.97396 84.7031 3.48438C85.3281 3.99479 85.6406 4.77083 85.6406 5.8125V11.6328H83.9766L83.5156 10.4453H83.4531C83.2031 10.7578 82.9479 11.013 82.6875 11.2109C82.4271 11.4089 82.1276 11.5547 81.7891 11.6484C81.4505 11.7422 81.0391 11.7891 80.5547 11.7891C80.0391 11.7891 79.5755 11.6901 79.1641 11.4922C78.7578 11.2943 78.4375 10.9922 78.2031 10.5859C77.9688 10.1745 77.8516 9.65365 77.8516 9.02344C77.8516 8.09635 78.1771 7.41406 78.8281 6.97656C79.4792 6.53385 80.4557 6.28906 81.7578 6.24219L83.2734 6.19531V5.8125C83.2734 5.35417 83.1536 5.01823 82.9141 4.80469C82.6745 4.59115 82.3411 4.48438 81.9141 4.48438C81.4922 4.48438 81.0781 4.54427 80.6719 4.66406C80.2656 4.78385 79.8594 4.9349 79.4531 5.11719L78.6641 3.50781C79.1276 3.26302 79.6458 3.07031 80.2188 2.92969C80.7969 2.78906 81.3932 2.71875 82.0078 2.71875ZM83.2734 7.58594L82.3516 7.61719C81.5807 7.63802 81.0443 7.77604 80.7422 8.03125C80.4453 8.28646 80.2969 8.6224 80.2969 9.03906C80.2969 9.40365 80.4036 9.66406 80.6172 9.82031C80.8307 9.97135 81.1094 10.0469 81.4531 10.0469C81.9635 10.0469 82.3932 9.89583 82.7422 9.59375C83.0964 9.29167 83.2734 8.86198 83.2734 8.30469V7.58594ZM86.8516 2.89844H89.4609L91.1094 7.8125C91.1615 7.96875 91.2057 8.1276 91.2422 8.28906C91.2786 8.45052 91.3099 8.61719 91.3359 8.78906C91.362 8.96094 91.3828 9.14062 91.3984 9.32812H91.4453C91.4766 9.04688 91.5182 8.78385 91.5703 8.53906C91.6276 8.29427 91.6979 8.05208 91.7812 7.8125L93.3984 2.89844H95.9531L92.2578 12.75C92.0339 13.3542 91.7422 13.8568 91.3828 14.2578C91.0234 14.6641 90.6094 14.9688 90.1406 15.1719C89.6771 15.375 89.1667 15.4766 88.6094 15.4766C88.3385 15.4766 88.1042 15.4609 87.9062 15.4297C87.7083 15.4036 87.5391 15.375 87.3984 15.3438V13.4531C87.5078 13.4792 87.6458 13.5026 87.8125 13.5234C87.9792 13.5443 88.1536 13.5547 88.3359 13.5547C88.6693 13.5547 88.9557 13.4844 89.1953 13.3438C89.4349 13.2031 89.6354 13.013 89.7969 12.7734C89.9583 12.5391 90.0859 12.2812 90.1797 12L90.3203 11.5703L86.8516 2.89844Z" fill="#D99956"/>
<path d="M3.89209 18.4731C3.45882 18.4731 3.06852 18.5483 2.72119 18.6987C2.37744 18.8455 2.08382 19.0604 1.84033 19.3433C1.60042 19.6226 1.41602 19.9609 1.28711 20.3584C1.1582 20.7559 1.09375 21.2035 1.09375 21.7012C1.09375 22.36 1.1958 22.9329 1.3999 23.4199C1.60758 23.9033 1.91553 24.2775 2.32373 24.5425C2.73551 24.8075 3.24935 24.9399 3.86523 24.9399C4.21615 24.9399 4.54557 24.9113 4.85352 24.854C5.16504 24.7931 5.46761 24.7179 5.76123 24.6284V25.4233C5.47477 25.5308 5.17399 25.6095 4.85889 25.6597C4.54378 25.7134 4.1696 25.7402 3.73633 25.7402C2.93783 25.7402 2.27002 25.5755 1.73291 25.2461C1.19938 24.9131 0.79834 24.444 0.529785 23.8389C0.264811 23.2337 0.132324 22.5194 0.132324 21.6958C0.132324 21.1014 0.214681 20.5589 0.379395 20.0684C0.547689 19.5742 0.791178 19.1481 1.10986 18.79C1.43213 18.432 1.82601 18.1562 2.2915 17.9629C2.76058 17.766 3.29769 17.6675 3.90283 17.6675C4.30029 17.6675 4.68343 17.7069 5.05225 17.7856C5.42106 17.8644 5.75407 17.9772 6.05127 18.124L5.68604 18.8975C5.43538 18.7829 5.15967 18.6844 4.85889 18.6021C4.56169 18.5161 4.23942 18.4731 3.89209 18.4731ZM12.4053 22.6787C12.4053 23.1621 12.3426 23.5936 12.2173 23.9731C12.092 24.3527 11.9111 24.6732 11.6748 24.9346C11.4385 25.196 11.152 25.3965 10.8154 25.5361C10.4824 25.6722 10.1047 25.7402 9.68213 25.7402C9.28825 25.7402 8.9266 25.6722 8.59717 25.5361C8.27132 25.3965 7.98844 25.196 7.74854 24.9346C7.51221 24.6732 7.3278 24.3527 7.19531 23.9731C7.06641 23.5936 7.00195 23.1621 7.00195 22.6787C7.00195 22.0342 7.11117 21.4863 7.32959 21.0352C7.54801 20.5804 7.85954 20.2349 8.26416 19.9985C8.67236 19.7586 9.15755 19.6387 9.71973 19.6387C10.2568 19.6387 10.7259 19.7586 11.127 19.9985C11.5316 20.2384 11.8449 20.5858 12.0669 21.0405C12.2925 21.4917 12.4053 22.0378 12.4053 22.6787ZM7.92578 22.6787C7.92578 23.1514 7.98844 23.5614 8.11377 23.9087C8.2391 24.256 8.43245 24.5246 8.69385 24.7144C8.95524 24.9041 9.29183 24.999 9.70361 24.999C10.1118 24.999 10.4466 24.9041 10.708 24.7144C10.973 24.5246 11.1681 24.256 11.2935 23.9087C11.4188 23.5614 11.4814 23.1514 11.4814 22.6787C11.4814 22.2096 11.4188 21.805 11.2935 21.4648C11.1681 21.1211 10.9748 20.8561 10.7134 20.6699C10.452 20.4837 10.1136 20.3906 9.69824 20.3906C9.08594 20.3906 8.63656 20.5929 8.3501 20.9976C8.06722 21.4022 7.92578 21.9626 7.92578 22.6787ZM16.7344 19.6387C17.4326 19.6387 17.9608 19.8105 18.3188 20.1543C18.6769 20.4945 18.856 21.0423 18.856 21.7979V25.6328H17.9751V21.8569C17.9751 21.3664 17.8623 20.9993 17.6367 20.7559C17.4147 20.5124 17.0728 20.3906 16.6108 20.3906C15.9591 20.3906 15.5008 20.575 15.2358 20.9438C14.9709 21.3127 14.8384 21.848 14.8384 22.5498V25.6328H13.9468V19.7461H14.6665L14.8008 20.5947H14.8491C14.9744 20.387 15.1338 20.2134 15.3271 20.0737C15.5205 19.9305 15.7371 19.8231 15.9771 19.7515C16.217 19.6763 16.4694 19.6387 16.7344 19.6387ZM24.501 24.0215C24.501 24.3975 24.4061 24.7144 24.2163 24.9722C24.0301 25.2264 23.7616 25.418 23.4106 25.5469C23.0633 25.6758 22.6479 25.7402 22.1646 25.7402C21.7528 25.7402 21.3965 25.708 21.0957 25.6436C20.7949 25.5791 20.5317 25.4878 20.3062 25.3696V24.5479C20.5461 24.666 20.8325 24.7734 21.1655 24.8701C21.4985 24.9668 21.8387 25.0151 22.186 25.0151C22.6945 25.0151 23.0633 24.9328 23.2925 24.7681C23.5216 24.6034 23.6362 24.3796 23.6362 24.0967C23.6362 23.9355 23.5897 23.7941 23.4966 23.6724C23.4071 23.547 23.2549 23.4271 23.04 23.3125C22.8252 23.1943 22.528 23.0654 22.1484 22.9258C21.7725 22.7826 21.4466 22.6411 21.1709 22.5015C20.8988 22.3582 20.6875 22.1846 20.5371 21.9805C20.3903 21.7764 20.3169 21.5114 20.3169 21.1855C20.3169 20.6878 20.5174 20.3065 20.9185 20.0415C21.3231 19.7729 21.853 19.6387 22.5083 19.6387C22.8628 19.6387 23.194 19.6745 23.502 19.7461C23.8135 19.8141 24.1035 19.9072 24.3721 20.0254L24.0713 20.7397C23.8278 20.6359 23.5682 20.5482 23.2925 20.4766C23.0168 20.4049 22.7357 20.3691 22.4492 20.3691C22.0374 20.3691 21.7205 20.4372 21.4985 20.5732C21.2801 20.7093 21.1709 20.8955 21.1709 21.1318C21.1709 21.3145 21.221 21.4648 21.3213 21.583C21.4251 21.7012 21.5898 21.8122 21.8154 21.916C22.041 22.0199 22.3382 22.1416 22.707 22.2812C23.0758 22.4173 23.3945 22.5588 23.6631 22.7056C23.9316 22.8488 24.1375 23.0243 24.2808 23.2319C24.4276 23.436 24.501 23.6992 24.501 24.0215ZM30.7959 19.7461V25.6328H30.0654L29.9365 24.8057H29.8882C29.7664 25.0098 29.6089 25.1816 29.4155 25.3213C29.2222 25.4609 29.0037 25.5648 28.7603 25.6328C28.5203 25.7044 28.2643 25.7402 27.9922 25.7402C27.5267 25.7402 27.1364 25.665 26.8213 25.5146C26.5062 25.3643 26.2681 25.1315 26.1069 24.8164C25.9494 24.5013 25.8706 24.0967 25.8706 23.6025V19.7461H26.7729V23.5381C26.7729 24.0286 26.884 24.3957 27.106 24.6392C27.328 24.8791 27.6663 24.999 28.1211 24.999C28.5579 24.999 28.9053 24.9167 29.1631 24.752C29.4245 24.5872 29.6125 24.3455 29.7271 24.0269C29.8416 23.7046 29.8989 23.3107 29.8989 22.8452V19.7461H30.7959ZM39.0728 19.6387C39.7209 19.6387 40.2096 19.8088 40.5391 20.1489C40.8685 20.4855 41.0332 21.028 41.0332 21.7764V25.6328H40.1523V21.8193C40.1523 21.3431 40.0485 20.9868 39.8408 20.7505C39.6367 20.5106 39.3324 20.3906 38.9277 20.3906C38.3584 20.3906 37.9448 20.5553 37.687 20.8848C37.4292 21.2142 37.3003 21.6994 37.3003 22.3403V25.6328H36.4141V21.8193C36.4141 21.5007 36.3675 21.2357 36.2744 21.0244C36.1849 20.8132 36.0488 20.6556 35.8662 20.5518C35.6872 20.4443 35.4598 20.3906 35.1841 20.3906C34.7938 20.3906 34.4805 20.4712 34.2441 20.6323C34.0078 20.7935 33.8359 21.0334 33.7285 21.3521C33.6247 21.6672 33.5728 22.0557 33.5728 22.5176V25.6328H32.6812V19.7461H33.4009L33.5352 20.5786H33.5835C33.7017 20.3745 33.8503 20.2026 34.0293 20.063C34.2083 19.9233 34.4089 19.8177 34.6309 19.7461C34.8529 19.6745 35.0892 19.6387 35.3398 19.6387C35.7874 19.6387 36.1616 19.7228 36.4624 19.8911C36.7668 20.0558 36.987 20.3083 37.123 20.6484H37.1714C37.3647 20.3083 37.6297 20.0558 37.9663 19.8911C38.3029 19.7228 38.6717 19.6387 39.0728 19.6387ZM45.1313 19.6387C45.6326 19.6387 46.0623 19.7497 46.4204 19.9717C46.7785 20.1937 47.0524 20.5052 47.2422 20.9062C47.432 21.3037 47.5269 21.7692 47.5269 22.3027V22.856H43.4609C43.4717 23.547 43.6436 24.0734 43.9766 24.4351C44.3096 24.7967 44.7786 24.9775 45.3838 24.9775C45.7562 24.9775 46.0856 24.9435 46.3721 24.8755C46.6585 24.8075 46.9557 24.7072 47.2637 24.5747V25.3589C46.9665 25.4914 46.6711 25.5881 46.3774 25.6489C46.0874 25.7098 45.7437 25.7402 45.3462 25.7402C44.7804 25.7402 44.2863 25.6257 43.8638 25.3965C43.4448 25.1637 43.119 24.8236 42.8862 24.376C42.6535 23.9284 42.5371 23.3805 42.5371 22.7324C42.5371 22.0986 42.6427 21.5508 42.854 21.0889C43.0688 20.6234 43.3696 20.2653 43.7563 20.0146C44.1466 19.764 44.605 19.6387 45.1313 19.6387ZM45.1206 20.3691C44.6444 20.3691 44.2648 20.5249 43.9819 20.8364C43.6991 21.1479 43.5308 21.583 43.4771 22.1416H46.5923C46.5887 21.7907 46.5332 21.4827 46.4258 21.2178C46.3219 20.9492 46.1626 20.7415 45.9478 20.5947C45.7329 20.4443 45.4572 20.3691 45.1206 20.3691ZM51.7163 19.6387C51.8345 19.6387 51.958 19.6458 52.0869 19.6602C52.2158 19.6709 52.3304 19.687 52.4307 19.7085L52.3179 20.5356C52.2212 20.5106 52.1138 20.4909 51.9956 20.4766C51.8774 20.4622 51.7664 20.4551 51.6626 20.4551C51.4263 20.4551 51.2025 20.5034 50.9912 20.6001C50.7835 20.6932 50.6009 20.8293 50.4434 21.0083C50.2858 21.1838 50.1623 21.3968 50.0728 21.6475C49.9832 21.8945 49.9385 22.1702 49.9385 22.4746V25.6328H49.0415V19.7461H49.7827L49.8794 20.8311H49.917C50.0387 20.6126 50.1855 20.4139 50.3574 20.2349C50.5293 20.0522 50.728 19.9072 50.9536 19.7998C51.1828 19.6924 51.437 19.6387 51.7163 19.6387ZM58.5859 17.7803C59.5993 17.7803 60.3387 17.979 60.8042 18.3765C61.2733 18.7703 61.5078 19.3361 61.5078 20.0737C61.5078 20.4067 61.4523 20.7236 61.3413 21.0244C61.2339 21.3216 61.0584 21.5848 60.8149 21.814C60.5715 22.0396 60.251 22.2186 59.8535 22.3511C59.4596 22.48 58.9762 22.5444 58.4033 22.5444H57.4473V25.6328H56.5342V17.7803H58.5859ZM58.5 18.5591H57.4473V21.7603H58.3013C58.8026 21.7603 59.2197 21.7065 59.5527 21.5991C59.8893 21.4917 60.1418 21.318 60.3101 21.0781C60.4784 20.8346 60.5625 20.5124 60.5625 20.1113C60.5625 19.5885 60.396 19.2 60.063 18.9458C59.73 18.688 59.209 18.5591 58.5 18.5591ZM65.6919 19.6387C65.8101 19.6387 65.9336 19.6458 66.0625 19.6602C66.1914 19.6709 66.306 19.687 66.4062 19.7085L66.2935 20.5356C66.1968 20.5106 66.0894 20.4909 65.9712 20.4766C65.853 20.4622 65.742 20.4551 65.6382 20.4551C65.4019 20.4551 65.1781 20.5034 64.9668 20.6001C64.7591 20.6932 64.5765 20.8293 64.4189 21.0083C64.2614 21.1838 64.1379 21.3968 64.0483 21.6475C63.9588 21.8945 63.9141 22.1702 63.9141 22.4746V25.6328H63.0171V19.7461H63.7583L63.855 20.8311H63.8926C64.0143 20.6126 64.1611 20.4139 64.333 20.2349C64.5049 20.0522 64.7036 19.9072 64.9292 19.7998C65.1584 19.6924 65.4126 19.6387 65.6919 19.6387ZM68.4097 19.7461V25.6328H67.5181V19.7461H68.4097ZM67.9746 17.5439C68.1214 17.5439 68.2467 17.5923 68.3506 17.689C68.458 17.7821 68.5117 17.9289 68.5117 18.1294C68.5117 18.3263 68.458 18.4731 68.3506 18.5698C68.2467 18.6665 68.1214 18.7148 67.9746 18.7148C67.8206 18.7148 67.6917 18.6665 67.5879 18.5698C67.4876 18.4731 67.4375 18.3263 67.4375 18.1294C67.4375 17.9289 67.4876 17.7821 67.5879 17.689C67.6917 17.5923 67.8206 17.5439 67.9746 17.5439ZM72.6582 25.7402C72.1283 25.7402 71.661 25.631 71.2563 25.4126C70.8517 25.1942 70.5366 24.8612 70.311 24.4136C70.0854 23.966 69.9727 23.402 69.9727 22.7217C69.9727 22.0091 70.0908 21.4272 70.3271 20.9761C70.5671 20.5213 70.8965 20.1847 71.3154 19.9663C71.7344 19.7479 72.2106 19.6387 72.7441 19.6387C73.0378 19.6387 73.3206 19.6691 73.5928 19.73C73.8685 19.7873 74.0941 19.8607 74.2695 19.9502L74.001 20.6968C73.8219 20.6252 73.6143 20.5607 73.3779 20.5034C73.1452 20.4461 72.9268 20.4175 72.7227 20.4175C72.3145 20.4175 71.9743 20.5052 71.7021 20.6807C71.4336 20.8561 71.2313 21.1139 71.0952 21.4541C70.9627 21.7943 70.8965 22.2132 70.8965 22.7109C70.8965 23.1872 70.9609 23.5936 71.0898 23.9302C71.2223 24.2668 71.4175 24.5246 71.6753 24.7036C71.9367 24.8791 72.2625 24.9668 72.6528 24.9668C72.9644 24.9668 73.2454 24.9346 73.4961 24.8701C73.7467 24.8021 73.9741 24.7233 74.1782 24.6338V25.4287C73.9813 25.529 73.7611 25.606 73.5176 25.6597C73.2777 25.7134 72.9912 25.7402 72.6582 25.7402ZM77.8413 19.6387C78.3426 19.6387 78.7723 19.7497 79.1304 19.9717C79.4884 20.1937 79.7624 20.5052 79.9521 20.9062C80.1419 21.3037 80.2368 21.7692 80.2368 22.3027V22.856H76.1709C76.1816 23.547 76.3535 24.0734 76.6865 24.4351C77.0195 24.7967 77.4886 24.9775 78.0938 24.9775C78.4661 24.9775 78.7956 24.9435 79.082 24.8755C79.3685 24.8075 79.6657 24.7072 79.9736 24.5747V25.3589C79.6764 25.4914 79.381 25.5881 79.0874 25.6489C78.7974 25.7098 78.4536 25.7402 78.0562 25.7402C77.4904 25.7402 76.9963 25.6257 76.5737 25.3965C76.1548 25.1637 75.8289 24.8236 75.5962 24.376C75.3634 23.9284 75.2471 23.3805 75.2471 22.7324C75.2471 22.0986 75.3527 21.5508 75.564 21.0889C75.7788 20.6234 76.0796 20.2653 76.4663 20.0146C76.8566 19.764 77.3149 19.6387 77.8413 19.6387ZM77.8306 20.3691C77.3543 20.3691 76.9748 20.5249 76.6919 20.8364C76.409 21.1479 76.2407 21.583 76.187 22.1416H79.3022C79.2987 21.7907 79.2432 21.4827 79.1357 21.2178C79.0319 20.9492 78.8726 20.7415 78.6577 20.5947C78.4429 20.4443 78.1672 20.3691 77.8306 20.3691Z" fill="#007643"/>
</svg>
