<svg width="201" height="38" viewBox="0 0 201 38" fill="none" xmlns="http://www.w3.org/2000/svg">
<path d="M12.0142 8.99902C6.49136 8.99902 2.01416 13.476 2.01416 18.999C2.01416 24.522 6.49136 28.999 12.0142 28.999C17.5372 28.999 22.0142 24.522 22.0142 18.999C22.0142 13.476 17.5372 8.99902 12.0142 8.99902ZM12.0142 10.999C16.4322 10.999 20.0142 14.581 20.0142 18.999C20.0142 23.065 16.9412 26.302 13.0142 26.811V21.999H15.0142V18.999H13.0142V17.999C13.0142 17.429 13.4952 16.998 14.0142 16.999C14.3102 16.999 15.0142 16.999 15.0142 16.999V13.999H13.0142C11.3152 14.018 10.0252 15.365 10.0142 16.999V18.999H8.01416V21.999H10.0142V26.593C6.58726 25.689 4.01416 22.71 4.01416 18.999C4.01416 14.581 7.59586 10.999 12.0142 10.999Z" fill="white" fill-opacity="0.8"/>
<path d="M75.0009 9.92993C72.2679 9.92993 70.0009 12.1479 70.0009 14.8679C70.0009 15.2209 70.0179 15.324 70.0179 15.554C67.6599 15.438 66.1489 14.653 63.9559 12.473C63.7599 12.279 63.5069 12.1839 63.2509 12.1799C63.2049 12.1789 63.0509 12.1799 63.0009 12.1799C62.4489 12.1799 62.0009 12.6279 62.0009 13.1799C62.0009 13.6089 62.0009 15.4469 62.0009 15.9299C62.0009 17.1379 62.4029 18.277 63.0239 19.127C63.0239 19.135 63.0009 19.0239 63.0009 19.9299C63.0009 21.4799 63.6309 22.64 64.6779 23.33C64.3329 23.868 63.3999 24.2559 62.6579 24.5859C62.2139 24.7829 61.8709 24.9319 61.6889 24.9929C61.4669 25.0689 61.2809 25.2429 61.1579 25.4609C61.1499 25.4739 61.1329 25.4789 61.1259 25.4929C61.1189 25.5059 61.1019 25.5089 61.0949 25.5239C60.9909 25.7549 60.9949 25.9889 61.0639 26.2109C61.0669 26.2219 61.0599 26.2319 61.0639 26.2429C61.1409 26.4649 61.3139 26.6499 61.5329 26.7739C61.5449 26.7809 61.5509 26.7979 61.5639 26.8049C61.5779 26.8119 61.5809 26.8299 61.5949 26.8359C63.1959 27.5569 65.0619 27.9299 67.0009 27.9299C73.6989 27.9299 79.2519 23.0919 80.0039 16.1899L80.9079 14.3679C81.2399 13.7029 80.7449 12.9299 80.0009 12.9299C80.0229 12.9299 79.9949 12.9309 79.9079 12.8989C79.7129 12.8259 79.4939 12.6669 79.2829 12.4299C79.1909 12.3269 79.0879 12.2219 79.0009 12.0859C78.0549 10.7239 76.6279 9.92993 75.0009 9.92993ZM75.0009 11.9299C75.9559 11.9299 76.7859 12.3759 77.3449 13.1799C77.4659 13.3719 77.6179 13.5899 77.7829 13.7739C78.0579 14.0829 78.9829 14.4229 78.9829 14.4229C78.9829 14.4229 78.4299 15.4609 78.0109 15.9449C77.4819 21.5779 72.7919 25.9299 67.0009 25.9299C66.3099 25.9299 65.3509 25.9159 64.4539 25.7509C66.3199 25.1929 68.0009 23.2059 68.0009 22.9299C66.0129 22.9299 65.2739 21.5279 65.0819 20.6179C65.6669 20.8399 67.2249 21.0039 68.0189 20.4259C65.0819 19.2349 64.0009 17.7359 64.0009 15.9299C64.0009 15.8039 64.0009 15.4729 64.0009 15.2109C66.1779 17.0299 67.9519 17.5719 71.0049 17.5499C71.3739 17.5479 72.0039 17.2779 72.0009 16.5549C71.9999 16.2769 72.0009 16.1419 72.0009 14.8679C72.0009 13.2629 73.3619 11.9299 75.0009 11.9299ZM76.0009 13.9299C75.4489 13.9299 75.0009 14.3779 75.0009 14.9299C75.0009 15.4819 75.4489 15.9299 76.0009 15.9299C76.5539 15.9299 77.0009 15.4819 77.0009 14.9299C77.0009 14.3779 76.5539 13.9299 76.0009 13.9299Z" fill="white" fill-opacity="0.8"/>
<path d="M123.999 11.8828C121.79 11.8828 119.999 13.6738 119.999 15.8828V21.8828C119.999 24.0918 121.79 25.8828 123.999 25.8828H135.999C138.208 25.8828 139.999 24.0918 139.999 21.8828V15.8828C139.999 13.6738 138.208 11.8828 135.999 11.8828H123.999ZM128.713 15.8828C128.838 15.8828 128.946 15.9178 129.048 15.9768C129.106 16.0098 132.669 18.2088 132.798 18.3438C132.928 18.4798 132.999 18.6748 132.999 18.8828C132.999 19.0148 132.966 19.1268 132.91 19.2348C132.864 19.3218 132.806 19.4068 132.731 19.4688C132.61 19.5698 129.026 21.8038 128.937 21.8358C128.864 21.8618 128.795 21.8828 128.713 21.8828C128.535 21.8828 128.37 21.8088 128.245 21.6948C128.093 21.5578 127.999 21.3598 127.999 21.1328C127.999 20.9278 127.999 16.8368 127.999 16.6328C127.999 16.2188 128.319 15.8828 128.713 15.8828Z" fill="white" fill-opacity="0.8"/>
<path d="M184.999 9.99072C182.238 9.99072 179.999 12.2297 179.999 14.9907V22.9907C179.999 25.7517 182.238 27.9907 184.999 27.9907H192.999C195.76 27.9907 197.999 25.7517 197.999 22.9907V14.9907C197.999 12.2297 195.76 9.99072 192.999 9.99072H184.999ZM184.999 11.9907H192.999C194.656 11.9907 195.999 13.3337 195.999 14.9907V22.9907C195.999 24.6477 194.656 25.9907 192.999 25.9907H184.999C183.342 25.9907 181.999 24.6477 181.999 22.9907V14.9907C181.999 13.3337 183.342 11.9907 184.999 11.9907ZM192.999 13.9907C192.447 13.9907 191.999 14.4387 191.999 14.9907C191.999 15.5427 192.447 15.9907 192.999 15.9907C193.551 15.9907 193.999 15.5427 193.999 14.9907C193.999 14.4387 193.551 13.9907 192.999 13.9907ZM188.999 14.9907C186.79 14.9907 184.999 16.7817 184.999 18.9907C184.999 21.1997 186.79 22.9907 188.999 22.9907C191.208 22.9907 192.999 21.1997 192.999 18.9907C192.999 16.7817 191.208 14.9907 188.999 14.9907ZM188.999 16.9907C190.104 16.9907 190.999 17.8857 190.999 18.9907C190.999 20.0957 190.104 20.9907 188.999 20.9907C187.894 20.9907 186.999 20.0957 186.999 18.9907C186.999 17.8857 187.894 16.9907 188.999 16.9907Z" fill="white" fill-opacity="0.8"/>
</svg>
