<svg width="568" height="24" viewBox="0 0 568 24" fill="none" xmlns="http://www.w3.org/2000/svg">
<path d="M4.05114 12.1818C4.05114 11.572 4.20076 11.0152 4.5 10.5114C4.79924 10.0076 5.19886 9.60795 5.69886 9.3125C6.20265 9.01326 6.75947 8.86364 7.36932 8.86364C7.89962 8.86364 8.39015 8.97917 8.84091 9.21023C9.29167 9.4375 9.66477 9.75 9.96023 10.1477C10.2557 10.5455 10.4356 10.9924 10.5 11.4886H9.02273C8.95455 11.1364 8.76136 10.8485 8.44318 10.625C8.12879 10.3977 7.77083 10.2841 7.36932 10.2841C7.02083 10.2841 6.70265 10.3693 6.41477 10.5398C6.12689 10.7102 5.89773 10.9394 5.72727 11.2273C5.55682 11.5114 5.47159 11.8295 5.47159 12.1818C5.47159 12.5303 5.55682 12.8485 5.72727 13.1364C5.89773 13.4242 6.12689 13.6534 6.41477 13.8239C6.70265 13.9943 7.02083 14.0795 7.36932 14.0795C7.77083 14.0795 8.11364 13.9678 8.39773 13.7443C8.68182 13.517 8.85985 13.2273 8.93182 12.875H10.4091C10.3447 13.3712 10.1723 13.8182 9.89205 14.2159C9.61174 14.6136 9.25379 14.928 8.81818 15.1591C8.38258 15.3864 7.89962 15.5 7.36932 15.5C6.75947 15.5 6.20265 15.3523 5.69886 15.0568C5.19886 14.7576 4.79924 14.3561 4.5 13.8523C4.20076 13.3485 4.05114 12.7917 4.05114 12.1818ZM7.31818 18.1818C6.49242 18.1818 5.71591 18.0265 4.98864 17.7159C4.26515 17.4053 3.62689 16.9754 3.07386 16.4261C2.52462 15.8731 2.0928 15.2348 1.77841 14.5114C1.4678 13.7879 1.31439 13.0114 1.31818 12.1818C1.32197 11.3523 1.47917 10.5758 1.78977 9.85227C2.10417 9.12879 2.53598 8.49242 3.08523 7.94318C3.63447 7.39015 4.27083 6.95833 4.99432 6.64773C5.7178 6.33712 6.49242 6.18182 7.31818 6.18182C8.14773 6.18182 8.92424 6.33712 9.64773 6.64773C10.375 6.95833 11.0114 7.39015 11.5568 7.94318C12.1061 8.49242 12.536 9.12879 12.8466 9.85227C13.1572 10.5758 13.3144 11.3523 13.3182 12.1818C13.322 13.0114 13.1686 13.7879 12.858 14.5114C12.5473 15.2348 12.1174 15.8731 11.5682 16.4261C11.0189 16.9754 10.3807 17.4053 9.65341 17.7159C8.92614 18.0265 8.14773 18.1818 7.31818 18.1818ZM7.31818 16.6705C7.93939 16.6705 8.52273 16.5549 9.06818 16.3239C9.61364 16.0928 10.0909 15.7727 10.5 15.3636C10.9129 14.9508 11.2348 14.4735 11.4659 13.9318C11.697 13.3864 11.8106 12.8049 11.8068 12.1875C11.8068 11.5663 11.6894 10.983 11.4545 10.4375C11.2235 9.89205 10.9015 9.41477 10.4886 9.00568C10.0795 8.5928 9.60417 8.27083 9.0625 8.03977C8.52083 7.80871 7.93939 7.69318 7.31818 7.69318C6.70076 7.69318 6.12121 7.80871 5.57955 8.03977C5.03788 8.27083 4.56061 8.5928 4.14773 9.00568C3.73864 9.41856 3.41667 9.89773 3.18182 10.4432C2.94697 10.9848 2.82955 11.5663 2.82955 12.1875C2.82576 12.8011 2.93939 13.3807 3.17045 13.9261C3.4053 14.4678 3.72727 14.9451 4.13636 15.358C4.54924 15.767 5.02652 16.089 5.56818 16.3239C6.11364 16.5549 6.69697 16.6705 7.31818 16.6705ZM19.9943 18V16.7273L23.9318 12.6477C24.3523 12.2045 24.6989 11.8163 24.9716 11.483C25.2481 11.1458 25.4545 10.8258 25.5909 10.5227C25.7273 10.2197 25.7955 9.89773 25.7955 9.55682C25.7955 9.17045 25.7045 8.83712 25.5227 8.55682C25.3409 8.27273 25.0928 8.05492 24.7784 7.90341C24.464 7.74811 24.1098 7.67045 23.7159 7.67045C23.2992 7.67045 22.9356 7.75568 22.625 7.92614C22.3144 8.09659 22.0758 8.33712 21.9091 8.64773C21.7424 8.95833 21.6591 9.32197 21.6591 9.73864H19.983C19.983 9.0303 20.1458 8.41098 20.4716 7.88068C20.7973 7.35038 21.2443 6.93939 21.8125 6.64773C22.3807 6.35227 23.0265 6.20455 23.75 6.20455C24.4811 6.20455 25.125 6.35038 25.6818 6.64205C26.2424 6.92992 26.6799 7.32386 26.9943 7.82386C27.3087 8.32008 27.4659 8.88068 27.4659 9.50568C27.4659 9.9375 27.3845 10.3598 27.2216 10.7727C27.0625 11.1856 26.7841 11.6458 26.3864 12.1534C25.9886 12.6572 25.4356 13.2689 24.7273 13.9886L22.4148 16.4091V16.4943H27.6534V18H19.9943ZM33.858 18.1932C32.9602 18.1894 32.1932 17.9527 31.5568 17.483C30.9205 17.0133 30.4337 16.3295 30.0966 15.4318C29.7595 14.5341 29.5909 13.4527 29.5909 12.1875C29.5909 10.9261 29.7595 9.84848 30.0966 8.95455C30.4375 8.06061 30.9261 7.37879 31.5625 6.90909C32.2027 6.43939 32.9678 6.20455 33.858 6.20455C34.7481 6.20455 35.5114 6.44129 36.1477 6.91477C36.7841 7.38447 37.2708 8.06629 37.608 8.96023C37.9489 9.85038 38.1193 10.9261 38.1193 12.1875C38.1193 13.4564 37.9508 14.5398 37.6136 15.4375C37.2765 16.3314 36.7898 17.0152 36.1534 17.4886C35.517 17.9583 34.7519 18.1932 33.858 18.1932ZM33.858 16.6761C34.6458 16.6761 35.2614 16.2917 35.7045 15.5227C36.1515 14.7538 36.375 13.642 36.375 12.1875C36.375 11.2216 36.2727 10.4053 36.0682 9.73864C35.8674 9.06818 35.5777 8.56061 35.1989 8.21591C34.8239 7.86742 34.3769 7.69318 33.858 7.69318C33.0739 7.69318 32.4583 8.07954 32.0114 8.85227C31.5644 9.625 31.339 10.7367 31.3352 12.1875C31.3352 13.1572 31.4356 13.9773 31.6364 14.6477C31.8409 15.3144 32.1307 15.8201 32.5057 16.1648C32.8807 16.5057 33.3314 16.6761 33.858 16.6761ZM40.1349 18V16.7273L44.0724 12.6477C44.4929 12.2045 44.8395 11.8163 45.1122 11.483C45.3887 11.1458 45.5952 10.8258 45.7315 10.5227C45.8679 10.2197 45.9361 9.89773 45.9361 9.55682C45.9361 9.17045 45.8452 8.83712 45.6634 8.55682C45.4815 8.27273 45.2334 8.05492 44.919 7.90341C44.6046 7.74811 44.2505 7.67045 43.8565 7.67045C43.4399 7.67045 43.0762 7.75568 42.7656 7.92614C42.455 8.09659 42.2164 8.33712 42.0497 8.64773C41.883 8.95833 41.7997 9.32197 41.7997 9.73864H40.1236C40.1236 9.0303 40.2865 8.41098 40.6122 7.88068C40.938 7.35038 41.3849 6.93939 41.9531 6.64773C42.5213 6.35227 43.1671 6.20455 43.8906 6.20455C44.6217 6.20455 45.2656 6.35038 45.8224 6.64205C46.383 6.92992 46.8205 7.32386 47.1349 7.82386C47.4493 8.32008 47.6065 8.88068 47.6065 9.50568C47.6065 9.9375 47.5251 10.3598 47.3622 10.7727C47.2031 11.1856 46.9247 11.6458 46.527 12.1534C46.1293 12.6572 45.5762 13.2689 44.8679 13.9886L42.5554 16.4091V16.4943H47.794V18H40.1349ZM49.9474 18V16.7273L53.8849 12.6477C54.3054 12.2045 54.652 11.8163 54.9247 11.483C55.2012 11.1458 55.4077 10.8258 55.544 10.5227C55.6804 10.2197 55.7486 9.89773 55.7486 9.55682C55.7486 9.17045 55.6577 8.83712 55.4759 8.55682C55.294 8.27273 55.0459 8.05492 54.7315 7.90341C54.4171 7.74811 54.063 7.67045 53.669 7.67045C53.2524 7.67045 52.8887 7.75568 52.5781 7.92614C52.2675 8.09659 52.0289 8.33712 51.8622 8.64773C51.6955 8.95833 51.6122 9.32197 51.6122 9.73864H49.9361C49.9361 9.0303 50.099 8.41098 50.4247 7.88068C50.7505 7.35038 51.1974 6.93939 51.7656 6.64773C52.3338 6.35227 52.9796 6.20455 53.7031 6.20455C54.4342 6.20455 55.0781 6.35038 55.6349 6.64205C56.1955 6.92992 56.633 7.32386 56.9474 7.82386C57.2618 8.32008 57.419 8.88068 57.419 9.50568C57.419 9.9375 57.3376 10.3598 57.1747 10.7727C57.0156 11.1856 56.7372 11.6458 56.3395 12.1534C55.9418 12.6572 55.3887 13.2689 54.6804 13.9886L52.3679 16.4091V16.4943H57.6065V18H49.9474ZM70.5 9.42045C70.4394 8.88258 70.1894 8.46591 69.75 8.17045C69.3106 7.87121 68.7576 7.72159 68.0909 7.72159C67.6136 7.72159 67.2008 7.79735 66.8523 7.94886C66.5038 8.09659 66.233 8.30114 66.0398 8.5625C65.8504 8.82008 65.7557 9.11364 65.7557 9.44318C65.7557 9.7197 65.8201 9.95833 65.9489 10.1591C66.0814 10.3598 66.2538 10.5284 66.4659 10.6648C66.6818 10.7973 66.9129 10.9091 67.1591 11C67.4053 11.0871 67.642 11.1591 67.8693 11.2159L69.0057 11.5114C69.3769 11.6023 69.7576 11.7254 70.1477 11.8807C70.5379 12.036 70.8996 12.2405 71.233 12.4943C71.5663 12.7481 71.8352 13.0625 72.0398 13.4375C72.2481 13.8125 72.3523 14.2614 72.3523 14.7841C72.3523 15.4432 72.1818 16.0284 71.8409 16.5398C71.5038 17.0511 71.0133 17.4545 70.3693 17.75C69.7292 18.0455 68.9545 18.1932 68.0455 18.1932C67.1742 18.1932 66.4205 18.0549 65.7841 17.7784C65.1477 17.5019 64.6496 17.1098 64.2898 16.6023C63.9299 16.0909 63.7311 15.4848 63.6932 14.7841H65.4545C65.4886 15.2045 65.625 15.5549 65.8636 15.8352C66.1061 16.1117 66.4148 16.3182 66.7898 16.4545C67.1686 16.5871 67.5833 16.6534 68.0341 16.6534C68.5303 16.6534 68.9716 16.5758 69.358 16.4205C69.7481 16.2614 70.0549 16.0417 70.2784 15.7614C70.5019 15.4773 70.6136 15.1458 70.6136 14.767C70.6136 14.4223 70.5152 14.1402 70.3182 13.9205C70.125 13.7008 69.8617 13.5189 69.5284 13.375C69.1989 13.2311 68.8258 13.1042 68.4091 12.9943L67.0341 12.6193C66.1023 12.3655 65.3636 11.9924 64.8182 11.5C64.2765 11.0076 64.0057 10.3561 64.0057 9.54545C64.0057 8.875 64.1875 8.28977 64.5511 7.78977C64.9148 7.28977 65.4072 6.90151 66.0284 6.625C66.6496 6.3447 67.3504 6.20455 68.1307 6.20455C68.9186 6.20455 69.6136 6.3428 70.2159 6.61932C70.822 6.89583 71.2992 7.27652 71.6477 7.76136C71.9962 8.24242 72.178 8.79545 72.1932 9.42045H70.5ZM74.3139 21.2727V9.27273H75.973V10.6875H76.1151C76.2135 10.5057 76.3556 10.2955 76.5412 10.0568C76.7268 9.81818 76.9844 9.60985 77.3139 9.43182C77.6435 9.25 78.0791 9.15909 78.6207 9.15909C79.3253 9.15909 79.9541 9.33712 80.5071 9.69318C81.0601 10.0492 81.4938 10.5625 81.8082 11.233C82.1264 11.9034 82.2855 12.7102 82.2855 13.6534C82.2855 14.5966 82.1283 15.4053 81.8139 16.0795C81.4995 16.75 81.0677 17.267 80.5185 17.6307C79.9692 17.9905 79.3423 18.1705 78.6378 18.1705C78.1075 18.1705 77.6738 18.0814 77.3366 17.9034C77.0033 17.7254 76.742 17.517 76.5526 17.2784C76.3632 17.0398 76.2173 16.8277 76.1151 16.642H76.0128V21.2727H74.3139ZM75.9787 13.6364C75.9787 14.25 76.0677 14.7879 76.2457 15.25C76.4238 15.7121 76.6813 16.0739 77.0185 16.3352C77.3556 16.5928 77.7685 16.7216 78.2571 16.7216C78.7647 16.7216 79.1889 16.5871 79.5298 16.3182C79.8707 16.0455 80.1283 15.6761 80.3026 15.2102C80.4806 14.7443 80.5696 14.2197 80.5696 13.6364C80.5696 13.0606 80.4825 12.5436 80.3082 12.0852C80.1378 11.6269 79.8802 11.2652 79.5355 11C79.1946 10.7348 78.7685 10.6023 78.2571 10.6023C77.7647 10.6023 77.348 10.7292 77.0071 10.983C76.67 11.2367 76.4143 11.5909 76.2401 12.0455C76.0658 12.5 75.9787 13.0303 75.9787 13.6364ZM87.9503 18.1761C87.0904 18.1761 86.3499 17.9924 85.7287 17.625C85.1113 17.2538 84.634 16.733 84.2969 16.0625C83.9635 15.3883 83.7969 14.5985 83.7969 13.6932C83.7969 12.7992 83.9635 12.0114 84.2969 11.3295C84.634 10.6477 85.1037 10.1155 85.706 9.73295C86.312 9.35038 87.0204 9.15909 87.831 9.15909C88.3234 9.15909 88.8007 9.24053 89.2628 9.40341C89.7249 9.56629 90.1397 9.82197 90.5071 10.1705C90.8745 10.5189 91.1643 10.9716 91.3764 11.5284C91.5885 12.0814 91.6946 12.7538 91.6946 13.5455V14.1477H84.7571V12.875H90.0298C90.0298 12.428 89.9389 12.0322 89.7571 11.6875C89.5753 11.339 89.3196 11.0644 88.9901 10.8636C88.6643 10.6629 88.2817 10.5625 87.8423 10.5625C87.3651 10.5625 86.9484 10.6799 86.5923 10.9148C86.2401 11.1458 85.9673 11.4489 85.7741 11.8239C85.5848 12.1951 85.4901 12.5985 85.4901 13.0341V14.0284C85.4901 14.6117 85.5923 15.108 85.7969 15.517C86.0052 15.9261 86.295 16.2386 86.6662 16.4545C87.0374 16.6667 87.4711 16.7727 87.9673 16.7727C88.2893 16.7727 88.5829 16.7273 88.848 16.6364C89.1132 16.5417 89.3423 16.4015 89.5355 16.2159C89.7287 16.0303 89.8764 15.8011 89.9787 15.5284L91.5866 15.8182C91.4579 16.2917 91.2268 16.7064 90.8935 17.0625C90.5639 17.4148 90.1491 17.6894 89.6491 17.8864C89.1529 18.0795 88.5866 18.1761 87.9503 18.1761ZM97.2557 18.1761C96.411 18.1761 95.6837 17.9848 95.0739 17.6023C94.4678 17.2159 94.0019 16.6837 93.6761 16.0057C93.3504 15.3277 93.1875 14.5511 93.1875 13.6761C93.1875 12.7898 93.3542 12.0076 93.6875 11.3295C94.0208 10.6477 94.4905 10.1155 95.0966 9.73295C95.7027 9.35038 96.4167 9.15909 97.2386 9.15909C97.9015 9.15909 98.4924 9.2822 99.0114 9.52841C99.5303 9.77083 99.9489 10.1117 100.267 10.5511C100.589 10.9905 100.78 11.5038 100.841 12.0909H99.1875C99.0966 11.6818 98.8883 11.3295 98.5625 11.0341C98.2405 10.7386 97.8087 10.5909 97.267 10.5909C96.7936 10.5909 96.3788 10.7159 96.0227 10.9659C95.6705 11.2121 95.3958 11.5644 95.1989 12.0227C95.0019 12.4773 94.9034 13.0152 94.9034 13.6364C94.9034 14.2727 95 14.822 95.1932 15.2841C95.3864 15.7462 95.6591 16.1042 96.0114 16.358C96.3674 16.6117 96.786 16.7386 97.267 16.7386C97.589 16.7386 97.8807 16.6799 98.142 16.5625C98.4072 16.4413 98.6288 16.2689 98.8068 16.0455C98.9886 15.822 99.1155 15.553 99.1875 15.2386H100.841C100.78 15.803 100.597 16.3068 100.29 16.75C99.983 17.1932 99.572 17.5417 99.0568 17.7955C98.5455 18.0492 97.9451 18.1761 97.2557 18.1761ZM102.658 18V9.27273H104.357V18H102.658ZM103.516 7.92614C103.22 7.92614 102.966 7.82765 102.754 7.63068C102.546 7.42992 102.442 7.19129 102.442 6.91477C102.442 6.63447 102.546 6.39583 102.754 6.19886C102.966 5.99811 103.22 5.89773 103.516 5.89773C103.811 5.89773 104.063 5.99811 104.271 6.19886C104.483 6.39583 104.589 6.63447 104.589 6.91477C104.589 7.19129 104.483 7.42992 104.271 7.63068C104.063 7.82765 103.811 7.92614 103.516 7.92614ZM109.909 18.1705C109.205 18.1705 108.576 17.9905 108.023 17.6307C107.473 17.267 107.042 16.75 106.727 16.0795C106.417 15.4053 106.261 14.5966 106.261 13.6534C106.261 12.7102 106.419 11.9034 106.733 11.233C107.051 10.5625 107.487 10.0492 108.04 9.69318C108.593 9.33712 109.22 9.15909 109.92 9.15909C110.462 9.15909 110.898 9.25 111.227 9.43182C111.561 9.60985 111.818 9.81818 112 10.0568C112.186 10.2955 112.33 10.5057 112.432 10.6875H112.534V9.27273H114.233V18H112.574V16.642H112.432C112.33 16.8277 112.182 17.0398 111.989 17.2784C111.799 17.517 111.538 17.7254 111.205 17.9034C110.871 18.0814 110.439 18.1705 109.909 18.1705ZM110.284 16.7216C110.773 16.7216 111.186 16.5928 111.523 16.3352C111.864 16.0739 112.121 15.7121 112.295 15.25C112.473 14.7879 112.562 14.25 112.562 13.6364C112.562 13.0303 112.475 12.5 112.301 12.0455C112.127 11.5909 111.871 11.2367 111.534 10.983C111.197 10.7292 110.78 10.6023 110.284 10.6023C109.773 10.6023 109.347 10.7348 109.006 11C108.665 11.2652 108.407 11.6269 108.233 12.0852C108.063 12.5436 107.977 13.0606 107.977 13.6364C107.977 14.2197 108.064 14.7443 108.239 15.2102C108.413 15.6761 108.67 16.0455 109.011 16.3182C109.356 16.5871 109.78 16.7216 110.284 16.7216ZM118.357 6.36364V18H116.658V6.36364H118.357ZM134.678 10.1477H132.905C132.837 9.76894 132.71 9.43561 132.524 9.14773C132.339 8.85985 132.111 8.61553 131.842 8.41477C131.573 8.21401 131.272 8.0625 130.939 7.96023C130.609 7.85795 130.259 7.80682 129.888 7.80682C129.217 7.80682 128.617 7.97538 128.087 8.3125C127.56 8.64962 127.143 9.14394 126.837 9.79545C126.534 10.447 126.382 11.2424 126.382 12.1818C126.382 13.1288 126.534 13.928 126.837 14.5795C127.143 15.2311 127.562 15.7235 128.092 16.0568C128.623 16.3902 129.219 16.5568 129.882 16.5568C130.25 16.5568 130.598 16.5076 130.928 16.4091C131.261 16.3068 131.562 16.1572 131.831 15.9602C132.1 15.7633 132.327 15.5227 132.513 15.2386C132.702 14.9508 132.833 14.6212 132.905 14.25L134.678 14.2557C134.583 14.8277 134.399 15.3542 134.126 15.8352C133.857 16.3125 133.511 16.7254 133.087 17.0739C132.666 17.4186 132.185 17.6856 131.643 17.875C131.102 18.0644 130.511 18.1591 129.871 18.1591C128.863 18.1591 127.965 17.9205 127.178 17.4432C126.39 16.9621 125.768 16.2746 125.314 15.3807C124.863 14.4867 124.638 13.4205 124.638 12.1818C124.638 10.9394 124.865 9.87311 125.32 8.98295C125.774 8.08901 126.395 7.40341 127.183 6.92614C127.971 6.44508 128.867 6.20455 129.871 6.20455C130.488 6.20455 131.064 6.29356 131.598 6.47159C132.136 6.64583 132.619 6.90341 133.047 7.24432C133.475 7.58144 133.829 7.99432 134.109 8.48295C134.39 8.9678 134.579 9.52273 134.678 10.1477ZM140.318 18.1761C139.5 18.1761 138.786 17.9886 138.176 17.6136C137.566 17.2386 137.093 16.714 136.756 16.0398C136.419 15.3655 136.25 14.5777 136.25 13.6761C136.25 12.7708 136.419 11.9792 136.756 11.3011C137.093 10.6231 137.566 10.0966 138.176 9.72159C138.786 9.34659 139.5 9.15909 140.318 9.15909C141.136 9.15909 141.85 9.34659 142.46 9.72159C143.07 10.0966 143.544 10.6231 143.881 11.3011C144.218 11.9792 144.386 12.7708 144.386 13.6761C144.386 14.5777 144.218 15.3655 143.881 16.0398C143.544 16.714 143.07 17.2386 142.46 17.6136C141.85 17.9886 141.136 18.1761 140.318 18.1761ZM140.324 16.75C140.854 16.75 141.294 16.6098 141.642 16.3295C141.991 16.0492 142.248 15.6761 142.415 15.2102C142.585 14.7443 142.67 14.2311 142.67 13.6705C142.67 13.1136 142.585 12.6023 142.415 12.1364C142.248 11.6667 141.991 11.2898 141.642 11.0057C141.294 10.7216 140.854 10.5795 140.324 10.5795C139.79 10.5795 139.347 10.7216 138.994 11.0057C138.646 11.2898 138.386 11.6667 138.216 12.1364C138.049 12.6023 137.966 13.1136 137.966 13.6705C137.966 14.2311 138.049 14.7443 138.216 15.2102C138.386 15.6761 138.646 16.0492 138.994 16.3295C139.347 16.6098 139.79 16.75 140.324 16.75ZM146.283 18V9.27273H147.913V10.6932H148.021C148.203 10.2121 148.5 9.83712 148.913 9.56818C149.326 9.29545 149.821 9.15909 150.396 9.15909C150.98 9.15909 151.468 9.29545 151.862 9.56818C152.26 9.84091 152.554 10.2159 152.743 10.6932H152.834C153.042 10.2273 153.374 9.85606 153.828 9.57955C154.283 9.29924 154.824 9.15909 155.453 9.15909C156.245 9.15909 156.891 9.4072 157.391 9.90341C157.894 10.3996 158.146 11.1477 158.146 12.1477V18H156.447V12.3068C156.447 11.7159 156.286 11.2879 155.964 11.0227C155.643 10.7576 155.258 10.625 154.811 10.625C154.258 10.625 153.828 10.7955 153.521 11.1364C153.214 11.4735 153.061 11.9072 153.061 12.4375V18H151.368V12.1989C151.368 11.7254 151.22 11.3447 150.925 11.0568C150.629 10.7689 150.245 10.625 149.771 10.625C149.449 10.625 149.152 10.7102 148.879 10.8807C148.61 11.0473 148.393 11.2803 148.226 11.5795C148.063 11.8788 147.982 12.2254 147.982 12.6193V18H146.283ZM160.423 18V9.27273H162.054V10.6932H162.162C162.344 10.2121 162.641 9.83712 163.054 9.56818C163.467 9.29545 163.961 9.15909 164.537 9.15909C165.12 9.15909 165.609 9.29545 166.003 9.56818C166.401 9.84091 166.694 10.2159 166.884 10.6932H166.974C167.183 10.2273 167.514 9.85606 167.969 9.57955C168.423 9.29924 168.965 9.15909 169.594 9.15909C170.385 9.15909 171.031 9.4072 171.531 9.90341C172.035 10.3996 172.287 11.1477 172.287 12.1477V18H170.588V12.3068C170.588 11.7159 170.427 11.2879 170.105 11.0227C169.783 10.7576 169.399 10.625 168.952 10.625C168.399 10.625 167.969 10.7955 167.662 11.1364C167.355 11.4735 167.202 11.9072 167.202 12.4375V18H165.509V12.1989C165.509 11.7254 165.361 11.3447 165.065 11.0568C164.77 10.7689 164.385 10.625 163.912 10.625C163.59 10.625 163.293 10.7102 163.02 10.8807C162.751 11.0473 162.533 11.2803 162.366 11.5795C162.204 11.8788 162.122 12.2254 162.122 12.6193V18H160.423ZM180.092 14.3807V9.27273H181.797V18H180.126V16.4886H180.036C179.835 16.9545 179.513 17.3428 179.07 17.6534C178.63 17.9602 178.083 18.1136 177.428 18.1136C176.867 18.1136 176.371 17.9905 175.939 17.7443C175.511 17.4943 175.174 17.125 174.928 16.6364C174.685 16.1477 174.564 15.5436 174.564 14.8239V9.27273H176.263V14.6193C176.263 15.214 176.428 15.6875 176.757 16.0398C177.087 16.392 177.515 16.5682 178.041 16.5682C178.359 16.5682 178.676 16.4886 178.99 16.3295C179.308 16.1705 179.571 15.9299 179.78 15.608C179.992 15.286 180.096 14.8769 180.092 14.3807ZM185.778 12.8182V18H184.08V9.27273H185.71V10.6932H185.818C186.019 10.2311 186.333 9.85985 186.761 9.57955C187.193 9.29924 187.737 9.15909 188.392 9.15909C188.987 9.15909 189.508 9.28409 189.955 9.53409C190.402 9.7803 190.748 10.1477 190.994 10.6364C191.241 11.125 191.364 11.7292 191.364 12.4489V18H189.665V12.6534C189.665 12.0208 189.5 11.5265 189.17 11.1705C188.841 10.8106 188.388 10.6307 187.812 10.6307C187.419 10.6307 187.068 10.7159 186.761 10.8864C186.458 11.0568 186.218 11.3068 186.04 11.6364C185.866 11.9621 185.778 12.3561 185.778 12.8182ZM193.642 18V9.27273H195.341V18H193.642ZM194.5 7.92614C194.205 7.92614 193.951 7.82765 193.739 7.63068C193.53 7.42992 193.426 7.19129 193.426 6.91477C193.426 6.63447 193.53 6.39583 193.739 6.19886C193.951 5.99811 194.205 5.89773 194.5 5.89773C194.795 5.89773 195.047 5.99811 195.256 6.19886C195.468 6.39583 195.574 6.63447 195.574 6.91477C195.574 7.19129 195.468 7.42992 195.256 7.63068C195.047 7.82765 194.795 7.92614 194.5 7.92614ZM201.303 18.1761C200.458 18.1761 199.731 17.9848 199.121 17.6023C198.515 17.2159 198.049 16.6837 197.723 16.0057C197.397 15.3277 197.234 14.5511 197.234 13.6761C197.234 12.7898 197.401 12.0076 197.734 11.3295C198.068 10.6477 198.537 10.1155 199.143 9.73295C199.75 9.35038 200.464 9.15909 201.286 9.15909C201.948 9.15909 202.539 9.2822 203.058 9.52841C203.577 9.77083 203.996 10.1117 204.314 10.5511C204.636 10.9905 204.827 11.5038 204.888 12.0909H203.234C203.143 11.6818 202.935 11.3295 202.609 11.0341C202.287 10.7386 201.856 10.5909 201.314 10.5909C200.84 10.5909 200.426 10.7159 200.07 10.9659C199.717 11.2121 199.443 11.5644 199.246 12.0227C199.049 12.4773 198.95 13.0152 198.95 13.6364C198.95 14.2727 199.047 14.822 199.24 15.2841C199.433 15.7462 199.706 16.1042 200.058 16.358C200.414 16.6117 200.833 16.7386 201.314 16.7386C201.636 16.7386 201.928 16.6799 202.189 16.5625C202.454 16.4413 202.676 16.2689 202.854 16.0455C203.036 15.822 203.162 15.553 203.234 15.2386H204.888C204.827 15.803 204.643 16.3068 204.337 16.75C204.03 17.1932 203.619 17.5417 203.104 17.7955C202.592 18.0492 201.992 18.1761 201.303 18.1761ZM209.972 18.1705C209.267 18.1705 208.638 17.9905 208.085 17.6307C207.536 17.267 207.104 16.75 206.79 16.0795C206.479 15.4053 206.324 14.5966 206.324 13.6534C206.324 12.7102 206.481 11.9034 206.795 11.233C207.114 10.5625 207.549 10.0492 208.102 9.69318C208.655 9.33712 209.282 9.15909 209.983 9.15909C210.525 9.15909 210.96 9.25 211.29 9.43182C211.623 9.60985 211.881 9.81818 212.062 10.0568C212.248 10.2955 212.392 10.5057 212.494 10.6875H212.597V9.27273H214.295V18H212.636V16.642H212.494C212.392 16.8277 212.244 17.0398 212.051 17.2784C211.862 17.517 211.6 17.7254 211.267 17.9034C210.934 18.0814 210.502 18.1705 209.972 18.1705ZM210.347 16.7216C210.835 16.7216 211.248 16.5928 211.585 16.3352C211.926 16.0739 212.184 15.7121 212.358 15.25C212.536 14.7879 212.625 14.25 212.625 13.6364C212.625 13.0303 212.538 12.5 212.364 12.0455C212.189 11.5909 211.934 11.2367 211.597 10.983C211.259 10.7292 210.843 10.6023 210.347 10.6023C209.835 10.6023 209.409 10.7348 209.068 11C208.727 11.2652 208.47 11.6269 208.295 12.0852C208.125 12.5436 208.04 13.0606 208.04 13.6364C208.04 14.2197 208.127 14.7443 208.301 15.2102C208.475 15.6761 208.733 16.0455 209.074 16.3182C209.419 16.5871 209.843 16.7216 210.347 16.7216ZM220.794 9.27273V10.6364H216.027V9.27273H220.794ZM217.305 7.18182H219.004V15.4375C219.004 15.767 219.054 16.0152 219.152 16.1818C219.25 16.3447 219.377 16.4564 219.533 16.517C219.692 16.5739 219.864 16.6023 220.05 16.6023C220.186 16.6023 220.305 16.5928 220.408 16.5739C220.51 16.5549 220.589 16.5398 220.646 16.5284L220.953 17.9318C220.855 17.9697 220.714 18.0076 220.533 18.0455C220.351 18.0871 220.124 18.1098 219.851 18.1136C219.404 18.1212 218.987 18.0417 218.601 17.875C218.214 17.7083 217.902 17.4508 217.663 17.1023C217.425 16.7538 217.305 16.3163 217.305 15.7898V7.18182ZM222.673 18V9.27273H224.372V18H222.673ZM223.531 7.92614C223.236 7.92614 222.982 7.82765 222.77 7.63068C222.562 7.42992 222.457 7.19129 222.457 6.91477C222.457 6.63447 222.562 6.39583 222.77 6.19886C222.982 5.99811 223.236 5.89773 223.531 5.89773C223.827 5.89773 224.079 5.99811 224.287 6.19886C224.499 6.39583 224.605 6.63447 224.605 6.91477C224.605 7.19129 224.499 7.42992 224.287 7.63068C224.079 7.82765 223.827 7.92614 223.531 7.92614ZM230.334 18.1761C229.516 18.1761 228.802 17.9886 228.192 17.6136C227.582 17.2386 227.108 16.714 226.771 16.0398C226.434 15.3655 226.266 14.5777 226.266 13.6761C226.266 12.7708 226.434 11.9792 226.771 11.3011C227.108 10.6231 227.582 10.0966 228.192 9.72159C228.802 9.34659 229.516 9.15909 230.334 9.15909C231.152 9.15909 231.866 9.34659 232.476 9.72159C233.086 10.0966 233.559 10.6231 233.896 11.3011C234.233 11.9792 234.402 12.7708 234.402 13.6761C234.402 14.5777 234.233 15.3655 233.896 16.0398C233.559 16.714 233.086 17.2386 232.476 17.6136C231.866 17.9886 231.152 18.1761 230.334 18.1761ZM230.339 16.75C230.87 16.75 231.309 16.6098 231.658 16.3295C232.006 16.0492 232.264 15.6761 232.43 15.2102C232.601 14.7443 232.686 14.2311 232.686 13.6705C232.686 13.1136 232.601 12.6023 232.43 12.1364C232.264 11.6667 232.006 11.2898 231.658 11.0057C231.309 10.7216 230.87 10.5795 230.339 10.5795C229.805 10.5795 229.362 10.7216 229.01 11.0057C228.661 11.2898 228.402 11.6667 228.232 12.1364C228.065 12.6023 227.982 13.1136 227.982 13.6705C227.982 14.2311 228.065 14.7443 228.232 15.2102C228.402 15.6761 228.661 16.0492 229.01 16.3295C229.362 16.6098 229.805 16.75 230.339 16.75ZM237.997 12.8182V18H236.298V9.27273H237.929V10.6932H238.037C238.238 10.2311 238.552 9.85985 238.98 9.57955C239.412 9.29924 239.955 9.15909 240.611 9.15909C241.205 9.15909 241.726 9.28409 242.173 9.53409C242.62 9.7803 242.967 10.1477 243.213 10.6364C243.459 11.125 243.582 11.7292 243.582 12.4489V18H241.884V12.6534C241.884 12.0208 241.719 11.5265 241.389 11.1705C241.06 10.8106 240.607 10.6307 240.031 10.6307C239.637 10.6307 239.287 10.7159 238.98 10.8864C238.677 11.0568 238.437 11.3068 238.259 11.6364C238.084 11.9621 237.997 12.3561 237.997 12.8182ZM252.401 11.4034L250.861 11.6761C250.796 11.4792 250.694 11.2917 250.554 11.1136C250.418 10.9356 250.232 10.7898 249.997 10.6761C249.762 10.5625 249.469 10.5057 249.116 10.5057C248.635 10.5057 248.234 10.6136 247.912 10.8295C247.59 11.0417 247.429 11.3163 247.429 11.6534C247.429 11.9451 247.537 12.1799 247.753 12.358C247.969 12.536 248.317 12.6818 248.798 12.7955L250.185 13.1136C250.988 13.2992 251.586 13.5852 251.98 13.9716C252.374 14.358 252.571 14.8598 252.571 15.4773C252.571 16 252.42 16.4659 252.116 16.875C251.817 17.2803 251.399 17.5985 250.861 17.8295C250.327 18.0606 249.707 18.1761 249.003 18.1761C248.026 18.1761 247.228 17.9678 246.611 17.5511C245.993 17.1307 245.615 16.5341 245.474 15.7614L247.116 15.5114C247.219 15.9394 247.429 16.2633 247.747 16.483C248.065 16.6989 248.48 16.8068 248.991 16.8068C249.548 16.8068 249.993 16.6913 250.327 16.4602C250.66 16.2254 250.827 15.9394 250.827 15.6023C250.827 15.3295 250.724 15.1004 250.52 14.9148C250.319 14.7292 250.01 14.589 249.594 14.4943L248.116 14.1705C247.302 13.9848 246.7 13.6894 246.31 13.2841C245.923 12.8788 245.73 12.3655 245.73 11.7443C245.73 11.2292 245.874 10.7784 246.162 10.392C246.45 10.0057 246.848 9.70455 247.355 9.48864C247.863 9.26894 248.444 9.15909 249.099 9.15909C250.043 9.15909 250.785 9.36364 251.327 9.77273C251.868 10.178 252.226 10.7216 252.401 11.4034ZM268.918 12.1818C268.918 13.4242 268.69 14.4924 268.236 15.3864C267.781 16.2765 267.158 16.9621 266.366 17.4432C265.579 17.9205 264.683 18.1591 263.679 18.1591C262.671 18.1591 261.772 17.9205 260.98 17.4432C260.192 16.9621 259.571 16.2746 259.116 15.3807C258.662 14.4867 258.435 13.4205 258.435 12.1818C258.435 10.9394 258.662 9.87311 259.116 8.98295C259.571 8.08901 260.192 7.40341 260.98 6.92614C261.772 6.44508 262.671 6.20455 263.679 6.20455C264.683 6.20455 265.579 6.44508 266.366 6.92614C267.158 7.40341 267.781 8.08901 268.236 8.98295C268.69 9.87311 268.918 10.9394 268.918 12.1818ZM267.179 12.1818C267.179 11.2348 267.026 10.4375 266.719 9.78977C266.416 9.13826 265.999 8.64583 265.469 8.3125C264.942 7.97538 264.346 7.80682 263.679 7.80682C263.009 7.80682 262.41 7.97538 261.884 8.3125C261.357 8.64583 260.94 9.13826 260.634 9.78977C260.33 10.4375 260.179 11.2348 260.179 12.1818C260.179 13.1288 260.33 13.928 260.634 14.5795C260.94 15.2273 261.357 15.7197 261.884 16.0568C262.41 16.3902 263.009 16.5568 263.679 16.5568C264.346 16.5568 264.942 16.3902 265.469 16.0568C265.999 15.7197 266.416 15.2273 266.719 14.5795C267.026 13.928 267.179 13.1288 267.179 12.1818ZM270.97 18V9.27273H272.612V10.6591H272.703C272.862 10.1894 273.143 9.82008 273.544 9.55114C273.949 9.27841 274.408 9.14205 274.919 9.14205C275.025 9.14205 275.15 9.14583 275.294 9.15341C275.442 9.16098 275.557 9.17045 275.641 9.18182V10.8068C275.572 10.7879 275.451 10.767 275.277 10.7443C275.103 10.7178 274.929 10.7045 274.754 10.7045C274.353 10.7045 273.995 10.7898 273.68 10.9602C273.37 11.1269 273.124 11.3598 272.942 11.6591C272.76 11.9545 272.669 12.2917 272.669 12.6705V18H270.97ZM280.457 21.4545C279.764 21.4545 279.168 21.3636 278.668 21.1818C278.171 21 277.766 20.7595 277.452 20.4602C277.137 20.161 276.902 19.8333 276.747 19.4773L278.207 18.875C278.31 19.0417 278.446 19.2178 278.616 19.4034C278.791 19.5928 279.026 19.7538 279.321 19.8864C279.62 20.0189 280.005 20.0852 280.474 20.0852C281.118 20.0852 281.651 19.928 282.071 19.6136C282.491 19.303 282.702 18.8068 282.702 18.125V16.4091H282.594C282.491 16.5947 282.344 16.8011 282.151 17.0284C281.961 17.2557 281.7 17.4527 281.366 17.6193C281.033 17.786 280.599 17.8693 280.065 17.8693C279.376 17.8693 278.755 17.7083 278.202 17.3864C277.652 17.0606 277.217 16.5814 276.895 15.9489C276.577 15.3125 276.418 14.5303 276.418 13.6023C276.418 12.6742 276.575 11.8788 276.889 11.2159C277.207 10.553 277.643 10.0455 278.196 9.69318C278.749 9.33712 279.376 9.15909 280.077 9.15909C280.618 9.15909 281.056 9.25 281.389 9.43182C281.723 9.60985 281.982 9.81818 282.168 10.0568C282.357 10.2955 282.503 10.5057 282.605 10.6875H282.73V9.27273H284.395V18.1932C284.395 18.9432 284.221 19.5587 283.872 20.0398C283.524 20.5208 283.052 20.8769 282.457 21.108C281.866 21.339 281.2 21.4545 280.457 21.4545ZM280.44 16.4602C280.929 16.4602 281.342 16.3466 281.679 16.1193C282.02 15.8883 282.277 15.5587 282.452 15.1307C282.63 14.6989 282.719 14.1818 282.719 13.5795C282.719 12.9924 282.632 12.4754 282.457 12.0284C282.283 11.5814 282.027 11.233 281.69 10.983C281.353 10.7292 280.937 10.6023 280.44 10.6023C279.929 10.6023 279.503 10.7348 279.162 11C278.821 11.2614 278.563 11.6174 278.389 12.0682C278.219 12.5189 278.134 13.0227 278.134 13.5795C278.134 14.1515 278.221 14.6534 278.395 15.0852C278.569 15.517 278.827 15.8542 279.168 16.0966C279.512 16.339 279.937 16.4602 280.44 16.4602ZM289.94 18.1705C289.236 18.1705 288.607 17.9905 288.054 17.6307C287.505 17.267 287.073 16.75 286.759 16.0795C286.448 15.4053 286.293 14.5966 286.293 13.6534C286.293 12.7102 286.45 11.9034 286.764 11.233C287.082 10.5625 287.518 10.0492 288.071 9.69318C288.624 9.33712 289.251 9.15909 289.952 9.15909C290.493 9.15909 290.929 9.25 291.259 9.43182C291.592 9.60985 291.849 9.81818 292.031 10.0568C292.217 10.2955 292.361 10.5057 292.463 10.6875H292.565V9.27273H294.264V18H292.605V16.642H292.463C292.361 16.8277 292.213 17.0398 292.02 17.2784C291.83 17.517 291.569 17.7254 291.236 17.9034C290.902 18.0814 290.471 18.1705 289.94 18.1705ZM290.315 16.7216C290.804 16.7216 291.217 16.5928 291.554 16.3352C291.895 16.0739 292.152 15.7121 292.327 15.25C292.505 14.7879 292.594 14.25 292.594 13.6364C292.594 13.0303 292.507 12.5 292.332 12.0455C292.158 11.5909 291.902 11.2367 291.565 10.983C291.228 10.7292 290.812 10.6023 290.315 10.6023C289.804 10.6023 289.378 10.7348 289.037 11C288.696 11.2652 288.438 11.6269 288.264 12.0852C288.094 12.5436 288.009 13.0606 288.009 13.6364C288.009 14.2197 288.096 14.7443 288.27 15.2102C288.444 15.6761 288.702 16.0455 289.043 16.3182C289.387 16.5871 289.812 16.7216 290.315 16.7216ZM298.388 12.8182V18H296.689V9.27273H298.32V10.6932H298.428C298.628 10.2311 298.943 9.85985 299.371 9.57955C299.803 9.29924 300.346 9.15909 301.001 9.15909C301.596 9.15909 302.117 9.28409 302.564 9.53409C303.011 9.7803 303.357 10.1477 303.604 10.6364C303.85 11.125 303.973 11.7292 303.973 12.4489V18H302.274V12.6534C302.274 12.0208 302.109 11.5265 301.78 11.1705C301.45 10.8106 300.998 10.6307 300.422 10.6307C300.028 10.6307 299.678 10.7159 299.371 10.8864C299.068 11.0568 298.827 11.3068 298.649 11.6364C298.475 11.9621 298.388 12.3561 298.388 12.8182ZM306.251 18V9.27273H307.95V18H306.251ZM307.109 7.92614C306.814 7.92614 306.56 7.82765 306.348 7.63068C306.14 7.42992 306.036 7.19129 306.036 6.91477C306.036 6.63447 306.14 6.39583 306.348 6.19886C306.56 5.99811 306.814 5.89773 307.109 5.89773C307.405 5.89773 307.657 5.99811 307.865 6.19886C308.077 6.39583 308.183 6.63447 308.183 6.91477C308.183 7.19129 308.077 7.42992 307.865 7.63068C307.657 7.82765 307.405 7.92614 307.109 7.92614ZM310.054 18V16.8352L314.781 10.8295V10.75H310.207V9.27273H316.901V10.5114L312.355 16.4432V16.5227H317.06V18H310.054ZM322.081 18.1705C321.376 18.1705 320.748 17.9905 320.195 17.6307C319.645 17.267 319.214 16.75 318.899 16.0795C318.589 15.4053 318.433 14.5966 318.433 13.6534C318.433 12.7102 318.59 11.9034 318.905 11.233C319.223 10.5625 319.659 10.0492 320.212 9.69318C320.765 9.33712 321.392 9.15909 322.092 9.15909C322.634 9.15909 323.07 9.25 323.399 9.43182C323.732 9.60985 323.99 9.81818 324.172 10.0568C324.357 10.2955 324.501 10.5057 324.604 10.6875H324.706V9.27273H326.405V18H324.746V16.642H324.604C324.501 16.8277 324.354 17.0398 324.161 17.2784C323.971 17.517 323.71 17.7254 323.376 17.9034C323.043 18.0814 322.611 18.1705 322.081 18.1705ZM322.456 16.7216C322.945 16.7216 323.357 16.5928 323.695 16.3352C324.036 16.0739 324.293 15.7121 324.467 15.25C324.645 14.7879 324.734 14.25 324.734 13.6364C324.734 13.0303 324.647 12.5 324.473 12.0455C324.299 11.5909 324.043 11.2367 323.706 10.983C323.369 10.7292 322.952 10.6023 322.456 10.6023C321.945 10.6023 321.518 10.7348 321.178 11C320.837 11.2652 320.579 11.6269 320.405 12.0852C320.234 12.5436 320.149 13.0606 320.149 13.6364C320.149 14.2197 320.236 14.7443 320.411 15.2102C320.585 15.6761 320.842 16.0455 321.183 16.3182C321.528 16.5871 321.952 16.7216 322.456 16.7216ZM332.903 9.27273V10.6364H328.136V9.27273H332.903ZM329.415 7.18182H331.114V15.4375C331.114 15.767 331.163 16.0152 331.261 16.1818C331.36 16.3447 331.487 16.4564 331.642 16.517C331.801 16.5739 331.973 16.6023 332.159 16.6023C332.295 16.6023 332.415 16.5928 332.517 16.5739C332.619 16.5549 332.699 16.5398 332.756 16.5284L333.062 17.9318C332.964 17.9697 332.824 18.0076 332.642 18.0455C332.46 18.0871 332.233 18.1098 331.96 18.1136C331.513 18.1212 331.097 18.0417 330.71 17.875C330.324 17.7083 330.011 17.4508 329.773 17.1023C329.534 16.7538 329.415 16.3163 329.415 15.7898V7.18182ZM334.783 18V9.27273H336.482V18H334.783ZM335.641 7.92614C335.345 7.92614 335.091 7.82765 334.879 7.63068C334.671 7.42992 334.567 7.19129 334.567 6.91477C334.567 6.63447 334.671 6.39583 334.879 6.19886C335.091 5.99811 335.345 5.89773 335.641 5.89773C335.936 5.89773 336.188 5.99811 336.396 6.19886C336.608 6.39583 336.714 6.63447 336.714 6.91477C336.714 7.19129 336.608 7.42992 336.396 7.63068C336.188 7.82765 335.936 7.92614 335.641 7.92614ZM342.443 18.1761C341.625 18.1761 340.911 17.9886 340.301 17.6136C339.691 17.2386 339.218 16.714 338.881 16.0398C338.544 15.3655 338.375 14.5777 338.375 13.6761C338.375 12.7708 338.544 11.9792 338.881 11.3011C339.218 10.6231 339.691 10.0966 340.301 9.72159C340.911 9.34659 341.625 9.15909 342.443 9.15909C343.261 9.15909 343.975 9.34659 344.585 9.72159C345.195 10.0966 345.669 10.6231 346.006 11.3011C346.343 11.9792 346.511 12.7708 346.511 13.6761C346.511 14.5777 346.343 15.3655 346.006 16.0398C345.669 16.714 345.195 17.2386 344.585 17.6136C343.975 17.9886 343.261 18.1761 342.443 18.1761ZM342.449 16.75C342.979 16.75 343.419 16.6098 343.767 16.3295C344.116 16.0492 344.373 15.6761 344.54 15.2102C344.71 14.7443 344.795 14.2311 344.795 13.6705C344.795 13.1136 344.71 12.6023 344.54 12.1364C344.373 11.6667 344.116 11.2898 343.767 11.0057C343.419 10.7216 342.979 10.5795 342.449 10.5795C341.915 10.5795 341.472 10.7216 341.119 11.0057C340.771 11.2898 340.511 11.6667 340.341 12.1364C340.174 12.6023 340.091 13.1136 340.091 13.6705C340.091 14.2311 340.174 14.7443 340.341 15.2102C340.511 15.6761 340.771 16.0492 341.119 16.3295C341.472 16.6098 341.915 16.75 342.449 16.75ZM350.107 12.8182V18H348.408V9.27273H350.038V10.6932H350.146C350.347 10.2311 350.661 9.85985 351.089 9.57955C351.521 9.29924 352.065 9.15909 352.72 9.15909C353.315 9.15909 353.836 9.28409 354.283 9.53409C354.73 9.7803 355.076 10.1477 355.322 10.6364C355.569 11.125 355.692 11.7292 355.692 12.4489V18H353.993V12.6534C353.993 12.0208 353.828 11.5265 353.499 11.1705C353.169 10.8106 352.716 10.6307 352.141 10.6307C351.747 10.6307 351.396 10.7159 351.089 10.8864C350.786 11.0568 350.546 11.3068 350.368 11.6364C350.194 11.9621 350.107 12.3561 350.107 12.8182ZM362.341 18V6.36364H366.489C367.394 6.36364 368.144 6.52841 368.739 6.85795C369.333 7.1875 369.778 7.63826 370.074 8.21023C370.369 8.77841 370.517 9.41856 370.517 10.1307C370.517 10.8466 370.367 11.4905 370.068 12.0625C369.773 12.6307 369.326 13.0814 368.727 13.4148C368.133 13.7443 367.384 13.9091 366.483 13.9091H363.631V12.4205H366.324C366.896 12.4205 367.36 12.322 367.716 12.125C368.072 11.9242 368.333 11.6515 368.5 11.3068C368.667 10.9621 368.75 10.5701 368.75 10.1307C368.75 9.69129 368.667 9.30114 368.5 8.96023C368.333 8.61932 368.07 8.35227 367.71 8.15909C367.354 7.96591 366.884 7.86932 366.301 7.86932H364.097V18H362.341ZM376.006 18.1761C375.188 18.1761 374.473 17.9886 373.864 17.6136C373.254 17.2386 372.78 16.714 372.443 16.0398C372.106 15.3655 371.938 14.5777 371.938 13.6761C371.938 12.7708 372.106 11.9792 372.443 11.3011C372.78 10.6231 373.254 10.0966 373.864 9.72159C374.473 9.34659 375.188 9.15909 376.006 9.15909C376.824 9.15909 377.538 9.34659 378.148 9.72159C378.758 10.0966 379.231 10.6231 379.568 11.3011C379.905 11.9792 380.074 12.7708 380.074 13.6761C380.074 14.5777 379.905 15.3655 379.568 16.0398C379.231 16.714 378.758 17.2386 378.148 17.6136C377.538 17.9886 376.824 18.1761 376.006 18.1761ZM376.011 16.75C376.542 16.75 376.981 16.6098 377.33 16.3295C377.678 16.0492 377.936 15.6761 378.102 15.2102C378.273 14.7443 378.358 14.2311 378.358 13.6705C378.358 13.1136 378.273 12.6023 378.102 12.1364C377.936 11.6667 377.678 11.2898 377.33 11.0057C376.981 10.7216 376.542 10.5795 376.011 10.5795C375.477 10.5795 375.034 10.7216 374.682 11.0057C374.333 11.2898 374.074 11.6667 373.903 12.1364C373.737 12.6023 373.653 13.1136 373.653 13.6705C373.653 14.2311 373.737 14.7443 373.903 15.2102C374.074 15.6761 374.333 16.0492 374.682 16.3295C375.034 16.6098 375.477 16.75 376.011 16.75ZM383.597 18L381.028 9.27273H382.784L384.494 15.6818H384.58L386.295 9.27273H388.051L389.756 15.6534H389.841L391.54 9.27273H393.295L390.733 18H389L387.227 11.6989H387.097L385.324 18H383.597ZM398.403 18.1761C397.544 18.1761 396.803 17.9924 396.182 17.625C395.564 17.2538 395.087 16.733 394.75 16.0625C394.417 15.3883 394.25 14.5985 394.25 13.6932C394.25 12.7992 394.417 12.0114 394.75 11.3295C395.087 10.6477 395.557 10.1155 396.159 9.73295C396.765 9.35038 397.473 9.15909 398.284 9.15909C398.777 9.15909 399.254 9.24053 399.716 9.40341C400.178 9.56629 400.593 9.82197 400.96 10.1705C401.328 10.5189 401.617 10.9716 401.83 11.5284C402.042 12.0814 402.148 12.7538 402.148 13.5455V14.1477H395.21V12.875H400.483C400.483 12.428 400.392 12.0322 400.21 11.6875C400.028 11.339 399.773 11.0644 399.443 10.8636C399.117 10.6629 398.735 10.5625 398.295 10.5625C397.818 10.5625 397.402 10.6799 397.045 10.9148C396.693 11.1458 396.42 11.4489 396.227 11.8239C396.038 12.1951 395.943 12.5985 395.943 13.0341V14.0284C395.943 14.6117 396.045 15.108 396.25 15.517C396.458 15.9261 396.748 16.2386 397.119 16.4545C397.491 16.6667 397.924 16.7727 398.42 16.7727C398.742 16.7727 399.036 16.7273 399.301 16.6364C399.566 16.5417 399.795 16.4015 399.989 16.2159C400.182 16.0303 400.33 15.8011 400.432 15.5284L402.04 15.8182C401.911 16.2917 401.68 16.7064 401.347 17.0625C401.017 17.4148 400.602 17.6894 400.102 17.8864C399.606 18.0795 399.04 18.1761 398.403 18.1761ZM404.033 18V9.27273H405.675V10.6591H405.766C405.925 10.1894 406.205 9.82008 406.607 9.55114C407.012 9.27841 407.47 9.14205 407.982 9.14205C408.088 9.14205 408.213 9.14583 408.357 9.15341C408.504 9.16098 408.62 9.17045 408.703 9.18182V10.8068C408.635 10.7879 408.514 10.767 408.339 10.7443C408.165 10.7178 407.991 10.7045 407.817 10.7045C407.415 10.7045 407.057 10.7898 406.743 10.9602C406.432 11.1269 406.186 11.3598 406.004 11.6591C405.822 11.9545 405.732 12.2917 405.732 12.6705V18H404.033ZM413.622 18.1761C412.762 18.1761 412.022 17.9924 411.401 17.625C410.783 17.2538 410.306 16.733 409.969 16.0625C409.635 15.3883 409.469 14.5985 409.469 13.6932C409.469 12.7992 409.635 12.0114 409.969 11.3295C410.306 10.6477 410.776 10.1155 411.378 9.73295C411.984 9.35038 412.692 9.15909 413.503 9.15909C413.995 9.15909 414.473 9.24053 414.935 9.40341C415.397 9.56629 415.812 9.82197 416.179 10.1705C416.546 10.5189 416.836 10.9716 417.048 11.5284C417.26 12.0814 417.366 12.7538 417.366 13.5455V14.1477H410.429V12.875H415.702C415.702 12.428 415.611 12.0322 415.429 11.6875C415.247 11.339 414.991 11.0644 414.662 10.8636C414.336 10.6629 413.954 10.5625 413.514 10.5625C413.037 10.5625 412.62 10.6799 412.264 10.9148C411.912 11.1458 411.639 11.4489 411.446 11.8239C411.257 12.1951 411.162 12.5985 411.162 13.0341V14.0284C411.162 14.6117 411.264 15.108 411.469 15.517C411.677 15.9261 411.967 16.2386 412.338 16.4545C412.709 16.6667 413.143 16.7727 413.639 16.7727C413.961 16.7727 414.255 16.7273 414.52 16.6364C414.785 16.5417 415.014 16.4015 415.207 16.2159C415.401 16.0303 415.548 15.8011 415.651 15.5284L417.259 15.8182C417.13 16.2917 416.899 16.7064 416.565 17.0625C416.236 17.4148 415.821 17.6894 415.321 17.8864C414.825 18.0795 414.259 18.1761 413.622 18.1761ZM422.518 18.1705C421.814 18.1705 421.185 17.9905 420.632 17.6307C420.083 17.267 419.651 16.75 419.337 16.0795C419.026 15.4053 418.871 14.5966 418.871 13.6534C418.871 12.7102 419.028 11.9034 419.342 11.233C419.661 10.5625 420.096 10.0492 420.649 9.69318C421.202 9.33712 421.829 9.15909 422.53 9.15909C423.071 9.15909 423.507 9.25 423.837 9.43182C424.17 9.60985 424.428 9.81818 424.609 10.0568C424.795 10.2955 424.939 10.5057 425.041 10.6875H425.143V6.36364H426.842V18H425.183V16.642H425.041C424.939 16.8277 424.791 17.0398 424.598 17.2784C424.409 17.517 424.147 17.7254 423.814 17.9034C423.481 18.0814 423.049 18.1705 422.518 18.1705ZM422.893 16.7216C423.382 16.7216 423.795 16.5928 424.132 16.3352C424.473 16.0739 424.731 15.7121 424.905 15.25C425.083 14.7879 425.172 14.25 425.172 13.6364C425.172 13.0303 425.085 12.5 424.911 12.0455C424.736 11.5909 424.481 11.2367 424.143 10.983C423.806 10.7292 423.39 10.6023 422.893 10.6023C422.382 10.6023 421.956 10.7348 421.615 11C421.274 11.2652 421.017 11.6269 420.842 12.0852C420.672 12.5436 420.587 13.0606 420.587 13.6364C420.587 14.2197 420.674 14.7443 420.848 15.2102C421.022 15.6761 421.28 16.0455 421.621 16.3182C421.965 16.5871 422.39 16.7216 422.893 16.7216ZM433.638 18V6.36364H435.337V10.6875H435.439C435.537 10.5057 435.679 10.2955 435.865 10.0568C436.051 9.81818 436.308 9.60985 436.638 9.43182C436.967 9.25 437.403 9.15909 437.945 9.15909C438.649 9.15909 439.278 9.33712 439.831 9.69318C440.384 10.0492 440.818 10.5625 441.132 11.233C441.45 11.9034 441.609 12.7102 441.609 13.6534C441.609 14.5966 441.452 15.4053 441.138 16.0795C440.823 16.75 440.392 17.267 439.842 17.6307C439.293 17.9905 438.666 18.1705 437.962 18.1705C437.431 18.1705 436.998 18.0814 436.661 17.9034C436.327 17.7254 436.066 17.517 435.876 17.2784C435.687 17.0398 435.541 16.8277 435.439 16.642H435.297V18H433.638ZM435.303 13.6364C435.303 14.25 435.392 14.7879 435.57 15.25C435.748 15.7121 436.005 16.0739 436.342 16.3352C436.679 16.5928 437.092 16.7216 437.581 16.7216C438.089 16.7216 438.513 16.5871 438.854 16.3182C439.195 16.0455 439.452 15.6761 439.626 15.2102C439.804 14.7443 439.893 14.2197 439.893 13.6364C439.893 13.0606 439.806 12.5436 439.632 12.0852C439.462 11.6269 439.204 11.2652 438.859 11C438.518 10.7348 438.092 10.6023 437.581 10.6023C437.089 10.6023 436.672 10.7292 436.331 10.983C435.994 11.2367 435.738 11.5909 435.564 12.0455C435.39 12.5 435.303 13.0303 435.303 13.6364ZM444.294 21.2727C444.04 21.2727 443.809 21.2519 443.601 21.2102C443.393 21.1723 443.237 21.1307 443.135 21.0852L443.544 19.6932C443.855 19.7765 444.131 19.8125 444.374 19.8011C444.616 19.7898 444.83 19.6989 445.016 19.5284C445.205 19.358 445.372 19.0795 445.516 18.6932L445.726 18.1136L442.533 9.27273H444.351L446.561 16.0455H446.652L448.862 9.27273H450.686L447.089 19.1648C446.923 19.6193 446.711 20.0038 446.453 20.3182C446.196 20.6364 445.889 20.875 445.533 21.0341C445.177 21.1932 444.764 21.2727 444.294 21.2727ZM458.409 6.36364V18H456.653V6.36364H458.409ZM460.392 7.875V6.36364H469.398V7.875H465.767V18H464.017V7.875H460.392ZM475.622 18V6.36364H479.884C480.709 6.36364 481.393 6.5 481.935 6.77273C482.476 7.04167 482.882 7.4072 483.151 7.86932C483.42 8.32765 483.554 8.8447 483.554 9.42045C483.554 9.9053 483.465 10.3144 483.287 10.6477C483.109 10.9773 482.87 11.2424 482.571 11.4432C482.276 11.6402 481.95 11.7841 481.594 11.875V11.9886C481.98 12.0076 482.357 12.1326 482.724 12.3636C483.096 12.5909 483.402 12.9148 483.645 13.3352C483.887 13.7557 484.009 14.267 484.009 14.8693C484.009 15.464 483.868 15.9981 483.588 16.4716C483.312 16.9413 482.884 17.3144 482.304 17.5909C481.724 17.8636 480.984 18 480.082 18H475.622ZM477.378 16.4943H479.912C480.753 16.4943 481.355 16.3314 481.719 16.0057C482.082 15.6799 482.264 15.2727 482.264 14.7841C482.264 14.4167 482.171 14.0795 481.986 13.7727C481.8 13.4659 481.535 13.2216 481.19 13.0398C480.849 12.858 480.444 12.767 479.974 12.767H477.378V16.4943ZM477.378 11.3977H479.73C480.124 11.3977 480.478 11.322 480.793 11.1705C481.111 11.0189 481.363 10.8068 481.548 10.5341C481.738 10.2576 481.832 9.93182 481.832 9.55682C481.832 9.07576 481.664 8.67235 481.327 8.34659C480.99 8.02083 480.473 7.85795 479.776 7.85795H477.378V11.3977ZM485.955 18V9.27273H487.597V10.6591H487.688C487.847 10.1894 488.127 9.82008 488.528 9.55114C488.934 9.27841 489.392 9.14205 489.903 9.14205C490.009 9.14205 490.134 9.14583 490.278 9.15341C490.426 9.16098 490.542 9.17045 490.625 9.18182V10.8068C490.557 10.7879 490.436 10.767 490.261 10.7443C490.087 10.7178 489.913 10.7045 489.739 10.7045C489.337 10.7045 488.979 10.7898 488.665 10.9602C488.354 11.1269 488.108 11.3598 487.926 11.6591C487.744 11.9545 487.653 12.2917 487.653 12.6705V18H485.955ZM495.05 18.1705C494.345 18.1705 493.716 17.9905 493.163 17.6307C492.614 17.267 492.182 16.75 491.868 16.0795C491.557 15.4053 491.402 14.5966 491.402 13.6534C491.402 12.7102 491.559 11.9034 491.874 11.233C492.192 10.5625 492.627 10.0492 493.18 9.69318C493.733 9.33712 494.36 9.15909 495.061 9.15909C495.603 9.15909 496.038 9.25 496.368 9.43182C496.701 9.60985 496.959 9.81818 497.141 10.0568C497.326 10.2955 497.47 10.5057 497.572 10.6875H497.675V9.27273H499.374V18H497.714V16.642H497.572C497.47 16.8277 497.322 17.0398 497.129 17.2784C496.94 17.517 496.679 17.7254 496.345 17.9034C496.012 18.0814 495.58 18.1705 495.05 18.1705ZM495.425 16.7216C495.913 16.7216 496.326 16.5928 496.663 16.3352C497.004 16.0739 497.262 15.7121 497.436 15.25C497.614 14.7879 497.703 14.25 497.703 13.6364C497.703 13.0303 497.616 12.5 497.442 12.0455C497.268 11.5909 497.012 11.2367 496.675 10.983C496.338 10.7292 495.921 10.6023 495.425 10.6023C494.913 10.6023 494.487 10.7348 494.146 11C493.805 11.2652 493.548 11.6269 493.374 12.0852C493.203 12.5436 493.118 13.0606 493.118 13.6364C493.118 14.2197 493.205 14.7443 493.379 15.2102C493.554 15.6761 493.811 16.0455 494.152 16.3182C494.497 16.5871 494.921 16.7216 495.425 16.7216ZM503.497 12.8182V18H501.798V9.27273H503.429V10.6932H503.537C503.738 10.2311 504.052 9.85985 504.48 9.57955C504.912 9.29924 505.455 9.15909 506.111 9.15909C506.705 9.15909 507.226 9.28409 507.673 9.53409C508.12 9.7803 508.467 10.1477 508.713 10.6364C508.959 11.125 509.082 11.7292 509.082 12.4489V18H507.384V12.6534C507.384 12.0208 507.219 11.5265 506.889 11.1705C506.56 10.8106 506.107 10.6307 505.531 10.6307C505.137 10.6307 504.787 10.7159 504.48 10.8864C504.177 11.0568 503.937 11.3068 503.759 11.6364C503.584 11.9621 503.497 12.3561 503.497 12.8182ZM515.037 18.1761C514.192 18.1761 513.465 17.9848 512.855 17.6023C512.249 17.2159 511.783 16.6837 511.457 16.0057C511.132 15.3277 510.969 14.5511 510.969 13.6761C510.969 12.7898 511.135 12.0076 511.469 11.3295C511.802 10.6477 512.272 10.1155 512.878 9.73295C513.484 9.35038 514.198 9.15909 515.02 9.15909C515.683 9.15909 516.274 9.2822 516.793 9.52841C517.312 9.77083 517.73 10.1117 518.048 10.5511C518.37 10.9905 518.562 11.5038 518.622 12.0909H516.969C516.878 11.6818 516.67 11.3295 516.344 11.0341C516.022 10.7386 515.59 10.5909 515.048 10.5909C514.575 10.5909 514.16 10.7159 513.804 10.9659C513.452 11.2121 513.177 11.5644 512.98 12.0227C512.783 12.4773 512.685 13.0152 512.685 13.6364C512.685 14.2727 512.781 14.822 512.974 15.2841C513.168 15.7462 513.44 16.1042 513.793 16.358C514.149 16.6117 514.567 16.7386 515.048 16.7386C515.37 16.7386 515.662 16.6799 515.923 16.5625C516.188 16.4413 516.41 16.2689 516.588 16.0455C516.77 15.822 516.897 15.553 516.969 15.2386H518.622C518.562 15.803 518.378 16.3068 518.071 16.75C517.764 17.1932 517.353 17.5417 516.838 17.7955C516.327 18.0492 515.726 18.1761 515.037 18.1761ZM522.138 12.8182V18H520.439V6.36364H522.115V10.6932H522.223C522.428 10.2235 522.74 9.85038 523.161 9.57386C523.581 9.29735 524.13 9.15909 524.808 9.15909C525.407 9.15909 525.929 9.2822 526.376 9.52841C526.827 9.77462 527.176 10.142 527.422 10.6307C527.672 11.1155 527.797 11.7216 527.797 12.4489V18H526.098V12.6534C526.098 12.0133 525.933 11.517 525.604 11.1648C525.274 10.8087 524.816 10.6307 524.229 10.6307C523.827 10.6307 523.467 10.7159 523.149 10.8864C522.835 11.0568 522.587 11.3068 522.405 11.6364C522.227 11.9621 522.138 12.3561 522.138 12.8182ZM540.781 9.42045C540.721 8.88258 540.471 8.46591 540.031 8.17045C539.592 7.87121 539.039 7.72159 538.372 7.72159C537.895 7.72159 537.482 7.79735 537.134 7.94886C536.785 8.09659 536.514 8.30114 536.321 8.5625C536.132 8.82008 536.037 9.11364 536.037 9.44318C536.037 9.7197 536.101 9.95833 536.23 10.1591C536.363 10.3598 536.535 10.5284 536.747 10.6648C536.963 10.7973 537.194 10.9091 537.44 11C537.687 11.0871 537.923 11.1591 538.151 11.2159L539.287 11.5114C539.658 11.6023 540.039 11.7254 540.429 11.8807C540.819 12.036 541.181 12.2405 541.514 12.4943C541.848 12.7481 542.116 13.0625 542.321 13.4375C542.529 13.8125 542.634 14.2614 542.634 14.7841C542.634 15.4432 542.463 16.0284 542.122 16.5398C541.785 17.0511 541.295 17.4545 540.651 17.75C540.01 18.0455 539.236 18.1932 538.327 18.1932C537.455 18.1932 536.702 18.0549 536.065 17.7784C535.429 17.5019 534.931 17.1098 534.571 16.6023C534.211 16.0909 534.012 15.4848 533.974 14.7841H535.736C535.77 15.2045 535.906 15.5549 536.145 15.8352C536.387 16.1117 536.696 16.3182 537.071 16.4545C537.45 16.5871 537.865 16.6534 538.315 16.6534C538.812 16.6534 539.253 16.5758 539.639 16.4205C540.029 16.2614 540.336 16.0417 540.56 15.7614C540.783 15.4773 540.895 15.1458 540.895 14.767C540.895 14.4223 540.796 14.1402 540.599 13.9205C540.406 13.7008 540.143 13.5189 539.81 13.375C539.48 13.2311 539.107 13.1042 538.69 12.9943L537.315 12.6193C536.384 12.3655 535.645 11.9924 535.099 11.5C534.558 11.0076 534.287 10.3561 534.287 9.54545C534.287 8.875 534.469 8.28977 534.832 7.78977C535.196 7.28977 535.688 6.90151 536.31 6.625C536.931 6.3447 537.632 6.20455 538.412 6.20455C539.2 6.20455 539.895 6.3428 540.497 6.61932C541.103 6.89583 541.58 7.27652 541.929 7.76136C542.277 8.24242 542.459 8.79545 542.474 9.42045H540.781ZM554.396 10.1477H552.624C552.555 9.76894 552.429 9.43561 552.243 9.14773C552.057 8.85985 551.83 8.61553 551.561 8.41477C551.292 8.21401 550.991 8.0625 550.658 7.96023C550.328 7.85795 549.978 7.80682 549.607 7.80682C548.936 7.80682 548.336 7.97538 547.805 8.3125C547.279 8.64962 546.862 9.14394 546.555 9.79545C546.252 10.447 546.101 11.2424 546.101 12.1818C546.101 13.1288 546.252 13.928 546.555 14.5795C546.862 15.2311 547.281 15.7235 547.811 16.0568C548.341 16.3902 548.938 16.5568 549.601 16.5568C549.968 16.5568 550.317 16.5076 550.646 16.4091C550.98 16.3068 551.281 16.1572 551.55 15.9602C551.819 15.7633 552.046 15.5227 552.232 15.2386C552.421 14.9508 552.552 14.6212 552.624 14.25L554.396 14.2557C554.302 14.8277 554.118 15.3542 553.845 15.8352C553.576 16.3125 553.23 16.7254 552.805 17.0739C552.385 17.4186 551.904 17.6856 551.362 17.875C550.821 18.0644 550.23 18.1591 549.589 18.1591C548.582 18.1591 547.684 17.9205 546.896 17.4432C546.108 16.9621 545.487 16.2746 545.033 15.3807C544.582 14.4867 544.357 13.4205 544.357 12.1818C544.357 10.9394 544.584 9.87311 545.038 8.98295C545.493 8.08901 546.114 7.40341 546.902 6.92614C547.69 6.44508 548.586 6.20455 549.589 6.20455C550.207 6.20455 550.783 6.29356 551.317 6.47159C551.855 6.64583 552.338 6.90341 552.766 7.24432C553.194 7.58144 553.548 7.99432 553.828 8.48295C554.108 8.9678 554.298 9.52273 554.396 10.1477ZM566.605 12.1818C566.605 13.4242 566.378 14.4924 565.923 15.3864C565.469 16.2765 564.846 16.9621 564.054 17.4432C563.266 17.9205 562.37 18.1591 561.366 18.1591C560.359 18.1591 559.459 17.9205 558.668 17.4432C557.88 16.9621 557.259 16.2746 556.804 15.3807C556.349 14.4867 556.122 13.4205 556.122 12.1818C556.122 10.9394 556.349 9.87311 556.804 8.98295C557.259 8.08901 557.88 7.40341 558.668 6.92614C559.459 6.44508 560.359 6.20455 561.366 6.20455C562.37 6.20455 563.266 6.44508 564.054 6.92614C564.846 7.40341 565.469 8.08901 565.923 8.98295C566.378 9.87311 566.605 10.9394 566.605 12.1818ZM564.866 12.1818C564.866 11.2348 564.713 10.4375 564.406 9.78977C564.103 9.13826 563.687 8.64583 563.156 8.3125C562.63 7.97538 562.033 7.80682 561.366 7.80682C560.696 7.80682 560.098 7.97538 559.571 8.3125C559.045 8.64583 558.628 9.13826 558.321 9.78977C558.018 10.4375 557.866 11.2348 557.866 12.1818C557.866 13.1288 558.018 13.928 558.321 14.5795C558.628 15.2273 559.045 15.7197 559.571 16.0568C560.098 16.3902 560.696 16.5568 561.366 16.5568C562.033 16.5568 562.63 16.3902 563.156 16.0568C563.687 15.7197 564.103 15.2273 564.406 14.5795C564.713 13.928 564.866 13.1288 564.866 12.1818Z" fill="white" fill-opacity="0.8"/>
<path d="M455.375 21.1818H567.509V22.2727H455.375V21.1818Z" fill="white" fill-opacity="0.8"/>
<a href="https://www.sco.gov.pk/">
<rect fill="black" fill-opacity="0" x="455.375" y="2.31818" width="112.134" height="19.3636"/>
</a>
</svg>
