<svg width="415" height="27" viewBox="0 0 415 27" fill="none" xmlns="http://www.w3.org/2000/svg">
<path d="M13.3145 15.4492C13.3145 16.6341 13.0273 17.6641 12.4531 18.5391C11.8789 19.4141 11.0404 20.0885 9.9375 20.5625C8.84375 21.0365 7.51302 21.2734 5.94531 21.2734C5.2526 21.2734 4.57357 21.2279 3.9082 21.1367C3.25195 21.0456 2.61849 20.9134 2.00781 20.7402C1.40625 20.5579 0.832031 20.3346 0.285156 20.0703V16.1328C1.23307 16.5521 2.21745 16.9303 3.23828 17.2676C4.25911 17.6048 5.27083 17.7734 6.27344 17.7734C6.96615 17.7734 7.52214 17.6823 7.94141 17.5C8.36979 17.3177 8.67969 17.0671 8.87109 16.748C9.0625 16.429 9.1582 16.0645 9.1582 15.6543C9.1582 15.153 8.98958 14.7246 8.65234 14.3691C8.3151 14.0137 7.85026 13.681 7.25781 13.3711C6.67448 13.0612 6.01367 12.7285 5.27539 12.373C4.81055 12.1543 4.30469 11.89 3.75781 11.5801C3.21094 11.2611 2.69141 10.8737 2.19922 10.418C1.70703 9.96224 1.30143 9.41081 0.982422 8.76367C0.672526 8.10742 0.517578 7.32357 0.517578 6.41211C0.517578 5.2181 0.791016 4.19727 1.33789 3.34961C1.88477 2.50195 2.66406 1.85482 3.67578 1.4082C4.69661 0.952474 5.89974 0.724609 7.28516 0.724609C8.32422 0.724609 9.31315 0.847656 10.252 1.09375C11.1999 1.33073 12.1888 1.67708 13.2188 2.13281L11.8516 5.42773C10.931 5.05404 10.1061 4.76693 9.37695 4.56641C8.64779 4.35677 7.90495 4.25195 7.14844 4.25195C6.61979 4.25195 6.16862 4.33854 5.79492 4.51172C5.42122 4.67578 5.13867 4.91276 4.94727 5.22266C4.75586 5.52344 4.66016 5.87435 4.66016 6.27539C4.66016 6.74935 4.79688 7.15039 5.07031 7.47852C5.35286 7.79753 5.77214 8.10742 6.32812 8.4082C6.89323 8.70898 7.59505 9.0599 8.43359 9.46094C9.45443 9.94401 10.3249 10.4499 11.0449 10.9785C11.7741 11.498 12.3346 12.1133 12.7266 12.8242C13.1185 13.526 13.3145 14.401 13.3145 15.4492ZM25.4277 4.25195C24.6165 4.25195 23.8965 4.41146 23.2676 4.73047C22.6478 5.04036 22.1237 5.49154 21.6953 6.08398C21.276 6.67643 20.957 7.39193 20.7383 8.23047C20.5195 9.06901 20.4102 10.0124 20.4102 11.0605C20.4102 12.4733 20.5833 13.681 20.9297 14.6836C21.2852 15.6771 21.832 16.4382 22.5703 16.9668C23.3086 17.4863 24.2611 17.7461 25.4277 17.7461C26.2389 17.7461 27.0501 17.6549 27.8613 17.4727C28.6816 17.2904 29.5703 17.0306 30.5273 16.6934V20.248C29.6432 20.6126 28.7728 20.8724 27.916 21.0273C27.0592 21.1914 26.0977 21.2734 25.0312 21.2734C22.9714 21.2734 21.276 20.8496 19.9453 20.002C18.6237 19.1452 17.6439 17.9512 17.0059 16.4199C16.3678 14.8796 16.0488 13.084 16.0488 11.0332C16.0488 9.52018 16.2539 8.13477 16.6641 6.87695C17.0742 5.61914 17.6758 4.52995 18.4688 3.60938C19.2617 2.6888 20.2415 1.97786 21.4082 1.47656C22.5749 0.97526 23.9147 0.724609 25.4277 0.724609C26.4212 0.724609 27.4147 0.852214 28.4082 1.10742C29.4108 1.35352 30.3678 1.69531 31.2793 2.13281L29.9121 5.57812C29.1647 5.22266 28.4128 4.91276 27.6562 4.64844C26.8997 4.38411 26.1569 4.25195 25.4277 4.25195ZM52.9355 10.9785C52.9355 12.5189 52.7441 13.9225 52.3613 15.1895C51.9785 16.4473 51.3952 17.5319 50.6113 18.4434C49.8366 19.3548 48.8522 20.0566 47.6582 20.5488C46.4642 21.0319 45.0514 21.2734 43.4199 21.2734C41.7884 21.2734 40.3757 21.0319 39.1816 20.5488C37.9876 20.0566 36.9987 19.3548 36.2148 18.4434C35.4401 17.5319 34.8613 16.4427 34.4785 15.1758C34.0957 13.9089 33.9043 12.5007 33.9043 10.9512C33.9043 8.88216 34.2415 7.08203 34.916 5.55078C35.5996 4.01042 36.6478 2.81641 38.0605 1.96875C39.4733 1.12109 41.2689 0.697266 43.4473 0.697266C45.6165 0.697266 47.3984 1.12109 48.793 1.96875C50.1966 2.81641 51.2357 4.01042 51.9102 5.55078C52.5938 7.09115 52.9355 8.90039 52.9355 10.9785ZM38.3477 10.9785C38.3477 12.373 38.5208 13.5762 38.8672 14.5879C39.2227 15.5905 39.7741 16.3652 40.5215 16.9121C41.2689 17.4499 42.235 17.7188 43.4199 17.7188C44.623 17.7188 45.5983 17.4499 46.3457 16.9121C47.0931 16.3652 47.6354 15.5905 47.9727 14.5879C48.319 13.5762 48.4922 12.373 48.4922 10.9785C48.4922 8.88216 48.1003 7.23242 47.3164 6.0293C46.5326 4.82617 45.2428 4.22461 43.4473 4.22461C42.2533 4.22461 41.278 4.49805 40.5215 5.04492C39.7741 5.58268 39.2227 6.35742 38.8672 7.36914C38.5208 8.37174 38.3477 9.57487 38.3477 10.9785ZM65.541 21L60.7285 5.31836H60.6055C60.6237 5.69206 60.651 6.25716 60.6875 7.01367C60.7331 7.76107 60.7741 8.55859 60.8105 9.40625C60.847 10.2539 60.8652 11.0195 60.8652 11.7031V21H57.0781V1.01172H62.8477L67.5781 16.2969H67.6602L72.6777 1.01172H78.4473V21H74.4961V11.5391C74.4961 10.9102 74.5052 10.1855 74.5234 9.36523C74.5508 8.54492 74.5827 7.76562 74.6191 7.02734C74.6556 6.27995 74.6829 5.7194 74.7012 5.3457H74.5781L69.4238 21H65.541ZM90.7656 1.01172H96.9863C99.6478 1.01172 101.662 1.38542 103.029 2.13281C104.396 2.88021 105.08 4.19271 105.08 6.07031C105.08 6.82682 104.957 7.51042 104.711 8.12109C104.474 8.73177 104.128 9.23307 103.672 9.625C103.216 10.0169 102.66 10.2721 102.004 10.3906V10.5273C102.669 10.6641 103.271 10.901 103.809 11.2383C104.346 11.5664 104.775 12.0495 105.094 12.6875C105.422 13.3164 105.586 14.1549 105.586 15.2031C105.586 16.4154 105.29 17.4544 104.697 18.3203C104.105 19.1862 103.257 19.8516 102.154 20.3164C101.061 20.7721 99.7572 21 98.2441 21H90.7656V1.01172ZM95.0039 8.92773H97.4648C98.6953 8.92773 99.5475 8.73633 100.021 8.35352C100.495 7.96159 100.732 7.38737 100.732 6.63086C100.732 5.86523 100.45 5.31836 99.8848 4.99023C99.3288 4.65299 98.4447 4.48438 97.2324 4.48438H95.0039V8.92773ZM95.0039 12.291V17.5H97.7656C99.0417 17.5 99.9303 17.2539 100.432 16.7617C100.933 16.2695 101.184 15.6087 101.184 14.7793C101.184 14.2871 101.074 13.8542 100.855 13.4805C100.637 13.1068 100.268 12.8151 99.748 12.6055C99.2376 12.3958 98.5312 12.291 97.6289 12.291H95.0039ZM121.814 21L120.365 16.2422H113.078L111.629 21H107.062L114.117 0.929688H119.299L126.381 21H121.814ZM119.354 12.6875L117.904 8.03906C117.813 7.72917 117.69 7.33268 117.535 6.84961C117.389 6.35742 117.239 5.86068 117.084 5.35938C116.938 4.84896 116.82 4.4069 116.729 4.0332C116.637 4.4069 116.51 4.87174 116.346 5.42773C116.191 5.97461 116.04 6.49414 115.895 6.98633C115.749 7.47852 115.644 7.82943 115.58 8.03906L114.145 12.6875H119.354ZM140.709 15.4492C140.709 16.6341 140.422 17.6641 139.848 18.5391C139.273 19.4141 138.435 20.0885 137.332 20.5625C136.238 21.0365 134.908 21.2734 133.34 21.2734C132.647 21.2734 131.968 21.2279 131.303 21.1367C130.646 21.0456 130.013 20.9134 129.402 20.7402C128.801 20.5579 128.227 20.3346 127.68 20.0703V16.1328C128.628 16.5521 129.612 16.9303 130.633 17.2676C131.654 17.6048 132.665 17.7734 133.668 17.7734C134.361 17.7734 134.917 17.6823 135.336 17.5C135.764 17.3177 136.074 17.0671 136.266 16.748C136.457 16.429 136.553 16.0645 136.553 15.6543C136.553 15.153 136.384 14.7246 136.047 14.3691C135.71 14.0137 135.245 13.681 134.652 13.3711C134.069 13.0612 133.408 12.7285 132.67 12.373C132.205 12.1543 131.699 11.89 131.152 11.5801C130.605 11.2611 130.086 10.8737 129.594 10.418C129.102 9.96224 128.696 9.41081 128.377 8.76367C128.067 8.10742 127.912 7.32357 127.912 6.41211C127.912 5.2181 128.186 4.19727 128.732 3.34961C129.279 2.50195 130.059 1.85482 131.07 1.4082C132.091 0.952474 133.294 0.724609 134.68 0.724609C135.719 0.724609 136.708 0.847656 137.646 1.09375C138.594 1.33073 139.583 1.67708 140.613 2.13281L139.246 5.42773C138.326 5.05404 137.501 4.76693 136.771 4.56641C136.042 4.35677 135.299 4.25195 134.543 4.25195C134.014 4.25195 133.563 4.33854 133.189 4.51172C132.816 4.67578 132.533 4.91276 132.342 5.22266C132.15 5.52344 132.055 5.87435 132.055 6.27539C132.055 6.74935 132.191 7.15039 132.465 7.47852C132.747 7.79753 133.167 8.10742 133.723 8.4082C134.288 8.70898 134.99 9.0599 135.828 9.46094C136.849 9.94401 137.719 10.4499 138.439 10.9785C139.169 11.498 139.729 12.1133 140.121 12.8242C140.513 13.526 140.709 14.401 140.709 15.4492ZM144.332 21V1.01172H148.57V21H144.332ZM162.092 4.25195C161.281 4.25195 160.561 4.41146 159.932 4.73047C159.312 5.04036 158.788 5.49154 158.359 6.08398C157.94 6.67643 157.621 7.39193 157.402 8.23047C157.184 9.06901 157.074 10.0124 157.074 11.0605C157.074 12.4733 157.247 13.681 157.594 14.6836C157.949 15.6771 158.496 16.4382 159.234 16.9668C159.973 17.4863 160.925 17.7461 162.092 17.7461C162.903 17.7461 163.714 17.6549 164.525 17.4727C165.346 17.2904 166.234 17.0306 167.191 16.6934V20.248C166.307 20.6126 165.437 20.8724 164.58 21.0273C163.723 21.1914 162.762 21.2734 161.695 21.2734C159.635 21.2734 157.94 20.8496 156.609 20.002C155.288 19.1452 154.308 17.9512 153.67 16.4199C153.032 14.8796 152.713 13.084 152.713 11.0332C152.713 9.52018 152.918 8.13477 153.328 6.87695C153.738 5.61914 154.34 4.52995 155.133 3.60938C155.926 2.6888 156.906 1.97786 158.072 1.47656C159.239 0.97526 160.579 0.724609 162.092 0.724609C163.085 0.724609 164.079 0.852214 165.072 1.10742C166.075 1.35352 167.032 1.69531 167.943 2.13281L166.576 5.57812C165.829 5.22266 165.077 4.91276 164.32 4.64844C163.564 4.38411 162.821 4.25195 162.092 4.25195ZM186.441 21H182.203V4.53906H176.775V1.01172H191.869V4.53906H186.441V21ZM207.182 21L205.732 16.2422H198.445L196.996 21H192.43L199.484 0.929688H204.666L211.748 21H207.182ZM204.721 12.6875L203.271 8.03906C203.18 7.72917 203.057 7.33268 202.902 6.84961C202.757 6.35742 202.606 5.86068 202.451 5.35938C202.305 4.84896 202.187 4.4069 202.096 4.0332C202.005 4.4069 201.877 4.87174 201.713 5.42773C201.558 5.97461 201.408 6.49414 201.262 6.98633C201.116 7.47852 201.011 7.82943 200.947 8.03906L199.512 12.6875H204.721ZM220.102 1.01172C221.915 1.01172 223.41 1.23047 224.586 1.66797C225.771 2.10547 226.65 2.76628 227.225 3.65039C227.799 4.53451 228.086 5.65104 228.086 7C228.086 7.91146 227.913 8.70898 227.566 9.39258C227.22 10.0762 226.764 10.6549 226.199 11.1289C225.634 11.6029 225.023 11.9902 224.367 12.291L230.246 21H225.543L220.771 13.3301H218.516V21H214.277V1.01172H220.102ZM219.801 4.48438H218.516V9.88477H219.883C221.286 9.88477 222.289 9.65234 222.891 9.1875C223.501 8.71354 223.807 8.02083 223.807 7.10938C223.807 6.16146 223.479 5.48698 222.822 5.08594C222.175 4.6849 221.168 4.48438 219.801 4.48438ZM232.762 21V1.01172H237V21H232.762ZM246.201 21H242.031V1.01172H253.488V4.48438H246.201V9.63867H252.982V13.0977H246.201V21ZM261.568 21H257.398V1.01172H268.855V4.48438H261.568V9.63867H268.35V13.0977H261.568V21ZM278.645 13.3301C278.645 11.8079 278.79 10.3223 279.082 8.87305C279.374 7.41471 279.825 6.02474 280.436 4.70312C281.046 3.3724 281.821 2.14193 282.76 1.01172H286.178C284.902 2.76172 283.931 4.69401 283.266 6.80859C282.609 8.92318 282.281 11.0879 282.281 13.3027C282.281 14.7428 282.427 16.1784 282.719 17.6094C283.01 19.0312 283.443 20.403 284.018 21.7246C284.601 23.0462 285.312 24.2812 286.15 25.4297H282.76C281.821 24.3359 281.046 23.1374 280.436 21.834C279.825 20.5397 279.374 19.1771 279.082 17.7461C278.79 16.306 278.645 14.834 278.645 13.3301ZM301.764 21L300.314 16.2422H293.027L291.578 21H287.012L294.066 0.929688H299.248L306.33 21H301.764ZM299.303 12.6875L297.854 8.03906C297.762 7.72917 297.639 7.33268 297.484 6.84961C297.339 6.35742 297.188 5.86068 297.033 5.35938C296.887 4.84896 296.769 4.4069 296.678 4.0332C296.587 4.4069 296.459 4.87174 296.295 5.42773C296.14 5.97461 295.99 6.49414 295.844 6.98633C295.698 7.47852 295.593 7.82943 295.529 8.03906L294.094 12.6875H299.303ZM306.768 26.8789C306.221 26.8789 305.742 26.847 305.332 26.7832C304.913 26.7285 304.557 26.6602 304.266 26.5781V23.0508C304.557 23.1146 304.872 23.1738 305.209 23.2285C305.537 23.2923 305.888 23.3242 306.262 23.3242C306.754 23.3242 307.196 23.2285 307.588 23.0371C307.98 22.8548 308.29 22.5039 308.518 21.9844C308.745 21.4648 308.859 20.7174 308.859 19.7422V1.01172H313.098V19.7148C313.098 21.4284 312.829 22.8092 312.291 23.8574C311.762 24.9147 311.02 25.6803 310.062 26.1543C309.115 26.6374 308.016 26.8789 306.768 26.8789ZM324.295 0.724609C325.37 0.724609 326.327 0.893229 327.166 1.23047C328.005 1.56771 328.665 2.0599 329.148 2.70703C329.641 3.35417 329.887 4.14258 329.887 5.07227C329.887 6.35742 329.504 7.4375 328.738 8.3125C327.982 9.1875 327.034 9.95312 325.895 10.6094L329.777 14.3965C330.16 13.7676 330.484 13.1022 330.748 12.4004C331.021 11.6986 331.258 10.9922 331.459 10.2812H335.807C335.524 11.3294 335.109 12.4505 334.562 13.6445C334.025 14.8294 333.337 15.946 332.498 16.9941L336.613 21H331.459L329.887 19.4551C329.349 19.8288 328.77 20.1523 328.15 20.4258C327.54 20.6992 326.883 20.9089 326.182 21.0547C325.489 21.2005 324.755 21.2734 323.98 21.2734C322.467 21.2734 321.169 21.0365 320.084 20.5625C318.999 20.0885 318.17 19.4277 317.596 18.5801C317.021 17.7233 316.734 16.7298 316.734 15.5996C316.734 14.6517 316.88 13.8405 317.172 13.166C317.464 12.4824 317.883 11.8854 318.43 11.375C318.977 10.8555 319.633 10.377 320.398 9.93945C319.915 9.37435 319.528 8.8457 319.236 8.35352C318.954 7.86133 318.749 7.3737 318.621 6.89062C318.503 6.39844 318.443 5.88346 318.443 5.3457C318.443 4.39779 318.689 3.58203 319.182 2.89844C319.683 2.20573 320.371 1.67253 321.246 1.29883C322.13 0.916016 323.146 0.724609 324.295 0.724609ZM322.832 12.4277C322.486 12.6921 322.18 12.9655 321.916 13.248C321.661 13.5306 321.465 13.8314 321.328 14.1504C321.191 14.4694 321.123 14.8203 321.123 15.2031C321.123 16.0052 321.424 16.6341 322.025 17.0898C322.627 17.5456 323.374 17.7734 324.268 17.7734C324.869 17.7734 325.43 17.7005 325.949 17.5547C326.469 17.4089 326.943 17.2038 327.371 16.9395L322.832 12.4277ZM324.268 3.95117C323.803 3.95117 323.356 4.06966 322.928 4.30664C322.508 4.54362 322.299 4.98568 322.299 5.63281C322.299 6.08854 322.417 6.53516 322.654 6.97266C322.891 7.40104 323.206 7.83854 323.598 8.28516C324.382 7.85677 324.983 7.42839 325.402 7C325.822 6.5625 326.031 6.06576 326.031 5.50977C326.031 4.95378 325.84 4.55729 325.457 4.32031C325.083 4.07422 324.687 3.95117 324.268 3.95117ZM355.207 21H350.395L345.158 12.5781L343.367 13.8633V21H339.129V1.01172H343.367V10.1582C343.65 9.76628 343.928 9.37435 344.201 8.98242C344.475 8.59049 344.753 8.19857 345.035 7.80664L350.449 1.01172H355.152L348.18 9.85742L355.207 21ZM366.637 1.01172L359.186 21H355.398L362.85 1.01172H366.637ZM376.877 9.77539H384.807V20.1387C383.758 20.485 382.669 20.763 381.539 20.9727C380.409 21.1732 379.128 21.2734 377.697 21.2734C375.71 21.2734 374.024 20.8815 372.639 20.0977C371.253 19.3138 370.201 18.1562 369.48 16.625C368.76 15.0938 368.4 13.2116 368.4 10.9785C368.4 8.88216 368.801 7.06836 369.604 5.53711C370.415 4.00586 371.595 2.82096 373.145 1.98242C374.703 1.14388 376.604 0.724609 378.846 0.724609C379.903 0.724609 380.947 0.838542 381.977 1.06641C383.007 1.29427 383.941 1.59049 384.779 1.95508L383.371 5.3457C382.76 5.03581 382.063 4.77604 381.279 4.56641C380.495 4.35677 379.675 4.25195 378.818 4.25195C377.588 4.25195 376.517 4.53451 375.605 5.09961C374.703 5.66471 374.001 6.45768 373.5 7.47852C373.008 8.49023 372.762 9.68424 372.762 11.0605C372.762 12.3639 372.939 13.5215 373.295 14.5332C373.65 15.5358 374.211 16.3242 374.977 16.8984C375.742 17.4635 376.74 17.7461 377.971 17.7461C378.572 17.7461 379.078 17.7188 379.488 17.6641C379.908 17.6003 380.299 17.5365 380.664 17.4727V13.3027H376.877V9.77539ZM389.578 1.01172H395.799C398.46 1.01172 400.475 1.38542 401.842 2.13281C403.209 2.88021 403.893 4.19271 403.893 6.07031C403.893 6.82682 403.77 7.51042 403.523 8.12109C403.286 8.73177 402.94 9.23307 402.484 9.625C402.029 10.0169 401.473 10.2721 400.816 10.3906V10.5273C401.482 10.6641 402.083 10.901 402.621 11.2383C403.159 11.5664 403.587 12.0495 403.906 12.6875C404.234 13.3164 404.398 14.1549 404.398 15.2031C404.398 16.4154 404.102 17.4544 403.51 18.3203C402.917 19.1862 402.07 19.8516 400.967 20.3164C399.873 20.7721 398.57 21 397.057 21H389.578V1.01172ZM393.816 8.92773H396.277C397.508 8.92773 398.36 8.73633 398.834 8.35352C399.308 7.96159 399.545 7.38737 399.545 6.63086C399.545 5.86523 399.262 5.31836 398.697 4.99023C398.141 4.65299 397.257 4.48438 396.045 4.48438H393.816V8.92773ZM393.816 12.291V17.5H396.578C397.854 17.5 398.743 17.2539 399.244 16.7617C399.745 16.2695 399.996 15.6087 399.996 14.7793C399.996 14.2871 399.887 13.8542 399.668 13.4805C399.449 13.1068 399.08 12.8151 398.561 12.6055C398.05 12.3958 397.344 12.291 396.441 12.291H393.816ZM414.242 13.3301C414.242 14.834 414.096 16.306 413.805 17.7461C413.513 19.1771 413.062 20.5397 412.451 21.834C411.85 23.1374 411.075 24.3359 410.127 25.4297H406.736C407.584 24.2812 408.295 23.0462 408.869 21.7246C409.443 20.403 409.876 19.0312 410.168 17.6094C410.46 16.1784 410.605 14.7428 410.605 13.3027C410.605 11.8262 410.455 10.3678 410.154 8.92773C409.863 7.48763 409.43 6.10221 408.855 4.77148C408.281 3.43164 407.566 2.17839 406.709 1.01172H410.127C411.075 2.14193 411.85 3.3724 412.451 4.70312C413.062 6.02474 413.513 7.41471 413.805 8.87305C414.096 10.3223 414.242 11.8079 414.242 13.3301Z" fill="#197745"/>
</svg>
