<svg width="265" height="281" viewBox="0 0 265 281" fill="none" xmlns="http://www.w3.org/2000/svg">
<rect x="0.304688" y="0.0625" width="263.945" height="280.938" rx="10" fill="white"/>
<path d="M13.3262 21.5557C13.3262 20.7855 13.3991 20.0358 13.5449 19.3066C13.6953 18.5775 13.9232 17.8825 14.2285 17.2217C14.5339 16.5609 14.9189 15.9525 15.3838 15.3965H16.4707C15.8099 16.2624 15.3132 17.224 14.9805 18.2812C14.6478 19.3385 14.4814 20.4255 14.4814 21.542C14.4814 22.2712 14.5544 22.9912 14.7002 23.7021C14.8506 24.4085 15.0716 25.0898 15.3633 25.7461C15.6595 26.4023 16.0241 27.0221 16.457 27.6055H15.3838C14.9189 27.0586 14.5339 26.4616 14.2285 25.8145C13.9232 25.1719 13.6953 24.4906 13.5449 23.7705C13.3991 23.0505 13.3262 22.3122 13.3262 21.5557ZM24.5303 25.3906L23.2998 22.2188H19.2939L18.0703 25.3906H16.8945L20.8047 15.3555H21.8506L25.7334 25.3906H24.5303ZM22.9512 21.1865L21.7822 18.0352C21.7549 17.9531 21.7093 17.8187 21.6455 17.6318C21.5863 17.445 21.5247 17.2513 21.4609 17.0508C21.3971 16.8503 21.3447 16.6885 21.3037 16.5654C21.2581 16.7523 21.208 16.9391 21.1533 17.126C21.1032 17.3083 21.0531 17.4792 21.0029 17.6387C20.9528 17.7936 20.9095 17.9258 20.873 18.0352L19.6836 21.1865H22.9512ZM25.6787 28.0225C25.4508 28.0225 25.2503 28.0065 25.0771 27.9746C24.904 27.9427 24.7559 27.8994 24.6328 27.8447V26.8535C24.7786 26.8991 24.9359 26.9333 25.1045 26.9561C25.2731 26.9834 25.4554 26.9971 25.6514 26.9971C25.9066 26.9971 26.1413 26.9469 26.3555 26.8467C26.5697 26.7464 26.7406 26.5755 26.8682 26.334C26.9958 26.0924 27.0596 25.7598 27.0596 25.3359V15.3965H28.2285V25.2471C28.2285 25.8714 28.1237 26.3887 27.9141 26.7988C27.709 27.209 27.415 27.5143 27.0322 27.7148C26.654 27.9199 26.2028 28.0225 25.6787 28.0225ZM33.7725 15.2393C34.2646 15.2393 34.6885 15.3258 35.0439 15.499C35.404 15.6676 35.6797 15.9115 35.8711 16.2305C36.0671 16.5495 36.165 16.9346 36.165 17.3857C36.165 17.9782 35.9714 18.4795 35.584 18.8896C35.2012 19.2998 34.7135 19.6735 34.1211 20.0107L36.8965 22.7041C37.1471 22.4124 37.3522 22.0752 37.5117 21.6924C37.6712 21.305 37.8057 20.8857 37.915 20.4346H39.0635C38.9176 21.0361 38.7285 21.5898 38.4961 22.0957C38.2682 22.6016 37.9811 23.0459 37.6348 23.4287L39.6377 25.3906H38.0996L36.8623 24.1807C36.5706 24.4495 36.2562 24.6865 35.9189 24.8916C35.5863 25.0921 35.2148 25.2493 34.8047 25.3633C34.3991 25.4727 33.9342 25.5273 33.4102 25.5273C32.7721 25.5273 32.2184 25.4225 31.749 25.2129C31.2796 25.0033 30.915 24.6956 30.6553 24.29C30.4001 23.8844 30.2725 23.3877 30.2725 22.7998C30.2725 22.3167 30.3613 21.902 30.5391 21.5557C30.7168 21.2093 30.9697 20.9017 31.2979 20.6328C31.626 20.3639 32.0179 20.1019 32.4736 19.8467C32.2594 19.6097 32.0566 19.3704 31.8652 19.1289C31.6738 18.8828 31.5189 18.6208 31.4004 18.3428C31.2819 18.0602 31.2227 17.7503 31.2227 17.4131C31.2227 16.9574 31.3252 16.5677 31.5303 16.2441C31.7399 15.9206 32.0339 15.6722 32.4121 15.499C32.7949 15.3258 33.2484 15.2393 33.7725 15.2393ZM33.1572 20.5645C32.8018 20.7695 32.4964 20.9723 32.2412 21.1729C31.9906 21.3734 31.7969 21.599 31.6602 21.8496C31.528 22.1003 31.4619 22.4033 31.4619 22.7588C31.4619 23.292 31.6419 23.7204 32.002 24.0439C32.362 24.363 32.8428 24.5225 33.4443 24.5225C34.0641 24.5225 34.5905 24.4199 35.0234 24.2148C35.4609 24.0098 35.8324 23.7614 36.1377 23.4697L33.1572 20.5645ZM33.7314 16.1758C33.3167 16.1758 32.9795 16.2852 32.7197 16.5039C32.4645 16.7181 32.3369 17.0189 32.3369 17.4062C32.3369 17.7526 32.4303 18.0716 32.6172 18.3633C32.804 18.6549 33.0706 18.9785 33.417 19.334C33.9867 19.0195 34.3991 18.7165 34.6543 18.4248C34.9141 18.1286 35.0439 17.7822 35.0439 17.3857C35.0439 17.0257 34.9232 16.734 34.6816 16.5107C34.4447 16.2874 34.1279 16.1758 33.7314 16.1758ZM48.2852 25.3906H46.9111L43.3086 20.5303L42.2422 21.4873V25.3906H41.0801V15.3965H42.2422V20.3799C42.502 20.0837 42.7686 19.7897 43.042 19.498C43.3154 19.2018 43.5866 18.9033 43.8555 18.6025L46.7744 15.3965H48.1348L44.1562 19.7305L48.2852 25.3906ZM56.3789 19.9902H59.1953V20.9199H56.3789V23.8184H55.4424V20.9199H52.626V19.9902H55.4424V17.0781H56.3789V19.9902ZM65.5732 20.1543H69.0664V25.001C68.5423 25.1787 68.0023 25.3109 67.4463 25.3975C66.8949 25.484 66.2773 25.5273 65.5938 25.5273C64.5547 25.5273 63.6774 25.32 62.9619 24.9053C62.251 24.4906 61.7109 23.9004 61.3418 23.1348C60.9727 22.3646 60.7881 21.4508 60.7881 20.3936C60.7881 19.359 60.9909 18.4567 61.3965 17.6865C61.8066 16.9163 62.3968 16.3193 63.167 15.8955C63.9417 15.4671 64.8714 15.2529 65.9561 15.2529C66.512 15.2529 67.0384 15.3053 67.5352 15.4102C68.0365 15.5104 68.5013 15.654 68.9297 15.8408L68.4854 16.8525C68.1162 16.693 67.7083 16.5563 67.2617 16.4424C66.8197 16.3285 66.3617 16.2715 65.8877 16.2715C65.0719 16.2715 64.3724 16.4401 63.7891 16.7773C63.2103 17.1146 62.766 17.5908 62.4561 18.2061C62.1507 18.8213 61.998 19.5505 61.998 20.3936C61.998 21.2275 62.1325 21.9544 62.4014 22.5742C62.6702 23.1895 63.0895 23.668 63.6592 24.0098C64.2288 24.3516 64.9626 24.5225 65.8604 24.5225C66.3115 24.5225 66.6989 24.4974 67.0225 24.4473C67.346 24.3926 67.64 24.3288 67.9043 24.2559V21.1934H65.5732V20.1543ZM71.4863 15.3965H74.3164C75.5651 15.3965 76.5039 15.5833 77.1328 15.957C77.7617 16.3307 78.0762 16.9665 78.0762 17.8643C78.0762 18.2516 78.001 18.6003 77.8506 18.9102C77.7048 19.2155 77.4906 19.4684 77.208 19.6689C76.9255 19.8695 76.5768 20.0085 76.1621 20.0859V20.1543C76.5996 20.2227 76.987 20.348 77.3242 20.5303C77.6615 20.7126 77.9258 20.9678 78.1172 21.2959C78.3086 21.624 78.4043 22.041 78.4043 22.5469C78.4043 23.1621 78.2607 23.6816 77.9736 24.1055C77.6911 24.5293 77.29 24.8506 76.7705 25.0693C76.251 25.2835 75.6357 25.3906 74.9248 25.3906H71.4863V15.3965ZM72.6484 19.6826H74.5625C75.4329 19.6826 76.0345 19.5391 76.3672 19.252C76.7044 18.9648 76.873 18.5456 76.873 17.9941C76.873 17.4245 76.6725 17.0143 76.2715 16.7637C75.875 16.513 75.2415 16.3877 74.3711 16.3877H72.6484V19.6826ZM72.6484 20.6602V24.3994H74.7266C75.6152 24.3994 76.2441 24.2262 76.6133 23.8799C76.9824 23.529 77.167 23.0573 77.167 22.4648C77.167 22.0866 77.0827 21.763 76.9141 21.4941C76.75 21.2253 76.4811 21.0202 76.1074 20.8789C75.7383 20.7331 75.2438 20.6602 74.624 20.6602H72.6484ZM82.7383 21.542C82.7383 22.3031 82.6631 23.0459 82.5127 23.7705C82.3669 24.4906 82.1413 25.1742 81.8359 25.8213C81.5352 26.4684 81.1501 27.0632 80.6807 27.6055H79.6074C80.0449 27.0267 80.4095 26.4069 80.7012 25.7461C80.9974 25.0853 81.2184 24.4017 81.3643 23.6953C81.5146 22.9844 81.5898 22.2643 81.5898 21.5352C81.5898 20.7923 81.5146 20.0609 81.3643 19.3408C81.2139 18.6208 80.9906 17.9281 80.6943 17.2627C80.4027 16.5973 80.0358 15.9753 79.5938 15.3965H80.6807C81.1501 15.957 81.5352 16.5677 81.8359 17.2285C82.1413 17.8848 82.3669 18.5775 82.5127 19.3066C82.6631 20.0312 82.7383 20.7764 82.7383 21.542Z" fill="#007643"/>
<path d="M21.1953 46.3906L20.3672 43.6719H16.2031L15.375 46.3906H12.7656L16.7969 34.9219H19.7578L23.8047 46.3906H21.1953ZM19.7891 41.6406L18.9609 38.9844C18.9089 38.8073 18.8385 38.5807 18.75 38.3047C18.6667 38.0234 18.5807 37.7396 18.4922 37.4531C18.4089 37.1615 18.3411 36.9089 18.2891 36.6953C18.237 36.9089 18.1641 37.1745 18.0703 37.4922C17.9818 37.8047 17.8958 38.1016 17.8125 38.3828C17.7292 38.6641 17.6693 38.8646 17.6328 38.9844L16.8125 41.6406H19.7891ZM31.1406 46.3906H24.2422V44.9844L28.2891 39.4766H24.4844V37.6562H31V39.2031L27.0625 44.5703H31.1406V46.3906ZM36.4531 37.4766C37.625 37.4766 38.5234 37.7318 39.1484 38.2422C39.7734 38.7526 40.0859 39.5286 40.0859 40.5703V46.3906H38.4219L37.9609 45.2031H37.8984C37.6484 45.5156 37.3932 45.7708 37.1328 45.9688C36.8724 46.1667 36.5729 46.3125 36.2344 46.4062C35.8958 46.5 35.4844 46.5469 35 46.5469C34.4844 46.5469 34.0208 46.4479 33.6094 46.25C33.2031 46.0521 32.8828 45.75 32.6484 45.3438C32.4141 44.9323 32.2969 44.4115 32.2969 43.7812C32.2969 42.8542 32.6224 42.1719 33.2734 41.7344C33.9245 41.2917 34.901 41.0469 36.2031 41L37.7188 40.9531V40.5703C37.7188 40.112 37.599 39.776 37.3594 39.5625C37.1198 39.349 36.7865 39.2422 36.3594 39.2422C35.9375 39.2422 35.5234 39.3021 35.1172 39.4219C34.7109 39.5417 34.3047 39.6927 33.8984 39.875L33.1094 38.2656C33.5729 38.0208 34.0911 37.8281 34.6641 37.6875C35.2422 37.5469 35.8385 37.4766 36.4531 37.4766ZM37.7188 42.3438L36.7969 42.375C36.026 42.3958 35.4896 42.5339 35.1875 42.7891C34.8906 43.0443 34.7422 43.3802 34.7422 43.7969C34.7422 44.1615 34.849 44.4219 35.0625 44.5781C35.276 44.7292 35.5547 44.8047 35.8984 44.8047C36.4089 44.8047 36.8385 44.6536 37.1875 44.3516C37.5417 44.0495 37.7188 43.6198 37.7188 43.0625V42.3438ZM45.3125 46.5469C44.3385 46.5469 43.5443 46.1667 42.9297 45.4062C42.3203 44.6406 42.0156 43.5182 42.0156 42.0391C42.0156 40.5443 42.3255 39.4141 42.9453 38.6484C43.5651 37.8776 44.375 37.4922 45.375 37.4922C45.7917 37.4922 46.1589 37.5495 46.4766 37.6641C46.7943 37.7786 47.0677 37.9323 47.2969 38.125C47.5312 38.3177 47.7292 38.5339 47.8906 38.7734H47.9688C47.9375 38.6068 47.8984 38.362 47.8516 38.0391C47.8099 37.7109 47.7891 37.375 47.7891 37.0312V34.2344H50.1797V46.3906H48.3516L47.8906 45.2578H47.7891C47.638 45.4974 47.4479 45.7161 47.2188 45.9141C46.9948 46.1068 46.7266 46.2604 46.4141 46.375C46.1016 46.4896 45.7344 46.5469 45.3125 46.5469ZM46.1484 44.6484C46.7995 44.6484 47.2578 44.4557 47.5234 44.0703C47.7943 43.6797 47.9375 43.0938 47.9531 42.3125V42.0547C47.9531 41.2057 47.8229 40.5573 47.5625 40.1094C47.3021 39.6562 46.8177 39.4297 46.1094 39.4297C45.5833 39.4297 45.1719 39.6562 44.875 40.1094C44.5781 40.5625 44.4297 41.2161 44.4297 42.0703C44.4297 42.9245 44.5781 43.5677 44.875 44C45.1771 44.4323 45.6016 44.6484 46.1484 44.6484ZM55.0547 37.6562V46.3906H52.6719V37.6562H55.0547ZM53.8672 34.2344C54.2214 34.2344 54.526 34.3177 54.7812 34.4844C55.0365 34.6458 55.1641 34.9505 55.1641 35.3984C55.1641 35.8411 55.0365 36.1484 54.7812 36.3203C54.526 36.487 54.2214 36.5703 53.8672 36.5703C53.5078 36.5703 53.2005 36.487 52.9453 36.3203C52.6953 36.1484 52.5703 35.8411 52.5703 35.3984C52.5703 34.9505 52.6953 34.6458 52.9453 34.4844C53.2005 34.3177 53.5078 34.2344 53.8672 34.2344ZM65.5547 34.9688C67.0286 34.9688 68.1042 35.2865 68.7812 35.9219C69.4583 36.5521 69.7969 37.4219 69.7969 38.5312C69.7969 39.0312 69.7214 39.5104 69.5703 39.9688C69.4193 40.4219 69.1719 40.8255 68.8281 41.1797C68.4896 41.5339 68.0365 41.8151 67.4688 42.0234C66.901 42.2266 66.2005 42.3281 65.3672 42.3281H64.3281V46.3906H61.9062V34.9688H65.5547ZM65.4297 36.9531H64.3281V40.3438H65.125C65.5781 40.3438 65.9714 40.2839 66.3047 40.1641C66.638 40.0443 66.8958 39.8568 67.0781 39.6016C67.2604 39.3464 67.3516 39.0182 67.3516 38.6172C67.3516 38.0547 67.1953 37.638 66.8828 37.3672C66.5703 37.0911 66.0859 36.9531 65.4297 36.9531ZM75.3438 37.4766C76.5156 37.4766 77.4141 37.7318 78.0391 38.2422C78.6641 38.7526 78.9766 39.5286 78.9766 40.5703V46.3906H77.3125L76.8516 45.2031H76.7891C76.5391 45.5156 76.2839 45.7708 76.0234 45.9688C75.763 46.1667 75.4635 46.3125 75.125 46.4062C74.7865 46.5 74.375 46.5469 73.8906 46.5469C73.375 46.5469 72.9115 46.4479 72.5 46.25C72.0938 46.0521 71.7734 45.75 71.5391 45.3438C71.3047 44.9323 71.1875 44.4115 71.1875 43.7812C71.1875 42.8542 71.513 42.1719 72.1641 41.7344C72.8151 41.2917 73.7917 41.0469 75.0938 41L76.6094 40.9531V40.5703C76.6094 40.112 76.4896 39.776 76.25 39.5625C76.0104 39.349 75.6771 39.2422 75.25 39.2422C74.8281 39.2422 74.4141 39.3021 74.0078 39.4219C73.6016 39.5417 73.1953 39.6927 72.7891 39.875L72 38.2656C72.4635 38.0208 72.9818 37.8281 73.5547 37.6875C74.1328 37.5469 74.7292 37.4766 75.3438 37.4766ZM76.6094 42.3438L75.6875 42.375C74.9167 42.3958 74.3802 42.5339 74.0781 42.7891C73.7812 43.0443 73.6328 43.3802 73.6328 43.7969C73.6328 44.1615 73.7396 44.4219 73.9531 44.5781C74.1667 44.7292 74.4453 44.8047 74.7891 44.8047C75.2995 44.8047 75.7292 44.6536 76.0781 44.3516C76.4323 44.0495 76.6094 43.6198 76.6094 43.0625V42.3438ZM84.9844 46.5469C84.1198 46.5469 83.3828 46.3906 82.7734 46.0781C82.1641 45.7604 81.7005 45.2708 81.3828 44.6094C81.0651 43.9479 80.9062 43.1016 80.9062 42.0703C80.9062 41.0026 81.0859 40.1328 81.4453 39.4609C81.8099 38.7839 82.3125 38.2865 82.9531 37.9688C83.599 37.651 84.3464 37.4922 85.1953 37.4922C85.7995 37.4922 86.3203 37.5521 86.7578 37.6719C87.2005 37.7865 87.5859 37.9245 87.9141 38.0859L87.2109 39.9297C86.8359 39.7786 86.487 39.6562 86.1641 39.5625C85.8411 39.4635 85.5182 39.4141 85.1953 39.4141C84.7786 39.4141 84.4323 39.513 84.1562 39.7109C83.8802 39.9036 83.6745 40.1953 83.5391 40.5859C83.4036 40.9766 83.3359 41.4661 83.3359 42.0547C83.3359 42.6328 83.4089 43.112 83.5547 43.4922C83.7005 43.8724 83.9115 44.1562 84.1875 44.3438C84.4635 44.526 84.7995 44.6172 85.1953 44.6172C85.6901 44.6172 86.1302 44.5521 86.5156 44.4219C86.901 44.2865 87.276 44.099 87.6406 43.8594V45.8984C87.276 46.1276 86.8932 46.2917 86.4922 46.3906C86.0964 46.4948 85.5938 46.5469 84.9844 46.5469ZM92.0547 34.2344V39.6719C92.0547 40 92.0417 40.3281 92.0156 40.6562C91.9896 40.9844 91.9609 41.3125 91.9297 41.6406H91.9609C92.1224 41.4115 92.2865 41.1849 92.4531 40.9609C92.625 40.737 92.8073 40.5208 93 40.3125L95.4453 37.6562H98.1328L94.6641 41.4453L98.3438 46.3906H95.5938L93.0781 42.8516L92.0547 43.6719V46.3906H89.6719V34.2344H92.0547ZM103.172 37.4766C104.344 37.4766 105.242 37.7318 105.867 38.2422C106.492 38.7526 106.805 39.5286 106.805 40.5703V46.3906H105.141L104.68 45.2031H104.617C104.367 45.5156 104.112 45.7708 103.852 45.9688C103.591 46.1667 103.292 46.3125 102.953 46.4062C102.615 46.5 102.203 46.5469 101.719 46.5469C101.203 46.5469 100.74 46.4479 100.328 46.25C99.9219 46.0521 99.6016 45.75 99.3672 45.3438C99.1328 44.9323 99.0156 44.4115 99.0156 43.7812C99.0156 42.8542 99.3411 42.1719 99.9922 41.7344C100.643 41.2917 101.62 41.0469 102.922 41L104.438 40.9531V40.5703C104.438 40.112 104.318 39.776 104.078 39.5625C103.839 39.349 103.505 39.2422 103.078 39.2422C102.656 39.2422 102.242 39.3021 101.836 39.4219C101.43 39.5417 101.023 39.6927 100.617 39.875L99.8281 38.2656C100.292 38.0208 100.81 37.8281 101.383 37.6875C101.961 37.5469 102.557 37.4766 103.172 37.4766ZM104.438 42.3438L103.516 42.375C102.745 42.3958 102.208 42.5339 101.906 42.7891C101.609 43.0443 101.461 43.3802 101.461 43.7969C101.461 44.1615 101.568 44.4219 101.781 44.5781C101.995 44.7292 102.273 44.8047 102.617 44.8047C103.128 44.8047 103.557 44.6536 103.906 44.3516C104.26 44.0495 104.438 43.6198 104.438 43.0625V42.3438ZM111.82 50.2344C110.602 50.2344 109.669 50.0208 109.023 49.5938C108.383 49.1719 108.062 48.5781 108.062 47.8125C108.062 47.2865 108.227 46.8464 108.555 46.4922C108.883 46.138 109.365 45.8854 110 45.7344C109.755 45.6302 109.542 45.4609 109.359 45.2266C109.177 44.987 109.086 44.7344 109.086 44.4688C109.086 44.1354 109.182 43.8594 109.375 43.6406C109.568 43.4167 109.846 43.1979 110.211 42.9844C109.753 42.7865 109.388 42.4688 109.117 42.0312C108.852 41.5938 108.719 41.0781 108.719 40.4844C108.719 39.849 108.857 39.3099 109.133 38.8672C109.414 38.4193 109.82 38.0781 110.352 37.8438C110.888 37.6094 111.539 37.4922 112.305 37.4922C112.466 37.4922 112.654 37.5026 112.867 37.5234C113.081 37.5443 113.276 37.5677 113.453 37.5938C113.635 37.6198 113.758 37.6406 113.82 37.6562H116.867V38.8672L115.5 39.2188C115.625 39.4115 115.719 39.6172 115.781 39.8359C115.844 40.0547 115.875 40.2865 115.875 40.5312C115.875 41.4688 115.547 42.2005 114.891 42.7266C114.24 43.2474 113.333 43.5078 112.172 43.5078C111.896 43.4922 111.635 43.4714 111.391 43.4453C111.271 43.5391 111.18 43.638 111.117 43.7422C111.055 43.8464 111.023 43.9557 111.023 44.0703C111.023 44.1849 111.07 44.2812 111.164 44.3594C111.263 44.4323 111.409 44.4896 111.602 44.5312C111.799 44.5677 112.044 44.5859 112.336 44.5859H113.82C114.779 44.5859 115.508 44.7917 116.008 45.2031C116.513 45.6146 116.766 46.2188 116.766 47.0156C116.766 48.0365 116.339 48.8281 115.484 49.3906C114.635 49.9531 113.414 50.2344 111.82 50.2344ZM111.922 48.6797C112.49 48.6797 112.977 48.625 113.383 48.5156C113.794 48.4115 114.109 48.2604 114.328 48.0625C114.547 47.8698 114.656 47.638 114.656 47.3672C114.656 47.1484 114.591 46.974 114.461 46.8438C114.336 46.7188 114.143 46.6302 113.883 46.5781C113.628 46.526 113.299 46.5 112.898 46.5H111.664C111.372 46.5 111.109 46.5469 110.875 46.6406C110.646 46.7344 110.464 46.8646 110.328 47.0312C110.193 47.2031 110.125 47.401 110.125 47.625C110.125 47.9531 110.281 48.2109 110.594 48.3984C110.911 48.5859 111.354 48.6797 111.922 48.6797ZM112.305 42.0547C112.753 42.0547 113.081 41.9167 113.289 41.6406C113.497 41.3646 113.602 40.9896 113.602 40.5156C113.602 39.9896 113.492 39.5964 113.273 39.3359C113.06 39.0703 112.737 38.9375 112.305 38.9375C111.867 38.9375 111.539 39.0703 111.32 39.3359C111.102 39.5964 110.992 39.9896 110.992 40.5156C110.992 40.9896 111.099 41.3646 111.312 41.6406C111.531 41.9167 111.862 42.0547 112.305 42.0547ZM121.914 37.4922C122.721 37.4922 123.417 37.6484 124 37.9609C124.583 38.2682 125.034 38.7161 125.352 39.3047C125.669 39.8932 125.828 40.612 125.828 41.4609V42.6172H120.195C120.221 43.2891 120.422 43.8177 120.797 44.2031C121.177 44.5833 121.703 44.7734 122.375 44.7734C122.932 44.7734 123.443 44.7161 123.906 44.6016C124.37 44.487 124.846 44.3151 125.336 44.0859V45.9297C124.904 46.1432 124.451 46.2995 123.977 46.3984C123.508 46.4974 122.938 46.5469 122.266 46.5469C121.391 46.5469 120.615 46.3854 119.938 46.0625C119.266 45.7396 118.737 45.2474 118.352 44.5859C117.971 43.9245 117.781 43.0911 117.781 42.0859C117.781 41.0651 117.953 40.2161 118.297 39.5391C118.646 38.8568 119.13 38.3464 119.75 38.0078C120.37 37.6641 121.091 37.4922 121.914 37.4922ZM121.93 39.1875C121.466 39.1875 121.081 39.3359 120.773 39.6328C120.471 39.9297 120.297 40.3958 120.25 41.0312H123.594C123.589 40.6771 123.523 40.362 123.398 40.0859C123.279 39.8099 123.096 39.5911 122.852 39.4297C122.612 39.2682 122.305 39.1875 121.93 39.1875Z" fill="#303030"/>
<path d="M17.5312 224.273C18.5677 224.273 19.4219 224.398 20.0938 224.648C20.7708 224.898 21.2734 225.276 21.6016 225.781C21.9297 226.286 22.0938 226.924 22.0938 227.695C22.0938 228.216 21.9948 228.672 21.7969 229.062C21.599 229.453 21.3385 229.784 21.0156 230.055C20.6927 230.326 20.3438 230.547 19.9688 230.719L23.3281 235.695H20.6406L17.9141 231.312H16.625V235.695H14.2031V224.273H17.5312ZM17.3594 226.258H16.625V229.344H17.4062C18.2083 229.344 18.7812 229.211 19.125 228.945C19.474 228.674 19.6484 228.279 19.6484 227.758C19.6484 227.216 19.4609 226.831 19.0859 226.602C18.7161 226.372 18.1406 226.258 17.3594 226.258ZM30.6719 233.102C30.6719 233.695 30.5312 234.198 30.25 234.609C29.974 235.016 29.5599 235.326 29.0078 235.539C28.4557 235.747 27.7682 235.852 26.9453 235.852C26.3359 235.852 25.8125 235.812 25.375 235.734C24.9427 235.656 24.5052 235.526 24.0625 235.344V233.375C24.5365 233.589 25.0443 233.766 25.5859 233.906C26.1328 234.042 26.612 234.109 27.0234 234.109C27.487 234.109 27.8177 234.042 28.0156 233.906C28.2188 233.766 28.3203 233.583 28.3203 233.359C28.3203 233.214 28.2786 233.083 28.1953 232.969C28.1172 232.849 27.9453 232.716 27.6797 232.57C27.4141 232.419 26.9974 232.224 26.4297 231.984C25.8828 231.755 25.4323 231.523 25.0781 231.289C24.7292 231.055 24.4688 230.779 24.2969 230.461C24.1302 230.138 24.0469 229.729 24.0469 229.234C24.0469 228.427 24.3594 227.82 24.9844 227.414C25.6146 227.003 26.4557 226.797 27.5078 226.797C28.0495 226.797 28.5651 226.852 29.0547 226.961C29.5495 227.07 30.0573 227.245 30.5781 227.484L29.8594 229.203C29.4271 229.016 29.0182 228.862 28.6328 228.742C28.2526 228.622 27.8646 228.562 27.4688 228.562C27.1198 228.562 26.8568 228.609 26.6797 228.703C26.5026 228.797 26.4141 228.94 26.4141 229.133C26.4141 229.273 26.4583 229.398 26.5469 229.508C26.6406 229.617 26.8177 229.74 27.0781 229.875C27.3438 230.005 27.7318 230.174 28.2422 230.383C28.737 230.586 29.1667 230.799 29.5312 231.023C29.8958 231.242 30.1771 231.516 30.375 231.844C30.5729 232.167 30.6719 232.586 30.6719 233.102ZM32.1953 234.578C32.1953 234.089 32.3281 233.745 32.5938 233.547C32.8646 233.349 33.1901 233.25 33.5703 233.25C33.9401 233.25 34.2578 233.349 34.5234 233.547C34.7943 233.745 34.9297 234.089 34.9297 234.578C34.9297 235.047 34.7943 235.385 34.5234 235.594C34.2578 235.802 33.9401 235.906 33.5703 235.906C33.1901 235.906 32.8646 235.802 32.5938 235.594C32.3281 235.385 32.1953 235.047 32.1953 234.578ZM48.1797 226.828C48.1797 227.354 48.0703 227.81 47.8516 228.195C47.6328 228.581 47.3359 228.896 46.9609 229.141C46.5911 229.385 46.1745 229.565 45.7109 229.68V229.727C46.6276 229.841 47.3229 230.122 47.7969 230.57C48.276 231.018 48.5156 231.617 48.5156 232.367C48.5156 233.034 48.3516 233.63 48.0234 234.156C47.7005 234.682 47.2005 235.096 46.5234 235.398C45.8464 235.701 44.974 235.852 43.9062 235.852C43.276 235.852 42.6875 235.799 42.1406 235.695C41.599 235.596 41.0885 235.443 40.6094 235.234V233.18C41.099 233.43 41.612 233.62 42.1484 233.75C42.6849 233.875 43.1849 233.938 43.6484 233.938C44.513 233.938 45.1172 233.789 45.4609 233.492C45.8099 233.19 45.9844 232.768 45.9844 232.227C45.9844 231.909 45.9036 231.641 45.7422 231.422C45.5807 231.203 45.2995 231.036 44.8984 230.922C44.5026 230.807 43.9479 230.75 43.2344 230.75H42.3672V228.898H43.25C43.9531 228.898 44.487 228.833 44.8516 228.703C45.2214 228.568 45.4714 228.385 45.6016 228.156C45.737 227.922 45.8047 227.656 45.8047 227.359C45.8047 226.953 45.6797 226.635 45.4297 226.406C45.1797 226.177 44.763 226.062 44.1797 226.062C43.8151 226.062 43.4818 226.109 43.1797 226.203C42.8828 226.292 42.6146 226.401 42.375 226.531C42.1354 226.656 41.9245 226.779 41.7422 226.898L40.625 225.234C41.0729 224.911 41.5964 224.643 42.1953 224.43C42.7995 224.216 43.5182 224.109 44.3516 224.109C45.5286 224.109 46.4609 224.346 47.1484 224.82C47.8359 225.294 48.1797 225.964 48.1797 226.828ZM50.0703 234.578C50.0703 234.089 50.2031 233.745 50.4688 233.547C50.7396 233.349 51.0651 233.25 51.4453 233.25C51.8151 233.25 52.1328 233.349 52.3984 233.547C52.6693 233.745 52.8047 234.089 52.8047 234.578C52.8047 235.047 52.6693 235.385 52.3984 235.594C52.1328 235.802 51.8151 235.906 51.4453 235.906C51.0651 235.906 50.7396 235.802 50.4688 235.594C50.2031 235.385 50.0703 235.047 50.0703 234.578ZM62.2812 229.984C62.2812 230.906 62.2083 231.729 62.0625 232.453C61.9219 233.177 61.6927 233.792 61.375 234.297C61.0625 234.802 60.651 235.188 60.1406 235.453C59.6302 235.719 59.0104 235.852 58.2812 235.852C57.3646 235.852 56.612 235.62 56.0234 235.156C55.4349 234.688 55 234.016 54.7188 233.141C54.4375 232.26 54.2969 231.208 54.2969 229.984C54.2969 228.75 54.4245 227.695 54.6797 226.82C54.9401 225.94 55.362 225.266 55.9453 224.797C56.5286 224.328 57.3073 224.094 58.2812 224.094C59.1927 224.094 59.9427 224.328 60.5312 224.797C61.125 225.26 61.5651 225.932 61.8516 226.812C62.138 227.688 62.2812 228.745 62.2812 229.984ZM56.6953 229.984C56.6953 230.854 56.7422 231.581 56.8359 232.164C56.9349 232.742 57.099 233.177 57.3281 233.469C57.5573 233.76 57.875 233.906 58.2812 233.906C58.6823 233.906 58.9974 233.763 59.2266 233.477C59.4609 233.185 59.6276 232.75 59.7266 232.172C59.8255 231.589 59.875 230.859 59.875 229.984C59.875 229.115 59.8255 228.388 59.7266 227.805C59.6276 227.221 59.4609 226.784 59.2266 226.492C58.9974 226.195 58.6823 226.047 58.2812 226.047C57.875 226.047 57.5573 226.195 57.3281 226.492C57.099 226.784 56.9349 227.221 56.8359 227.805C56.7422 228.388 56.6953 229.115 56.6953 229.984ZM71.4375 229.984C71.4375 230.906 71.3646 231.729 71.2188 232.453C71.0781 233.177 70.849 233.792 70.5312 234.297C70.2188 234.802 69.8073 235.188 69.2969 235.453C68.7865 235.719 68.1667 235.852 67.4375 235.852C66.5208 235.852 65.7682 235.62 65.1797 235.156C64.5911 234.688 64.1562 234.016 63.875 233.141C63.5938 232.26 63.4531 231.208 63.4531 229.984C63.4531 228.75 63.5807 227.695 63.8359 226.82C64.0964 225.94 64.5182 225.266 65.1016 224.797C65.6849 224.328 66.4635 224.094 67.4375 224.094C68.349 224.094 69.099 224.328 69.6875 224.797C70.2812 225.26 70.7214 225.932 71.0078 226.812C71.2943 227.688 71.4375 228.745 71.4375 229.984ZM65.8516 229.984C65.8516 230.854 65.8984 231.581 65.9922 232.164C66.0911 232.742 66.2552 233.177 66.4844 233.469C66.7135 233.76 67.0312 233.906 67.4375 233.906C67.8385 233.906 68.1536 233.763 68.3828 233.477C68.6172 233.185 68.7839 232.75 68.8828 232.172C68.9818 231.589 69.0312 230.859 69.0312 229.984C69.0312 229.115 68.9818 228.388 68.8828 227.805C68.7839 227.221 68.6172 226.784 68.3828 226.492C68.1536 226.195 67.8385 226.047 67.4375 226.047C67.0312 226.047 66.7135 226.195 66.4844 226.492C66.2552 226.784 66.0911 227.221 65.9922 227.805C65.8984 228.388 65.8516 229.115 65.8516 229.984ZM78.5625 224.273L74.3047 235.695H72.1406L76.3984 224.273H78.5625ZM89.5547 229.875C89.5547 231.161 89.3073 232.237 88.8125 233.102C88.3229 233.961 87.612 234.609 86.6797 235.047C85.7474 235.479 84.625 235.695 83.3125 235.695H80.0781V224.273H83.6641C84.862 224.273 85.901 224.487 86.7812 224.914C87.6615 225.336 88.3438 225.964 88.8281 226.797C89.3125 227.625 89.5547 228.651 89.5547 229.875ZM87.0391 229.938C87.0391 229.094 86.9141 228.401 86.6641 227.859C86.4193 227.312 86.0547 226.909 85.5703 226.648C85.0911 226.388 84.4974 226.258 83.7891 226.258H82.5V233.695H83.5391C84.7214 233.695 85.599 233.38 86.1719 232.75C86.75 232.12 87.0391 231.182 87.0391 229.938ZM95.3125 226.781C96.4844 226.781 97.3828 227.036 98.0078 227.547C98.6328 228.057 98.9453 228.833 98.9453 229.875V235.695H97.2812L96.8203 234.508H96.7578C96.5078 234.82 96.2526 235.076 95.9922 235.273C95.7318 235.471 95.4323 235.617 95.0938 235.711C94.7552 235.805 94.3438 235.852 93.8594 235.852C93.3438 235.852 92.8802 235.753 92.4688 235.555C92.0625 235.357 91.7422 235.055 91.5078 234.648C91.2734 234.237 91.1562 233.716 91.1562 233.086C91.1562 232.159 91.4818 231.477 92.1328 231.039C92.7839 230.596 93.7604 230.352 95.0625 230.305L96.5781 230.258V229.875C96.5781 229.417 96.4583 229.081 96.2188 228.867C95.9792 228.654 95.6458 228.547 95.2188 228.547C94.7969 228.547 94.3828 228.607 93.9766 228.727C93.5703 228.846 93.1641 228.997 92.7578 229.18L91.9688 227.57C92.4323 227.326 92.9505 227.133 93.5234 226.992C94.1016 226.852 94.6979 226.781 95.3125 226.781ZM96.5781 231.648L95.6562 231.68C94.8854 231.701 94.349 231.839 94.0469 232.094C93.75 232.349 93.6016 232.685 93.6016 233.102C93.6016 233.466 93.7083 233.727 93.9219 233.883C94.1354 234.034 94.4141 234.109 94.7578 234.109C95.2682 234.109 95.6979 233.958 96.0469 233.656C96.401 233.354 96.5781 232.924 96.5781 232.367V231.648ZM100.156 226.961H102.766L104.414 231.875C104.466 232.031 104.51 232.19 104.547 232.352C104.583 232.513 104.615 232.68 104.641 232.852C104.667 233.023 104.688 233.203 104.703 233.391H104.75C104.781 233.109 104.823 232.846 104.875 232.602C104.932 232.357 105.003 232.115 105.086 231.875L106.703 226.961H109.258L105.562 236.812C105.339 237.417 105.047 237.919 104.688 238.32C104.328 238.727 103.914 239.031 103.445 239.234C102.982 239.438 102.471 239.539 101.914 239.539C101.643 239.539 101.409 239.523 101.211 239.492C101.013 239.466 100.844 239.438 100.703 239.406V237.516C100.812 237.542 100.951 237.565 101.117 237.586C101.284 237.607 101.458 237.617 101.641 237.617C101.974 237.617 102.26 237.547 102.5 237.406C102.74 237.266 102.94 237.076 103.102 236.836C103.263 236.602 103.391 236.344 103.484 236.062L103.625 235.633L100.156 226.961Z" fill="#D99956"/>
<path d="M17.1968 242.536C16.7635 242.536 16.3732 242.611 16.0259 242.761C15.6821 242.908 15.3885 243.123 15.145 243.406C14.9051 243.685 14.7207 244.023 14.5918 244.421C14.4629 244.818 14.3984 245.266 14.3984 245.764C14.3984 246.423 14.5005 246.995 14.7046 247.482C14.9123 247.966 15.2202 248.34 15.6284 248.605C16.0402 248.87 16.554 249.002 17.1699 249.002C17.5208 249.002 17.8503 248.974 18.1582 248.917C18.4697 248.856 18.7723 248.78 19.0659 248.691V249.486C18.7795 249.593 18.4787 249.672 18.1636 249.722C17.8485 249.776 17.4743 249.803 17.041 249.803C16.2425 249.803 15.5747 249.638 15.0376 249.309C14.5041 248.976 14.103 248.507 13.8345 247.901C13.5695 247.296 13.437 246.582 13.437 245.758C13.437 245.164 13.5194 244.621 13.6841 244.131C13.8524 243.637 14.0959 243.211 14.4146 242.853C14.7368 242.494 15.1307 242.219 15.5962 242.025C16.0653 241.828 16.6024 241.73 17.2075 241.73C17.605 241.73 17.9881 241.769 18.3569 241.848C18.7257 241.927 19.0588 242.04 19.356 242.187L18.9907 242.96C18.7401 242.845 18.4644 242.747 18.1636 242.665C17.8664 242.579 17.5441 242.536 17.1968 242.536ZM25.71 246.741C25.71 247.225 25.6473 247.656 25.522 248.036C25.3966 248.415 25.2158 248.736 24.9795 248.997C24.7432 249.258 24.4567 249.459 24.1201 249.599C23.7871 249.735 23.4093 249.803 22.9868 249.803C22.5929 249.803 22.2313 249.735 21.9019 249.599C21.576 249.459 21.2931 249.258 21.0532 248.997C20.8169 248.736 20.6325 248.415 20.5 248.036C20.3711 247.656 20.3066 247.225 20.3066 246.741C20.3066 246.097 20.4159 245.549 20.6343 245.098C20.8527 244.643 21.1642 244.297 21.5688 244.061C21.9771 243.821 22.4622 243.701 23.0244 243.701C23.5615 243.701 24.0306 243.821 24.4316 244.061C24.8363 244.301 25.1496 244.648 25.3716 245.103C25.5972 245.554 25.71 246.1 25.71 246.741ZM21.2305 246.741C21.2305 247.214 21.2931 247.624 21.4185 247.971C21.5438 248.319 21.7371 248.587 21.9985 248.777C22.2599 248.967 22.5965 249.062 23.0083 249.062C23.4165 249.062 23.7513 248.967 24.0127 248.777C24.2777 248.587 24.4728 248.319 24.5981 247.971C24.7235 247.624 24.7861 247.214 24.7861 246.741C24.7861 246.272 24.7235 245.868 24.5981 245.527C24.4728 245.184 24.2795 244.919 24.0181 244.732C23.7567 244.546 23.4183 244.453 23.0029 244.453C22.3906 244.453 21.9412 244.655 21.6548 245.06C21.3719 245.465 21.2305 246.025 21.2305 246.741ZM30.0391 243.701C30.7373 243.701 31.2655 243.873 31.6235 244.217C31.9816 244.557 32.1606 245.105 32.1606 245.86V249.695H31.2798V245.919C31.2798 245.429 31.167 245.062 30.9414 244.818C30.7194 244.575 30.3774 244.453 29.9155 244.453C29.2638 244.453 28.8055 244.638 28.5405 245.006C28.2756 245.375 28.1431 245.91 28.1431 246.612V249.695H27.2515V243.809H27.9712L28.1055 244.657H28.1538C28.2791 244.45 28.4385 244.276 28.6318 244.136C28.8252 243.993 29.0418 243.886 29.2817 243.814C29.5216 243.739 29.7741 243.701 30.0391 243.701ZM37.8057 248.084C37.8057 248.46 37.7108 248.777 37.521 249.035C37.3348 249.289 37.0662 249.48 36.7153 249.609C36.368 249.738 35.9526 249.803 35.4692 249.803C35.0575 249.803 34.7012 249.771 34.4004 249.706C34.0996 249.642 33.8364 249.55 33.6108 249.432V248.61C33.8507 248.729 34.1372 248.836 34.4702 248.933C34.8032 249.029 35.1434 249.078 35.4907 249.078C35.9992 249.078 36.368 248.995 36.5972 248.831C36.8263 248.666 36.9409 248.442 36.9409 248.159C36.9409 247.998 36.8944 247.857 36.8013 247.735C36.7118 247.61 36.5596 247.49 36.3447 247.375C36.1299 247.257 35.8327 247.128 35.4531 246.988C35.0771 246.845 34.7513 246.704 34.4756 246.564C34.2035 246.421 33.9922 246.247 33.8418 246.043C33.695 245.839 33.6216 245.574 33.6216 245.248C33.6216 244.75 33.8221 244.369 34.2231 244.104C34.6278 243.835 35.1577 243.701 35.813 243.701C36.1675 243.701 36.4987 243.737 36.8066 243.809C37.1182 243.877 37.4082 243.97 37.6768 244.088L37.376 244.802C37.1325 244.698 36.8729 244.611 36.5972 244.539C36.3215 244.467 36.0404 244.432 35.7539 244.432C35.3421 244.432 35.0252 244.5 34.8032 244.636C34.5848 244.772 34.4756 244.958 34.4756 245.194C34.4756 245.377 34.5257 245.527 34.626 245.646C34.7298 245.764 34.8945 245.875 35.1201 245.979C35.3457 246.082 35.6429 246.204 36.0117 246.344C36.3805 246.48 36.6992 246.621 36.9678 246.768C37.2363 246.911 37.4422 247.087 37.5854 247.294C37.7323 247.499 37.8057 247.762 37.8057 248.084ZM44.1006 243.809V249.695H43.3701L43.2412 248.868H43.1929C43.0711 249.072 42.9136 249.244 42.7202 249.384C42.5269 249.523 42.3084 249.627 42.0649 249.695C41.825 249.767 41.569 249.803 41.2969 249.803C40.8314 249.803 40.4411 249.728 40.126 249.577C39.8109 249.427 39.5728 249.194 39.4116 248.879C39.2541 248.564 39.1753 248.159 39.1753 247.665V243.809H40.0776V247.601C40.0776 248.091 40.1886 248.458 40.4106 248.702C40.6326 248.942 40.971 249.062 41.4258 249.062C41.8626 249.062 42.21 248.979 42.4678 248.814C42.7292 248.65 42.9172 248.408 43.0317 248.089C43.1463 247.767 43.2036 247.373 43.2036 246.908V243.809H44.1006ZM52.3774 243.701C53.0256 243.701 53.5143 243.871 53.8438 244.211C54.1732 244.548 54.3379 245.09 54.3379 245.839V249.695H53.457V245.882C53.457 245.406 53.3532 245.049 53.1455 244.813C52.9414 244.573 52.637 244.453 52.2324 244.453C51.6631 244.453 51.2495 244.618 50.9917 244.947C50.7339 245.277 50.605 245.762 50.605 246.403V249.695H49.7188V245.882C49.7188 245.563 49.6722 245.298 49.5791 245.087C49.4896 244.876 49.3535 244.718 49.1709 244.614C48.9919 244.507 48.7645 244.453 48.4888 244.453C48.0985 244.453 47.7852 244.534 47.5488 244.695C47.3125 244.856 47.1406 245.096 47.0332 245.415C46.9294 245.73 46.8774 246.118 46.8774 246.58V249.695H45.9858V243.809H46.7056L46.8398 244.641H46.8882C47.0063 244.437 47.1549 244.265 47.334 244.125C47.513 243.986 47.7135 243.88 47.9355 243.809C48.1576 243.737 48.3939 243.701 48.6445 243.701C49.0921 243.701 49.4663 243.785 49.7671 243.954C50.0715 244.118 50.2917 244.371 50.4277 244.711H50.4761C50.6694 244.371 50.9344 244.118 51.271 243.954C51.6076 243.785 51.9764 243.701 52.3774 243.701ZM58.436 243.701C58.9373 243.701 59.367 243.812 59.7251 244.034C60.0832 244.256 60.3571 244.568 60.5469 244.969C60.7367 245.366 60.8315 245.832 60.8315 246.365V246.918H56.7656C56.7764 247.61 56.9482 248.136 57.2812 248.498C57.6143 248.859 58.0833 249.04 58.6885 249.04C59.0609 249.04 59.3903 249.006 59.6768 248.938C59.9632 248.87 60.2604 248.77 60.5684 248.637V249.421C60.2712 249.554 59.9757 249.651 59.6821 249.711C59.3921 249.772 59.0483 249.803 58.6509 249.803C58.0851 249.803 57.591 249.688 57.1685 249.459C56.7495 249.226 56.4237 248.886 56.1909 248.438C55.9582 247.991 55.8418 247.443 55.8418 246.795C55.8418 246.161 55.9474 245.613 56.1587 245.151C56.3735 244.686 56.6743 244.328 57.061 244.077C57.4513 243.826 57.9097 243.701 58.436 243.701ZM58.4253 244.432C57.9491 244.432 57.5695 244.587 57.2866 244.899C57.0037 245.21 56.8354 245.646 56.7817 246.204H59.897C59.8934 245.853 59.8379 245.545 59.7305 245.28C59.6266 245.012 59.4673 244.804 59.2524 244.657C59.0376 244.507 58.7619 244.432 58.4253 244.432ZM65.021 243.701C65.1392 243.701 65.2627 243.708 65.3916 243.723C65.5205 243.733 65.6351 243.75 65.7354 243.771L65.6226 244.598C65.5259 244.573 65.4185 244.553 65.3003 244.539C65.1821 244.525 65.0711 244.518 64.9673 244.518C64.731 244.518 64.5072 244.566 64.2959 244.663C64.0882 244.756 63.9056 244.892 63.748 245.071C63.5905 245.246 63.467 245.459 63.3774 245.71C63.2879 245.957 63.2432 246.233 63.2432 246.537V249.695H62.3462V243.809H63.0874L63.1841 244.894H63.2217C63.3434 244.675 63.4902 244.476 63.6621 244.297C63.834 244.115 64.0327 243.97 64.2583 243.862C64.4875 243.755 64.7417 243.701 65.021 243.701ZM71.8906 241.843C72.904 241.843 73.6434 242.042 74.1089 242.439C74.578 242.833 74.8125 243.399 74.8125 244.136C74.8125 244.469 74.757 244.786 74.646 245.087C74.5386 245.384 74.3631 245.647 74.1196 245.876C73.8761 246.102 73.5557 246.281 73.1582 246.414C72.7643 246.542 72.2809 246.607 71.708 246.607H70.752V249.695H69.8389V241.843H71.8906ZM71.8047 242.622H70.752V245.823H71.606C72.1073 245.823 72.5244 245.769 72.8574 245.662C73.194 245.554 73.4465 245.381 73.6147 245.141C73.783 244.897 73.8672 244.575 73.8672 244.174C73.8672 243.651 73.7007 243.263 73.3677 243.008C73.0347 242.75 72.5137 242.622 71.8047 242.622ZM78.9966 243.701C79.1147 243.701 79.2383 243.708 79.3672 243.723C79.4961 243.733 79.6107 243.75 79.7109 243.771L79.5981 244.598C79.5015 244.573 79.394 244.553 79.2759 244.539C79.1577 244.525 79.0467 244.518 78.9429 244.518C78.7065 244.518 78.4827 244.566 78.2715 244.663C78.0638 244.756 77.8812 244.892 77.7236 245.071C77.5661 245.246 77.4425 245.459 77.353 245.71C77.2635 245.957 77.2188 246.233 77.2188 246.537V249.695H76.3218V243.809H77.063L77.1597 244.894H77.1973C77.319 244.675 77.4658 244.476 77.6377 244.297C77.8096 244.115 78.0083 243.97 78.2339 243.862C78.4631 243.755 78.7173 243.701 78.9966 243.701ZM81.7144 243.809V249.695H80.8228V243.809H81.7144ZM81.2793 241.606C81.4261 241.606 81.5514 241.655 81.6553 241.751C81.7627 241.845 81.8164 241.991 81.8164 242.192C81.8164 242.389 81.7627 242.536 81.6553 242.632C81.5514 242.729 81.4261 242.777 81.2793 242.777C81.1253 242.777 80.9964 242.729 80.8926 242.632C80.7923 242.536 80.7422 242.389 80.7422 242.192C80.7422 241.991 80.7923 241.845 80.8926 241.751C80.9964 241.655 81.1253 241.606 81.2793 241.606ZM85.9629 249.803C85.4329 249.803 84.9657 249.694 84.561 249.475C84.1564 249.257 83.8413 248.924 83.6157 248.476C83.3901 248.028 83.2773 247.465 83.2773 246.784C83.2773 246.072 83.3955 245.49 83.6318 245.039C83.8717 244.584 84.2012 244.247 84.6201 244.029C85.0391 243.81 85.5153 243.701 86.0488 243.701C86.3424 243.701 86.6253 243.732 86.8975 243.792C87.1732 243.85 87.3988 243.923 87.5742 244.013L87.3057 244.759C87.1266 244.688 86.9189 244.623 86.6826 244.566C86.4499 244.509 86.2314 244.48 86.0273 244.48C85.6191 244.48 85.279 244.568 85.0068 244.743C84.7383 244.919 84.536 245.176 84.3999 245.517C84.2674 245.857 84.2012 246.276 84.2012 246.773C84.2012 247.25 84.2656 247.656 84.3945 247.993C84.527 248.329 84.7222 248.587 84.98 248.766C85.2414 248.942 85.5672 249.029 85.9575 249.029C86.269 249.029 86.5501 248.997 86.8008 248.933C87.0514 248.865 87.2788 248.786 87.4829 248.696V249.491C87.286 249.591 87.0658 249.668 86.8223 249.722C86.5824 249.776 86.2959 249.803 85.9629 249.803ZM91.146 243.701C91.6473 243.701 92.077 243.812 92.4351 244.034C92.7931 244.256 93.0671 244.568 93.2568 244.969C93.4466 245.366 93.5415 245.832 93.5415 246.365V246.918H89.4756C89.4863 247.61 89.6582 248.136 89.9912 248.498C90.3242 248.859 90.7933 249.04 91.3984 249.04C91.7708 249.04 92.1003 249.006 92.3867 248.938C92.6732 248.87 92.9704 248.77 93.2783 248.637V249.421C92.9811 249.554 92.6857 249.651 92.3921 249.711C92.1021 249.772 91.7583 249.803 91.3608 249.803C90.7951 249.803 90.3009 249.688 89.8784 249.459C89.4595 249.226 89.1336 248.886 88.9009 248.438C88.6681 247.991 88.5518 247.443 88.5518 246.795C88.5518 246.161 88.6574 245.613 88.8687 245.151C89.0835 244.686 89.3843 244.328 89.771 244.077C90.1613 243.826 90.6196 243.701 91.146 243.701ZM91.1353 244.432C90.659 244.432 90.2795 244.587 89.9966 244.899C89.7137 245.21 89.5454 245.646 89.4917 246.204H92.6069C92.6034 245.853 92.5479 245.545 92.4404 245.28C92.3366 245.012 92.1772 244.804 91.9624 244.657C91.7476 244.507 91.4718 244.432 91.1353 244.432Z" fill="#007643"/>
<path d="M30.5908 137.131C30.5908 137.559 30.502 137.929 30.3242 138.242C30.1465 138.555 29.9053 138.811 29.6006 139.01C29.3001 139.209 28.9616 139.355 28.585 139.448V139.486C29.3298 139.579 29.8947 139.808 30.2798 140.172C30.6691 140.536 30.8638 141.022 30.8638 141.632C30.8638 142.174 30.7305 142.658 30.4639 143.085C30.2015 143.513 29.7952 143.849 29.2451 144.095C28.695 144.34 27.9862 144.463 27.1187 144.463C26.6066 144.463 26.1284 144.421 25.6841 144.336C25.244 144.256 24.8293 144.131 24.4399 143.961V142.292C24.8377 142.495 25.2546 142.65 25.6904 142.755C26.1263 142.857 26.5326 142.908 26.9092 142.908C27.6117 142.908 28.1025 142.787 28.3818 142.546C28.6654 142.3 28.8071 141.958 28.8071 141.518C28.8071 141.259 28.7415 141.042 28.6104 140.864C28.4792 140.686 28.2507 140.551 27.9248 140.458C27.6032 140.364 27.1525 140.318 26.5728 140.318H25.8682V138.813H26.5854C27.1567 138.813 27.5905 138.761 27.8867 138.655C28.1872 138.545 28.3903 138.397 28.4961 138.21C28.6061 138.02 28.6611 137.804 28.6611 137.563C28.6611 137.233 28.5596 136.975 28.3564 136.789C28.1533 136.602 27.8148 136.509 27.3408 136.509C27.0446 136.509 26.7738 136.547 26.5283 136.624C26.2871 136.695 26.0692 136.784 25.8745 136.89C25.6799 136.992 25.5085 137.091 25.3604 137.188L24.4526 135.836C24.8166 135.574 25.2419 135.356 25.7285 135.183C26.2194 135.009 26.8034 134.922 27.4805 134.922C28.4368 134.922 29.1943 135.115 29.7529 135.5C30.3115 135.885 30.5908 136.429 30.5908 137.131ZM38.3413 139.696C38.3413 140.445 38.2821 141.113 38.1636 141.702C38.0493 142.29 37.8631 142.789 37.605 143.2C37.3511 143.61 37.0168 143.923 36.6021 144.139C36.1873 144.355 35.6838 144.463 35.0913 144.463C34.3465 144.463 33.735 144.275 33.2568 143.898C32.7786 143.517 32.4253 142.971 32.1968 142.26C31.9683 141.545 31.854 140.69 31.854 139.696C31.854 138.693 31.9577 137.836 32.165 137.125C32.3766 136.41 32.7194 135.862 33.1934 135.481C33.6673 135.1 34.3 134.91 35.0913 134.91C35.8319 134.91 36.4412 135.1 36.9194 135.481C37.4019 135.858 37.7594 136.403 37.9922 137.119C38.2249 137.83 38.3413 138.689 38.3413 139.696ZM33.8027 139.696C33.8027 140.403 33.8408 140.993 33.917 141.467C33.9974 141.937 34.1307 142.29 34.3169 142.527C34.5031 142.764 34.7612 142.882 35.0913 142.882C35.4172 142.882 35.6732 142.766 35.8594 142.533C36.0498 142.296 36.1852 141.943 36.2656 141.473C36.346 140.999 36.3862 140.407 36.3862 139.696C36.3862 138.989 36.346 138.399 36.2656 137.925C36.1852 137.451 36.0498 137.095 35.8594 136.858C35.6732 136.617 35.4172 136.497 35.0913 136.497C34.7612 136.497 34.5031 136.617 34.3169 136.858C34.1307 137.095 33.9974 137.451 33.917 137.925C33.8408 138.399 33.8027 138.989 33.8027 139.696ZM45.7808 139.696C45.7808 140.445 45.7215 141.113 45.603 141.702C45.4888 142.29 45.3026 142.789 45.0444 143.2C44.7905 143.61 44.4562 143.923 44.0415 144.139C43.6268 144.355 43.1232 144.463 42.5308 144.463C41.786 144.463 41.1745 144.275 40.6963 143.898C40.2181 143.517 39.8647 142.971 39.6362 142.26C39.4077 141.545 39.2935 140.69 39.2935 139.696C39.2935 138.693 39.3971 137.836 39.6045 137.125C39.8161 136.41 40.1589 135.862 40.6328 135.481C41.1068 135.1 41.7394 134.91 42.5308 134.91C43.2713 134.91 43.8807 135.1 44.3589 135.481C44.8413 135.858 45.1989 136.403 45.4316 137.119C45.6644 137.83 45.7808 138.689 45.7808 139.696ZM41.2422 139.696C41.2422 140.403 41.2803 140.993 41.3564 141.467C41.4368 141.937 41.5701 142.29 41.7563 142.527C41.9425 142.764 42.2007 142.882 42.5308 142.882C42.8566 142.882 43.1126 142.766 43.2988 142.533C43.4893 142.296 43.6247 141.943 43.7051 141.473C43.7855 140.999 43.8257 140.407 43.8257 139.696C43.8257 138.989 43.7855 138.399 43.7051 137.925C43.6247 137.451 43.4893 137.095 43.2988 136.858C43.1126 136.617 42.8566 136.497 42.5308 136.497C42.2007 136.497 41.9425 136.617 41.7563 136.858C41.5701 137.095 41.4368 137.451 41.3564 137.925C41.2803 138.399 41.2422 138.989 41.2422 139.696ZM54.7373 144.336L52.5029 137.055H52.4458C52.4543 137.229 52.467 137.491 52.4839 137.842C52.505 138.189 52.5241 138.56 52.541 138.953C52.5579 139.347 52.5664 139.702 52.5664 140.02V144.336H50.8081V135.056H53.4868L55.6831 142.152H55.7212L58.0508 135.056H60.7295V144.336H58.895V139.943C58.895 139.651 58.8993 139.315 58.9077 138.934C58.9204 138.553 58.9352 138.191 58.9521 137.849C58.9691 137.502 58.9818 137.241 58.9902 137.068H58.9331L56.54 144.336H54.7373ZM64.8555 137.239V144.336H62.9194V137.239H64.8555ZM63.8906 134.459C64.1784 134.459 64.4259 134.527 64.6333 134.662C64.8407 134.793 64.9443 135.041 64.9443 135.405C64.9443 135.764 64.8407 136.014 64.6333 136.154C64.4259 136.289 64.1784 136.357 63.8906 136.357C63.5986 136.357 63.349 136.289 63.1416 136.154C62.9385 136.014 62.8369 135.764 62.8369 135.405C62.8369 135.041 62.9385 134.793 63.1416 134.662C63.349 134.527 63.5986 134.459 63.8906 134.459ZM70.9238 137.106C71.6813 137.106 72.2907 137.313 72.752 137.728C73.2132 138.139 73.4438 138.799 73.4438 139.708V144.336H71.5078V140.191C71.5078 139.683 71.4147 139.3 71.2285 139.042C71.0465 138.784 70.7588 138.655 70.3652 138.655C69.7728 138.655 69.3687 138.856 69.1528 139.258C68.937 139.66 68.8291 140.24 68.8291 140.997V144.336H66.8931V137.239H68.3721L68.6323 138.147H68.7402C68.8926 137.902 69.0809 137.703 69.3052 137.55C69.5337 137.398 69.7855 137.286 70.0605 137.214C70.3398 137.142 70.6276 137.106 70.9238 137.106ZM80.3882 142.229C80.3882 142.711 80.2739 143.119 80.0454 143.454C79.8211 143.784 79.4847 144.035 79.0361 144.209C78.5876 144.378 78.029 144.463 77.3604 144.463C76.8652 144.463 76.4399 144.431 76.0845 144.368C75.7332 144.304 75.3778 144.198 75.0181 144.05V142.451C75.4032 142.624 75.8158 142.768 76.2559 142.882C76.7002 142.992 77.0895 143.047 77.4238 143.047C77.8005 143.047 78.0692 142.992 78.23 142.882C78.395 142.768 78.4775 142.62 78.4775 142.438C78.4775 142.319 78.4437 142.214 78.376 142.121C78.3125 142.023 78.1729 141.915 77.957 141.797C77.7412 141.674 77.4027 141.515 76.9414 141.321C76.4971 141.135 76.131 140.946 75.8433 140.756C75.5597 140.565 75.3481 140.341 75.2085 140.083C75.0731 139.821 75.0054 139.488 75.0054 139.086C75.0054 138.431 75.2593 137.938 75.7671 137.607C76.2791 137.273 76.9626 137.106 77.8174 137.106C78.2575 137.106 78.6764 137.15 79.0742 137.239C79.4762 137.328 79.8888 137.47 80.312 137.665L79.728 139.061C79.3768 138.909 79.0446 138.784 78.7314 138.687C78.4225 138.589 78.1073 138.541 77.7856 138.541C77.5021 138.541 77.2884 138.579 77.1445 138.655C77.0007 138.731 76.9287 138.847 76.9287 139.004C76.9287 139.118 76.9647 139.22 77.0366 139.309C77.1128 139.397 77.2567 139.497 77.4683 139.607C77.6841 139.713 77.9993 139.85 78.4141 140.02C78.8161 140.185 79.1652 140.358 79.4614 140.54C79.7576 140.718 79.9862 140.94 80.147 141.207C80.3078 141.469 80.3882 141.81 80.3882 142.229Z" fill="#007643"/>
<path d="M40.6997 154.399C40.6997 155.004 40.6227 155.556 40.4688 156.053C40.3184 156.547 40.091 156.973 39.7866 157.332C39.4823 157.686 39.1009 157.96 38.6426 158.153C38.1842 158.347 37.6471 158.443 37.0312 158.443C36.4046 158.443 35.8604 158.347 35.3984 158.153C34.9401 157.96 34.5588 157.684 34.2544 157.326C33.9536 156.968 33.728 156.54 33.5776 156.042C33.4272 155.545 33.3521 154.993 33.3521 154.388C33.3521 153.579 33.4845 152.874 33.7495 152.272C34.0181 151.667 34.4245 151.198 34.9688 150.865C35.5166 150.528 36.2077 150.36 37.042 150.36C37.8584 150.36 38.5369 150.526 39.0776 150.859C39.6183 151.192 40.0229 151.661 40.2915 152.267C40.5636 152.868 40.6997 153.579 40.6997 154.399ZM34.7056 154.399C34.7056 155.004 34.7879 155.529 34.9526 155.973C35.1174 156.413 35.3698 156.753 35.71 156.993C36.0537 157.229 36.4941 157.348 37.0312 157.348C37.5719 157.348 38.0124 157.229 38.3525 156.993C38.6927 156.753 38.9434 156.413 39.1045 155.973C39.2656 155.529 39.3462 155.004 39.3462 154.399C39.3462 153.479 39.1618 152.759 38.793 152.24C38.4277 151.717 37.8441 151.456 37.042 151.456C36.5049 151.456 36.0627 151.574 35.7153 151.81C35.3716 152.046 35.1174 152.385 34.9526 152.825C34.7879 153.262 34.7056 153.787 34.7056 154.399ZM48.939 158.336H47.3545L43.5088 152.068H43.4604C43.4748 152.279 43.4873 152.503 43.498 152.739C43.5124 152.976 43.5231 153.219 43.5303 153.47C43.541 153.72 43.55 153.975 43.5571 154.232V158.336H42.3862V150.483H43.96L47.8003 156.708H47.8379C47.8307 156.526 47.8218 156.316 47.811 156.08C47.8003 155.844 47.7896 155.6 47.7788 155.35C47.7716 155.095 47.7663 154.85 47.7627 154.614V150.483H48.939V158.336ZM60.4116 158.336H58.8271L54.9814 152.068H54.9331C54.9474 152.279 54.96 152.503 54.9707 152.739C54.985 152.976 54.9958 153.219 55.0029 153.47C55.0137 153.72 55.0226 153.975 55.0298 154.232V158.336H53.8589V150.483H55.4326L59.2729 156.708H59.3105C59.3034 156.526 59.2944 156.316 59.2837 156.08C59.2729 155.844 59.2622 155.6 59.2515 155.35C59.2443 155.095 59.2389 154.85 59.2354 154.614V150.483H60.4116V158.336ZM64.7139 152.277C65.2438 152.277 65.6986 152.387 66.0781 152.605C66.4577 152.823 66.7495 153.133 66.9536 153.534C67.1577 153.935 67.2598 154.415 67.2598 154.974V155.65H63.2905C63.3049 156.227 63.4588 156.671 63.7524 156.982C64.0496 157.294 64.465 157.45 64.9985 157.45C65.3781 157.45 65.7183 157.414 66.019 157.342C66.3234 157.267 66.6367 157.158 66.959 157.015V158.041C66.6618 158.18 66.3592 158.282 66.0513 158.347C65.7433 158.411 65.3745 158.443 64.9448 158.443C64.3612 158.443 63.8473 158.331 63.4033 158.105C62.9629 157.876 62.6174 157.536 62.3667 157.084C62.1196 156.633 61.9961 156.073 61.9961 155.403C61.9961 154.737 62.1089 154.172 62.3345 153.706C62.5601 153.241 62.877 152.886 63.2852 152.643C63.6934 152.399 64.1696 152.277 64.7139 152.277ZM64.7139 153.228C64.3164 153.228 63.9941 153.357 63.7471 153.615C63.5036 153.873 63.3604 154.25 63.3174 154.748H66.0244C66.0208 154.451 65.9707 154.188 65.874 153.958C65.7809 153.729 65.6377 153.55 65.4443 153.421C65.2546 153.292 65.0111 153.228 64.7139 153.228ZM70.896 157.423C71.0607 157.423 71.2236 157.409 71.3848 157.38C71.5459 157.348 71.6927 157.31 71.8252 157.267V158.223C71.6855 158.284 71.5047 158.336 71.2827 158.379C71.0607 158.422 70.8298 158.443 70.5898 158.443C70.2533 158.443 69.9507 158.388 69.6821 158.277C69.4136 158.162 69.2005 157.967 69.043 157.691C68.8854 157.416 68.8066 157.034 68.8066 156.547V153.352H67.9956V152.788L68.8657 152.342L69.2793 151.069H70.0742V152.39H71.7769V153.352H70.0742V156.531C70.0742 156.832 70.1494 157.056 70.2998 157.203C70.4502 157.349 70.6489 157.423 70.896 157.423ZM22.8569 172.336L25.9399 165.59H21.8633V164.483H27.2988V165.348L24.2158 172.336H22.8569ZM30.9941 166.277C31.7461 166.277 32.3136 166.444 32.6968 166.777C33.0835 167.11 33.2769 167.629 33.2769 168.334V172.336H32.3799L32.1382 171.493H32.0952C31.9269 171.708 31.7533 171.885 31.5742 172.024C31.3952 172.164 31.1875 172.268 30.9512 172.336C30.7184 172.408 30.4338 172.443 30.0972 172.443C29.7427 172.443 29.4258 172.379 29.1465 172.25C28.8672 172.118 28.647 171.917 28.4858 171.648C28.3247 171.38 28.2441 171.04 28.2441 170.628C28.2441 170.016 28.4715 169.556 28.9263 169.248C29.3846 168.94 30.0757 168.77 30.9995 168.737L32.0308 168.7V168.388C32.0308 167.976 31.9341 167.683 31.7407 167.507C31.5509 167.332 31.2824 167.244 30.9351 167.244C30.6379 167.244 30.3496 167.287 30.0703 167.373C29.791 167.459 29.5189 167.565 29.2539 167.69L28.8457 166.798C29.1357 166.644 29.4652 166.519 29.834 166.422C30.2064 166.326 30.5931 166.277 30.9941 166.277ZM32.0254 169.495L31.2573 169.521C30.6271 169.543 30.1849 169.65 29.9307 169.844C29.6764 170.037 29.5493 170.302 29.5493 170.639C29.5493 170.932 29.637 171.147 29.8125 171.283C29.988 171.416 30.2189 171.482 30.5054 171.482C30.9422 171.482 31.3039 171.358 31.5903 171.111C31.8804 170.861 32.0254 170.494 32.0254 170.01V169.495ZM41.7632 166.277C42.4292 166.277 42.9305 166.449 43.2671 166.793C43.6073 167.137 43.7773 167.688 43.7773 168.447V172.336H42.5151V168.673C42.5151 168.222 42.4274 167.882 42.252 167.652C42.0765 167.423 41.8097 167.309 41.4517 167.309C40.9504 167.309 40.5887 167.47 40.3667 167.792C40.1483 168.111 40.0391 168.574 40.0391 169.183V172.336H38.7769V168.673C38.7769 168.372 38.7375 168.121 38.6587 167.921C38.5835 167.717 38.4671 167.565 38.3096 167.464C38.152 167.361 37.9533 167.309 37.7134 167.309C37.366 167.309 37.0885 167.387 36.8809 167.545C36.6768 167.702 36.5299 167.935 36.4404 168.243C36.3509 168.548 36.3062 168.922 36.3062 169.366V172.336H35.0439V166.39H36.0269L36.2041 167.19H36.2739C36.3957 166.983 36.5461 166.813 36.7251 166.68C36.9077 166.544 37.11 166.444 37.332 166.379C37.554 166.311 37.785 166.277 38.0249 166.277C38.4689 166.277 38.8431 166.356 39.1475 166.514C39.4518 166.668 39.6792 166.904 39.8296 167.223H39.9263C40.1125 166.9 40.3721 166.662 40.7051 166.508C41.0381 166.354 41.3908 166.277 41.7632 166.277ZM47.8809 169.919V168.85H50.6523V169.919H47.8809ZM58.1021 172.336H56.8345V167.282C56.8345 167.113 56.8363 166.945 56.8398 166.777C56.8434 166.609 56.847 166.444 56.8506 166.283C56.8577 166.122 56.8667 165.968 56.8774 165.821C56.8022 165.903 56.7091 165.993 56.5981 166.089C56.4907 166.186 56.3761 166.286 56.2544 166.39L55.3521 167.11L54.7183 166.31L57.0493 164.483H58.1021V172.336ZM66.0029 168.404C66.0029 169.038 65.9528 169.606 65.8525 170.107C65.7559 170.605 65.6019 171.027 65.3906 171.375C65.1794 171.722 64.9036 171.987 64.5635 172.169C64.2233 172.352 63.8115 172.443 63.3281 172.443C62.723 172.443 62.2235 172.284 61.8296 171.965C61.4357 171.643 61.1439 171.181 60.9541 170.58C60.7643 169.974 60.6694 169.249 60.6694 168.404C60.6694 167.559 60.7554 166.836 60.9272 166.234C61.1027 165.629 61.3856 165.166 61.7759 164.843C62.1662 164.521 62.6836 164.36 63.3281 164.36C63.9368 164.36 64.4382 164.521 64.832 164.843C65.2295 165.162 65.5231 165.624 65.7129 166.229C65.9062 166.831 66.0029 167.556 66.0029 168.404ZM61.9424 168.404C61.9424 169.067 61.9854 169.62 62.0713 170.064C62.1608 170.508 62.3076 170.841 62.5117 171.063C62.7158 171.281 62.988 171.391 63.3281 171.391C63.6683 171.391 63.9404 171.281 64.1445 171.063C64.3486 170.845 64.4954 170.513 64.585 170.069C64.6781 169.625 64.7246 169.07 64.7246 168.404C64.7246 167.745 64.6799 167.194 64.5903 166.75C64.5008 166.306 64.354 165.973 64.1499 165.751C63.9458 165.525 63.6719 165.413 63.3281 165.413C62.9844 165.413 62.7104 165.525 62.5063 165.751C62.3058 165.973 62.1608 166.306 62.0713 166.75C61.9854 167.194 61.9424 167.745 61.9424 168.404ZM69.7197 166.277C70.4717 166.277 71.0392 166.444 71.4224 166.777C71.8091 167.11 72.0024 167.629 72.0024 168.334V172.336H71.1055L70.8638 171.493H70.8208C70.6525 171.708 70.4788 171.885 70.2998 172.024C70.1208 172.164 69.9131 172.268 69.6768 172.336C69.444 172.408 69.1593 172.443 68.8228 172.443C68.4683 172.443 68.1514 172.379 67.8721 172.25C67.5928 172.118 67.3726 171.917 67.2114 171.648C67.0503 171.38 66.9697 171.04 66.9697 170.628C66.9697 170.016 67.1971 169.556 67.6519 169.248C68.1102 168.94 68.8013 168.77 69.7251 168.737L70.7563 168.7V168.388C70.7563 167.976 70.6597 167.683 70.4663 167.507C70.2765 167.332 70.008 167.244 69.6606 167.244C69.3634 167.244 69.0752 167.287 68.7959 167.373C68.5166 167.459 68.2445 167.565 67.9795 167.69L67.5713 166.798C67.8613 166.644 68.1908 166.519 68.5596 166.422C68.932 166.326 69.3187 166.277 69.7197 166.277ZM70.751 169.495L69.9829 169.521C69.3527 169.543 68.9105 169.65 68.6562 169.844C68.402 170.037 68.2749 170.302 68.2749 170.639C68.2749 170.932 68.3626 171.147 68.5381 171.283C68.7135 171.416 68.9445 171.482 69.231 171.482C69.6678 171.482 70.0295 171.358 70.3159 171.111C70.606 170.861 70.751 170.494 70.751 170.01V169.495ZM80.4888 166.277C81.1548 166.277 81.6561 166.449 81.9927 166.793C82.3328 167.137 82.5029 167.688 82.5029 168.447V172.336H81.2407V168.673C81.2407 168.222 81.153 167.882 80.9775 167.652C80.8021 167.423 80.5353 167.309 80.1772 167.309C79.6759 167.309 79.3143 167.47 79.0923 167.792C78.8739 168.111 78.7646 168.574 78.7646 169.183V172.336H77.5024V168.673C77.5024 168.372 77.4631 168.121 77.3843 167.921C77.3091 167.717 77.1927 167.565 77.0352 167.464C76.8776 167.361 76.6789 167.309 76.439 167.309C76.0916 167.309 75.8141 167.387 75.6064 167.545C75.4023 167.702 75.2555 167.935 75.166 168.243C75.0765 168.548 75.0317 168.922 75.0317 169.366V172.336H73.7695V166.39H74.7524L74.9297 167.19H74.9995C75.1213 166.983 75.2716 166.813 75.4507 166.68C75.6333 166.544 75.8356 166.444 76.0576 166.379C76.2796 166.311 76.5106 166.277 76.7505 166.277C77.1945 166.277 77.5687 166.356 77.873 166.514C78.1774 166.668 78.4048 166.904 78.5552 167.223H78.6519C78.8381 166.9 79.0977 166.662 79.4307 166.508C79.7637 166.354 80.1164 166.277 80.4888 166.277Z" fill="#303030"/>
<path d="M117.674 145.469H115.713V140.099C115.713 139.951 115.715 139.769 115.719 139.553C115.723 139.333 115.73 139.108 115.738 138.88C115.747 138.647 115.755 138.438 115.764 138.251C115.717 138.306 115.622 138.402 115.478 138.537C115.338 138.668 115.207 138.787 115.084 138.893L114.018 139.75L113.072 138.569L116.062 136.188H117.674V145.469ZM126.701 140.829C126.701 141.578 126.641 142.246 126.523 142.834C126.409 143.423 126.222 143.922 125.964 144.333C125.71 144.743 125.376 145.056 124.961 145.272C124.547 145.488 124.043 145.596 123.451 145.596C122.706 145.596 122.094 145.407 121.616 145.031C121.138 144.65 120.785 144.104 120.556 143.393C120.328 142.678 120.213 141.823 120.213 140.829C120.213 139.826 120.317 138.969 120.524 138.258C120.736 137.543 121.079 136.995 121.553 136.614C122.027 136.233 122.659 136.042 123.451 136.042C124.191 136.042 124.801 136.233 125.279 136.614C125.761 136.99 126.119 137.536 126.352 138.251C126.584 138.962 126.701 139.821 126.701 140.829ZM122.162 140.829C122.162 141.535 122.2 142.126 122.276 142.6C122.357 143.069 122.49 143.423 122.676 143.66C122.862 143.897 123.121 144.015 123.451 144.015C123.777 144.015 124.033 143.899 124.219 143.666C124.409 143.429 124.545 143.076 124.625 142.606C124.705 142.132 124.746 141.54 124.746 140.829C124.746 140.122 124.705 139.532 124.625 139.058C124.545 138.584 124.409 138.228 124.219 137.991C124.033 137.75 123.777 137.629 123.451 137.629C123.121 137.629 122.862 137.75 122.676 137.991C122.49 138.228 122.357 138.584 122.276 139.058C122.2 139.532 122.162 140.122 122.162 140.829ZM134.14 140.829C134.14 141.578 134.081 142.246 133.962 142.834C133.848 143.423 133.662 143.922 133.404 144.333C133.15 144.743 132.816 145.056 132.401 145.272C131.986 145.488 131.483 145.596 130.89 145.596C130.145 145.596 129.534 145.407 129.056 145.031C128.577 144.65 128.224 144.104 127.996 143.393C127.767 142.678 127.653 141.823 127.653 140.829C127.653 139.826 127.757 138.969 127.964 138.258C128.175 137.543 128.518 136.995 128.992 136.614C129.466 136.233 130.099 136.042 130.89 136.042C131.631 136.042 132.24 136.233 132.718 136.614C133.201 136.99 133.558 137.536 133.791 138.251C134.024 138.962 134.14 139.821 134.14 140.829ZM129.602 140.829C129.602 141.535 129.64 142.126 129.716 142.6C129.796 143.069 129.93 143.423 130.116 143.66C130.302 143.897 130.56 144.015 130.89 144.015C131.216 144.015 131.472 143.899 131.658 143.666C131.849 143.429 131.984 143.076 132.064 142.606C132.145 142.132 132.185 141.54 132.185 140.829C132.185 140.122 132.145 139.532 132.064 139.058C131.984 138.584 131.849 138.228 131.658 137.991C131.472 137.75 131.216 137.629 130.89 137.629C130.56 137.629 130.302 137.75 130.116 137.991C129.93 138.228 129.796 138.584 129.716 139.058C129.64 139.532 129.602 140.122 129.602 140.829ZM143.097 145.469L140.862 138.188H140.805C140.814 138.361 140.826 138.624 140.843 138.975C140.864 139.322 140.883 139.692 140.9 140.086C140.917 140.479 140.926 140.835 140.926 141.152V145.469H139.167V136.188H141.846L144.042 143.285H144.081L146.41 136.188H149.089V145.469H147.254V141.076C147.254 140.784 147.259 140.448 147.267 140.067C147.28 139.686 147.295 139.324 147.312 138.981C147.328 138.634 147.341 138.374 147.35 138.201H147.292L144.899 145.469H143.097ZM153.215 138.372V145.469H151.279V138.372H153.215ZM152.25 135.592C152.538 135.592 152.785 135.66 152.993 135.795C153.2 135.926 153.304 136.174 153.304 136.538C153.304 136.897 153.2 137.147 152.993 137.287C152.785 137.422 152.538 137.49 152.25 137.49C151.958 137.49 151.708 137.422 151.501 137.287C151.298 137.147 151.196 136.897 151.196 136.538C151.196 136.174 151.298 135.926 151.501 135.795C151.708 135.66 151.958 135.592 152.25 135.592ZM159.283 138.239C160.041 138.239 160.65 138.446 161.111 138.861C161.573 139.271 161.803 139.931 161.803 140.841V145.469H159.867V141.324C159.867 140.816 159.774 140.433 159.588 140.175C159.406 139.917 159.118 139.788 158.725 139.788C158.132 139.788 157.728 139.989 157.512 140.391C157.296 140.793 157.188 141.372 157.188 142.13V145.469H155.252V138.372H156.731L156.992 139.28H157.1C157.252 139.034 157.44 138.835 157.665 138.683C157.893 138.531 158.145 138.419 158.42 138.347C158.699 138.275 158.987 138.239 159.283 138.239ZM168.748 143.361C168.748 143.844 168.633 144.252 168.405 144.586C168.181 144.917 167.844 145.168 167.396 145.342C166.947 145.511 166.388 145.596 165.72 145.596C165.225 145.596 164.799 145.564 164.444 145.5C164.093 145.437 163.737 145.331 163.377 145.183V143.583C163.763 143.757 164.175 143.901 164.615 144.015C165.06 144.125 165.449 144.18 165.783 144.18C166.16 144.18 166.429 144.125 166.589 144.015C166.754 143.901 166.837 143.753 166.837 143.571C166.837 143.452 166.803 143.347 166.735 143.253C166.672 143.156 166.532 143.048 166.316 142.93C166.101 142.807 165.762 142.648 165.301 142.454C164.856 142.267 164.49 142.079 164.203 141.889C163.919 141.698 163.708 141.474 163.568 141.216C163.432 140.953 163.365 140.621 163.365 140.219C163.365 139.563 163.619 139.07 164.126 138.74C164.639 138.406 165.322 138.239 166.177 138.239C166.617 138.239 167.036 138.283 167.434 138.372C167.836 138.461 168.248 138.603 168.671 138.797L168.087 140.194C167.736 140.042 167.404 139.917 167.091 139.819C166.782 139.722 166.467 139.673 166.145 139.673C165.861 139.673 165.648 139.711 165.504 139.788C165.36 139.864 165.288 139.98 165.288 140.137C165.288 140.251 165.324 140.353 165.396 140.441C165.472 140.53 165.616 140.63 165.828 140.74C166.043 140.846 166.359 140.983 166.773 141.152C167.175 141.317 167.525 141.491 167.821 141.673C168.117 141.851 168.346 142.073 168.506 142.339C168.667 142.602 168.748 142.942 168.748 143.361Z" fill="#007643"/>
<path d="M127.501 155.532C127.501 156.137 127.424 156.688 127.271 157.186C127.12 157.68 126.893 158.106 126.588 158.464C126.284 158.819 125.903 159.093 125.444 159.286C124.986 159.479 124.449 159.576 123.833 159.576C123.206 159.576 122.662 159.479 122.2 159.286C121.742 159.093 121.361 158.817 121.056 158.459C120.755 158.101 120.53 157.673 120.379 157.175C120.229 156.678 120.154 156.126 120.154 155.521C120.154 154.712 120.286 154.006 120.551 153.405C120.82 152.8 121.226 152.331 121.771 151.998C122.318 151.661 123.009 151.493 123.844 151.493C124.66 151.493 125.339 151.659 125.879 151.992C126.42 152.325 126.825 152.794 127.093 153.399C127.365 154.001 127.501 154.712 127.501 155.532ZM121.507 155.532C121.507 156.137 121.59 156.661 121.754 157.105C121.919 157.546 122.172 157.886 122.512 158.126C122.855 158.362 123.296 158.48 123.833 158.48C124.374 158.48 124.814 158.362 125.154 158.126C125.494 157.886 125.745 157.546 125.906 157.105C126.067 156.661 126.148 156.137 126.148 155.532C126.148 154.611 125.964 153.892 125.595 153.373C125.229 152.85 124.646 152.588 123.844 152.588C123.307 152.588 122.864 152.707 122.517 152.943C122.173 153.179 121.919 153.518 121.754 153.958C121.59 154.395 121.507 154.919 121.507 155.532ZM130.466 159.469H129.188V151.616H133.625V152.701H130.466V155.15H133.42V156.23H130.466V159.469ZM136.332 159.469H135.053V151.616H139.49V152.701H136.332V155.15H139.286V156.23H136.332V159.469ZM150.329 159.469H148.744L144.898 153.201H144.85C144.864 153.412 144.877 153.636 144.888 153.872C144.902 154.108 144.913 154.352 144.92 154.603C144.931 154.853 144.94 155.107 144.947 155.365V159.469H143.776V151.616H145.35L149.19 157.841H149.228C149.22 157.659 149.211 157.449 149.201 157.213C149.19 156.977 149.179 156.733 149.168 156.482C149.161 156.228 149.156 155.983 149.152 155.747V151.616H150.329V159.469ZM154.631 153.41C155.161 153.41 155.616 153.519 155.995 153.738C156.375 153.956 156.667 154.266 156.871 154.667C157.075 155.068 157.177 155.548 157.177 156.106V156.783H153.208C153.222 157.36 153.376 157.804 153.669 158.115C153.967 158.427 154.382 158.583 154.916 158.583C155.295 158.583 155.635 158.547 155.936 158.475C156.24 158.4 156.554 158.291 156.876 158.147V159.173C156.579 159.313 156.276 159.415 155.968 159.479C155.66 159.544 155.292 159.576 154.862 159.576C154.278 159.576 153.764 159.463 153.32 159.238C152.88 159.009 152.534 158.668 152.284 158.217C152.037 157.766 151.913 157.206 151.913 156.536C151.913 155.87 152.026 155.304 152.251 154.839C152.477 154.373 152.794 154.019 153.202 153.775C153.61 153.532 154.087 153.41 154.631 153.41ZM154.631 154.361C154.233 154.361 153.911 154.49 153.664 154.748C153.421 155.005 153.277 155.383 153.234 155.881H155.941C155.938 155.584 155.888 155.32 155.791 155.091C155.698 154.862 155.555 154.683 155.361 154.554C155.172 154.425 154.928 154.361 154.631 154.361ZM160.813 158.556C160.978 158.556 161.141 158.541 161.302 158.513C161.463 158.48 161.61 158.443 161.742 158.4V159.356C161.603 159.417 161.422 159.469 161.2 159.512C160.978 159.555 160.747 159.576 160.507 159.576C160.17 159.576 159.868 159.521 159.599 159.41C159.331 159.295 159.118 159.1 158.96 158.824C158.802 158.549 158.724 158.167 158.724 157.68V154.484H157.913V153.92L158.783 153.475L159.196 152.202H159.991V153.523H161.694V154.484H159.991V157.664C159.991 157.965 160.066 158.189 160.217 158.335C160.367 158.482 160.566 158.556 160.813 158.556ZM113.794 173.469H112.527V168.415C112.527 168.246 112.529 168.078 112.532 167.91C112.536 167.741 112.539 167.577 112.543 167.416C112.55 167.254 112.559 167.1 112.57 166.954C112.495 167.036 112.402 167.125 112.291 167.222C112.183 167.319 112.069 167.419 111.947 167.523L111.044 168.243L110.411 167.442L112.742 165.616H113.794V173.469ZM121.695 169.537C121.695 170.171 121.645 170.738 121.545 171.24C121.448 171.737 121.294 172.16 121.083 172.507C120.872 172.855 120.596 173.12 120.256 173.302C119.916 173.485 119.504 173.576 119.021 173.576C118.415 173.576 117.916 173.417 117.522 173.098C117.128 172.776 116.836 172.314 116.646 171.712C116.457 171.107 116.362 170.382 116.362 169.537C116.362 168.692 116.448 167.969 116.62 167.367C116.795 166.762 117.078 166.298 117.468 165.976C117.859 165.654 118.376 165.493 119.021 165.493C119.629 165.493 120.131 165.654 120.524 165.976C120.922 166.295 121.215 166.757 121.405 167.362C121.599 167.963 121.695 168.688 121.695 169.537ZM117.635 169.537C117.635 170.2 117.678 170.753 117.764 171.197C117.853 171.641 118 171.974 118.204 172.196C118.408 172.414 118.68 172.523 119.021 172.523C119.361 172.523 119.633 172.414 119.837 172.196C120.041 171.977 120.188 171.646 120.277 171.202C120.37 170.758 120.417 170.203 120.417 169.537C120.417 168.878 120.372 168.327 120.283 167.883C120.193 167.439 120.046 167.106 119.842 166.884C119.638 166.658 119.364 166.545 119.021 166.545C118.677 166.545 118.403 166.658 118.199 166.884C117.998 167.106 117.853 167.439 117.764 167.883C117.678 168.327 117.635 168.878 117.635 169.537ZM126.132 167.41C126.837 167.41 127.403 167.668 127.829 168.184C128.259 168.699 128.474 169.465 128.474 170.482C128.474 171.156 128.373 171.723 128.173 172.185C127.976 172.643 127.698 172.991 127.34 173.227C126.986 173.46 126.572 173.576 126.1 173.576C125.799 173.576 125.537 173.537 125.315 173.458C125.093 173.379 124.904 173.277 124.746 173.152C124.589 173.023 124.456 172.883 124.349 172.733H124.273C124.291 172.876 124.307 173.035 124.322 173.211C124.34 173.383 124.349 173.54 124.349 173.684V176.106H123.081V167.523H124.112L124.29 168.345H124.349C124.46 168.176 124.594 168.021 124.751 167.877C124.913 167.734 125.106 167.621 125.332 167.539C125.561 167.453 125.827 167.41 126.132 167.41ZM125.793 168.441C125.446 168.441 125.167 168.511 124.956 168.651C124.748 168.787 124.596 168.993 124.499 169.269C124.406 169.544 124.356 169.89 124.349 170.305V170.482C124.349 170.923 124.393 171.297 124.483 171.605C124.576 171.909 124.728 172.142 124.939 172.303C125.154 172.461 125.444 172.54 125.81 172.54C126.118 172.54 126.372 172.455 126.572 172.287C126.776 172.119 126.929 171.879 127.029 171.567C127.129 171.256 127.179 170.889 127.179 170.466C127.179 169.825 127.065 169.328 126.835 168.973C126.61 168.619 126.263 168.441 125.793 168.441ZM136.654 167.41C137.32 167.41 137.821 167.582 138.158 167.926C138.498 168.27 138.668 168.821 138.668 169.58V173.469H137.406V169.806C137.406 169.354 137.318 169.014 137.143 168.785C136.967 168.556 136.7 168.441 136.342 168.441C135.841 168.441 135.479 168.603 135.257 168.925C135.039 169.243 134.93 169.707 134.93 170.316V173.469H133.667V169.806C133.667 169.505 133.628 169.254 133.549 169.054C133.474 168.85 133.358 168.697 133.2 168.597C133.043 168.493 132.844 168.441 132.604 168.441C132.257 168.441 131.979 168.52 131.771 168.678C131.567 168.835 131.421 169.068 131.331 169.376C131.242 169.68 131.197 170.055 131.197 170.499V173.469H129.935V167.523H130.917L131.095 168.323H131.165C131.286 168.116 131.437 167.945 131.616 167.813C131.798 167.677 132.001 167.577 132.223 167.512C132.445 167.444 132.676 167.41 132.916 167.41C133.36 167.41 133.734 167.489 134.038 167.646C134.342 167.8 134.57 168.037 134.72 168.355H134.817C135.003 168.033 135.263 167.795 135.596 167.641C135.929 167.487 136.281 167.41 136.654 167.41ZM142.771 171.052V169.983H145.543V171.052H142.771ZM150.178 173.469L153.261 166.723H149.185V165.616H154.62V166.481L151.537 173.469H150.178ZM158.315 167.41C159.067 167.41 159.635 167.577 160.018 167.91C160.405 168.243 160.598 168.762 160.598 169.467V173.469H159.701L159.459 172.625H159.417C159.248 172.84 159.075 173.018 158.896 173.157C158.716 173.297 158.509 173.401 158.272 173.469C158.04 173.54 157.755 173.576 157.418 173.576C157.064 173.576 156.747 173.512 156.468 173.383C156.188 173.25 155.968 173.05 155.807 172.781C155.646 172.513 155.565 172.173 155.565 171.761C155.565 171.148 155.793 170.688 156.248 170.38C156.706 170.072 157.397 169.902 158.321 169.87L159.352 169.833V169.521C159.352 169.109 159.255 168.816 159.062 168.64C158.872 168.465 158.604 168.377 158.256 168.377C157.959 168.377 157.671 168.42 157.392 168.506C157.112 168.592 156.84 168.697 156.575 168.823L156.167 167.931C156.457 167.777 156.786 167.652 157.155 167.555C157.528 167.458 157.914 167.41 158.315 167.41ZM159.347 170.627L158.579 170.654C157.948 170.676 157.506 170.783 157.252 170.977C156.998 171.17 156.871 171.435 156.871 171.771C156.871 172.065 156.958 172.28 157.134 172.416C157.309 172.549 157.54 172.615 157.827 172.615C158.264 172.615 158.625 172.491 158.912 172.244C159.202 171.993 159.347 171.626 159.347 171.143V170.627ZM169.084 167.41C169.75 167.41 170.252 167.582 170.588 167.926C170.929 168.27 171.099 168.821 171.099 169.58V173.469H169.836V169.806C169.836 169.354 169.749 169.014 169.573 168.785C169.398 168.556 169.131 168.441 168.773 168.441C168.272 168.441 167.91 168.603 167.688 168.925C167.47 169.243 167.36 169.707 167.36 170.316V173.469H166.098V169.806C166.098 169.505 166.059 169.254 165.98 169.054C165.905 168.85 165.788 168.697 165.631 168.597C165.473 168.493 165.275 168.441 165.035 168.441C164.687 168.441 164.41 168.52 164.202 168.678C163.998 168.835 163.851 169.068 163.762 169.376C163.672 169.68 163.627 170.055 163.627 170.499V173.469H162.365V167.523H163.348L163.525 168.323H163.595C163.717 168.116 163.867 167.945 164.046 167.813C164.229 167.677 164.431 167.577 164.653 167.512C164.875 167.444 165.106 167.41 165.346 167.41C165.79 167.41 166.164 167.489 166.469 167.646C166.773 167.8 167 168.037 167.151 168.355H167.248C167.434 168.033 167.693 167.795 168.026 167.641C168.359 167.487 168.712 167.41 169.084 167.41Z" fill="#303030"/>
<path d="M203.765 145.469H201.803V140.099C201.803 139.951 201.805 139.769 201.81 139.553C201.814 139.333 201.82 139.108 201.829 138.88C201.837 138.647 201.846 138.438 201.854 138.251C201.807 138.306 201.712 138.402 201.568 138.537C201.429 138.668 201.298 138.787 201.175 138.893L200.108 139.75L199.163 138.569L202.152 136.188H203.765V145.469ZM212.791 140.829C212.791 141.578 212.732 142.246 212.613 142.834C212.499 143.423 212.313 143.922 212.055 144.333C211.801 144.743 211.466 145.056 211.052 145.272C210.637 145.488 210.133 145.596 209.541 145.596C208.796 145.596 208.185 145.407 207.707 145.031C207.228 144.65 206.875 144.104 206.646 143.393C206.418 142.678 206.304 141.823 206.304 140.829C206.304 139.826 206.407 138.969 206.615 138.258C206.826 137.543 207.169 136.995 207.643 136.614C208.117 136.233 208.75 136.042 209.541 136.042C210.282 136.042 210.891 136.233 211.369 136.614C211.852 136.99 212.209 137.536 212.442 138.251C212.675 138.962 212.791 139.821 212.791 140.829ZM208.252 140.829C208.252 141.535 208.291 142.126 208.367 142.6C208.447 143.069 208.58 143.423 208.767 143.66C208.953 143.897 209.211 144.015 209.541 144.015C209.867 144.015 210.123 143.899 210.309 143.666C210.5 143.429 210.635 143.076 210.715 142.606C210.796 142.132 210.836 141.54 210.836 140.829C210.836 140.122 210.796 139.532 210.715 139.058C210.635 138.584 210.5 138.228 210.309 137.991C210.123 137.75 209.867 137.629 209.541 137.629C209.211 137.629 208.953 137.75 208.767 137.991C208.58 138.228 208.447 138.584 208.367 139.058C208.291 139.532 208.252 140.122 208.252 140.829ZM220.23 140.829C220.23 141.578 220.171 142.246 220.053 142.834C219.938 143.423 219.752 143.922 219.494 144.333C219.24 144.743 218.906 145.056 218.491 145.272C218.076 145.488 217.573 145.596 216.98 145.596C216.236 145.596 215.624 145.407 215.146 145.031C214.668 144.65 214.314 144.104 214.086 143.393C213.857 142.678 213.743 141.823 213.743 140.829C213.743 139.826 213.847 138.969 214.054 138.258C214.266 137.543 214.609 136.995 215.083 136.614C215.556 136.233 216.189 136.042 216.98 136.042C217.721 136.042 218.33 136.233 218.809 136.614C219.291 136.99 219.649 137.536 219.881 138.251C220.114 138.962 220.23 139.821 220.23 140.829ZM215.692 140.829C215.692 141.535 215.73 142.126 215.806 142.6C215.887 143.069 216.02 143.423 216.206 143.66C216.392 143.897 216.65 144.015 216.98 144.015C217.306 144.015 217.562 143.899 217.749 143.666C217.939 143.429 218.074 143.076 218.155 142.606C218.235 142.132 218.275 141.54 218.275 140.829C218.275 140.122 218.235 139.532 218.155 139.058C218.074 138.584 217.939 138.228 217.749 137.991C217.562 137.75 217.306 137.629 216.98 137.629C216.65 137.629 216.392 137.75 216.206 137.991C216.02 138.228 215.887 138.584 215.806 139.058C215.73 139.532 215.692 140.122 215.692 140.829ZM227.67 140.829C227.67 141.578 227.611 142.246 227.492 142.834C227.378 143.423 227.192 143.922 226.934 144.333C226.68 144.743 226.345 145.056 225.931 145.272C225.516 145.488 225.012 145.596 224.42 145.596C223.675 145.596 223.064 145.407 222.585 145.031C222.107 144.65 221.754 144.104 221.525 143.393C221.297 142.678 221.183 141.823 221.183 140.829C221.183 139.826 221.286 138.969 221.494 138.258C221.705 137.543 222.048 136.995 222.522 136.614C222.996 136.233 223.629 136.042 224.42 136.042C225.16 136.042 225.77 136.233 226.248 136.614C226.73 136.99 227.088 137.536 227.321 138.251C227.554 138.962 227.67 139.821 227.67 140.829ZM223.131 140.829C223.131 141.535 223.169 142.126 223.246 142.6C223.326 143.069 223.459 143.423 223.646 143.66C223.832 143.897 224.09 144.015 224.42 144.015C224.746 144.015 225.002 143.899 225.188 143.666C225.378 143.429 225.514 143.076 225.594 142.606C225.675 142.132 225.715 141.54 225.715 140.829C225.715 140.122 225.675 139.532 225.594 139.058C225.514 138.584 225.378 138.228 225.188 137.991C225.002 137.75 224.746 137.629 224.42 137.629C224.09 137.629 223.832 137.75 223.646 137.991C223.459 138.228 223.326 138.584 223.246 139.058C223.169 139.532 223.131 140.122 223.131 140.829Z" fill="#007643"/>
<path d="M207.72 157.331C207.72 157.797 207.605 158.198 207.376 158.534C207.15 158.871 206.825 159.129 206.398 159.308C205.976 159.487 205.471 159.576 204.884 159.576C204.597 159.576 204.323 159.56 204.062 159.528C203.801 159.496 203.554 159.449 203.321 159.388C203.092 159.324 202.882 159.247 202.692 159.157V157.943C203.011 158.083 203.367 158.21 203.761 158.325C204.155 158.436 204.556 158.491 204.964 158.491C205.297 158.491 205.573 158.448 205.792 158.362C206.014 158.273 206.178 158.147 206.286 157.986C206.393 157.822 206.447 157.63 206.447 157.412C206.447 157.179 206.384 156.982 206.259 156.821C206.133 156.66 205.944 156.513 205.689 156.38C205.439 156.244 205.124 156.099 204.744 155.945C204.486 155.841 204.239 155.723 204.003 155.591C203.77 155.458 203.562 155.303 203.38 155.124C203.197 154.944 203.052 154.733 202.945 154.49C202.841 154.243 202.789 153.953 202.789 153.62C202.789 153.176 202.895 152.796 203.106 152.481C203.321 152.166 203.622 151.924 204.008 151.756C204.399 151.588 204.853 151.503 205.373 151.503C205.784 151.503 206.171 151.546 206.533 151.632C206.898 151.718 207.256 151.84 207.607 151.998L207.199 153.034C206.876 152.902 206.563 152.796 206.259 152.717C205.958 152.639 205.65 152.599 205.335 152.599C205.063 152.599 204.832 152.64 204.642 152.723C204.452 152.805 204.307 152.921 204.207 153.072C204.11 153.219 204.062 153.394 204.062 153.598C204.062 153.827 204.118 154.021 204.229 154.178C204.343 154.332 204.519 154.474 204.755 154.603C204.995 154.731 205.303 154.875 205.679 155.032C206.112 155.211 206.479 155.399 206.78 155.596C207.084 155.793 207.317 156.029 207.478 156.305C207.639 156.577 207.72 156.919 207.72 157.331ZM212.624 159.469L210.362 152.911H210.314C210.325 153.057 210.337 153.258 210.352 153.512C210.366 153.766 210.378 154.039 210.389 154.329C210.4 154.619 210.405 154.896 210.405 155.161V159.469H209.234V151.616H211.044L213.22 157.884H213.252L215.502 151.616H217.307V159.469H216.077V155.097C216.077 154.857 216.081 154.597 216.088 154.318C216.099 154.039 216.109 153.774 216.12 153.523C216.134 153.272 216.145 153.072 216.152 152.921H216.109L213.762 159.469H212.624ZM223.908 157.331C223.908 157.797 223.794 158.198 223.564 158.534C223.339 158.871 223.013 159.129 222.587 159.308C222.164 159.487 221.66 159.576 221.072 159.576C220.786 159.576 220.512 159.56 220.25 159.528C219.989 159.496 219.742 159.449 219.509 159.388C219.28 159.324 219.071 159.247 218.881 159.157V157.943C219.2 158.083 219.556 158.21 219.95 158.325C220.344 158.436 220.745 158.491 221.153 158.491C221.486 158.491 221.762 158.448 221.98 158.362C222.202 158.273 222.367 158.147 222.474 157.986C222.582 157.822 222.635 157.63 222.635 157.412C222.635 157.179 222.573 156.982 222.447 156.821C222.322 156.66 222.132 156.513 221.878 156.38C221.627 156.244 221.312 156.099 220.933 155.945C220.675 155.841 220.428 155.723 220.191 155.591C219.959 155.458 219.751 155.303 219.568 155.124C219.386 154.944 219.241 154.733 219.133 154.49C219.029 154.243 218.978 153.953 218.978 153.62C218.978 153.176 219.083 152.796 219.294 152.481C219.509 152.166 219.81 151.924 220.197 151.756C220.587 151.588 221.042 151.503 221.561 151.503C221.973 151.503 222.36 151.546 222.721 151.632C223.086 151.718 223.444 151.84 223.795 151.998L223.387 153.034C223.065 152.902 222.752 152.796 222.447 152.717C222.146 152.639 221.839 152.599 221.523 152.599C221.251 152.599 221.02 152.64 220.831 152.723C220.641 152.805 220.496 152.921 220.396 153.072C220.299 153.219 220.25 153.394 220.25 153.598C220.25 153.827 220.306 154.021 220.417 154.178C220.532 154.332 220.707 154.474 220.943 154.603C221.183 154.731 221.491 154.875 221.867 155.032C222.3 155.211 222.667 155.399 222.968 155.596C223.273 155.793 223.505 156.029 223.667 156.305C223.828 156.577 223.908 156.919 223.908 157.331ZM202.171 173.469H196.854V172.518L198.89 170.456C199.284 170.055 199.608 169.709 199.862 169.419C200.116 169.125 200.304 168.848 200.426 168.586C200.551 168.325 200.614 168.04 200.614 167.732C200.614 167.353 200.505 167.066 200.286 166.873C200.068 166.676 199.779 166.578 199.421 166.578C199.081 166.578 198.766 166.646 198.476 166.782C198.19 166.914 197.892 167.104 197.584 167.351L196.892 166.519C197.11 166.332 197.343 166.162 197.59 166.008C197.84 165.854 198.12 165.733 198.428 165.643C198.736 165.55 199.087 165.503 199.48 165.503C199.978 165.503 200.408 165.593 200.77 165.772C201.131 165.947 201.409 166.193 201.602 166.508C201.799 166.823 201.897 167.19 201.897 167.609C201.897 168.031 201.813 168.422 201.645 168.78C201.477 169.138 201.237 169.492 200.925 169.843C200.614 170.191 200.243 170.568 199.813 170.977L198.455 172.303V172.362H202.171V173.469ZM208.751 171.745H207.688V173.469H206.441V171.745H202.87V170.789L206.458 165.595H207.688V170.697H208.751V171.745ZM206.441 170.697V168.748C206.441 168.586 206.443 168.424 206.447 168.259C206.454 168.09 206.461 167.929 206.468 167.775C206.475 167.621 206.483 167.48 206.49 167.351C206.497 167.219 206.502 167.109 206.506 167.023H206.463C206.395 167.167 206.32 167.313 206.237 167.464C206.155 167.611 206.067 167.754 205.974 167.894L204.041 170.697H206.441ZM219.031 173.469H217.748V169.924H214.127V173.469H212.838V165.616H214.127V168.828H217.748V165.616H219.031V173.469ZM223.994 167.41C224.094 167.41 224.204 167.416 224.322 167.426C224.44 167.437 224.542 167.451 224.628 167.469L224.51 168.651C224.435 168.629 224.341 168.613 224.23 168.603C224.123 168.592 224.026 168.586 223.94 168.586C223.715 168.586 223.5 168.624 223.296 168.699C223.092 168.771 222.911 168.882 222.753 169.032C222.596 169.179 222.472 169.363 222.383 169.585C222.293 169.807 222.249 170.065 222.249 170.359V173.469H220.981V167.523H221.969L222.141 168.57H222.2C222.318 168.359 222.465 168.166 222.641 167.99C222.816 167.815 223.017 167.675 223.242 167.571C223.471 167.464 223.722 167.41 223.994 167.41ZM229.725 171.771C229.725 172.162 229.63 172.491 229.44 172.76C229.251 173.028 228.973 173.232 228.608 173.372C228.246 173.508 227.802 173.576 227.276 173.576C226.861 173.576 226.502 173.546 226.202 173.485C225.904 173.428 225.623 173.338 225.358 173.216V172.126C225.641 172.258 225.958 172.373 226.309 172.47C226.664 172.566 226.998 172.615 227.313 172.615C227.729 172.615 228.028 172.55 228.21 172.421C228.393 172.289 228.484 172.113 228.484 171.895C228.484 171.766 228.447 171.652 228.372 171.551C228.3 171.447 228.164 171.342 227.963 171.234C227.766 171.123 227.476 170.991 227.093 170.837C226.717 170.687 226.4 170.536 226.143 170.386C225.885 170.235 225.69 170.055 225.557 169.843C225.425 169.628 225.358 169.354 225.358 169.021C225.358 168.495 225.566 168.096 225.981 167.824C226.4 167.548 226.954 167.41 227.641 167.41C228.006 167.41 228.35 167.448 228.672 167.523C228.998 167.595 229.317 167.7 229.628 167.84L229.231 168.791C228.962 168.672 228.692 168.576 228.42 168.5C228.151 168.422 227.877 168.382 227.598 168.382C227.272 168.382 227.023 168.432 226.852 168.533C226.683 168.633 226.599 168.776 226.599 168.962C226.599 169.102 226.64 169.22 226.723 169.317C226.805 169.414 226.946 169.51 227.147 169.607C227.351 169.704 227.634 169.824 227.996 169.967C228.35 170.103 228.656 170.246 228.914 170.396C229.175 170.543 229.376 170.724 229.516 170.939C229.655 171.154 229.725 171.431 229.725 171.771Z" fill="#303030"/>
<rect x="145.305" y="228.891" width="109.883" height="29.4531" rx="14.7266" fill="#3E4095"/>
<path d="M172.414 239.551L169.42 248.117H167.932L164.938 239.551H166.379L168.184 244.918C168.238 245.074 168.297 245.264 168.359 245.486C168.426 245.709 168.486 245.934 168.541 246.16C168.6 246.387 168.645 246.588 168.676 246.764C168.707 246.588 168.75 246.387 168.805 246.16C168.863 245.934 168.924 245.709 168.986 245.486C169.049 245.264 169.107 245.072 169.162 244.912L170.973 239.551H172.414ZM174.775 241.631V248.117H173.398V241.631H174.775ZM174.096 239.146C174.307 239.146 174.488 239.203 174.641 239.316C174.797 239.43 174.875 239.625 174.875 239.902C174.875 240.176 174.797 240.371 174.641 240.488C174.488 240.602 174.307 240.658 174.096 240.658C173.877 240.658 173.691 240.602 173.539 240.488C173.391 240.371 173.316 240.176 173.316 239.902C173.316 239.625 173.391 239.43 173.539 239.316C173.691 239.203 173.877 239.146 174.096 239.146ZM179.334 241.508C179.912 241.508 180.408 241.627 180.822 241.865C181.236 242.104 181.555 242.441 181.777 242.879C182 243.316 182.111 243.84 182.111 244.449V245.188H177.781C177.797 245.816 177.965 246.301 178.285 246.641C178.609 246.98 179.062 247.15 179.645 247.15C180.059 247.15 180.43 247.111 180.758 247.033C181.09 246.951 181.432 246.832 181.783 246.676V247.795C181.459 247.947 181.129 248.059 180.793 248.129C180.457 248.199 180.055 248.234 179.586 248.234C178.949 248.234 178.389 248.111 177.904 247.865C177.424 247.615 177.047 247.244 176.773 246.752C176.504 246.26 176.369 245.648 176.369 244.918C176.369 244.191 176.492 243.574 176.738 243.066C176.984 242.559 177.33 242.172 177.775 241.906C178.221 241.641 178.74 241.508 179.334 241.508ZM179.334 242.545C178.9 242.545 178.549 242.686 178.279 242.967C178.014 243.248 177.857 243.66 177.811 244.203H180.764C180.76 243.879 180.705 243.592 180.6 243.342C180.498 243.092 180.342 242.896 180.131 242.756C179.924 242.615 179.658 242.545 179.334 242.545ZM188.967 248.111L188.146 245.094C188.107 244.945 188.061 244.766 188.006 244.555C187.951 244.344 187.896 244.127 187.842 243.904C187.787 243.678 187.736 243.469 187.689 243.277C187.646 243.086 187.613 242.938 187.59 242.832H187.543C187.523 242.938 187.492 243.086 187.449 243.277C187.406 243.469 187.357 243.678 187.303 243.904C187.248 244.131 187.193 244.352 187.139 244.566C187.088 244.781 187.041 244.965 186.998 245.117L186.137 248.111H184.625L182.809 241.625H184.203L185.047 244.848C185.102 245.066 185.154 245.303 185.205 245.557C185.26 245.811 185.307 246.053 185.346 246.283C185.385 246.514 185.414 246.703 185.434 246.852H185.48C185.496 246.746 185.518 246.613 185.545 246.453C185.572 246.289 185.604 246.119 185.639 245.943C185.674 245.764 185.709 245.596 185.744 245.439C185.779 245.279 185.812 245.15 185.844 245.053L186.84 241.625H188.346L189.301 245.053C189.344 245.201 189.391 245.389 189.441 245.615C189.492 245.838 189.537 246.062 189.576 246.289C189.619 246.512 189.646 246.697 189.658 246.846H189.705C189.721 246.713 189.748 246.533 189.787 246.307C189.83 246.076 189.879 245.832 189.934 245.574C189.988 245.312 190.045 245.07 190.104 244.848L190.965 241.625H192.336L190.508 248.111H188.967ZM203.662 243.752C203.662 244.717 203.482 245.523 203.123 246.172C202.764 246.816 202.242 247.303 201.559 247.631C200.875 247.955 200.051 248.117 199.086 248.117H196.707V239.551H199.344C200.23 239.551 200.996 239.711 201.641 240.031C202.285 240.348 202.783 240.818 203.135 241.443C203.486 242.064 203.662 242.834 203.662 243.752ZM202.197 243.793C202.197 243.09 202.086 242.512 201.863 242.059C201.645 241.605 201.32 241.27 200.891 241.051C200.465 240.828 199.939 240.717 199.314 240.717H198.113V246.939H199.109C200.145 246.939 200.918 246.676 201.43 246.148C201.941 245.621 202.197 244.836 202.197 243.793ZM207.951 241.508C208.529 241.508 209.025 241.627 209.439 241.865C209.854 242.104 210.172 242.441 210.395 242.879C210.617 243.316 210.729 243.84 210.729 244.449V245.188H206.398C206.414 245.816 206.582 246.301 206.902 246.641C207.227 246.98 207.68 247.15 208.262 247.15C208.676 247.15 209.047 247.111 209.375 247.033C209.707 246.951 210.049 246.832 210.4 246.676V247.795C210.076 247.947 209.746 248.059 209.41 248.129C209.074 248.199 208.672 248.234 208.203 248.234C207.566 248.234 207.006 248.111 206.521 247.865C206.041 247.615 205.664 247.244 205.391 246.752C205.121 246.26 204.986 245.648 204.986 244.918C204.986 244.191 205.109 243.574 205.355 243.066C205.602 242.559 205.947 242.172 206.393 241.906C206.838 241.641 207.357 241.508 207.951 241.508ZM207.951 242.545C207.518 242.545 207.166 242.686 206.896 242.967C206.631 243.248 206.475 243.66 206.428 244.203H209.381C209.377 243.879 209.322 243.592 209.217 243.342C209.115 243.092 208.959 242.896 208.748 242.756C208.541 242.615 208.275 242.545 207.951 242.545ZM214.695 247.121C214.875 247.121 215.053 247.105 215.229 247.074C215.404 247.039 215.564 246.998 215.709 246.951V247.994C215.557 248.061 215.359 248.117 215.117 248.164C214.875 248.211 214.623 248.234 214.361 248.234C213.994 248.234 213.664 248.174 213.371 248.053C213.078 247.928 212.846 247.715 212.674 247.414C212.502 247.113 212.416 246.697 212.416 246.166V242.68H211.531V242.064L212.48 241.578L212.932 240.189H213.799V241.631H215.656V242.68H213.799V246.148C213.799 246.477 213.881 246.721 214.045 246.881C214.209 247.041 214.426 247.121 214.695 247.121ZM219.57 241.508C220.391 241.508 221.01 241.689 221.428 242.053C221.85 242.416 222.061 242.982 222.061 243.752V248.117H221.082L220.818 247.197H220.771C220.588 247.432 220.398 247.625 220.203 247.777C220.008 247.93 219.781 248.043 219.523 248.117C219.27 248.195 218.959 248.234 218.592 248.234C218.205 248.234 217.859 248.164 217.555 248.023C217.25 247.879 217.01 247.66 216.834 247.367C216.658 247.074 216.57 246.703 216.57 246.254C216.57 245.586 216.818 245.084 217.314 244.748C217.814 244.412 218.568 244.227 219.576 244.191L220.701 244.15V243.811C220.701 243.361 220.596 243.041 220.385 242.85C220.178 242.658 219.885 242.562 219.506 242.562C219.182 242.562 218.867 242.609 218.562 242.703C218.258 242.797 217.961 242.912 217.672 243.049L217.227 242.076C217.543 241.908 217.902 241.771 218.305 241.666C218.711 241.561 219.133 241.508 219.57 241.508ZM220.695 245.018L219.857 245.047C219.17 245.07 218.688 245.188 218.41 245.398C218.133 245.609 217.994 245.898 217.994 246.266C217.994 246.586 218.09 246.82 218.281 246.969C218.473 247.113 218.725 247.186 219.037 247.186C219.514 247.186 219.908 247.051 220.221 246.781C220.537 246.508 220.695 246.107 220.695 245.58V245.018ZM225.365 241.631V248.117H223.988V241.631H225.365ZM224.686 239.146C224.896 239.146 225.078 239.203 225.23 239.316C225.387 239.43 225.465 239.625 225.465 239.902C225.465 240.176 225.387 240.371 225.23 240.488C225.078 240.602 224.896 240.658 224.686 240.658C224.467 240.658 224.281 240.602 224.129 240.488C223.98 240.371 223.906 240.176 223.906 239.902C223.906 239.625 223.98 239.43 224.129 239.316C224.281 239.203 224.467 239.146 224.686 239.146ZM228.723 248.117H227.34V239H228.723V248.117ZM235.051 246.266C235.051 246.691 234.947 247.051 234.74 247.344C234.533 247.637 234.23 247.859 233.832 248.012C233.438 248.16 232.953 248.234 232.379 248.234C231.926 248.234 231.535 248.201 231.207 248.135C230.883 248.072 230.576 247.975 230.287 247.842V246.652C230.596 246.797 230.941 246.922 231.324 247.027C231.711 247.133 232.076 247.186 232.42 247.186C232.873 247.186 233.199 247.115 233.398 246.975C233.598 246.83 233.697 246.639 233.697 246.4C233.697 246.26 233.656 246.135 233.574 246.025C233.496 245.912 233.348 245.797 233.129 245.68C232.914 245.559 232.598 245.414 232.18 245.246C231.77 245.082 231.424 244.918 231.143 244.754C230.861 244.59 230.648 244.393 230.504 244.162C230.359 243.928 230.287 243.629 230.287 243.266C230.287 242.691 230.514 242.256 230.967 241.959C231.424 241.658 232.027 241.508 232.777 241.508C233.176 241.508 233.551 241.549 233.902 241.631C234.258 241.709 234.605 241.824 234.945 241.977L234.512 243.014C234.219 242.885 233.924 242.779 233.627 242.697C233.334 242.611 233.035 242.568 232.73 242.568C232.375 242.568 232.104 242.623 231.916 242.732C231.732 242.842 231.641 242.998 231.641 243.201C231.641 243.354 231.686 243.482 231.775 243.588C231.865 243.693 232.02 243.799 232.238 243.904C232.461 244.01 232.77 244.141 233.164 244.297C233.551 244.445 233.885 244.602 234.166 244.766C234.451 244.926 234.67 245.123 234.822 245.357C234.975 245.592 235.051 245.895 235.051 246.266Z" fill="white"/>
<path d="M59.3931 103.933H57.6503C57.6496 103.24 57.374 102.575 56.8839 102.085C56.3938 101.595 55.7292 101.319 55.0361 101.319V99.5757C56.1912 99.5771 57.2987 100.037 58.1154 100.853C58.9322 101.67 59.3917 102.778 59.3931 103.933Z" fill="#303030"/>
<path d="M62.8785 103.933H61.1357C61.1339 102.316 60.4906 100.765 59.3471 99.6215C58.2036 98.478 56.6531 97.8348 55.0359 97.8329V96.0901C57.1152 96.0925 59.1086 96.9195 60.5789 98.3897C62.0492 99.86 62.8762 101.853 62.8785 103.933ZM61.1357 117.875H60.9876C43.8647 116.89 41.4335 102.443 41.0936 98.0334C41.0405 97.3421 41.2641 96.6581 41.7153 96.1317C42.1665 95.6054 42.8083 95.2798 43.4995 95.2266C43.5687 95.2214 43.6381 95.2188 43.7078 95.2188H48.3001C48.6491 95.2184 48.9902 95.3229 49.2792 95.5187C49.5682 95.7144 49.7917 95.9924 49.9209 96.3167L51.2454 99.5757C51.3729 99.8925 51.4045 100.24 51.3364 100.574C51.2682 100.909 51.1032 101.216 50.862 101.458L49.0059 103.331C49.2946 104.98 50.0833 106.499 51.2648 107.684C52.4464 108.868 53.9637 109.661 55.6111 109.954L57.502 108.081C57.7473 107.842 58.0574 107.681 58.3937 107.617C58.7299 107.554 59.0775 107.591 59.3929 107.723L62.6781 109.039C62.9974 109.172 63.2699 109.398 63.4608 109.686C63.6517 109.975 63.7523 110.314 63.7499 110.66V115.261C63.7499 115.954 63.4745 116.619 62.9842 117.109C62.4939 117.6 61.829 117.875 61.1357 117.875ZM43.7078 96.9615C43.5934 96.9612 43.48 96.9834 43.3741 97.0269C43.2683 97.0703 43.172 97.1342 43.0909 97.2149C43.0097 97.2956 42.9452 97.3915 42.9011 97.497C42.857 97.6026 42.8341 97.7159 42.8338 97.8303C42.8338 97.8547 42.8347 97.8788 42.8364 97.9026C43.2373 103.061 45.8079 115.261 61.0834 116.132C61.314 116.146 61.5407 116.068 61.7136 115.914C61.8865 115.761 61.9914 115.545 62.0053 115.315L62.0071 115.261V110.66L58.7219 109.344L56.221 111.828L55.8028 111.775C48.2216 110.825 47.1934 103.244 47.1934 103.166L47.1411 102.748L49.6159 100.247L48.3088 96.9615H43.7078Z" fill="#303030"/>
<path d="M146.62 103.933H144.877C144.876 103.24 144.601 102.575 144.11 102.085C143.62 101.595 142.956 101.319 142.263 101.319V99.5757C143.418 99.5771 144.525 100.037 145.342 100.853C146.159 101.67 146.618 102.778 146.62 103.933Z" fill="#303030"/>
<path d="M150.105 103.933H148.362C148.36 102.316 147.717 100.765 146.574 99.6215C145.43 98.478 143.88 97.8348 142.262 97.8329V96.0901C144.342 96.0925 146.335 96.9195 147.805 98.3897C149.276 99.86 150.103 101.853 150.105 103.933ZM148.362 117.875H148.214C131.091 116.89 128.66 102.443 128.32 98.0334C128.267 97.3421 128.491 96.6581 128.942 96.1317C129.393 95.6054 130.035 95.2798 130.726 95.2266C130.795 95.2214 130.865 95.2188 130.934 95.2188H135.527C135.876 95.2184 136.217 95.3229 136.506 95.5187C136.795 95.7144 137.018 95.9924 137.147 96.3167L138.472 99.5757C138.599 99.8925 138.631 100.24 138.563 100.574C138.495 100.909 138.33 101.216 138.089 101.458L136.232 103.331C136.521 104.98 137.31 106.499 138.491 107.684C139.673 108.868 141.19 109.661 142.838 109.954L144.729 108.081C144.974 107.842 145.284 107.681 145.62 107.617C145.956 107.554 146.304 107.591 146.619 107.723L149.905 109.039C150.224 109.172 150.497 109.398 150.687 109.686C150.878 109.975 150.979 110.314 150.976 110.66V115.261C150.976 115.954 150.701 116.619 150.211 117.109C149.721 117.6 149.056 117.875 148.362 117.875ZM130.934 96.9615C130.82 96.9612 130.707 96.9834 130.601 97.0269C130.495 97.0703 130.399 97.1342 130.317 97.2149C130.236 97.2956 130.172 97.3915 130.128 97.497C130.084 97.6026 130.061 97.7159 130.06 97.8303C130.06 97.8547 130.061 97.8788 130.063 97.9026C130.464 103.061 133.034 115.261 148.31 116.132C148.541 116.146 148.767 116.068 148.94 115.914C149.113 115.761 149.218 115.545 149.232 115.315L149.234 115.261V110.66L145.948 109.344L143.448 111.828L143.029 111.775C135.448 110.825 134.42 103.244 134.42 103.166L134.368 102.748L136.842 100.247L135.535 96.9615H130.934Z" fill="#303030"/>
<path d="M201.945 101.449C201.945 100.698 202.259 99.9778 202.816 99.4467C203.374 98.9156 204.13 98.6172 204.919 98.6172H222.761C223.549 98.6172 224.306 98.9156 224.863 99.4467C225.421 99.9778 225.734 100.698 225.734 101.449V112.777C225.734 113.528 225.421 114.249 224.863 114.78C224.306 115.311 223.549 115.609 222.761 115.609H204.919C204.13 115.609 203.374 115.311 202.816 114.78C202.259 114.249 201.945 113.528 201.945 112.777V101.449ZM204.919 100.033C204.525 100.033 204.146 100.182 203.868 100.448C203.589 100.713 203.432 101.074 203.432 101.449V101.756L213.84 107.704L224.248 101.756V101.449C224.248 101.074 224.091 100.713 223.812 100.448C223.533 100.182 223.155 100.033 222.761 100.033H204.919ZM224.248 103.408L217.248 107.408L224.248 111.51V103.408ZM224.197 113.144L215.811 108.229L213.84 109.355L211.868 108.229L203.483 113.143C203.567 113.444 203.754 113.71 204.013 113.9C204.273 114.09 204.591 114.193 204.919 114.193H222.761C223.088 114.193 223.406 114.091 223.666 113.901C223.926 113.711 224.112 113.445 224.197 113.144ZM203.432 111.51L210.432 107.408L203.432 103.408V111.51Z" fill="#303030"/>
</svg>
