<svg width="117" height="116" viewBox="0 0 117 116" fill="none" xmlns="http://www.w3.org/2000/svg">
<path d="M82.0651 44.5756L66.674 29.1603C66.2551 28.7513 65.6924 28.5239 65.1074 28.5272H38.7227C37.5564 28.5272 36.4379 28.9912 35.6132 29.8172C34.7885 30.6432 34.3252 31.7634 34.3252 32.9315V81.3795C34.3252 82.5476 34.7885 83.6679 35.6132 84.4939C36.4379 85.3199 37.5564 85.7839 38.7227 85.7839H78.2998C79.4661 85.7839 80.5846 85.3199 81.4093 84.4939C82.234 83.6679 82.6973 82.5476 82.6973 81.3795V46.1446C82.7006 45.5587 82.4735 44.9951 82.0651 44.5756ZM78.2998 81.3795H38.7227V32.9315H64.2004L78.2998 47.053V81.3795Z" fill="#007643"/>
<path d="M71.6263 52.7132H45.3954C44.8156 52.7132 44.2596 52.9448 43.8497 53.3572C43.4398 53.7695 43.2095 54.3288 43.2095 54.9119V74.7005C43.2095 75.2836 43.4398 75.8429 43.8497 76.2552C44.2596 76.6676 44.8156 76.8992 45.3954 76.8992H71.6263C72.2061 76.8992 72.7621 76.6676 73.172 76.2552C73.5819 75.8429 73.8122 75.2836 73.8122 74.7005V54.9119C73.8122 54.3288 73.5819 53.7695 73.172 53.3572C72.7621 52.9448 72.2061 52.7132 71.6263 52.7132ZM56.3249 70.303C56.3249 70.8862 56.0946 71.4454 55.6847 71.8578C55.2748 72.2701 54.7188 72.5018 54.139 72.5018C53.5593 72.5018 53.0033 72.2701 52.5934 71.8578C52.1834 71.4454 51.9531 70.8862 51.9531 70.303V59.3094C51.9531 58.7262 52.1834 58.167 52.5934 57.7546C53.0033 57.3423 53.5593 57.1106 54.139 57.1106C54.7188 57.1106 55.2748 57.3423 55.6847 57.7546C56.0946 58.167 56.3249 58.7262 56.3249 59.3094V70.303ZM65.0686 70.303C65.0686 70.8862 64.8383 71.4454 64.4283 71.8578C64.0184 72.2701 63.4624 72.5018 62.8827 72.5018C62.3029 72.5018 61.7469 72.2701 61.337 71.8578C60.9271 71.4454 60.6968 70.8862 60.6968 70.303V59.3094C60.6968 58.7262 60.9271 58.167 61.337 57.7546C61.7469 57.3423 62.3029 57.1106 62.8827 57.1106C63.4624 57.1106 64.0184 57.3423 64.4283 57.7546C64.8383 58.167 65.0686 58.7262 65.0686 59.3094V70.303Z" fill="#007643"/>
<circle cx="58.5113" cy="57.6744" r="56.6744" stroke="#007643" stroke-width="2"/>
</svg>
