<svg width="264" height="281" viewBox="0 0 264 281" fill="none" xmlns="http://www.w3.org/2000/svg">
<rect width="263.945" height="280.938" rx="10" fill="white"/>
<path d="M21.7646 20.2354C21.7646 21.361 21.5596 22.3021 21.1494 23.0586C20.7393 23.8105 20.1445 24.3779 19.3652 24.7607C18.5905 25.139 17.6494 25.3281 16.542 25.3281H13.8281V15.334H16.8428C17.859 15.334 18.734 15.5208 19.4678 15.8945C20.2015 16.2637 20.7666 16.8128 21.1631 17.542C21.5641 18.2666 21.7646 19.1644 21.7646 20.2354ZM20.541 20.2764C20.541 19.3786 20.3906 18.638 20.0898 18.0547C19.7936 17.4714 19.3561 17.0384 18.7773 16.7559C18.2031 16.4688 17.499 16.3252 16.665 16.3252H14.9902V24.3301H16.4053C17.7816 24.3301 18.8138 23.9906 19.502 23.3115C20.1947 22.6325 20.541 21.6208 20.541 20.2764ZM26.6182 17.7129C27.5114 17.7129 28.1745 17.9134 28.6074 18.3145C29.0404 18.7155 29.2568 19.3558 29.2568 20.2354V25.3281H28.4297L28.2109 24.2207H28.1562C27.9466 24.4941 27.7279 24.7243 27.5 24.9111C27.2721 25.0934 27.0078 25.2324 26.707 25.3281C26.4108 25.4193 26.0462 25.4648 25.6133 25.4648C25.1576 25.4648 24.752 25.3851 24.3965 25.2256C24.0456 25.0661 23.7676 24.8245 23.5625 24.501C23.362 24.1774 23.2617 23.7673 23.2617 23.2705C23.2617 22.5231 23.5579 21.9489 24.1504 21.5479C24.7428 21.1468 25.6452 20.9281 26.8574 20.8916L28.1494 20.8369V20.3789C28.1494 19.7318 28.0104 19.2783 27.7324 19.0186C27.4544 18.7588 27.0625 18.6289 26.5566 18.6289C26.1647 18.6289 25.791 18.6859 25.4355 18.7998C25.0801 18.9137 24.7428 19.0482 24.4238 19.2031L24.0752 18.3418C24.4124 18.1686 24.7998 18.0205 25.2373 17.8975C25.6748 17.7744 26.1351 17.7129 26.6182 17.7129ZM28.1357 21.6367L26.9941 21.6846C26.0599 21.721 25.4014 21.8737 25.0186 22.1426C24.6357 22.4115 24.4443 22.792 24.4443 23.2842C24.4443 23.7126 24.5742 24.0293 24.834 24.2344C25.0938 24.4395 25.4378 24.542 25.8662 24.542C26.5316 24.542 27.0762 24.3574 27.5 23.9883C27.9238 23.6191 28.1357 23.0654 28.1357 22.3271V21.6367ZM32.7295 17.8359V25.3281H31.5947V17.8359H32.7295ZM32.1758 15.0332C32.3626 15.0332 32.5221 15.0947 32.6543 15.2178C32.791 15.3363 32.8594 15.5231 32.8594 15.7783C32.8594 16.029 32.791 16.2158 32.6543 16.3389C32.5221 16.4619 32.3626 16.5234 32.1758 16.5234C31.9798 16.5234 31.8158 16.4619 31.6836 16.3389C31.556 16.2158 31.4922 16.029 31.4922 15.7783C31.4922 15.5231 31.556 15.3363 31.6836 15.2178C31.8158 15.0947 31.9798 15.0332 32.1758 15.0332ZM36.2773 25.3281H35.1357V14.6914H36.2773V25.3281ZM37.4941 17.8359H38.7109L40.3652 22.1836C40.4609 22.4388 40.5498 22.6849 40.6318 22.9219C40.7139 23.1543 40.7868 23.3776 40.8506 23.5918C40.9144 23.806 40.9645 24.0133 41.001 24.2139H41.0488C41.1126 23.986 41.2038 23.6875 41.3223 23.3184C41.4408 22.9447 41.5684 22.5641 41.7051 22.1768L43.2705 17.8359H44.4941L41.2334 26.4287C41.0602 26.889 40.8574 27.29 40.625 27.6318C40.3971 27.9736 40.1191 28.2357 39.791 28.418C39.4629 28.6048 39.0664 28.6982 38.6016 28.6982C38.3874 28.6982 38.1982 28.6846 38.0342 28.6572C37.8701 28.6344 37.7288 28.6071 37.6104 28.5752V27.666C37.7106 27.6888 37.8314 27.7093 37.9727 27.7275C38.1185 27.7458 38.2689 27.7549 38.4238 27.7549C38.7064 27.7549 38.9502 27.7002 39.1553 27.5908C39.3649 27.486 39.5449 27.3311 39.6953 27.126C39.8457 26.9209 39.9756 26.6771 40.085 26.3945L40.4951 25.3418L37.4941 17.8359Z" fill="#007643"/>
<path d="M18.75 36.7578C18.2865 36.7578 17.875 36.849 17.5156 37.0312C17.1615 37.2083 16.862 37.4661 16.6172 37.8047C16.3776 38.1432 16.1953 38.5521 16.0703 39.0312C15.9453 39.5104 15.8828 40.0495 15.8828 40.6484C15.8828 41.4557 15.9818 42.1458 16.1797 42.7188C16.3828 43.2865 16.6953 43.7214 17.1172 44.0234C17.5391 44.3203 18.0833 44.4688 18.75 44.4688C19.2135 44.4688 19.6771 44.4167 20.1406 44.3125C20.6094 44.2083 21.1172 44.0599 21.6641 43.8672V45.8984C21.1589 46.1068 20.6615 46.2552 20.1719 46.3438C19.6823 46.4375 19.1328 46.4844 18.5234 46.4844C17.3464 46.4844 16.3776 46.2422 15.6172 45.7578C14.862 45.2682 14.3021 44.5859 13.9375 43.7109C13.5729 42.8307 13.3906 41.8047 13.3906 40.6328C13.3906 39.7682 13.5078 38.9766 13.7422 38.2578C13.9766 37.5391 14.3203 36.9167 14.7734 36.3906C15.2266 35.8646 15.7865 35.4583 16.4531 35.1719C17.1198 34.8854 17.8854 34.7422 18.75 34.7422C19.3177 34.7422 19.8854 34.8151 20.4531 34.9609C21.026 35.1016 21.5729 35.2969 22.0938 35.5469L21.3125 37.5156C20.8854 37.3125 20.4557 37.1354 20.0234 36.9844C19.5911 36.8333 19.1667 36.7578 18.75 36.7578ZM34.4688 40.6016C34.4688 41.4818 34.3594 42.2839 34.1406 43.0078C33.9219 43.7266 33.5885 44.3464 33.1406 44.8672C32.6979 45.388 32.1354 45.7891 31.4531 46.0703C30.7708 46.3464 29.9635 46.4844 29.0312 46.4844C28.099 46.4844 27.2917 46.3464 26.6094 46.0703C25.9271 45.7891 25.362 45.388 24.9141 44.8672C24.4714 44.3464 24.1406 43.724 23.9219 43C23.7031 42.276 23.5938 41.4714 23.5938 40.5859C23.5938 39.4036 23.7865 38.375 24.1719 37.5C24.5625 36.6198 25.1615 35.9375 25.9688 35.4531C26.776 34.9688 27.8021 34.7266 29.0469 34.7266C30.2865 34.7266 31.3047 34.9688 32.1016 35.4531C32.9036 35.9375 33.4974 36.6198 33.8828 37.5C34.2734 38.3802 34.4688 39.4141 34.4688 40.6016ZM26.1328 40.6016C26.1328 41.3984 26.2318 42.0859 26.4297 42.6641C26.6328 43.237 26.9479 43.6797 27.375 43.9922C27.8021 44.2995 28.3542 44.4531 29.0312 44.4531C29.7188 44.4531 30.276 44.2995 30.7031 43.9922C31.1302 43.6797 31.4401 43.237 31.6328 42.6641C31.8307 42.0859 31.9297 41.3984 31.9297 40.6016C31.9297 39.4036 31.7057 38.4609 31.2578 37.7734C30.8099 37.0859 30.0729 36.7422 29.0469 36.7422C28.3646 36.7422 27.8073 36.8984 27.375 37.2109C26.9479 37.5182 26.6328 37.9609 26.4297 38.5391C26.2318 39.112 26.1328 39.7995 26.1328 40.6016ZM45.7969 34.9062L41.9141 46.3281H39.2734L35.3984 34.9062H37.8438L39.9922 41.7031C40.0286 41.8177 40.0885 42.0339 40.1719 42.3516C40.2552 42.6641 40.3385 42.9974 40.4219 43.3516C40.5104 43.7005 40.5703 43.9896 40.6016 44.2188C40.6328 43.9896 40.6875 43.7005 40.7656 43.3516C40.849 43.0026 40.9297 42.6719 41.0078 42.3594C41.0911 42.0417 41.151 41.8229 41.1875 41.7031L43.3516 34.9062H45.7969ZM47.2422 46.3281V34.9062H49.6641V46.3281H47.2422ZM62.0156 40.5078C62.0156 41.7943 61.7682 42.8698 61.2734 43.7344C60.7839 44.5938 60.0729 45.2422 59.1406 45.6797C58.2083 46.112 57.0859 46.3281 55.7734 46.3281H52.5391V34.9062H56.125C57.3229 34.9062 58.362 35.1198 59.2422 35.5469C60.1224 35.9688 60.8047 36.5964 61.2891 37.4297C61.7734 38.2578 62.0156 39.2839 62.0156 40.5078ZM59.5 40.5703C59.5 39.7266 59.375 39.0339 59.125 38.4922C58.8802 37.9453 58.5156 37.5417 58.0312 37.2812C57.5521 37.0208 56.9583 36.8906 56.25 36.8906H54.9609V44.3281H56C57.1823 44.3281 58.0599 44.013 58.6328 43.3828C59.2109 42.7526 59.5 41.8151 59.5 40.5703ZM71.8672 34.9062C72.9036 34.9062 73.7578 35.0312 74.4297 35.2812C75.1068 35.5312 75.6094 35.9089 75.9375 36.4141C76.2656 36.9193 76.4297 37.5573 76.4297 38.3281C76.4297 38.849 76.3307 39.3047 76.1328 39.6953C75.9349 40.0859 75.6745 40.4167 75.3516 40.6875C75.0286 40.9583 74.6797 41.1797 74.3047 41.3516L77.6641 46.3281H74.9766L72.25 41.9453H70.9609V46.3281H68.5391V34.9062H71.8672ZM71.6953 36.8906H70.9609V39.9766H71.7422C72.5443 39.9766 73.1172 39.8438 73.4609 39.5781C73.8099 39.3073 73.9844 38.9115 73.9844 38.3906C73.9844 37.849 73.7969 37.4635 73.4219 37.2344C73.0521 37.0052 72.4766 36.8906 71.6953 36.8906ZM82.5156 37.4297C83.3229 37.4297 84.0182 37.5859 84.6016 37.8984C85.1849 38.2057 85.6354 38.6536 85.9531 39.2422C86.2708 39.8307 86.4297 40.5495 86.4297 41.3984V42.5547H80.7969C80.8229 43.2266 81.0234 43.7552 81.3984 44.1406C81.7786 44.5208 82.3047 44.7109 82.9766 44.7109C83.5339 44.7109 84.0443 44.6536 84.5078 44.5391C84.9714 44.4245 85.4479 44.2526 85.9375 44.0234V45.8672C85.5052 46.0807 85.0521 46.237 84.5781 46.3359C84.1094 46.4349 83.5391 46.4844 82.8672 46.4844C81.9922 46.4844 81.2161 46.3229 80.5391 46C79.8672 45.6771 79.3385 45.1849 78.9531 44.5234C78.5729 43.862 78.3828 43.0286 78.3828 42.0234C78.3828 41.0026 78.5547 40.1536 78.8984 39.4766C79.2474 38.7943 79.7318 38.2839 80.3516 37.9453C80.9714 37.6016 81.6927 37.4297 82.5156 37.4297ZM82.5312 39.125C82.0677 39.125 81.6823 39.2734 81.375 39.5703C81.0729 39.8672 80.8984 40.3333 80.8516 40.9688H84.1953C84.1901 40.6146 84.125 40.2995 84 40.0234C83.8802 39.7474 83.6979 39.5286 83.4531 39.3672C83.2135 39.2057 82.9062 39.125 82.5312 39.125ZM90.75 46.3281H88.3672V34.1719H90.75V46.3281ZM95.6406 37.5938V46.3281H93.2578V37.5938H95.6406ZM94.4531 34.1719C94.8073 34.1719 95.112 34.2552 95.3672 34.4219C95.6224 34.5833 95.75 34.888 95.75 35.3359C95.75 35.7786 95.6224 36.0859 95.3672 36.2578C95.112 36.4245 94.8073 36.5078 94.4531 36.5078C94.0938 36.5078 93.7865 36.4245 93.5312 36.2578C93.2812 36.0859 93.1562 35.7786 93.1562 35.3359C93.1562 34.888 93.2812 34.5833 93.5312 34.4219C93.7865 34.2552 94.0938 34.1719 94.4531 34.1719ZM101.75 37.4297C102.557 37.4297 103.253 37.5859 103.836 37.8984C104.419 38.2057 104.87 38.6536 105.188 39.2422C105.505 39.8307 105.664 40.5495 105.664 41.3984V42.5547H100.031C100.057 43.2266 100.258 43.7552 100.633 44.1406C101.013 44.5208 101.539 44.7109 102.211 44.7109C102.768 44.7109 103.279 44.6536 103.742 44.5391C104.206 44.4245 104.682 44.2526 105.172 44.0234V45.8672C104.74 46.0807 104.286 46.237 103.812 46.3359C103.344 46.4349 102.773 46.4844 102.102 46.4844C101.227 46.4844 100.451 46.3229 99.7734 46C99.1016 45.6771 98.5729 45.1849 98.1875 44.5234C97.8073 43.862 97.6172 43.0286 97.6172 42.0234C97.6172 41.0026 97.7891 40.1536 98.1328 39.4766C98.4818 38.7943 98.9661 38.2839 99.5859 37.9453C100.206 37.6016 100.927 37.4297 101.75 37.4297ZM101.766 39.125C101.302 39.125 100.917 39.2734 100.609 39.5703C100.307 39.8672 100.133 40.3333 100.086 40.9688H103.43C103.424 40.6146 103.359 40.2995 103.234 40.0234C103.115 39.7474 102.932 39.5286 102.688 39.3672C102.448 39.2057 102.141 39.125 101.766 39.125ZM112.43 39.3828H110.367V46.3281H107.984V39.3828H106.672V38.2344L107.984 37.5938V36.9531C107.984 36.2083 108.109 35.6302 108.359 35.2188C108.615 34.8021 108.971 34.5104 109.43 34.3438C109.893 34.1719 110.44 34.0859 111.07 34.0859C111.534 34.0859 111.956 34.125 112.336 34.2031C112.716 34.276 113.026 34.3594 113.266 34.4531L112.656 36.2031C112.474 36.1458 112.276 36.0938 112.062 36.0469C111.849 36 111.604 35.9766 111.328 35.9766C110.995 35.9766 110.75 36.0781 110.594 36.2812C110.443 36.4792 110.367 36.7344 110.367 37.0469V37.5938H112.43V39.3828ZM121.797 34.9062C123.271 34.9062 124.346 35.224 125.023 35.8594C125.701 36.4896 126.039 37.3594 126.039 38.4688C126.039 38.9688 125.964 39.4479 125.812 39.9062C125.661 40.3594 125.414 40.763 125.07 41.1172C124.732 41.4714 124.279 41.7526 123.711 41.9609C123.143 42.1641 122.443 42.2656 121.609 42.2656H120.57V46.3281H118.148V34.9062H121.797ZM121.672 36.8906H120.57V40.2812H121.367C121.82 40.2812 122.214 40.2214 122.547 40.1016C122.88 39.9818 123.138 39.7943 123.32 39.5391C123.503 39.2839 123.594 38.9557 123.594 38.5547C123.594 37.9922 123.438 37.5755 123.125 37.3047C122.812 37.0286 122.328 36.8906 121.672 36.8906ZM131.586 37.4141C132.758 37.4141 133.656 37.6693 134.281 38.1797C134.906 38.6901 135.219 39.4661 135.219 40.5078V46.3281H133.555L133.094 45.1406H133.031C132.781 45.4531 132.526 45.7083 132.266 45.9062C132.005 46.1042 131.706 46.25 131.367 46.3438C131.029 46.4375 130.617 46.4844 130.133 46.4844C129.617 46.4844 129.154 46.3854 128.742 46.1875C128.336 45.9896 128.016 45.6875 127.781 45.2812C127.547 44.8698 127.43 44.349 127.43 43.7188C127.43 42.7917 127.755 42.1094 128.406 41.6719C129.057 41.2292 130.034 40.9844 131.336 40.9375L132.852 40.8906V40.5078C132.852 40.0495 132.732 39.7135 132.492 39.5C132.253 39.2865 131.919 39.1797 131.492 39.1797C131.07 39.1797 130.656 39.2396 130.25 39.3594C129.844 39.4792 129.438 39.6302 129.031 39.8125L128.242 38.2031C128.706 37.9583 129.224 37.7656 129.797 37.625C130.375 37.4844 130.971 37.4141 131.586 37.4141ZM132.852 42.2812L131.93 42.3125C131.159 42.3333 130.622 42.4714 130.32 42.7266C130.023 42.9818 129.875 43.3177 129.875 43.7344C129.875 44.099 129.982 44.3594 130.195 44.5156C130.409 44.6667 130.688 44.7422 131.031 44.7422C131.542 44.7422 131.971 44.5911 132.32 44.2891C132.674 43.987 132.852 43.5573 132.852 43V42.2812ZM141.227 46.4844C140.362 46.4844 139.625 46.3281 139.016 46.0156C138.406 45.6979 137.943 45.2083 137.625 44.5469C137.307 43.8854 137.148 43.0391 137.148 42.0078C137.148 40.9401 137.328 40.0703 137.688 39.3984C138.052 38.7214 138.555 38.224 139.195 37.9062C139.841 37.5885 140.589 37.4297 141.438 37.4297C142.042 37.4297 142.562 37.4896 143 37.6094C143.443 37.724 143.828 37.862 144.156 38.0234L143.453 39.8672C143.078 39.7161 142.729 39.5938 142.406 39.5C142.083 39.401 141.76 39.3516 141.438 39.3516C141.021 39.3516 140.674 39.4505 140.398 39.6484C140.122 39.8411 139.917 40.1328 139.781 40.5234C139.646 40.9141 139.578 41.4036 139.578 41.9922C139.578 42.5703 139.651 43.0495 139.797 43.4297C139.943 43.8099 140.154 44.0938 140.43 44.2812C140.706 44.4635 141.042 44.5547 141.438 44.5547C141.932 44.5547 142.372 44.4896 142.758 44.3594C143.143 44.224 143.518 44.0365 143.883 43.7969V45.8359C143.518 46.0651 143.135 46.2292 142.734 46.3281C142.339 46.4323 141.836 46.4844 141.227 46.4844ZM148.297 34.1719V39.6094C148.297 39.9375 148.284 40.2656 148.258 40.5938C148.232 40.9219 148.203 41.25 148.172 41.5781H148.203C148.365 41.349 148.529 41.1224 148.695 40.8984C148.867 40.6745 149.049 40.4583 149.242 40.25L151.688 37.5938H154.375L150.906 41.3828L154.586 46.3281H151.836L149.32 42.7891L148.297 43.6094V46.3281H145.914V34.1719H148.297ZM159.414 37.4141C160.586 37.4141 161.484 37.6693 162.109 38.1797C162.734 38.6901 163.047 39.4661 163.047 40.5078V46.3281H161.383L160.922 45.1406H160.859C160.609 45.4531 160.354 45.7083 160.094 45.9062C159.833 46.1042 159.534 46.25 159.195 46.3438C158.857 46.4375 158.445 46.4844 157.961 46.4844C157.445 46.4844 156.982 46.3854 156.57 46.1875C156.164 45.9896 155.844 45.6875 155.609 45.2812C155.375 44.8698 155.258 44.349 155.258 43.7188C155.258 42.7917 155.583 42.1094 156.234 41.6719C156.885 41.2292 157.862 40.9844 159.164 40.9375L160.68 40.8906V40.5078C160.68 40.0495 160.56 39.7135 160.32 39.5C160.081 39.2865 159.747 39.1797 159.32 39.1797C158.898 39.1797 158.484 39.2396 158.078 39.3594C157.672 39.4792 157.266 39.6302 156.859 39.8125L156.07 38.2031C156.534 37.9583 157.052 37.7656 157.625 37.625C158.203 37.4844 158.799 37.4141 159.414 37.4141ZM160.68 42.2812L159.758 42.3125C158.987 42.3333 158.451 42.4714 158.148 42.7266C157.852 42.9818 157.703 43.3177 157.703 43.7344C157.703 44.099 157.81 44.3594 158.023 44.5156C158.237 44.6667 158.516 44.7422 158.859 44.7422C159.37 44.7422 159.799 44.5911 160.148 44.2891C160.503 43.987 160.68 43.5573 160.68 43V42.2812ZM168.062 50.1719C166.844 50.1719 165.911 49.9583 165.266 49.5312C164.625 49.1094 164.305 48.5156 164.305 47.75C164.305 47.224 164.469 46.7839 164.797 46.4297C165.125 46.0755 165.607 45.8229 166.242 45.6719C165.997 45.5677 165.784 45.3984 165.602 45.1641C165.419 44.9245 165.328 44.6719 165.328 44.4062C165.328 44.0729 165.424 43.7969 165.617 43.5781C165.81 43.3542 166.089 43.1354 166.453 42.9219C165.995 42.724 165.63 42.4062 165.359 41.9688C165.094 41.5312 164.961 41.0156 164.961 40.4219C164.961 39.7865 165.099 39.2474 165.375 38.8047C165.656 38.3568 166.062 38.0156 166.594 37.7812C167.13 37.5469 167.781 37.4297 168.547 37.4297C168.708 37.4297 168.896 37.4401 169.109 37.4609C169.323 37.4818 169.518 37.5052 169.695 37.5312C169.878 37.5573 170 37.5781 170.062 37.5938H173.109V38.8047L171.742 39.1562C171.867 39.349 171.961 39.5547 172.023 39.7734C172.086 39.9922 172.117 40.224 172.117 40.4688C172.117 41.4062 171.789 42.138 171.133 42.6641C170.482 43.1849 169.576 43.4453 168.414 43.4453C168.138 43.4297 167.878 43.4089 167.633 43.3828C167.513 43.4766 167.422 43.5755 167.359 43.6797C167.297 43.7839 167.266 43.8932 167.266 44.0078C167.266 44.1224 167.312 44.2188 167.406 44.2969C167.505 44.3698 167.651 44.4271 167.844 44.4688C168.042 44.5052 168.286 44.5234 168.578 44.5234H170.062C171.021 44.5234 171.75 44.7292 172.25 45.1406C172.755 45.5521 173.008 46.1562 173.008 46.9531C173.008 47.974 172.581 48.7656 171.727 49.3281C170.878 49.8906 169.656 50.1719 168.062 50.1719ZM168.164 48.6172C168.732 48.6172 169.219 48.5625 169.625 48.4531C170.036 48.349 170.352 48.1979 170.57 48C170.789 47.8073 170.898 47.5755 170.898 47.3047C170.898 47.0859 170.833 46.9115 170.703 46.7812C170.578 46.6562 170.385 46.5677 170.125 46.5156C169.87 46.4635 169.542 46.4375 169.141 46.4375H167.906C167.615 46.4375 167.352 46.4844 167.117 46.5781C166.888 46.6719 166.706 46.8021 166.57 46.9688C166.435 47.1406 166.367 47.3385 166.367 47.5625C166.367 47.8906 166.523 48.1484 166.836 48.3359C167.154 48.5234 167.596 48.6172 168.164 48.6172ZM168.547 41.9922C168.995 41.9922 169.323 41.8542 169.531 41.5781C169.74 41.3021 169.844 40.9271 169.844 40.4531C169.844 39.9271 169.734 39.5339 169.516 39.2734C169.302 39.0078 168.979 38.875 168.547 38.875C168.109 38.875 167.781 39.0078 167.562 39.2734C167.344 39.5339 167.234 39.9271 167.234 40.4531C167.234 40.9271 167.341 41.3021 167.555 41.5781C167.773 41.8542 168.104 41.9922 168.547 41.9922ZM178.156 37.4297C178.964 37.4297 179.659 37.5859 180.242 37.8984C180.826 38.2057 181.276 38.6536 181.594 39.2422C181.911 39.8307 182.07 40.5495 182.07 41.3984V42.5547H176.438C176.464 43.2266 176.664 43.7552 177.039 44.1406C177.419 44.5208 177.945 44.7109 178.617 44.7109C179.174 44.7109 179.685 44.6536 180.148 44.5391C180.612 44.4245 181.089 44.2526 181.578 44.0234V45.8672C181.146 46.0807 180.693 46.237 180.219 46.3359C179.75 46.4349 179.18 46.4844 178.508 46.4844C177.633 46.4844 176.857 46.3229 176.18 46C175.508 45.6771 174.979 45.1849 174.594 44.5234C174.214 43.862 174.023 43.0286 174.023 42.0234C174.023 41.0026 174.195 40.1536 174.539 39.4766C174.888 38.7943 175.372 38.2839 175.992 37.9453C176.612 37.6016 177.333 37.4297 178.156 37.4297ZM178.172 39.125C177.708 39.125 177.323 39.2734 177.016 39.5703C176.714 39.8672 176.539 40.3333 176.492 40.9688H179.836C179.831 40.6146 179.766 40.2995 179.641 40.0234C179.521 39.7474 179.339 39.5286 179.094 39.3672C178.854 39.2057 178.547 39.125 178.172 39.125Z" fill="#303030"/>
<path d="M17.2266 224.211C18.263 224.211 19.1172 224.336 19.7891 224.586C20.4661 224.836 20.9688 225.214 21.2969 225.719C21.625 226.224 21.7891 226.862 21.7891 227.633C21.7891 228.154 21.6901 228.609 21.4922 229C21.2943 229.391 21.0339 229.721 20.7109 229.992C20.388 230.263 20.0391 230.484 19.6641 230.656L23.0234 235.633H20.3359L17.6094 231.25H16.3203V235.633H13.8984V224.211H17.2266ZM17.0547 226.195H16.3203V229.281H17.1016C17.9036 229.281 18.4766 229.148 18.8203 228.883C19.1693 228.612 19.3438 228.216 19.3438 227.695C19.3438 227.154 19.1562 226.768 18.7812 226.539C18.4115 226.31 17.8359 226.195 17.0547 226.195ZM30.3672 233.039C30.3672 233.633 30.2266 234.135 29.9453 234.547C29.6693 234.953 29.2552 235.263 28.7031 235.477C28.151 235.685 27.4635 235.789 26.6406 235.789C26.0312 235.789 25.5078 235.75 25.0703 235.672C24.638 235.594 24.2005 235.464 23.7578 235.281V233.312C24.2318 233.526 24.7396 233.703 25.2812 233.844C25.8281 233.979 26.3073 234.047 26.7188 234.047C27.1823 234.047 27.513 233.979 27.7109 233.844C27.9141 233.703 28.0156 233.521 28.0156 233.297C28.0156 233.151 27.974 233.021 27.8906 232.906C27.8125 232.786 27.6406 232.654 27.375 232.508C27.1094 232.357 26.6927 232.161 26.125 231.922C25.5781 231.693 25.1276 231.461 24.7734 231.227C24.4245 230.992 24.1641 230.716 23.9922 230.398C23.8255 230.076 23.7422 229.667 23.7422 229.172C23.7422 228.365 24.0547 227.758 24.6797 227.352C25.3099 226.94 26.151 226.734 27.2031 226.734C27.7448 226.734 28.2604 226.789 28.75 226.898C29.2448 227.008 29.7526 227.182 30.2734 227.422L29.5547 229.141C29.1224 228.953 28.7135 228.799 28.3281 228.68C27.9479 228.56 27.5599 228.5 27.1641 228.5C26.8151 228.5 26.5521 228.547 26.375 228.641C26.1979 228.734 26.1094 228.878 26.1094 229.07C26.1094 229.211 26.1536 229.336 26.2422 229.445C26.3359 229.555 26.513 229.677 26.7734 229.812C27.0391 229.943 27.4271 230.112 27.9375 230.32C28.4323 230.523 28.862 230.737 29.2266 230.961C29.5911 231.18 29.8724 231.453 30.0703 231.781C30.2682 232.104 30.3672 232.523 30.3672 233.039ZM31.8906 234.516C31.8906 234.026 32.0234 233.682 32.2891 233.484C32.5599 233.286 32.8854 233.188 33.2656 233.188C33.6354 233.188 33.9531 233.286 34.2188 233.484C34.4896 233.682 34.625 234.026 34.625 234.516C34.625 234.984 34.4896 235.323 34.2188 235.531C33.9531 235.74 33.6354 235.844 33.2656 235.844C32.8854 235.844 32.5599 235.74 32.2891 235.531C32.0234 235.323 31.8906 234.984 31.8906 234.516ZM47.875 226.766C47.875 227.292 47.7656 227.747 47.5469 228.133C47.3281 228.518 47.0312 228.833 46.6562 229.078C46.2865 229.323 45.8698 229.503 45.4062 229.617V229.664C46.3229 229.779 47.0182 230.06 47.4922 230.508C47.9714 230.956 48.2109 231.555 48.2109 232.305C48.2109 232.971 48.0469 233.568 47.7188 234.094C47.3958 234.62 46.8958 235.034 46.2188 235.336C45.5417 235.638 44.6693 235.789 43.6016 235.789C42.9714 235.789 42.3828 235.737 41.8359 235.633C41.2943 235.534 40.7839 235.38 40.3047 235.172V233.117C40.7943 233.367 41.3073 233.557 41.8438 233.688C42.3802 233.812 42.8802 233.875 43.3438 233.875C44.2083 233.875 44.8125 233.727 45.1562 233.43C45.5052 233.128 45.6797 232.706 45.6797 232.164C45.6797 231.846 45.599 231.578 45.4375 231.359C45.276 231.141 44.9948 230.974 44.5938 230.859C44.1979 230.745 43.6432 230.688 42.9297 230.688H42.0625V228.836H42.9453C43.6484 228.836 44.1823 228.771 44.5469 228.641C44.9167 228.505 45.1667 228.323 45.2969 228.094C45.4323 227.859 45.5 227.594 45.5 227.297C45.5 226.891 45.375 226.573 45.125 226.344C44.875 226.115 44.4583 226 43.875 226C43.5104 226 43.1771 226.047 42.875 226.141C42.5781 226.229 42.3099 226.339 42.0703 226.469C41.8307 226.594 41.6198 226.716 41.4375 226.836L40.3203 225.172C40.7682 224.849 41.2917 224.581 41.8906 224.367C42.4948 224.154 43.2135 224.047 44.0469 224.047C45.224 224.047 46.1562 224.284 46.8438 224.758C47.5312 225.232 47.875 225.901 47.875 226.766ZM49.7656 234.516C49.7656 234.026 49.8984 233.682 50.1641 233.484C50.4349 233.286 50.7604 233.188 51.1406 233.188C51.5104 233.188 51.8281 233.286 52.0938 233.484C52.3646 233.682 52.5 234.026 52.5 234.516C52.5 234.984 52.3646 235.323 52.0938 235.531C51.8281 235.74 51.5104 235.844 51.1406 235.844C50.7604 235.844 50.4349 235.74 50.1641 235.531C49.8984 235.323 49.7656 234.984 49.7656 234.516ZM61.9766 229.922C61.9766 230.844 61.9036 231.667 61.7578 232.391C61.6172 233.115 61.388 233.729 61.0703 234.234C60.7578 234.74 60.3464 235.125 59.8359 235.391C59.3255 235.656 58.7057 235.789 57.9766 235.789C57.0599 235.789 56.3073 235.557 55.7188 235.094C55.1302 234.625 54.6953 233.953 54.4141 233.078C54.1328 232.198 53.9922 231.146 53.9922 229.922C53.9922 228.688 54.1198 227.633 54.375 226.758C54.6354 225.878 55.0573 225.203 55.6406 224.734C56.224 224.266 57.0026 224.031 57.9766 224.031C58.888 224.031 59.638 224.266 60.2266 224.734C60.8203 225.198 61.2604 225.87 61.5469 226.75C61.8333 227.625 61.9766 228.682 61.9766 229.922ZM56.3906 229.922C56.3906 230.792 56.4375 231.518 56.5312 232.102C56.6302 232.68 56.7943 233.115 57.0234 233.406C57.2526 233.698 57.5703 233.844 57.9766 233.844C58.3776 233.844 58.6927 233.701 58.9219 233.414C59.1562 233.122 59.3229 232.688 59.4219 232.109C59.5208 231.526 59.5703 230.797 59.5703 229.922C59.5703 229.052 59.5208 228.326 59.4219 227.742C59.3229 227.159 59.1562 226.721 58.9219 226.43C58.6927 226.133 58.3776 225.984 57.9766 225.984C57.5703 225.984 57.2526 226.133 57.0234 226.43C56.7943 226.721 56.6302 227.159 56.5312 227.742C56.4375 228.326 56.3906 229.052 56.3906 229.922ZM71.1328 229.922C71.1328 230.844 71.0599 231.667 70.9141 232.391C70.7734 233.115 70.5443 233.729 70.2266 234.234C69.9141 234.74 69.5026 235.125 68.9922 235.391C68.4818 235.656 67.862 235.789 67.1328 235.789C66.2161 235.789 65.4635 235.557 64.875 235.094C64.2865 234.625 63.8516 233.953 63.5703 233.078C63.2891 232.198 63.1484 231.146 63.1484 229.922C63.1484 228.688 63.276 227.633 63.5312 226.758C63.7917 225.878 64.2135 225.203 64.7969 224.734C65.3802 224.266 66.1589 224.031 67.1328 224.031C68.0443 224.031 68.7943 224.266 69.3828 224.734C69.9766 225.198 70.4167 225.87 70.7031 226.75C70.9896 227.625 71.1328 228.682 71.1328 229.922ZM65.5469 229.922C65.5469 230.792 65.5938 231.518 65.6875 232.102C65.7865 232.68 65.9505 233.115 66.1797 233.406C66.4089 233.698 66.7266 233.844 67.1328 233.844C67.5339 233.844 67.849 233.701 68.0781 233.414C68.3125 233.122 68.4792 232.688 68.5781 232.109C68.6771 231.526 68.7266 230.797 68.7266 229.922C68.7266 229.052 68.6771 228.326 68.5781 227.742C68.4792 227.159 68.3125 226.721 68.0781 226.43C67.849 226.133 67.5339 225.984 67.1328 225.984C66.7266 225.984 66.4089 226.133 66.1797 226.43C65.9505 226.721 65.7865 227.159 65.6875 227.742C65.5938 228.326 65.5469 229.052 65.5469 229.922ZM78.2578 224.211L74 235.633H71.8359L76.0938 224.211H78.2578ZM89.25 229.812C89.25 231.099 89.0026 232.174 88.5078 233.039C88.0182 233.898 87.3073 234.547 86.375 234.984C85.4427 235.417 84.3203 235.633 83.0078 235.633H79.7734V224.211H83.3594C84.5573 224.211 85.5964 224.424 86.4766 224.852C87.3568 225.273 88.0391 225.901 88.5234 226.734C89.0078 227.562 89.25 228.589 89.25 229.812ZM86.7344 229.875C86.7344 229.031 86.6094 228.339 86.3594 227.797C86.1146 227.25 85.75 226.846 85.2656 226.586C84.7865 226.326 84.1927 226.195 83.4844 226.195H82.1953V233.633H83.2344C84.4167 233.633 85.2943 233.318 85.8672 232.688C86.4453 232.057 86.7344 231.12 86.7344 229.875ZM95.0078 226.719C96.1797 226.719 97.0781 226.974 97.7031 227.484C98.3281 227.995 98.6406 228.771 98.6406 229.812V235.633H96.9766L96.5156 234.445H96.4531C96.2031 234.758 95.9479 235.013 95.6875 235.211C95.4271 235.409 95.1276 235.555 94.7891 235.648C94.4505 235.742 94.0391 235.789 93.5547 235.789C93.0391 235.789 92.5755 235.69 92.1641 235.492C91.7578 235.294 91.4375 234.992 91.2031 234.586C90.9688 234.174 90.8516 233.654 90.8516 233.023C90.8516 232.096 91.1771 231.414 91.8281 230.977C92.4792 230.534 93.4557 230.289 94.7578 230.242L96.2734 230.195V229.812C96.2734 229.354 96.1536 229.018 95.9141 228.805C95.6745 228.591 95.3411 228.484 94.9141 228.484C94.4922 228.484 94.0781 228.544 93.6719 228.664C93.2656 228.784 92.8594 228.935 92.4531 229.117L91.6641 227.508C92.1276 227.263 92.6458 227.07 93.2188 226.93C93.7969 226.789 94.3932 226.719 95.0078 226.719ZM96.2734 231.586L95.3516 231.617C94.5807 231.638 94.0443 231.776 93.7422 232.031C93.4453 232.286 93.2969 232.622 93.2969 233.039C93.2969 233.404 93.4036 233.664 93.6172 233.82C93.8307 233.971 94.1094 234.047 94.4531 234.047C94.9635 234.047 95.3932 233.896 95.7422 233.594C96.0964 233.292 96.2734 232.862 96.2734 232.305V231.586ZM99.8516 226.898H102.461L104.109 231.812C104.161 231.969 104.206 232.128 104.242 232.289C104.279 232.451 104.31 232.617 104.336 232.789C104.362 232.961 104.383 233.141 104.398 233.328H104.445C104.477 233.047 104.518 232.784 104.57 232.539C104.628 232.294 104.698 232.052 104.781 231.812L106.398 226.898H108.953L105.258 236.75C105.034 237.354 104.742 237.857 104.383 238.258C104.023 238.664 103.609 238.969 103.141 239.172C102.677 239.375 102.167 239.477 101.609 239.477C101.339 239.477 101.104 239.461 100.906 239.43C100.708 239.404 100.539 239.375 100.398 239.344V237.453C100.508 237.479 100.646 237.503 100.812 237.523C100.979 237.544 101.154 237.555 101.336 237.555C101.669 237.555 101.956 237.484 102.195 237.344C102.435 237.203 102.635 237.013 102.797 236.773C102.958 236.539 103.086 236.281 103.18 236L103.32 235.57L99.8516 226.898Z" fill="#D99956"/>
<path d="M16.8921 242.473C16.4588 242.473 16.0685 242.548 15.7212 242.699C15.3774 242.846 15.0838 243.06 14.8403 243.343C14.6004 243.623 14.416 243.961 14.2871 244.358C14.1582 244.756 14.0938 245.203 14.0938 245.701C14.0938 246.36 14.1958 246.933 14.3999 247.42C14.6076 247.903 14.9155 248.278 15.3237 248.542C15.7355 248.807 16.2493 248.94 16.8652 248.94C17.2161 248.94 17.5456 248.911 17.8535 248.854C18.165 248.793 18.4676 248.718 18.7612 248.628V249.423C18.4748 249.531 18.174 249.61 17.8589 249.66C17.5438 249.713 17.1696 249.74 16.7363 249.74C15.9378 249.74 15.27 249.576 14.7329 249.246C14.1994 248.913 13.7983 248.444 13.5298 247.839C13.2648 247.234 13.1323 246.519 13.1323 245.696C13.1323 245.101 13.2147 244.559 13.3794 244.068C13.5477 243.574 13.7912 243.148 14.1099 242.79C14.4321 242.432 14.826 242.156 15.2915 241.963C15.7606 241.766 16.2977 241.667 16.9028 241.667C17.3003 241.667 17.6834 241.707 18.0522 241.786C18.4211 241.864 18.7541 241.977 19.0513 242.124L18.686 242.897C18.4354 242.783 18.1597 242.684 17.8589 242.602C17.5617 242.516 17.2394 242.473 16.8921 242.473ZM25.4053 246.679C25.4053 247.162 25.3426 247.594 25.2173 247.973C25.092 248.353 24.9111 248.673 24.6748 248.935C24.4385 249.196 24.152 249.396 23.8154 249.536C23.4824 249.672 23.1047 249.74 22.6821 249.74C22.2882 249.74 21.9266 249.672 21.5972 249.536C21.2713 249.396 20.9884 249.196 20.7485 248.935C20.5122 248.673 20.3278 248.353 20.1953 247.973C20.0664 247.594 20.002 247.162 20.002 246.679C20.002 246.034 20.1112 245.486 20.3296 245.035C20.548 244.58 20.8595 244.235 21.2642 243.999C21.6724 243.759 22.1576 243.639 22.7197 243.639C23.2568 243.639 23.7259 243.759 24.127 243.999C24.5316 244.238 24.8449 244.586 25.0669 245.041C25.2925 245.492 25.4053 246.038 25.4053 246.679ZM20.9258 246.679C20.9258 247.151 20.9884 247.561 21.1138 247.909C21.2391 248.256 21.4325 248.525 21.6938 248.714C21.9552 248.904 22.2918 248.999 22.7036 248.999C23.1118 248.999 23.4466 248.904 23.708 248.714C23.973 248.525 24.1681 248.256 24.2935 247.909C24.4188 247.561 24.4814 247.151 24.4814 246.679C24.4814 246.21 24.4188 245.805 24.2935 245.465C24.1681 245.121 23.9748 244.856 23.7134 244.67C23.452 244.484 23.1136 244.391 22.6982 244.391C22.0859 244.391 21.6366 244.593 21.3501 244.998C21.0672 245.402 20.9258 245.963 20.9258 246.679ZM29.7344 243.639C30.4326 243.639 30.9608 243.811 31.3188 244.154C31.6769 244.494 31.856 245.042 31.856 245.798V249.633H30.9751V245.857C30.9751 245.366 30.8623 244.999 30.6367 244.756C30.4147 244.512 30.0728 244.391 29.6108 244.391C28.9591 244.391 28.5008 244.575 28.2358 244.944C27.9709 245.313 27.8384 245.848 27.8384 246.55V249.633H26.9468V243.746H27.6665L27.8008 244.595H27.8491C27.9744 244.387 28.1338 244.213 28.3271 244.074C28.5205 243.931 28.7371 243.823 28.9771 243.751C29.217 243.676 29.4694 243.639 29.7344 243.639ZM37.501 248.021C37.501 248.397 37.4061 248.714 37.2163 248.972C37.0301 249.226 36.7616 249.418 36.4106 249.547C36.0633 249.676 35.6479 249.74 35.1646 249.74C34.7528 249.74 34.3965 249.708 34.0957 249.644C33.7949 249.579 33.5317 249.488 33.3062 249.37V248.548C33.5461 248.666 33.8325 248.773 34.1655 248.87C34.4985 248.967 34.8387 249.015 35.186 249.015C35.6945 249.015 36.0633 248.933 36.2925 248.768C36.5216 248.603 36.6362 248.38 36.6362 248.097C36.6362 247.936 36.5897 247.794 36.4966 247.672C36.4071 247.547 36.2549 247.427 36.04 247.312C35.8252 247.194 35.528 247.065 35.1484 246.926C34.7725 246.783 34.4466 246.641 34.1709 246.501C33.8988 246.358 33.6875 246.185 33.5371 245.98C33.3903 245.776 33.3169 245.511 33.3169 245.186C33.3169 244.688 33.5174 244.306 33.9185 244.042C34.3231 243.773 34.853 243.639 35.5083 243.639C35.8628 243.639 36.194 243.674 36.502 243.746C36.8135 243.814 37.1035 243.907 37.3721 244.025L37.0713 244.74C36.8278 244.636 36.5682 244.548 36.2925 244.477C36.0168 244.405 35.7357 244.369 35.4492 244.369C35.0374 244.369 34.7205 244.437 34.4985 244.573C34.2801 244.709 34.1709 244.896 34.1709 245.132C34.1709 245.314 34.221 245.465 34.3213 245.583C34.4251 245.701 34.5898 245.812 34.8154 245.916C35.041 246.02 35.3382 246.142 35.707 246.281C36.0758 246.417 36.3945 246.559 36.6631 246.706C36.9316 246.849 37.1375 247.024 37.2808 247.232C37.4276 247.436 37.501 247.699 37.501 248.021ZM43.7959 243.746V249.633H43.0654L42.9365 248.806H42.8882C42.7664 249.01 42.6089 249.182 42.4155 249.321C42.2222 249.461 42.0037 249.565 41.7603 249.633C41.5203 249.704 41.2643 249.74 40.9922 249.74C40.5267 249.74 40.1364 249.665 39.8213 249.515C39.5062 249.364 39.2681 249.132 39.1069 248.816C38.9494 248.501 38.8706 248.097 38.8706 247.603V243.746H39.7729V247.538C39.7729 248.029 39.884 248.396 40.106 248.639C40.328 248.879 40.6663 248.999 41.1211 248.999C41.5579 248.999 41.9053 248.917 42.1631 248.752C42.4245 248.587 42.6125 248.346 42.7271 248.027C42.8416 247.705 42.8989 247.311 42.8989 246.845V243.746H43.7959ZM52.0728 243.639C52.7209 243.639 53.2096 243.809 53.5391 244.149C53.8685 244.486 54.0332 245.028 54.0332 245.776V249.633H53.1523V245.819C53.1523 245.343 53.0485 244.987 52.8408 244.75C52.6367 244.511 52.3324 244.391 51.9277 244.391C51.3584 244.391 50.9448 244.555 50.687 244.885C50.4292 245.214 50.3003 245.699 50.3003 246.34V249.633H49.4141V245.819C49.4141 245.501 49.3675 245.236 49.2744 245.024C49.1849 244.813 49.0488 244.656 48.8662 244.552C48.6872 244.444 48.4598 244.391 48.1841 244.391C47.7938 244.391 47.4805 244.471 47.2441 244.632C47.0078 244.793 46.8359 245.033 46.7285 245.352C46.6247 245.667 46.5728 246.056 46.5728 246.518V249.633H45.6812V243.746H46.4009L46.5352 244.579H46.5835C46.7017 244.375 46.8503 244.203 47.0293 244.063C47.2083 243.923 47.4089 243.818 47.6309 243.746C47.8529 243.674 48.0892 243.639 48.3398 243.639C48.7874 243.639 49.1616 243.723 49.4624 243.891C49.7668 244.056 49.987 244.308 50.123 244.648H50.1714C50.3647 244.308 50.6297 244.056 50.9663 243.891C51.3029 243.723 51.6717 243.639 52.0728 243.639ZM58.1313 243.639C58.6326 243.639 59.0623 243.75 59.4204 243.972C59.7785 244.194 60.0524 244.505 60.2422 244.906C60.432 245.304 60.5269 245.769 60.5269 246.303V246.856H56.4609C56.4717 247.547 56.6436 248.073 56.9766 248.435C57.3096 248.797 57.7786 248.978 58.3838 248.978C58.7562 248.978 59.0856 248.944 59.3721 248.875C59.6585 248.807 59.9557 248.707 60.2637 248.575V249.359C59.9665 249.491 59.6711 249.588 59.3774 249.649C59.0874 249.71 58.7437 249.74 58.3462 249.74C57.7804 249.74 57.2863 249.626 56.8638 249.396C56.4448 249.164 56.119 248.824 55.8862 248.376C55.6535 247.928 55.5371 247.381 55.5371 246.732C55.5371 246.099 55.6427 245.551 55.854 245.089C56.0688 244.623 56.3696 244.265 56.7563 244.015C57.1466 243.764 57.605 243.639 58.1313 243.639ZM58.1206 244.369C57.6444 244.369 57.2648 244.525 56.9819 244.836C56.6991 245.148 56.5308 245.583 56.4771 246.142H59.5923C59.5887 245.791 59.5332 245.483 59.4258 245.218C59.3219 244.949 59.1626 244.742 58.9478 244.595C58.7329 244.444 58.4572 244.369 58.1206 244.369ZM64.7163 243.639C64.8345 243.639 64.958 243.646 65.0869 243.66C65.2158 243.671 65.3304 243.687 65.4307 243.708L65.3179 244.536C65.2212 244.511 65.1138 244.491 64.9956 244.477C64.8774 244.462 64.7664 244.455 64.6626 244.455C64.4263 244.455 64.2025 244.503 63.9912 244.6C63.7835 244.693 63.6009 244.829 63.4434 245.008C63.2858 245.184 63.1623 245.397 63.0728 245.647C62.9832 245.895 62.9385 246.17 62.9385 246.475V249.633H62.0415V243.746H62.7827L62.8794 244.831H62.917C63.0387 244.613 63.1855 244.414 63.3574 244.235C63.5293 244.052 63.728 243.907 63.9536 243.8C64.1828 243.692 64.437 243.639 64.7163 243.639ZM71.5859 241.78C72.5993 241.78 73.3387 241.979 73.8042 242.376C74.2733 242.77 74.5078 243.336 74.5078 244.074C74.5078 244.407 74.4523 244.724 74.3413 245.024C74.2339 245.322 74.0584 245.585 73.8149 245.814C73.5715 246.04 73.251 246.219 72.8535 246.351C72.4596 246.48 71.9762 246.544 71.4033 246.544H70.4473V249.633H69.5342V241.78H71.5859ZM71.5 242.559H70.4473V245.76H71.3013C71.8026 245.76 72.2197 245.707 72.5527 245.599C72.8893 245.492 73.1418 245.318 73.3101 245.078C73.4784 244.835 73.5625 244.512 73.5625 244.111C73.5625 243.589 73.396 243.2 73.063 242.946C72.73 242.688 72.209 242.559 71.5 242.559ZM78.6919 243.639C78.8101 243.639 78.9336 243.646 79.0625 243.66C79.1914 243.671 79.306 243.687 79.4062 243.708L79.2935 244.536C79.1968 244.511 79.0894 244.491 78.9712 244.477C78.853 244.462 78.742 244.455 78.6382 244.455C78.4019 244.455 78.1781 244.503 77.9668 244.6C77.7591 244.693 77.5765 244.829 77.4189 245.008C77.2614 245.184 77.1379 245.397 77.0483 245.647C76.9588 245.895 76.9141 246.17 76.9141 246.475V249.633H76.0171V243.746H76.7583L76.855 244.831H76.8926C77.0143 244.613 77.1611 244.414 77.333 244.235C77.5049 244.052 77.7036 243.907 77.9292 243.8C78.1584 243.692 78.4126 243.639 78.6919 243.639ZM81.4097 243.746V249.633H80.5181V243.746H81.4097ZM80.9746 241.544C81.1214 241.544 81.2467 241.592 81.3506 241.689C81.458 241.782 81.5117 241.929 81.5117 242.129C81.5117 242.326 81.458 242.473 81.3506 242.57C81.2467 242.667 81.1214 242.715 80.9746 242.715C80.8206 242.715 80.6917 242.667 80.5879 242.57C80.4876 242.473 80.4375 242.326 80.4375 242.129C80.4375 241.929 80.4876 241.782 80.5879 241.689C80.6917 241.592 80.8206 241.544 80.9746 241.544ZM85.6582 249.74C85.1283 249.74 84.661 249.631 84.2563 249.413C83.8517 249.194 83.5366 248.861 83.311 248.414C83.0854 247.966 82.9727 247.402 82.9727 246.722C82.9727 246.009 83.0908 245.427 83.3271 244.976C83.5671 244.521 83.8965 244.185 84.3154 243.966C84.7344 243.748 85.2106 243.639 85.7441 243.639C86.0378 243.639 86.3206 243.669 86.5928 243.73C86.8685 243.787 87.0941 243.861 87.2695 243.95L87.001 244.697C86.8219 244.625 86.6143 244.561 86.3779 244.503C86.1452 244.446 85.9268 244.417 85.7227 244.417C85.3145 244.417 84.9743 244.505 84.7021 244.681C84.4336 244.856 84.2313 245.114 84.0952 245.454C83.9627 245.794 83.8965 246.213 83.8965 246.711C83.8965 247.187 83.9609 247.594 84.0898 247.93C84.2223 248.267 84.4175 248.525 84.6753 248.704C84.9367 248.879 85.2625 248.967 85.6528 248.967C85.9644 248.967 86.2454 248.935 86.4961 248.87C86.7467 248.802 86.9741 248.723 87.1782 248.634V249.429C86.9813 249.529 86.7611 249.606 86.5176 249.66C86.2777 249.713 85.9912 249.74 85.6582 249.74ZM90.8413 243.639C91.3426 243.639 91.7723 243.75 92.1304 243.972C92.4884 244.194 92.7624 244.505 92.9521 244.906C93.1419 245.304 93.2368 245.769 93.2368 246.303V246.856H89.1709C89.1816 247.547 89.3535 248.073 89.6865 248.435C90.0195 248.797 90.4886 248.978 91.0938 248.978C91.4661 248.978 91.7956 248.944 92.082 248.875C92.3685 248.807 92.6657 248.707 92.9736 248.575V249.359C92.6764 249.491 92.381 249.588 92.0874 249.649C91.7974 249.71 91.4536 249.74 91.0562 249.74C90.4904 249.74 89.9963 249.626 89.5737 249.396C89.1548 249.164 88.8289 248.824 88.5962 248.376C88.3634 247.928 88.2471 247.381 88.2471 246.732C88.2471 246.099 88.3527 245.551 88.564 245.089C88.7788 244.623 89.0796 244.265 89.4663 244.015C89.8566 243.764 90.3149 243.639 90.8413 243.639ZM90.8306 244.369C90.3543 244.369 89.9748 244.525 89.6919 244.836C89.409 245.148 89.2407 245.583 89.187 246.142H92.3022C92.2987 245.791 92.2432 245.483 92.1357 245.218C92.0319 244.949 91.8726 244.742 91.6577 244.595C91.4429 244.444 91.1672 244.369 90.8306 244.369Z" fill="#007643"/>
<path d="M34.0059 137.069C34.0059 137.496 33.917 137.867 33.7393 138.18C33.5615 138.493 33.3203 138.749 33.0156 138.948C32.7152 139.147 32.3766 139.293 32 139.386V139.424C32.7448 139.517 33.3097 139.745 33.6948 140.109C34.0841 140.473 34.2788 140.96 34.2788 141.569C34.2788 142.111 34.1455 142.596 33.8789 143.023C33.6165 143.45 33.2103 143.787 32.6602 144.032C32.11 144.278 31.4012 144.4 30.5337 144.4C30.0216 144.4 29.5435 144.358 29.0991 144.273C28.659 144.193 28.2443 144.068 27.855 143.899V142.229C28.2528 142.433 28.6696 142.587 29.1055 142.693C29.5413 142.794 29.9476 142.845 30.3242 142.845C31.0267 142.845 31.5176 142.725 31.7969 142.483C32.0804 142.238 32.2222 141.895 32.2222 141.455C32.2222 141.197 32.1566 140.979 32.0254 140.801C31.8942 140.624 31.6657 140.488 31.3398 140.395C31.0182 140.302 30.5675 140.255 29.9878 140.255H29.2832V138.751H30.0005C30.5718 138.751 31.0055 138.698 31.3018 138.592C31.6022 138.482 31.8053 138.334 31.9111 138.148C32.0212 137.958 32.0762 137.742 32.0762 137.5C32.0762 137.17 31.9746 136.912 31.7715 136.726C31.5684 136.54 31.2298 136.447 30.7559 136.447C30.4596 136.447 30.1888 136.485 29.9434 136.561C29.7021 136.633 29.4842 136.722 29.2896 136.828C29.0949 136.929 28.9235 137.029 28.7754 137.126L27.8677 135.774C28.2316 135.512 28.6569 135.294 29.1436 135.12C29.6344 134.947 30.2184 134.86 30.8955 134.86C31.8519 134.86 32.6094 135.052 33.168 135.438C33.7266 135.823 34.0059 136.366 34.0059 137.069ZM41.7563 139.633C41.7563 140.382 41.6971 141.051 41.5786 141.639C41.4644 142.227 41.2782 142.727 41.02 143.137C40.7661 143.548 40.4318 143.861 40.0171 144.077C39.6024 144.292 39.0988 144.4 38.5063 144.4C37.7616 144.4 37.1501 144.212 36.6719 143.835C36.1937 143.455 35.8403 142.909 35.6118 142.198C35.3833 141.483 35.269 140.628 35.269 139.633C35.269 138.63 35.3727 137.773 35.5801 137.062C35.7917 136.347 36.1344 135.799 36.6084 135.418C37.0824 135.038 37.715 134.847 38.5063 134.847C39.2469 134.847 39.8563 135.038 40.3345 135.418C40.8169 135.795 41.1745 136.341 41.4072 137.056C41.64 137.767 41.7563 138.626 41.7563 139.633ZM37.2178 139.633C37.2178 140.34 37.2559 140.93 37.332 141.404C37.4124 141.874 37.5457 142.227 37.7319 142.464C37.9181 142.701 38.1763 142.82 38.5063 142.82C38.8322 142.82 39.0882 142.703 39.2744 142.471C39.4648 142.234 39.6003 141.88 39.6807 141.411C39.7611 140.937 39.8013 140.344 39.8013 139.633C39.8013 138.927 39.7611 138.336 39.6807 137.862C39.6003 137.388 39.4648 137.033 39.2744 136.796C39.0882 136.555 38.8322 136.434 38.5063 136.434C38.1763 136.434 37.9181 136.555 37.7319 136.796C37.5457 137.033 37.4124 137.388 37.332 137.862C37.2559 138.336 37.2178 138.927 37.2178 139.633ZM50.7129 144.273L48.4785 136.993H48.4214C48.4299 137.166 48.4425 137.429 48.4595 137.78C48.4806 138.127 48.4997 138.497 48.5166 138.891C48.5335 139.284 48.542 139.64 48.542 139.957V144.273H46.7837V134.993H49.4624L51.6587 142.09H51.6968L54.0264 134.993H56.7051V144.273H54.8706V139.881C54.8706 139.589 54.8748 139.252 54.8833 138.872C54.896 138.491 54.9108 138.129 54.9277 137.786C54.9447 137.439 54.9574 137.179 54.9658 137.005H54.9087L52.5156 144.273H50.7129ZM60.8311 137.177V144.273H58.895V137.177H60.8311ZM59.8662 134.396C60.154 134.396 60.4015 134.464 60.6089 134.6C60.8162 134.731 60.9199 134.978 60.9199 135.342C60.9199 135.702 60.8162 135.952 60.6089 136.091C60.4015 136.227 60.154 136.294 59.8662 136.294C59.5742 136.294 59.3245 136.227 59.1172 136.091C58.9141 135.952 58.8125 135.702 58.8125 135.342C58.8125 134.978 58.9141 134.731 59.1172 134.6C59.3245 134.464 59.5742 134.396 59.8662 134.396ZM66.8994 137.043C67.6569 137.043 68.2663 137.251 68.7275 137.666C69.1888 138.076 69.4194 138.736 69.4194 139.646V144.273H67.4834V140.128C67.4834 139.621 67.3903 139.238 67.2041 138.979C67.0221 138.721 66.7344 138.592 66.3408 138.592C65.7484 138.592 65.3442 138.793 65.1284 139.195C64.9126 139.597 64.8047 140.177 64.8047 140.935V144.273H62.8687V137.177H64.3477L64.6079 138.084H64.7158C64.8682 137.839 65.0565 137.64 65.2808 137.488C65.5093 137.335 65.7611 137.223 66.0361 137.151C66.3154 137.079 66.6032 137.043 66.8994 137.043ZM76.3638 142.166C76.3638 142.648 76.2495 143.057 76.021 143.391C75.7967 143.721 75.4603 143.973 75.0117 144.146C74.5632 144.316 74.0046 144.4 73.3359 144.4C72.8408 144.4 72.4155 144.369 72.0601 144.305C71.7088 144.242 71.3534 144.136 70.9937 143.988V142.388C71.3787 142.562 71.7913 142.706 72.2314 142.82C72.6758 142.93 73.0651 142.985 73.3994 142.985C73.776 142.985 74.0448 142.93 74.2056 142.82C74.3706 142.706 74.4531 142.557 74.4531 142.375C74.4531 142.257 74.4193 142.151 74.3516 142.058C74.2881 141.961 74.1484 141.853 73.9326 141.734C73.7168 141.612 73.3783 141.453 72.917 141.258C72.4727 141.072 72.1066 140.884 71.8188 140.693C71.5353 140.503 71.3237 140.279 71.1841 140.021C71.0487 139.758 70.981 139.426 70.981 139.024C70.981 138.368 71.2349 137.875 71.7427 137.545C72.2547 137.211 72.9382 137.043 73.793 137.043C74.2331 137.043 74.652 137.088 75.0498 137.177C75.4518 137.266 75.8644 137.407 76.2876 137.602L75.7036 138.999C75.3524 138.846 75.0202 138.721 74.707 138.624C74.3981 138.527 74.0828 138.478 73.7612 138.478C73.4777 138.478 73.264 138.516 73.1201 138.592C72.9762 138.668 72.9043 138.785 72.9043 138.941C72.9043 139.056 72.9403 139.157 73.0122 139.246C73.0884 139.335 73.2323 139.434 73.4438 139.544C73.6597 139.65 73.9749 139.788 74.3896 139.957C74.7917 140.122 75.1408 140.296 75.437 140.478C75.7332 140.655 75.9618 140.877 76.1226 141.144C76.2834 141.406 76.3638 141.747 76.3638 142.166Z" fill="#09B3F1"/>
<path d="M41.2061 154.336C41.2061 154.942 41.1291 155.493 40.9751 155.991C40.8247 156.485 40.5973 156.911 40.293 157.269C39.9886 157.624 39.6073 157.897 39.1489 158.091C38.6906 158.284 38.1535 158.381 37.5376 158.381C36.911 158.381 36.3667 158.284 35.9048 158.091C35.4465 157.897 35.0651 157.622 34.7607 157.264C34.46 156.906 34.2344 156.478 34.084 155.98C33.9336 155.482 33.8584 154.931 33.8584 154.326C33.8584 153.516 33.9909 152.811 34.2559 152.209C34.5244 151.604 34.9308 151.135 35.4751 150.802C36.0229 150.466 36.714 150.297 37.5483 150.297C38.3647 150.297 39.0433 150.464 39.584 150.797C40.1247 151.13 40.5293 151.599 40.7979 152.204C41.07 152.806 41.2061 153.516 41.2061 154.336ZM35.2119 154.336C35.2119 154.942 35.2943 155.466 35.459 155.91C35.6237 156.351 35.8761 156.691 36.2163 156.931C36.5601 157.167 37.0005 157.285 37.5376 157.285C38.0783 157.285 38.5187 157.167 38.8589 156.931C39.1991 156.691 39.4497 156.351 39.6108 155.91C39.772 155.466 39.8525 154.942 39.8525 154.336C39.8525 153.416 39.6681 152.696 39.2993 152.177C38.9341 151.654 38.3504 151.393 37.5483 151.393C37.0112 151.393 36.569 151.511 36.2217 151.748C35.8779 151.984 35.6237 152.322 35.459 152.763C35.2943 153.2 35.2119 153.724 35.2119 154.336ZM45.8628 152.215C46.5324 152.215 47.0534 152.389 47.4258 152.736C47.8018 153.08 47.9897 153.633 47.9897 154.396V158.273H46.7275V154.632C46.7275 154.17 46.6326 153.824 46.4429 153.595C46.2531 153.362 45.9595 153.246 45.562 153.246C44.9855 153.246 44.5845 153.423 44.3589 153.778C44.1369 154.132 44.0259 154.646 44.0259 155.319V158.273H42.7637V152.328H43.7466L43.9238 153.133H43.9937C44.1226 152.926 44.2819 152.756 44.4717 152.623C44.665 152.487 44.8799 152.385 45.1162 152.317C45.3561 152.249 45.605 152.215 45.8628 152.215ZM59.2959 158.273H57.7114L53.8657 152.005H53.8174C53.8317 152.217 53.8442 152.44 53.855 152.677C53.8693 152.913 53.88 153.157 53.8872 153.407C53.8979 153.658 53.9069 153.912 53.9141 154.17V158.273H52.7432V150.421H54.3169L58.1572 156.646H58.1948C58.1877 156.463 58.1787 156.254 58.168 156.018C58.1572 155.781 58.1465 155.538 58.1357 155.287C58.1286 155.033 58.1232 154.788 58.1196 154.551V150.421H59.2959V158.273ZM63.5981 152.215C64.1281 152.215 64.5828 152.324 64.9624 152.542C65.342 152.761 65.6338 153.071 65.8379 153.472C66.042 153.873 66.144 154.353 66.144 154.911V155.588H62.1748C62.1891 156.164 62.3431 156.608 62.6367 156.92C62.9339 157.231 63.3493 157.387 63.8828 157.387C64.2624 157.387 64.6025 157.351 64.9033 157.28C65.2077 157.205 65.521 157.095 65.8433 156.952V157.978C65.5461 158.118 65.2435 158.22 64.9355 158.284C64.6276 158.349 64.2588 158.381 63.8291 158.381C63.2454 158.381 62.7316 158.268 62.2876 158.042C61.8472 157.813 61.5016 157.473 61.251 157.022C61.0039 156.571 60.8804 156.01 60.8804 155.341C60.8804 154.675 60.9932 154.109 61.2188 153.644C61.4443 153.178 61.7612 152.824 62.1694 152.58C62.5776 152.337 63.0539 152.215 63.5981 152.215ZM63.5981 153.166C63.2007 153.166 62.8784 153.294 62.6313 153.552C62.3879 153.81 62.2446 154.188 62.2017 154.686H64.9087C64.9051 154.388 64.855 154.125 64.7583 153.896C64.6652 153.667 64.522 153.488 64.3286 153.359C64.1388 153.23 63.8953 153.166 63.5981 153.166ZM69.7803 157.36C69.945 157.36 70.1079 157.346 70.269 157.317C70.4302 157.285 70.577 157.248 70.7095 157.205V158.161C70.5698 158.222 70.389 158.273 70.167 158.316C69.945 158.359 69.714 158.381 69.4741 158.381C69.1375 158.381 68.835 158.325 68.5664 158.214C68.2979 158.1 68.0848 157.905 67.9272 157.629C67.7697 157.353 67.6909 156.972 67.6909 156.485V153.289H66.8799V152.725L67.75 152.279L68.1636 151.006H68.9585V152.328H70.6611V153.289H68.9585V156.469C68.9585 156.77 69.0337 156.993 69.1841 157.14C69.3345 157.287 69.5332 157.36 69.7803 157.36Z" fill="#303030"/>
<path d="M111.332 145.406H109.37V140.036C109.37 139.888 109.372 139.706 109.376 139.49C109.381 139.27 109.387 139.046 109.396 138.817C109.404 138.585 109.412 138.375 109.421 138.189C109.374 138.244 109.279 138.339 109.135 138.475C108.996 138.606 108.864 138.724 108.742 138.83L107.675 139.687L106.729 138.506L109.719 136.126H111.332V145.406ZM120.358 140.766C120.358 141.515 120.299 142.184 120.18 142.772C120.066 143.36 119.88 143.86 119.622 144.27C119.368 144.681 119.033 144.994 118.619 145.209C118.204 145.425 117.7 145.533 117.108 145.533C116.363 145.533 115.752 145.345 115.273 144.968C114.795 144.587 114.442 144.042 114.213 143.331C113.985 142.615 113.871 141.761 113.871 140.766C113.871 139.763 113.974 138.906 114.182 138.195C114.393 137.48 114.736 136.932 115.21 136.551C115.684 136.17 116.317 135.98 117.108 135.98C117.848 135.98 118.458 136.17 118.936 136.551C119.418 136.928 119.776 137.474 120.009 138.189C120.242 138.9 120.358 139.759 120.358 140.766ZM115.819 140.766C115.819 141.473 115.857 142.063 115.934 142.537C116.014 143.007 116.147 143.36 116.333 143.597C116.52 143.834 116.778 143.953 117.108 143.953C117.434 143.953 117.69 143.836 117.876 143.604C118.066 143.367 118.202 143.013 118.282 142.543C118.363 142.069 118.403 141.477 118.403 140.766C118.403 140.059 118.363 139.469 118.282 138.995C118.202 138.521 118.066 138.166 117.876 137.929C117.69 137.688 117.434 137.567 117.108 137.567C116.778 137.567 116.52 137.688 116.333 137.929C116.147 138.166 116.014 138.521 115.934 138.995C115.857 139.469 115.819 140.059 115.819 140.766ZM127.797 140.766C127.797 141.515 127.738 142.184 127.62 142.772C127.505 143.36 127.319 143.86 127.061 144.27C126.807 144.681 126.473 144.994 126.058 145.209C125.643 145.425 125.14 145.533 124.547 145.533C123.803 145.533 123.191 145.345 122.713 144.968C122.235 144.587 121.881 144.042 121.653 143.331C121.424 142.615 121.31 141.761 121.31 140.766C121.31 139.763 121.414 138.906 121.621 138.195C121.833 137.48 122.175 136.932 122.649 136.551C123.123 136.17 123.756 135.98 124.547 135.98C125.288 135.98 125.897 136.17 126.375 136.551C126.858 136.928 127.215 137.474 127.448 138.189C127.681 138.9 127.797 139.759 127.797 140.766ZM123.259 140.766C123.259 141.473 123.297 142.063 123.373 142.537C123.453 143.007 123.587 143.36 123.773 143.597C123.959 143.834 124.217 143.953 124.547 143.953C124.873 143.953 125.129 143.836 125.315 143.604C125.506 143.367 125.641 143.013 125.722 142.543C125.802 142.069 125.842 141.477 125.842 140.766C125.842 140.059 125.802 139.469 125.722 138.995C125.641 138.521 125.506 138.166 125.315 137.929C125.129 137.688 124.873 137.567 124.547 137.567C124.217 137.567 123.959 137.688 123.773 137.929C123.587 138.166 123.453 138.521 123.373 138.995C123.297 139.469 123.259 140.059 123.259 140.766ZM136.754 145.406L134.52 138.125H134.462C134.471 138.299 134.484 138.561 134.5 138.913C134.522 139.26 134.541 139.63 134.558 140.023C134.575 140.417 134.583 140.772 134.583 141.09V145.406H132.825V136.126H135.503L137.7 143.223H137.738L140.067 136.126H142.746V145.406H140.912V141.014C140.912 140.722 140.916 140.385 140.924 140.004C140.937 139.624 140.952 139.262 140.969 138.919C140.986 138.572 140.998 138.312 141.007 138.138H140.95L138.557 145.406H136.754ZM145.088 136.126H147.977C149.212 136.126 150.147 136.299 150.782 136.646C151.417 136.993 151.734 137.603 151.734 138.475C151.734 138.826 151.677 139.143 151.563 139.427C151.453 139.71 151.292 139.943 151.081 140.125C150.869 140.307 150.611 140.425 150.306 140.48V140.544C150.615 140.607 150.894 140.717 151.144 140.874C151.394 141.026 151.593 141.251 151.741 141.547C151.893 141.839 151.969 142.228 151.969 142.715C151.969 143.278 151.832 143.76 151.557 144.162C151.282 144.564 150.888 144.873 150.376 145.089C149.868 145.3 149.263 145.406 148.561 145.406H145.088V136.126ZM147.056 139.801H148.199C148.77 139.801 149.166 139.712 149.386 139.535C149.606 139.353 149.716 139.086 149.716 138.735C149.716 138.379 149.585 138.125 149.322 137.973C149.064 137.817 148.654 137.738 148.091 137.738H147.056V139.801ZM147.056 141.363V143.781H148.338C148.931 143.781 149.343 143.667 149.576 143.438C149.809 143.21 149.925 142.903 149.925 142.518C149.925 142.29 149.875 142.089 149.773 141.915C149.671 141.742 149.5 141.606 149.259 141.509C149.022 141.411 148.694 141.363 148.275 141.363H147.056ZM158.622 143.299C158.622 143.781 158.507 144.19 158.279 144.524C158.055 144.854 157.718 145.106 157.27 145.279C156.821 145.449 156.262 145.533 155.594 145.533C155.099 145.533 154.673 145.501 154.318 145.438C153.967 145.375 153.611 145.269 153.251 145.121V143.521C153.637 143.694 154.049 143.838 154.489 143.953C154.934 144.063 155.323 144.118 155.657 144.118C156.034 144.118 156.303 144.063 156.463 143.953C156.628 143.838 156.711 143.69 156.711 143.508C156.711 143.39 156.677 143.284 156.609 143.191C156.546 143.094 156.406 142.986 156.19 142.867C155.975 142.744 155.636 142.586 155.175 142.391C154.73 142.205 154.364 142.017 154.077 141.826C153.793 141.636 153.582 141.411 153.442 141.153C153.306 140.891 153.239 140.559 153.239 140.157C153.239 139.501 153.493 139.008 154 138.678C154.513 138.343 155.196 138.176 156.051 138.176C156.491 138.176 156.91 138.221 157.308 138.31C157.71 138.398 158.122 138.54 158.545 138.735L157.961 140.131C157.61 139.979 157.278 139.854 156.965 139.757C156.656 139.66 156.341 139.611 156.019 139.611C155.736 139.611 155.522 139.649 155.378 139.725C155.234 139.801 155.162 139.918 155.162 140.074C155.162 140.188 155.198 140.29 155.27 140.379C155.346 140.468 155.49 140.567 155.702 140.677C155.917 140.783 156.233 140.921 156.647 141.09C157.049 141.255 157.399 141.428 157.695 141.61C157.991 141.788 158.22 142.01 158.38 142.277C158.541 142.539 158.622 142.88 158.622 143.299Z" fill="#09B3F1"/>
<path d="M111.833 159.406V151.554H113.123V159.406H111.833ZM118.166 153.348C118.836 153.348 119.357 153.521 119.729 153.869C120.105 154.212 120.293 154.766 120.293 155.528V159.406H119.031V155.765C119.031 155.303 118.936 154.957 118.746 154.728C118.556 154.495 118.263 154.379 117.865 154.379C117.289 154.379 116.888 154.556 116.662 154.911C116.44 155.265 116.329 155.779 116.329 156.452V159.406H115.067V153.46H116.05L116.227 154.266H116.297C116.426 154.058 116.585 153.888 116.775 153.756C116.968 153.62 117.183 153.518 117.419 153.45C117.659 153.382 117.908 153.348 118.166 153.348ZM124.273 158.493C124.438 158.493 124.601 158.479 124.762 158.45C124.923 158.418 125.07 158.38 125.202 158.337V159.293C125.062 159.354 124.882 159.406 124.66 159.449C124.438 159.492 124.207 159.514 123.967 159.514C123.63 159.514 123.328 159.458 123.059 159.347C122.791 159.233 122.577 159.037 122.42 158.762C122.262 158.486 122.184 158.105 122.184 157.618V154.422H121.373V153.858L122.243 153.412L122.656 152.139H123.451V153.46H125.154V154.422H123.451V157.602C123.451 157.902 123.526 158.126 123.677 158.273C123.827 158.42 124.026 158.493 124.273 158.493ZM128.779 153.348C129.309 153.348 129.764 153.457 130.144 153.675C130.523 153.894 130.815 154.203 131.019 154.604C131.223 155.006 131.325 155.485 131.325 156.044V156.721H127.356C127.37 157.297 127.524 157.741 127.818 158.053C128.115 158.364 128.53 158.52 129.064 158.52C129.444 158.52 129.784 158.484 130.084 158.413C130.389 158.337 130.702 158.228 131.024 158.085V159.111C130.727 159.25 130.425 159.353 130.117 159.417C129.809 159.481 129.44 159.514 129.01 159.514C128.427 159.514 127.913 159.401 127.469 159.175C127.028 158.946 126.683 158.606 126.432 158.155C126.185 157.704 126.062 157.143 126.062 156.474C126.062 155.808 126.174 155.242 126.4 154.776C126.625 154.311 126.942 153.956 127.351 153.713C127.759 153.469 128.235 153.348 128.779 153.348ZM128.779 154.298C128.382 154.298 128.06 154.427 127.812 154.685C127.569 154.943 127.426 155.321 127.383 155.818H130.09C130.086 155.521 130.036 155.258 129.939 155.029C129.846 154.8 129.703 154.621 129.51 154.492C129.32 154.363 129.076 154.298 128.779 154.298ZM135.762 153.348C135.862 153.348 135.971 153.353 136.089 153.364C136.208 153.375 136.31 153.389 136.396 153.407L136.277 154.588C136.202 154.567 136.109 154.551 135.998 154.54C135.891 154.529 135.794 154.524 135.708 154.524C135.482 154.524 135.268 154.562 135.063 154.637C134.859 154.708 134.679 154.819 134.521 154.97C134.363 155.117 134.24 155.301 134.15 155.523C134.061 155.745 134.016 156.003 134.016 156.296V159.406H132.749V153.46H133.737L133.909 154.508H133.968C134.086 154.297 134.233 154.103 134.408 153.928C134.584 153.752 134.784 153.613 135.01 153.509C135.239 153.401 135.49 153.348 135.762 153.348ZM140.596 153.348C141.265 153.348 141.786 153.521 142.159 153.869C142.535 154.212 142.723 154.766 142.723 155.528V159.406H141.46V155.765C141.46 155.303 141.366 154.957 141.176 154.728C140.986 154.495 140.692 154.379 140.295 154.379C139.718 154.379 139.317 154.556 139.092 154.911C138.87 155.265 138.759 155.779 138.759 156.452V159.406H137.497V153.46H138.479L138.657 154.266H138.727C138.855 154.058 139.015 153.888 139.205 153.756C139.398 153.62 139.613 153.518 139.849 153.45C140.089 153.382 140.338 153.348 140.596 153.348ZM146.858 153.348C147.388 153.348 147.843 153.457 148.223 153.675C148.602 153.894 148.894 154.203 149.098 154.604C149.302 155.006 149.404 155.485 149.404 156.044V156.721H145.435C145.449 157.297 145.603 157.741 145.897 158.053C146.194 158.364 146.61 158.52 147.143 158.52C147.523 158.52 147.863 158.484 148.164 158.413C148.468 158.337 148.781 158.228 149.104 158.085V159.111C148.806 159.25 148.504 159.353 148.196 159.417C147.888 159.481 147.519 159.514 147.089 159.514C146.506 159.514 145.992 159.401 145.548 159.175C145.107 158.946 144.762 158.606 144.511 158.155C144.264 157.704 144.141 157.143 144.141 156.474C144.141 155.808 144.253 155.242 144.479 154.776C144.705 154.311 145.021 153.956 145.43 153.713C145.838 153.469 146.314 153.348 146.858 153.348ZM146.858 154.298C146.461 154.298 146.139 154.427 145.892 154.685C145.648 154.943 145.505 155.321 145.462 155.818H148.169C148.165 155.521 148.115 155.258 148.019 155.029C147.925 154.8 147.782 154.621 147.589 154.492C147.399 154.363 147.156 154.298 146.858 154.298ZM153.041 158.493C153.205 158.493 153.368 158.479 153.529 158.45C153.69 158.418 153.837 158.38 153.97 158.337V159.293C153.83 159.354 153.649 159.406 153.427 159.449C153.205 159.492 152.974 159.514 152.734 159.514C152.398 159.514 152.095 159.458 151.827 159.347C151.558 159.233 151.345 159.037 151.188 158.762C151.03 158.486 150.951 158.105 150.951 157.618V154.422H150.14V153.858L151.01 153.412L151.424 152.139H152.219V153.46H153.921V154.422H152.219V157.602C152.219 157.902 152.294 158.126 152.444 158.273C152.595 158.42 152.793 158.493 153.041 158.493Z" fill="#303030"/>
<path d="M198.052 145.406H196.09V140.036C196.09 139.888 196.092 139.706 196.097 139.49C196.101 139.27 196.107 139.046 196.116 138.817C196.124 138.585 196.133 138.375 196.141 138.189C196.095 138.244 195.999 138.339 195.855 138.475C195.716 138.606 195.585 138.724 195.462 138.83L194.396 139.687L193.45 138.506L196.439 136.126H198.052V145.406ZM207.129 145.406H200.642V144.042L202.971 141.687C203.441 141.204 203.818 140.802 204.101 140.48C204.389 140.155 204.596 139.858 204.723 139.592C204.854 139.325 204.92 139.04 204.92 138.735C204.92 138.367 204.816 138.092 204.609 137.91C204.406 137.723 204.133 137.63 203.79 137.63C203.43 137.63 203.081 137.713 202.743 137.878C202.404 138.043 202.051 138.278 201.683 138.583L200.616 137.319C200.883 137.091 201.164 136.875 201.46 136.672C201.761 136.469 202.108 136.306 202.501 136.183C202.899 136.056 203.375 135.993 203.93 135.993C204.539 135.993 205.062 136.103 205.498 136.323C205.938 136.543 206.276 136.843 206.513 137.224C206.75 137.601 206.869 138.028 206.869 138.506C206.869 139.018 206.767 139.486 206.564 139.909C206.361 140.332 206.065 140.751 205.675 141.166C205.29 141.581 204.825 142.04 204.279 142.543L203.085 143.667V143.756H207.129V145.406ZM219.71 145.406H217.749V141.401H214.073V145.406H212.105V136.126H214.073V139.763H217.749V136.126H219.71V145.406ZM225.867 138.176C225.965 138.176 226.077 138.183 226.204 138.195C226.335 138.204 226.441 138.216 226.521 138.233L226.375 140.049C226.312 140.028 226.221 140.013 226.102 140.004C225.988 139.992 225.888 139.985 225.804 139.985C225.554 139.985 225.311 140.017 225.074 140.081C224.841 140.144 224.632 140.248 224.445 140.392C224.259 140.531 224.111 140.717 224.001 140.95C223.895 141.179 223.842 141.46 223.842 141.794V145.406H221.906V138.31H223.373L223.658 139.503H223.753C223.893 139.262 224.067 139.042 224.274 138.843C224.486 138.64 224.725 138.479 224.991 138.36C225.262 138.238 225.554 138.176 225.867 138.176ZM232.761 143.299C232.761 143.781 232.646 144.19 232.418 144.524C232.194 144.854 231.857 145.106 231.409 145.279C230.96 145.449 230.402 145.533 229.733 145.533C229.238 145.533 228.812 145.501 228.457 145.438C228.106 145.375 227.75 145.269 227.391 145.121V143.521C227.776 143.694 228.188 143.838 228.628 143.953C229.073 144.063 229.462 144.118 229.796 144.118C230.173 144.118 230.442 144.063 230.603 143.953C230.768 143.838 230.85 143.69 230.85 143.508C230.85 143.39 230.816 143.284 230.749 143.191C230.685 143.094 230.545 142.986 230.33 142.867C230.114 142.744 229.775 142.586 229.314 142.391C228.87 142.205 228.504 142.017 228.216 141.826C227.932 141.636 227.721 141.411 227.581 141.153C227.446 140.891 227.378 140.559 227.378 140.157C227.378 139.501 227.632 139.008 228.14 138.678C228.652 138.343 229.335 138.176 230.19 138.176C230.63 138.176 231.049 138.221 231.447 138.31C231.849 138.398 232.261 138.54 232.685 138.735L232.101 140.131C231.749 139.979 231.417 139.854 231.104 139.757C230.795 139.66 230.48 139.611 230.158 139.611C229.875 139.611 229.661 139.649 229.517 139.725C229.373 139.801 229.301 139.918 229.301 140.074C229.301 140.188 229.337 140.29 229.409 140.379C229.485 140.468 229.629 140.567 229.841 140.677C230.057 140.783 230.372 140.921 230.787 141.09C231.189 141.255 231.538 141.428 231.834 141.61C232.13 141.788 232.359 142.01 232.52 142.277C232.68 142.539 232.761 142.88 232.761 143.299Z" fill="#09B3F1"/>
<path d="M200.051 151.554L197.307 159.406H195.942L193.198 151.554H194.519L196.173 156.474C196.223 156.617 196.277 156.791 196.334 156.995C196.395 157.199 196.451 157.405 196.501 157.612C196.555 157.82 196.596 158.004 196.625 158.166C196.653 158.004 196.693 157.82 196.743 157.612C196.796 157.405 196.852 157.199 196.909 156.995C196.966 156.791 197.02 156.615 197.07 156.468L198.73 151.554H200.051ZM203.285 153.348C204.037 153.348 204.604 153.514 204.987 153.847C205.374 154.18 205.567 154.699 205.567 155.405V159.406H204.67L204.429 158.563H204.386C204.217 158.778 204.044 158.955 203.865 159.095C203.686 159.234 203.478 159.338 203.242 159.406C203.009 159.478 202.724 159.514 202.388 159.514C202.033 159.514 201.716 159.449 201.437 159.32C201.158 159.188 200.938 158.987 200.776 158.719C200.615 158.45 200.535 158.11 200.535 157.698C200.535 157.086 200.762 156.626 201.217 156.318C201.675 156.01 202.366 155.84 203.29 155.808L204.321 155.77V155.458C204.321 155.047 204.225 154.753 204.031 154.578C203.841 154.402 203.573 154.314 203.226 154.314C202.928 154.314 202.64 154.357 202.361 154.443C202.082 154.529 201.809 154.635 201.544 154.76L201.136 153.869C201.426 153.715 201.756 153.589 202.125 153.493C202.497 153.396 202.884 153.348 203.285 153.348ZM204.316 156.565L203.548 156.592C202.918 156.613 202.475 156.721 202.221 156.914C201.967 157.107 201.84 157.372 201.84 157.709C201.84 158.003 201.928 158.217 202.103 158.354C202.278 158.486 202.509 158.552 202.796 158.552C203.233 158.552 203.594 158.429 203.881 158.182C204.171 157.931 204.316 157.564 204.316 157.081V156.565ZM208.602 159.406H207.334V151.049H208.602V159.406ZM211.669 153.46V159.406H210.407V153.46H211.669ZM211.046 151.183C211.239 151.183 211.406 151.235 211.545 151.339C211.689 151.443 211.76 151.622 211.76 151.876C211.76 152.127 211.689 152.306 211.545 152.413C211.406 152.517 211.239 152.569 211.046 152.569C210.845 152.569 210.675 152.517 210.536 152.413C210.4 152.306 210.332 152.127 210.332 151.876C210.332 151.622 210.4 151.443 210.536 151.339C210.675 151.235 210.845 151.183 211.046 151.183ZM215.477 159.514C214.768 159.514 214.199 159.256 213.769 158.74C213.343 158.221 213.13 157.457 213.13 156.447C213.13 155.426 213.347 154.655 213.78 154.132C214.217 153.609 214.791 153.348 215.504 153.348C215.805 153.348 216.068 153.389 216.293 153.471C216.519 153.55 216.712 153.657 216.874 153.793C217.038 153.93 217.178 154.082 217.292 154.25H217.352C217.334 154.139 217.312 153.98 217.287 153.772C217.266 153.561 217.255 153.366 217.255 153.187V151.049H218.522V159.406H217.534L217.309 158.595H217.255C217.147 158.767 217.011 158.923 216.847 159.062C216.686 159.199 216.492 159.308 216.267 159.39C216.045 159.472 215.781 159.514 215.477 159.514ZM215.832 158.488C216.372 158.488 216.754 158.332 216.976 158.021C217.198 157.709 217.312 157.242 217.319 156.619V156.452C217.319 155.786 217.212 155.276 216.997 154.921C216.782 154.563 216.39 154.384 215.821 154.384C215.366 154.384 215.019 154.569 214.779 154.938C214.542 155.303 214.424 155.813 214.424 156.468C214.424 157.124 214.542 157.625 214.779 157.972C215.019 158.316 215.37 158.488 215.832 158.488ZM221.595 153.46V159.406H220.333V153.46H221.595ZM220.972 151.183C221.165 151.183 221.332 151.235 221.471 151.339C221.614 151.443 221.686 151.622 221.686 151.876C221.686 152.127 221.614 152.306 221.471 152.413C221.332 152.517 221.165 152.569 220.972 152.569C220.771 152.569 220.601 152.517 220.461 152.413C220.325 152.306 220.257 152.127 220.257 151.876C220.257 151.622 220.325 151.443 220.461 151.339C220.601 151.235 220.771 151.183 220.972 151.183ZM225.618 158.493C225.782 158.493 225.945 158.479 226.106 158.45C226.268 158.418 226.414 158.38 226.547 158.337V159.293C226.407 159.354 226.226 159.406 226.004 159.449C225.782 159.492 225.551 159.514 225.312 159.514C224.975 159.514 224.672 159.458 224.404 159.347C224.135 159.233 223.922 159.037 223.765 158.762C223.607 158.486 223.528 158.105 223.528 157.618V154.422H222.717V153.858L223.587 153.412L224.001 152.139H224.796V153.46H226.499V154.422H224.796V157.602C224.796 157.902 224.871 158.126 225.021 158.273C225.172 158.42 225.371 158.493 225.618 158.493ZM226.858 153.46H228.233L229.453 156.855C229.506 157.009 229.555 157.161 229.598 157.312C229.644 157.458 229.684 157.603 229.716 157.747C229.752 157.89 229.78 158.033 229.802 158.176H229.834C229.87 157.99 229.92 157.782 229.984 157.553C230.052 157.32 230.128 157.088 230.21 156.855L231.381 153.46H232.74L230.188 160.223C230.042 160.609 229.861 160.939 229.646 161.211C229.435 161.487 229.184 161.694 228.894 161.834C228.604 161.977 228.273 162.049 227.9 162.049C227.721 162.049 227.566 162.038 227.433 162.017C227.301 161.999 227.188 161.979 227.095 161.958V160.948C227.17 160.966 227.265 160.982 227.379 160.996C227.494 161.01 227.612 161.018 227.734 161.018C227.959 161.018 228.155 160.973 228.319 160.883C228.484 160.794 228.624 160.667 228.738 160.502C228.853 160.341 228.948 160.156 229.023 159.949L229.232 159.39L226.858 153.46Z" fill="#303030"/>
<rect x="145" y="228.828" width="109.883" height="29.4531" rx="14.7266" fill="#3E4095"/>
<path d="M172.109 239.488L169.115 248.055H167.627L164.633 239.488H166.074L167.879 244.855C167.934 245.012 167.992 245.201 168.055 245.424C168.121 245.646 168.182 245.871 168.236 246.098C168.295 246.324 168.34 246.525 168.371 246.701C168.402 246.525 168.445 246.324 168.5 246.098C168.559 245.871 168.619 245.646 168.682 245.424C168.744 245.201 168.803 245.01 168.857 244.85L170.668 239.488H172.109ZM174.471 241.568V248.055H173.094V241.568H174.471ZM173.791 239.084C174.002 239.084 174.184 239.141 174.336 239.254C174.492 239.367 174.57 239.562 174.57 239.84C174.57 240.113 174.492 240.309 174.336 240.426C174.184 240.539 174.002 240.596 173.791 240.596C173.572 240.596 173.387 240.539 173.234 240.426C173.086 240.309 173.012 240.113 173.012 239.84C173.012 239.562 173.086 239.367 173.234 239.254C173.387 239.141 173.572 239.084 173.791 239.084ZM179.029 241.445C179.607 241.445 180.104 241.564 180.518 241.803C180.932 242.041 181.25 242.379 181.473 242.816C181.695 243.254 181.807 243.777 181.807 244.387V245.125H177.477C177.492 245.754 177.66 246.238 177.98 246.578C178.305 246.918 178.758 247.088 179.34 247.088C179.754 247.088 180.125 247.049 180.453 246.971C180.785 246.889 181.127 246.77 181.479 246.613V247.732C181.154 247.885 180.824 247.996 180.488 248.066C180.152 248.137 179.75 248.172 179.281 248.172C178.645 248.172 178.084 248.049 177.6 247.803C177.119 247.553 176.742 247.182 176.469 246.689C176.199 246.197 176.064 245.586 176.064 244.855C176.064 244.129 176.188 243.512 176.434 243.004C176.68 242.496 177.025 242.109 177.471 241.844C177.916 241.578 178.436 241.445 179.029 241.445ZM179.029 242.482C178.596 242.482 178.244 242.623 177.975 242.904C177.709 243.186 177.553 243.598 177.506 244.141H180.459C180.455 243.816 180.4 243.529 180.295 243.279C180.193 243.029 180.037 242.834 179.826 242.693C179.619 242.553 179.354 242.482 179.029 242.482ZM188.662 248.049L187.842 245.031C187.803 244.883 187.756 244.703 187.701 244.492C187.646 244.281 187.592 244.064 187.537 243.842C187.482 243.615 187.432 243.406 187.385 243.215C187.342 243.023 187.309 242.875 187.285 242.77H187.238C187.219 242.875 187.188 243.023 187.145 243.215C187.102 243.406 187.053 243.615 186.998 243.842C186.943 244.068 186.889 244.289 186.834 244.504C186.783 244.719 186.736 244.902 186.693 245.055L185.832 248.049H184.32L182.504 241.562H183.898L184.742 244.785C184.797 245.004 184.85 245.24 184.9 245.494C184.955 245.748 185.002 245.99 185.041 246.221C185.08 246.451 185.109 246.641 185.129 246.789H185.176C185.191 246.684 185.213 246.551 185.24 246.391C185.268 246.227 185.299 246.057 185.334 245.881C185.369 245.701 185.404 245.533 185.439 245.377C185.475 245.217 185.508 245.088 185.539 244.99L186.535 241.562H188.041L188.996 244.99C189.039 245.139 189.086 245.326 189.137 245.553C189.188 245.775 189.232 246 189.271 246.227C189.314 246.449 189.342 246.635 189.354 246.783H189.4C189.416 246.65 189.443 246.471 189.482 246.244C189.525 246.014 189.574 245.77 189.629 245.512C189.684 245.25 189.74 245.008 189.799 244.785L190.66 241.562H192.031L190.203 248.049H188.662ZM203.357 243.689C203.357 244.654 203.178 245.461 202.818 246.109C202.459 246.754 201.938 247.24 201.254 247.568C200.57 247.893 199.746 248.055 198.781 248.055H196.402V239.488H199.039C199.926 239.488 200.691 239.648 201.336 239.969C201.98 240.285 202.479 240.756 202.83 241.381C203.182 242.002 203.357 242.771 203.357 243.689ZM201.893 243.73C201.893 243.027 201.781 242.449 201.559 241.996C201.34 241.543 201.016 241.207 200.586 240.988C200.16 240.766 199.635 240.654 199.01 240.654H197.809V246.877H198.805C199.84 246.877 200.613 246.613 201.125 246.086C201.637 245.559 201.893 244.773 201.893 243.73ZM207.646 241.445C208.225 241.445 208.721 241.564 209.135 241.803C209.549 242.041 209.867 242.379 210.09 242.816C210.312 243.254 210.424 243.777 210.424 244.387V245.125H206.094C206.109 245.754 206.277 246.238 206.598 246.578C206.922 246.918 207.375 247.088 207.957 247.088C208.371 247.088 208.742 247.049 209.07 246.971C209.402 246.889 209.744 246.77 210.096 246.613V247.732C209.771 247.885 209.441 247.996 209.105 248.066C208.77 248.137 208.367 248.172 207.898 248.172C207.262 248.172 206.701 248.049 206.217 247.803C205.736 247.553 205.359 247.182 205.086 246.689C204.816 246.197 204.682 245.586 204.682 244.855C204.682 244.129 204.805 243.512 205.051 243.004C205.297 242.496 205.643 242.109 206.088 241.844C206.533 241.578 207.053 241.445 207.646 241.445ZM207.646 242.482C207.213 242.482 206.861 242.623 206.592 242.904C206.326 243.186 206.17 243.598 206.123 244.141H209.076C209.072 243.816 209.018 243.529 208.912 243.279C208.811 243.029 208.654 242.834 208.443 242.693C208.236 242.553 207.971 242.482 207.646 242.482ZM214.391 247.059C214.57 247.059 214.748 247.043 214.924 247.012C215.1 246.977 215.26 246.936 215.404 246.889V247.932C215.252 247.998 215.055 248.055 214.812 248.102C214.57 248.148 214.318 248.172 214.057 248.172C213.689 248.172 213.359 248.111 213.066 247.99C212.773 247.865 212.541 247.652 212.369 247.352C212.197 247.051 212.111 246.635 212.111 246.104V242.617H211.227V242.002L212.176 241.516L212.627 240.127H213.494V241.568H215.352V242.617H213.494V246.086C213.494 246.414 213.576 246.658 213.74 246.818C213.904 246.979 214.121 247.059 214.391 247.059ZM219.266 241.445C220.086 241.445 220.705 241.627 221.123 241.99C221.545 242.354 221.756 242.92 221.756 243.689V248.055H220.777L220.514 247.135H220.467C220.283 247.369 220.094 247.562 219.898 247.715C219.703 247.867 219.477 247.98 219.219 248.055C218.965 248.133 218.654 248.172 218.287 248.172C217.9 248.172 217.555 248.102 217.25 247.961C216.945 247.816 216.705 247.598 216.529 247.305C216.354 247.012 216.266 246.641 216.266 246.191C216.266 245.523 216.514 245.021 217.01 244.686C217.51 244.35 218.264 244.164 219.271 244.129L220.396 244.088V243.748C220.396 243.299 220.291 242.979 220.08 242.787C219.873 242.596 219.58 242.5 219.201 242.5C218.877 242.5 218.562 242.547 218.258 242.641C217.953 242.734 217.656 242.85 217.367 242.986L216.922 242.014C217.238 241.846 217.598 241.709 218 241.604C218.406 241.498 218.828 241.445 219.266 241.445ZM220.391 244.955L219.553 244.984C218.865 245.008 218.383 245.125 218.105 245.336C217.828 245.547 217.689 245.836 217.689 246.203C217.689 246.523 217.785 246.758 217.977 246.906C218.168 247.051 218.42 247.123 218.732 247.123C219.209 247.123 219.604 246.988 219.916 246.719C220.232 246.445 220.391 246.045 220.391 245.518V244.955ZM225.061 241.568V248.055H223.684V241.568H225.061ZM224.381 239.084C224.592 239.084 224.773 239.141 224.926 239.254C225.082 239.367 225.16 239.562 225.16 239.84C225.16 240.113 225.082 240.309 224.926 240.426C224.773 240.539 224.592 240.596 224.381 240.596C224.162 240.596 223.977 240.539 223.824 240.426C223.676 240.309 223.602 240.113 223.602 239.84C223.602 239.562 223.676 239.367 223.824 239.254C223.977 239.141 224.162 239.084 224.381 239.084ZM228.418 248.055H227.035V238.938H228.418V248.055ZM234.746 246.203C234.746 246.629 234.643 246.988 234.436 247.281C234.229 247.574 233.926 247.797 233.527 247.949C233.133 248.098 232.648 248.172 232.074 248.172C231.621 248.172 231.23 248.139 230.902 248.072C230.578 248.01 230.271 247.912 229.982 247.779V246.59C230.291 246.734 230.637 246.859 231.02 246.965C231.406 247.07 231.771 247.123 232.115 247.123C232.568 247.123 232.895 247.053 233.094 246.912C233.293 246.768 233.393 246.576 233.393 246.338C233.393 246.197 233.352 246.072 233.27 245.963C233.191 245.85 233.043 245.734 232.824 245.617C232.609 245.496 232.293 245.352 231.875 245.184C231.465 245.02 231.119 244.855 230.838 244.691C230.557 244.527 230.344 244.33 230.199 244.1C230.055 243.865 229.982 243.566 229.982 243.203C229.982 242.629 230.209 242.193 230.662 241.896C231.119 241.596 231.723 241.445 232.473 241.445C232.871 241.445 233.246 241.486 233.598 241.568C233.953 241.646 234.301 241.762 234.641 241.914L234.207 242.951C233.914 242.822 233.619 242.717 233.322 242.635C233.029 242.549 232.73 242.506 232.426 242.506C232.07 242.506 231.799 242.561 231.611 242.67C231.428 242.779 231.336 242.936 231.336 243.139C231.336 243.291 231.381 243.42 231.471 243.525C231.561 243.631 231.715 243.736 231.934 243.842C232.156 243.947 232.465 244.078 232.859 244.234C233.246 244.383 233.58 244.539 233.861 244.703C234.146 244.863 234.365 245.061 234.518 245.295C234.67 245.529 234.746 245.832 234.746 246.203Z" fill="white"/>
<path d="M59.0884 103.87H57.3456C57.3449 103.177 57.0693 102.513 56.5792 102.022C56.0891 101.532 55.4246 101.257 54.7314 101.256V99.5132C55.8866 99.5146 56.994 99.9741 57.8108 100.791C58.6276 101.608 59.087 102.715 59.0884 103.87Z" fill="#303030"/>
<path d="M62.5738 103.87H60.831C60.8292 102.253 60.1859 100.703 59.0424 99.559C57.8989 98.4155 56.3484 97.7723 54.7312 97.7704V96.0276C56.8105 96.03 58.804 96.857 60.2742 98.3272C61.7445 99.7975 62.5715 101.791 62.5738 103.87ZM60.831 117.812H60.6829C43.56 116.828 41.1288 102.38 40.7889 97.9709C40.7358 97.2796 40.9595 96.5956 41.4106 96.0692C41.8618 95.5429 42.5036 95.2173 43.1949 95.1641C43.264 95.1589 43.3334 95.1563 43.4031 95.1563H47.9954C48.3444 95.1559 48.6855 95.2604 48.9745 95.4562C49.2635 95.6519 49.487 95.9299 49.6162 96.2542L50.9407 99.5132C51.0682 99.83 51.0999 100.177 51.0317 100.512C50.9635 100.847 50.7986 101.154 50.5573 101.395L48.7012 103.269C48.9899 104.917 49.7786 106.436 50.9601 107.621C52.1417 108.806 53.659 109.598 55.3064 109.892L57.1973 108.018C57.4426 107.779 57.7527 107.618 58.089 107.555C58.4252 107.491 58.7728 107.528 59.0882 107.661L62.3734 108.977C62.6928 109.11 62.9653 109.335 63.1561 109.624C63.347 109.912 63.4476 110.251 63.4452 110.597V115.198C63.4452 115.892 63.1698 116.557 62.6795 117.047C62.1893 117.537 61.5243 117.812 60.831 117.812ZM43.4031 96.899C43.2887 96.8987 43.1753 96.9209 43.0695 96.9644C42.9636 97.0078 42.8673 97.0717 42.7862 97.1524C42.705 97.2331 42.6406 97.329 42.5964 97.4345C42.5523 97.5401 42.5295 97.6534 42.5291 97.7678C42.5291 97.7922 42.53 97.8163 42.5317 97.8401C42.9326 102.999 45.5032 115.198 60.7787 116.07C61.0094 116.084 61.236 116.005 61.4089 115.852C61.5818 115.699 61.6867 115.483 61.7007 115.252L61.7024 115.198V110.597L58.4172 109.282L55.9163 111.765L55.4981 111.713C47.9169 110.763 46.8887 103.182 46.8887 103.103L46.8364 102.685L49.3112 100.184L48.0041 96.899H43.4031Z" fill="#303030"/>
<path d="M121.687 104.901C122.265 105.479 123.183 105.536 123.806 105.015C129.096 100.665 136.776 100.665 142.078 105.003C142.712 105.524 143.641 105.479 144.219 104.901C144.887 104.233 144.842 103.123 144.106 102.522C137.637 97.2321 128.28 97.2321 121.8 102.522C121.064 103.111 121.008 104.222 121.687 104.901ZM130.478 113.692L132.143 115.357C132.585 115.799 133.299 115.799 133.74 115.357L135.406 113.692C135.938 113.159 135.825 112.242 135.145 111.891C134.46 111.539 133.701 111.355 132.93 111.355C132.16 111.355 131.401 111.539 130.716 111.891C130.07 112.242 129.945 113.159 130.478 113.692ZM126.252 109.467C126.808 110.022 127.68 110.078 128.325 109.614C129.677 108.658 131.292 108.144 132.947 108.144C134.603 108.144 136.218 108.658 137.569 109.614C138.215 110.067 139.087 110.022 139.642 109.467L139.654 109.455C140.333 108.775 140.288 107.62 139.506 107.065C135.609 104.244 130.297 104.244 126.388 107.065C125.607 107.631 125.561 108.775 126.252 109.467Z" fill="#303030"/>
<path d="M214.09 95.1562C207.837 95.1562 202.773 100.231 202.773 106.484C202.773 112.737 207.837 117.812 214.09 117.812C220.355 117.812 225.43 112.737 225.43 106.484C225.43 100.231 220.355 95.1562 214.09 95.1562ZM214.102 115.547C209.095 115.547 205.039 111.491 205.039 106.484C205.039 101.477 209.095 97.4219 214.102 97.4219C219.109 97.4219 223.164 101.477 223.164 106.484C223.164 111.491 219.109 115.547 214.102 115.547ZM214.668 100.82H212.969V107.617L218.916 111.186L219.766 109.792L214.668 106.768V100.82Z" fill="#303030"/>
</svg>
