<svg width="144" height="143" viewBox="0 0 144 143" fill="none" xmlns="http://www.w3.org/2000/svg">
<g filter="url(#filter0_d_127_605)">
<rect x="6.76953" y="6" width="130.978" height="130.978" rx="15" fill="white"/>
</g>
<path d="M63.3536 84.7363H61.4176V75.456H66.7369V77.0683H63.3536V79.4614H66.5021V81.0673H63.3536V84.7363ZM71.4151 75.3227C71.9145 75.3227 72.3588 75.401 72.7481 75.5576C73.1375 75.7141 73.4443 75.9426 73.6686 76.2431C73.8971 76.5436 74.0113 76.9096 74.0113 77.3412C74.0113 77.9379 73.8336 78.4394 73.4781 78.8456C73.1269 79.2519 72.6868 79.6074 72.1578 79.912L73.9606 81.6703C74.1383 81.3784 74.2885 81.0694 74.4112 80.7436C74.5382 80.4177 74.6482 80.0898 74.7413 79.7597H76.7599C76.6287 80.2464 76.4361 80.7669 76.1822 81.3212C75.9326 81.8714 75.6131 82.3898 75.2237 82.8764L77.1344 84.7363H74.7413L74.0113 84.019C73.7617 84.1925 73.4929 84.3427 73.2052 84.4697C72.9217 84.5966 72.617 84.6939 72.2911 84.7617C71.9695 84.8294 71.6288 84.8632 71.2691 84.8632C70.5667 84.8632 69.9636 84.7532 69.4601 84.5331C68.9565 84.3131 68.5714 84.0063 68.3048 83.6127C68.0382 83.2149 67.9049 82.7537 67.9049 82.2289C67.9049 81.7888 67.9726 81.4122 68.108 81.0991C68.2434 80.7817 68.4381 80.5045 68.692 80.2675C68.9459 80.0263 69.2506 79.8041 69.6061 79.601C69.3818 79.3386 69.2019 79.0932 69.0665 78.8647C68.9353 78.6362 68.8401 78.4098 68.7809 78.1855C68.7259 77.957 68.6983 77.7179 68.6983 77.4682C68.6983 77.0281 68.8126 76.6494 69.0411 76.332C69.2739 76.0104 69.5934 75.7628 69.9996 75.5893C70.4101 75.4116 70.8819 75.3227 71.4151 75.3227ZM70.7359 80.7563C70.5751 80.879 70.4334 81.006 70.3106 81.1371C70.1922 81.2683 70.1012 81.408 70.0377 81.5561C69.9742 81.7042 69.9425 81.8671 69.9425 82.0449C69.9425 82.4173 70.0821 82.7092 70.3614 82.9208C70.6407 83.1324 70.9877 83.2382 71.4024 83.2382C71.6817 83.2382 71.942 83.2044 72.1832 83.1367C72.4244 83.0689 72.6445 82.9737 72.8434 82.851L70.7359 80.7563ZM71.4024 76.8207C71.1866 76.8207 70.9793 76.8758 70.7804 76.9858C70.5857 77.0958 70.4884 77.301 70.4884 77.6015C70.4884 77.8131 70.5434 78.0204 70.6534 78.2236C70.7634 78.4225 70.9094 78.6256 71.0914 78.8329C71.4553 78.6341 71.7346 78.4352 71.9293 78.2363C72.124 78.0331 72.2213 77.8025 72.2213 77.5444C72.2213 77.2862 72.1324 77.1022 71.9547 76.9921C71.7812 76.8779 71.5971 76.8207 71.4024 76.8207ZM80.2384 84.7363H78.3023V75.456H83.6217V77.0683H80.2384V79.4614H83.3868V81.0673H80.2384V84.7363Z" fill="#09B3F1"/>
<path d="M51.3819 98.7363L50.6139 96.5556H47.6114L46.8434 98.7363H45.4845L48.4064 90.8515H49.8351L52.7516 98.7363H51.3819ZM50.2809 95.4492L49.5343 93.3007C49.5056 93.2076 49.4645 93.0769 49.4107 92.9086C49.357 92.7368 49.3033 92.5631 49.2496 92.3876C49.1959 92.2086 49.1511 92.0582 49.1153 91.9365C49.0795 92.0833 49.0348 92.248 48.9811 92.4306C48.9309 92.6096 48.8808 92.7779 48.8307 92.9355C48.7841 93.093 48.7483 93.2148 48.7232 93.3007L47.9713 95.4492H50.2809ZM56.0548 98.8437C55.4926 98.8437 55.0056 98.7345 54.5939 98.5161C54.1821 98.2976 53.8652 97.9628 53.6432 97.5117C53.4212 97.0605 53.3102 96.4876 53.3102 95.7929C53.3102 95.0696 53.4319 94.4788 53.6754 94.0204C53.9189 93.5621 54.2555 93.2237 54.6852 93.0053C55.1184 92.7869 55.6144 92.6777 56.173 92.6777C56.5274 92.6777 56.8479 92.7135 57.1344 92.7851C57.4244 92.8531 57.6697 92.9373 57.8702 93.0375L57.4942 94.0473C57.2758 93.9578 57.052 93.8826 56.8229 93.8217C56.5937 93.7608 56.3735 93.7304 56.1622 93.7304C55.8149 93.7304 55.5248 93.8074 55.2921 93.9614C55.0629 94.1153 54.8911 94.3445 54.7765 94.6489C54.6655 94.9532 54.61 95.331 54.61 95.7822C54.61 96.219 54.6673 96.5878 54.7818 96.8886C54.8964 97.1858 55.0665 97.4114 55.2921 97.5654C55.5177 97.7158 55.7952 97.791 56.1246 97.791C56.4505 97.791 56.7423 97.7516 57.0001 97.6728C57.2579 97.594 57.5014 97.492 57.7306 97.3666V98.4623C57.505 98.5912 57.2633 98.6861 57.0055 98.747C56.7477 98.8115 56.4308 98.8437 56.0548 98.8437ZM61.3399 97.8232C61.5047 97.8232 61.6676 97.8089 61.8287 97.7802C61.9898 97.748 62.1367 97.7104 62.2691 97.6674V98.6235C62.1295 98.6843 61.9487 98.7363 61.7267 98.7792C61.5047 98.8222 61.2737 98.8437 61.0338 98.8437C60.6972 98.8437 60.3946 98.7882 60.1261 98.6772C59.8575 98.5626 59.6445 98.3675 59.4869 98.0917C59.3294 97.816 59.2506 97.4347 59.2506 96.9477V93.7519H58.4396V93.1879L59.3097 92.7421L59.7232 91.4692H60.5182V92.7905H62.2208V93.7519H60.5182V96.9316C60.5182 97.2324 60.5934 97.4562 60.7438 97.603C60.8941 97.7498 61.0929 97.8232 61.3399 97.8232ZM64.7398 92.7905V98.7363H63.4776V92.7905H64.7398ZM64.1168 90.5131C64.3102 90.5131 64.4767 90.565 64.6163 90.6689C64.7595 90.7727 64.8312 90.9518 64.8312 91.206C64.8312 91.4566 64.7595 91.6357 64.6163 91.7431C64.4767 91.8469 64.3102 91.8989 64.1168 91.8989C63.9163 91.8989 63.7462 91.8469 63.6065 91.7431C63.4705 91.6357 63.4024 91.4566 63.4024 91.206C63.4024 90.9518 63.4705 90.7727 63.6065 90.6689C63.7462 90.565 63.9163 90.5131 64.1168 90.5131ZM67.9088 98.7363L65.6476 92.7905H66.985L68.2096 96.2817C68.2884 96.5037 68.36 96.7436 68.4244 97.0014C68.4889 97.2592 68.5336 97.4759 68.5587 97.6513H68.6017C68.6267 97.4687 68.6751 97.2503 68.7467 96.996C68.8183 96.7382 68.8917 96.5001 68.9669 96.2817L70.1915 92.7905H71.5235L69.2623 98.7363H67.9088ZM74.7569 92.6777C75.5089 92.6777 76.0764 92.8442 76.4596 93.1772C76.8463 93.5102 77.0397 94.0294 77.0397 94.7348V98.7363H76.1427L75.901 97.893H75.858C75.6897 98.1078 75.5161 98.2851 75.337 98.4247C75.158 98.5644 74.9503 98.6682 74.714 98.7363C74.4812 98.8079 74.1966 98.8437 73.86 98.8437C73.5055 98.8437 73.1886 98.7792 72.9093 98.6503C72.63 98.5178 72.4098 98.3173 72.2486 98.0488C72.0875 97.7802 72.0069 97.44 72.0069 97.0283C72.0069 96.416 72.2343 95.9558 72.6891 95.6479C73.1474 95.3399 73.8385 95.1699 74.7623 95.1376L75.7936 95.1V94.7885C75.7936 94.3767 75.6969 94.0831 75.5035 93.9077C75.3137 93.7322 75.0452 93.6445 74.6979 93.6445C74.4007 93.6445 74.1124 93.6874 73.8331 93.7734C73.5538 93.8593 73.2817 93.9649 73.0167 94.0903L72.6085 93.1987C72.8985 93.0447 73.228 92.9194 73.5968 92.8227C73.9692 92.726 74.3559 92.6777 74.7569 92.6777ZM75.7882 95.895L75.0201 95.9218C74.3899 95.9433 73.9477 96.0507 73.6935 96.2441C73.4392 96.4374 73.3121 96.7024 73.3121 97.039C73.3121 97.3326 73.3998 97.5475 73.5753 97.6835C73.7508 97.816 73.9817 97.8823 74.2682 97.8823C74.705 97.8823 75.0667 97.7587 75.3531 97.5117C75.6432 97.261 75.7882 96.894 75.7882 96.4106V95.895ZM81.0196 97.8232C81.1843 97.8232 81.3473 97.8089 81.5084 97.7802C81.6695 97.748 81.8163 97.7104 81.9488 97.6674V98.6235C81.8092 98.6843 81.6284 98.7363 81.4064 98.7792C81.1843 98.8222 80.9534 98.8437 80.7135 98.8437C80.3769 98.8437 80.0743 98.7882 79.8058 98.6772C79.5372 98.5626 79.3242 98.3675 79.1666 98.0917C79.0091 97.816 78.9303 97.4347 78.9303 96.9477V93.7519H78.1192V93.1879L78.9894 92.7421L79.4029 91.4692H80.1979V92.7905H81.9005V93.7519H80.1979V96.9316C80.1979 97.2324 80.2731 97.4562 80.4234 97.603C80.5738 97.7498 80.7726 97.8232 81.0196 97.8232ZM84.4195 92.7905V98.7363H83.1573V92.7905H84.4195ZM83.7965 90.5131C83.9898 90.5131 84.1564 90.565 84.296 90.6689C84.4392 90.7727 84.5108 90.9518 84.5108 91.206C84.5108 91.4566 84.4392 91.6357 84.296 91.7431C84.1564 91.8469 83.9898 91.8989 83.7965 91.8989C83.596 91.8989 83.4259 91.8469 83.2862 91.7431C83.1502 91.6357 83.0821 91.4566 83.0821 91.206C83.0821 90.9518 83.1502 90.7727 83.2862 90.6689C83.4259 90.565 83.596 90.5131 83.7965 90.5131ZM91.4933 95.7499C91.4933 96.2441 91.4288 96.6827 91.2999 97.0659C91.171 97.449 90.983 97.7731 90.7359 98.038C90.4889 98.2994 90.1917 98.4999 89.8443 98.6396C89.497 98.7757 89.1049 98.8437 88.6681 98.8437C88.2599 98.8437 87.8857 98.7757 87.5455 98.6396C87.2053 98.4999 86.9099 98.2994 86.6593 98.038C86.4122 97.7731 86.2206 97.449 86.0846 97.0659C85.9485 96.6827 85.8805 96.2441 85.8805 95.7499C85.8805 95.0947 85.9933 94.5397 86.2189 94.0849C86.448 93.6266 86.7739 93.2774 87.1964 93.0375C87.6189 92.7976 88.122 92.6777 88.7057 92.6777C89.2535 92.6777 89.7369 92.7976 90.1559 93.0375C90.5748 93.2774 90.9024 93.6266 91.1388 94.0849C91.3751 94.5432 91.4933 95.0982 91.4933 95.7499ZM87.1803 95.7499C87.1803 96.1832 87.2322 96.5538 87.336 96.8618C87.4435 97.1697 87.6082 97.406 87.8302 97.5707C88.0522 97.7319 88.3386 97.8124 88.6896 97.8124C89.0405 97.8124 89.3269 97.7319 89.5489 97.5707C89.7709 97.406 89.9339 97.1697 90.0377 96.8618C90.1415 96.5538 90.1935 96.1832 90.1935 95.7499C90.1935 95.3167 90.1415 94.9496 90.0377 94.6489C89.9339 94.3445 89.7709 94.1135 89.5489 93.956C89.3269 93.7949 89.0387 93.7143 88.6842 93.7143C88.1614 93.7143 87.7801 93.8898 87.5401 94.2407C87.3002 94.5916 87.1803 95.0947 87.1803 95.7499ZM96.0426 92.6777C96.7122 92.6777 97.2332 92.8513 97.6056 93.1987C97.9816 93.5424 98.1695 94.0956 98.1695 94.8583V98.7363H96.9073V95.0947C96.9073 94.6328 96.8124 94.2872 96.6227 94.058C96.4329 93.8253 96.1393 93.7089 95.7418 93.7089C95.1653 93.7089 94.7643 93.8862 94.5387 94.2407C94.3167 94.5952 94.2057 95.109 94.2057 95.7822V98.7363H92.9435V92.7905H93.9264L94.1036 93.5961H94.1734C94.3024 93.3884 94.4617 93.2184 94.6515 93.0859C94.8448 92.9498 95.0597 92.8478 95.296 92.7797C95.5359 92.7117 95.7848 92.6777 96.0426 92.6777Z" fill="#303030"/>
<path d="M59.4622 54.1758C58.6341 54.1758 57.9256 53.8812 57.3364 53.2921C56.7462 52.7019 56.4512 51.9928 56.4512 51.1648V33.0989C56.4512 32.2709 56.7462 31.5623 57.3364 30.9731C57.9256 30.383 58.6341 30.0879 59.4622 30.0879H86.5611C87.3891 30.0879 88.0982 30.383 88.6883 30.9731C89.2775 31.5623 89.572 32.2709 89.572 33.0989V51.1648C89.572 51.9928 89.2775 52.7019 88.6883 53.2921C88.0982 53.8812 87.3891 54.1758 86.5611 54.1758H59.4622ZM59.4622 51.1648H86.5611V33.0989H59.4622V51.1648ZM60.2149 46.6483H62.0968V41.3791L65.9358 46.6483H67.7424V37.6154H65.8605V42.8846L62.0968 37.6154H60.2149V46.6483ZM69.2479 46.6483H75.2699V44.7665H71.5061V43.1104H75.2699V41.2285H71.5061V39.4972H75.2699V37.6154H69.2479V46.6483ZM78.2808 46.6483H84.3028C84.7294 46.6483 85.0867 46.5038 85.3747 46.2147C85.6638 45.9267 85.8083 45.5694 85.8083 45.1428V37.6154H83.9264V44.3901H82.2704V39.1209H80.3885V44.3901H78.6572V37.6154H76.7753V45.1428C76.7753 45.5694 76.9199 45.9267 77.2089 46.2147C77.497 46.5038 77.8543 46.6483 78.2808 46.6483Z" fill="#303030"/>
<defs>
<filter id="filter0_d_127_605" x="0.769531" y="0" width="142.978" height="142.978" filterUnits="userSpaceOnUse" color-interpolation-filters="sRGB">
<feFlood flood-opacity="0" result="BackgroundImageFix"/>
<feColorMatrix in="SourceAlpha" type="matrix" values="0 0 0 0 0 0 0 0 0 0 0 0 0 0 0 0 0 0 127 0" result="hardAlpha"/>
<feOffset/>
<feGaussianBlur stdDeviation="3"/>
<feComposite in2="hardAlpha" operator="out"/>
<feColorMatrix type="matrix" values="0 0 0 0 0 0 0 0 0 0 0 0 0 0 0 0 0 0 0.25 0"/>
<feBlend mode="normal" in2="BackgroundImageFix" result="effect1_dropShadow_127_605"/>
<feBlend mode="normal" in="SourceGraphic" in2="effect1_dropShadow_127_605" result="shape"/>
</filter>
</defs>
</svg>
