<svg width="144" height="143" viewBox="0 0 144 143" fill="none" xmlns="http://www.w3.org/2000/svg">
<g filter="url(#filter0_d_127_609)">
<rect x="6.60449" y="6" width="130.978" height="130.978" rx="15" fill="white"/>
</g>
<path d="M50.2701 77.5317C50.2701 77.9591 50.1813 78.3294 50.0035 78.6425C49.8258 78.9557 49.5846 79.2117 49.2799 79.4106C48.9794 79.6095 48.6409 79.7555 48.2643 79.8486V79.8867C49.0091 79.9798 49.574 80.2083 49.9591 80.5722C50.3484 80.9361 50.5431 81.4228 50.5431 82.0322C50.5431 82.5738 50.4098 83.0584 50.1432 83.4858C49.8808 83.9132 49.4745 84.2496 48.9244 84.4951C48.3743 84.7405 47.6655 84.8632 46.798 84.8632C46.2859 84.8632 45.8077 84.8209 45.3634 84.7363C44.9233 84.6559 44.5086 84.531 44.1192 84.3618V82.6923C44.517 82.8954 44.9339 83.0499 45.3697 83.1557C45.8056 83.2573 46.2119 83.308 46.5885 83.308C47.291 83.308 47.7818 83.1874 48.0611 82.9462C48.3447 82.7008 48.4864 82.358 48.4864 81.9179C48.4864 81.6598 48.4208 81.4418 48.2897 81.2641C48.1585 81.0864 47.93 80.9509 47.6041 80.8578C47.2825 80.7648 46.8318 80.7182 46.2521 80.7182H45.5475V79.2138H46.2648C46.836 79.2138 47.2698 79.1609 47.566 79.0551C47.8665 78.9451 48.0696 78.797 48.1754 78.6108C48.2854 78.4203 48.3404 78.2045 48.3404 77.9633C48.3404 77.6332 48.2389 77.3751 48.0357 77.1889C47.8326 77.0027 47.4941 76.9096 47.0201 76.9096C46.7239 76.9096 46.4531 76.9477 46.2076 77.0239C45.9664 77.0958 45.7485 77.1847 45.5538 77.2905C45.3592 77.392 45.1878 77.4915 45.0397 77.5888L44.1319 76.2368C44.4959 75.9744 44.9212 75.7564 45.4078 75.5829C45.8987 75.4094 46.4827 75.3227 47.1598 75.3227C48.1162 75.3227 48.8736 75.5152 49.4322 75.9003C49.9908 76.2854 50.2701 76.8292 50.2701 77.5317ZM58.0206 80.0961C58.0206 80.8452 57.9614 81.5138 57.8429 82.102C57.7286 82.6902 57.5424 83.1896 57.2843 83.6C57.0304 84.0105 56.6961 84.3237 56.2814 84.5395C55.8666 84.7553 55.3631 84.8632 54.7706 84.8632C54.0258 84.8632 53.4143 84.6749 52.9361 84.2983C52.4579 83.9174 52.1046 83.3715 51.8761 82.6606C51.6476 81.9454 51.5333 81.0906 51.5333 80.0961C51.5333 79.0932 51.637 78.2363 51.8443 77.5253C52.0559 76.8102 52.3987 76.2621 52.8727 75.8813C53.3466 75.5004 53.9793 75.31 54.7706 75.31C55.5112 75.31 56.1205 75.5004 56.5987 75.8813C57.0812 76.2579 57.4387 76.8038 57.6715 77.519C57.9042 78.2299 58.0206 79.089 58.0206 80.0961ZM53.482 80.0961C53.482 80.8028 53.5201 81.3932 53.5963 81.8671C53.6767 82.3369 53.81 82.6902 53.9962 82.9272C54.1824 83.1642 54.4405 83.2827 54.7706 83.2827C55.0965 83.2827 55.3525 83.1663 55.5387 82.9335C55.7291 82.6966 55.8645 82.3432 55.9449 81.8735C56.0253 81.3995 56.0655 80.8071 56.0655 80.0961C56.0655 79.3894 56.0253 78.7991 55.9449 78.3251C55.8645 77.8512 55.7291 77.4957 55.5387 77.2587C55.3525 77.0175 55.0965 76.8969 54.7706 76.8969C54.4405 76.8969 54.1824 77.0175 53.9962 77.2587C53.81 77.4957 53.6767 77.8512 53.5963 78.3251C53.5201 78.7991 53.482 79.3894 53.482 80.0961ZM65.4601 80.0961C65.4601 80.8452 65.4008 81.5138 65.2823 82.102C65.1681 82.6902 64.9819 83.1896 64.7237 83.6C64.4698 84.0105 64.1355 84.3237 63.7208 84.5395C63.3061 84.7553 62.8025 84.8632 62.2101 84.8632C61.4653 84.8632 60.8538 84.6749 60.3756 84.2983C59.8974 83.9174 59.544 83.3715 59.3155 82.6606C59.087 81.9454 58.9728 81.0906 58.9728 80.0961C58.9728 79.0932 59.0764 78.2363 59.2838 77.5253C59.4954 76.8102 59.8382 76.2621 60.3121 75.8813C60.7861 75.5004 61.4187 75.31 62.2101 75.31C62.9506 75.31 63.56 75.5004 64.0382 75.8813C64.5206 76.2579 64.8782 76.8038 65.1109 77.519C65.3437 78.2299 65.4601 79.089 65.4601 80.0961ZM60.9215 80.0961C60.9215 80.8028 60.9596 81.3932 61.0357 81.8671C61.1162 82.3369 61.2495 82.6902 61.4356 82.9272C61.6218 83.1642 61.88 83.2827 62.2101 83.2827C62.5359 83.2827 62.7919 83.1663 62.9781 82.9335C63.1686 82.6966 63.304 82.3432 63.3844 81.8735C63.4648 81.3995 63.505 80.8071 63.505 80.0961C63.505 79.3894 63.4648 78.7991 63.3844 78.3251C63.304 77.8512 63.1686 77.4957 62.9781 77.2587C62.7919 77.0175 62.5359 76.8969 62.2101 76.8969C61.88 76.8969 61.6218 77.0175 61.4356 77.2587C61.2495 77.4957 61.1162 77.8512 61.0357 78.3251C60.9596 78.7991 60.9215 79.3894 60.9215 80.0961ZM74.4166 84.7363L72.1822 77.4555H72.1251C72.1336 77.629 72.1463 77.8914 72.1632 78.2426C72.1843 78.5896 72.2034 78.9599 72.2203 79.3535C72.2372 79.747 72.2457 80.1025 72.2457 80.4199V84.7363H70.4874V75.456H73.1661L75.3624 82.5527H75.4005L77.7301 75.456H80.4088V84.7363H78.5743V80.3437C78.5743 80.0517 78.5786 79.7153 78.587 79.3344C78.5997 78.9536 78.6145 78.5917 78.6315 78.249C78.6484 77.902 78.6611 77.6417 78.6695 77.4682H78.6124L76.2193 84.7363H74.4166ZM84.5348 77.6396V84.7363H82.5987V77.6396H84.5348ZM83.5699 74.8593C83.8577 74.8593 84.1052 74.927 84.3126 75.0624C84.52 75.1936 84.6236 75.4412 84.6236 75.8051C84.6236 76.1648 84.52 76.4145 84.3126 76.5541C84.1052 76.6896 83.8577 76.7573 83.5699 76.7573C83.2779 76.7573 83.0283 76.6896 82.8209 76.5541C82.6178 76.4145 82.5162 76.1648 82.5162 75.8051C82.5162 75.4412 82.6178 75.1936 82.8209 75.0624C83.0283 74.927 83.2779 74.8593 83.5699 74.8593ZM90.6031 77.5063C91.3606 77.5063 91.97 77.7136 92.4313 78.1284C92.8925 78.5388 93.1231 79.199 93.1231 80.1088V84.7363H91.1871V80.5912C91.1871 80.0834 91.094 79.7005 90.9078 79.4423C90.7259 79.1842 90.4381 79.0551 90.0445 79.0551C89.4521 79.0551 89.048 79.2561 88.8321 79.6581C88.6163 80.0602 88.5084 80.6399 88.5084 81.3974V84.7363H86.5724V77.6396H88.0514L88.3116 78.5473H88.4195C88.5719 78.3019 88.7602 78.103 88.9845 77.9506C89.213 77.7983 89.4648 77.6861 89.7398 77.6142C90.0191 77.5423 90.3069 77.5063 90.6031 77.5063ZM100.067 82.6288C100.067 83.1113 99.9532 83.5196 99.7247 83.8539C99.5004 84.184 99.164 84.4358 98.7154 84.6093C98.2669 84.7786 97.7083 84.8632 97.0397 84.8632C96.5445 84.8632 96.1192 84.8315 95.7638 84.768C95.4125 84.7045 95.0571 84.5987 94.6974 84.4506V82.851C95.0825 83.0245 95.4951 83.1684 95.9352 83.2827C96.3795 83.3927 96.7688 83.4477 97.1031 83.4477C97.4798 83.4477 97.7485 83.3927 97.9093 83.2827C98.0743 83.1684 98.1568 83.0203 98.1568 82.8383C98.1568 82.7198 98.123 82.614 98.0553 82.5209C97.9918 82.4236 97.8522 82.3157 97.6363 82.1972C97.4205 82.0745 97.082 81.9158 96.6207 81.7211C96.1764 81.5349 95.8103 81.3466 95.5226 81.1562C95.239 80.9658 95.0275 80.7415 94.8878 80.4833C94.7524 80.221 94.6847 79.8888 94.6847 79.4868C94.6847 78.8308 94.9386 78.3378 95.4464 78.0078C95.9584 77.6734 96.6419 77.5063 97.4967 77.5063C97.9368 77.5063 98.3557 77.5507 98.7535 77.6396C99.1555 77.7285 99.5681 77.8702 99.9913 78.0649L99.4073 79.4614C99.0561 79.309 98.7239 79.1842 98.4108 79.0869C98.1018 78.9895 97.7866 78.9409 97.465 78.9409C97.1814 78.9409 96.9677 78.9789 96.8238 79.0551C96.68 79.1313 96.608 79.2477 96.608 79.4042C96.608 79.5185 96.644 79.6201 96.7159 79.7089C96.7921 79.7978 96.936 79.8972 97.1476 80.0073C97.3634 80.1131 97.6787 80.2506 98.0934 80.4199C98.4954 80.5849 98.8445 80.7584 99.1407 80.9404C99.437 81.1181 99.6655 81.3403 99.8263 81.6069C99.9871 81.8692 100.067 82.2099 100.067 82.6288Z" fill="#09B3F1"/>
<path d="M60.379 94.7993C60.379 95.4044 60.302 95.9558 60.1481 96.4536C59.9977 96.9477 59.7703 97.3738 59.4659 97.7319C59.1616 98.0864 58.7802 98.3603 58.3219 98.5536C57.8635 98.747 57.3264 98.8437 56.7106 98.8437C56.0839 98.8437 55.5397 98.747 55.0777 98.5536C54.6194 98.3603 54.2381 98.0846 53.9337 97.7265C53.6329 97.3684 53.4073 96.9405 53.2569 96.4428C53.1065 95.9451 53.0314 95.3937 53.0314 94.7885C53.0314 93.9793 53.1638 93.2739 53.4288 92.6723C53.6974 92.0672 54.1038 91.5981 54.6481 91.2651C55.1959 90.9285 55.887 90.7602 56.7213 90.7602C57.5377 90.7602 58.2162 90.9267 58.7569 91.2597C59.2976 91.5927 59.7023 92.0618 59.9708 92.6669C60.2429 93.2685 60.379 93.9793 60.379 94.7993ZM54.3849 94.7993C54.3849 95.4044 54.4672 95.929 54.6319 96.373C54.7967 96.8134 55.0491 97.1536 55.3893 97.3935C55.733 97.6298 56.1734 97.748 56.7106 97.748C57.2512 97.748 57.6917 97.6298 58.0318 97.3935C58.372 97.1536 58.6227 96.8134 58.7838 96.373C58.9449 95.929 59.0255 95.4044 59.0255 94.7993C59.0255 93.879 58.8411 93.1593 58.4723 92.6401C58.107 92.1173 57.5234 91.8559 56.7213 91.8559C56.1842 91.8559 55.742 91.9741 55.3946 92.2104C55.0509 92.4467 54.7967 92.7851 54.6319 93.2255C54.4672 93.6624 54.3849 94.187 54.3849 94.7993ZM68.6183 98.7363H67.0338L63.1881 92.4682H63.1398C63.1541 92.6795 63.1666 92.9033 63.1773 93.1396C63.1917 93.3759 63.2024 93.6194 63.2096 93.8701C63.2203 94.1207 63.2293 94.3749 63.2364 94.6328V98.7363H62.0655V90.8837H63.6393L67.4796 97.1088H67.5172C67.51 96.9262 67.5011 96.7167 67.4903 96.4804C67.4796 96.2441 67.4689 96.0006 67.4581 95.7499C67.4509 95.4957 67.4456 95.2504 67.442 95.0141V90.8837H68.6183V98.7363ZM80.0909 98.7363H78.5065L74.6607 92.4682H74.6124C74.6267 92.6795 74.6393 92.9033 74.65 93.1396C74.6643 93.3759 74.6751 93.6194 74.6822 93.8701C74.693 94.1207 74.7019 94.3749 74.7091 94.6328V98.7363H73.5382V90.8837H75.1119L78.9523 97.1088H78.9898C78.9827 96.9262 78.9737 96.7167 78.963 96.4804C78.9523 96.2441 78.9415 96.0006 78.9308 95.7499C78.9236 95.4957 78.9182 95.2504 78.9147 95.0141V90.8837H80.0909V98.7363ZM84.3932 92.6777C84.9231 92.6777 85.3779 92.7869 85.7574 93.0053C86.137 93.2237 86.4288 93.5335 86.6329 93.9345C86.837 94.3356 86.9391 94.8154 86.9391 95.374V96.0507H82.9698C82.9842 96.6272 83.1381 97.0712 83.4317 97.3828C83.7289 97.6943 84.1443 97.85 84.6778 97.85C85.0574 97.85 85.3976 97.8142 85.6983 97.7426C86.0027 97.6674 86.316 97.5582 86.6383 97.415V98.4409C86.3411 98.5805 86.0385 98.6826 85.7306 98.747C85.4226 98.8115 85.0538 98.8437 84.6241 98.8437C84.0405 98.8437 83.5266 98.7309 83.0826 98.5053C82.6422 98.2761 82.2967 97.936 82.046 97.4848C81.7989 97.0336 81.6754 96.4732 81.6754 95.8036C81.6754 95.1376 81.7882 94.5719 82.0138 94.1064C82.2394 93.6409 82.5563 93.2864 82.9645 93.0429C83.3727 92.7994 83.8489 92.6777 84.3932 92.6777ZM84.3932 93.6284C83.9957 93.6284 83.6734 93.7573 83.4264 94.0151C83.1829 94.2729 83.0397 94.6507 82.9967 95.1484H85.7037C85.7001 94.8512 85.65 94.588 85.5533 94.3588C85.4602 94.1297 85.317 93.9506 85.1236 93.8217C84.9339 93.6928 84.6904 93.6284 84.3932 93.6284ZM90.5753 97.8232C90.74 97.8232 90.9029 97.8089 91.0641 97.7802C91.2252 97.748 91.372 97.7104 91.5045 97.6674V98.6235C91.3648 98.6843 91.184 98.7363 90.962 98.7792C90.74 98.8222 90.5091 98.8437 90.2691 98.8437C89.9326 98.8437 89.63 98.7882 89.3614 98.6772C89.0929 98.5626 88.8798 98.3675 88.7223 98.0917C88.5647 97.816 88.4859 97.4347 88.4859 96.9477V93.7519H87.6749V93.1879L88.545 92.7421L88.9586 91.4692H89.7535V92.7905H91.4562V93.7519H89.7535V96.9316C89.7535 97.2324 89.8287 97.4562 89.9791 97.603C90.1295 97.7498 90.3282 97.8232 90.5753 97.8232Z" fill="#303030"/>
<path d="M82.6188 38.8946H80.2553C80.2543 37.9546 79.8805 37.0534 79.2158 36.3887C78.5512 35.7241 77.6499 35.3503 76.71 35.3493V32.9858C78.2765 32.9877 79.7784 33.6108 80.8861 34.7185C81.9938 35.8262 82.6169 37.3281 82.6188 38.8946Z" fill="#303030"/>
<path d="M87.3456 38.8946H84.9821C84.9796 36.7014 84.1072 34.5987 82.5564 33.0479C81.0056 31.4971 78.9029 30.6247 76.7097 30.6222V28.2587C79.5296 28.2618 82.2331 29.3834 84.227 31.3773C86.2209 33.3713 87.3425 36.0747 87.3456 38.8946ZM84.9821 57.8029H84.7812C61.5595 56.4675 58.2623 36.8738 57.8014 30.894C57.7294 29.9566 58.0327 29.0289 58.6446 28.3151C59.2565 27.6012 60.1269 27.1597 61.0643 27.0875C61.1581 27.0805 61.2522 27.0769 61.3467 27.0769H67.5747C68.048 27.0764 68.5106 27.2181 68.9025 27.4836C69.2944 27.7491 69.5976 28.1262 69.7727 28.5659L71.569 32.9857C71.742 33.4154 71.7849 33.8863 71.6925 34.3402C71.6 34.794 71.3763 35.2106 71.0491 35.5384L68.5319 38.0792C68.9235 40.3143 69.993 42.3749 71.5954 43.9815C73.1978 45.5882 75.2556 46.6631 77.4897 47.0606L80.0541 44.5198C80.3868 44.1962 80.8074 43.9777 81.2634 43.8915C81.7194 43.8053 82.1908 43.8553 82.6186 44.0353L87.0738 45.8197C87.507 46.0004 87.8765 46.3059 88.1354 46.6974C88.3942 47.0889 88.5307 47.5485 88.5274 48.0178V54.2576C88.5274 55.1978 88.1539 56.0996 87.489 56.7645C86.8241 57.4293 85.9224 57.8029 84.9821 57.8029ZM61.3467 29.4404C61.1916 29.44 61.0378 29.4701 60.8942 29.529C60.7507 29.588 60.6201 29.6747 60.5101 29.7841C60.4 29.8935 60.3126 30.0235 60.2527 30.1667C60.1929 30.3099 60.1619 30.4635 60.1614 30.6187C60.1614 30.6518 60.1626 30.6844 60.165 30.7167C60.7086 37.7128 64.1948 54.2576 84.9112 55.4393C85.224 55.4581 85.5314 55.3518 85.7659 55.1439C86.0003 54.9361 86.1426 54.6436 86.1615 54.3308L86.1639 54.2576V48.0178L81.7086 46.2334L78.3169 49.6014L77.7497 49.5305C67.4683 48.2424 66.0738 37.961 66.0738 37.8546L66.0029 37.2874L69.3591 33.8957L67.5865 29.4404H61.3467Z" fill="#303030"/>
<defs>
<filter id="filter0_d_127_609" x="0.604492" y="0" width="142.978" height="142.978" filterUnits="userSpaceOnUse" color-interpolation-filters="sRGB">
<feFlood flood-opacity="0" result="BackgroundImageFix"/>
<feColorMatrix in="SourceAlpha" type="matrix" values="0 0 0 0 0 0 0 0 0 0 0 0 0 0 0 0 0 0 127 0" result="hardAlpha"/>
<feOffset/>
<feGaussianBlur stdDeviation="3"/>
<feComposite in2="hardAlpha" operator="out"/>
<feColorMatrix type="matrix" values="0 0 0 0 0 0 0 0 0 0 0 0 0 0 0 0 0 0 0.25 0"/>
<feBlend mode="normal" in2="BackgroundImageFix" result="effect1_dropShadow_127_609"/>
<feBlend mode="normal" in="SourceGraphic" in2="effect1_dropShadow_127_609" result="shape"/>
</filter>
</defs>
</svg>
