<svg width="116" height="116" viewBox="0 0 116 116" fill="none" xmlns="http://www.w3.org/2000/svg">
<path d="M60.4577 33.4883C75.1244 33.4883 87.1244 43.109 87.1244 54.9871C87.1244 66.8651 75.1244 76.4858 60.4577 76.4858C57.151 76.4858 53.9777 76.002 51.0443 75.1421C43.2577 81.8604 33.791 81.8604 33.791 81.8604C40.0043 75.5989 40.991 71.3798 41.1243 69.7674C36.591 65.9245 33.791 60.7111 33.791 54.9871C33.791 43.109 45.791 33.4883 60.4577 33.4883ZM73.791 57.6744V52.2997H68.4577V57.6744H73.791ZM63.1243 57.6744V52.2997H57.791V57.6744H63.1243ZM52.4577 57.6744V52.2997H47.1243V57.6744H52.4577Z" fill="#007643"/>
<circle cx="57.9767" cy="57.6744" r="56.6744" stroke="#007643" stroke-width="2"/>
</svg>
