<svg width="786" height="364" viewBox="0 0 786 364" fill="none" xmlns="http://www.w3.org/2000/svg">
<path d="M33.7578 39.3281C33.7578 40.8776 33.3672 42.349 32.5859 43.7422C31.8047 45.1224 30.5872 46.2422 28.9336 47.1016C27.293 47.9609 25.1706 48.3906 22.5664 48.3906C21.2643 48.3906 20.1185 48.332 19.1289 48.2148C18.1523 48.0977 17.2409 47.9089 16.3945 47.6484C15.5482 47.375 14.6693 47.0234 13.7578 46.5938V39.7188C15.3073 40.5 16.8698 41.099 18.4453 41.5156C20.0208 41.9193 21.4466 42.1211 22.7227 42.1211C23.4909 42.1211 24.1159 42.0299 24.5977 41.8477C25.0924 41.6654 25.457 41.418 25.6914 41.1055C25.9258 40.7799 26.043 40.4089 26.043 39.9922C26.043 39.4974 25.8672 39.0807 25.5156 38.7422C25.1771 38.3906 24.6302 38.026 23.875 37.6484C23.1198 37.2708 22.1237 36.8021 20.8867 36.2422C19.832 35.7474 18.875 35.2396 18.0156 34.7188C17.1693 34.1979 16.4401 33.6055 15.8281 32.9414C15.2292 32.2643 14.7669 31.4766 14.4414 30.5781C14.1159 29.6797 13.9531 28.6185 13.9531 27.3945C13.9531 25.5586 14.4023 24.0221 15.3008 22.7852C16.2122 21.5352 17.4753 20.5977 19.0898 19.9727C20.7174 19.3477 22.5924 19.0352 24.7148 19.0352C26.5768 19.0352 28.25 19.2435 29.7344 19.6602C31.2318 20.0768 32.5729 20.5521 33.7578 21.0859L31.3945 27.043C30.1706 26.4831 28.9661 26.0404 27.7812 25.7148C26.5964 25.3763 25.4961 25.207 24.4805 25.207C23.8164 25.207 23.2695 25.2917 22.8398 25.4609C22.4232 25.6172 22.1107 25.832 21.9023 26.1055C21.707 26.3789 21.6094 26.6914 21.6094 27.043C21.6094 27.4857 21.7786 27.8828 22.1172 28.2344C22.4688 28.5859 23.0482 28.9701 23.8555 29.3867C24.6758 29.7904 25.7891 30.3177 27.1953 30.9688C28.5885 31.5938 29.7734 32.2708 30.75 33C31.7266 33.7161 32.4688 34.582 32.9766 35.5977C33.4974 36.6003 33.7578 37.8438 33.7578 39.3281ZM55.125 48H38.1719V19.4453H55.125V25.6367H45.8867V30.1289H54.4414V36.3203H45.8867V41.7109H55.125V48ZM60.125 48V19.4453H67.8398V41.7695H78.8359V48H60.125ZM91.0039 48H83.4062V19.4453H100.281V25.6367H91.0039V31.0859H99.5586V37.2773H91.0039V48ZM134.031 39.3281C134.031 40.8776 133.641 42.349 132.859 43.7422C132.078 45.1224 130.861 46.2422 129.207 47.1016C127.566 47.9609 125.444 48.3906 122.84 48.3906C121.538 48.3906 120.392 48.332 119.402 48.2148C118.426 48.0977 117.514 47.9089 116.668 47.6484C115.822 47.375 114.943 47.0234 114.031 46.5938V39.7188C115.581 40.5 117.143 41.099 118.719 41.5156C120.294 41.9193 121.72 42.1211 122.996 42.1211C123.764 42.1211 124.389 42.0299 124.871 41.8477C125.366 41.6654 125.73 41.418 125.965 41.1055C126.199 40.7799 126.316 40.4089 126.316 39.9922C126.316 39.4974 126.141 39.0807 125.789 38.7422C125.451 38.3906 124.904 38.026 124.148 37.6484C123.393 37.2708 122.397 36.8021 121.16 36.2422C120.105 35.7474 119.148 35.2396 118.289 34.7188C117.443 34.1979 116.714 33.6055 116.102 32.9414C115.503 32.2643 115.04 31.4766 114.715 30.5781C114.389 29.6797 114.227 28.6185 114.227 27.3945C114.227 25.5586 114.676 24.0221 115.574 22.7852C116.486 21.5352 117.749 20.5977 119.363 19.9727C120.991 19.3477 122.866 19.0352 124.988 19.0352C126.85 19.0352 128.523 19.2435 130.008 19.6602C131.505 20.0768 132.846 20.5521 134.031 21.0859L131.668 27.043C130.444 26.4831 129.24 26.0404 128.055 25.7148C126.87 25.3763 125.77 25.207 124.754 25.207C124.09 25.207 123.543 25.2917 123.113 25.4609C122.697 25.6172 122.384 25.832 122.176 26.1055C121.98 26.3789 121.883 26.6914 121.883 27.043C121.883 27.4857 122.052 27.8828 122.391 28.2344C122.742 28.5859 123.322 28.9701 124.129 29.3867C124.949 29.7904 126.062 30.3177 127.469 30.9688C128.862 31.5938 130.047 32.2708 131.023 33C132 33.7161 132.742 34.582 133.25 35.5977C133.771 36.6003 134.031 37.8438 134.031 39.3281ZM155.398 48H138.445V19.4453H155.398V25.6367H146.16V30.1289H154.715V36.3203H146.16V41.7109H155.398V48ZM169.754 19.4453C172.345 19.4453 174.5 19.7643 176.219 20.4023C177.938 21.0273 179.227 21.9648 180.086 23.2148C180.958 24.4648 181.395 26.0208 181.395 27.8828C181.395 29.0417 181.199 30.0964 180.809 31.0469C180.418 31.9974 179.858 32.8503 179.129 33.6055C178.413 34.3477 177.553 34.9987 176.551 35.5586L184.871 48H176.121L170.066 37.6094H168.113V48H160.398V19.4453H169.754ZM169.637 25.2852H168.113V31.8086H169.559C170.743 31.8086 171.714 31.5482 172.469 31.0273C173.224 30.5065 173.602 29.5755 173.602 28.2344C173.602 27.3099 173.289 26.5872 172.664 26.0664C172.039 25.5456 171.03 25.2852 169.637 25.2852ZM212.137 19.4453L202.781 48H193.699L184.383 19.4453H193.055L196.941 33.918C197.085 34.4648 197.247 35.168 197.43 36.0273C197.625 36.8737 197.801 37.7201 197.957 38.5664C198.126 39.4128 198.23 40.1029 198.27 40.6367C198.322 40.1029 198.419 39.4193 198.562 38.5859C198.706 37.7526 198.862 36.9193 199.031 36.0859C199.214 35.2396 199.383 34.543 199.539 33.9961L203.504 19.4453H212.137ZM215.242 48V19.4453H222.996V48H215.242ZM241.902 25.3633C240.991 25.3633 240.177 25.5586 239.461 25.9492C238.745 26.3268 238.133 26.8802 237.625 27.6094C237.117 28.3385 236.727 29.2305 236.453 30.2852C236.193 31.3268 236.062 32.5117 236.062 33.8398C236.062 35.6367 236.29 37.1471 236.746 38.3711C237.202 39.5951 237.892 40.5195 238.816 41.1445C239.754 41.7695 240.926 42.082 242.332 42.082C243.608 42.082 244.832 41.9062 246.004 41.5547C247.189 41.2031 248.38 40.7799 249.578 40.2852V46.8086C248.315 47.3685 247.02 47.7721 245.691 48.0195C244.376 48.2669 242.977 48.3906 241.492 48.3906C238.393 48.3906 235.854 47.7786 233.875 46.5547C231.909 45.3177 230.457 43.6055 229.52 41.418C228.595 39.2305 228.133 36.6914 228.133 33.8008C228.133 31.6393 228.432 29.6602 229.031 27.8633C229.643 26.0664 230.535 24.5104 231.707 23.1953C232.879 21.8672 234.324 20.8451 236.043 20.1289C237.775 19.3997 239.754 19.0352 241.98 19.0352C243.361 19.0352 244.812 19.1979 246.336 19.5234C247.872 19.8359 249.37 20.3438 250.828 21.0469L248.465 27.1211C247.423 26.6263 246.368 26.2096 245.301 25.8711C244.233 25.5326 243.1 25.3633 241.902 25.3633ZM272.117 48H255.164V19.4453H272.117V25.6367H262.879V30.1289H271.434V36.3203H262.879V41.7109H272.117V48ZM295.789 39.3281C295.789 40.8776 295.398 42.349 294.617 43.7422C293.836 45.1224 292.618 46.2422 290.965 47.1016C289.324 47.9609 287.202 48.3906 284.598 48.3906C283.296 48.3906 282.15 48.332 281.16 48.2148C280.184 48.0977 279.272 47.9089 278.426 47.6484C277.579 47.375 276.701 47.0234 275.789 46.5938V39.7188C277.339 40.5 278.901 41.099 280.477 41.5156C282.052 41.9193 283.478 42.1211 284.754 42.1211C285.522 42.1211 286.147 42.0299 286.629 41.8477C287.124 41.6654 287.488 41.418 287.723 41.1055C287.957 40.7799 288.074 40.4089 288.074 39.9922C288.074 39.4974 287.898 39.0807 287.547 38.7422C287.208 38.3906 286.661 38.026 285.906 37.6484C285.151 37.2708 284.155 36.8021 282.918 36.2422C281.863 35.7474 280.906 35.2396 280.047 34.7188C279.201 34.1979 278.471 33.6055 277.859 32.9414C277.26 32.2643 276.798 31.4766 276.473 30.5781C276.147 29.6797 275.984 28.6185 275.984 27.3945C275.984 25.5586 276.434 24.0221 277.332 22.7852C278.243 21.5352 279.507 20.5977 281.121 19.9727C282.749 19.3477 284.624 19.0352 286.746 19.0352C288.608 19.0352 290.281 19.2435 291.766 19.6602C293.263 20.0768 294.604 20.5521 295.789 21.0859L293.426 27.043C292.202 26.4831 290.997 26.0404 289.812 25.7148C288.628 25.3763 287.527 25.207 286.512 25.207C285.848 25.207 285.301 25.2917 284.871 25.4609C284.454 25.6172 284.142 25.832 283.934 26.1055C283.738 26.3789 283.641 26.6914 283.641 27.043C283.641 27.4857 283.81 27.8828 284.148 28.2344C284.5 28.5859 285.079 28.9701 285.887 29.3867C286.707 29.7904 287.82 30.3177 289.227 30.9688C290.62 31.5938 291.805 32.2708 292.781 33C293.758 33.7161 294.5 34.582 295.008 35.5977C295.529 36.6003 295.789 37.8438 295.789 39.3281ZM310.594 48V19.4453H318.309V41.7695H329.305V48H310.594ZM333.875 48V19.4453H341.629V48H333.875ZM375.008 48H364.891L354.461 27.8828H354.285C354.35 28.4948 354.409 29.2305 354.461 30.0898C354.513 30.9492 354.559 31.8281 354.598 32.7266C354.637 33.612 354.656 34.4128 354.656 35.1289V48H347.82V19.4453H357.898L368.289 39.2891H368.406C368.367 38.6641 368.328 37.9414 368.289 37.1211C368.25 36.2878 368.211 35.4479 368.172 34.6016C368.146 33.7552 368.133 33.0065 368.133 32.3555V19.4453H375.008V48ZM405.574 48H396.863L391.219 37.082L388.934 38.4492V48H381.18V19.4453H388.934V31.8477C389.259 31.2227 389.63 30.5977 390.047 29.9727C390.477 29.3477 390.893 28.7552 391.297 28.1953L397.293 19.4453H405.73L396.727 32.2383L405.574 48ZM427.352 39.3281C427.352 40.8776 426.961 42.349 426.18 43.7422C425.398 45.1224 424.181 46.2422 422.527 47.1016C420.887 47.9609 418.764 48.3906 416.16 48.3906C414.858 48.3906 413.712 48.332 412.723 48.2148C411.746 48.0977 410.835 47.9089 409.988 47.6484C409.142 47.375 408.263 47.0234 407.352 46.5938V39.7188C408.901 40.5 410.464 41.099 412.039 41.5156C413.615 41.9193 415.04 42.1211 416.316 42.1211C417.085 42.1211 417.71 42.0299 418.191 41.8477C418.686 41.6654 419.051 41.418 419.285 41.1055C419.52 40.7799 419.637 40.4089 419.637 39.9922C419.637 39.4974 419.461 39.0807 419.109 38.7422C418.771 38.3906 418.224 38.026 417.469 37.6484C416.714 37.2708 415.717 36.8021 414.48 36.2422C413.426 35.7474 412.469 35.2396 411.609 34.7188C410.763 34.1979 410.034 33.6055 409.422 32.9414C408.823 32.2643 408.361 31.4766 408.035 30.5781C407.71 29.6797 407.547 28.6185 407.547 27.3945C407.547 25.5586 407.996 24.0221 408.895 22.7852C409.806 21.5352 411.069 20.5977 412.684 19.9727C414.311 19.3477 416.186 19.0352 418.309 19.0352C420.171 19.0352 421.844 19.2435 423.328 19.6602C424.826 20.0768 426.167 20.5521 427.352 21.0859L424.988 27.043C423.764 26.4831 422.56 26.0404 421.375 25.7148C420.19 25.3763 419.09 25.207 418.074 25.207C417.41 25.207 416.863 25.2917 416.434 25.4609C416.017 25.6172 415.704 25.832 415.496 26.1055C415.301 26.3789 415.203 26.6914 415.203 27.043C415.203 27.4857 415.372 27.8828 415.711 28.2344C416.062 28.5859 416.642 28.9701 417.449 29.3867C418.27 29.7904 419.383 30.3177 420.789 30.9688C422.182 31.5938 423.367 32.2708 424.344 33C425.32 33.7161 426.062 34.582 426.57 35.5977C427.091 36.6003 427.352 37.8438 427.352 39.3281Z" fill="#197745"/>
<g filter="url(#filter0_d_149_1044)">
<rect x="12" y="114" width="238" height="238" rx="21" fill="white"/>
</g>
<path d="M87.5088 267.265C86.4834 267.265 85.5654 267.45 84.7549 267.821C83.9541 268.192 83.2754 268.729 82.7188 269.433C82.1621 270.126 81.7373 270.971 81.4443 271.967C81.1514 272.953 81.0049 274.066 81.0049 275.307C81.0049 276.967 81.2393 278.397 81.708 279.599C82.1768 280.79 82.8896 281.708 83.8467 282.353C84.8037 282.987 86.0146 283.305 87.4795 283.305C88.3877 283.305 89.2715 283.217 90.1309 283.041C90.9902 282.865 91.8789 282.626 92.7969 282.323V285.312C91.9277 285.653 91.0488 285.902 90.1602 286.059C89.2715 286.215 88.2461 286.293 87.084 286.293C84.8965 286.293 83.0801 285.839 81.6348 284.931C80.1992 284.022 79.125 282.743 78.4121 281.093C77.709 279.442 77.3574 277.509 77.3574 275.292C77.3574 273.671 77.582 272.187 78.0312 270.839C78.4805 269.491 79.1348 268.329 79.9941 267.353C80.8535 266.366 81.9131 265.609 83.1729 265.082C84.4424 264.545 85.8926 264.276 87.5234 264.276C88.5977 264.276 89.6523 264.398 90.6875 264.643C91.7324 264.877 92.6992 265.214 93.5879 265.653L92.3574 268.554C91.6152 268.202 90.8389 267.899 90.0283 267.646C89.2178 267.392 88.3779 267.265 87.5088 267.265ZM103.505 269.477C104.95 269.477 106.19 269.774 107.226 270.37C108.261 270.966 109.057 271.811 109.613 272.904C110.17 273.998 110.448 275.307 110.448 276.83V278.676H99.623C99.6621 280.248 100.082 281.459 100.883 282.309C101.693 283.158 102.826 283.583 104.281 283.583C105.316 283.583 106.244 283.485 107.064 283.29C107.895 283.085 108.749 282.787 109.628 282.396V285.194C108.817 285.575 107.992 285.854 107.152 286.029C106.312 286.205 105.307 286.293 104.135 286.293C102.543 286.293 101.142 285.985 99.9307 285.37C98.7295 284.745 97.7871 283.817 97.1035 282.587C96.4297 281.356 96.0928 279.828 96.0928 278.002C96.0928 276.186 96.4004 274.643 97.0156 273.373C97.6309 272.104 98.4951 271.137 99.6084 270.473C100.722 269.809 102.021 269.477 103.505 269.477ZM103.505 272.069C102.421 272.069 101.542 272.421 100.868 273.124C100.204 273.827 99.8135 274.857 99.6963 276.215H107.079C107.069 275.404 106.933 274.687 106.669 274.062C106.415 273.437 106.024 272.948 105.497 272.597C104.979 272.245 104.315 272.069 103.505 272.069ZM117.787 286H114.33V263.207H117.787V286ZM126.166 286H122.709V263.207H126.166V286ZM145.224 269.784V286H142.514L142.045 283.817H141.854C141.513 284.374 141.078 284.838 140.551 285.209C140.023 285.57 139.438 285.839 138.793 286.015C138.148 286.2 137.47 286.293 136.757 286.293C135.536 286.293 134.491 286.088 133.622 285.678C132.763 285.258 132.104 284.613 131.645 283.744C131.186 282.875 130.956 281.752 130.956 280.375V269.784H134.413V279.73C134.413 280.99 134.667 281.933 135.175 282.558C135.692 283.183 136.493 283.495 137.577 283.495C138.622 283.495 139.452 283.28 140.067 282.851C140.683 282.421 141.117 281.786 141.371 280.946C141.635 280.106 141.767 279.076 141.767 277.855V269.784H145.224ZM153.617 286H150.16V263.207H153.617V286ZM164.896 269.477C166.947 269.477 168.495 269.931 169.54 270.839C170.595 271.747 171.122 273.163 171.122 275.087V286H168.676L168.017 283.7H167.899C167.44 284.286 166.967 284.77 166.479 285.15C165.99 285.531 165.424 285.814 164.779 286C164.145 286.195 163.368 286.293 162.45 286.293C161.483 286.293 160.619 286.117 159.857 285.766C159.096 285.404 158.495 284.857 158.056 284.125C157.616 283.393 157.396 282.465 157.396 281.342C157.396 279.672 158.017 278.417 159.257 277.577C160.507 276.737 162.392 276.273 164.911 276.186L167.724 276.083V275.233C167.724 274.11 167.46 273.31 166.933 272.831C166.415 272.353 165.683 272.113 164.735 272.113C163.925 272.113 163.139 272.23 162.377 272.465C161.615 272.699 160.873 272.987 160.15 273.329L159.037 270.897C159.828 270.478 160.727 270.136 161.732 269.872C162.748 269.608 163.803 269.477 164.896 269.477ZM167.709 278.251L165.614 278.324C163.896 278.383 162.689 278.676 161.996 279.203C161.303 279.73 160.956 280.453 160.956 281.371C160.956 282.172 161.195 282.758 161.674 283.129C162.152 283.49 162.782 283.671 163.563 283.671C164.755 283.671 165.741 283.334 166.522 282.66C167.313 281.977 167.709 280.976 167.709 279.657V278.251ZM184.159 269.477C184.433 269.477 184.73 269.491 185.053 269.521C185.375 269.55 185.653 269.589 185.888 269.638L185.565 272.86C185.36 272.802 185.106 272.758 184.804 272.729C184.511 272.699 184.247 272.685 184.013 272.685C183.397 272.685 182.812 272.787 182.255 272.992C181.698 273.188 181.205 273.49 180.775 273.9C180.346 274.301 180.009 274.804 179.765 275.409C179.521 276.015 179.398 276.718 179.398 277.519V286H175.941V269.784H178.637L179.105 272.641H179.267C179.589 272.064 179.989 271.537 180.468 271.059C180.946 270.58 181.493 270.199 182.108 269.916C182.733 269.623 183.417 269.477 184.159 269.477ZM87.2012 316.17C87.2012 317.439 86.8887 318.533 86.2637 319.451C85.6484 320.369 84.7598 321.072 83.5977 321.561C82.4453 322.049 81.0684 322.293 79.4668 322.293C78.6855 322.293 77.9385 322.249 77.2256 322.161C76.5127 322.073 75.8389 321.946 75.2041 321.78C74.5791 321.604 74.0078 321.395 73.4902 321.15V317.84C74.3594 318.221 75.3311 318.567 76.4053 318.88C77.4795 319.183 78.5732 319.334 79.6865 319.334C80.5947 319.334 81.3467 319.217 81.9424 318.982C82.5479 318.738 82.9971 318.396 83.29 317.957C83.583 317.508 83.7295 316.985 83.7295 316.39C83.7295 315.755 83.5586 315.218 83.2168 314.778C82.875 314.339 82.3574 313.938 81.6641 313.577C80.9805 313.206 80.1211 312.811 79.0859 312.391C78.3828 312.107 77.709 311.785 77.0645 311.424C76.4297 311.062 75.8633 310.638 75.3652 310.149C74.8672 309.661 74.4717 309.085 74.1787 308.421C73.8955 307.747 73.7539 306.956 73.7539 306.048C73.7539 304.837 74.042 303.802 74.6182 302.942C75.2041 302.083 76.0244 301.424 77.0791 300.965C78.1436 300.506 79.3838 300.276 80.7998 300.276C81.9229 300.276 82.9775 300.394 83.9639 300.628C84.96 300.862 85.9365 301.194 86.8936 301.624L85.7803 304.451C84.9014 304.09 84.0469 303.802 83.2168 303.587C82.3965 303.372 81.5566 303.265 80.6973 303.265C79.9551 303.265 79.3252 303.377 78.8076 303.602C78.29 303.826 77.8945 304.144 77.6211 304.554C77.3574 304.954 77.2256 305.433 77.2256 305.989C77.2256 306.614 77.377 307.142 77.6797 307.571C77.9922 307.991 78.4707 308.377 79.1152 308.729C79.7695 309.08 80.6094 309.471 81.6348 309.9C82.8164 310.389 83.8174 310.901 84.6377 311.438C85.4678 311.976 86.1025 312.62 86.542 313.372C86.9814 314.114 87.2012 315.047 87.2012 316.17ZM97.4404 305.477C98.8857 305.477 100.126 305.774 101.161 306.37C102.196 306.966 102.992 307.811 103.549 308.904C104.105 309.998 104.384 311.307 104.384 312.83V314.676H93.5586C93.5977 316.248 94.0176 317.459 94.8184 318.309C95.6289 319.158 96.7617 319.583 98.2168 319.583C99.252 319.583 100.18 319.485 101 319.29C101.83 319.085 102.685 318.787 103.563 318.396V321.194C102.753 321.575 101.928 321.854 101.088 322.029C100.248 322.205 99.2422 322.293 98.0703 322.293C96.4785 322.293 95.0771 321.985 93.8662 321.37C92.665 320.745 91.7227 319.817 91.0391 318.587C90.3652 317.356 90.0283 315.828 90.0283 314.002C90.0283 312.186 90.3359 310.643 90.9512 309.373C91.5664 308.104 92.4307 307.137 93.5439 306.473C94.6572 305.809 95.9561 305.477 97.4404 305.477ZM97.4404 308.069C96.3564 308.069 95.4775 308.421 94.8037 309.124C94.1396 309.827 93.749 310.857 93.6318 312.215H101.015C101.005 311.404 100.868 310.687 100.604 310.062C100.351 309.437 99.96 308.948 99.4326 308.597C98.915 308.245 98.251 308.069 97.4404 308.069ZM116.483 305.477C116.757 305.477 117.055 305.491 117.377 305.521C117.699 305.55 117.978 305.589 118.212 305.638L117.89 308.86C117.685 308.802 117.431 308.758 117.128 308.729C116.835 308.699 116.571 308.685 116.337 308.685C115.722 308.685 115.136 308.787 114.579 308.992C114.022 309.188 113.529 309.49 113.1 309.9C112.67 310.301 112.333 310.804 112.089 311.409C111.845 312.015 111.723 312.718 111.723 313.519V322H108.266V305.784H110.961L111.43 308.641H111.591C111.913 308.064 112.313 307.537 112.792 307.059C113.271 306.58 113.817 306.199 114.433 305.916C115.058 305.623 115.741 305.477 116.483 305.477ZM124.921 322L118.754 305.784H122.401L125.741 315.306C125.956 315.911 126.151 316.565 126.327 317.269C126.503 317.972 126.625 318.562 126.693 319.041H126.811C126.879 318.543 127.011 317.947 127.206 317.254C127.401 316.551 127.602 315.901 127.807 315.306L131.146 305.784H134.779L128.612 322H124.921ZM140.683 305.784V322H137.24V305.784H140.683ZM138.983 299.573C139.511 299.573 139.965 299.715 140.346 299.998C140.736 300.281 140.932 300.77 140.932 301.463C140.932 302.146 140.736 302.635 140.346 302.928C139.965 303.211 139.511 303.353 138.983 303.353C138.437 303.353 137.973 303.211 137.592 302.928C137.221 302.635 137.035 302.146 137.035 301.463C137.035 300.77 137.221 300.281 137.592 299.998C137.973 299.715 138.437 299.573 138.983 299.573ZM152.152 322.293C150.619 322.293 149.291 321.995 148.168 321.399C147.045 320.804 146.181 319.891 145.575 318.66C144.97 317.43 144.667 315.867 144.667 313.973C144.667 312 144.999 310.389 145.663 309.139C146.327 307.889 147.245 306.966 148.417 306.37C149.599 305.774 150.951 305.477 152.475 305.477C153.441 305.477 154.315 305.574 155.097 305.77C155.888 305.955 156.557 306.185 157.104 306.458L156.078 309.212C155.482 308.968 154.872 308.763 154.247 308.597C153.622 308.431 153.021 308.348 152.445 308.348C151.498 308.348 150.707 308.558 150.072 308.978C149.447 309.397 148.979 310.022 148.666 310.853C148.363 311.683 148.212 312.713 148.212 313.943C148.212 315.135 148.368 316.141 148.681 316.961C148.993 317.771 149.457 318.387 150.072 318.807C150.688 319.217 151.444 319.422 152.343 319.422C153.231 319.422 154.027 319.314 154.73 319.1C155.434 318.885 156.098 318.606 156.723 318.265V321.253C156.107 321.604 155.448 321.863 154.745 322.029C154.042 322.205 153.178 322.293 152.152 322.293ZM166.991 305.477C168.437 305.477 169.677 305.774 170.712 306.37C171.747 306.966 172.543 307.811 173.1 308.904C173.656 309.998 173.935 311.307 173.935 312.83V314.676H163.109C163.148 316.248 163.568 317.459 164.369 318.309C165.18 319.158 166.312 319.583 167.768 319.583C168.803 319.583 169.73 319.485 170.551 319.29C171.381 319.085 172.235 318.787 173.114 318.396V321.194C172.304 321.575 171.479 321.854 170.639 322.029C169.799 322.205 168.793 322.293 167.621 322.293C166.029 322.293 164.628 321.985 163.417 321.37C162.216 320.745 161.273 319.817 160.59 318.587C159.916 317.356 159.579 315.828 159.579 314.002C159.579 312.186 159.887 310.643 160.502 309.373C161.117 308.104 161.981 307.137 163.095 306.473C164.208 305.809 165.507 305.477 166.991 305.477ZM166.991 308.069C165.907 308.069 165.028 308.421 164.354 309.124C163.69 309.827 163.3 310.857 163.183 312.215H170.565C170.556 311.404 170.419 310.687 170.155 310.062C169.901 309.437 169.511 308.948 168.983 308.597C168.466 308.245 167.802 308.069 166.991 308.069ZM188.715 317.371C188.715 318.436 188.456 319.334 187.938 320.066C187.421 320.799 186.664 321.355 185.668 321.736C184.682 322.107 183.471 322.293 182.035 322.293C180.902 322.293 179.926 322.21 179.105 322.044C178.295 321.888 177.528 321.644 176.806 321.312V318.338C177.577 318.699 178.441 319.012 179.398 319.275C180.365 319.539 181.278 319.671 182.138 319.671C183.271 319.671 184.086 319.495 184.584 319.144C185.082 318.782 185.331 318.304 185.331 317.708C185.331 317.356 185.229 317.044 185.023 316.771C184.828 316.487 184.457 316.199 183.91 315.906C183.373 315.604 182.582 315.242 181.537 314.822C180.512 314.412 179.647 314.002 178.944 313.592C178.241 313.182 177.709 312.688 177.348 312.112C176.986 311.526 176.806 310.779 176.806 309.871C176.806 308.436 177.372 307.347 178.505 306.604C179.647 305.853 181.156 305.477 183.031 305.477C184.027 305.477 184.965 305.579 185.844 305.784C186.732 305.979 187.602 306.268 188.451 306.648L187.367 309.241C186.635 308.919 185.897 308.655 185.155 308.45C184.423 308.235 183.676 308.128 182.914 308.128C182.025 308.128 181.347 308.265 180.878 308.538C180.419 308.812 180.189 309.202 180.189 309.71C180.189 310.091 180.302 310.413 180.526 310.677C180.751 310.94 181.137 311.204 181.684 311.468C182.24 311.731 183.012 312.059 183.998 312.449C184.965 312.82 185.8 313.211 186.503 313.621C187.216 314.021 187.763 314.515 188.144 315.101C188.524 315.687 188.715 316.443 188.715 317.371Z" fill="#197745"/>
<path d="M149 152.769H113C110.616 152.779 108.333 153.734 106.647 155.427C104.961 157.12 104.01 159.413 104 161.806V228.08C104.01 230.474 104.961 232.766 106.647 234.459C108.333 236.152 110.616 237.107 113 237.117H149C151.384 237.107 153.667 236.152 155.353 234.459C157.039 232.766 157.99 230.474 158 228.08V161.806C157.99 159.413 157.039 157.12 155.353 155.427C153.667 153.734 151.384 152.779 149 152.769ZM131 173.856C130.11 173.856 129.24 173.591 128.5 173.095C127.76 172.598 127.183 171.892 126.843 171.067C126.502 170.241 126.413 169.332 126.586 168.456C126.76 167.579 127.189 166.774 127.818 166.142C128.447 165.51 129.249 165.08 130.122 164.906C130.995 164.731 131.9 164.821 132.722 165.163C133.544 165.505 134.247 166.084 134.742 166.827C135.236 167.57 135.5 168.444 135.5 169.337C135.5 170.536 135.026 171.685 134.182 172.533C133.338 173.38 132.193 173.856 131 173.856Z" fill="#D99956"/>
<g filter="url(#filter1_d_149_1044)">
<rect x="274" y="114" width="238" height="238" rx="21" fill="white"/>
</g>
<path d="M315.819 264.584H322.191C324.955 264.584 327.04 264.984 328.446 265.785C329.853 266.586 330.556 267.968 330.556 269.931C330.556 270.751 330.409 271.493 330.116 272.157C329.833 272.812 329.418 273.354 328.871 273.783C328.324 274.203 327.65 274.486 326.85 274.633V274.779C327.68 274.926 328.417 275.185 329.062 275.556C329.716 275.927 330.229 276.459 330.6 277.152C330.98 277.846 331.171 278.744 331.171 279.848C331.171 281.156 330.858 282.27 330.233 283.188C329.618 284.105 328.734 284.804 327.582 285.282C326.439 285.761 325.082 286 323.51 286H315.819V264.584ZM319.335 273.417H322.704C324.296 273.417 325.399 273.158 326.015 272.641C326.63 272.123 326.938 271.366 326.938 270.37C326.938 269.354 326.571 268.622 325.839 268.173C325.116 267.724 323.964 267.499 322.382 267.499H319.335V273.417ZM319.335 276.259V283.056H323.041C324.682 283.056 325.834 282.738 326.498 282.104C327.162 281.469 327.494 280.609 327.494 279.525C327.494 278.861 327.343 278.285 327.04 277.797C326.747 277.309 326.264 276.933 325.59 276.669C324.916 276.396 324.008 276.259 322.865 276.259H319.335ZM343.461 269.477C343.734 269.477 344.032 269.491 344.354 269.521C344.677 269.55 344.955 269.589 345.189 269.638L344.867 272.86C344.662 272.802 344.408 272.758 344.105 272.729C343.812 272.699 343.549 272.685 343.314 272.685C342.699 272.685 342.113 272.787 341.557 272.992C341 273.188 340.507 273.49 340.077 273.9C339.647 274.301 339.311 274.804 339.066 275.409C338.822 276.015 338.7 276.718 338.7 277.519V286H335.243V269.784H337.938L338.407 272.641H338.568C338.891 272.064 339.291 271.537 339.77 271.059C340.248 270.58 340.795 270.199 341.41 269.916C342.035 269.623 342.719 269.477 343.461 269.477ZM362.548 277.855C362.548 279.203 362.372 280.399 362.021 281.444C361.669 282.489 361.156 283.373 360.482 284.096C359.809 284.809 358.998 285.355 358.051 285.736C357.104 286.107 356.034 286.293 354.843 286.293C353.729 286.293 352.709 286.107 351.781 285.736C350.854 285.355 350.048 284.809 349.364 284.096C348.69 283.373 348.168 282.489 347.797 281.444C347.426 280.399 347.24 279.203 347.24 277.855C347.24 276.068 347.548 274.555 348.163 273.314C348.788 272.064 349.677 271.112 350.829 270.458C351.981 269.804 353.354 269.477 354.945 269.477C356.439 269.477 357.758 269.804 358.9 270.458C360.043 271.112 360.937 272.064 361.581 273.314C362.226 274.564 362.548 276.078 362.548 277.855ZM350.785 277.855C350.785 279.037 350.927 280.048 351.21 280.888C351.503 281.728 351.952 282.372 352.558 282.821C353.163 283.261 353.944 283.48 354.901 283.48C355.858 283.48 356.64 283.261 357.245 282.821C357.851 282.372 358.295 281.728 358.578 280.888C358.861 280.048 359.003 279.037 359.003 277.855C359.003 276.674 358.861 275.673 358.578 274.853C358.295 274.022 357.851 273.393 357.245 272.963C356.64 272.523 355.854 272.304 354.887 272.304C353.461 272.304 352.421 272.782 351.767 273.739C351.112 274.696 350.785 276.068 350.785 277.855ZM372.86 269.477C374.911 269.477 376.459 269.931 377.504 270.839C378.559 271.747 379.086 273.163 379.086 275.087V286H376.64L375.98 283.7H375.863C375.404 284.286 374.931 284.77 374.442 285.15C373.954 285.531 373.388 285.814 372.743 286C372.108 286.195 371.332 286.293 370.414 286.293C369.447 286.293 368.583 286.117 367.821 285.766C367.06 285.404 366.459 284.857 366.02 284.125C365.58 283.393 365.36 282.465 365.36 281.342C365.36 279.672 365.98 278.417 367.221 277.577C368.471 276.737 370.355 276.273 372.875 276.186L375.688 276.083V275.233C375.688 274.11 375.424 273.31 374.896 272.831C374.379 272.353 373.646 272.113 372.699 272.113C371.889 272.113 371.103 272.23 370.341 272.465C369.579 272.699 368.837 272.987 368.114 273.329L367.001 270.897C367.792 270.478 368.69 270.136 369.696 269.872C370.712 269.608 371.767 269.477 372.86 269.477ZM375.673 278.251L373.578 278.324C371.859 278.383 370.653 278.676 369.96 279.203C369.267 279.73 368.92 280.453 368.92 281.371C368.92 282.172 369.159 282.758 369.638 283.129C370.116 283.49 370.746 283.671 371.527 283.671C372.719 283.671 373.705 283.334 374.486 282.66C375.277 281.977 375.673 280.976 375.673 279.657V278.251ZM389.354 286.293C387.421 286.293 385.868 285.59 384.696 284.184C383.534 282.768 382.953 280.683 382.953 277.929C382.953 275.146 383.544 273.041 384.726 271.615C385.917 270.189 387.484 269.477 389.428 269.477C390.248 269.477 390.966 269.589 391.581 269.813C392.196 270.028 392.724 270.321 393.163 270.692C393.612 271.063 393.993 271.479 394.306 271.938H394.467C394.418 271.635 394.359 271.2 394.291 270.634C394.232 270.058 394.203 269.525 394.203 269.037V263.207H397.66V286H394.965L394.35 283.788H394.203C393.91 284.257 393.539 284.682 393.09 285.062C392.65 285.434 392.123 285.731 391.508 285.956C390.902 286.181 390.185 286.293 389.354 286.293ZM390.321 283.495C391.796 283.495 392.836 283.07 393.441 282.221C394.047 281.371 394.359 280.097 394.379 278.397V277.943C394.379 276.127 394.086 274.735 393.5 273.769C392.914 272.792 391.845 272.304 390.292 272.304C389.052 272.304 388.104 272.807 387.45 273.812C386.806 274.809 386.483 276.2 386.483 277.987C386.483 279.774 386.806 281.142 387.45 282.089C388.104 283.026 389.062 283.495 390.321 283.495ZM406.039 263.207V268.7C406.039 269.335 406.02 269.96 405.98 270.575C405.951 271.181 405.922 271.654 405.893 271.996H406.039C406.479 271.293 407.089 270.702 407.87 270.224C408.661 269.735 409.672 269.491 410.902 269.491C412.826 269.491 414.374 270.199 415.546 271.615C416.718 273.021 417.304 275.106 417.304 277.87C417.304 279.706 417.035 281.249 416.498 282.499C415.961 283.749 415.204 284.696 414.228 285.341C413.261 285.976 412.123 286.293 410.814 286.293C409.584 286.293 408.588 286.068 407.826 285.619C407.074 285.16 406.483 284.628 406.054 284.022H405.805L405.175 286H402.597V263.207H406.039ZM409.994 272.289C409.018 272.289 408.241 272.484 407.665 272.875C407.099 273.266 406.688 273.852 406.435 274.633C406.181 275.404 406.049 276.386 406.039 277.577V277.885C406.039 279.691 406.322 281.073 406.889 282.03C407.465 282.987 408.51 283.466 410.023 283.466C411.225 283.466 412.147 282.982 412.792 282.016C413.437 281.039 413.759 279.643 413.759 277.826C413.759 275.99 413.437 274.608 412.792 273.681C412.157 272.753 411.225 272.289 409.994 272.289ZM427.646 269.477C429.696 269.477 431.244 269.931 432.289 270.839C433.344 271.747 433.871 273.163 433.871 275.087V286H431.425L430.766 283.7H430.648C430.189 284.286 429.716 284.77 429.228 285.15C428.739 285.531 428.173 285.814 427.528 286C426.894 286.195 426.117 286.293 425.199 286.293C424.232 286.293 423.368 286.117 422.606 285.766C421.845 285.404 421.244 284.857 420.805 284.125C420.365 283.393 420.146 282.465 420.146 281.342C420.146 279.672 420.766 278.417 422.006 277.577C423.256 276.737 425.141 276.273 427.66 276.186L430.473 276.083V275.233C430.473 274.11 430.209 273.31 429.682 272.831C429.164 272.353 428.432 272.113 427.484 272.113C426.674 272.113 425.888 272.23 425.126 272.465C424.364 272.699 423.622 272.987 422.899 273.329L421.786 270.897C422.577 270.478 423.476 270.136 424.481 269.872C425.497 269.608 426.552 269.477 427.646 269.477ZM430.458 278.251L428.363 278.324C426.645 278.383 425.438 278.676 424.745 279.203C424.052 279.73 423.705 280.453 423.705 281.371C423.705 282.172 423.944 282.758 424.423 283.129C424.901 283.49 425.531 283.671 426.312 283.671C427.504 283.671 428.49 283.334 429.271 282.66C430.062 281.977 430.458 280.976 430.458 279.657V278.251ZM447.143 269.477C448.969 269.477 450.39 269.95 451.405 270.897C452.431 271.835 452.943 273.344 452.943 275.424V286H449.501V276.068C449.501 274.809 449.242 273.866 448.725 273.241C448.207 272.606 447.406 272.289 446.322 272.289C444.75 272.289 443.656 272.772 443.041 273.739C442.436 274.706 442.133 276.107 442.133 277.943V286H438.69V269.784H441.371L441.854 271.981H442.045C442.396 271.415 442.831 270.951 443.349 270.59C443.876 270.219 444.462 269.94 445.106 269.755C445.761 269.569 446.439 269.477 447.143 269.477ZM463.212 286.293C461.278 286.293 459.726 285.59 458.554 284.184C457.392 282.768 456.811 280.683 456.811 277.929C456.811 275.146 457.401 273.041 458.583 271.615C459.774 270.189 461.342 269.477 463.285 269.477C464.105 269.477 464.823 269.589 465.438 269.813C466.054 270.028 466.581 270.321 467.021 270.692C467.47 271.063 467.851 271.479 468.163 271.938H468.324C468.275 271.635 468.217 271.2 468.148 270.634C468.09 270.058 468.061 269.525 468.061 269.037V263.207H471.518V286H468.822L468.207 283.788H468.061C467.768 284.257 467.396 284.682 466.947 285.062C466.508 285.434 465.98 285.731 465.365 285.956C464.76 286.181 464.042 286.293 463.212 286.293ZM464.179 283.495C465.653 283.495 466.693 283.07 467.299 282.221C467.904 281.371 468.217 280.097 468.236 278.397V277.943C468.236 276.127 467.943 274.735 467.357 273.769C466.771 272.792 465.702 272.304 464.149 272.304C462.909 272.304 461.962 272.807 461.308 273.812C460.663 274.809 460.341 276.2 460.341 277.987C460.341 279.774 460.663 281.142 461.308 282.089C461.962 283.026 462.919 283.495 464.179 283.495ZM337.03 322V300.584H340.546V322H337.03ZM354.301 305.477C356.127 305.477 357.548 305.95 358.563 306.897C359.589 307.835 360.102 309.344 360.102 311.424V322H356.659V312.068C356.659 310.809 356.4 309.866 355.883 309.241C355.365 308.606 354.564 308.289 353.48 308.289C351.908 308.289 350.814 308.772 350.199 309.739C349.594 310.706 349.291 312.107 349.291 313.943V322H345.849V305.784H348.529L349.013 307.981H349.203C349.555 307.415 349.989 306.951 350.507 306.59C351.034 306.219 351.62 305.94 352.265 305.755C352.919 305.569 353.598 305.477 354.301 305.477ZM370.956 319.51C371.405 319.51 371.85 319.471 372.289 319.393C372.729 319.305 373.129 319.202 373.49 319.085V321.692C373.109 321.858 372.616 322 372.011 322.117C371.405 322.234 370.775 322.293 370.121 322.293C369.203 322.293 368.378 322.142 367.646 321.839C366.913 321.526 366.332 320.994 365.902 320.242C365.473 319.49 365.258 318.45 365.258 317.122V308.406H363.046V306.868L365.419 305.652L366.547 302.181H368.715V305.784H373.358V308.406H368.715V317.078C368.715 317.898 368.92 318.509 369.33 318.909C369.74 319.31 370.282 319.51 370.956 319.51ZM383.246 305.477C384.691 305.477 385.932 305.774 386.967 306.37C388.002 306.966 388.798 307.811 389.354 308.904C389.911 309.998 390.189 311.307 390.189 312.83V314.676H379.364C379.403 316.248 379.823 317.459 380.624 318.309C381.435 319.158 382.567 319.583 384.022 319.583C385.058 319.583 385.985 319.485 386.806 319.29C387.636 319.085 388.49 318.787 389.369 318.396V321.194C388.559 321.575 387.733 321.854 386.894 322.029C386.054 322.205 385.048 322.293 383.876 322.293C382.284 322.293 380.883 321.985 379.672 321.37C378.471 320.745 377.528 319.817 376.845 318.587C376.171 317.356 375.834 315.828 375.834 314.002C375.834 312.186 376.142 310.643 376.757 309.373C377.372 308.104 378.236 307.137 379.35 306.473C380.463 305.809 381.762 305.477 383.246 305.477ZM383.246 308.069C382.162 308.069 381.283 308.421 380.609 309.124C379.945 309.827 379.555 310.857 379.438 312.215H386.82C386.811 311.404 386.674 310.687 386.41 310.062C386.156 309.437 385.766 308.948 385.238 308.597C384.721 308.245 384.057 308.069 383.246 308.069ZM402.289 305.477C402.562 305.477 402.86 305.491 403.183 305.521C403.505 305.55 403.783 305.589 404.018 305.638L403.695 308.86C403.49 308.802 403.236 308.758 402.934 308.729C402.641 308.699 402.377 308.685 402.143 308.685C401.527 308.685 400.941 308.787 400.385 308.992C399.828 309.188 399.335 309.49 398.905 309.9C398.476 310.301 398.139 310.804 397.895 311.409C397.65 312.015 397.528 312.718 397.528 313.519V322H394.071V305.784H396.767L397.235 308.641H397.396C397.719 308.064 398.119 307.537 398.598 307.059C399.076 306.58 399.623 306.199 400.238 305.916C400.863 305.623 401.547 305.477 402.289 305.477ZM415.473 305.477C417.299 305.477 418.72 305.95 419.735 306.897C420.761 307.835 421.273 309.344 421.273 311.424V322H417.831V312.068C417.831 310.809 417.572 309.866 417.055 309.241C416.537 308.606 415.736 308.289 414.652 308.289C413.08 308.289 411.986 308.772 411.371 309.739C410.766 310.706 410.463 312.107 410.463 313.943V322H407.021V305.784H409.701L410.185 307.981H410.375C410.727 307.415 411.161 306.951 411.679 306.59C412.206 306.219 412.792 305.94 413.437 305.755C414.091 305.569 414.77 305.477 415.473 305.477ZM432.553 305.477C433.998 305.477 435.238 305.774 436.273 306.37C437.309 306.966 438.104 307.811 438.661 308.904C439.218 309.998 439.496 311.307 439.496 312.83V314.676H428.671C428.71 316.248 429.13 317.459 429.931 318.309C430.741 319.158 431.874 319.583 433.329 319.583C434.364 319.583 435.292 319.485 436.112 319.29C436.942 319.085 437.797 318.787 438.676 318.396V321.194C437.865 321.575 437.04 321.854 436.2 322.029C435.36 322.205 434.354 322.293 433.183 322.293C431.591 322.293 430.189 321.985 428.979 321.37C427.777 320.745 426.835 319.817 426.151 318.587C425.478 317.356 425.141 315.828 425.141 314.002C425.141 312.186 425.448 310.643 426.063 309.373C426.679 308.104 427.543 307.137 428.656 306.473C429.77 305.809 431.068 305.477 432.553 305.477ZM432.553 308.069C431.469 308.069 430.59 308.421 429.916 309.124C429.252 309.827 428.861 310.857 428.744 312.215H436.127C436.117 311.404 435.98 310.687 435.717 310.062C435.463 309.437 435.072 308.948 434.545 308.597C434.027 308.245 433.363 308.069 432.553 308.069ZM449.413 319.51C449.862 319.51 450.307 319.471 450.746 319.393C451.186 319.305 451.586 319.202 451.947 319.085V321.692C451.566 321.858 451.073 322 450.468 322.117C449.862 322.234 449.232 322.293 448.578 322.293C447.66 322.293 446.835 322.142 446.103 321.839C445.37 321.526 444.789 320.994 444.359 320.242C443.93 319.49 443.715 318.45 443.715 317.122V308.406H441.503V306.868L443.876 305.652L445.004 302.181H447.172V305.784H451.815V308.406H447.172V317.078C447.172 317.898 447.377 318.509 447.787 318.909C448.197 319.31 448.739 319.51 449.413 319.51Z" fill="#197745"/>
<path d="M428.101 207.976C430.679 202.661 432.012 196.824 432 190.912C431.988 182.282 429.147 173.897 423.915 167.053C418.683 160.21 411.352 155.289 403.057 153.053H402.869C396.787 151.444 390.407 151.341 384.275 152.751C378.144 154.162 372.445 157.044 367.665 161.152L367.178 161.604C361.243 166.867 357.044 173.822 355.142 181.542C353.239 189.263 353.723 197.382 356.528 204.82C359.333 212.257 364.327 218.659 370.845 223.173C377.362 227.687 385.093 230.099 393.009 230.088H393.909C400.989 229.912 407.888 227.808 413.87 224C419.853 220.191 424.694 214.822 427.876 208.466L428.101 207.976ZM426.001 190.912C425.994 194.858 425.296 198.773 423.939 202.476L406.543 191.74C405.826 191.287 405.021 190.992 404.181 190.874L395.633 189.744C394.535 189.601 393.42 189.765 392.408 190.216C391.396 190.668 390.528 191.391 389.897 192.305H386.673L385.248 189.329C384.849 188.508 384.271 187.786 383.558 187.219C382.844 186.652 382.012 186.253 381.124 186.052L378.65 185.525L379.587 183.302C379.821 182.757 380.208 182.291 380.7 181.964C381.193 181.636 381.77 181.459 382.362 181.456H388.398C389.407 181.452 390.4 181.193 391.284 180.703L395.858 178.141C396.262 177.922 396.639 177.656 396.983 177.35L407.068 168.159C407.946 167.386 408.575 166.367 408.876 165.234C409.176 164.1 409.134 162.902 408.755 161.793C413.971 164.639 418.326 168.846 421.361 173.971C424.396 179.096 425.999 184.948 426.001 190.912ZM360.017 190.912C360.008 185.713 361.229 180.588 363.578 175.957L367.478 186.466C367.834 187.408 368.418 188.245 369.178 188.903C369.937 189.56 370.847 190.018 371.826 190.233L373.889 190.685H373.926L378.425 191.665C378.87 191.755 379.288 191.949 379.646 192.23C380.004 192.511 380.292 192.872 380.487 193.285L381.274 194.942C381.77 195.957 382.539 196.812 383.493 197.411C384.447 198.01 385.548 198.329 386.673 198.332H387.123L384.236 204.812C383.748 205.886 383.588 207.082 383.774 208.248C383.961 209.415 384.487 210.499 385.286 211.366L391.322 217.921C391.633 218.27 391.861 218.685 391.991 219.135C392.121 219.584 392.149 220.058 392.072 220.52L391.397 224.023C382.939 223.598 374.966 219.925 369.126 213.763C363.287 207.601 360.025 199.42 360.017 190.912Z" fill="#D99956"/>
<g filter="url(#filter2_d_149_1044)">
<rect x="536" y="114" width="238" height="238" rx="21" fill="white"/>
</g>
<path d="M640.115 280.17C640.115 281.439 639.803 282.533 639.178 283.451C638.562 284.369 637.674 285.072 636.512 285.561C635.359 286.049 633.982 286.293 632.381 286.293C631.6 286.293 630.853 286.249 630.14 286.161C629.427 286.073 628.753 285.946 628.118 285.78C627.493 285.604 626.922 285.395 626.404 285.15V281.84C627.273 282.221 628.245 282.567 629.319 282.88C630.394 283.183 631.487 283.334 632.601 283.334C633.509 283.334 634.261 283.217 634.856 282.982C635.462 282.738 635.911 282.396 636.204 281.957C636.497 281.508 636.644 280.985 636.644 280.39C636.644 279.755 636.473 279.218 636.131 278.778C635.789 278.339 635.271 277.938 634.578 277.577C633.895 277.206 633.035 276.811 632 276.391C631.297 276.107 630.623 275.785 629.979 275.424C629.344 275.062 628.777 274.638 628.279 274.149C627.781 273.661 627.386 273.085 627.093 272.421C626.81 271.747 626.668 270.956 626.668 270.048C626.668 268.837 626.956 267.802 627.532 266.942C628.118 266.083 628.938 265.424 629.993 264.965C631.058 264.506 632.298 264.276 633.714 264.276C634.837 264.276 635.892 264.394 636.878 264.628C637.874 264.862 638.851 265.194 639.808 265.624L638.694 268.451C637.815 268.09 636.961 267.802 636.131 267.587C635.311 267.372 634.471 267.265 633.611 267.265C632.869 267.265 632.239 267.377 631.722 267.602C631.204 267.826 630.809 268.144 630.535 268.554C630.271 268.954 630.14 269.433 630.14 269.989C630.14 270.614 630.291 271.142 630.594 271.571C630.906 271.991 631.385 272.377 632.029 272.729C632.684 273.08 633.523 273.471 634.549 273.9C635.73 274.389 636.731 274.901 637.552 275.438C638.382 275.976 639.017 276.62 639.456 277.372C639.896 278.114 640.115 279.047 640.115 280.17ZM653.372 267.265C652.347 267.265 651.429 267.45 650.618 267.821C649.817 268.192 649.139 268.729 648.582 269.433C648.025 270.126 647.601 270.971 647.308 271.967C647.015 272.953 646.868 274.066 646.868 275.307C646.868 276.967 647.103 278.397 647.571 279.599C648.04 280.79 648.753 281.708 649.71 282.353C650.667 282.987 651.878 283.305 653.343 283.305C654.251 283.305 655.135 283.217 655.994 283.041C656.854 282.865 657.742 282.626 658.66 282.323V285.312C657.791 285.653 656.912 285.902 656.023 286.059C655.135 286.215 654.109 286.293 652.947 286.293C650.76 286.293 648.943 285.839 647.498 284.931C646.062 284.022 644.988 282.743 644.275 281.093C643.572 279.442 643.221 277.509 643.221 275.292C643.221 273.671 643.445 272.187 643.895 270.839C644.344 269.491 644.998 268.329 645.857 267.353C646.717 266.366 647.776 265.609 649.036 265.082C650.306 264.545 651.756 264.276 653.387 264.276C654.461 264.276 655.516 264.398 656.551 264.643C657.596 264.877 658.562 265.214 659.451 265.653L658.221 268.554C657.479 268.202 656.702 267.899 655.892 267.646C655.081 267.392 654.241 267.265 653.372 267.265ZM682.273 275.263C682.273 276.913 682.063 278.417 681.644 279.774C681.233 281.122 680.613 282.284 679.783 283.261C678.953 284.228 677.913 284.975 676.663 285.502C675.413 286.029 673.948 286.293 672.269 286.293C670.56 286.293 669.075 286.029 667.815 285.502C666.565 284.975 665.525 284.223 664.695 283.246C663.875 282.27 663.26 281.103 662.85 279.745C662.439 278.388 662.234 276.884 662.234 275.233C662.234 273.026 662.596 271.103 663.318 269.462C664.051 267.812 665.159 266.532 666.644 265.624C668.138 264.706 670.022 264.247 672.298 264.247C674.524 264.247 676.375 264.701 677.85 265.609C679.324 266.518 680.428 267.797 681.16 269.447C681.902 271.088 682.273 273.026 682.273 275.263ZM665.926 275.263C665.926 276.913 666.15 278.344 666.6 279.555C667.049 280.756 667.737 281.684 668.665 282.338C669.603 282.982 670.804 283.305 672.269 283.305C673.743 283.305 674.944 282.982 675.872 282.338C676.8 281.684 677.483 280.756 677.923 279.555C678.362 278.344 678.582 276.913 678.582 275.263C678.582 272.753 678.079 270.79 677.073 269.374C676.077 267.948 674.485 267.235 672.298 267.235C670.833 267.235 669.627 267.558 668.68 268.202C667.742 268.847 667.049 269.77 666.6 270.971C666.15 272.162 665.926 273.593 665.926 275.263ZM577.171 300.584H583.543C586.307 300.584 588.392 300.984 589.798 301.785C591.204 302.586 591.907 303.968 591.907 305.931C591.907 306.751 591.761 307.493 591.468 308.157C591.185 308.812 590.77 309.354 590.223 309.783C589.676 310.203 589.002 310.486 588.201 310.633V310.779C589.031 310.926 589.769 311.185 590.413 311.556C591.067 311.927 591.58 312.459 591.951 313.152C592.332 313.846 592.522 314.744 592.522 315.848C592.522 317.156 592.21 318.27 591.585 319.188C590.97 320.105 590.086 320.804 588.934 321.282C587.791 321.761 586.434 322 584.861 322H577.171V300.584ZM580.687 309.417H584.056C585.647 309.417 586.751 309.158 587.366 308.641C587.981 308.123 588.289 307.366 588.289 306.37C588.289 305.354 587.923 304.622 587.19 304.173C586.468 303.724 585.315 303.499 583.733 303.499H580.687V309.417ZM580.687 312.259V319.056H584.393C586.033 319.056 587.186 318.738 587.85 318.104C588.514 317.469 588.846 316.609 588.846 315.525C588.846 314.861 588.694 314.285 588.392 313.797C588.099 313.309 587.615 312.933 586.941 312.669C586.268 312.396 585.359 312.259 584.217 312.259H580.687ZM600.037 305.784V322H596.595V305.784H600.037ZM598.338 299.573C598.865 299.573 599.319 299.715 599.7 299.998C600.091 300.281 600.286 300.77 600.286 301.463C600.286 302.146 600.091 302.635 599.7 302.928C599.319 303.211 598.865 303.353 598.338 303.353C597.791 303.353 597.327 303.211 596.946 302.928C596.575 302.635 596.39 302.146 596.39 301.463C596.39 300.77 596.575 300.281 596.946 299.998C597.327 299.715 597.791 299.573 598.338 299.573ZM608.431 322H604.974V299.207H608.431V322ZM616.81 322H613.353V299.207H616.81V322ZM635.896 300.584C637.742 300.584 639.266 300.809 640.467 301.258C641.678 301.707 642.576 302.391 643.162 303.309C643.758 304.227 644.056 305.394 644.056 306.81C644.056 307.864 643.86 308.763 643.47 309.505C643.079 310.247 642.566 310.862 641.932 311.351C641.297 311.839 640.618 312.229 639.896 312.522L645.975 322H642.005L636.834 313.416H633.392V322H629.876V300.584H635.896ZM635.662 303.514H633.392V310.516H635.823C637.454 310.516 638.636 310.213 639.368 309.607C640.11 309.002 640.481 308.108 640.481 306.927C640.481 305.687 640.086 304.808 639.295 304.29C638.514 303.772 637.303 303.514 635.662 303.514ZM655.145 305.477C656.59 305.477 657.83 305.774 658.865 306.37C659.9 306.966 660.696 307.811 661.253 308.904C661.81 309.998 662.088 311.307 662.088 312.83V314.676H651.263C651.302 316.248 651.722 317.459 652.522 318.309C653.333 319.158 654.466 319.583 655.921 319.583C656.956 319.583 657.884 319.485 658.704 319.29C659.534 319.085 660.389 318.787 661.268 318.396V321.194C660.457 321.575 659.632 321.854 658.792 322.029C657.952 322.205 656.946 322.293 655.774 322.293C654.183 322.293 652.781 321.985 651.57 321.37C650.369 320.745 649.427 319.817 648.743 318.587C648.069 317.356 647.732 315.828 647.732 314.002C647.732 312.186 648.04 310.643 648.655 309.373C649.271 308.104 650.135 307.137 651.248 306.473C652.361 305.809 653.66 305.477 655.145 305.477ZM655.145 308.069C654.061 308.069 653.182 308.421 652.508 309.124C651.844 309.827 651.453 310.857 651.336 312.215H658.719C658.709 311.404 658.572 310.687 658.309 310.062C658.055 309.437 657.664 308.948 657.137 308.597C656.619 308.245 655.955 308.069 655.145 308.069ZM672.503 322.293C670.97 322.293 669.642 321.995 668.519 321.399C667.396 320.804 666.531 319.891 665.926 318.66C665.32 317.43 665.018 315.867 665.018 313.973C665.018 312 665.35 310.389 666.014 309.139C666.678 307.889 667.596 306.966 668.768 306.37C669.949 305.774 671.302 305.477 672.825 305.477C673.792 305.477 674.666 305.574 675.447 305.77C676.238 305.955 676.907 306.185 677.454 306.458L676.429 309.212C675.833 308.968 675.223 308.763 674.598 308.597C673.973 308.431 673.372 308.348 672.796 308.348C671.849 308.348 671.058 308.558 670.423 308.978C669.798 309.397 669.329 310.022 669.017 310.853C668.714 311.683 668.562 312.713 668.562 313.943C668.562 315.135 668.719 316.141 669.031 316.961C669.344 317.771 669.808 318.387 670.423 318.807C671.038 319.217 671.795 319.422 672.693 319.422C673.582 319.422 674.378 319.314 675.081 319.1C675.784 318.885 676.448 318.606 677.073 318.265V321.253C676.458 321.604 675.799 321.863 675.096 322.029C674.393 322.205 673.528 322.293 672.503 322.293ZM687.342 305.477C688.787 305.477 690.027 305.774 691.062 306.37C692.098 306.966 692.894 307.811 693.45 308.904C694.007 309.998 694.285 311.307 694.285 312.83V314.676H683.46C683.499 316.248 683.919 317.459 684.72 318.309C685.53 319.158 686.663 319.583 688.118 319.583C689.153 319.583 690.081 319.485 690.901 319.29C691.731 319.085 692.586 318.787 693.465 318.396V321.194C692.654 321.575 691.829 321.854 690.989 322.029C690.149 322.205 689.144 322.293 687.972 322.293C686.38 322.293 684.979 321.985 683.768 321.37C682.566 320.745 681.624 319.817 680.94 318.587C680.267 317.356 679.93 315.828 679.93 314.002C679.93 312.186 680.237 310.643 680.853 309.373C681.468 308.104 682.332 307.137 683.445 306.473C684.559 305.809 685.857 305.477 687.342 305.477ZM687.342 308.069C686.258 308.069 685.379 308.421 684.705 309.124C684.041 309.827 683.65 310.857 683.533 312.215H690.916C690.906 311.404 690.77 310.687 690.506 310.062C690.252 309.437 689.861 308.948 689.334 308.597C688.816 308.245 688.152 308.069 687.342 308.069ZM701.609 305.784V322H698.167V305.784H701.609ZM699.91 299.573C700.438 299.573 700.892 299.715 701.272 299.998C701.663 300.281 701.858 300.77 701.858 301.463C701.858 302.146 701.663 302.635 701.272 302.928C700.892 303.211 700.438 303.353 699.91 303.353C699.363 303.353 698.899 303.211 698.519 302.928C698.147 302.635 697.962 302.146 697.962 301.463C697.962 300.77 698.147 300.281 698.519 299.998C698.899 299.715 699.363 299.573 699.91 299.573ZM714.866 305.477C716.79 305.477 718.333 306.18 719.495 307.586C720.667 308.992 721.253 311.082 721.253 313.855C721.253 315.691 720.979 317.239 720.433 318.499C719.896 319.749 719.139 320.696 718.162 321.341C717.195 321.976 716.067 322.293 714.778 322.293C713.958 322.293 713.245 322.186 712.64 321.971C712.034 321.756 711.517 321.478 711.087 321.136C710.657 320.784 710.296 320.403 710.003 319.993H709.798C709.847 320.384 709.891 320.818 709.93 321.297C709.979 321.766 710.003 322.195 710.003 322.586V329.192H706.546V305.784H709.358L709.842 308.025H710.003C710.306 307.566 710.672 307.142 711.102 306.751C711.541 306.36 712.068 306.053 712.684 305.828C713.309 305.594 714.036 305.477 714.866 305.477ZM713.943 308.289C712.996 308.289 712.234 308.479 711.658 308.86C711.092 309.231 710.677 309.793 710.413 310.545C710.159 311.297 710.022 312.239 710.003 313.372V313.855C710.003 315.057 710.125 316.077 710.369 316.917C710.623 317.747 711.038 318.382 711.614 318.821C712.2 319.251 712.991 319.466 713.987 319.466C714.827 319.466 715.521 319.236 716.067 318.777C716.624 318.318 717.039 317.664 717.312 316.814C717.586 315.965 717.723 314.964 717.723 313.812C717.723 312.063 717.41 310.706 716.785 309.739C716.17 308.772 715.223 308.289 713.943 308.289ZM731.272 319.51C731.722 319.51 732.166 319.471 732.605 319.393C733.045 319.305 733.445 319.202 733.807 319.085V321.692C733.426 321.858 732.933 322 732.327 322.117C731.722 322.234 731.092 322.293 730.438 322.293C729.52 322.293 728.694 322.142 727.962 321.839C727.229 321.526 726.648 320.994 726.219 320.242C725.789 319.49 725.574 318.45 725.574 317.122V308.406H723.362V306.868L725.735 305.652L726.863 302.181H729.031V305.784H733.675V308.406H729.031V317.078C729.031 317.898 729.236 318.509 729.646 318.909C730.057 319.31 730.599 319.51 731.272 319.51Z" fill="#197745"/>
<path fill-rule="evenodd" clip-rule="evenodd" d="M627.857 151.765H681.285C682.573 151.765 683.808 152.279 684.719 153.193C685.63 154.108 686.142 155.349 686.142 156.642V234.677C686.144 235.093 686.039 235.503 685.837 235.866C685.635 236.229 685.343 236.534 684.988 236.75C684.637 236.972 684.235 237.099 683.82 237.121C683.406 237.142 682.993 237.056 682.62 236.872L673.999 232.513L665.378 236.872C665.036 237.032 664.663 237.116 664.285 237.116C663.907 237.116 663.534 237.032 663.192 236.872L654.571 232.513L645.95 236.872C645.609 237.036 645.235 237.122 644.857 237.122C644.478 237.122 644.105 237.036 643.764 236.872L635.143 232.513L626.521 236.872C626.149 237.056 625.736 237.142 625.322 237.121C624.907 237.099 624.505 236.972 624.154 236.75C623.799 236.534 623.507 236.229 623.305 235.866C623.103 235.503 622.998 235.093 623 234.677V156.642C623 155.349 623.512 154.108 624.423 153.193C625.334 152.279 626.569 151.765 627.857 151.765ZM638.785 215.168H670.356C671 215.168 671.618 214.911 672.074 214.454C672.529 213.997 672.785 213.376 672.785 212.73C672.785 212.083 672.529 211.463 672.074 211.005C671.618 210.548 671 210.291 670.356 210.291H638.785C638.141 210.291 637.524 210.548 637.068 211.005C636.613 211.463 636.357 212.083 636.357 212.73C636.357 213.376 636.613 213.997 637.068 214.454C637.524 214.911 638.141 215.168 638.785 215.168ZM638.785 205.414H670.356C671 205.414 671.618 205.157 672.074 204.7C672.529 204.242 672.785 203.622 672.785 202.975C672.785 202.329 672.529 201.708 672.074 201.251C671.618 200.794 671 200.537 670.356 200.537H638.785C638.141 200.537 637.524 200.794 637.068 201.251C636.613 201.708 636.357 202.329 636.357 202.975C636.357 203.622 636.613 204.242 637.068 204.7C637.524 205.157 638.141 205.414 638.785 205.414ZM657.485 190.173H656.514V192.306C656.514 192.872 656.309 193.415 655.945 193.815C655.58 194.215 655.086 194.44 654.571 194.44C654.056 194.44 653.561 194.215 653.197 193.815C652.833 193.415 652.628 192.872 652.628 192.306V190.173H648.742C648.227 190.173 647.733 189.948 647.369 189.548C647.004 189.147 646.8 188.605 646.8 188.039C646.8 187.473 647.004 186.93 647.369 186.53C647.733 186.13 648.227 185.905 648.742 185.905H657.485C658.258 185.905 658.999 185.568 659.546 184.968C660.092 184.367 660.399 183.553 660.399 182.704C660.399 181.855 660.092 181.041 659.546 180.441C658.999 179.841 658.258 179.504 657.485 179.504H651.657C649.853 179.504 648.124 178.717 646.848 177.316C645.573 175.916 644.857 174.016 644.857 172.036C644.857 170.055 645.573 168.155 646.848 166.755C648.124 165.354 649.853 164.567 651.657 164.567H652.628V162.434C652.628 161.868 652.833 161.325 653.197 160.925C653.561 160.525 654.056 160.3 654.571 160.3C655.086 160.3 655.58 160.525 655.945 160.925C656.309 161.325 656.514 161.868 656.514 162.434V164.567H660.399C660.915 164.567 661.409 164.792 661.773 165.192C662.137 165.592 662.342 166.135 662.342 166.701C662.342 167.267 662.137 167.81 661.773 168.21C661.409 168.61 660.915 168.835 660.399 168.835H651.657C650.884 168.835 650.142 169.172 649.596 169.772C649.049 170.373 648.742 171.187 648.742 172.036C648.742 172.884 649.049 173.698 649.596 174.299C650.142 174.899 650.884 175.236 651.657 175.236H657.485C659.288 175.236 661.018 176.023 662.293 177.424C663.569 178.824 664.285 180.724 664.285 182.704C664.285 184.685 663.569 186.585 662.293 187.985C661.018 189.386 659.288 190.173 657.485 190.173Z" fill="#D99956"/>
<defs>
<filter id="filter0_d_149_1044" x="0" y="102" width="262" height="262" filterUnits="userSpaceOnUse" color-interpolation-filters="sRGB">
<feFlood flood-opacity="0" result="BackgroundImageFix"/>
<feColorMatrix in="SourceAlpha" type="matrix" values="0 0 0 0 0 0 0 0 0 0 0 0 0 0 0 0 0 0 127 0" result="hardAlpha"/>
<feOffset/>
<feGaussianBlur stdDeviation="6"/>
<feComposite in2="hardAlpha" operator="out"/>
<feColorMatrix type="matrix" values="0 0 0 0 0 0 0 0 0 0 0 0 0 0 0 0 0 0 0.25 0"/>
<feBlend mode="multiply" in2="BackgroundImageFix" result="effect1_dropShadow_149_1044"/>
<feBlend mode="normal" in="SourceGraphic" in2="effect1_dropShadow_149_1044" result="shape"/>
</filter>
<filter id="filter1_d_149_1044" x="262" y="102" width="262" height="262" filterUnits="userSpaceOnUse" color-interpolation-filters="sRGB">
<feFlood flood-opacity="0" result="BackgroundImageFix"/>
<feColorMatrix in="SourceAlpha" type="matrix" values="0 0 0 0 0 0 0 0 0 0 0 0 0 0 0 0 0 0 127 0" result="hardAlpha"/>
<feOffset/>
<feGaussianBlur stdDeviation="6"/>
<feComposite in2="hardAlpha" operator="out"/>
<feColorMatrix type="matrix" values="0 0 0 0 0 0 0 0 0 0 0 0 0 0 0 0 0 0 0.25 0"/>
<feBlend mode="multiply" in2="BackgroundImageFix" result="effect1_dropShadow_149_1044"/>
<feBlend mode="normal" in="SourceGraphic" in2="effect1_dropShadow_149_1044" result="shape"/>
</filter>
<filter id="filter2_d_149_1044" x="524" y="102" width="262" height="262" filterUnits="userSpaceOnUse" color-interpolation-filters="sRGB">
<feFlood flood-opacity="0" result="BackgroundImageFix"/>
<feColorMatrix in="SourceAlpha" type="matrix" values="0 0 0 0 0 0 0 0 0 0 0 0 0 0 0 0 0 0 127 0" result="hardAlpha"/>
<feOffset/>
<feGaussianBlur stdDeviation="6"/>
<feComposite in2="hardAlpha" operator="out"/>
<feColorMatrix type="matrix" values="0 0 0 0 0 0 0 0 0 0 0 0 0 0 0 0 0 0 0.25 0"/>
<feBlend mode="multiply" in2="BackgroundImageFix" result="effect1_dropShadow_149_1044"/>
<feBlend mode="normal" in="SourceGraphic" in2="effect1_dropShadow_149_1044" result="shape"/>
</filter>
</defs>
</svg>
