<svg width="117" height="116" viewBox="0 0 117 116" fill="none" xmlns="http://www.w3.org/2000/svg">
<path fill-rule="evenodd" clip-rule="evenodd" d="M78.9471 57.0704H78.9377V55.8349V27.0057C78.9377 24.3943 76.8878 22.3537 74.2904 22.3537C71.7801 22.3537 69.2697 22.3559 66.7593 22.3581C59.5863 22.3644 52.4128 22.3707 45.2366 22.3257C43.3833 22.3116 41.2632 23.739 40.828 25.6298C40.6454 26.4254 40.5097 27.2491 40.505 28.0587C40.4998 30.8893 40.5139 33.7214 40.528 36.5532C40.5389 38.7313 40.5498 40.9093 40.5518 43.0864C40.5581 52.8712 40.556 62.656 40.5539 72.4394C40.5529 77.3306 40.5518 82.2214 40.5518 87.1117C40.5518 89.8964 42.5175 91.9182 45.2834 91.9229C54.9477 91.9369 64.612 91.9369 74.2811 91.9041C74.9971 91.9041 75.7787 91.6935 76.4198 91.3659C78.2357 90.4393 78.9518 88.834 78.9518 86.845C78.9486 80.2274 78.9497 73.6098 78.9507 66.9922C78.9512 63.6834 78.9518 60.3746 78.9518 57.0658L78.9471 57.0704ZM59.712 87.1492C58.6309 87.1398 57.8213 86.3115 57.8306 85.2116C57.84 84.1259 58.6684 83.2928 59.7448 83.2975C60.8025 83.2975 61.6683 84.1539 61.6776 85.2163C61.687 86.3021 60.8212 87.1586 59.7167 87.1492H59.712ZM76.7147 78.8234V79.5769H75.9706H43.4956C42.9902 79.5769 42.7374 79.3257 42.7374 78.8234V29.1305C42.7374 28.9361 42.7337 28.7408 42.73 28.5452C42.7199 28.0105 42.7098 27.4738 42.7749 26.9496C42.9668 25.4379 44.0385 24.53 45.5735 24.5206C46.5257 24.515 47.4795 24.5245 48.433 24.5341H48.433C49.0683 24.5405 49.7035 24.5468 50.3379 24.5487H50.3414C58.1372 24.5487 65.933 24.5487 73.7241 24.5534C74.1126 24.5534 74.515 24.5768 74.8895 24.661C75.9565 24.8997 76.5977 25.7281 76.6913 26.9402C76.7069 27.1274 76.7062 27.3146 76.7056 27.5018L76.7053 27.6141V78.8187L76.7147 78.8234ZM67.1957 51.3654C67.0135 51.2294 66.8267 51.0998 66.6396 50.9701L66.6396 50.9701C66.5047 50.8765 66.3697 50.7829 66.2363 50.6868C65.7009 50.3098 65.166 49.9315 64.631 49.5531C63.4589 48.724 62.2862 47.8946 61.1069 47.0784C60.1288 46.4045 58.9307 46.8585 58.7154 47.977C58.5844 48.6603 58.8839 49.1657 59.4315 49.5542C59.9333 49.9121 60.4273 50.278 60.9212 50.6439L60.9214 50.644C61.0861 50.766 61.2508 50.888 61.4158 51.0097C58.6827 51.1173 56.0104 51.1173 53.3429 51.1173H53.3427C52.3131 51.1173 51.6158 51.7164 51.6111 52.6056C51.6064 53.4901 52.3084 54.1032 53.3287 54.1032H60.6717H61.2614C61.2707 54.1453 61.2801 54.1921 61.2848 54.2342C61.1042 54.3619 60.9233 54.4889 60.7425 54.6158L60.7423 54.616C60.2668 54.9496 59.7916 55.2831 59.3238 55.6289C58.6218 56.1484 58.4767 57.0236 58.9494 57.7068C59.4081 58.3714 60.3207 58.5493 61.0321 58.0719C63.0866 56.6819 65.1365 55.2826 67.1723 53.8645C68.1083 53.214 68.0989 52.0393 67.191 51.3607L67.1957 51.3654ZM58.7592 30.2431C57.4451 30.2484 56.1309 30.2536 54.8168 30.2349H54.8121C54.082 30.2209 53.7076 29.8231 53.7076 29.1772C53.7076 28.5314 54.096 28.0914 54.8027 28.0914C58.1069 28.0727 61.411 28.0727 64.7151 28.0914C65.3516 28.0914 65.7775 28.5641 65.7822 29.1585C65.7868 29.7763 65.3984 30.2209 64.7291 30.2302C63.5424 30.2503 62.3557 30.2465 61.1689 30.2426C60.6943 30.2411 60.2196 30.2396 59.7449 30.2396C59.4163 30.2405 59.0878 30.2418 58.7592 30.2431Z" fill="#007643"/>
<circle cx="58.4884" cy="57.6744" r="56.6744" stroke="#007643" stroke-width="2"/>
</svg>
