<svg width="144" height="143" viewBox="0 0 144 143" fill="none" xmlns="http://www.w3.org/2000/svg">
<g filter="url(#filter0_d_127_608)">
<rect x="6.65967" y="6" width="130.978" height="130.978" rx="15" fill="white"/>
</g>
<path d="M49.0499 84.7363H47.0885V79.3661C47.0885 79.218 47.0906 79.0361 47.0948 78.8203C47.0991 78.6002 47.1054 78.3759 47.1139 78.1474C47.1223 77.9147 47.1308 77.7052 47.1393 77.519C47.0927 77.574 46.9975 77.6692 46.8536 77.8046C46.714 77.9358 46.5828 78.0543 46.4601 78.1601L45.3937 79.017L44.4479 77.8364L47.4376 75.456H49.0499V84.7363ZM58.0763 80.0961C58.0763 80.8452 58.017 81.5138 57.8985 82.102C57.7843 82.6902 57.5981 83.1896 57.3399 83.6C57.086 84.0105 56.7517 84.3237 56.337 84.5395C55.9223 84.7553 55.4187 84.8632 54.8263 84.8632C54.0815 84.8632 53.47 84.6749 52.9918 84.2983C52.5136 83.9174 52.1603 83.3715 51.9317 82.6606C51.7032 81.9454 51.589 81.0906 51.589 80.0961C51.589 79.0932 51.6926 78.2363 51.9 77.5253C52.1116 76.8102 52.4544 76.2621 52.9283 75.8813C53.4023 75.5004 54.0349 75.31 54.8263 75.31C55.5668 75.31 56.1762 75.5004 56.6544 75.8813C57.1368 76.2579 57.4944 76.8038 57.7272 77.519C57.9599 78.2299 58.0763 79.089 58.0763 80.0961ZM53.5377 80.0961C53.5377 80.8028 53.5758 81.3932 53.652 81.8671C53.7324 82.3369 53.8657 82.6902 54.0519 82.9272C54.2381 83.1642 54.4962 83.2827 54.8263 83.2827C55.1521 83.2827 55.4081 83.1663 55.5943 82.9335C55.7848 82.6966 55.9202 82.3432 56.0006 81.8735C56.081 81.3995 56.1212 80.8071 56.1212 80.0961C56.1212 79.3894 56.081 78.7991 56.0006 78.3251C55.9202 77.8512 55.7848 77.4957 55.5943 77.2587C55.4081 77.0175 55.1521 76.8969 54.8263 76.8969C54.4962 76.8969 54.2381 77.0175 54.0519 77.2587C53.8657 77.4957 53.7324 77.8512 53.652 78.3251C53.5758 78.7991 53.5377 79.3894 53.5377 80.0961ZM65.5157 80.0961C65.5157 80.8452 65.4565 81.5138 65.338 82.102C65.2237 82.6902 65.0375 83.1896 64.7794 83.6C64.5255 84.0105 64.1912 84.3237 63.7765 84.5395C63.3618 84.7553 62.8582 84.8632 62.2657 84.8632C61.5209 84.8632 60.9094 84.6749 60.4313 84.2983C59.9531 83.9174 59.5997 83.3715 59.3712 82.6606C59.1427 81.9454 59.0284 81.0906 59.0284 80.0961C59.0284 79.0932 59.1321 78.2363 59.3395 77.5253C59.551 76.8102 59.8938 76.2621 60.3678 75.8813C60.8417 75.5004 61.4744 75.31 62.2657 75.31C63.0063 75.31 63.6157 75.5004 64.0939 75.8813C64.5763 76.2579 64.9339 76.8038 65.1666 77.519C65.3994 78.2299 65.5157 79.089 65.5157 80.0961ZM60.9772 80.0961C60.9772 80.8028 61.0152 81.3932 61.0914 81.8671C61.1718 82.3369 61.3051 82.6902 61.4913 82.9272C61.6775 83.1642 61.9356 83.2827 62.2657 83.2827C62.5916 83.2827 62.8476 83.1663 63.0338 82.9335C63.2242 82.6966 63.3596 82.3432 63.44 81.8735C63.5204 81.3995 63.5606 80.8071 63.5606 80.0961C63.5606 79.3894 63.5204 78.7991 63.44 78.3251C63.3596 77.8512 63.2242 77.4957 63.0338 77.2587C62.8476 77.0175 62.5916 76.8969 62.2657 76.8969C61.9356 76.8969 61.6775 77.0175 61.4913 77.2587C61.3051 77.4957 61.1718 77.8512 61.0914 78.3251C61.0152 78.7991 60.9772 79.3894 60.9772 80.0961ZM74.4723 84.7363L72.2379 77.4555H72.1808C72.1892 77.629 72.2019 77.8914 72.2189 78.2426C72.24 78.5896 72.2591 78.9599 72.276 79.3535C72.2929 79.747 72.3014 80.1025 72.3014 80.4199V84.7363H70.5431V75.456H73.2218L75.4181 82.5527H75.4562L77.7857 75.456H80.4645V84.7363H78.63V80.3437C78.63 80.0517 78.6342 79.7153 78.6427 79.3344C78.6554 78.9536 78.6702 78.5917 78.6871 78.249C78.704 77.902 78.7167 77.6417 78.7252 77.4682H78.6681L76.275 84.7363H74.4723ZM84.5904 77.6396V84.7363H82.6544V77.6396H84.5904ZM83.6256 74.8593C83.9134 74.8593 84.1609 74.927 84.3683 75.0624C84.5756 75.1936 84.6793 75.4412 84.6793 75.8051C84.6793 76.1648 84.5756 76.4145 84.3683 76.5541C84.1609 76.6896 83.9134 76.7573 83.6256 76.7573C83.3336 76.7573 83.0839 76.6896 82.8766 76.5541C82.6734 76.4145 82.5719 76.1648 82.5719 75.8051C82.5719 75.4412 82.6734 75.1936 82.8766 75.0624C83.0839 74.927 83.3336 74.8593 83.6256 74.8593ZM90.6588 77.5063C91.4163 77.5063 92.0257 77.7136 92.4869 78.1284C92.9482 78.5388 93.1788 79.199 93.1788 80.1088V84.7363H91.2428V80.5912C91.2428 80.0834 91.1497 79.7005 90.9635 79.4423C90.7815 79.1842 90.4938 79.0551 90.1002 79.0551C89.5078 79.0551 89.1036 79.2561 88.8878 79.6581C88.672 80.0602 88.5641 80.6399 88.5641 81.3974V84.7363H86.628V77.6396H88.107L88.3673 78.5473H88.4752C88.6275 78.3019 88.8159 78.103 89.0401 77.9506C89.2687 77.7983 89.5204 77.6861 89.7955 77.6142C90.0748 77.5423 90.3626 77.5063 90.6588 77.5063ZM100.123 82.6288C100.123 83.1113 100.009 83.5196 99.7804 83.8539C99.5561 84.184 99.2197 84.4358 98.7711 84.6093C98.3225 84.7786 97.7639 84.8632 97.0953 84.8632C96.6002 84.8632 96.1749 84.8315 95.8194 84.768C95.4682 84.7045 95.1127 84.5987 94.753 84.4506V82.851C95.1381 83.0245 95.5507 83.1684 95.9908 83.2827C96.4352 83.3927 96.8245 83.4477 97.1588 83.4477C97.5354 83.4477 97.8041 83.3927 97.965 83.2827C98.13 83.1684 98.2125 83.0203 98.2125 82.8383C98.2125 82.7198 98.1787 82.614 98.1109 82.5209C98.0475 82.4236 97.9078 82.3157 97.692 82.1972C97.4762 82.0745 97.1376 81.9158 96.6764 81.7211C96.232 81.5349 95.866 81.3466 95.5782 81.1562C95.2947 80.9658 95.0831 80.7415 94.9435 80.4833C94.808 80.221 94.7403 79.8888 94.7403 79.4868C94.7403 78.8308 94.9942 78.3378 95.5021 78.0078C96.0141 77.6734 96.6975 77.5063 97.5524 77.5063C97.9925 77.5063 98.4114 77.5507 98.8092 77.6396C99.2112 77.7285 99.6238 77.8702 100.047 78.0649L99.463 79.4614C99.1118 79.309 98.7796 79.1842 98.4664 79.0869C98.1575 78.9895 97.8422 78.9409 97.5206 78.9409C97.2371 78.9409 97.0234 78.9789 96.8795 79.0551C96.7356 79.1313 96.6637 79.2477 96.6637 79.4042C96.6637 79.5185 96.6997 79.6201 96.7716 79.7089C96.8478 79.7978 96.9916 79.8972 97.2032 80.0073C97.4191 80.1131 97.7343 80.2506 98.149 80.4199C98.5511 80.5849 98.9002 80.7584 99.1964 80.9404C99.4926 81.1181 99.7211 81.3403 99.8819 81.6069C100.043 81.8692 100.123 82.2099 100.123 82.6288Z" fill="#09B3F1"/>
<path d="M58.8771 94.7993C58.8771 95.4044 58.8001 95.9558 58.6461 96.4536C58.4957 96.9477 58.2683 97.3738 57.964 97.7319C57.6596 98.0864 57.2783 98.3603 56.8199 98.5536C56.3616 98.747 55.8245 98.8437 55.2086 98.8437C54.582 98.8437 54.0377 98.747 53.5758 98.5536C53.1175 98.3603 52.7361 98.0846 52.4317 97.7265C52.131 97.3684 51.9054 96.9405 51.755 96.4428C51.6046 95.9451 51.5294 95.3937 51.5294 94.7885C51.5294 93.9793 51.6619 93.2739 51.9269 92.6723C52.1954 92.0672 52.6018 91.5981 53.1461 91.2651C53.694 90.9285 54.385 90.7602 55.2193 90.7602C56.0357 90.7602 56.7143 90.9267 57.255 91.2597C57.7957 91.5927 58.2003 92.0618 58.4689 92.6669C58.741 93.2685 58.8771 93.9793 58.8771 94.7993ZM52.8829 94.7993C52.8829 95.4044 52.9653 95.929 53.13 96.373C53.2947 96.8134 53.5471 97.1536 53.8873 97.3935C54.2311 97.6298 54.6715 97.748 55.2086 97.748C55.7493 97.748 56.1897 97.6298 56.5299 97.3935C56.8701 97.1536 57.1207 96.8134 57.2818 96.373C57.443 95.929 57.5235 95.4044 57.5235 94.7993C57.5235 93.879 57.3391 93.1593 56.9703 92.6401C56.6051 92.1173 56.0214 91.8559 55.2193 91.8559C54.6822 91.8559 54.24 91.9741 53.8927 92.2104C53.5489 92.4467 53.2947 92.7851 53.13 93.2255C52.9653 93.6624 52.8829 94.187 52.8829 94.7993ZM61.8419 98.7363H60.5636V90.8837H65.0001V91.9687H61.8419V94.4179H64.796V95.4975H61.8419V98.7363ZM67.7071 98.7363H66.4288V90.8837H70.8653V91.9687H67.7071V94.4179H70.6612V95.4975H67.7071V98.7363ZM81.7042 98.7363H80.1197L76.274 92.4682H76.2257C76.24 92.6795 76.2525 92.9033 76.2633 93.1396C76.2776 93.3759 76.2884 93.6194 76.2955 93.8701C76.3063 94.1207 76.3152 94.3749 76.3224 94.6328V98.7363H75.1515V90.8837H76.7252L80.5655 97.1088H80.6031C80.596 96.9262 80.587 96.7167 80.5763 96.4804C80.5655 96.2441 80.5548 96.0006 80.544 95.7499C80.5369 95.4957 80.5315 95.2504 80.5279 95.0141V90.8837H81.7042V98.7363ZM86.0065 92.6777C86.5364 92.6777 86.9912 92.7869 87.3707 93.0053C87.7503 93.2237 88.0421 93.5335 88.2462 93.9345C88.4503 94.3356 88.5523 94.8154 88.5523 95.374V96.0507H84.5831C84.5974 96.6272 84.7514 97.0712 85.045 97.3828C85.3422 97.6943 85.7576 97.85 86.2911 97.85C86.6707 97.85 87.0108 97.8142 87.3116 97.7426C87.616 97.6674 87.9293 97.5582 88.2516 97.415V98.4409C87.9544 98.5805 87.6518 98.6826 87.3439 98.747C87.0359 98.8115 86.6671 98.8437 86.2374 98.8437C85.6537 98.8437 85.1399 98.7309 84.6959 98.5053C84.2555 98.2761 83.9099 97.936 83.6593 97.4848C83.4122 97.0336 83.2887 96.4732 83.2887 95.8036C83.2887 95.1376 83.4015 94.5719 83.6271 94.1064C83.8526 93.6409 84.1695 93.2864 84.5777 93.0429C84.9859 92.7994 85.4622 92.6777 86.0065 92.6777ZM86.0065 93.6284C85.609 93.6284 85.2867 93.7573 85.0397 94.0151C84.7962 94.2729 84.6529 94.6507 84.61 95.1484H87.317C87.3134 94.8512 87.2633 94.588 87.1666 94.3588C87.0735 94.1297 86.9303 93.9506 86.7369 93.8217C86.5471 93.6928 86.3037 93.6284 86.0065 93.6284ZM92.1886 97.8232C92.3533 97.8232 92.5162 97.8089 92.6773 97.7802C92.8385 97.748 92.9853 97.7104 93.1178 97.6674V98.6235C92.9781 98.6843 92.7973 98.7363 92.5753 98.7792C92.3533 98.8222 92.1223 98.8437 91.8824 98.8437C91.5458 98.8437 91.2433 98.7882 90.9747 98.6772C90.7062 98.5626 90.4931 98.3675 90.3356 98.0917C90.178 97.816 90.0992 97.4347 90.0992 96.9477V93.7519H89.2882V93.1879L90.1583 92.7421L90.5719 91.4692H91.3668V92.7905H93.0694V93.7519H91.3668V96.9316C91.3668 97.2324 91.442 97.4562 91.5924 97.603C91.7428 97.7498 91.9415 97.8232 92.1886 97.8232Z" fill="#303030"/>
<path d="M82.674 38.8946H80.3104C80.3095 37.9546 79.9357 37.0534 79.271 36.3887C78.6063 35.7241 77.7051 35.3503 76.7651 35.3493V32.9858C78.3317 32.9877 79.8335 33.6108 80.9412 34.7185C82.049 35.8262 82.6721 37.3281 82.674 38.8946Z" fill="#303030"/>
<path d="M87.4013 38.8946H85.0378C85.0353 36.7014 84.1629 34.5987 82.6121 33.0479C81.0612 31.4971 78.9586 30.6247 76.7654 30.6222V28.2587C79.5852 28.2618 82.2887 29.3834 84.2827 31.3773C86.2766 33.3713 87.3982 36.0747 87.4013 38.8946ZM85.0378 57.8029H84.8369C61.6151 56.4675 58.318 36.8738 57.8571 30.894C57.7851 29.9566 58.0884 29.0289 58.7003 28.3151C59.3121 27.6012 60.1825 27.1597 61.12 27.0875C61.2137 27.0805 61.3079 27.0769 61.4024 27.0769H67.6303C68.1037 27.0764 68.5663 27.2181 68.9582 27.4836C69.3501 27.7491 69.6533 28.1262 69.8284 28.5659L71.6247 32.9857C71.7977 33.4154 71.8406 33.8863 71.7481 34.3402C71.6557 34.794 71.432 35.2106 71.1047 35.5384L68.5876 38.0792C68.9792 40.3143 70.0487 42.3749 71.6511 43.9815C73.2535 45.5882 75.3113 46.6631 77.5454 47.0606L80.1098 44.5198C80.4425 44.1962 80.863 43.9777 81.3191 43.8915C81.7751 43.8053 82.2464 43.8553 82.6742 44.0353L87.1295 45.8197C87.5626 46.0004 87.9322 46.3059 88.191 46.6974C88.4499 47.0889 88.5864 47.5485 88.5831 48.0178V54.2576C88.5831 55.1978 88.2095 56.0996 87.5447 56.7645C86.8798 57.4293 85.978 57.8029 85.0378 57.8029ZM61.4024 29.4404C61.2472 29.44 61.0935 29.4701 60.9499 29.529C60.8063 29.588 60.6758 29.6747 60.5657 29.7841C60.4557 29.8935 60.3682 30.0235 60.3084 30.1667C60.2486 30.3099 60.2176 30.4635 60.2171 30.6187C60.2171 30.6518 60.2183 30.6844 60.2206 30.7167C60.7643 37.7128 64.2505 54.2576 84.9669 55.4393C85.2796 55.4581 85.5871 55.3518 85.8215 55.1439C86.056 54.9361 86.1983 54.6436 86.2172 54.3308L86.2195 54.2576V48.0178L81.7643 46.2334L78.3726 49.6014L77.8053 49.5305C67.524 48.2424 66.1295 37.961 66.1295 37.8546L66.0586 37.2874L69.4148 33.8957L67.6421 29.4404H61.4024Z" fill="#303030"/>
<defs>
<filter id="filter0_d_127_608" x="0.659668" y="0" width="142.978" height="142.978" filterUnits="userSpaceOnUse" color-interpolation-filters="sRGB">
<feFlood flood-opacity="0" result="BackgroundImageFix"/>
<feColorMatrix in="SourceAlpha" type="matrix" values="0 0 0 0 0 0 0 0 0 0 0 0 0 0 0 0 0 0 127 0" result="hardAlpha"/>
<feOffset/>
<feGaussianBlur stdDeviation="3"/>
<feComposite in2="hardAlpha" operator="out"/>
<feColorMatrix type="matrix" values="0 0 0 0 0 0 0 0 0 0 0 0 0 0 0 0 0 0 0.25 0"/>
<feBlend mode="normal" in2="BackgroundImageFix" result="effect1_dropShadow_127_608"/>
<feBlend mode="normal" in="SourceGraphic" in2="effect1_dropShadow_127_608" result="shape"/>
</filter>
</defs>
</svg>
