<svg width="265" height="281" viewBox="0 0 265 281" fill="none" xmlns="http://www.w3.org/2000/svg">
<rect x="0.765625" y="0.0625" width="263.945" height="280.938" rx="10" fill="#F6F6F6"/>
<path d="M13.7871 21.5557C13.7871 20.7855 13.86 20.0358 14.0059 19.3066C14.1562 18.5775 14.3841 17.8825 14.6895 17.2217C14.9948 16.5609 15.3799 15.9525 15.8447 15.3965H16.9316C16.2708 16.2624 15.7741 17.224 15.4414 18.2812C15.1087 19.3385 14.9424 20.4255 14.9424 21.542C14.9424 22.2712 15.0153 22.9912 15.1611 23.7021C15.3115 24.4085 15.5326 25.0898 15.8242 25.7461C16.1204 26.4023 16.485 27.0221 16.918 27.6055H15.8447C15.3799 27.0586 14.9948 26.4616 14.6895 25.8145C14.3841 25.1719 14.1562 24.4906 14.0059 23.7705C13.86 23.0505 13.7871 22.3122 13.7871 21.5557ZM24.9912 25.3906L23.7607 22.2188H19.7549L18.5312 25.3906H17.3555L21.2656 15.3555H22.3115L26.1943 25.3906H24.9912ZM23.4121 21.1865L22.2432 18.0352C22.2158 17.9531 22.1702 17.8187 22.1064 17.6318C22.0472 17.445 21.9857 17.2513 21.9219 17.0508C21.8581 16.8503 21.8057 16.6885 21.7646 16.5654C21.7191 16.7523 21.6689 16.9391 21.6143 17.126C21.5641 17.3083 21.514 17.4792 21.4639 17.6387C21.4137 17.7936 21.3704 17.9258 21.334 18.0352L20.1445 21.1865H23.4121ZM26.1396 28.0225C25.9118 28.0225 25.7113 28.0065 25.5381 27.9746C25.3649 27.9427 25.2168 27.8994 25.0938 27.8447V26.8535C25.2396 26.8991 25.3968 26.9333 25.5654 26.9561C25.734 26.9834 25.9163 26.9971 26.1123 26.9971C26.3675 26.9971 26.6022 26.9469 26.8164 26.8467C27.0306 26.7464 27.2015 26.5755 27.3291 26.334C27.4567 26.0924 27.5205 25.7598 27.5205 25.3359V15.3965H28.6895V25.2471C28.6895 25.8714 28.5846 26.3887 28.375 26.7988C28.1699 27.209 27.876 27.5143 27.4932 27.7148C27.1149 27.9199 26.6637 28.0225 26.1396 28.0225ZM34.2334 15.2393C34.7256 15.2393 35.1494 15.3258 35.5049 15.499C35.8649 15.6676 36.1406 15.9115 36.332 16.2305C36.528 16.5495 36.626 16.9346 36.626 17.3857C36.626 17.9782 36.4323 18.4795 36.0449 18.8896C35.6621 19.2998 35.1745 19.6735 34.582 20.0107L37.3574 22.7041C37.6081 22.4124 37.8132 22.0752 37.9727 21.6924C38.1322 21.305 38.2666 20.8857 38.376 20.4346H39.5244C39.3786 21.0361 39.1895 21.5898 38.957 22.0957C38.7292 22.6016 38.4421 23.0459 38.0957 23.4287L40.0986 25.3906H38.5605L37.3232 24.1807C37.0316 24.4495 36.7171 24.6865 36.3799 24.8916C36.0472 25.0921 35.6758 25.2493 35.2656 25.3633C34.86 25.4727 34.3952 25.5273 33.8711 25.5273C33.2331 25.5273 32.6794 25.4225 32.21 25.2129C31.7406 25.0033 31.376 24.6956 31.1162 24.29C30.861 23.8844 30.7334 23.3877 30.7334 22.7998C30.7334 22.3167 30.8223 21.902 31 21.5557C31.1777 21.2093 31.4307 20.9017 31.7588 20.6328C32.0869 20.3639 32.4788 20.1019 32.9346 19.8467C32.7204 19.6097 32.5176 19.3704 32.3262 19.1289C32.1348 18.8828 31.9798 18.6208 31.8613 18.3428C31.7428 18.0602 31.6836 17.7503 31.6836 17.4131C31.6836 16.9574 31.7861 16.5677 31.9912 16.2441C32.2008 15.9206 32.4948 15.6722 32.873 15.499C33.2559 15.3258 33.7093 15.2393 34.2334 15.2393ZM33.6182 20.5645C33.2627 20.7695 32.9574 20.9723 32.7021 21.1729C32.4515 21.3734 32.2578 21.599 32.1211 21.8496C31.9889 22.1003 31.9229 22.4033 31.9229 22.7588C31.9229 23.292 32.1029 23.7204 32.4629 24.0439C32.8229 24.363 33.3037 24.5225 33.9053 24.5225C34.5251 24.5225 35.0514 24.4199 35.4844 24.2148C35.9219 24.0098 36.2933 23.7614 36.5986 23.4697L33.6182 20.5645ZM34.1924 16.1758C33.7777 16.1758 33.4404 16.2852 33.1807 16.5039C32.9255 16.7181 32.7979 17.0189 32.7979 17.4062C32.7979 17.7526 32.8913 18.0716 33.0781 18.3633C33.265 18.6549 33.5316 18.9785 33.8779 19.334C34.4476 19.0195 34.86 18.7165 35.1152 18.4248C35.375 18.1286 35.5049 17.7822 35.5049 17.3857C35.5049 17.0257 35.3841 16.734 35.1426 16.5107C34.9056 16.2874 34.5889 16.1758 34.1924 16.1758ZM48.7461 25.3906H47.3721L43.7695 20.5303L42.7031 21.4873V25.3906H41.541V15.3965H42.7031V20.3799C42.9629 20.0837 43.2295 19.7897 43.5029 19.498C43.7764 19.2018 44.0475 18.9033 44.3164 18.6025L47.2354 15.3965H48.5957L44.6172 19.7305L48.7461 25.3906ZM56.833 14.7539L56.5732 17.4678L59.2734 16.6816L59.4512 17.8779L56.8672 18.1445L58.5352 20.3662L57.4277 20.9746L56.1904 18.541L55.0557 20.9746L53.9072 20.3662L55.5615 18.1445L52.9912 17.8779L53.1826 16.6816L55.8418 17.4678L55.5752 14.7539H56.833ZM70.1289 20.3799C70.1289 21.1501 70.0309 21.8519 69.835 22.4854C69.639 23.1143 69.3473 23.6566 68.96 24.1123C68.5771 24.5635 68.1009 24.9121 67.5312 25.1582C66.9616 25.4043 66.3008 25.5273 65.5488 25.5273C64.7741 25.5273 64.0973 25.4043 63.5186 25.1582C62.9443 24.9121 62.4658 24.5612 62.083 24.1055C61.7048 23.6497 61.4199 23.1051 61.2285 22.4717C61.0417 21.8382 60.9482 21.1364 60.9482 20.3662C60.9482 19.3454 61.1169 18.4499 61.4541 17.6797C61.7913 16.9095 62.3018 16.3102 62.9854 15.8818C63.6735 15.4535 64.5348 15.2393 65.5693 15.2393C66.5583 15.2393 67.39 15.4512 68.0645 15.875C68.7435 16.2988 69.2562 16.8958 69.6025 17.666C69.9535 18.4316 70.1289 19.3363 70.1289 20.3799ZM62.1719 20.3799C62.1719 21.2275 62.2926 21.9613 62.5342 22.5811C62.7757 23.2008 63.1449 23.6794 63.6416 24.0166C64.1429 24.3538 64.7786 24.5225 65.5488 24.5225C66.3236 24.5225 66.957 24.3538 67.4492 24.0166C67.946 23.6794 68.3128 23.2008 68.5498 22.5811C68.7868 21.9613 68.9053 21.2275 68.9053 20.3799C68.9053 19.0902 68.6341 18.083 68.0918 17.3584C67.554 16.6292 66.7132 16.2646 65.5693 16.2646C64.7946 16.2646 64.1566 16.431 63.6553 16.7637C63.154 17.0964 62.7803 17.5703 62.5342 18.1855C62.2926 18.7962 62.1719 19.5277 62.1719 20.3799ZM75.7344 17.7617C76.623 17.7617 77.2952 17.9805 77.751 18.418C78.2067 18.8509 78.4346 19.5482 78.4346 20.5098V25.3906H77.3135V20.585C77.3135 19.9606 77.1699 19.4935 76.8828 19.1836C76.6003 18.8737 76.165 18.7188 75.5771 18.7188C74.7477 18.7188 74.1644 18.9535 73.8271 19.4229C73.4899 19.8923 73.3213 20.5736 73.3213 21.4668V25.3906H72.1865V17.8984H73.1025L73.2734 18.9785H73.335C73.4945 18.7142 73.6973 18.4932 73.9434 18.3154C74.1895 18.1331 74.4652 17.9964 74.7705 17.9053C75.0758 17.8096 75.3971 17.7617 75.7344 17.7617ZM81.9141 25.3906H80.7725V14.7539H81.9141V25.3906ZM83.1309 17.8984H84.3477L86.002 22.2461C86.0977 22.5013 86.1865 22.7474 86.2686 22.9844C86.3506 23.2168 86.4235 23.4401 86.4873 23.6543C86.5511 23.8685 86.6012 24.0758 86.6377 24.2764H86.6855C86.7493 24.0485 86.8405 23.75 86.959 23.3809C87.0775 23.0072 87.2051 22.6266 87.3418 22.2393L88.9072 17.8984H90.1309L86.8701 26.4912C86.6969 26.9515 86.4941 27.3525 86.2617 27.6943C86.0339 28.0361 85.7559 28.2982 85.4277 28.4805C85.0996 28.6673 84.7031 28.7607 84.2383 28.7607C84.0241 28.7607 83.835 28.7471 83.6709 28.7197C83.5068 28.6969 83.3656 28.6696 83.2471 28.6377V27.7285C83.3473 27.7513 83.4681 27.7718 83.6094 27.79C83.7552 27.8083 83.9056 27.8174 84.0605 27.8174C84.3431 27.8174 84.5869 27.7627 84.792 27.6533C85.0016 27.5485 85.1816 27.3936 85.332 27.1885C85.4824 26.9834 85.6123 26.7396 85.7217 26.457L86.1318 25.4043L83.1309 17.8984ZM93.6992 21.542C93.6992 22.3031 93.624 23.0459 93.4736 23.7705C93.3278 24.4906 93.1022 25.1742 92.7969 25.8213C92.4961 26.4684 92.111 27.0632 91.6416 27.6055H90.5684C91.0059 27.0267 91.3704 26.4069 91.6621 25.7461C91.9583 25.0853 92.1794 24.4017 92.3252 23.6953C92.4756 22.9844 92.5508 22.2643 92.5508 21.5352C92.5508 20.7923 92.4756 20.0609 92.3252 19.3408C92.1748 18.6208 91.9515 17.9281 91.6553 17.2627C91.3636 16.5973 90.9967 15.9753 90.5547 15.3965H91.6416C92.111 15.957 92.4961 16.5677 92.7969 17.2285C93.1022 17.8848 93.3278 18.5775 93.4736 19.3066C93.624 20.0312 93.6992 20.7764 93.6992 21.542Z" fill="#007643"/>
<path d="M23.8516 46.3906H21.1016L18.1094 41.5781L17.0859 42.3125V46.3906H14.6641V34.9688H17.0859V40.1953C17.2474 39.9714 17.4062 39.7474 17.5625 39.5234C17.7188 39.2995 17.8776 39.0755 18.0391 38.8516L21.1328 34.9688H23.8203L19.8359 40.0234L23.8516 46.3906ZM28.6797 37.4766C29.8516 37.4766 30.75 37.7318 31.375 38.2422C32 38.7526 32.3125 39.5286 32.3125 40.5703V46.3906H30.6484L30.1875 45.2031H30.125C29.875 45.5156 29.6198 45.7708 29.3594 45.9688C29.099 46.1667 28.7995 46.3125 28.4609 46.4062C28.1224 46.5 27.7109 46.5469 27.2266 46.5469C26.7109 46.5469 26.2474 46.4479 25.8359 46.25C25.4297 46.0521 25.1094 45.75 24.875 45.3438C24.6406 44.9323 24.5234 44.4115 24.5234 43.7812C24.5234 42.8542 24.849 42.1719 25.5 41.7344C26.151 41.2917 27.1276 41.0469 28.4297 41L29.9453 40.9531V40.5703C29.9453 40.112 29.8255 39.776 29.5859 39.5625C29.3464 39.349 29.013 39.2422 28.5859 39.2422C28.1641 39.2422 27.75 39.3021 27.3438 39.4219C26.9375 39.5417 26.5312 39.6927 26.125 39.875L25.3359 38.2656C25.7995 38.0208 26.3177 37.8281 26.8906 37.6875C27.4688 37.5469 28.0651 37.4766 28.6797 37.4766ZM29.9453 42.3438L29.0234 42.375C28.2526 42.3958 27.7161 42.5339 27.4141 42.7891C27.1172 43.0443 26.9688 43.3802 26.9688 43.7969C26.9688 44.1615 27.0755 44.4219 27.2891 44.5781C27.5026 44.7292 27.7812 44.8047 28.125 44.8047C28.6354 44.8047 29.0651 44.6536 29.4141 44.3516C29.7682 44.0495 29.9453 43.6198 29.9453 43.0625V42.3438ZM40.8672 43.7969C40.8672 44.3906 40.7266 44.8932 40.4453 45.3047C40.1693 45.7109 39.7552 46.0208 39.2031 46.2344C38.651 46.4427 37.9635 46.5469 37.1406 46.5469C36.5312 46.5469 36.0078 46.5078 35.5703 46.4297C35.138 46.3516 34.7005 46.2214 34.2578 46.0391V44.0703C34.7318 44.2839 35.2396 44.4609 35.7812 44.6016C36.3281 44.737 36.8073 44.8047 37.2188 44.8047C37.6823 44.8047 38.013 44.737 38.2109 44.6016C38.4141 44.4609 38.5156 44.2786 38.5156 44.0547C38.5156 43.9089 38.474 43.7786 38.3906 43.6641C38.3125 43.5443 38.1406 43.4115 37.875 43.2656C37.6094 43.1146 37.1927 42.9193 36.625 42.6797C36.0781 42.4505 35.6276 42.2188 35.2734 41.9844C34.9245 41.75 34.6641 41.474 34.4922 41.1562C34.3255 40.8333 34.2422 40.4245 34.2422 39.9297C34.2422 39.1224 34.5547 38.5156 35.1797 38.1094C35.8099 37.6979 36.651 37.4922 37.7031 37.4922C38.2448 37.4922 38.7604 37.5469 39.25 37.6562C39.7448 37.7656 40.2526 37.9401 40.7734 38.1797L40.0547 39.8984C39.6224 39.7109 39.2135 39.5573 38.8281 39.4375C38.4479 39.3177 38.0599 39.2578 37.6641 39.2578C37.3151 39.2578 37.0521 39.3047 36.875 39.3984C36.6979 39.4922 36.6094 39.6354 36.6094 39.8281C36.6094 39.9688 36.6536 40.0938 36.7422 40.2031C36.8359 40.3125 37.013 40.4349 37.2734 40.5703C37.5391 40.7005 37.9271 40.8698 38.4375 41.0781C38.9323 41.2812 39.362 41.4948 39.7266 41.7188C40.0911 41.9375 40.3724 42.2109 40.5703 42.5391C40.7682 42.862 40.8672 43.2812 40.8672 43.7969ZM45.1094 34.2344V36.7109C45.1094 37.1432 45.0938 37.5547 45.0625 37.9453C45.0365 38.3359 45.0156 38.612 45 38.7734H45.125C45.3125 38.4714 45.5339 38.2266 45.7891 38.0391C46.0495 37.8516 46.3359 37.7135 46.6484 37.625C46.9609 37.5365 47.2969 37.4922 47.6562 37.4922C48.2865 37.4922 48.8359 37.6042 49.3047 37.8281C49.7734 38.0469 50.138 38.3932 50.3984 38.8672C50.6589 39.3359 50.7891 39.9453 50.7891 40.6953V46.3906H48.4062V41.2891C48.4062 40.6641 48.2917 40.1927 48.0625 39.875C47.8333 39.5573 47.4792 39.3984 47 39.3984C46.5208 39.3984 46.1432 39.5104 45.8672 39.7344C45.5911 39.9531 45.3958 40.2786 45.2812 40.7109C45.1667 41.138 45.1094 41.6615 45.1094 42.2812V46.3906H42.7266V34.2344H45.1094ZM63.5 37.4922C64.4896 37.4922 65.237 37.7474 65.7422 38.2578C66.2526 38.763 66.5078 39.5755 66.5078 40.6953V46.3906H64.1172V41.2891C64.1172 40.6641 64.0104 40.1927 63.7969 39.875C63.5833 39.5573 63.2526 39.3984 62.8047 39.3984C62.1745 39.3984 61.7266 39.625 61.4609 40.0781C61.1953 40.526 61.0625 41.1693 61.0625 42.0078V46.3906H58.6797V41.2891C58.6797 40.8724 58.6328 40.5234 58.5391 40.2422C58.4453 39.9609 58.3021 39.75 58.1094 39.6094C57.9167 39.4688 57.6693 39.3984 57.3672 39.3984C56.9245 39.3984 56.5755 39.5104 56.3203 39.7344C56.0703 39.9531 55.8906 40.2786 55.7812 40.7109C55.6771 41.138 55.625 41.6615 55.625 42.2812V46.3906H53.2422V37.6562H55.0625L55.3828 38.7734H55.5156C55.6927 38.4714 55.9141 38.2266 56.1797 38.0391C56.4505 37.8516 56.7474 37.7135 57.0703 37.625C57.3932 37.5365 57.7214 37.4922 58.0547 37.4922C58.6953 37.4922 59.237 37.5964 59.6797 37.8047C60.1276 38.013 60.4714 38.3359 60.7109 38.7734H60.9219C61.1823 38.3255 61.5495 38 62.0234 37.7969C62.5026 37.5938 62.9948 37.4922 63.5 37.4922ZM71.3438 37.6562V46.3906H68.9609V37.6562H71.3438ZM70.1562 34.2344C70.5104 34.2344 70.8151 34.3177 71.0703 34.4844C71.3255 34.6458 71.4531 34.9505 71.4531 35.3984C71.4531 35.8411 71.3255 36.1484 71.0703 36.3203C70.8151 36.487 70.5104 36.5703 70.1562 36.5703C69.7969 36.5703 69.4896 36.487 69.2344 36.3203C68.9844 36.1484 68.8594 35.8411 68.8594 35.3984C68.8594 34.9505 68.9844 34.6458 69.2344 34.4844C69.4896 34.3177 69.7969 34.2344 70.1562 34.2344ZM78.7266 37.4922C78.8464 37.4922 78.9844 37.5 79.1406 37.5156C79.3021 37.526 79.4323 37.5417 79.5312 37.5625L79.3516 39.7969C79.2734 39.7708 79.1615 39.7526 79.0156 39.7422C78.875 39.7266 78.7526 39.7188 78.6484 39.7188C78.3411 39.7188 78.0417 39.7578 77.75 39.8359C77.4635 39.9141 77.2057 40.0417 76.9766 40.2188C76.7474 40.3906 76.5651 40.6198 76.4297 40.9062C76.2995 41.1875 76.2344 41.5339 76.2344 41.9453V46.3906H73.8516V37.6562H75.6562L76.0078 39.125H76.125C76.2969 38.8281 76.5104 38.5573 76.7656 38.3125C77.026 38.0625 77.3203 37.8646 77.6484 37.7188C77.9818 37.5677 78.3411 37.4922 78.7266 37.4922ZM89.1094 34.9688C90.5833 34.9688 91.6589 35.2865 92.3359 35.9219C93.013 36.5521 93.3516 37.4219 93.3516 38.5312C93.3516 39.0312 93.276 39.5104 93.125 39.9688C92.974 40.4219 92.7266 40.8255 92.3828 41.1797C92.0443 41.5339 91.5911 41.8151 91.0234 42.0234C90.4557 42.2266 89.7552 42.3281 88.9219 42.3281H87.8828V46.3906H85.4609V34.9688H89.1094ZM88.9844 36.9531H87.8828V40.3438H88.6797C89.1328 40.3438 89.526 40.2839 89.8594 40.1641C90.1927 40.0443 90.4505 39.8568 90.6328 39.6016C90.8151 39.3464 90.9062 39.0182 90.9062 38.6172C90.9062 38.0547 90.75 37.638 90.4375 37.3672C90.125 37.0911 89.6406 36.9531 88.9844 36.9531ZM98.8984 37.4766C100.07 37.4766 100.969 37.7318 101.594 38.2422C102.219 38.7526 102.531 39.5286 102.531 40.5703V46.3906H100.867L100.406 45.2031H100.344C100.094 45.5156 99.8385 45.7708 99.5781 45.9688C99.3177 46.1667 99.0182 46.3125 98.6797 46.4062C98.3411 46.5 97.9297 46.5469 97.4453 46.5469C96.9297 46.5469 96.4661 46.4479 96.0547 46.25C95.6484 46.0521 95.3281 45.75 95.0938 45.3438C94.8594 44.9323 94.7422 44.4115 94.7422 43.7812C94.7422 42.8542 95.0677 42.1719 95.7188 41.7344C96.3698 41.2917 97.3464 41.0469 98.6484 41L100.164 40.9531V40.5703C100.164 40.112 100.044 39.776 99.8047 39.5625C99.5651 39.349 99.2318 39.2422 98.8047 39.2422C98.3828 39.2422 97.9688 39.3021 97.5625 39.4219C97.1562 39.5417 96.75 39.6927 96.3438 39.875L95.5547 38.2656C96.0182 38.0208 96.5365 37.8281 97.1094 37.6875C97.6875 37.5469 98.2839 37.4766 98.8984 37.4766ZM100.164 42.3438L99.2422 42.375C98.4714 42.3958 97.9349 42.5339 97.6328 42.7891C97.3359 43.0443 97.1875 43.3802 97.1875 43.7969C97.1875 44.1615 97.2943 44.4219 97.5078 44.5781C97.7214 44.7292 98 44.8047 98.3438 44.8047C98.8542 44.8047 99.2839 44.6536 99.6328 44.3516C99.987 44.0495 100.164 43.6198 100.164 43.0625V42.3438ZM108.539 46.5469C107.674 46.5469 106.938 46.3906 106.328 46.0781C105.719 45.7604 105.255 45.2708 104.938 44.6094C104.62 43.9479 104.461 43.1016 104.461 42.0703C104.461 41.0026 104.641 40.1328 105 39.4609C105.365 38.7839 105.867 38.2865 106.508 37.9688C107.154 37.651 107.901 37.4922 108.75 37.4922C109.354 37.4922 109.875 37.5521 110.312 37.6719C110.755 37.7865 111.141 37.9245 111.469 38.0859L110.766 39.9297C110.391 39.7786 110.042 39.6562 109.719 39.5625C109.396 39.4635 109.073 39.4141 108.75 39.4141C108.333 39.4141 107.987 39.513 107.711 39.7109C107.435 39.9036 107.229 40.1953 107.094 40.5859C106.958 40.9766 106.891 41.4661 106.891 42.0547C106.891 42.6328 106.964 43.112 107.109 43.4922C107.255 43.8724 107.466 44.1562 107.742 44.3438C108.018 44.526 108.354 44.6172 108.75 44.6172C109.245 44.6172 109.685 44.5521 110.07 44.4219C110.456 44.2865 110.831 44.099 111.195 43.8594V45.8984C110.831 46.1276 110.448 46.2917 110.047 46.3906C109.651 46.4948 109.148 46.5469 108.539 46.5469ZM115.609 34.2344V39.6719C115.609 40 115.596 40.3281 115.57 40.6562C115.544 40.9844 115.516 41.3125 115.484 41.6406H115.516C115.677 41.4115 115.841 41.1849 116.008 40.9609C116.18 40.737 116.362 40.5208 116.555 40.3125L119 37.6562H121.688L118.219 41.4453L121.898 46.3906H119.148L116.633 42.8516L115.609 43.6719V46.3906H113.227V34.2344H115.609ZM126.727 37.4766C127.898 37.4766 128.797 37.7318 129.422 38.2422C130.047 38.7526 130.359 39.5286 130.359 40.5703V46.3906H128.695L128.234 45.2031H128.172C127.922 45.5156 127.667 45.7708 127.406 45.9688C127.146 46.1667 126.846 46.3125 126.508 46.4062C126.169 46.5 125.758 46.5469 125.273 46.5469C124.758 46.5469 124.294 46.4479 123.883 46.25C123.477 46.0521 123.156 45.75 122.922 45.3438C122.688 44.9323 122.57 44.4115 122.57 43.7812C122.57 42.8542 122.896 42.1719 123.547 41.7344C124.198 41.2917 125.174 41.0469 126.477 41L127.992 40.9531V40.5703C127.992 40.112 127.872 39.776 127.633 39.5625C127.393 39.349 127.06 39.2422 126.633 39.2422C126.211 39.2422 125.797 39.3021 125.391 39.4219C124.984 39.5417 124.578 39.6927 124.172 39.875L123.383 38.2656C123.846 38.0208 124.365 37.8281 124.938 37.6875C125.516 37.5469 126.112 37.4766 126.727 37.4766ZM127.992 42.3438L127.07 42.375C126.299 42.3958 125.763 42.5339 125.461 42.7891C125.164 43.0443 125.016 43.3802 125.016 43.7969C125.016 44.1615 125.122 44.4219 125.336 44.5781C125.549 44.7292 125.828 44.8047 126.172 44.8047C126.682 44.8047 127.112 44.6536 127.461 44.3516C127.815 44.0495 127.992 43.6198 127.992 43.0625V42.3438ZM135.375 50.2344C134.156 50.2344 133.224 50.0208 132.578 49.5938C131.938 49.1719 131.617 48.5781 131.617 47.8125C131.617 47.2865 131.781 46.8464 132.109 46.4922C132.438 46.138 132.919 45.8854 133.555 45.7344C133.31 45.6302 133.096 45.4609 132.914 45.2266C132.732 44.987 132.641 44.7344 132.641 44.4688C132.641 44.1354 132.737 43.8594 132.93 43.6406C133.122 43.4167 133.401 43.1979 133.766 42.9844C133.307 42.7865 132.943 42.4688 132.672 42.0312C132.406 41.5938 132.273 41.0781 132.273 40.4844C132.273 39.849 132.411 39.3099 132.688 38.8672C132.969 38.4193 133.375 38.0781 133.906 37.8438C134.443 37.6094 135.094 37.4922 135.859 37.4922C136.021 37.4922 136.208 37.5026 136.422 37.5234C136.635 37.5443 136.831 37.5677 137.008 37.5938C137.19 37.6198 137.312 37.6406 137.375 37.6562H140.422V38.8672L139.055 39.2188C139.18 39.4115 139.273 39.6172 139.336 39.8359C139.398 40.0547 139.43 40.2865 139.43 40.5312C139.43 41.4688 139.102 42.2005 138.445 42.7266C137.794 43.2474 136.888 43.5078 135.727 43.5078C135.451 43.4922 135.19 43.4714 134.945 43.4453C134.826 43.5391 134.734 43.638 134.672 43.7422C134.609 43.8464 134.578 43.9557 134.578 44.0703C134.578 44.1849 134.625 44.2812 134.719 44.3594C134.818 44.4323 134.964 44.4896 135.156 44.5312C135.354 44.5677 135.599 44.5859 135.891 44.5859H137.375C138.333 44.5859 139.062 44.7917 139.562 45.2031C140.068 45.6146 140.32 46.2188 140.32 47.0156C140.32 48.0365 139.893 48.8281 139.039 49.3906C138.19 49.9531 136.969 50.2344 135.375 50.2344ZM135.477 48.6797C136.044 48.6797 136.531 48.625 136.938 48.5156C137.349 48.4115 137.664 48.2604 137.883 48.0625C138.102 47.8698 138.211 47.638 138.211 47.3672C138.211 47.1484 138.146 46.974 138.016 46.8438C137.891 46.7188 137.698 46.6302 137.438 46.5781C137.182 46.526 136.854 46.5 136.453 46.5H135.219C134.927 46.5 134.664 46.5469 134.43 46.6406C134.201 46.7344 134.018 46.8646 133.883 47.0312C133.747 47.2031 133.68 47.401 133.68 47.625C133.68 47.9531 133.836 48.2109 134.148 48.3984C134.466 48.5859 134.909 48.6797 135.477 48.6797ZM135.859 42.0547C136.307 42.0547 136.635 41.9167 136.844 41.6406C137.052 41.3646 137.156 40.9896 137.156 40.5156C137.156 39.9896 137.047 39.5964 136.828 39.3359C136.615 39.0703 136.292 38.9375 135.859 38.9375C135.422 38.9375 135.094 39.0703 134.875 39.3359C134.656 39.5964 134.547 39.9896 134.547 40.5156C134.547 40.9896 134.654 41.3646 134.867 41.6406C135.086 41.9167 135.417 42.0547 135.859 42.0547ZM145.469 37.4922C146.276 37.4922 146.971 37.6484 147.555 37.9609C148.138 38.2682 148.589 38.7161 148.906 39.3047C149.224 39.8932 149.383 40.612 149.383 41.4609V42.6172H143.75C143.776 43.2891 143.977 43.8177 144.352 44.2031C144.732 44.5833 145.258 44.7734 145.93 44.7734C146.487 44.7734 146.997 44.7161 147.461 44.6016C147.924 44.487 148.401 44.3151 148.891 44.0859V45.9297C148.458 46.1432 148.005 46.2995 147.531 46.3984C147.062 46.4974 146.492 46.5469 145.82 46.5469C144.945 46.5469 144.169 46.3854 143.492 46.0625C142.82 45.7396 142.292 45.2474 141.906 44.5859C141.526 43.9245 141.336 43.0911 141.336 42.0859C141.336 41.0651 141.508 40.2161 141.852 39.5391C142.201 38.8568 142.685 38.3464 143.305 38.0078C143.924 37.6641 144.646 37.4922 145.469 37.4922ZM145.484 39.1875C145.021 39.1875 144.635 39.3359 144.328 39.6328C144.026 39.9297 143.852 40.3958 143.805 41.0312H147.148C147.143 40.6771 147.078 40.362 146.953 40.0859C146.833 39.8099 146.651 39.5911 146.406 39.4297C146.167 39.2682 145.859 39.1875 145.484 39.1875Z" fill="#303030"/>
<path d="M17.9922 224.273C19.0286 224.273 19.8828 224.398 20.5547 224.648C21.2318 224.898 21.7344 225.276 22.0625 225.781C22.3906 226.286 22.5547 226.924 22.5547 227.695C22.5547 228.216 22.4557 228.672 22.2578 229.062C22.0599 229.453 21.7995 229.784 21.4766 230.055C21.1536 230.326 20.8047 230.547 20.4297 230.719L23.7891 235.695H21.1016L18.375 231.312H17.0859V235.695H14.6641V224.273H17.9922ZM17.8203 226.258H17.0859V229.344H17.8672C18.6693 229.344 19.2422 229.211 19.5859 228.945C19.9349 228.674 20.1094 228.279 20.1094 227.758C20.1094 227.216 19.9219 226.831 19.5469 226.602C19.1771 226.372 18.6016 226.258 17.8203 226.258ZM31.1328 233.102C31.1328 233.695 30.9922 234.198 30.7109 234.609C30.4349 235.016 30.0208 235.326 29.4688 235.539C28.9167 235.747 28.2292 235.852 27.4062 235.852C26.7969 235.852 26.2734 235.812 25.8359 235.734C25.4036 235.656 24.9661 235.526 24.5234 235.344V233.375C24.9974 233.589 25.5052 233.766 26.0469 233.906C26.5938 234.042 27.0729 234.109 27.4844 234.109C27.9479 234.109 28.2786 234.042 28.4766 233.906C28.6797 233.766 28.7812 233.583 28.7812 233.359C28.7812 233.214 28.7396 233.083 28.6562 232.969C28.5781 232.849 28.4062 232.716 28.1406 232.57C27.875 232.419 27.4583 232.224 26.8906 231.984C26.3438 231.755 25.8932 231.523 25.5391 231.289C25.1901 231.055 24.9297 230.779 24.7578 230.461C24.5911 230.138 24.5078 229.729 24.5078 229.234C24.5078 228.427 24.8203 227.82 25.4453 227.414C26.0755 227.003 26.9167 226.797 27.9688 226.797C28.5104 226.797 29.026 226.852 29.5156 226.961C30.0104 227.07 30.5182 227.245 31.0391 227.484L30.3203 229.203C29.888 229.016 29.4792 228.862 29.0938 228.742C28.7135 228.622 28.3255 228.562 27.9297 228.562C27.5807 228.562 27.3177 228.609 27.1406 228.703C26.9635 228.797 26.875 228.94 26.875 229.133C26.875 229.273 26.9193 229.398 27.0078 229.508C27.1016 229.617 27.2786 229.74 27.5391 229.875C27.8047 230.005 28.1927 230.174 28.7031 230.383C29.1979 230.586 29.6276 230.799 29.9922 231.023C30.3568 231.242 30.638 231.516 30.8359 231.844C31.0339 232.167 31.1328 232.586 31.1328 233.102ZM32.6562 234.578C32.6562 234.089 32.7891 233.745 33.0547 233.547C33.3255 233.349 33.651 233.25 34.0312 233.25C34.401 233.25 34.7188 233.349 34.9844 233.547C35.2552 233.745 35.3906 234.089 35.3906 234.578C35.3906 235.047 35.2552 235.385 34.9844 235.594C34.7188 235.802 34.401 235.906 34.0312 235.906C33.651 235.906 33.3255 235.802 33.0547 235.594C32.7891 235.385 32.6562 235.047 32.6562 234.578ZM48.6406 226.828C48.6406 227.354 48.5312 227.81 48.3125 228.195C48.0938 228.581 47.7969 228.896 47.4219 229.141C47.0521 229.385 46.6354 229.565 46.1719 229.68V229.727C47.0885 229.841 47.7839 230.122 48.2578 230.57C48.737 231.018 48.9766 231.617 48.9766 232.367C48.9766 233.034 48.8125 233.63 48.4844 234.156C48.1615 234.682 47.6615 235.096 46.9844 235.398C46.3073 235.701 45.4349 235.852 44.3672 235.852C43.737 235.852 43.1484 235.799 42.6016 235.695C42.0599 235.596 41.5495 235.443 41.0703 235.234V233.18C41.5599 233.43 42.0729 233.62 42.6094 233.75C43.1458 233.875 43.6458 233.938 44.1094 233.938C44.974 233.938 45.5781 233.789 45.9219 233.492C46.2708 233.19 46.4453 232.768 46.4453 232.227C46.4453 231.909 46.3646 231.641 46.2031 231.422C46.0417 231.203 45.7604 231.036 45.3594 230.922C44.9635 230.807 44.4089 230.75 43.6953 230.75H42.8281V228.898H43.7109C44.4141 228.898 44.9479 228.833 45.3125 228.703C45.6823 228.568 45.9323 228.385 46.0625 228.156C46.1979 227.922 46.2656 227.656 46.2656 227.359C46.2656 226.953 46.1406 226.635 45.8906 226.406C45.6406 226.177 45.224 226.062 44.6406 226.062C44.276 226.062 43.9427 226.109 43.6406 226.203C43.3438 226.292 43.0755 226.401 42.8359 226.531C42.5964 226.656 42.3854 226.779 42.2031 226.898L41.0859 225.234C41.5339 224.911 42.0573 224.643 42.6562 224.43C43.2604 224.216 43.9792 224.109 44.8125 224.109C45.9896 224.109 46.9219 224.346 47.6094 224.82C48.2969 225.294 48.6406 225.964 48.6406 226.828ZM50.5312 234.578C50.5312 234.089 50.6641 233.745 50.9297 233.547C51.2005 233.349 51.526 233.25 51.9062 233.25C52.276 233.25 52.5938 233.349 52.8594 233.547C53.1302 233.745 53.2656 234.089 53.2656 234.578C53.2656 235.047 53.1302 235.385 52.8594 235.594C52.5938 235.802 52.276 235.906 51.9062 235.906C51.526 235.906 51.2005 235.802 50.9297 235.594C50.6641 235.385 50.5312 235.047 50.5312 234.578ZM62.7422 229.984C62.7422 230.906 62.6693 231.729 62.5234 232.453C62.3828 233.177 62.1536 233.792 61.8359 234.297C61.5234 234.802 61.112 235.188 60.6016 235.453C60.0911 235.719 59.4714 235.852 58.7422 235.852C57.8255 235.852 57.0729 235.62 56.4844 235.156C55.8958 234.688 55.4609 234.016 55.1797 233.141C54.8984 232.26 54.7578 231.208 54.7578 229.984C54.7578 228.75 54.8854 227.695 55.1406 226.82C55.401 225.94 55.8229 225.266 56.4062 224.797C56.9896 224.328 57.7682 224.094 58.7422 224.094C59.6536 224.094 60.4036 224.328 60.9922 224.797C61.5859 225.26 62.026 225.932 62.3125 226.812C62.599 227.688 62.7422 228.745 62.7422 229.984ZM57.1562 229.984C57.1562 230.854 57.2031 231.581 57.2969 232.164C57.3958 232.742 57.5599 233.177 57.7891 233.469C58.0182 233.76 58.3359 233.906 58.7422 233.906C59.1432 233.906 59.4583 233.763 59.6875 233.477C59.9219 233.185 60.0885 232.75 60.1875 232.172C60.2865 231.589 60.3359 230.859 60.3359 229.984C60.3359 229.115 60.2865 228.388 60.1875 227.805C60.0885 227.221 59.9219 226.784 59.6875 226.492C59.4583 226.195 59.1432 226.047 58.7422 226.047C58.3359 226.047 58.0182 226.195 57.7891 226.492C57.5599 226.784 57.3958 227.221 57.2969 227.805C57.2031 228.388 57.1562 229.115 57.1562 229.984ZM71.8984 229.984C71.8984 230.906 71.8255 231.729 71.6797 232.453C71.5391 233.177 71.3099 233.792 70.9922 234.297C70.6797 234.802 70.2682 235.188 69.7578 235.453C69.2474 235.719 68.6276 235.852 67.8984 235.852C66.9818 235.852 66.2292 235.62 65.6406 235.156C65.0521 234.688 64.6172 234.016 64.3359 233.141C64.0547 232.26 63.9141 231.208 63.9141 229.984C63.9141 228.75 64.0417 227.695 64.2969 226.82C64.5573 225.94 64.9792 225.266 65.5625 224.797C66.1458 224.328 66.9245 224.094 67.8984 224.094C68.8099 224.094 69.5599 224.328 70.1484 224.797C70.7422 225.26 71.1823 225.932 71.4688 226.812C71.7552 227.688 71.8984 228.745 71.8984 229.984ZM66.3125 229.984C66.3125 230.854 66.3594 231.581 66.4531 232.164C66.5521 232.742 66.7161 233.177 66.9453 233.469C67.1745 233.76 67.4922 233.906 67.8984 233.906C68.2995 233.906 68.6146 233.763 68.8438 233.477C69.0781 233.185 69.2448 232.75 69.3438 232.172C69.4427 231.589 69.4922 230.859 69.4922 229.984C69.4922 229.115 69.4427 228.388 69.3438 227.805C69.2448 227.221 69.0781 226.784 68.8438 226.492C68.6146 226.195 68.2995 226.047 67.8984 226.047C67.4922 226.047 67.1745 226.195 66.9453 226.492C66.7161 226.784 66.5521 227.221 66.4531 227.805C66.3594 228.388 66.3125 229.115 66.3125 229.984ZM79.0234 224.273L74.7656 235.695H72.6016L76.8594 224.273H79.0234ZM90.0156 229.875C90.0156 231.161 89.7682 232.237 89.2734 233.102C88.7839 233.961 88.0729 234.609 87.1406 235.047C86.2083 235.479 85.0859 235.695 83.7734 235.695H80.5391V224.273H84.125C85.3229 224.273 86.362 224.487 87.2422 224.914C88.1224 225.336 88.8047 225.964 89.2891 226.797C89.7734 227.625 90.0156 228.651 90.0156 229.875ZM87.5 229.938C87.5 229.094 87.375 228.401 87.125 227.859C86.8802 227.312 86.5156 226.909 86.0312 226.648C85.5521 226.388 84.9583 226.258 84.25 226.258H82.9609V233.695H84C85.1823 233.695 86.0599 233.38 86.6328 232.75C87.2109 232.12 87.5 231.182 87.5 229.938ZM95.7734 226.781C96.9453 226.781 97.8438 227.036 98.4688 227.547C99.0938 228.057 99.4062 228.833 99.4062 229.875V235.695H97.7422L97.2812 234.508H97.2188C96.9688 234.82 96.7135 235.076 96.4531 235.273C96.1927 235.471 95.8932 235.617 95.5547 235.711C95.2161 235.805 94.8047 235.852 94.3203 235.852C93.8047 235.852 93.3411 235.753 92.9297 235.555C92.5234 235.357 92.2031 235.055 91.9688 234.648C91.7344 234.237 91.6172 233.716 91.6172 233.086C91.6172 232.159 91.9427 231.477 92.5938 231.039C93.2448 230.596 94.2214 230.352 95.5234 230.305L97.0391 230.258V229.875C97.0391 229.417 96.9193 229.081 96.6797 228.867C96.4401 228.654 96.1068 228.547 95.6797 228.547C95.2578 228.547 94.8438 228.607 94.4375 228.727C94.0312 228.846 93.625 228.997 93.2188 229.18L92.4297 227.57C92.8932 227.326 93.4115 227.133 93.9844 226.992C94.5625 226.852 95.1589 226.781 95.7734 226.781ZM97.0391 231.648L96.1172 231.68C95.3464 231.701 94.8099 231.839 94.5078 232.094C94.2109 232.349 94.0625 232.685 94.0625 233.102C94.0625 233.466 94.1693 233.727 94.3828 233.883C94.5964 234.034 94.875 234.109 95.2188 234.109C95.7292 234.109 96.1589 233.958 96.5078 233.656C96.862 233.354 97.0391 232.924 97.0391 232.367V231.648ZM100.617 226.961H103.227L104.875 231.875C104.927 232.031 104.971 232.19 105.008 232.352C105.044 232.513 105.076 232.68 105.102 232.852C105.128 233.023 105.148 233.203 105.164 233.391H105.211C105.242 233.109 105.284 232.846 105.336 232.602C105.393 232.357 105.464 232.115 105.547 231.875L107.164 226.961H109.719L106.023 236.812C105.799 237.417 105.508 237.919 105.148 238.32C104.789 238.727 104.375 239.031 103.906 239.234C103.443 239.438 102.932 239.539 102.375 239.539C102.104 239.539 101.87 239.523 101.672 239.492C101.474 239.466 101.305 239.438 101.164 239.406V237.516C101.273 237.542 101.411 237.565 101.578 237.586C101.745 237.607 101.919 237.617 102.102 237.617C102.435 237.617 102.721 237.547 102.961 237.406C103.201 237.266 103.401 237.076 103.562 236.836C103.724 236.602 103.852 236.344 103.945 236.062L104.086 235.633L100.617 226.961Z" fill="#007643"/>
<path d="M17.6577 242.536C17.2244 242.536 16.8341 242.611 16.4868 242.761C16.1431 242.908 15.8494 243.123 15.606 243.406C15.366 243.685 15.1816 244.023 15.0527 244.421C14.9238 244.818 14.8594 245.266 14.8594 245.764C14.8594 246.423 14.9614 246.995 15.1655 247.482C15.3732 247.966 15.6812 248.34 16.0894 248.605C16.5011 248.87 17.015 249.002 17.6309 249.002C17.9818 249.002 18.3112 248.974 18.6191 248.917C18.9307 248.856 19.2332 248.78 19.5269 248.691V249.486C19.2404 249.593 18.9396 249.672 18.6245 249.722C18.3094 249.776 17.9352 249.803 17.502 249.803C16.7035 249.803 16.0356 249.638 15.4985 249.309C14.965 248.976 14.564 248.507 14.2954 247.901C14.0304 247.296 13.8979 246.582 13.8979 245.758C13.8979 245.164 13.9803 244.621 14.145 244.131C14.3133 243.637 14.5568 243.211 14.8755 242.853C15.1978 242.494 15.5916 242.219 16.0571 242.025C16.5262 241.828 17.0633 241.73 17.6685 241.73C18.0659 241.73 18.4491 241.769 18.8179 241.848C19.1867 241.927 19.5197 242.04 19.8169 242.187L19.4517 242.96C19.201 242.845 18.9253 242.747 18.6245 242.665C18.3273 242.579 18.005 242.536 17.6577 242.536ZM26.1709 246.741C26.1709 247.225 26.1082 247.656 25.9829 248.036C25.8576 248.415 25.6768 248.736 25.4404 248.997C25.2041 249.258 24.9176 249.459 24.5811 249.599C24.248 249.735 23.8703 249.803 23.4478 249.803C23.0539 249.803 22.6922 249.735 22.3628 249.599C22.0369 249.459 21.7541 249.258 21.5142 248.997C21.2778 248.736 21.0934 248.415 20.9609 248.036C20.832 247.656 20.7676 247.225 20.7676 246.741C20.7676 246.097 20.8768 245.549 21.0952 245.098C21.3136 244.643 21.6252 244.297 22.0298 244.061C22.438 243.821 22.9232 243.701 23.4854 243.701C24.0225 243.701 24.4915 243.821 24.8926 244.061C25.2972 244.301 25.6105 244.648 25.8325 245.103C26.0581 245.554 26.1709 246.1 26.1709 246.741ZM21.6914 246.741C21.6914 247.214 21.7541 247.624 21.8794 247.971C22.0047 248.319 22.1981 248.587 22.4595 248.777C22.7209 248.967 23.0575 249.062 23.4692 249.062C23.8774 249.062 24.2122 248.967 24.4736 248.777C24.7386 248.587 24.9338 248.319 25.0591 247.971C25.1844 247.624 25.2471 247.214 25.2471 246.741C25.2471 246.272 25.1844 245.868 25.0591 245.527C24.9338 245.184 24.7404 244.919 24.479 244.732C24.2176 244.546 23.8792 244.453 23.4639 244.453C22.8516 244.453 22.4022 244.655 22.1157 245.06C21.8328 245.465 21.6914 246.025 21.6914 246.741ZM30.5 243.701C31.1982 243.701 31.7264 243.873 32.0845 244.217C32.4425 244.557 32.6216 245.105 32.6216 245.86V249.695H31.7407V245.919C31.7407 245.429 31.6279 245.062 31.4023 244.818C31.1803 244.575 30.8384 244.453 30.3765 244.453C29.7248 244.453 29.2664 244.638 29.0015 245.006C28.7365 245.375 28.604 245.91 28.604 246.612V249.695H27.7124V243.809H28.4321L28.5664 244.657H28.6147C28.7401 244.45 28.8994 244.276 29.0928 244.136C29.2861 243.993 29.5028 243.886 29.7427 243.814C29.9826 243.739 30.235 243.701 30.5 243.701ZM38.2666 248.084C38.2666 248.46 38.1717 248.777 37.9819 249.035C37.7957 249.289 37.5272 249.48 37.1763 249.609C36.8289 249.738 36.4136 249.803 35.9302 249.803C35.5184 249.803 35.1621 249.771 34.8613 249.706C34.5605 249.642 34.2974 249.55 34.0718 249.432V248.61C34.3117 248.729 34.5981 248.836 34.9312 248.933C35.2642 249.029 35.6043 249.078 35.9517 249.078C36.4601 249.078 36.8289 248.995 37.0581 248.831C37.2873 248.666 37.4019 248.442 37.4019 248.159C37.4019 247.998 37.3553 247.857 37.2622 247.735C37.1727 247.61 37.0205 247.49 36.8057 247.375C36.5908 247.257 36.2936 247.128 35.9141 246.988C35.5381 246.845 35.2122 246.704 34.9365 246.564C34.6644 246.421 34.4531 246.247 34.3027 246.043C34.1559 245.839 34.0825 245.574 34.0825 245.248C34.0825 244.75 34.283 244.369 34.6841 244.104C35.0887 243.835 35.6187 243.701 36.2739 243.701C36.6284 243.701 36.9596 243.737 37.2676 243.809C37.5791 243.877 37.8691 243.97 38.1377 244.088L37.8369 244.802C37.5934 244.698 37.3338 244.611 37.0581 244.539C36.7824 244.467 36.5013 244.432 36.2148 244.432C35.8031 244.432 35.4862 244.5 35.2642 244.636C35.0457 244.772 34.9365 244.958 34.9365 245.194C34.9365 245.377 34.9867 245.527 35.0869 245.646C35.1908 245.764 35.3555 245.875 35.5811 245.979C35.8066 246.082 36.1038 246.204 36.4727 246.344C36.8415 246.48 37.1602 246.621 37.4287 246.768C37.6973 246.911 37.9032 247.087 38.0464 247.294C38.1932 247.499 38.2666 247.762 38.2666 248.084ZM44.5615 243.809V249.695H43.8311L43.7021 248.868H43.6538C43.5321 249.072 43.3745 249.244 43.1812 249.384C42.9878 249.523 42.7694 249.627 42.5259 249.695C42.286 249.767 42.0299 249.803 41.7578 249.803C41.2923 249.803 40.902 249.728 40.5869 249.577C40.2718 249.427 40.0337 249.194 39.8726 248.879C39.715 248.564 39.6362 248.159 39.6362 247.665V243.809H40.5386V247.601C40.5386 248.091 40.6496 248.458 40.8716 248.702C41.0936 248.942 41.432 249.062 41.8867 249.062C42.3236 249.062 42.6709 248.979 42.9287 248.814C43.1901 248.65 43.3781 248.408 43.4927 248.089C43.6073 247.767 43.6646 247.373 43.6646 246.908V243.809H44.5615ZM52.8384 243.701C53.4865 243.701 53.9753 243.871 54.3047 244.211C54.6341 244.548 54.7988 245.09 54.7988 245.839V249.695H53.918V245.882C53.918 245.406 53.8141 245.049 53.6064 244.813C53.4023 244.573 53.098 244.453 52.6934 244.453C52.124 244.453 51.7104 244.618 51.4526 244.947C51.1948 245.277 51.0659 245.762 51.0659 246.403V249.695H50.1797V245.882C50.1797 245.563 50.1331 245.298 50.04 245.087C49.9505 244.876 49.8145 244.718 49.6318 244.614C49.4528 244.507 49.2254 244.453 48.9497 244.453C48.5594 244.453 48.2461 244.534 48.0098 244.695C47.7734 244.856 47.6016 245.096 47.4941 245.415C47.3903 245.73 47.3384 246.118 47.3384 246.58V249.695H46.4468V243.809H47.1665L47.3008 244.641H47.3491C47.4673 244.437 47.6159 244.265 47.7949 244.125C47.974 243.986 48.1745 243.88 48.3965 243.809C48.6185 243.737 48.8548 243.701 49.1055 243.701C49.5531 243.701 49.9272 243.785 50.228 243.954C50.5324 244.118 50.7526 244.371 50.8887 244.711H50.937C51.1304 244.371 51.3953 244.118 51.7319 243.954C52.0685 243.785 52.4373 243.701 52.8384 243.701ZM58.897 243.701C59.3983 243.701 59.828 243.812 60.186 244.034C60.5441 244.256 60.818 244.568 61.0078 244.969C61.1976 245.366 61.2925 245.832 61.2925 246.365V246.918H57.2266C57.2373 247.61 57.4092 248.136 57.7422 248.498C58.0752 248.859 58.5443 249.04 59.1494 249.04C59.5218 249.04 59.8512 249.006 60.1377 248.938C60.4242 248.87 60.7214 248.77 61.0293 248.637V249.421C60.7321 249.554 60.4367 249.651 60.1431 249.711C59.853 249.772 59.5093 249.803 59.1118 249.803C58.5461 249.803 58.0519 249.688 57.6294 249.459C57.2104 249.226 56.8846 248.886 56.6519 248.438C56.4191 247.991 56.3027 247.443 56.3027 246.795C56.3027 246.161 56.4084 245.613 56.6196 245.151C56.8345 244.686 57.1353 244.328 57.522 244.077C57.9123 243.826 58.3706 243.701 58.897 243.701ZM58.8862 244.432C58.41 244.432 58.0304 244.587 57.7476 244.899C57.4647 245.21 57.2964 245.646 57.2427 246.204H60.3579C60.3543 245.853 60.2988 245.545 60.1914 245.28C60.0876 245.012 59.9282 244.804 59.7134 244.657C59.4985 244.507 59.2228 244.432 58.8862 244.432ZM65.4819 243.701C65.6001 243.701 65.7236 243.708 65.8525 243.723C65.9814 243.733 66.096 243.75 66.1963 243.771L66.0835 244.598C65.9868 244.573 65.8794 244.553 65.7612 244.539C65.6431 244.525 65.5321 244.518 65.4282 244.518C65.1919 244.518 64.9681 244.566 64.7568 244.663C64.5492 244.756 64.3665 244.892 64.209 245.071C64.0514 245.246 63.9279 245.459 63.8384 245.71C63.7489 245.957 63.7041 246.233 63.7041 246.537V249.695H62.8071V243.809H63.5483L63.645 244.894H63.6826C63.8044 244.675 63.9512 244.476 64.123 244.297C64.2949 244.115 64.4937 243.97 64.7192 243.862C64.9484 243.755 65.2026 243.701 65.4819 243.701ZM72.3516 241.843C73.3649 241.843 74.1043 242.042 74.5698 242.439C75.0389 242.833 75.2734 243.399 75.2734 244.136C75.2734 244.469 75.2179 244.786 75.1069 245.087C74.9995 245.384 74.8241 245.647 74.5806 245.876C74.3371 246.102 74.0166 246.281 73.6191 246.414C73.2253 246.542 72.7419 246.607 72.1689 246.607H71.2129V249.695H70.2998V241.843H72.3516ZM72.2656 242.622H71.2129V245.823H72.0669C72.5682 245.823 72.9854 245.769 73.3184 245.662C73.6549 245.554 73.9074 245.381 74.0757 245.141C74.244 244.897 74.3281 244.575 74.3281 244.174C74.3281 243.651 74.1616 243.263 73.8286 243.008C73.4956 242.75 72.9746 242.622 72.2656 242.622ZM79.4575 243.701C79.5757 243.701 79.6992 243.708 79.8281 243.723C79.957 243.733 80.0716 243.75 80.1719 243.771L80.0591 244.598C79.9624 244.573 79.855 244.553 79.7368 244.539C79.6187 244.525 79.5076 244.518 79.4038 244.518C79.1675 244.518 78.9437 244.566 78.7324 244.663C78.5247 244.756 78.3421 244.892 78.1846 245.071C78.027 245.246 77.9035 245.459 77.814 245.71C77.7244 245.957 77.6797 246.233 77.6797 246.537V249.695H76.7827V243.809H77.5239L77.6206 244.894H77.6582C77.7799 244.675 77.9268 244.476 78.0986 244.297C78.2705 244.115 78.4692 243.97 78.6948 243.862C78.924 243.755 79.1782 243.701 79.4575 243.701ZM82.1753 243.809V249.695H81.2837V243.809H82.1753ZM81.7402 241.606C81.887 241.606 82.0124 241.655 82.1162 241.751C82.2236 241.845 82.2773 241.991 82.2773 242.192C82.2773 242.389 82.2236 242.536 82.1162 242.632C82.0124 242.729 81.887 242.777 81.7402 242.777C81.5863 242.777 81.4574 242.729 81.3535 242.632C81.2533 242.536 81.2031 242.389 81.2031 242.192C81.2031 241.991 81.2533 241.845 81.3535 241.751C81.4574 241.655 81.5863 241.606 81.7402 241.606ZM86.4238 249.803C85.8939 249.803 85.4266 249.694 85.022 249.475C84.6174 249.257 84.3022 248.924 84.0767 248.476C83.8511 248.028 83.7383 247.465 83.7383 246.784C83.7383 246.072 83.8564 245.49 84.0928 245.039C84.3327 244.584 84.6621 244.247 85.0811 244.029C85.5 243.81 85.9762 243.701 86.5098 243.701C86.8034 243.701 87.0863 243.732 87.3584 243.792C87.6341 243.85 87.8597 243.923 88.0352 244.013L87.7666 244.759C87.5876 244.688 87.3799 244.623 87.1436 244.566C86.9108 244.509 86.6924 244.48 86.4883 244.48C86.0801 244.48 85.7399 244.568 85.4678 244.743C85.1992 244.919 84.9969 245.176 84.8608 245.517C84.7284 245.857 84.6621 246.276 84.6621 246.773C84.6621 247.25 84.7266 247.656 84.8555 247.993C84.988 248.329 85.1831 248.587 85.4409 248.766C85.7023 248.942 86.0282 249.029 86.4185 249.029C86.73 249.029 87.0111 248.997 87.2617 248.933C87.5124 248.865 87.7397 248.786 87.9438 248.696V249.491C87.7469 249.591 87.5267 249.668 87.2832 249.722C87.0433 249.776 86.7568 249.803 86.4238 249.803ZM91.6069 243.701C92.1082 243.701 92.5379 243.812 92.896 244.034C93.2541 244.256 93.528 244.568 93.7178 244.969C93.9076 245.366 94.0024 245.832 94.0024 246.365V246.918H89.9365C89.9473 247.61 90.1191 248.136 90.4521 248.498C90.7852 248.859 91.2542 249.04 91.8594 249.04C92.2318 249.04 92.5612 249.006 92.8477 248.938C93.1341 248.87 93.4313 248.77 93.7393 248.637V249.421C93.4421 249.554 93.1466 249.651 92.853 249.711C92.563 249.772 92.2192 249.803 91.8218 249.803C91.256 249.803 90.7619 249.688 90.3394 249.459C89.9204 249.226 89.5946 248.886 89.3618 248.438C89.1291 247.991 89.0127 247.443 89.0127 246.795C89.0127 246.161 89.1183 245.613 89.3296 245.151C89.5444 244.686 89.8452 244.328 90.2319 244.077C90.6222 243.826 91.0806 243.701 91.6069 243.701ZM91.5962 244.432C91.12 244.432 90.7404 244.587 90.4575 244.899C90.1746 245.21 90.0063 245.646 89.9526 246.204H93.0679C93.0643 245.853 93.0088 245.545 92.9014 245.28C92.7975 245.012 92.6382 244.804 92.4233 244.657C92.2085 244.507 91.9328 244.432 91.5962 244.432Z" fill="#303030"/>
<path d="M30.5044 137.131C30.5044 137.711 30.3288 138.204 29.9775 138.61C29.6263 139.017 29.1333 139.296 28.4985 139.448V139.486C29.2476 139.579 29.8146 139.808 30.1997 140.172C30.5848 140.532 30.7773 141.018 30.7773 141.632C30.7773 142.525 30.4536 143.221 29.8062 143.72C29.1587 144.215 28.234 144.463 27.0322 144.463C26.0251 144.463 25.1322 144.296 24.3535 143.961V142.292C24.7132 142.474 25.1089 142.622 25.5405 142.736C25.9722 142.851 26.3996 142.908 26.8228 142.908C27.4702 142.908 27.9484 142.798 28.2573 142.578C28.5662 142.358 28.7207 142.004 28.7207 141.518C28.7207 141.082 28.543 140.773 28.1875 140.591C27.832 140.409 27.265 140.318 26.4863 140.318H25.7817V138.813H26.499C27.2184 138.813 27.7432 138.72 28.0732 138.534C28.4076 138.344 28.5747 138.02 28.5747 137.563C28.5747 136.861 28.1346 136.509 27.2544 136.509C26.9497 136.509 26.6387 136.56 26.3213 136.662C26.0081 136.763 25.659 136.939 25.2739 137.188L24.3662 135.836C25.2126 135.227 26.2218 134.922 27.394 134.922C28.3547 134.922 29.1121 135.117 29.6665 135.506C30.2251 135.896 30.5044 136.437 30.5044 137.131ZM38.2422 139.696C38.2422 141.317 37.9756 142.516 37.4424 143.295C36.9134 144.074 36.0967 144.463 34.9922 144.463C33.9215 144.463 33.1133 144.061 32.5674 143.257C32.0257 142.453 31.7549 141.266 31.7549 139.696C31.7549 138.058 32.0194 136.852 32.5483 136.078C33.0773 135.299 33.8919 134.91 34.9922 134.91C36.0628 134.91 36.8711 135.316 37.417 136.128C37.9671 136.941 38.2422 138.13 38.2422 139.696ZM33.7036 139.696C33.7036 140.834 33.8009 141.651 33.9956 142.146C34.1945 142.637 34.5267 142.882 34.9922 142.882C35.4492 142.882 35.7793 142.633 35.9824 142.133C36.1855 141.634 36.2871 140.821 36.2871 139.696C36.2871 138.557 36.1834 137.741 35.9761 137.246C35.7729 136.746 35.445 136.497 34.9922 136.497C34.5309 136.497 34.2008 136.746 34.002 137.246C33.8031 137.741 33.7036 138.557 33.7036 139.696ZM45.6689 139.696C45.6689 141.317 45.4023 142.516 44.8691 143.295C44.3402 144.074 43.5234 144.463 42.4189 144.463C41.3483 144.463 40.54 144.061 39.9941 143.257C39.4525 142.453 39.1816 141.266 39.1816 139.696C39.1816 138.058 39.4461 136.852 39.9751 136.078C40.5041 135.299 41.3187 134.91 42.4189 134.91C43.4896 134.91 44.2979 135.316 44.8438 136.128C45.3939 136.941 45.6689 138.13 45.6689 139.696ZM41.1304 139.696C41.1304 140.834 41.2277 141.651 41.4224 142.146C41.6213 142.637 41.9535 142.882 42.4189 142.882C42.876 142.882 43.2061 142.633 43.4092 142.133C43.6123 141.634 43.7139 140.821 43.7139 139.696C43.7139 138.557 43.6102 137.741 43.4028 137.246C43.1997 136.746 42.8717 136.497 42.4189 136.497C41.9577 136.497 41.6276 136.746 41.4287 137.246C41.2298 137.741 41.1304 138.557 41.1304 139.696ZM54.6128 144.336L52.3784 137.055H52.3213C52.4017 138.536 52.4419 139.524 52.4419 140.02V144.336H50.6836V135.056H53.3623L55.5586 142.152H55.5967L57.9263 135.056H60.605V144.336H58.7705V139.943C58.7705 139.736 58.7726 139.497 58.7769 139.226C58.7853 138.955 58.8149 138.236 58.8657 137.068H58.8086L56.4155 144.336H54.6128ZM62.7124 135.405C62.7124 134.774 63.0636 134.459 63.7661 134.459C64.4686 134.459 64.8198 134.774 64.8198 135.405C64.8198 135.705 64.731 135.94 64.5532 136.109C64.3797 136.274 64.1174 136.357 63.7661 136.357C63.0636 136.357 62.7124 136.04 62.7124 135.405ZM64.731 144.336H62.7949V137.239H64.731V144.336ZM73.3193 144.336H71.3833V140.191C71.3833 139.679 71.2923 139.296 71.1104 139.042C70.9284 138.784 70.6385 138.655 70.2407 138.655C69.6991 138.655 69.3076 138.837 69.0664 139.201C68.8252 139.56 68.7046 140.159 68.7046 140.997V144.336H66.7686V137.239H68.2476L68.5078 138.147H68.6157C68.8315 137.804 69.1278 137.546 69.5044 137.373C69.8853 137.195 70.3169 137.106 70.7993 137.106C71.6245 137.106 72.2508 137.33 72.6782 137.779C73.1056 138.223 73.3193 138.866 73.3193 139.708V144.336ZM80.2637 142.229C80.2637 142.956 80.0098 143.511 79.502 143.892C78.9984 144.272 78.243 144.463 77.2358 144.463C76.7196 144.463 76.2795 144.427 75.9155 144.355C75.5516 144.287 75.2109 144.186 74.8936 144.05V142.451C75.2533 142.62 75.6574 142.762 76.106 142.876C76.5588 142.99 76.9565 143.047 77.2993 143.047C78.0018 143.047 78.353 142.844 78.353 142.438C78.353 142.286 78.3065 142.163 78.2134 142.07C78.1203 141.972 77.9595 141.865 77.731 141.746C77.5024 141.623 77.1978 141.482 76.8169 141.321C76.271 141.092 75.869 140.881 75.6108 140.686C75.3569 140.491 75.1707 140.269 75.0522 140.02C74.938 139.766 74.8809 139.455 74.8809 139.086C74.8809 138.456 75.1242 137.969 75.6108 137.626C76.1017 137.279 76.7957 137.106 77.6929 137.106C78.5477 137.106 79.3792 137.292 80.1875 137.665L79.6035 139.061C79.248 138.909 78.9159 138.784 78.6069 138.687C78.298 138.589 77.9827 138.541 77.6611 138.541C77.0898 138.541 76.8042 138.695 76.8042 139.004C76.8042 139.177 76.8952 139.328 77.0771 139.455C77.2633 139.582 77.6675 139.77 78.2896 140.02C78.8439 140.244 79.2502 140.453 79.5083 140.648C79.7664 140.843 79.9569 141.067 80.0796 141.321C80.2023 141.575 80.2637 141.877 80.2637 142.229Z" fill="black"/>
<path d="M40.5942 154.399C40.5942 155.004 40.5173 155.556 40.3633 156.053C40.2129 156.547 39.9855 156.973 39.6812 157.332C39.3768 157.686 38.9954 157.96 38.5371 158.153C38.0788 158.347 37.5417 158.443 36.9258 158.443C36.2992 158.443 35.7549 158.347 35.293 158.153C34.8346 157.96 34.4533 157.684 34.1489 157.326C33.8481 156.968 33.6226 156.54 33.4722 156.042C33.3218 155.545 33.2466 154.993 33.2466 154.388C33.2466 153.579 33.3791 152.874 33.644 152.272C33.9126 151.667 34.319 151.198 34.8633 150.865C35.4111 150.528 36.1022 150.36 36.9365 150.36C37.7529 150.36 38.4315 150.526 38.9722 150.859C39.5129 151.192 39.9175 151.661 40.186 152.267C40.4582 152.868 40.5942 153.579 40.5942 154.399ZM34.6001 154.399C34.6001 155.004 34.6825 155.529 34.8472 155.973C35.0119 156.413 35.2643 156.753 35.6045 156.993C35.9482 157.229 36.3887 157.348 36.9258 157.348C37.4665 157.348 37.9069 157.229 38.2471 156.993C38.5872 156.753 38.8379 156.413 38.999 155.973C39.1602 155.529 39.2407 155.004 39.2407 154.399C39.2407 153.479 39.0563 152.759 38.6875 152.24C38.3223 151.717 37.7386 151.456 36.9365 151.456C36.3994 151.456 35.9572 151.574 35.6099 151.81C35.2661 152.046 35.0119 152.385 34.8472 152.825C34.6825 153.262 34.6001 153.787 34.6001 154.399ZM48.8335 158.336H47.249L43.4033 152.068H43.355C43.3693 152.279 43.3818 152.503 43.3926 152.739C43.4069 152.976 43.4176 153.219 43.4248 153.47C43.4355 153.72 43.4445 153.975 43.4517 154.232V158.336H42.2808V150.483H43.8545L47.6948 156.708H47.7324C47.7253 156.526 47.7163 156.316 47.7056 156.08C47.6948 155.844 47.6841 155.6 47.6733 155.35C47.6662 155.095 47.6608 154.85 47.6572 154.614V150.483H48.8335V158.336ZM60.3062 158.336H58.7217L54.876 152.068H54.8276C54.842 152.279 54.8545 152.503 54.8652 152.739C54.8796 152.976 54.8903 153.219 54.8975 153.47C54.9082 153.72 54.9172 153.975 54.9243 154.232V158.336H53.7534V150.483H55.3271L59.1675 156.708H59.2051C59.1979 156.526 59.189 156.316 59.1782 156.08C59.1675 155.844 59.1567 155.6 59.146 155.35C59.1388 155.095 59.1335 154.85 59.1299 154.614V150.483H60.3062V158.336ZM64.6084 152.277C65.1383 152.277 65.5931 152.387 65.9727 152.605C66.3522 152.823 66.644 153.133 66.8481 153.534C67.0522 153.935 67.1543 154.415 67.1543 154.974V155.65H63.1851C63.1994 156.227 63.3534 156.671 63.647 156.982C63.9442 157.294 64.3595 157.45 64.8931 157.45C65.2726 157.45 65.6128 157.414 65.9136 157.342C66.2179 157.267 66.5312 157.158 66.8535 157.015V158.041C66.5563 158.18 66.2537 158.282 65.9458 158.347C65.6379 158.411 65.269 158.443 64.8394 158.443C64.2557 158.443 63.7419 158.331 63.2979 158.105C62.8574 157.876 62.5119 157.536 62.2612 157.084C62.0142 156.633 61.8906 156.073 61.8906 155.403C61.8906 154.737 62.0034 154.172 62.229 153.706C62.4546 153.241 62.7715 152.886 63.1797 152.643C63.5879 152.399 64.0641 152.277 64.6084 152.277ZM64.6084 153.228C64.2109 153.228 63.8887 153.357 63.6416 153.615C63.3981 153.873 63.2549 154.25 63.2119 154.748H65.9189C65.9154 154.451 65.8652 154.188 65.7686 153.958C65.6755 153.729 65.5322 153.55 65.3389 153.421C65.1491 153.292 64.9056 153.228 64.6084 153.228ZM70.7905 157.423C70.9552 157.423 71.1182 157.409 71.2793 157.38C71.4404 157.348 71.5872 157.31 71.7197 157.267V158.223C71.5801 158.284 71.3993 158.336 71.1772 158.379C70.9552 158.422 70.7243 158.443 70.4844 158.443C70.1478 158.443 69.8452 158.388 69.5767 158.277C69.3081 158.162 69.0951 157.967 68.9375 157.691C68.7799 157.416 68.7012 157.034 68.7012 156.547V153.352H67.8901V152.788L68.7603 152.342L69.1738 151.069H69.9688V152.39H71.6714V153.352H69.9688V156.531C69.9688 156.832 70.0439 157.056 70.1943 157.203C70.3447 157.349 70.5435 157.423 70.7905 157.423Z" fill="#303030"/>
<path d="M112.49 145.469H110.529V140.099L110.548 139.216L110.58 138.251C110.254 138.577 110.027 138.791 109.9 138.893L108.834 139.75L107.888 138.569L110.878 136.188H112.49V145.469ZM121.504 140.829C121.504 142.449 121.237 143.649 120.704 144.428C120.175 145.206 119.358 145.596 118.254 145.596C117.183 145.596 116.375 145.194 115.829 144.39C115.287 143.586 115.017 142.399 115.017 140.829C115.017 139.191 115.281 137.985 115.81 137.21C116.339 136.432 117.154 136.042 118.254 136.042C119.325 136.042 120.133 136.449 120.679 137.261C121.229 138.074 121.504 139.263 121.504 140.829ZM116.965 140.829C116.965 141.967 117.063 142.784 117.257 143.279C117.456 143.77 117.788 144.015 118.254 144.015C118.711 144.015 119.041 143.765 119.244 143.266C119.447 142.767 119.549 141.954 119.549 140.829C119.549 139.69 119.445 138.874 119.238 138.378C119.035 137.879 118.707 137.629 118.254 137.629C117.793 137.629 117.463 137.879 117.264 138.378C117.065 138.874 116.965 139.69 116.965 140.829ZM128.931 140.829C128.931 142.449 128.664 143.649 128.131 144.428C127.602 145.206 126.785 145.596 125.681 145.596C124.61 145.596 123.802 145.194 123.256 144.39C122.714 143.586 122.443 142.399 122.443 140.829C122.443 139.191 122.708 137.985 123.237 137.21C123.766 136.432 124.58 136.042 125.681 136.042C126.751 136.042 127.56 136.449 128.105 137.261C128.656 138.074 128.931 139.263 128.931 140.829ZM124.392 140.829C124.392 141.967 124.489 142.784 124.684 143.279C124.883 143.77 125.215 144.015 125.681 144.015C126.138 144.015 126.468 143.765 126.671 143.266C126.874 142.767 126.976 141.954 126.976 140.829C126.976 139.69 126.872 138.874 126.665 138.378C126.461 137.879 126.133 137.629 125.681 137.629C125.219 137.629 124.889 137.879 124.69 138.378C124.492 138.874 124.392 139.69 124.392 140.829ZM137.875 145.469L135.64 138.188H135.583C135.663 139.669 135.704 140.657 135.704 141.152V145.469H133.945V136.188H136.624L138.82 143.285H138.858L141.188 136.188H143.867V145.469H142.032V141.076C142.032 140.869 142.034 140.63 142.039 140.359C142.047 140.088 142.077 139.369 142.127 138.201H142.07L139.677 145.469H137.875ZM145.974 136.538C145.974 135.907 146.325 135.592 147.028 135.592C147.73 135.592 148.082 135.907 148.082 136.538C148.082 136.838 147.993 137.073 147.815 137.242C147.641 137.407 147.379 137.49 147.028 137.49C146.325 137.49 145.974 137.172 145.974 136.538ZM147.993 145.469H146.057V138.372H147.993V145.469ZM156.581 145.469H154.645V141.324C154.645 140.812 154.554 140.429 154.372 140.175C154.19 139.917 153.9 139.788 153.502 139.788C152.961 139.788 152.569 139.97 152.328 140.333C152.087 140.693 151.966 141.292 151.966 142.13V145.469H150.03V138.372H151.509L151.77 139.28H151.877C152.093 138.937 152.389 138.679 152.766 138.505C153.147 138.328 153.579 138.239 154.061 138.239C154.886 138.239 155.513 138.463 155.94 138.912C156.367 139.356 156.581 139.999 156.581 140.841V145.469ZM163.525 143.361C163.525 144.089 163.271 144.644 162.764 145.024C162.26 145.405 161.505 145.596 160.498 145.596C159.981 145.596 159.541 145.56 159.177 145.488C158.813 145.42 158.473 145.319 158.155 145.183V143.583C158.515 143.753 158.919 143.895 159.368 144.009C159.82 144.123 160.218 144.18 160.561 144.18C161.264 144.18 161.615 143.977 161.615 143.571C161.615 143.418 161.568 143.296 161.475 143.203C161.382 143.105 161.221 142.997 160.993 142.879C160.764 142.756 160.459 142.614 160.079 142.454C159.533 142.225 159.131 142.014 158.873 141.819C158.619 141.624 158.432 141.402 158.314 141.152C158.2 140.898 158.143 140.587 158.143 140.219C158.143 139.589 158.386 139.102 158.873 138.759C159.363 138.412 160.057 138.239 160.955 138.239C161.809 138.239 162.641 138.425 163.449 138.797L162.865 140.194C162.51 140.042 162.178 139.917 161.869 139.819C161.56 139.722 161.244 139.673 160.923 139.673C160.352 139.673 160.066 139.828 160.066 140.137C160.066 140.31 160.157 140.46 160.339 140.587C160.525 140.714 160.929 140.903 161.551 141.152C162.106 141.377 162.512 141.586 162.77 141.781C163.028 141.975 163.219 142.2 163.341 142.454C163.464 142.708 163.525 143.01 163.525 143.361Z" fill="black"/>
<path d="M122.298 155.532C122.298 156.137 122.221 156.688 122.067 157.186C121.917 157.68 121.69 158.106 121.385 158.464C121.081 158.819 120.7 159.093 120.241 159.286C119.783 159.479 119.246 159.576 118.63 159.576C118.003 159.576 117.459 159.479 116.997 159.286C116.539 159.093 116.157 158.817 115.853 158.459C115.552 158.101 115.327 157.673 115.176 157.175C115.026 156.678 114.951 156.126 114.951 155.521C114.951 154.712 115.083 154.006 115.348 153.405C115.617 152.8 116.023 152.331 116.567 151.998C117.115 151.661 117.806 151.493 118.641 151.493C119.457 151.493 120.136 151.659 120.676 151.992C121.217 152.325 121.622 152.794 121.89 153.399C122.162 154.001 122.298 154.712 122.298 155.532ZM116.304 155.532C116.304 156.137 116.387 156.661 116.551 157.105C116.716 157.546 116.968 157.886 117.309 158.126C117.652 158.362 118.093 158.48 118.63 158.48C119.171 158.48 119.611 158.362 119.951 158.126C120.291 157.886 120.542 157.546 120.703 157.105C120.864 156.661 120.945 156.137 120.945 155.532C120.945 154.611 120.76 153.892 120.392 153.373C120.026 152.85 119.443 152.588 118.641 152.588C118.104 152.588 117.661 152.707 117.314 152.943C116.97 153.179 116.716 153.518 116.551 153.958C116.387 154.395 116.304 154.919 116.304 155.532ZM125.263 159.469H123.985V151.616H128.421V152.701H125.263V155.15H128.217V156.23H125.263V159.469ZM131.128 159.469H129.85V151.616H134.287V152.701H131.128V155.15H134.083V156.23H131.128V159.469ZM145.125 159.469H143.541L139.695 153.201H139.647C139.661 153.412 139.674 153.636 139.685 153.872C139.699 154.108 139.71 154.352 139.717 154.603C139.728 154.853 139.736 155.107 139.744 155.365V159.469H138.573V151.616H140.146L143.987 157.841H144.024C144.017 157.659 144.008 157.449 143.998 157.213C143.987 156.977 143.976 156.733 143.965 156.482C143.958 156.228 143.953 155.983 143.949 155.747V151.616H145.125V159.469ZM149.428 153.41C149.958 153.41 150.412 153.519 150.792 153.738C151.172 153.956 151.463 154.266 151.667 154.667C151.872 155.068 151.974 155.548 151.974 156.106V156.783H148.004C148.019 157.36 148.173 157.804 148.466 158.115C148.764 158.427 149.179 158.583 149.712 158.583C150.092 158.583 150.432 158.547 150.733 158.475C151.037 158.4 151.351 158.291 151.673 158.147V159.173C151.376 159.313 151.073 159.415 150.765 159.479C150.457 159.544 150.088 159.576 149.659 159.576C149.075 159.576 148.561 159.463 148.117 159.238C147.677 159.009 147.331 158.668 147.081 158.217C146.833 157.766 146.71 157.206 146.71 156.536C146.71 155.87 146.823 155.304 147.048 154.839C147.274 154.373 147.591 154.019 147.999 153.775C148.407 153.532 148.883 153.41 149.428 153.41ZM149.428 154.361C149.03 154.361 148.708 154.49 148.461 154.748C148.217 155.005 148.074 155.383 148.031 155.881H150.738C150.735 155.584 150.685 155.32 150.588 155.091C150.495 154.862 150.352 154.683 150.158 154.554C149.968 154.425 149.725 154.361 149.428 154.361ZM155.61 158.556C155.775 158.556 155.938 158.541 156.099 158.513C156.26 158.48 156.407 158.443 156.539 158.4V159.356C156.399 159.417 156.219 159.469 155.997 159.512C155.775 159.555 155.544 159.576 155.304 159.576C154.967 159.576 154.665 159.521 154.396 159.41C154.127 159.295 153.914 159.1 153.757 158.824C153.599 158.549 153.521 158.167 153.521 157.68V154.484H152.709V153.92L153.58 153.475L153.993 152.202H154.788V153.523H156.491V154.484H154.788V157.664C154.788 157.965 154.863 158.189 155.014 158.335C155.164 158.482 155.363 158.556 155.61 158.556Z" fill="#303030"/>
<path d="M204.251 145.469H202.29V140.099L202.309 139.216L202.34 138.251C202.014 138.577 201.788 138.791 201.661 138.893L200.595 139.75L199.649 138.569L202.639 136.188H204.251V145.469ZM213.265 140.829C213.265 142.449 212.998 143.649 212.465 144.428C211.936 145.206 211.119 145.596 210.015 145.596C208.944 145.596 208.136 145.194 207.59 144.39C207.048 143.586 206.777 142.399 206.777 140.829C206.777 139.191 207.042 137.985 207.571 137.21C208.1 136.432 208.914 136.042 210.015 136.042C211.085 136.042 211.894 136.449 212.439 137.261C212.99 138.074 213.265 139.263 213.265 140.829ZM208.726 140.829C208.726 141.967 208.823 142.784 209.018 143.279C209.217 143.77 209.549 144.015 210.015 144.015C210.472 144.015 210.802 143.765 211.005 143.266C211.208 142.767 211.31 141.954 211.31 140.829C211.31 139.69 211.206 138.874 210.999 138.378C210.795 137.879 210.467 137.629 210.015 137.629C209.553 137.629 209.223 137.879 209.024 138.378C208.826 138.874 208.726 139.69 208.726 140.829ZM220.691 140.829C220.691 142.449 220.425 143.649 219.892 144.428C219.363 145.206 218.546 145.596 217.441 145.596C216.371 145.596 215.562 145.194 215.017 144.39C214.475 143.586 214.204 142.399 214.204 140.829C214.204 139.191 214.469 137.985 214.998 137.21C215.527 136.432 216.341 136.042 217.441 136.042C218.512 136.042 219.32 136.449 219.866 137.261C220.416 138.074 220.691 139.263 220.691 140.829ZM216.153 140.829C216.153 141.967 216.25 142.784 216.445 143.279C216.644 143.77 216.976 144.015 217.441 144.015C217.898 144.015 218.229 143.765 218.432 143.266C218.635 142.767 218.736 141.954 218.736 140.829C218.736 139.69 218.633 138.874 218.425 138.378C218.222 137.879 217.894 137.629 217.441 137.629C216.98 137.629 216.65 137.879 216.451 138.378C216.252 138.874 216.153 139.69 216.153 140.829ZM228.118 140.829C228.118 142.449 227.852 143.649 227.318 144.428C226.789 145.206 225.973 145.596 224.868 145.596C223.798 145.596 222.989 145.194 222.443 144.39C221.902 143.586 221.631 142.399 221.631 140.829C221.631 139.191 221.895 137.985 222.424 137.21C222.953 136.432 223.768 136.042 224.868 136.042C225.939 136.042 226.747 136.449 227.293 137.261C227.843 138.074 228.118 139.263 228.118 140.829ZM223.58 140.829C223.58 141.967 223.677 142.784 223.872 143.279C224.07 143.77 224.403 144.015 224.868 144.015C225.325 144.015 225.655 143.765 225.858 143.266C226.062 142.767 226.163 141.954 226.163 140.829C226.163 139.69 226.059 138.874 225.852 138.378C225.649 137.879 225.321 137.629 224.868 137.629C224.407 137.629 224.077 137.879 223.878 138.378C223.679 138.874 223.58 139.69 223.58 140.829Z" fill="black"/>
<path d="M208.181 157.331C208.181 157.797 208.066 158.198 207.837 158.534C207.611 158.871 207.285 159.129 206.859 159.308C206.437 159.487 205.932 159.576 205.345 159.576C205.058 159.576 204.784 159.56 204.523 159.528C204.262 159.496 204.014 159.449 203.782 159.388C203.553 159.324 203.343 159.247 203.153 159.157V157.943C203.472 158.083 203.828 158.21 204.222 158.325C204.616 158.436 205.017 158.491 205.425 158.491C205.758 158.491 206.034 158.448 206.252 158.362C206.474 158.273 206.639 158.147 206.747 157.986C206.854 157.822 206.908 157.63 206.908 157.412C206.908 157.179 206.845 156.982 206.72 156.821C206.594 156.66 206.405 156.513 206.15 156.38C205.9 156.244 205.585 156.099 205.205 155.945C204.947 155.841 204.7 155.723 204.464 155.591C204.231 155.458 204.023 155.303 203.841 155.124C203.658 154.944 203.513 154.733 203.406 154.49C203.302 154.243 203.25 153.953 203.25 153.62C203.25 153.176 203.356 152.796 203.567 152.481C203.782 152.166 204.083 151.924 204.469 151.756C204.86 151.588 205.314 151.503 205.833 151.503C206.245 151.503 206.632 151.546 206.994 151.632C207.359 151.718 207.717 151.84 208.068 151.998L207.66 153.034C207.337 152.902 207.024 152.796 206.72 152.717C206.419 152.639 206.111 152.599 205.796 152.599C205.524 152.599 205.293 152.64 205.103 152.723C204.913 152.805 204.768 152.921 204.668 153.072C204.571 153.219 204.523 153.394 204.523 153.598C204.523 153.827 204.578 154.021 204.689 154.178C204.804 154.332 204.979 154.474 205.216 154.603C205.456 154.731 205.764 154.875 206.14 155.032C206.573 155.211 206.94 155.399 207.241 155.596C207.545 155.793 207.778 156.029 207.939 156.305C208.1 156.577 208.181 156.919 208.181 157.331ZM213.084 159.469L210.823 152.911H210.775C210.786 153.057 210.798 153.258 210.812 153.512C210.827 153.766 210.839 154.039 210.85 154.329C210.861 154.619 210.866 154.896 210.866 155.161V159.469H209.695V151.616H211.505L213.681 157.884H213.713L215.963 151.616H217.768V159.469H216.538V155.097C216.538 154.857 216.542 154.597 216.549 154.318C216.56 154.039 216.57 153.774 216.581 153.523C216.595 153.272 216.606 153.072 216.613 152.921H216.57L214.223 159.469H213.084ZM224.369 157.331C224.369 157.797 224.255 158.198 224.025 158.534C223.8 158.871 223.474 159.129 223.048 159.308C222.625 159.487 222.12 159.576 221.533 159.576C221.247 159.576 220.973 159.56 220.711 159.528C220.45 159.496 220.203 159.449 219.97 159.388C219.741 159.324 219.532 159.247 219.342 159.157V157.943C219.66 158.083 220.017 158.21 220.411 158.325C220.805 158.436 221.206 158.491 221.614 158.491C221.947 158.491 222.222 158.448 222.441 158.362C222.663 158.273 222.828 158.147 222.935 157.986C223.042 157.822 223.096 157.63 223.096 157.412C223.096 157.179 223.034 156.982 222.908 156.821C222.783 156.66 222.593 156.513 222.339 156.38C222.088 156.244 221.773 156.099 221.394 155.945C221.136 155.841 220.889 155.723 220.652 155.591C220.42 155.458 220.212 155.303 220.029 155.124C219.847 154.944 219.702 154.733 219.594 154.49C219.49 154.243 219.438 153.953 219.438 153.62C219.438 153.176 219.544 152.796 219.755 152.481C219.97 152.166 220.271 151.924 220.658 151.756C221.048 151.588 221.503 151.503 222.022 151.503C222.434 151.503 222.82 151.546 223.182 151.632C223.547 151.718 223.905 151.84 224.256 151.998L223.848 153.034C223.526 152.902 223.213 152.796 222.908 152.717C222.607 152.639 222.299 152.599 221.984 152.599C221.712 152.599 221.481 152.64 221.292 152.723C221.102 152.805 220.957 152.921 220.856 153.072C220.76 153.219 220.711 153.394 220.711 153.598C220.711 153.827 220.767 154.021 220.878 154.178C220.993 154.332 221.168 154.474 221.404 154.603C221.644 154.731 221.952 154.875 222.328 155.032C222.761 155.211 223.128 155.399 223.429 155.596C223.734 155.793 223.966 156.029 224.127 156.305C224.289 156.577 224.369 156.919 224.369 157.331Z" fill="#303030"/>
<rect x="145.766" y="228.891" width="109.883" height="29.4531" rx="14.7266" fill="black"/>
<path d="M172.875 239.551L169.881 248.117H168.393L165.398 239.551H166.84L168.645 244.918C168.699 245.074 168.758 245.264 168.82 245.486C168.887 245.709 168.947 245.934 169.002 246.16C169.061 246.387 169.105 246.588 169.137 246.764C169.168 246.588 169.211 246.387 169.266 246.16C169.324 245.934 169.385 245.709 169.447 245.486C169.51 245.264 169.568 245.072 169.623 244.912L171.434 239.551H172.875ZM175.236 241.631V248.117H173.859V241.631H175.236ZM174.557 239.146C174.768 239.146 174.949 239.203 175.102 239.316C175.258 239.43 175.336 239.625 175.336 239.902C175.336 240.176 175.258 240.371 175.102 240.488C174.949 240.602 174.768 240.658 174.557 240.658C174.338 240.658 174.152 240.602 174 240.488C173.852 240.371 173.777 240.176 173.777 239.902C173.777 239.625 173.852 239.43 174 239.316C174.152 239.203 174.338 239.146 174.557 239.146ZM179.795 241.508C180.373 241.508 180.869 241.627 181.283 241.865C181.697 242.104 182.016 242.441 182.238 242.879C182.461 243.316 182.572 243.84 182.572 244.449V245.188H178.242C178.258 245.816 178.426 246.301 178.746 246.641C179.07 246.98 179.523 247.15 180.105 247.15C180.52 247.15 180.891 247.111 181.219 247.033C181.551 246.951 181.893 246.832 182.244 246.676V247.795C181.92 247.947 181.59 248.059 181.254 248.129C180.918 248.199 180.516 248.234 180.047 248.234C179.41 248.234 178.85 248.111 178.365 247.865C177.885 247.615 177.508 247.244 177.234 246.752C176.965 246.26 176.83 245.648 176.83 244.918C176.83 244.191 176.953 243.574 177.199 243.066C177.445 242.559 177.791 242.172 178.236 241.906C178.682 241.641 179.201 241.508 179.795 241.508ZM179.795 242.545C179.361 242.545 179.01 242.686 178.74 242.967C178.475 243.248 178.318 243.66 178.271 244.203H181.225C181.221 243.879 181.166 243.592 181.061 243.342C180.959 243.092 180.803 242.896 180.592 242.756C180.385 242.615 180.119 242.545 179.795 242.545ZM189.428 248.111L188.607 245.094C188.568 244.945 188.521 244.766 188.467 244.555C188.412 244.344 188.357 244.127 188.303 243.904C188.248 243.678 188.197 243.469 188.15 243.277C188.107 243.086 188.074 242.938 188.051 242.832H188.004C187.984 242.938 187.953 243.086 187.91 243.277C187.867 243.469 187.818 243.678 187.764 243.904C187.709 244.131 187.654 244.352 187.6 244.566C187.549 244.781 187.502 244.965 187.459 245.117L186.598 248.111H185.086L183.27 241.625H184.664L185.508 244.848C185.562 245.066 185.615 245.303 185.666 245.557C185.721 245.811 185.768 246.053 185.807 246.283C185.846 246.514 185.875 246.703 185.895 246.852H185.941C185.957 246.746 185.979 246.613 186.006 246.453C186.033 246.289 186.064 246.119 186.1 245.943C186.135 245.764 186.17 245.596 186.205 245.439C186.24 245.279 186.273 245.15 186.305 245.053L187.301 241.625H188.807L189.762 245.053C189.805 245.201 189.852 245.389 189.902 245.615C189.953 245.838 189.998 246.062 190.037 246.289C190.08 246.512 190.107 246.697 190.119 246.846H190.166C190.182 246.713 190.209 246.533 190.248 246.307C190.291 246.076 190.34 245.832 190.395 245.574C190.449 245.312 190.506 245.07 190.564 244.848L191.426 241.625H192.797L190.969 248.111H189.428ZM204.123 243.752C204.123 244.717 203.943 245.523 203.584 246.172C203.225 246.816 202.703 247.303 202.02 247.631C201.336 247.955 200.512 248.117 199.547 248.117H197.168V239.551H199.805C200.691 239.551 201.457 239.711 202.102 240.031C202.746 240.348 203.244 240.818 203.596 241.443C203.947 242.064 204.123 242.834 204.123 243.752ZM202.658 243.793C202.658 243.09 202.547 242.512 202.324 242.059C202.105 241.605 201.781 241.27 201.352 241.051C200.926 240.828 200.4 240.717 199.775 240.717H198.574V246.939H199.57C200.605 246.939 201.379 246.676 201.891 246.148C202.402 245.621 202.658 244.836 202.658 243.793ZM208.412 241.508C208.99 241.508 209.486 241.627 209.9 241.865C210.314 242.104 210.633 242.441 210.855 242.879C211.078 243.316 211.189 243.84 211.189 244.449V245.188H206.859C206.875 245.816 207.043 246.301 207.363 246.641C207.688 246.98 208.141 247.15 208.723 247.15C209.137 247.15 209.508 247.111 209.836 247.033C210.168 246.951 210.51 246.832 210.861 246.676V247.795C210.537 247.947 210.207 248.059 209.871 248.129C209.535 248.199 209.133 248.234 208.664 248.234C208.027 248.234 207.467 248.111 206.982 247.865C206.502 247.615 206.125 247.244 205.852 246.752C205.582 246.26 205.447 245.648 205.447 244.918C205.447 244.191 205.57 243.574 205.816 243.066C206.062 242.559 206.408 242.172 206.854 241.906C207.299 241.641 207.818 241.508 208.412 241.508ZM208.412 242.545C207.979 242.545 207.627 242.686 207.357 242.967C207.092 243.248 206.936 243.66 206.889 244.203H209.842C209.838 243.879 209.783 243.592 209.678 243.342C209.576 243.092 209.42 242.896 209.209 242.756C209.002 242.615 208.736 242.545 208.412 242.545ZM215.156 247.121C215.336 247.121 215.514 247.105 215.689 247.074C215.865 247.039 216.025 246.998 216.17 246.951V247.994C216.018 248.061 215.82 248.117 215.578 248.164C215.336 248.211 215.084 248.234 214.822 248.234C214.455 248.234 214.125 248.174 213.832 248.053C213.539 247.928 213.307 247.715 213.135 247.414C212.963 247.113 212.877 246.697 212.877 246.166V242.68H211.992V242.064L212.941 241.578L213.393 240.189H214.26V241.631H216.117V242.68H214.26V246.148C214.26 246.477 214.342 246.721 214.506 246.881C214.67 247.041 214.887 247.121 215.156 247.121ZM220.031 241.508C220.852 241.508 221.471 241.689 221.889 242.053C222.311 242.416 222.521 242.982 222.521 243.752V248.117H221.543L221.279 247.197H221.232C221.049 247.432 220.859 247.625 220.664 247.777C220.469 247.93 220.242 248.043 219.984 248.117C219.73 248.195 219.42 248.234 219.053 248.234C218.666 248.234 218.32 248.164 218.016 248.023C217.711 247.879 217.471 247.66 217.295 247.367C217.119 247.074 217.031 246.703 217.031 246.254C217.031 245.586 217.279 245.084 217.775 244.748C218.275 244.412 219.029 244.227 220.037 244.191L221.162 244.15V243.811C221.162 243.361 221.057 243.041 220.846 242.85C220.639 242.658 220.346 242.562 219.967 242.562C219.643 242.562 219.328 242.609 219.023 242.703C218.719 242.797 218.422 242.912 218.133 243.049L217.688 242.076C218.004 241.908 218.363 241.771 218.766 241.666C219.172 241.561 219.594 241.508 220.031 241.508ZM221.156 245.018L220.318 245.047C219.631 245.07 219.148 245.188 218.871 245.398C218.594 245.609 218.455 245.898 218.455 246.266C218.455 246.586 218.551 246.82 218.742 246.969C218.934 247.113 219.186 247.186 219.498 247.186C219.975 247.186 220.369 247.051 220.682 246.781C220.998 246.508 221.156 246.107 221.156 245.58V245.018ZM225.826 241.631V248.117H224.449V241.631H225.826ZM225.146 239.146C225.357 239.146 225.539 239.203 225.691 239.316C225.848 239.43 225.926 239.625 225.926 239.902C225.926 240.176 225.848 240.371 225.691 240.488C225.539 240.602 225.357 240.658 225.146 240.658C224.928 240.658 224.742 240.602 224.59 240.488C224.441 240.371 224.367 240.176 224.367 239.902C224.367 239.625 224.441 239.43 224.59 239.316C224.742 239.203 224.928 239.146 225.146 239.146ZM229.184 248.117H227.801V239H229.184V248.117ZM235.512 246.266C235.512 246.691 235.408 247.051 235.201 247.344C234.994 247.637 234.691 247.859 234.293 248.012C233.898 248.16 233.414 248.234 232.84 248.234C232.387 248.234 231.996 248.201 231.668 248.135C231.344 248.072 231.037 247.975 230.748 247.842V246.652C231.057 246.797 231.402 246.922 231.785 247.027C232.172 247.133 232.537 247.186 232.881 247.186C233.334 247.186 233.66 247.115 233.859 246.975C234.059 246.83 234.158 246.639 234.158 246.4C234.158 246.26 234.117 246.135 234.035 246.025C233.957 245.912 233.809 245.797 233.59 245.68C233.375 245.559 233.059 245.414 232.641 245.246C232.23 245.082 231.885 244.918 231.604 244.754C231.322 244.59 231.109 244.393 230.965 244.162C230.82 243.928 230.748 243.629 230.748 243.266C230.748 242.691 230.975 242.256 231.428 241.959C231.885 241.658 232.488 241.508 233.238 241.508C233.637 241.508 234.012 241.549 234.363 241.631C234.719 241.709 235.066 241.824 235.406 241.977L234.973 243.014C234.68 242.885 234.385 242.779 234.088 242.697C233.795 242.611 233.496 242.568 233.191 242.568C232.836 242.568 232.564 242.623 232.377 242.732C232.193 242.842 232.102 242.998 232.102 243.201C232.102 243.354 232.146 243.482 232.236 243.588C232.326 243.693 232.48 243.799 232.699 243.904C232.922 244.01 233.23 244.141 233.625 244.297C234.012 244.445 234.346 244.602 234.627 244.766C234.912 244.926 235.131 245.123 235.283 245.357C235.436 245.592 235.512 245.895 235.512 246.266Z" fill="white"/>
<path d="M59.854 103.933H58.1113C58.1106 103.24 57.8349 102.575 57.3448 102.085C56.8547 101.595 56.1902 101.319 55.4971 101.318V99.5757C56.6522 99.5771 57.7596 100.037 58.5764 100.853C59.3932 101.67 59.8527 102.778 59.854 103.933Z" fill="#303030"/>
<path d="M63.3394 103.933H61.5966C61.5948 102.316 60.9515 100.765 59.808 99.6215C58.6645 98.478 57.1141 97.8348 55.4969 97.8329V96.0901C57.5761 96.0925 59.5696 96.9195 61.0398 98.3897C62.5101 99.86 63.3371 101.853 63.3394 103.933ZM61.5966 117.875H61.4485C44.3256 116.89 41.8944 102.443 41.5546 98.0334C41.5014 97.3421 41.7251 96.6581 42.1763 96.1317C42.6275 95.6054 43.2693 95.2798 43.9605 95.2266C44.0296 95.2214 44.099 95.2188 44.1687 95.2188H48.761C49.11 95.2184 49.4511 95.3229 49.7401 95.5187C50.0291 95.7144 50.2526 95.9924 50.3818 96.3167L51.7063 99.5757C51.8338 99.8925 51.8655 100.24 51.7973 100.574C51.7292 100.909 51.5642 101.216 51.3229 101.458L49.4668 103.331C49.7556 104.98 50.5442 106.499 51.7258 107.684C52.9073 108.868 54.4247 109.661 56.072 109.954L57.9629 108.081C58.2082 107.842 58.5183 107.681 58.8546 107.617C59.1909 107.554 59.5384 107.591 59.8538 107.723L63.139 109.039C63.4584 109.172 63.7309 109.398 63.9218 109.686C64.1126 109.975 64.2133 110.314 64.2108 110.66V115.261C64.2108 115.954 63.9354 116.619 63.4451 117.109C62.9549 117.6 62.29 117.875 61.5966 117.875ZM44.1687 96.9615C44.0543 96.9612 43.9409 96.9834 43.8351 97.0269C43.7292 97.0703 43.633 97.1342 43.5518 97.2149C43.4707 97.2956 43.4062 97.3915 43.3621 97.497C43.318 97.6026 43.2951 97.7159 43.2947 97.8303C43.2947 97.8547 43.2956 97.8788 43.2974 97.9026C43.6982 103.061 46.2688 115.261 61.5443 116.132C61.775 116.146 62.0017 116.068 62.1746 115.914C62.3474 115.761 62.4524 115.545 62.4663 115.315L62.468 115.261V110.66L59.1829 109.344L56.682 111.828L56.2637 111.775C48.6826 110.825 47.6543 103.244 47.6543 103.166L47.602 102.748L50.0768 100.247L48.7697 96.9615H44.1687Z" fill="#303030"/>
<path d="M140.284 103.933H138.541C138.54 103.24 138.265 102.575 137.775 102.085C137.284 101.595 136.62 101.319 135.927 101.318V99.5757C137.082 99.5771 138.189 100.037 139.006 100.853C139.823 101.67 140.282 102.778 140.284 103.933Z" fill="#303030"/>
<path d="M143.769 103.933H142.026C142.024 102.316 141.381 100.765 140.238 99.6215C139.094 98.478 137.544 97.8348 135.927 97.8329V96.0901C138.006 96.0925 139.999 96.9195 141.47 98.3897C142.94 99.86 143.767 101.853 143.769 103.933ZM142.026 117.875H141.878C124.755 116.89 122.324 102.443 121.984 98.0334C121.931 97.3421 122.155 96.6581 122.606 96.1317C123.057 95.6054 123.699 95.2798 124.39 95.2266C124.459 95.2214 124.529 95.2188 124.598 95.2188H129.191C129.54 95.2184 129.881 95.3229 130.17 95.5187C130.459 95.7144 130.682 95.9924 130.811 96.3167L132.136 99.5757C132.264 99.8925 132.295 100.24 132.227 100.574C132.159 100.909 131.994 101.216 131.753 101.458L129.897 103.331C130.185 104.98 130.974 106.499 132.155 107.684C133.337 108.868 134.854 109.661 136.502 109.954L138.393 108.081C138.638 107.842 138.948 107.681 139.284 107.617C139.621 107.554 139.968 107.591 140.284 107.723L143.569 109.039C143.888 109.172 144.161 109.398 144.351 109.686C144.542 109.975 144.643 110.314 144.641 110.66V115.261C144.641 115.954 144.365 116.619 143.875 117.109C143.385 117.6 142.72 117.875 142.026 117.875ZM124.598 96.9615C124.484 96.9612 124.371 96.9834 124.265 97.0269C124.159 97.0703 124.063 97.1342 123.981 97.2149C123.9 97.2956 123.836 97.3915 123.792 97.497C123.748 97.6026 123.725 97.7159 123.724 97.8303C123.724 97.8547 123.725 97.8788 123.727 97.9026C124.128 103.061 126.698 115.261 141.974 116.132C142.205 116.146 142.431 116.068 142.604 115.914C142.777 115.761 142.882 115.545 142.896 115.315L142.898 115.261V110.66L139.613 109.344L137.112 111.828L136.693 111.775C129.112 110.825 128.084 103.244 128.084 103.166L128.032 102.748L130.506 100.247L129.199 96.9615H124.598Z" fill="#303030"/>
<path d="M202.406 101.449C202.406 100.698 202.72 99.9778 203.277 99.4467C203.835 98.9156 204.591 98.6172 205.38 98.6172H223.222C224.01 98.6172 224.767 98.9156 225.324 99.4467C225.882 99.9778 226.195 100.698 226.195 101.449V112.777C226.195 113.528 225.882 114.249 225.324 114.78C224.767 115.311 224.01 115.609 223.222 115.609H205.38C204.591 115.609 203.835 115.311 203.277 114.78C202.72 114.249 202.406 113.528 202.406 112.777V101.449ZM205.38 100.033C204.986 100.033 204.607 100.182 204.329 100.448C204.05 100.713 203.893 101.074 203.893 101.449V101.756L214.301 107.704L224.708 101.756V101.449C224.708 101.074 224.552 100.713 224.273 100.448C223.994 100.182 223.616 100.033 223.222 100.033H205.38ZM224.708 103.408L217.709 107.408L224.708 111.51V103.408ZM224.658 113.144L216.272 108.229L214.301 109.355L212.329 108.229L203.944 113.143C204.028 113.444 204.215 113.71 204.474 113.9C204.734 114.09 205.052 114.193 205.38 114.193H223.222C223.549 114.193 223.867 114.091 224.127 113.901C224.386 113.711 224.573 113.445 224.658 113.144ZM203.893 111.51L210.893 107.408L203.893 103.408V111.51Z" fill="#303030"/>
</svg>
