<svg width="200" height="62" viewBox="0 0 200 62" fill="none" xmlns="http://www.w3.org/2000/svg">
<path d="M188.284 0.18457H11.7158C5.34729 0.18457 0.18457 5.34852 0.18457 11.7186V48.7056C0.18457 55.0756 5.34729 60.2396 11.7158 60.2396H188.284C194.653 60.2396 199.816 55.0756 199.816 48.7056V11.7186C199.816 5.34852 194.653 0.18457 188.284 0.18457Z" fill="white" stroke="#C6C6C6" stroke-width="2" stroke-miterlimit="10"/>
<path d="M48.9799 24.6913L43.6061 30.0295L27.8315 13.9653C28.6227 13.4875 29.6535 13.4137 30.5664 13.945L48.9799 24.6913Z" fill="#00F076"/>
<path d="M49.113 35.6553L30.5667 46.4773C29.4584 47.1247 28.173 46.8739 27.3579 46.0955L43.6083 30.0312L49.1148 35.6553H49.113Z" fill="#F73448"/>
<path d="M54.4716 32.5271L49.155 35.6296L49.1126 35.6536L43.6079 30.0295L48.9817 24.6914L49.0241 24.7154L54.4734 27.8954C56.2456 28.9302 56.2456 31.4923 54.4734 32.5271H54.4716Z" fill="#FFCA00"/>
<path d="M27.3577 46.0955C27.3467 46.0844 27.3356 46.0734 27.3245 46.0623C26.8451 45.5882 26.5371 44.9279 26.5371 44.1605V16.2617C26.5371 15.2675 27.0553 14.4522 27.793 13.991C27.8059 13.9818 27.8206 13.9744 27.8335 13.967L43.6081 30.0313L27.3577 46.0955Z" fill="#00D2FF"/>
<path d="M84.0127 34.0118H78.4472V36.1496H83.856C83.2087 38.531 81.0326 40.2814 78.4472 40.2814C75.3509 40.2814 72.8411 37.771 72.8411 34.674C72.8411 31.577 75.3509 29.0665 78.4472 29.0665C79.9114 29.0665 81.2428 29.6273 82.2405 30.5459L83.7527 29.0333C82.3678 27.7274 80.4997 26.9287 78.4472 26.9287C74.1707 26.9287 70.7056 30.3965 70.7056 34.6721C70.7056 38.9478 74.1725 42.4156 78.4472 42.4156C82.7218 42.4156 86.1888 38.9478 86.1888 34.6721C86.1888 34.449 86.1795 34.2276 86.1611 34.01H84.0127V34.0118Z" fill="#191919"/>
<path d="M92.2522 32.4106C89.5174 32.4106 87.3008 34.6426 87.3008 37.3946C87.3008 40.1467 89.5174 42.3786 92.2522 42.3786C94.9871 42.3786 97.2037 40.1467 97.2037 37.3946C97.2037 34.6426 94.9871 32.4106 92.2522 32.4106ZM92.2522 40.4013C90.7548 40.4013 89.5432 39.0916 89.5432 37.4758C89.5432 35.86 90.7567 34.5503 92.2522 34.5503C93.7478 34.5503 94.9612 35.86 94.9612 37.4758C94.9612 39.0916 93.7478 40.4013 92.2522 40.4013Z" fill="#191919"/>
<path d="M103.269 32.4106C100.534 32.4106 98.3174 34.6426 98.3174 37.3946C98.3174 40.1467 100.534 42.3786 103.269 42.3786C106.004 42.3786 108.22 40.1467 108.22 37.3946C108.22 34.6426 106.004 32.4106 103.269 32.4106ZM103.269 40.4013C101.771 40.4013 100.56 39.0916 100.56 37.4758C100.56 35.86 101.773 34.5503 103.269 34.5503C104.764 34.5503 105.978 35.86 105.978 37.4758C105.978 39.0916 104.764 40.4013 103.269 40.4013Z" fill="#191919"/>
<path d="M121.753 26.9287H119.615V42.5761H121.753V26.9287Z" fill="#191919"/>
<path d="M132.76 35.9615C132.72 35.8213 132.672 35.6848 132.62 35.552C132.128 34.2959 131.176 33.3072 129.941 32.7667C128.705 32.2263 127.333 32.2004 126.077 32.6911C124.821 33.1836 123.833 34.1354 123.293 35.3712C122.752 36.6071 122.726 37.9794 123.217 39.2356C123.709 40.4917 124.661 41.4804 125.896 42.0209C126.546 42.3049 127.232 42.4469 127.918 42.4469C128.541 42.4469 129.162 42.3307 129.76 42.0965C130.962 41.6261 131.929 40.7241 132.482 39.5565L132.672 39.1563L130.721 38.3022L130.54 38.673C130.219 39.3315 129.666 39.8424 128.983 40.1099C128.259 40.394 127.466 40.3792 126.752 40.0656C126.298 39.8664 125.909 39.5639 125.614 39.1821L132.875 36.3378L132.762 35.9596L132.76 35.9615ZM125.013 37.1272C125.041 36.8211 125.12 36.5167 125.247 36.2271C125.559 35.5133 126.131 34.9636 126.855 34.6795C127.2 34.5449 127.56 34.4785 127.916 34.4785C128.629 34.4785 129.33 34.7404 129.869 35.2255L125.013 37.1272Z" fill="#191919"/>
<path d="M116.364 33.2888C115.641 32.7354 114.765 32.4108 113.821 32.4108C111.343 32.4108 109.334 34.6427 109.334 37.3948C109.334 40.1468 111.343 42.3788 113.821 42.3788C114.765 42.3788 115.641 42.0541 116.364 41.5007V42.5761C116.364 43.1922 115.922 44.9021 113.904 44.9021C111.887 44.9021 111.321 43.1 111.321 43.1L109.384 44.002C109.384 44.002 110.113 46.8463 114.098 46.8463C116.255 46.8463 117.369 45.5938 117.935 44.4447C118.319 43.6663 118.503 42.8048 118.503 41.9361V32.4089H116.366V33.2869L116.364 33.2888ZM113.821 40.3995C112.466 40.3995 111.365 39.0899 111.365 37.4741C111.365 35.8583 112.464 34.5486 113.821 34.5486C115.178 34.5486 116.278 35.8583 116.278 37.4741C116.278 39.0899 115.178 40.3995 113.821 40.3995Z" fill="#191919"/>
<path d="M145.405 26.9287H141.817H140.277V42.5761H142.414V36.8985H145.405C148.14 36.8985 150.357 34.6666 150.357 31.9145C150.357 29.1625 148.14 26.9306 145.405 26.9306V26.9287ZM145.405 34.9193H142.414V29.0665H145.405C146.903 29.0665 148.114 30.3762 148.114 31.992C148.114 33.6078 146.901 34.9175 145.405 34.9175V34.9193Z" fill="#191919"/>
<path d="M153.606 26.9287H151.469V42.5761H153.606V26.9287Z" fill="#191919"/>
<path d="M161.772 33.3681C161.467 33.0988 161.071 32.8959 160.593 32.7631C160.106 32.6284 159.511 32.562 158.819 32.562C158.432 32.562 158.052 32.5934 157.687 32.6561C157.322 32.7188 156.981 32.8 156.673 32.8996C156.405 32.9844 156.164 33.0785 155.955 33.1762L156.07 34.8695C156.2 34.8031 156.35 34.7331 156.514 34.6593C156.776 34.5431 157.08 34.4342 157.419 34.3383C157.764 34.2406 158.161 34.1908 158.598 34.1908C158.935 34.1908 159.223 34.2276 159.455 34.2977C159.699 34.3734 159.898 34.4914 160.047 34.6519C160.195 34.8105 160.302 35.0116 160.366 35.2458C160.427 35.4709 160.457 35.7328 160.457 36.0279V36.7252H159.426C158.638 36.7252 157.938 36.786 157.344 36.9041C156.757 37.0221 156.263 37.2029 155.874 37.4445C155.492 37.6825 155.201 37.985 155.009 38.3465C154.816 38.7099 154.718 39.1471 154.718 39.6451C154.718 40.1062 154.795 40.5139 154.946 40.857C155.098 41.1982 155.313 41.4878 155.588 41.7165C155.865 41.949 156.197 42.126 156.577 42.2441C156.96 42.364 157.39 42.4248 157.851 42.4248C158.404 42.4248 158.915 42.3179 159.369 42.1057C159.824 41.8918 160.235 41.5911 160.589 41.2093L160.851 40.9271V42.423H162.649V35.9652C162.649 35.3639 162.577 34.84 162.435 34.4047C162.297 33.9805 162.074 33.6319 161.772 33.3644V33.3681ZM160.457 39.765L160.418 39.8074C160.099 40.1671 159.78 40.4456 159.468 40.6356C159.145 40.8312 158.788 40.9308 158.404 40.9308C157.943 40.9308 157.574 40.809 157.307 40.5692C157.036 40.3239 156.898 39.9882 156.898 39.5676C156.898 39.3223 156.945 39.101 157.04 38.9091C157.135 38.7136 157.287 38.5457 157.491 38.4092C157.689 38.2783 157.945 38.1787 158.251 38.1141C158.55 38.0514 158.913 38.02 159.334 38.02H160.455V39.765H160.457Z" fill="#191919"/>
<path d="M171.136 32.5786L169.574 36.1903L168.615 38.4111L167.964 36.9078L166.092 32.5786H163.763L166.8 39.599L167.477 41.165L165.714 45.472H168.043L169.576 41.5763L170.739 38.8833L173.465 32.5786H171.136Z" fill="#191919"/>
<path d="M83.6715 21.102C83.6715 21.1536 83.6678 21.1997 83.6604 21.2403C83.6531 21.2809 83.6402 21.3141 83.6217 21.3417C83.6033 21.3694 83.583 21.3916 83.559 21.4045C83.535 21.4192 83.5092 21.4248 83.4816 21.4248H79.8542C79.7823 21.4248 79.7085 21.3971 79.6329 21.3436C79.5573 21.2901 79.5186 21.1905 79.5186 21.0466V14.0539C79.5186 13.91 79.5573 13.8123 79.6329 13.7569C79.7085 13.7035 79.7823 13.6758 79.8542 13.6758H83.4281C83.4557 13.6758 83.4816 13.6832 83.5055 13.6961C83.5295 13.7108 83.5498 13.7311 83.5645 13.7588C83.5811 13.7865 83.5922 13.8215 83.5996 13.8639C83.607 13.9064 83.6107 13.9543 83.6107 14.0115C83.6107 14.0631 83.607 14.1093 83.5996 14.1498C83.5922 14.1904 83.5793 14.2218 83.5645 14.2494C83.548 14.2753 83.5295 14.2956 83.5055 14.3085C83.4816 14.3232 83.4557 14.3288 83.4281 14.3288H80.2488V17.0532H82.991C83.0224 17.0532 83.05 17.0605 83.074 17.0735C83.098 17.0882 83.1183 17.1067 83.133 17.1325C83.1496 17.1583 83.1607 17.1915 83.1681 17.2339C83.1754 17.2764 83.1791 17.3243 83.1791 17.3815C83.1791 17.4331 83.1754 17.4774 83.1681 17.5161C83.1607 17.5549 83.1478 17.5844 83.133 17.6084C83.1164 17.6324 83.098 17.6508 83.074 17.6619C83.05 17.6729 83.0224 17.6803 82.991 17.6803H80.2488V20.7699H83.4816C83.5092 20.7699 83.535 20.7773 83.559 20.7902C83.583 20.805 83.6033 20.8234 83.6217 20.8493C83.6402 20.8751 83.6531 20.9083 83.6604 20.9507C83.6678 20.9931 83.6715 21.0411 83.6715 21.0983V21.102Z" fill="#191919"/>
<path d="M90.2015 14.0134C90.2015 14.0651 90.1978 14.1112 90.1905 14.1518C90.1831 14.1924 90.1702 14.2237 90.1554 14.2514C90.1388 14.2772 90.1204 14.2975 90.0964 14.3104C90.0724 14.3252 90.0466 14.3307 90.019 14.3307H87.7083V21.305C87.7083 21.3289 87.7027 21.3511 87.6898 21.3714C87.6769 21.3917 87.6585 21.4064 87.6308 21.4193C87.6032 21.4304 87.5644 21.4415 87.5165 21.4488C87.4685 21.4562 87.4114 21.4599 87.3431 21.4599C87.2749 21.4599 87.2177 21.4562 87.1698 21.4488C87.1218 21.4415 87.0831 21.4304 87.0555 21.4193C87.0278 21.4064 87.0075 21.3917 86.9964 21.3714C86.9854 21.3511 86.978 21.3289 86.978 21.305V14.3307H84.6673C84.636 14.3307 84.6083 14.3233 84.5862 14.3104C84.5641 14.2957 84.5456 14.2772 84.529 14.2514C84.5124 14.2256 84.5014 14.1924 84.494 14.1518C84.4866 14.1112 84.4829 14.0651 84.4829 14.0134C84.4829 13.9581 84.4866 13.9083 84.494 13.8659C84.5014 13.8235 84.5143 13.7884 84.529 13.7607C84.5456 13.7331 84.5641 13.7109 84.5862 13.698C84.6083 13.6833 84.6341 13.6777 84.6673 13.6777H90.019C90.0466 13.6777 90.0724 13.6851 90.0964 13.698C90.1204 13.7128 90.1407 13.7331 90.1554 13.7607C90.172 13.7884 90.1831 13.8235 90.1905 13.8659C90.1978 13.9083 90.2015 13.9563 90.2015 14.0134Z" fill="#191919"/>
<path d="M94.9373 21.3068C94.9373 21.3308 94.9318 21.3529 94.9189 21.3732C94.906 21.3935 94.8875 21.4083 94.8599 21.4212C94.8322 21.4322 94.7953 21.4433 94.7492 21.4507C94.7031 21.4581 94.6441 21.4618 94.5722 21.4618C94.5039 21.4618 94.4468 21.4581 94.3988 21.4507C94.3509 21.4433 94.3121 21.4322 94.2845 21.4212C94.2568 21.4083 94.2365 21.3935 94.2255 21.3732C94.2144 21.3529 94.207 21.3308 94.207 21.3068V13.7995C94.207 13.7755 94.2144 13.7534 94.2273 13.7331C94.2421 13.7128 94.2624 13.698 94.2937 13.6851C94.3232 13.674 94.3619 13.663 94.408 13.6556C94.4541 13.6482 94.5095 13.6445 94.5722 13.6445C94.6441 13.6445 94.7031 13.6482 94.7492 13.6556C94.7953 13.663 94.8322 13.674 94.8599 13.6851C94.8875 13.6962 94.9078 13.7128 94.9189 13.7331C94.9299 13.7534 94.9373 13.7755 94.9373 13.7995V21.3068Z" fill="#191919"/>
<path d="M101.891 14.0134C101.891 14.0651 101.888 14.1112 101.88 14.1518C101.873 14.1924 101.86 14.2237 101.845 14.2514C101.829 14.2772 101.81 14.2975 101.786 14.3104C101.762 14.3252 101.737 14.3307 101.709 14.3307H99.3982V21.305C99.3982 21.3289 99.3927 21.3511 99.3798 21.3714C99.3669 21.3917 99.3484 21.4064 99.3208 21.4193C99.2931 21.4304 99.2544 21.4415 99.2064 21.4488C99.1585 21.4562 99.1013 21.4599 99.0331 21.4599C98.9648 21.4599 98.9077 21.4562 98.8597 21.4488C98.8118 21.4415 98.7731 21.4304 98.7454 21.4193C98.7177 21.4064 98.6974 21.3917 98.6864 21.3714C98.6753 21.3511 98.6679 21.3289 98.6679 21.305V14.3307H96.3573C96.3259 14.3307 96.2983 14.3233 96.2761 14.3104C96.254 14.2957 96.2356 14.2772 96.219 14.2514C96.2024 14.2256 96.1913 14.1924 96.1839 14.1518C96.1765 14.1112 96.1729 14.0651 96.1729 14.0134C96.1729 13.9581 96.1765 13.9083 96.1839 13.8659C96.1913 13.8235 96.2042 13.7884 96.219 13.7607C96.2356 13.7331 96.254 13.7109 96.2761 13.698C96.2983 13.6833 96.3241 13.6777 96.3573 13.6777H101.709C101.737 13.6777 101.762 13.6851 101.786 13.698C101.81 13.7128 101.831 13.7331 101.845 13.7607C101.862 13.7884 101.873 13.8235 101.88 13.8659C101.888 13.9083 101.891 13.9563 101.891 14.0134Z" fill="#191919"/>
<path d="M112.128 17.4626C112.128 18.0806 112.058 18.6413 111.916 19.1412C111.774 19.6429 111.562 20.069 111.278 20.4232C110.994 20.7773 110.638 21.0485 110.207 21.2403C109.775 21.4321 109.273 21.528 108.698 21.528C108.123 21.528 107.63 21.4377 107.217 21.2551C106.804 21.0743 106.465 20.8142 106.199 20.4766C105.934 20.1391 105.738 19.7278 105.613 19.2408C105.488 18.7538 105.425 18.2042 105.425 17.5936C105.425 16.9831 105.495 16.4352 105.635 15.9409C105.775 15.4465 105.987 15.0241 106.273 14.6755C106.559 14.3269 106.915 14.0558 107.345 13.8639C107.774 13.6721 108.278 13.5762 108.857 13.5762C109.436 13.5762 109.906 13.6666 110.317 13.8455C110.728 14.0244 111.068 14.2826 111.337 14.6183C111.606 14.9541 111.805 15.3599 111.936 15.8394C112.065 16.319 112.13 16.8595 112.13 17.4626H112.128ZM111.35 17.5291C111.35 17.0698 111.308 16.64 111.221 16.2397C111.134 15.8394 110.994 15.489 110.797 15.192C110.599 14.895 110.338 14.6608 110.009 14.4911C109.683 14.3214 109.277 14.2365 108.794 14.2365C108.311 14.2365 107.911 14.3251 107.582 14.5021C107.252 14.6792 106.985 14.919 106.78 15.2178C106.576 15.5166 106.426 15.8671 106.338 16.2655C106.249 16.664 106.203 17.0864 106.203 17.5291C106.203 17.9994 106.244 18.4384 106.327 18.8424C106.408 19.2482 106.548 19.6005 106.743 19.8993C106.939 20.1981 107.201 20.4324 107.527 20.6021C107.854 20.7718 108.263 20.8566 108.753 20.8566C109.244 20.8566 109.65 20.7662 109.98 20.5836C110.312 20.4029 110.579 20.1594 110.782 19.8532C110.985 19.547 111.13 19.1947 111.219 18.7926C111.308 18.3923 111.35 17.9699 111.35 17.5272V17.5291Z" fill="#191919"/>
<path d="M119.479 21.0724C119.479 21.1444 119.468 21.2034 119.446 21.2513C119.424 21.2993 119.396 21.338 119.363 21.3675C119.33 21.3971 119.291 21.4192 119.248 21.4303C119.206 21.4413 119.167 21.4487 119.132 21.4487H118.983C118.904 21.4487 118.83 21.4395 118.765 21.4192C118.699 21.3989 118.636 21.3639 118.573 21.3141C118.511 21.2643 118.45 21.1978 118.387 21.113C118.325 21.03 118.256 20.9212 118.181 20.7902L115.451 15.9519C115.315 15.7158 115.178 15.4742 115.042 15.2252C114.904 14.9762 114.773 14.7327 114.649 14.4984H114.644C114.647 14.7899 114.649 15.0887 114.649 15.393V21.3048C114.649 21.3288 114.644 21.3509 114.631 21.3712C114.618 21.3915 114.599 21.4063 114.572 21.4192C114.544 21.4303 114.507 21.4413 114.461 21.4487C114.415 21.4561 114.356 21.4598 114.284 21.4598C114.216 21.4598 114.159 21.4561 114.111 21.4487C114.063 21.4413 114.024 21.4303 113.996 21.4192C113.969 21.4063 113.948 21.3915 113.937 21.3712C113.926 21.3509 113.919 21.3288 113.919 21.3048V14.0539C113.919 13.91 113.958 13.8123 114.033 13.7569C114.109 13.7034 114.183 13.6758 114.255 13.6758H114.553C114.649 13.6758 114.729 13.6831 114.793 13.6997C114.858 13.7163 114.915 13.7422 114.966 13.7809C115.018 13.8196 115.07 13.8731 115.119 13.9432C115.169 14.0133 115.225 14.1018 115.284 14.2088L117.373 17.9145C117.504 18.147 117.629 18.3683 117.747 18.5823C117.865 18.7962 117.98 19.0047 118.092 19.2113C118.205 19.416 118.315 19.6189 118.424 19.8181C118.535 20.0173 118.642 20.2184 118.751 20.4231H118.756C118.752 20.0874 118.751 19.7388 118.751 19.3754V13.8196C118.751 13.7956 118.756 13.7735 118.769 13.7532C118.782 13.7329 118.8 13.7163 118.828 13.7016C118.856 13.6868 118.893 13.6776 118.939 13.6721C118.985 13.6665 119.044 13.6628 119.116 13.6628C119.18 13.6628 119.236 13.6665 119.283 13.6721C119.331 13.6776 119.37 13.6887 119.398 13.7016C119.425 13.7163 119.446 13.7329 119.461 13.7532C119.475 13.7735 119.481 13.7956 119.481 13.8196V21.0706L119.479 21.0724Z" fill="#191919"/>
<path d="M70.7036 17.5456C70.7036 19.6354 72.4039 21.3361 74.4933 21.3361C76.5827 21.3361 78.2829 19.6354 78.2829 17.5456C78.2829 17.4921 78.2829 17.4386 78.2792 17.3851H74.6722V18.1229H77.4992L77.4383 18.3498C77.0787 19.6742 75.8671 20.6001 74.4933 20.6001C72.8096 20.6001 71.4413 19.2315 71.4413 17.5474C71.4413 15.8633 72.8096 14.4947 74.4933 14.4947C75.2033 14.4947 75.8837 14.74 76.4296 15.1882L76.9533 14.6644C76.2673 14.0778 75.4006 13.7568 74.4933 13.7568C72.4039 13.7568 70.7036 15.4575 70.7036 17.5474V17.5456Z" fill="#191919"/>
</svg>
