<svg width="116" height="116" viewBox="0 0 116 116" fill="none" xmlns="http://www.w3.org/2000/svg">
<path d="M90.1224 34.7353C85.9879 32.9335 81.8502 32.248 77.7146 32.248C64.5862 32.2469 51.4589 39.1517 38.3305 39.1517C35.038 39.1517 31.7477 38.7176 28.4552 37.6323C28.0853 37.5105 27.7144 37.4529 27.352 37.4529C25.5176 37.4529 23.9146 38.928 23.9146 40.9756V76.1096C23.9146 77.5083 24.6852 78.8339 25.9227 79.3721C30.0572 81.175 34.1949 81.8605 38.3305 81.8605C51.4589 81.8605 64.5873 74.9557 77.7156 74.9557C81.0081 74.9557 84.2985 75.3898 87.591 76.4751C87.9608 76.5969 88.3318 76.6545 88.6942 76.6545C90.5285 76.6545 92.1316 75.1794 92.1316 73.1318V37.9989C92.1305 36.5991 91.3599 35.2746 90.1224 34.7353ZM29.0307 43.3466C31.1753 43.9047 33.4136 44.1849 35.7159 44.3355C35.0892 47.5902 32.335 50.0432 29.0307 50.0432V43.3466ZM29.0307 74.9081V69.6168C32.6942 69.6168 35.6584 72.6368 35.8214 76.4164C33.42 76.2159 31.1753 75.7176 29.0307 74.9081ZM58.0225 67.6855C53.3124 67.6855 49.4955 62.9247 49.4955 57.0542C49.4955 51.1827 53.3135 46.423 58.0225 46.423C62.7316 46.423 66.5495 51.1827 66.5495 57.0542C66.5495 62.9269 62.7305 67.6855 58.0225 67.6855ZM87.0143 70.7619C85.1469 70.2757 83.2081 70.0033 81.2245 69.8272C81.8502 66.9391 84.1557 64.7464 87.0143 64.3699V70.7619ZM87.0143 44.6146C83.7218 44.1816 81.1669 41.3256 81.0657 37.7984C83.1484 38.0387 85.1256 38.4884 87.0143 39.2004V44.6146Z" fill="#007643"/>
<circle cx="58.0231" cy="57.6744" r="56.6744" stroke="#007643" stroke-width="2"/>
</svg>
