<svg width="144" height="143" viewBox="0 0 144 143" fill="none" xmlns="http://www.w3.org/2000/svg">
<g filter="url(#filter0_d_127_603)">
<rect x="6.87988" y="6" width="130.978" height="130.978" rx="15" fill="white"/>
</g>
<path d="M50.54 33.8516C50.54 32.4541 51.115 31.1139 52.1385 30.1257C53.1619 29.1375 54.5501 28.5824 55.9975 28.5824H88.742C90.1894 28.5824 91.5775 29.1375 92.6009 30.1257C93.6244 31.1139 94.1994 32.4541 94.1994 33.8516V54.9286C94.1994 56.326 93.6244 57.6663 92.6009 58.6545C91.5775 59.6426 90.1894 60.1978 88.742 60.1978H55.9975C54.5501 60.1978 53.1619 59.6426 52.1385 58.6545C51.115 57.6663 50.54 56.326 50.54 54.9286V33.8516ZM55.9975 31.217C55.2738 31.217 54.5797 31.4946 54.068 31.9887C53.5562 32.4828 53.2687 33.1529 53.2687 33.8516V34.4233L72.3697 45.4887L91.4707 34.4233V33.8516C91.4707 33.1529 91.1832 32.4828 90.6714 31.9887C90.1597 31.4946 89.4657 31.217 88.742 31.217H55.9975ZM91.4707 37.4953L78.6239 44.9381L91.4707 52.5706V37.4953ZM91.3779 55.6109L75.988 46.4662L72.3697 48.5607L68.7514 46.4662L53.3615 55.6083C53.5166 56.1689 53.859 56.6645 54.3356 57.0179C54.8123 57.3714 55.3964 57.5631 55.9975 57.5632H88.742C89.3426 57.5632 89.9265 57.372 90.4031 57.019C90.8797 56.666 91.2223 56.1711 91.3779 55.6109ZM53.2687 52.5706L66.1155 44.9381L53.2687 37.4953V52.5706Z" fill="#303030"/>
<path d="M65.7236 82.1591C65.7236 82.7092 65.5903 83.1874 65.3237 83.5937C65.0571 83.9999 64.6678 84.3131 64.1557 84.5331C63.6479 84.7532 63.0301 84.8632 62.3022 84.8632C61.9806 84.8632 61.6653 84.8421 61.3564 84.7997C61.0517 84.7574 60.7576 84.6961 60.4741 84.6157C60.1948 84.531 59.9282 84.4273 59.6743 84.3046V82.4765C60.1144 82.6712 60.5714 82.8468 61.0454 83.0034C61.5194 83.1599 61.9891 83.2382 62.4546 83.2382C62.7762 83.2382 63.0343 83.1959 63.229 83.1113C63.4279 83.0266 63.5718 82.9103 63.6606 82.7621C63.7495 82.614 63.7939 82.4448 63.7939 82.2543C63.7939 82.0216 63.7156 81.8227 63.5591 81.6577C63.4025 81.4926 63.1867 81.3382 62.9116 81.1943C62.6408 81.0504 62.334 80.8959 61.9912 80.7309C61.7754 80.6293 61.5405 80.5066 61.2866 80.3627C61.0327 80.2146 60.7915 80.0348 60.563 79.8232C60.3345 79.6116 60.1461 79.3556 59.998 79.0551C59.8542 78.7504 59.7822 78.3865 59.7822 77.9633C59.7822 77.409 59.9092 76.935 60.1631 76.5414C60.417 76.1479 60.7788 75.8474 61.2485 75.6401C61.7225 75.4285 62.2811 75.3227 62.9243 75.3227C63.4067 75.3227 63.8659 75.3798 64.3017 75.4941C64.7418 75.6041 65.201 75.7649 65.6792 75.9765L65.0444 77.5063C64.617 77.3328 64.234 77.1995 63.8955 77.1064C63.557 77.0091 63.2121 76.9604 62.8608 76.9604C62.6154 76.9604 62.4059 77.0006 62.2324 77.081C62.0589 77.1572 61.9277 77.2672 61.8389 77.4111C61.75 77.5507 61.7056 77.7136 61.7056 77.8998C61.7056 78.1199 61.769 78.3061 61.896 78.4584C62.0272 78.6065 62.2218 78.7504 62.48 78.8901C62.7423 79.0297 63.0682 79.1926 63.4575 79.3788C63.9315 79.6031 64.3356 79.838 64.6699 80.0834C65.0084 80.3246 65.2687 80.6103 65.4507 80.9404C65.6326 81.2662 65.7236 81.6725 65.7236 82.1591ZM71.3349 84.7363L69.1006 77.4555H69.0434C69.0519 77.629 69.0646 77.8914 69.0815 78.2426C69.1027 78.5896 69.1217 78.9599 69.1387 79.3535C69.1556 79.747 69.164 80.1025 69.164 80.4199V84.7363H67.4057V75.456H70.0845L72.2807 82.5527H72.3188L74.6484 75.456H77.3271V84.7363H75.4927V80.3437C75.4927 80.0517 75.4969 79.7153 75.5054 79.3344C75.5181 78.9536 75.5329 78.5917 75.5498 78.249C75.5667 77.902 75.5794 77.6417 75.5879 77.4682H75.5307L73.1377 84.7363H71.3349ZM85.1474 82.1591C85.1474 82.7092 85.0141 83.1874 84.7475 83.5937C84.4809 83.9999 84.0916 84.3131 83.5796 84.5331C83.0718 84.7532 82.4539 84.8632 81.7261 84.8632C81.4044 84.8632 81.0892 84.8421 80.7803 84.7997C80.4756 84.7574 80.1815 84.6961 79.8979 84.6157C79.6186 84.531 79.352 84.4273 79.0981 84.3046V82.4765C79.5382 82.6712 79.9953 82.8468 80.4692 83.0034C80.9432 83.1599 81.4129 83.2382 81.8784 83.2382C82.2 83.2382 82.4582 83.1959 82.6528 83.1113C82.8517 83.0266 82.9956 82.9103 83.0845 82.7621C83.1733 82.614 83.2178 82.4448 83.2178 82.2543C83.2178 82.0216 83.1395 81.8227 82.9829 81.6577C82.8263 81.4926 82.6105 81.3382 82.3354 81.1943C82.0646 81.0504 81.7578 80.8959 81.415 80.7309C81.1992 80.6293 80.9643 80.5066 80.7104 80.3627C80.4565 80.2146 80.2153 80.0348 79.9868 79.8232C79.7583 79.6116 79.57 79.3556 79.4219 79.0551C79.278 78.7504 79.206 78.3865 79.206 77.9633C79.206 77.409 79.333 76.935 79.5869 76.5414C79.8408 76.1479 80.2026 75.8474 80.6723 75.6401C81.1463 75.4285 81.7049 75.3227 82.3481 75.3227C82.8306 75.3227 83.2897 75.3798 83.7256 75.4941C84.1657 75.6041 84.6248 75.7649 85.103 75.9765L84.4682 77.5063C84.0408 77.3328 83.6579 77.1995 83.3193 77.1064C82.9808 77.0091 82.6359 76.9604 82.2847 76.9604C82.0392 76.9604 81.8297 77.0006 81.6562 77.081C81.4827 77.1572 81.3515 77.2672 81.2627 77.4111C81.1738 77.5507 81.1294 77.7136 81.1294 77.8998C81.1294 78.1199 81.1929 78.3061 81.3198 78.4584C81.451 78.6065 81.6457 78.7504 81.9038 78.8901C82.1662 79.0297 82.492 79.1926 82.8813 79.3788C83.3553 79.6031 83.7594 79.838 84.0937 80.0834C84.4323 80.3246 84.6925 80.6103 84.8745 80.9404C85.0565 81.2662 85.1474 81.6725 85.1474 82.1591Z" fill="#09B3F1"/>
<path d="M48.3125 94.7993C48.3125 95.4044 48.2355 95.9558 48.0815 96.4536C47.9311 96.9477 47.7038 97.3738 47.3994 97.7319C47.095 98.0864 46.7137 98.3603 46.2554 98.5536C45.797 98.747 45.2599 98.8437 44.644 98.8437C44.0174 98.8437 43.4731 98.747 43.0112 98.5536C42.5529 98.3603 42.1715 98.0846 41.8672 97.7265C41.5664 97.3684 41.3408 96.9405 41.1904 96.4428C41.04 95.9451 40.9648 95.3937 40.9648 94.7885C40.9648 93.9793 41.0973 93.2739 41.3623 92.6723C41.6308 92.0672 42.0373 91.5981 42.5815 91.2651C43.1294 90.9285 43.8205 90.7602 44.6548 90.7602C45.4712 90.7602 46.1497 90.9267 46.6904 91.2597C47.2311 91.5927 47.6357 92.0618 47.9043 92.6669C48.1764 93.2685 48.3125 93.9793 48.3125 94.7993ZM42.3183 94.7993C42.3183 95.4044 42.4007 95.929 42.5654 96.373C42.7301 96.8134 42.9826 97.1536 43.3227 97.3935C43.6665 97.6298 44.1069 97.748 44.644 97.748C45.1847 97.748 45.6251 97.6298 45.9653 97.3935C46.3055 97.1536 46.5561 96.8134 46.7173 96.373C46.8784 95.929 46.959 95.4044 46.959 94.7993C46.959 93.879 46.7746 93.1593 46.4057 92.6401C46.0405 92.1173 45.4569 91.8559 44.6548 91.8559C44.1177 91.8559 43.6754 91.9741 43.3281 92.2104C42.9844 92.4467 42.7301 92.7851 42.5654 93.2255C42.4007 93.6624 42.3183 94.187 42.3183 94.7993ZM56.5517 98.7363H54.9673L51.1216 92.4682H51.0732C51.0875 92.6795 51.1001 92.9033 51.1108 93.1396C51.1251 93.3759 51.1359 93.6194 51.1431 93.8701C51.1538 94.1207 51.1627 94.3749 51.1699 94.6328V98.7363H49.999V90.8837H51.5727L55.4131 97.1088H55.4507C55.4435 96.9262 55.4346 96.7167 55.4238 96.4804C55.4131 96.2441 55.4023 96.0006 55.3916 95.7499C55.3844 95.4957 55.3791 95.2504 55.3755 95.0141V90.8837H56.5517V98.7363ZM61.7886 90.8837L58.8613 98.7363H57.6797L60.6069 90.8837H61.7886ZM69.8828 94.7993C69.8828 95.4044 69.8058 95.9558 69.6518 96.4536C69.5014 96.9477 69.2741 97.3738 68.9697 97.7319C68.6653 98.0864 68.284 98.3603 67.8257 98.5536C67.3673 98.747 66.8302 98.8437 66.2143 98.8437C65.5877 98.8437 65.0434 98.747 64.5815 98.5536C64.1232 98.3603 63.7418 98.0846 63.4375 97.7265C63.1367 97.3684 62.9111 96.9405 62.7607 96.4428C62.6103 95.9451 62.5351 95.3937 62.5351 94.7885C62.5351 93.9793 62.6676 93.2739 62.9326 92.6723C63.2012 92.0672 63.6076 91.5981 64.1518 91.2651C64.6997 90.9285 65.3908 90.7602 66.2251 90.7602C67.0415 90.7602 67.72 90.9267 68.2607 91.2597C68.8014 91.5927 69.206 92.0618 69.4746 92.6669C69.7467 93.2685 69.8828 93.9793 69.8828 94.7993ZM63.8887 94.7993C63.8887 95.4044 63.971 95.929 64.1357 96.373C64.3004 96.8134 64.5529 97.1536 64.8931 97.3935C65.2368 97.6298 65.6772 97.748 66.2143 97.748C66.755 97.748 67.1955 97.6298 67.5356 97.3935C67.8758 97.1536 68.1264 96.8134 68.2876 96.373C68.4487 95.929 68.5293 95.4044 68.5293 94.7993C68.5293 93.879 68.3449 93.1593 67.9761 92.6401C67.6108 92.1173 67.0272 91.8559 66.2251 91.8559C65.688 91.8559 65.2458 91.9741 64.8984 92.2104C64.5547 92.4467 64.3004 92.7851 64.1357 93.2255C63.971 93.6624 63.8887 94.187 63.8887 94.7993ZM72.8476 98.7363H71.5693V90.8837H76.0058V91.9687H72.8476V94.4179H75.8017V95.4975H72.8476V98.7363ZM78.7129 98.7363H77.4346V90.8837H81.8711V91.9687H78.7129V94.4179H81.667V95.4975H78.7129V98.7363ZM92.7099 98.7363H91.1255L87.2798 92.4682H87.2314C87.2458 92.6795 87.2583 92.9033 87.269 93.1396C87.2834 93.3759 87.2941 93.6194 87.3013 93.8701C87.312 94.1207 87.3209 94.3749 87.3281 94.6328V98.7363H86.1572V90.8837H87.7309L91.5713 97.1088H91.6089C91.6017 96.9262 91.5928 96.7167 91.582 96.4804C91.5713 96.2441 91.5605 96.0006 91.5498 95.7499C91.5426 95.4957 91.5373 95.2504 91.5337 95.0141V90.8837H92.7099V98.7363ZM97.0122 92.6777C97.5421 92.6777 97.9969 92.7869 98.3764 93.0053C98.756 93.2237 99.0478 93.5335 99.2519 93.9345C99.456 94.3356 99.5581 94.8154 99.5581 95.374V96.0507H95.5889C95.6032 96.6272 95.7571 97.0712 96.0508 97.3828C96.348 97.6943 96.7633 97.85 97.2969 97.85C97.6764 97.85 98.0166 97.8142 98.3174 97.7426C98.6217 97.6674 98.935 97.5582 99.2573 97.415V98.4409C98.9601 98.5805 98.6575 98.6826 98.3496 98.747C98.0417 98.8115 97.6728 98.8437 97.2431 98.8437C96.6595 98.8437 96.1457 98.7309 95.7016 98.5053C95.2612 98.2761 94.9157 97.936 94.665 97.4848C94.418 97.0336 94.2944 96.4732 94.2944 95.8036C94.2944 95.1376 94.4072 94.5719 94.6328 94.1064C94.8584 93.6409 95.1753 93.2864 95.5835 93.0429C95.9917 92.7994 96.4679 92.6777 97.0122 92.6777ZM97.0122 93.6284C96.6147 93.6284 96.2925 93.7573 96.0454 94.0151C95.8019 94.2729 95.6587 94.6507 95.6157 95.1484H98.3227C98.3192 94.8512 98.269 94.588 98.1723 94.3588C98.0792 94.1297 97.936 93.9506 97.7427 93.8217C97.5529 93.6928 97.3094 93.6284 97.0122 93.6284ZM103.194 97.8232C103.359 97.8232 103.522 97.8089 103.683 97.7802C103.844 97.748 103.991 97.7104 104.124 97.6674V98.6235C103.984 98.6843 103.803 98.7363 103.581 98.7792C103.359 98.8222 103.128 98.8437 102.888 98.8437C102.552 98.8437 102.249 98.7882 101.98 98.6772C101.712 98.5626 101.499 98.3675 101.341 98.0917C101.184 97.816 101.105 97.4347 101.105 96.9477V93.7519H100.294V93.1879L101.164 92.7421L101.578 91.4692H102.373V92.7905H104.075V93.7519H102.373V96.9316C102.373 97.2324 102.448 97.4562 102.598 97.603C102.749 97.7498 102.947 97.8232 103.194 97.8232Z" fill="#303030"/>
<defs>
<filter id="filter0_d_127_603" x="0.879883" y="0" width="142.978" height="142.978" filterUnits="userSpaceOnUse" color-interpolation-filters="sRGB">
<feFlood flood-opacity="0" result="BackgroundImageFix"/>
<feColorMatrix in="SourceAlpha" type="matrix" values="0 0 0 0 0 0 0 0 0 0 0 0 0 0 0 0 0 0 127 0" result="hardAlpha"/>
<feOffset/>
<feGaussianBlur stdDeviation="3"/>
<feComposite in2="hardAlpha" operator="out"/>
<feColorMatrix type="matrix" values="0 0 0 0 0 0 0 0 0 0 0 0 0 0 0 0 0 0 0.25 0"/>
<feBlend mode="normal" in2="BackgroundImageFix" result="effect1_dropShadow_127_603"/>
<feBlend mode="normal" in="SourceGraphic" in2="effect1_dropShadow_127_603" result="shape"/>
</filter>
</defs>
</svg>
