<svg width="144" height="143" viewBox="0 0 144 143" fill="none" xmlns="http://www.w3.org/2000/svg">
<g filter="url(#filter0_d_127_604)">
<rect x="6.82422" y="6" width="130.978" height="130.978" rx="15" fill="white"/>
</g>
<path d="M53.8605 84.7363H51.9244V75.456H57.2438V77.0683H53.8605V79.4614H57.0089V81.0673H53.8605V84.7363ZM61.8141 77.4936C62.7662 77.4936 63.4962 77.7009 64.004 78.1157C64.5118 78.5304 64.7657 79.1609 64.7657 80.0073V84.7363H63.4137L63.0392 83.7714H62.9884C62.7853 84.0253 62.5779 84.2327 62.3663 84.3935C62.1547 84.5543 61.9114 84.6728 61.6363 84.749C61.3613 84.8251 61.027 84.8632 60.6334 84.8632C60.2145 84.8632 59.8378 84.7828 59.5035 84.622C59.1734 84.4612 58.9132 84.2158 58.7228 83.8857C58.5323 83.5514 58.4371 83.1282 58.4371 82.6161C58.4371 81.8629 58.7016 81.3085 59.2306 80.9531C59.7595 80.5934 60.553 80.3945 61.6109 80.3564L62.8424 80.3183V80.0073C62.8424 79.6349 62.7451 79.3619 62.5504 79.1884C62.3557 79.0149 62.0849 78.9282 61.7379 78.9282C61.3951 78.9282 61.0587 78.9768 60.7286 79.0742C60.3985 79.1715 60.0685 79.2942 59.7384 79.4423L59.0973 78.1347C59.4739 77.9358 59.895 77.7792 60.3605 77.665C60.8302 77.5507 61.3147 77.4936 61.8141 77.4936ZM62.8424 81.4482L62.0934 81.4736C61.4671 81.4905 61.0312 81.6026 60.7857 81.81C60.5445 82.0174 60.4239 82.2903 60.4239 82.6288C60.4239 82.9251 60.5107 83.1367 60.6842 83.2636C60.8577 83.3863 61.0841 83.4477 61.3634 83.4477C61.7781 83.4477 62.1272 83.325 62.4107 83.0795C62.6985 82.8341 62.8424 82.485 62.8424 82.0322V81.4482ZM75.0997 77.5063C75.9037 77.5063 76.511 77.7136 76.9215 78.1284C77.3362 78.5388 77.5436 79.199 77.5436 80.1088V84.7363H75.6012V80.5912C75.6012 80.0834 75.5144 79.7005 75.3409 79.4423C75.1674 79.1842 74.8987 79.0551 74.5348 79.0551C74.0227 79.0551 73.6588 79.2392 73.443 79.6074C73.2272 79.9713 73.1192 80.4939 73.1192 81.1752V84.7363H71.1832V80.5912C71.1832 80.2527 71.1451 79.9692 71.069 79.7407C70.9928 79.5121 70.8764 79.3408 70.7198 79.2265C70.5633 79.1122 70.3622 79.0551 70.1168 79.0551C69.7571 79.0551 69.4736 79.1461 69.2662 79.3281C69.0631 79.5058 68.9171 79.7703 68.8282 80.1215C68.7436 80.4685 68.7013 80.8938 68.7013 81.3974V84.7363H66.7652V77.6396H68.2442L68.5045 78.5473H68.6124C68.7563 78.3019 68.9361 78.103 69.152 77.9506C69.372 77.7983 69.6132 77.6861 69.8756 77.6142C70.138 77.5423 70.4046 77.5063 70.6754 77.5063C71.1959 77.5063 71.636 77.5909 71.9957 77.7602C72.3596 77.9295 72.6389 78.1918 72.8336 78.5473H73.005C73.2166 78.1834 73.5149 77.9189 73.9 77.7538C74.2893 77.5888 74.6892 77.5063 75.0997 77.5063ZM81.4728 77.6396V84.7363H79.5367V77.6396H81.4728ZM80.5079 74.8593C80.7957 74.8593 81.0432 74.927 81.2506 75.0624C81.4579 75.1936 81.5616 75.4412 81.5616 75.8051C81.5616 76.1648 81.4579 76.4145 81.2506 76.5541C81.0432 76.6896 80.7957 76.7573 80.5079 76.7573C80.2159 76.7573 79.9662 76.6896 79.7589 76.5541C79.5558 76.4145 79.4542 76.1648 79.4542 75.8051C79.4542 75.4412 79.5558 75.1936 79.7589 75.0624C79.9662 74.927 80.2159 74.8593 80.5079 74.8593ZM85.4464 84.7363H83.5104V74.8593H85.4464V84.7363ZM86.4684 77.6396H88.5885L89.9278 81.6323C89.9702 81.7592 90.0061 81.8883 90.0357 82.0195C90.0654 82.1507 90.0908 82.2861 90.1119 82.4257C90.1331 82.5654 90.15 82.7114 90.1627 82.8637H90.2008C90.2262 82.6352 90.26 82.4215 90.3023 82.2226C90.3489 82.0237 90.406 81.8269 90.4737 81.6323L91.7877 77.6396H93.8634L90.8609 85.644C90.679 86.1349 90.442 86.5432 90.15 86.8691C89.858 87.1992 89.5216 87.4467 89.1407 87.6118C88.7641 87.7768 88.3494 87.8593 87.8966 87.8593C87.6765 87.8593 87.4861 87.8466 87.3253 87.8212C87.1645 87.8001 87.027 87.7768 86.9127 87.7514V86.2153C87.0016 86.2364 87.1137 86.2555 87.2491 86.2724C87.3845 86.2893 87.5263 86.2978 87.6744 86.2978C87.9453 86.2978 88.178 86.2407 88.3727 86.1264C88.5673 86.0121 88.7302 85.8577 88.8614 85.663C88.9926 85.4726 89.0963 85.2631 89.1725 85.0346L89.2867 84.6855L86.4684 77.6396Z" fill="#09B3F1"/>
<path d="M53.756 90.8837C54.7693 90.8837 55.5087 91.0914 55.9742 91.5068C56.4397 91.9221 56.6725 92.504 56.6725 93.2524C56.6725 93.5925 56.6188 93.9166 56.5113 94.2245C56.4075 94.5289 56.2356 94.7993 55.9957 95.0356C55.7558 95.2683 55.4389 95.4527 55.045 95.5888C54.6547 95.7249 54.1731 95.7929 53.6002 95.7929H52.7623V98.7363H51.4732V90.8837H53.756ZM53.67 91.9526H52.7623V94.7187H53.4659C53.8705 94.7187 54.2143 94.6721 54.4972 94.579C54.7801 94.4824 54.9949 94.3302 55.1417 94.1225C55.2885 93.9148 55.3619 93.6409 55.3619 93.3007C55.3619 92.846 55.2241 92.5076 54.9483 92.2856C54.6762 92.0636 54.2501 91.9526 53.67 91.9526ZM60.443 92.6777C61.1949 92.6777 61.7625 92.8442 62.1456 93.1772C62.5323 93.5102 62.7257 94.0294 62.7257 94.7348V98.7363H61.8287L61.587 97.893H61.544C61.3758 98.1078 61.2021 98.2851 61.0231 98.4247C60.844 98.5644 60.6363 98.6682 60.4 98.7363C60.1673 98.8079 59.8826 98.8437 59.546 98.8437C59.1915 98.8437 58.8746 98.7792 58.5953 98.6503C58.316 98.5178 58.0958 98.3173 57.9347 98.0488C57.7735 97.7802 57.693 97.44 57.693 97.0283C57.693 96.416 57.9204 95.9558 58.3751 95.6479C58.8334 95.3399 59.5245 95.1699 60.4483 95.1376L61.4796 95.1V94.7885C61.4796 94.3767 61.3829 94.0831 61.1896 93.9077C60.9998 93.7322 60.7312 93.6445 60.3839 93.6445C60.0867 93.6445 59.7984 93.6874 59.5191 93.7734C59.2398 93.8593 58.9677 93.9649 58.7027 94.0903L58.2945 93.1987C58.5846 93.0447 58.914 92.9194 59.2828 92.8227C59.6552 92.726 60.0419 92.6777 60.443 92.6777ZM61.4742 95.895L60.7062 95.9218C60.0759 95.9433 59.6337 96.0507 59.3795 96.2441C59.1253 96.4374 58.9981 96.7024 58.9981 97.039C58.9981 97.3326 59.0859 97.5475 59.2613 97.6835C59.4368 97.816 59.6677 97.8823 59.9542 97.8823C60.3911 97.8823 60.7527 97.7587 61.0392 97.5117C61.3292 97.261 61.4742 96.894 61.4742 96.4106V95.895ZM66.8883 98.8437C66.3261 98.8437 65.8391 98.7345 65.4273 98.5161C65.0156 98.2976 64.6987 97.9628 64.4767 97.5117C64.2547 97.0605 64.1437 96.4876 64.1437 95.7929C64.1437 95.0696 64.2654 94.4788 64.5089 94.0204C64.7524 93.5621 65.089 93.2237 65.5187 93.0053C65.9519 92.7869 66.4479 92.6777 67.0065 92.6777C67.3609 92.6777 67.6814 92.7135 67.9679 92.7851C68.2579 92.8531 68.5032 92.9373 68.7037 93.0375L68.3277 94.0473C68.1093 93.9578 67.8855 93.8826 67.6564 93.8217C67.4272 93.7608 67.207 93.7304 66.9957 93.7304C66.6484 93.7304 66.3583 93.8074 66.1256 93.9614C65.8964 94.1153 65.7245 94.3445 65.61 94.6489C65.499 94.9532 65.4435 95.331 65.4435 95.7822C65.4435 96.219 65.5008 96.5878 65.6153 96.8886C65.7299 97.1858 65.9 97.4114 66.1256 97.5654C66.3512 97.7158 66.6287 97.791 66.9581 97.791C67.284 97.791 67.5758 97.7516 67.8336 97.6728C68.0914 97.594 68.3349 97.492 68.5641 97.3666V98.4623C68.3385 98.5912 68.0968 98.6861 67.839 98.747C67.5812 98.8115 67.2643 98.8437 66.8883 98.8437ZM71.2228 90.3788V94.4179C71.2228 94.6005 71.2156 94.801 71.2013 95.0195C71.187 95.2343 71.1726 95.4366 71.1583 95.6264H71.1852C71.2783 95.5011 71.3893 95.3543 71.5182 95.186C71.6507 95.0177 71.776 94.8709 71.8941 94.7455L73.7096 92.7905H75.1598L72.7804 95.3471L75.3155 98.7363H73.8331L71.9317 96.1259L71.2228 96.7328V98.7363H69.9606V90.3788H71.2228ZM78.5973 92.6777C79.3492 92.6777 79.9168 92.8442 80.2999 93.1772C80.6866 93.5102 80.88 94.0294 80.88 94.7348V98.7363H79.983L79.7413 97.893H79.6983C79.5301 98.1078 79.3564 98.2851 79.1773 98.4247C78.9983 98.5644 78.7906 98.6682 78.5543 98.7363C78.3216 98.8079 78.0369 98.8437 77.7003 98.8437C77.3458 98.8437 77.0289 98.7792 76.7496 98.6503C76.4703 98.5178 76.2501 98.3173 76.089 98.0488C75.9278 97.7802 75.8473 97.44 75.8473 97.0283C75.8473 96.416 76.0746 95.9558 76.5294 95.6479C76.9877 95.3399 77.6788 95.1699 78.6026 95.1376L79.6339 95.1V94.7885C79.6339 94.3767 79.5372 94.0831 79.3439 93.9077C79.1541 93.7322 78.8855 93.6445 78.5382 93.6445C78.241 93.6445 77.9527 93.6874 77.6734 93.7734C77.3941 93.8593 77.122 93.9649 76.857 94.0903L76.4488 93.1987C76.7389 93.0447 77.0683 92.9194 77.4371 92.8227C77.8095 92.726 78.1962 92.6777 78.5973 92.6777ZM79.6285 95.895L78.8605 95.9218C78.2302 95.9433 77.788 96.0507 77.5338 96.2441C77.2796 96.4374 77.1524 96.7024 77.1524 97.039C77.1524 97.3326 77.2402 97.5475 77.4156 97.6835C77.5911 97.816 77.822 97.8823 78.1085 97.8823C78.5454 97.8823 78.907 97.7587 79.1935 97.5117C79.4835 97.261 79.6285 96.894 79.6285 96.4106V95.895ZM84.3443 101.379C83.5387 101.379 82.921 101.234 82.4913 100.944C82.0616 100.654 81.8468 100.247 81.8468 99.7245C81.8468 99.3593 81.9614 99.0496 82.1905 98.7953C82.4197 98.5447 82.7473 98.371 83.1734 98.2744C83.0123 98.2027 82.8727 98.0917 82.7545 97.9413C82.6399 97.7874 82.5826 97.6173 82.5826 97.4311C82.5826 97.2091 82.6453 97.0193 82.7706 96.8618C82.8959 96.7042 83.0839 96.552 83.3346 96.4052C83.0231 96.2727 82.7724 96.0579 82.5826 95.7607C82.3964 95.4599 82.3033 95.1072 82.3033 94.7026C82.3033 94.2729 82.3946 93.9077 82.5773 93.6069C82.7599 93.3025 83.0266 93.0716 83.3775 92.914C83.7285 92.7529 84.1528 92.6723 84.6505 92.6723C84.7579 92.6723 84.8743 92.6795 84.9996 92.6938C85.1285 92.7045 85.2467 92.7189 85.3541 92.7368C85.4651 92.7511 85.5493 92.7672 85.6065 92.7851H87.6637V93.4887L86.6539 93.6767C86.7506 93.8128 86.8276 93.9685 86.8849 94.144C86.9422 94.3159 86.9708 94.5038 86.9708 94.7079C86.9708 95.3238 86.7578 95.809 86.3316 96.1635C85.9091 96.5144 85.3255 96.6899 84.5807 96.6899C84.4016 96.6827 84.228 96.6684 84.0597 96.6469C83.9308 96.7257 83.8323 96.8134 83.7643 96.9101C83.6962 97.0032 83.6622 97.1088 83.6622 97.227C83.6622 97.3237 83.6962 97.4024 83.7643 97.4633C83.8323 97.5206 83.9326 97.5636 84.065 97.5922C84.2011 97.6209 84.3658 97.6352 84.5592 97.6352H85.5851C86.2368 97.6352 86.7345 97.7731 87.0782 98.0488C87.422 98.3245 87.5939 98.7291 87.5939 99.2626C87.5939 99.9394 87.3146 100.46 86.756 100.826C86.1974 101.194 85.3935 101.379 84.3443 101.379ZM84.3927 100.493C84.8331 100.493 85.2037 100.45 85.5045 100.364C85.8053 100.278 86.0327 100.154 86.1866 99.9931C86.3406 99.8356 86.4176 99.6476 86.4176 99.4291C86.4176 99.2358 86.3692 99.0872 86.2726 98.9833C86.1759 98.8795 86.0309 98.8079 85.8375 98.7685C85.6441 98.7291 85.4042 98.7094 85.1178 98.7094H84.1832C83.9505 98.7094 83.7446 98.7452 83.5655 98.8168C83.3865 98.892 83.2468 98.9995 83.1466 99.1391C83.0499 99.2787 83.0016 99.447 83.0016 99.644C83.0016 99.9161 83.1215 100.126 83.3614 100.272C83.6049 100.419 83.9487 100.493 84.3927 100.493ZM84.6398 95.8627C85.0086 95.8627 85.2825 95.7625 85.4615 95.562C85.6406 95.3578 85.7301 95.0714 85.7301 94.7026C85.7301 94.3015 85.637 94.0008 85.4508 93.8002C85.2682 93.5997 84.996 93.4995 84.6344 93.4995C84.2799 93.4995 84.0095 93.6015 83.8233 93.8056C83.6407 94.0097 83.5494 94.3123 83.5494 94.7133C83.5494 95.075 83.6407 95.3578 83.8233 95.562C84.0095 95.7625 84.2817 95.8627 84.6398 95.8627ZM91.1173 92.6777C91.6472 92.6777 92.102 92.7869 92.4815 93.0053C92.8611 93.2237 93.1529 93.5335 93.357 93.9345C93.5611 94.3356 93.6632 94.8154 93.6632 95.374V96.0507H89.694C89.7083 96.6272 89.8622 97.0712 90.1559 97.3828C90.4531 97.6943 90.8684 97.85 91.402 97.85C91.7815 97.85 92.1217 97.8142 92.4225 97.7426C92.7268 97.6674 93.0401 97.5582 93.3624 97.415V98.4409C93.0652 98.5805 92.7626 98.6826 92.4547 98.747C92.1468 98.8115 91.7779 98.8437 91.3482 98.8437C90.7646 98.8437 90.2508 98.7309 89.8067 98.5053C89.3663 98.2761 89.0208 97.936 88.7701 97.4848C88.5231 97.0336 88.3995 96.4732 88.3995 95.8036C88.3995 95.1376 88.5123 94.5719 88.7379 94.1064C88.9635 93.6409 89.2804 93.2864 89.6886 93.0429C90.0968 92.7994 90.573 92.6777 91.1173 92.6777ZM91.1173 93.6284C90.7198 93.6284 90.3976 93.7573 90.1505 94.0151C89.907 94.2729 89.7638 94.6507 89.7208 95.1484H92.4278C92.4243 94.8512 92.3741 94.588 92.2774 94.3588C92.1843 94.1297 92.0411 93.9506 91.8478 93.8217C91.658 93.6928 91.4145 93.6284 91.1173 93.6284Z" fill="#303030"/>
<path d="M85.4876 52.8527C86.6003 53.4173 87.5201 54.2112 88.2468 55.2344C88.9735 56.2577 89.4333 57.4103 89.6264 58.6923H87.7528C87.6279 58.0219 87.3952 57.3985 87.0545 56.8222C86.7139 56.2459 86.2994 55.7519 85.8112 55.3403C85.3229 54.9286 84.7722 54.5993 84.159 54.3523C83.5459 54.1053 82.91 53.9877 82.2514 53.9995C81.5815 53.9995 80.9457 54.1171 80.3438 54.3523C79.742 54.5875 79.1913 54.911 78.6917 55.3226C78.1921 55.7343 77.7777 56.2341 77.4484 56.8222C77.1191 57.4103 76.8863 58.0336 76.7501 58.6923H74.8765C75.0582 57.422 75.5124 56.2753 76.2391 55.2521C76.9658 54.2288 77.8912 53.429 79.0153 52.8527C78.3681 52.3235 77.8685 51.6825 77.5165 50.9297C77.1645 50.177 76.9828 49.3772 76.9715 48.5304C76.9715 48.0011 77.0396 47.4895 77.1759 46.9955C77.3121 46.5015 77.5165 46.0369 77.789 45.6018C78.0615 45.1666 78.3851 44.7785 78.7599 44.4374C79.1346 44.0963 79.5547 43.8081 80.0202 43.5729C79.7137 43.1142 79.3617 42.7084 78.9642 42.3556C78.5668 42.0028 78.1353 41.6911 77.6698 41.4206C77.2043 41.1501 76.716 40.956 76.205 40.8384C75.6941 40.7208 75.1661 40.6502 74.621 40.6267C73.7127 40.6267 72.844 40.809 72.0151 41.1736C71.1862 41.5382 70.4652 42.0733 69.852 42.779C70.1246 43.5435 70.2608 44.3315 70.2608 45.1431C70.2608 46.2251 70.028 47.2425 69.5625 48.1952C69.0969 49.1479 68.444 49.9476 67.6038 50.5945C68.3419 50.9826 69.0061 51.459 69.5966 52.0235C70.187 52.5881 70.698 53.2232 71.1295 53.9289C71.5609 54.6346 71.8845 55.3873 72.1003 56.1871C72.316 56.9869 72.4296 57.8219 72.4409 58.6923H70.2608C70.2608 57.7631 70.0905 56.8869 69.7498 56.0636C69.4092 55.2403 68.9437 54.5228 68.3532 53.9113C67.7628 53.2997 67.0644 52.8116 66.2583 52.4469C65.4521 52.0823 64.6061 51.9059 63.7205 51.9177C62.8121 51.9177 61.9662 52.0941 61.1827 52.4469C60.3992 52.7998 59.7066 53.282 59.1047 53.8936C58.5029 54.5052 58.0317 55.2285 57.6911 56.0636C57.3504 56.8987 57.1801 57.7749 57.1801 58.6923H55C55 57.8337 55.1135 57.0045 55.3406 56.2047C55.5677 55.405 55.8913 54.6522 56.3115 53.9465C56.7316 53.2408 57.2369 52.6057 57.8273 52.0412C58.4178 51.4766 59.0877 50.9944 59.8371 50.5945C58.9969 49.9476 58.344 49.1479 57.8784 48.1952C57.4129 47.2425 57.1801 46.2251 57.1801 45.1431C57.1801 44.2139 57.3504 43.3377 57.6911 42.5144C58.0317 41.6911 58.4973 40.9736 59.0877 40.362C59.6782 39.7504 60.3708 39.2623 61.1656 38.8977C61.9605 38.5331 62.8121 38.3567 63.7205 38.3685C64.6856 38.3685 65.5997 38.5802 66.4626 39.0036C67.3256 39.427 68.075 40.0151 68.7109 40.7678C69.0061 40.4738 69.324 40.2091 69.6647 39.9739C70.0053 39.7387 70.363 39.5152 70.7377 39.3035C69.8975 38.6566 69.2446 37.8568 68.779 36.9042C68.3135 35.9515 68.0807 34.9341 68.0807 33.8521C68.0807 32.9229 68.251 32.0467 68.5917 31.2234C68.9323 30.4001 69.3978 29.6826 69.9883 29.071C70.5787 28.4594 71.2714 27.9713 72.0662 27.6067C72.8611 27.2421 73.7127 27.0657 74.621 27.0775C75.5181 27.0775 76.364 27.2539 77.1588 27.6067C77.9537 27.9596 78.6463 28.4418 79.2368 29.0534C79.8272 29.665 80.2984 30.3883 80.6504 31.2234C81.0024 32.0584 81.1727 32.9347 81.1614 33.8521C81.1614 34.9341 80.9286 35.9515 80.4631 36.9042C79.9975 37.8568 79.3446 38.6566 78.5044 39.3035C79.2992 39.7387 80.0146 40.2679 80.6504 40.8913C81.2863 41.5147 81.8256 42.238 82.2685 43.0613C82.9952 43.0613 83.6765 43.2024 84.3123 43.4847C84.9482 43.767 85.5103 44.161 85.9985 44.6667C86.4868 45.1725 86.8615 45.7488 87.1226 46.3957C87.3838 47.0426 87.5201 47.7541 87.5314 48.5304C87.5314 49.3772 87.3554 50.177 87.0034 50.9297C86.6514 51.6825 86.1461 52.3235 85.4876 52.8527ZM63.7205 49.6595C64.3223 49.6595 64.8843 49.5419 65.4066 49.3066C65.929 49.0714 66.3945 48.748 66.8033 48.3363C67.2121 47.9247 67.5243 47.4483 67.7401 46.9073C67.9558 46.3663 68.0693 45.7782 68.0807 45.1431C68.0807 44.5197 67.9671 43.9375 67.7401 43.3965C67.513 42.8555 67.2007 42.3732 66.8033 41.9498C66.4059 41.5264 65.946 41.203 65.4237 40.9795C64.9014 40.756 64.3336 40.6384 63.7205 40.6267C63.1187 40.6267 62.5566 40.7443 62.0343 40.9795C61.512 41.2147 61.0464 41.5382 60.6376 41.9498C60.2289 42.3615 59.9166 42.8378 59.7009 43.3789C59.4851 43.9199 59.3716 44.508 59.3602 45.1431C59.3602 45.7664 59.4738 46.3486 59.7009 46.8897C59.928 47.4307 60.2402 47.9129 60.6376 48.3363C61.0351 48.7597 61.4949 49.0832 62.0172 49.3066C62.5396 49.5301 63.1073 49.6477 63.7205 49.6595ZM70.2608 33.8521C70.2608 34.4754 70.3744 35.0576 70.6015 35.5986C70.8286 36.1397 71.1408 36.6219 71.5382 37.0453C71.9356 37.4687 72.3955 37.7922 72.9178 38.0156C73.4401 38.2391 74.0079 38.3567 74.621 38.3685C75.2228 38.3685 75.7849 38.2509 76.3072 38.0156C76.8295 37.7804 77.2951 37.457 77.7039 37.0453C78.1126 36.6336 78.4249 36.1573 78.6406 35.6163C78.8564 35.0753 78.9699 34.4872 78.9813 33.8521C78.9813 33.2287 78.8677 32.6465 78.6406 32.1055C78.4135 31.5645 78.1013 31.0822 77.7039 30.6588C77.3064 30.2354 76.8466 29.912 76.3243 29.6885C75.8019 29.465 75.2342 29.3474 74.621 29.3357C74.0192 29.3357 73.4572 29.4533 72.9349 29.6885C72.4125 29.9237 71.947 30.2472 71.5382 30.6588C71.1295 31.0705 70.8172 31.5468 70.6015 32.0878C70.3857 32.6289 70.2722 33.2169 70.2608 33.8521ZM82.2514 44.9667C81.7745 44.9667 81.3317 45.0607 80.9229 45.2489C80.5142 45.4371 80.1508 45.69 79.8329 46.0075C79.5149 46.3251 79.2651 46.7015 79.0835 47.1366C78.9018 47.5718 78.811 48.0364 78.811 48.5304C78.811 49.0244 78.9018 49.4831 79.0835 49.9065C79.2651 50.3299 79.5093 50.7062 79.8159 51.0356C80.1224 51.3649 80.4858 51.6236 80.9059 51.8118C81.326 52 81.7745 52.0941 82.2514 52.0941C82.7283 52.0941 83.1712 52 83.58 51.8118C83.9887 51.6236 84.3521 51.3708 84.67 51.0532C84.9879 50.7357 85.2378 50.3593 85.4194 49.9241C85.6011 49.4889 85.6919 49.0244 85.6919 48.5304C85.6919 48.0364 85.6011 47.5777 85.4194 47.1543C85.2378 46.7309 84.9936 46.3545 84.687 46.0252C84.3805 45.6959 84.0171 45.4371 83.597 45.2489C83.1769 45.0607 82.7283 44.9667 82.2514 44.9667Z" fill="#303030"/>
<defs>
<filter id="filter0_d_127_604" x="0.824219" y="0" width="142.978" height="142.978" filterUnits="userSpaceOnUse" color-interpolation-filters="sRGB">
<feFlood flood-opacity="0" result="BackgroundImageFix"/>
<feColorMatrix in="SourceAlpha" type="matrix" values="0 0 0 0 0 0 0 0 0 0 0 0 0 0 0 0 0 0 127 0" result="hardAlpha"/>
<feOffset/>
<feGaussianBlur stdDeviation="3"/>
<feComposite in2="hardAlpha" operator="out"/>
<feColorMatrix type="matrix" values="0 0 0 0 0 0 0 0 0 0 0 0 0 0 0 0 0 0 0.25 0"/>
<feBlend mode="normal" in2="BackgroundImageFix" result="effect1_dropShadow_127_604"/>
<feBlend mode="normal" in="SourceGraphic" in2="effect1_dropShadow_127_604" result="shape"/>
</filter>
</defs>
</svg>
