<svg width="200" height="62" viewBox="0 0 200 62" fill="none" xmlns="http://www.w3.org/2000/svg">
<path d="M188.284 1.7605H11.7158C5.34729 1.7605 0.18457 6.92444 0.18457 13.2945V50.2815C0.18457 56.6516 5.34729 61.8155 11.7158 61.8155H188.284C194.653 61.8155 199.816 56.6516 199.816 50.2815V13.2945C199.816 6.92444 194.653 1.7605 188.284 1.7605Z" fill="white" stroke="#C6C6C6" stroke-width="2" stroke-miterlimit="10"/>
<path d="M51.1023 34.2286C50.1415 29.346 54.3866 26.7378 54.6965 26.5552C54.0455 25.6864 53.2894 25.0298 52.5259 24.5539C49.9884 22.9712 46.8977 22.8237 45.0591 23.6334C45.0407 23.6408 45.0222 23.65 45.0038 23.6574C43.2095 24.4414 41.1699 24.4414 39.3755 23.6574C39.3571 23.65 39.3386 23.6408 39.3202 23.6334C37.4816 22.8237 34.3909 22.9712 31.8534 24.5539C29.3159 26.1365 26.8503 29.7057 28.1006 36.549C29.3509 43.3923 33.9133 47.5499 33.9133 47.5499C33.9133 47.5499 36.0838 49.4258 38.9532 48.1752C40.7457 47.3931 41.5627 47.2585 41.9223 47.2677C42.1011 47.2714 42.28 47.2714 42.4571 47.2677C42.8167 47.2585 43.6336 47.395 45.4261 48.1752C48.2955 49.4258 50.4661 47.5499 50.4661 47.5499C50.4661 47.5499 53.6619 44.6355 55.4378 39.6718C53.9127 38.9672 51.7311 37.4233 51.1023 34.2286Z" fill="#191919"/>
<path d="M41.384 23.3751C41.384 23.3751 40.5799 16.5558 48.2625 15.3347L48.2312 16.2496C48.1039 20.0254 45.1515 23.0984 41.384 23.3751Z" fill="#191919"/>
<path d="M72.0571 17.4429C72.0571 18.284 71.952 19.0255 71.7399 19.6675C71.5278 20.3094 71.2162 20.8461 70.8049 21.2796C70.3918 21.7131 69.8829 22.0396 69.278 22.2627C68.6731 22.4841 67.9484 22.5948 67.1093 22.5948H65.138C65.0458 22.5948 64.9499 22.5597 64.8521 22.4896C64.7544 22.4195 64.7046 22.2923 64.7046 22.106V13.0713C64.7046 12.885 64.7544 12.7578 64.8521 12.6877C64.9499 12.6176 65.0458 12.5825 65.138 12.5825H67.2421C68.0922 12.5825 68.8114 12.6987 69.396 12.9311C69.9806 13.1636 70.4711 13.4919 70.8658 13.918C71.2604 14.3441 71.5573 14.8532 71.7583 15.449C71.9593 16.0447 72.0608 16.7088 72.0608 17.4411L72.0571 17.4429ZM71.0447 17.489C71.0447 16.9062 70.9709 16.3657 70.8252 15.8695C70.6777 15.3715 70.4509 14.9435 70.1447 14.582C69.8386 14.2205 69.4495 13.9383 68.9811 13.7354C68.5127 13.5325 67.9134 13.4292 67.1868 13.4292H65.6488V21.7518H67.196C67.8765 21.7518 68.4518 21.6688 68.9239 21.5009C69.396 21.3331 69.7888 21.0749 70.1023 20.7244C70.4177 20.3739 70.6519 19.9312 70.8105 19.3981C70.9691 18.8651 71.0465 18.2287 71.0465 17.4909L71.0447 17.489Z" fill="#191919"/>
<path d="M80.3392 18.8651C80.3392 19.4221 80.2672 19.9349 80.1234 20.4034C79.9796 20.8719 79.7638 21.2796 79.478 21.6263C79.1921 21.9713 78.8344 22.2406 78.4065 22.4343C77.9787 22.6279 77.4808 22.7239 76.9146 22.7239C76.3485 22.7239 75.8893 22.6372 75.4799 22.4656C75.0705 22.2922 74.7275 22.0451 74.4509 21.7223C74.1743 21.3995 73.9696 21.0103 73.8331 20.551C73.6966 20.0917 73.6284 19.5734 73.6284 18.996C73.6284 18.4187 73.6985 17.9262 73.8405 17.4577C73.9825 16.9891 74.1964 16.5815 74.4822 16.2403C74.7681 15.8972 75.1258 15.6297 75.5537 15.4397C75.9815 15.2497 76.4813 15.1538 77.0529 15.1538C77.6246 15.1538 78.0783 15.2387 78.4877 15.4084C78.8971 15.5781 79.2382 15.8252 79.513 16.1462C79.7859 16.469 79.9925 16.8582 80.1308 17.3175C80.2691 17.7768 80.3392 18.2914 80.3392 18.8651ZM79.3655 18.9499C79.3655 18.5533 79.3267 18.1733 79.2493 17.8137C79.1718 17.4521 79.0427 17.1349 78.862 16.8582C78.6813 16.5815 78.4397 16.3638 78.1354 16.2015C77.8312 16.0392 77.4531 15.958 76.9995 15.958C76.5827 15.958 76.2212 16.0337 75.917 16.1831C75.6127 16.3325 75.3637 16.5409 75.1701 16.8065C74.9765 17.0721 74.8345 17.3857 74.7404 17.7454C74.6464 18.1051 74.6021 18.4961 74.6021 18.913C74.6021 19.3299 74.6408 19.6988 74.7183 20.0622C74.7957 20.4255 74.9248 20.7447 75.1056 21.0176C75.2863 21.2906 75.5279 21.5083 75.8321 21.6669C76.1364 21.8274 76.5145 21.9067 76.9681 21.9067C77.3849 21.9067 77.7463 21.8311 78.0506 21.6817C78.3549 21.5323 78.6038 21.3257 78.7975 21.0638C78.9911 20.8018 79.1331 20.4883 79.2272 20.1286C79.3194 19.767 79.3655 19.376 79.3655 18.9536V18.9499Z" fill="#191919"/>
<path d="M91.6137 15.4232C91.6137 15.449 91.6101 15.4785 91.6027 15.5117C91.5953 15.5449 91.5861 15.5818 91.575 15.6243L89.41 22.438C89.399 22.4786 89.3805 22.5137 89.3529 22.5395C89.3252 22.5653 89.2865 22.5856 89.2404 22.6022C89.1943 22.6188 89.1334 22.628 89.0578 22.6336C88.9822 22.6391 88.8937 22.6409 88.7904 22.6409C88.6816 22.6409 88.5894 22.6372 88.5119 22.6299C88.4345 22.6225 88.3718 22.6114 88.322 22.5948C88.2722 22.5801 88.2335 22.5579 88.2058 22.5321C88.1782 22.5063 88.1579 22.4749 88.1486 22.4399L86.524 16.9173L86.5092 16.8546L86.4945 16.9173L84.9786 22.4399C84.9675 22.4805 84.9473 22.5155 84.9159 22.5413C84.8846 22.5672 84.8421 22.5874 84.7887 22.604C84.7352 22.6188 84.6688 22.6299 84.5913 22.6354C84.5139 22.6409 84.4272 22.6428 84.3276 22.6428C84.2244 22.6428 84.1377 22.6391 84.0639 22.6317C83.992 22.6243 83.9311 22.6133 83.8814 22.5967C83.8316 22.5819 83.7947 22.5598 83.7689 22.534C83.7431 22.5081 83.7246 22.4768 83.7154 22.4417L81.5651 15.6279C81.5504 15.5911 81.5375 15.556 81.5301 15.5191C81.5227 15.4822 81.519 15.4527 81.519 15.4269C81.519 15.39 81.5264 15.3605 81.543 15.3347C81.5578 15.3088 81.5836 15.2904 81.6205 15.2775C81.6574 15.2646 81.7035 15.2553 81.7588 15.2498C81.8159 15.2443 81.8842 15.2424 81.9672 15.2424C82.076 15.2424 82.1626 15.2461 82.2309 15.2535C82.2991 15.2609 82.3489 15.2719 82.3821 15.2885C82.4153 15.3033 82.4393 15.3254 82.4559 15.3513C82.4706 15.3771 82.4835 15.4084 82.4946 15.4435L84.3424 21.5545L84.3571 21.608L84.3719 21.5545L86.05 15.4435C86.0611 15.4066 86.074 15.3771 86.0925 15.3513C86.1109 15.3254 86.1367 15.3051 86.1699 15.2885C86.2031 15.2738 86.2492 15.2609 86.3082 15.2535C86.3672 15.2461 86.4428 15.2424 86.5369 15.2424C86.6254 15.2424 86.6973 15.2461 86.7526 15.2535C86.808 15.2609 86.8559 15.2719 86.891 15.2885C86.9278 15.3033 86.9537 15.3254 86.9684 15.3513C86.9832 15.3771 86.9961 15.4084 87.0071 15.4435L88.8162 21.5545L88.831 21.608L88.8383 21.5545L90.6788 15.4435C90.6898 15.4066 90.7027 15.3771 90.7212 15.3513C90.7396 15.3254 90.7655 15.3051 90.8023 15.2885C90.8392 15.2738 90.889 15.2609 90.9535 15.2535C91.0181 15.2461 91.1011 15.2424 91.2043 15.2424C91.2873 15.2424 91.3537 15.2443 91.4054 15.2498C91.457 15.2553 91.4976 15.2646 91.5289 15.2812C91.5603 15.2959 91.5805 15.3162 91.5916 15.3383C91.6027 15.3605 91.6064 15.3918 91.6064 15.4269L91.6137 15.4232Z" fill="#191919"/>
<path d="M99.0677 22.4381C99.0677 22.4694 99.0603 22.4971 99.0437 22.5229C99.029 22.5488 99.0031 22.569 98.9699 22.5857C98.9367 22.6004 98.8906 22.6133 98.8316 22.6244C98.7726 22.6355 98.6989 22.6391 98.6122 22.6391C98.52 22.6391 98.4425 22.6336 98.3835 22.6244C98.3245 22.6152 98.2784 22.6004 98.2452 22.5857C98.212 22.5709 98.188 22.5488 98.1714 22.5229C98.1567 22.4971 98.1475 22.4694 98.1475 22.4381V18.2841C98.1475 17.8507 98.1143 17.4984 98.046 17.2291C97.9796 16.9579 97.8782 16.7255 97.7436 16.5337C97.609 16.3418 97.4375 16.1906 97.2291 16.0854C97.0207 15.9803 96.7773 15.9268 96.4988 15.9268C96.1429 15.9268 95.787 16.0522 95.4311 16.3049C95.0752 16.5576 94.7008 16.9284 94.3099 17.4191V22.4381C94.3099 22.4694 94.3025 22.4971 94.2859 22.5229C94.2711 22.5488 94.2453 22.569 94.2121 22.5857C94.1789 22.6004 94.1328 22.6133 94.0738 22.6244C94.0148 22.6355 93.9392 22.6391 93.8451 22.6391C93.7566 22.6391 93.6847 22.6336 93.6257 22.6244C93.5667 22.6152 93.5187 22.6004 93.4819 22.5857C93.445 22.5709 93.421 22.5488 93.4081 22.5229C93.3952 22.4971 93.3896 22.4694 93.3896 22.4381V15.438C93.3896 15.4066 93.3952 15.379 93.4081 15.3532C93.421 15.3273 93.445 15.3052 93.4819 15.2867C93.5187 15.2683 93.563 15.2554 93.6165 15.248C93.67 15.2406 93.7419 15.2369 93.8285 15.2369C93.9152 15.2369 93.989 15.2406 94.0443 15.248C94.1015 15.2554 94.1457 15.2683 94.1752 15.2867C94.2047 15.3052 94.2287 15.3273 94.2416 15.3532C94.2545 15.379 94.2601 15.4066 94.2601 15.438V16.4285C94.6621 15.9803 95.0567 15.6557 95.444 15.4546C95.8313 15.2535 96.2148 15.1521 96.5966 15.1521C97.0557 15.1521 97.4412 15.2296 97.7565 15.3845C98.0719 15.5395 98.3245 15.7479 98.5181 16.0117C98.7118 16.2754 98.8501 16.5816 98.9349 16.9321C99.0197 17.2826 99.0621 17.705 99.0621 18.2011V22.4399L99.0677 22.4381Z" fill="#191919"/>
<path d="M102.54 22.438C102.54 22.4694 102.533 22.497 102.516 22.5229C102.5 22.5487 102.476 22.569 102.442 22.5856C102.409 22.6003 102.363 22.6132 102.304 22.6243C102.245 22.6354 102.17 22.6391 102.076 22.6391C101.987 22.6391 101.915 22.6335 101.854 22.6243C101.793 22.6151 101.747 22.6003 101.71 22.5856C101.673 22.5708 101.65 22.5487 101.637 22.5229C101.624 22.497 101.618 22.4694 101.618 22.438V12.0126C101.618 11.9812 101.624 11.9536 101.637 11.9277C101.65 11.9019 101.673 11.8798 101.71 11.8613C101.747 11.8429 101.793 11.83 101.854 11.8226C101.913 11.8152 101.987 11.8115 102.076 11.8115C102.168 11.8115 102.245 11.8152 102.304 11.8226C102.363 11.83 102.409 11.8429 102.442 11.8613C102.476 11.8798 102.5 11.9019 102.516 11.9277C102.531 11.9536 102.54 11.9812 102.54 12.0126V22.438Z" fill="#191919"/>
<path d="M111.309 18.8651C111.309 19.4221 111.237 19.9349 111.093 20.4034C110.949 20.8719 110.734 21.2796 110.448 21.6263C110.162 21.9713 109.804 22.2406 109.376 22.4343C108.948 22.6279 108.451 22.7239 107.884 22.7239C107.318 22.7239 106.859 22.6372 106.45 22.4656C106.04 22.2922 105.697 22.0451 105.421 21.7223C105.144 21.3995 104.939 21.0103 104.803 20.551C104.666 20.0917 104.598 19.5734 104.598 18.996C104.598 18.4187 104.668 17.9262 104.81 17.4577C104.952 16.9891 105.166 16.5815 105.452 16.2403C105.738 15.899 106.096 15.6297 106.523 15.4397C106.951 15.2497 107.451 15.1538 108.023 15.1538C108.594 15.1538 109.048 15.2387 109.457 15.4084C109.867 15.5781 110.208 15.8252 110.483 16.1462C110.756 16.469 110.962 16.8582 111.101 17.3175C111.239 17.7768 111.309 18.2914 111.309 18.8651ZM110.335 18.9499C110.335 18.5533 110.296 18.1733 110.219 17.8137C110.142 17.454 110.012 17.1349 109.832 16.8582C109.651 16.5815 109.409 16.3638 109.105 16.2015C108.801 16.0392 108.423 15.958 107.969 15.958C107.552 15.958 107.191 16.0337 106.887 16.1831C106.582 16.3325 106.333 16.5409 106.14 16.8065C105.946 17.0721 105.804 17.3857 105.71 17.7454C105.616 18.1051 105.572 18.4961 105.572 18.913C105.572 19.3299 105.611 19.6988 105.688 20.0622C105.765 20.4255 105.895 20.7447 106.075 21.0176C106.256 21.2906 106.498 21.5083 106.802 21.6669C107.106 21.8274 107.484 21.9067 107.938 21.9067C108.355 21.9067 108.716 21.8311 109.02 21.6817C109.325 21.5323 109.574 21.3257 109.767 21.0638C109.961 20.8 110.103 20.4883 110.197 20.1286C110.289 19.767 110.335 19.376 110.335 18.9536V18.9499Z" fill="#191919"/>
<path d="M118.276 22.438C118.276 22.4896 118.26 22.5302 118.226 22.5579C118.193 22.5855 118.149 22.6077 118.095 22.6206C118.042 22.6335 117.968 22.639 117.876 22.639C117.788 22.639 117.714 22.6335 117.651 22.6206C117.588 22.6077 117.542 22.5874 117.507 22.5579C117.474 22.5302 117.457 22.4896 117.457 22.438V21.6559C117.142 21.9971 116.795 22.2591 116.417 22.4454C116.039 22.6317 115.645 22.7239 115.239 22.7239C114.874 22.7239 114.544 22.6759 114.252 22.58C113.961 22.4841 113.716 22.3476 113.515 22.1705C113.314 21.9934 113.159 21.7776 113.05 21.5249C112.941 21.2722 112.888 20.9882 112.888 20.6746C112.888 20.2872 112.967 19.9515 113.127 19.6656C113.288 19.3797 113.515 19.1418 113.808 18.9499C114.101 18.7599 114.455 18.6161 114.866 18.5201C115.28 18.4242 115.737 18.3763 116.242 18.3763H117.356V17.7731C117.356 17.4743 117.325 17.2105 117.264 16.9799C117.201 16.7512 117.101 16.5575 116.961 16.4044C116.823 16.2495 116.642 16.1333 116.419 16.0558C116.196 15.9784 115.927 15.9396 115.608 15.9396C115.289 15.9396 115.019 15.9765 114.772 16.0521C114.525 16.1278 114.308 16.2108 114.123 16.303C113.937 16.3952 113.784 16.4801 113.662 16.5538C113.541 16.6295 113.454 16.6664 113.404 16.6664C113.373 16.6664 113.345 16.6608 113.319 16.6516C113.293 16.6424 113.271 16.6221 113.253 16.5944C113.234 16.5668 113.221 16.5299 113.214 16.4856C113.207 16.4413 113.203 16.3897 113.203 16.327C113.203 16.2181 113.21 16.1314 113.227 16.0687C113.244 16.006 113.282 15.9396 113.347 15.8751C113.411 15.8105 113.526 15.7349 113.692 15.6463C113.858 15.5578 114.046 15.4766 114.26 15.4028C114.474 15.3272 114.704 15.2682 114.951 15.2202C115.198 15.1723 115.445 15.1501 115.694 15.1501C116.174 15.1501 116.578 15.2073 116.908 15.3235C117.238 15.4397 117.505 15.6057 117.708 15.8216C117.911 16.0374 118.057 16.3048 118.145 16.6221C118.234 16.9394 118.276 17.299 118.276 17.7012V22.4343V22.438ZM117.356 19.1362H116.08C115.709 19.1362 115.385 19.1694 115.106 19.2377C114.828 19.3059 114.595 19.4018 114.411 19.531C114.225 19.6601 114.088 19.815 113.998 19.9958C113.907 20.1766 113.863 20.3831 113.863 20.6137C113.863 21.0158 113.99 21.3368 114.247 21.5766C114.501 21.8164 114.861 21.9363 115.326 21.9363C115.691 21.9363 116.034 21.8422 116.351 21.654C116.668 21.4659 117.004 21.1763 117.36 20.7834V19.1362H117.356Z" fill="#191919"/>
<path d="M126.473 22.4381C126.473 22.4749 126.468 22.5045 126.455 22.5303C126.442 22.5561 126.418 22.5764 126.385 22.593C126.352 22.6096 126.309 22.6207 126.258 22.628C126.206 22.6354 126.141 22.6391 126.064 22.6391C125.981 22.6391 125.913 22.6354 125.859 22.628C125.806 22.6207 125.762 22.6096 125.728 22.593C125.695 22.5764 125.669 22.5561 125.651 22.5303C125.633 22.5045 125.623 22.4731 125.623 22.4381V21.4328C125.253 21.8349 124.867 22.1503 124.471 22.3809C124.074 22.6096 123.641 22.7258 123.172 22.7258C122.667 22.7258 122.237 22.628 121.882 22.4325C121.526 22.237 121.236 21.9714 121.011 21.6357C120.786 21.3 120.624 20.9071 120.521 20.457C120.417 20.0069 120.366 19.5273 120.366 19.0219C120.366 18.4298 120.43 17.8949 120.559 17.4172C120.688 16.9394 120.878 16.5336 121.131 16.1998C121.384 15.8641 121.695 15.6077 122.066 15.4269C122.437 15.2461 122.868 15.1558 123.357 15.1558C123.779 15.1558 124.166 15.2498 124.517 15.438C124.867 15.6261 125.212 15.9028 125.553 16.2699V12.0551C125.553 12.0237 125.559 11.996 125.572 11.9702C125.585 11.9444 125.609 11.9241 125.645 11.9075C125.682 11.8927 125.728 11.8798 125.789 11.8688C125.848 11.8577 125.922 11.854 126.011 11.854C126.103 11.854 126.18 11.8595 126.239 11.8688C126.298 11.878 126.344 11.8927 126.378 11.9075C126.411 11.9222 126.435 11.9444 126.451 11.9702C126.466 11.996 126.475 12.0237 126.475 12.0551V22.4417L126.473 22.4381ZM125.553 17.3877C125.166 16.9191 124.793 16.5595 124.436 16.3123C124.078 16.0651 123.702 15.9415 123.311 15.9415C122.955 15.9415 122.651 16.0264 122.398 16.1961C122.145 16.3658 121.939 16.5908 121.78 16.8693C121.62 17.1479 121.504 17.4614 121.432 17.8138C121.36 18.1642 121.323 18.5202 121.323 18.8818C121.323 19.2691 121.354 19.6454 121.415 20.0106C121.478 20.3758 121.583 20.7023 121.732 20.9882C121.882 21.2741 122.081 21.5047 122.328 21.6763C122.575 21.8496 122.885 21.9345 123.255 21.9345C123.442 21.9345 123.621 21.9087 123.798 21.857C123.973 21.8054 124.154 21.7205 124.34 21.6025C124.526 21.4844 124.718 21.3313 124.915 21.1432C125.114 20.955 125.326 20.7208 125.553 20.4441V17.3895V17.3877Z" fill="#191919"/>
<path d="M138.829 18.8651C138.829 19.4221 138.757 19.9349 138.613 20.4034C138.469 20.8719 138.254 21.2796 137.968 21.6263C137.682 21.9713 137.324 22.2406 136.896 22.4343C136.468 22.6279 135.971 22.7239 135.404 22.7239C134.838 22.7239 134.379 22.6372 133.97 22.4656C133.56 22.2941 133.217 22.0451 132.941 21.7223C132.664 21.3995 132.459 21.0103 132.323 20.551C132.186 20.0917 132.118 19.5734 132.118 18.996C132.118 18.4187 132.188 17.9262 132.33 17.4577C132.472 16.9891 132.686 16.5815 132.972 16.2403C133.258 15.8972 133.616 15.6297 134.043 15.4397C134.471 15.2497 134.971 15.1538 135.543 15.1538C136.114 15.1538 136.568 15.2387 136.977 15.4084C137.387 15.5781 137.728 15.8252 138.003 16.1462C138.276 16.469 138.482 16.8582 138.621 17.3175C138.759 17.7768 138.829 18.2914 138.829 18.8651ZM137.855 18.9499C137.855 18.5533 137.816 18.1733 137.739 17.8137C137.662 17.454 137.532 17.1349 137.352 16.8582C137.171 16.5815 136.929 16.3638 136.625 16.2015C136.321 16.0392 135.943 15.958 135.489 15.958C135.072 15.958 134.711 16.0337 134.407 16.1831C134.102 16.3325 133.853 16.5409 133.66 16.8065C133.466 17.0721 133.324 17.3857 133.23 17.7454C133.138 18.1069 133.092 18.4961 133.092 18.913C133.092 19.3299 133.131 19.6988 133.208 20.0622C133.285 20.4255 133.415 20.7447 133.595 21.0176C133.776 21.2906 134.018 21.5083 134.322 21.6669C134.626 21.8256 135.004 21.9067 135.458 21.9067C135.875 21.9067 136.236 21.8311 136.54 21.6817C136.845 21.5323 137.094 21.3257 137.287 21.0638C137.481 20.8018 137.623 20.4883 137.717 20.1286C137.809 19.767 137.855 19.376 137.855 18.9536V18.9499Z" fill="#191919"/>
<path d="M146.571 22.4381C146.571 22.4694 146.563 22.4971 146.547 22.5229C146.532 22.5488 146.506 22.569 146.473 22.5857C146.44 22.6004 146.394 22.6133 146.335 22.6244C146.276 22.6355 146.202 22.6391 146.115 22.6391C146.023 22.6391 145.945 22.6336 145.886 22.6244C145.827 22.6152 145.781 22.6004 145.748 22.5857C145.715 22.5709 145.691 22.5488 145.674 22.5229C145.66 22.4971 145.65 22.4694 145.65 22.4381V18.2841C145.65 17.8507 145.617 17.4984 145.549 17.2291C145.483 16.9579 145.381 16.7255 145.247 16.5337C145.112 16.3418 144.94 16.1906 144.732 16.0854C144.524 15.9803 144.28 15.9268 144.002 15.9268C143.646 15.9268 143.29 16.0522 142.934 16.3049C142.578 16.5576 142.204 16.9284 141.813 17.4191V22.4381C141.813 22.4694 141.805 22.4971 141.789 22.5229C141.774 22.5488 141.748 22.569 141.715 22.5857C141.682 22.6004 141.636 22.6133 141.577 22.6244C141.518 22.6355 141.442 22.6391 141.348 22.6391C141.26 22.6391 141.188 22.6336 141.129 22.6244C141.07 22.6133 141.022 22.6004 140.985 22.5857C140.948 22.5709 140.924 22.5488 140.911 22.5229C140.898 22.4971 140.893 22.4694 140.893 22.4381V15.438C140.893 15.4066 140.898 15.379 140.911 15.3532C140.924 15.3273 140.948 15.3052 140.985 15.2867C141.022 15.2683 141.066 15.2554 141.119 15.248C141.173 15.2406 141.245 15.2369 141.331 15.2369C141.418 15.2369 141.492 15.2406 141.547 15.248C141.603 15.2554 141.649 15.2683 141.678 15.2867C141.708 15.3052 141.732 15.3273 141.745 15.3532C141.757 15.379 141.763 15.4066 141.763 15.438V16.4285C142.165 15.9803 142.56 15.6557 142.947 15.4546C143.334 15.2535 143.718 15.1521 144.099 15.1521C144.559 15.1521 144.944 15.2296 145.259 15.3845C145.575 15.5395 145.827 15.7479 146.021 16.0117C146.215 16.2754 146.353 16.5816 146.438 16.9321C146.523 17.2826 146.565 17.705 146.565 18.2011V22.4399L146.571 22.4381Z" fill="#191919"/>
<path d="M156.073 22.0212C156.073 22.13 156.064 22.2167 156.046 22.2849C156.027 22.3513 155.999 22.4048 155.961 22.4436C155.922 22.4823 155.865 22.5192 155.791 22.5524C155.717 22.5856 155.631 22.6151 155.533 22.6372C155.435 22.6594 155.332 22.6778 155.223 22.6907C155.114 22.7036 155.009 22.7092 154.906 22.7092C154.561 22.7092 154.266 22.6631 154.024 22.5708C153.783 22.4786 153.584 22.3384 153.429 22.1484C153.274 21.9603 153.161 21.7223 153.093 21.4327C153.023 21.1431 152.988 20.8038 152.988 20.4127V16.0577H151.944C151.872 16.0577 151.815 16.0264 151.775 15.9618C151.734 15.8972 151.712 15.8013 151.712 15.6722C151.712 15.6058 151.717 15.5468 151.727 15.4988C151.738 15.449 151.752 15.4084 151.773 15.3752C151.793 15.342 151.817 15.318 151.847 15.3014C151.874 15.2867 151.907 15.2775 151.942 15.2775H152.986V13.5602C152.986 13.5288 152.992 13.5012 153.005 13.4753C153.018 13.4495 153.042 13.4274 153.078 13.4089C153.115 13.3905 153.161 13.3776 153.222 13.3702C153.281 13.3628 153.355 13.3591 153.442 13.3591C153.534 13.3591 153.611 13.3628 153.67 13.3702C153.729 13.3776 153.775 13.3905 153.809 13.4089C153.842 13.4274 153.866 13.4495 153.882 13.4753C153.897 13.5012 153.906 13.5288 153.906 13.5602V15.2775H155.839C155.876 15.2775 155.907 15.2848 155.935 15.3014C155.963 15.3162 155.988 15.342 156.009 15.3752C156.029 15.4084 156.046 15.4509 156.055 15.4988C156.066 15.5486 156.07 15.6058 156.07 15.6722C156.07 15.8013 156.047 15.8972 156.003 15.9618C155.959 16.0264 155.904 16.0577 155.837 16.0577H153.905V20.2891C153.905 20.8203 153.98 21.2243 154.133 21.5028C154.284 21.7814 154.563 21.9197 154.965 21.9197C155.088 21.9197 155.201 21.9068 155.301 21.881C155.402 21.8551 155.491 21.8275 155.568 21.7961C155.645 21.7648 155.712 21.7371 155.765 21.7113C155.819 21.6854 155.867 21.6725 155.909 21.6725C155.935 21.6725 155.959 21.6781 155.979 21.6873C155.999 21.6965 156.016 21.7168 156.029 21.7445C156.042 21.7721 156.053 21.809 156.06 21.8533C156.068 21.8976 156.071 21.9529 156.071 22.0193L156.073 22.0212Z" fill="#191919"/>
<path d="M163.583 22.438C163.583 22.4694 163.575 22.497 163.559 22.5229C163.542 22.5487 163.518 22.569 163.485 22.5856C163.452 22.6003 163.406 22.6132 163.347 22.6243C163.288 22.6354 163.214 22.6391 163.125 22.6391C163.033 22.6391 162.956 22.6335 162.897 22.6243C162.838 22.6132 162.791 22.6003 162.758 22.5856C162.725 22.5708 162.701 22.5487 162.685 22.5229C162.67 22.497 162.661 22.4694 162.661 22.438V18.2841C162.661 17.8506 162.627 17.4983 162.559 17.229C162.493 16.9578 162.391 16.7254 162.257 16.5336C162.122 16.3417 161.951 16.1905 161.742 16.0854C161.534 15.9802 161.29 15.9267 161.012 15.9267C160.656 15.9267 160.3 16.0522 159.944 16.3049C159.588 16.5576 159.214 16.9283 158.823 17.419V22.438C158.823 22.4694 158.816 22.497 158.799 22.5229C158.782 22.5487 158.758 22.569 158.725 22.5856C158.692 22.6003 158.646 22.6132 158.587 22.6243C158.528 22.6354 158.452 22.6391 158.358 22.6391C158.27 22.6391 158.198 22.6335 158.137 22.6243C158.078 22.6132 158.03 22.6003 157.993 22.5856C157.956 22.5708 157.932 22.5487 157.919 22.5229C157.906 22.497 157.901 22.4694 157.901 22.438V12.0126C157.901 11.9812 157.906 11.9536 157.919 11.9277C157.932 11.9019 157.956 11.8798 157.993 11.8613C158.03 11.8429 158.076 11.83 158.137 11.8226C158.196 11.8152 158.27 11.8115 158.358 11.8115C158.45 11.8115 158.528 11.8152 158.587 11.8226C158.646 11.83 158.692 11.8429 158.725 11.8613C158.758 11.8798 158.782 11.9019 158.799 11.9277C158.814 11.9536 158.823 11.9812 158.823 12.0126V16.3823C159.205 15.9599 159.586 15.6482 159.968 15.4508C160.35 15.2516 160.732 15.1539 161.113 15.1539C161.573 15.1539 161.958 15.2313 162.273 15.3863C162.589 15.5412 162.841 15.7496 163.035 16.0134C163.229 16.2772 163.367 16.5834 163.452 16.9338C163.537 17.2843 163.579 17.7067 163.579 18.2029V22.4417L163.583 22.438Z" fill="#191919"/>
<path d="M171.84 18.5791C171.84 18.7654 171.791 18.8927 171.693 18.9628C171.595 19.0329 171.499 19.068 171.407 19.068H166.636C166.636 19.5014 166.679 19.8925 166.764 20.2429C166.848 20.5934 166.989 20.8941 167.186 21.1449C167.381 21.3958 167.638 21.5876 167.951 21.7204C168.265 21.8532 168.652 21.9215 169.111 21.9215C169.436 21.9215 169.727 21.8938 169.985 21.8366C170.243 21.7794 170.467 21.7167 170.655 21.6466C170.843 21.5765 170.998 21.5138 171.119 21.4567C171.241 21.3995 171.328 21.3718 171.378 21.3718C171.409 21.3718 171.437 21.3792 171.462 21.3958C171.488 21.4105 171.509 21.4364 171.525 21.4696C171.54 21.5028 171.553 21.5452 171.56 21.5968C171.568 21.6485 171.571 21.713 171.571 21.7905C171.571 21.8274 171.569 21.8606 171.564 21.8957C171.558 21.9289 171.553 21.9602 171.545 21.9879C171.538 22.0156 171.527 22.0432 171.51 22.069C171.494 22.0949 171.474 22.1207 171.448 22.1465C171.422 22.1723 171.343 22.2166 171.208 22.2812C171.073 22.3457 170.898 22.4103 170.682 22.4748C170.467 22.5394 170.214 22.5966 169.928 22.6482C169.642 22.6999 169.334 22.7257 169.004 22.7257C168.462 22.7257 167.984 22.6445 167.566 22.4822C167.149 22.3199 166.797 22.0801 166.515 21.7629C166.233 21.4456 166.017 21.0527 165.869 20.5842C165.722 20.1157 165.648 19.5715 165.648 18.9517C165.648 18.332 165.724 17.8284 165.877 17.3581C166.028 16.8895 166.247 16.4911 166.529 16.1628C166.812 15.8344 167.155 15.5854 167.555 15.412C167.955 15.2387 168.399 15.1538 168.888 15.1538C169.414 15.1538 169.862 15.2423 170.234 15.4176C170.605 15.5928 170.911 15.8289 171.151 16.1259C171.391 16.4229 171.566 16.7659 171.676 17.1588C171.787 17.5499 171.842 17.9631 171.842 18.3965V18.5828L171.84 18.5791ZM170.889 18.308C170.904 17.5646 170.734 16.9855 170.378 16.5686C170.022 16.1517 169.504 15.9414 168.824 15.9414C168.473 15.9414 168.165 16.0078 167.9 16.1388C167.634 16.2698 167.409 16.445 167.227 16.6608C167.044 16.8766 166.904 17.1293 166.804 17.4152C166.706 17.7011 166.649 18 166.635 18.308H170.887H170.889Z" fill="#191919"/>
<path d="M93.0098 37.5484C92.8236 36.7202 92.5156 35.9805 92.0952 35.3534C91.6655 34.7133 91.1049 34.2005 90.4244 33.8316C89.7421 33.4608 88.9141 33.2727 87.9625 33.2727C87.5236 33.2727 87.1031 33.3225 86.7104 33.4203C86.3157 33.5199 85.9266 33.673 85.5541 33.8796C85.189 34.0806 84.8201 34.3352 84.4587 34.6358C84.3148 34.7557 84.1673 34.8848 84.0161 35.0232V33.2727H81.7441V51.7662H84.1507V45.9448C84.2595 46.0407 84.3665 46.1311 84.4697 46.2141C84.7906 46.4742 85.1189 46.6937 85.4416 46.8671C85.7735 47.046 86.1202 47.1788 86.4688 47.2636C86.8155 47.3485 87.1898 47.3909 87.5826 47.3909C88.4918 47.3909 89.3142 47.2138 90.0279 46.8671C90.7434 46.5185 91.352 46.0204 91.837 45.384C92.3146 44.7569 92.6816 43.9877 92.925 43.0968C93.1648 42.2225 93.2865 41.2301 93.2865 40.1474C93.2865 39.2325 93.1943 38.3581 93.0117 37.5484H93.0098ZM90.607 42.1967C90.4853 42.7759 90.2916 43.3015 90.0316 43.759C89.7808 44.198 89.4544 44.5577 89.0561 44.827C88.6706 45.0889 88.2151 45.2162 87.6638 45.2162C87.0607 45.2162 86.4964 45.0244 85.9377 44.6278C85.3752 44.2294 84.774 43.6502 84.1507 42.9087V37.8251C84.4974 37.399 84.8294 37.0356 85.1429 36.7423C85.4785 36.4287 85.8012 36.1705 86.1073 35.9768C86.4005 35.7887 86.6901 35.654 86.9648 35.5747C87.2415 35.4954 87.5273 35.4548 87.815 35.4548C88.3848 35.4548 88.8551 35.5821 89.2183 35.8329C89.5945 36.0949 89.9007 36.449 90.1275 36.8899C90.3654 37.351 90.5387 37.8859 90.6402 38.4836C90.7453 39.0978 90.7988 39.7471 90.7988 40.4111C90.7988 41.0069 90.7342 41.6101 90.6088 42.2022L90.607 42.1967Z" fill="#191919"/>
<path d="M107.494 37.5486C107.306 36.7204 106.999 35.9807 106.579 35.3536C106.151 34.7135 105.589 34.2008 104.908 33.8318C104.226 33.4611 103.398 33.2729 102.446 33.2729C102.007 33.2729 101.585 33.3227 101.194 33.4205C100.799 33.5201 100.41 33.6732 100.038 33.8798C99.6727 34.0809 99.3039 34.3354 98.9425 34.6361C98.7986 34.756 98.6492 34.8851 98.498 35.0234V33.2729H96.2261V51.7665H98.6345V45.945C98.7433 46.041 98.8484 46.1313 98.9535 46.2143C99.2744 46.4744 99.6027 46.6939 99.9272 46.8673C100.259 47.0462 100.604 47.179 100.953 47.2639C101.299 47.3487 101.674 47.3912 102.066 47.3912C102.976 47.3912 103.798 47.2141 104.512 46.8673C105.227 46.5187 105.836 46.0207 106.321 45.3843C106.798 44.7571 107.165 43.988 107.409 43.097C107.649 42.2227 107.77 41.2304 107.77 40.1476C107.77 39.2327 107.678 38.3584 107.495 37.5486H107.494ZM105.091 42.1969C104.969 42.7761 104.775 43.3018 104.515 43.7592C104.266 44.1982 103.938 44.5579 103.542 44.8272C103.156 45.0892 102.701 45.2164 102.149 45.2164C101.546 45.2164 100.982 45.0246 100.423 44.628C99.859 44.2296 99.2596 43.6504 98.6363 42.9089V37.8253C98.9812 37.3992 99.315 37.0358 99.6285 36.7426C99.9623 36.429 100.287 36.1707 100.593 35.9771C100.886 35.7889 101.174 35.6543 101.45 35.5749C101.725 35.4956 102.013 35.4551 102.301 35.4551C102.869 35.4551 103.341 35.5823 103.702 35.8332C104.078 36.0951 104.384 36.4493 104.611 36.8901C104.851 37.3513 105.023 37.8862 105.124 38.4838C105.229 39.0981 105.281 39.7473 105.281 40.4114C105.281 41.0072 105.218 41.6103 105.093 42.2024L105.091 42.1969Z" fill="#191919"/>
<path d="M148.664 35.1598C148.144 34.5474 147.487 34.0734 146.711 33.7506C145.944 33.4333 145.044 33.271 144.035 33.271C143.026 33.271 142.034 33.4518 141.234 33.8096C140.428 34.1693 139.747 34.6784 139.207 35.3258C138.672 35.9677 138.266 36.7351 138.003 37.6094C137.743 38.469 137.612 39.4189 137.612 40.4334C137.612 41.4479 137.739 42.4421 137.99 43.2832C138.244 44.141 138.637 44.8825 139.157 45.4893C139.681 46.1017 140.339 46.5776 141.114 46.9041C141.881 47.2269 142.781 47.3911 143.791 47.3911C144.802 47.3911 145.779 47.2085 146.582 46.8451C147.386 46.4817 148.068 45.9671 148.608 45.3141C149.143 44.6685 149.551 43.8993 149.818 43.0268C150.082 42.1673 150.216 41.2173 150.216 40.201C150.216 39.1846 150.087 38.2052 149.831 37.3641C149.571 36.5082 149.18 35.7667 148.665 35.1617L148.664 35.1598ZM147.71 40.3504C147.71 41.0587 147.633 41.7209 147.478 42.3222C147.328 42.9051 147.096 43.4142 146.786 43.8348C146.486 44.2443 146.091 44.5707 145.615 44.8032C145.138 45.0393 144.555 45.1573 143.884 45.1573C143.153 45.1573 142.541 45.03 142.065 44.781C141.591 44.532 141.21 44.1908 140.931 43.7684C140.642 43.3312 140.431 42.811 140.308 42.2226C140.179 41.6121 140.112 40.9591 140.112 40.2821C140.112 39.6052 140.19 38.9246 140.345 38.3251C140.494 37.7404 140.728 37.2294 141.038 36.8052C141.339 36.392 141.732 36.0637 142.207 35.8312C142.685 35.5951 143.268 35.4771 143.939 35.4771C144.669 35.4771 145.28 35.6062 145.755 35.8589C146.229 36.1116 146.611 36.4565 146.891 36.8845C147.181 37.3272 147.391 37.8473 147.517 38.4339C147.646 39.0389 147.712 39.6845 147.712 40.3522L147.71 40.3504Z" fill="#191919"/>
<path d="M73.4401 29.3091H70.578L64.6123 47.3636H67.0539L68.3817 42.1896H75.5571L76.9328 47.3636H79.4058L73.4401 29.3091ZM69.147 40.013L71.9242 32.0888L74.7697 40.013H69.147Z" fill="#191919"/>
<path d="M126.626 40.0405C126.372 39.4945 126.027 39.0112 125.605 38.6036C125.191 38.2052 124.717 37.8547 124.196 37.5632C123.696 37.2829 123.178 37.0173 122.659 36.7738C122.15 36.5358 121.645 36.2942 121.153 36.0544C120.684 35.8275 120.26 35.5674 119.893 35.2852C119.545 35.0178 119.261 34.706 119.051 34.3593C118.853 34.0328 118.754 33.6307 118.754 33.1603C118.754 32.8393 118.811 32.5295 118.923 32.2417C119.034 31.9576 119.196 31.7179 119.419 31.5057C119.642 31.2954 119.93 31.1239 120.277 30.9985C120.631 30.8694 121.057 30.8048 121.544 30.8048C122.031 30.8048 122.497 30.8657 122.884 30.9856C123.286 31.1091 123.633 31.2493 123.919 31.4006C124.216 31.5574 124.465 31.7012 124.658 31.8267L125.654 29.746C125.538 29.628 125.339 29.4989 125.027 29.3347C124.741 29.1853 124.415 29.0488 124.057 28.9289C123.701 28.8108 123.32 28.7112 122.925 28.6374C122.521 28.56 122.117 28.5212 121.721 28.5212C120.939 28.5212 120.209 28.6282 119.552 28.8403C118.885 29.0543 118.3 29.3716 117.819 29.7792C117.332 30.1924 116.948 30.7015 116.681 31.2918C116.413 31.8802 116.279 32.5516 116.279 33.2857C116.279 34.0199 116.41 34.7042 116.67 35.2631C116.924 35.8128 117.265 36.2979 117.684 36.7074C118.092 37.1058 118.56 37.4581 119.076 37.7551C119.574 38.041 120.089 38.3084 120.609 38.5538C121.116 38.7917 121.621 39.0334 122.106 39.2731C122.571 39.5019 122.991 39.7583 123.355 40.0349C123.7 40.2987 123.98 40.6086 124.19 40.9535C124.387 41.28 124.487 41.6821 124.487 42.1525C124.487 42.6229 124.404 43.0397 124.242 43.3994C124.081 43.7554 123.853 44.0598 123.565 44.3014C123.27 44.5486 122.91 44.7423 122.499 44.8751C122.079 45.0116 121.605 45.0798 121.096 45.0798C120.458 45.0798 119.895 45.006 119.421 44.8585C118.932 44.7072 118.508 44.5412 118.162 44.366C117.811 44.1889 117.524 44.0229 117.308 43.8753L116.812 46.3692C117.096 46.5278 117.446 46.6846 117.854 46.8377C118.261 46.9889 118.728 47.1199 119.244 47.2287C119.768 47.3375 120.33 47.3929 120.917 47.3929C121.78 47.3929 122.591 47.2711 123.325 47.0332C124.07 46.7915 124.723 46.4337 125.269 45.9726C125.818 45.5059 126.252 44.9304 126.556 44.2627C126.86 43.5968 127.013 42.8368 127.013 42.0031C127.013 41.2579 126.882 40.5994 126.622 40.046L126.626 40.0405Z" fill="#191919"/>
<path d="M134.932 44.9969C134.812 45.0448 134.67 45.0891 134.511 45.1315C134.368 45.1684 134.202 45.1869 134.017 45.1869C133.274 45.1869 133.023 44.8844 132.9 44.6575C132.665 44.2277 132.546 43.5729 132.546 42.7078V35.6542H135.474V33.4906H132.546V30.8621L130.137 31.9227V33.4906H128.832V35.6542H130.137V42.9255C130.137 43.643 130.204 44.2794 130.333 44.8143C130.469 45.3787 130.694 45.8546 131.004 46.2309C131.319 46.6146 131.727 46.9041 132.216 47.0904C132.686 47.2712 133.256 47.3616 133.908 47.3616C134.104 47.3616 134.309 47.3487 134.513 47.3247C134.718 47.3007 134.915 47.2657 135.102 47.2214C135.297 47.1753 135.474 47.1163 135.627 47.048L135.256 44.8548C135.17 44.8954 135.061 44.9434 134.932 44.995V44.9969Z" fill="#191919"/>
<path d="M158.524 33.2729C158.489 33.2729 158.456 33.2729 158.424 33.2729C158.122 33.2729 157.821 33.308 157.534 33.3799C157.233 33.4537 156.925 33.5921 156.617 33.7931C156.32 33.9868 156.007 34.2561 155.688 34.5955C155.59 34.6988 155.49 34.8113 155.387 34.9349V33.2729H153.062V47.3635H155.47V38.2735C155.783 37.7737 156.077 37.3439 156.337 36.9953C156.606 36.6356 156.862 36.346 157.102 36.132C157.329 35.9291 157.545 35.7815 157.74 35.6948C157.928 35.6118 158.111 35.5713 158.303 35.5713C158.358 35.5713 158.417 35.5731 158.487 35.5786L158.909 35.61V33.284L158.526 33.2729H158.524Z" fill="#191919"/>
<path d="M170.575 44.3292C170.52 44.3513 170.463 44.3772 170.4 44.4067C170.197 44.5007 169.934 44.6096 169.615 44.7276C169.301 44.8438 168.923 44.9508 168.49 45.0467C168.065 45.1408 167.577 45.1869 167.036 45.1869C166.286 45.1869 165.652 45.0781 165.148 44.8641C164.659 44.6557 164.257 44.355 163.957 43.9695C163.649 43.5766 163.424 43.0934 163.287 42.5326C163.171 42.0549 163.103 41.5255 163.081 40.95H171.079C171.324 40.95 171.571 40.8633 171.811 40.6936C172.093 40.4925 172.235 40.1587 172.235 39.6975V39.371C172.235 38.576 172.132 37.8069 171.927 37.0856C171.719 36.3478 171.383 35.6893 170.929 35.1267C170.472 34.5604 169.882 34.1048 169.178 33.7728C168.475 33.4408 167.621 33.2729 166.64 33.2729C165.727 33.2729 164.884 33.4371 164.136 33.7618C163.381 34.0882 162.727 34.5678 162.19 35.1858C161.659 35.8 161.246 36.5526 160.962 37.425C160.684 38.2864 160.542 39.2714 160.542 40.3523C160.542 41.4333 160.678 42.4828 160.947 43.3424C161.222 44.2185 161.631 44.9656 162.166 45.5632C162.705 46.1664 163.378 46.6275 164.169 46.9337C164.947 47.2362 165.847 47.3893 166.843 47.3893C167.444 47.3893 168.016 47.3414 168.539 47.2473C169.056 47.1551 169.517 47.0481 169.91 46.93C170.162 46.8544 170.382 46.7806 170.575 46.705V44.3292ZM163.35 37.7755C163.505 37.3199 163.732 36.9159 164.02 36.5747C164.305 36.2372 164.661 35.9605 165.078 35.7539C165.489 35.551 165.976 35.4477 166.529 35.4477C167.616 35.4477 168.414 35.7631 168.965 36.4124C169.463 36.9971 169.733 37.8069 169.768 38.8269H163.107C163.153 38.4654 163.234 38.1149 163.348 37.7755H163.35Z" fill="#191919"/>
</svg>
