<svg width="144" height="143" viewBox="0 0 144 143" fill="none" xmlns="http://www.w3.org/2000/svg">
<g filter="url(#filter0_d_127_606)">
<rect x="6.71387" y="6" width="130.978" height="130.978" rx="15" fill="white"/>
</g>
<path d="M63.297 84.7363H61.3609V75.456H66.6803V77.0683H63.297V79.4614H66.4454V81.0673H63.297V84.7363ZM71.3585 75.3227C71.8579 75.3227 72.3022 75.401 72.6915 75.5576C73.0808 75.7141 73.3876 75.9426 73.6119 76.2431C73.8404 76.5436 73.9547 76.9096 73.9547 77.3412C73.9547 77.9379 73.777 78.4394 73.4215 78.8456C73.0703 79.2519 72.6301 79.6074 72.1012 79.912L73.9039 81.6703C74.0816 81.3784 74.2319 81.0694 74.3546 80.7436C74.4815 80.4177 74.5916 80.0898 74.6847 79.7597H76.7032C76.572 80.2464 76.3795 80.7669 76.1256 81.3212C75.8759 81.8714 75.5564 82.3898 75.1671 82.8764L77.0777 84.7363H74.6847L73.9547 84.019C73.705 84.1925 73.4363 84.3427 73.1485 84.4697C72.865 84.5966 72.5603 84.6939 72.2345 84.7617C71.9129 84.8294 71.5722 84.8632 71.2125 84.8632C70.51 84.8632 69.907 84.7532 69.4034 84.5331C68.8998 84.3131 68.5148 84.0063 68.2481 83.6127C67.9815 83.2149 67.8482 82.7537 67.8482 82.2289C67.8482 81.7888 67.916 81.4122 68.0514 81.0991C68.1868 80.7817 68.3815 80.5045 68.6354 80.2675C68.8893 80.0263 69.194 79.8041 69.5494 79.601C69.3251 79.3386 69.1453 79.0932 69.0099 78.8647C68.8787 78.6362 68.7835 78.4098 68.7242 78.1855C68.6692 77.957 68.6417 77.7179 68.6417 77.4682C68.6417 77.0281 68.756 76.6494 68.9845 76.332C69.2172 76.0104 69.5367 75.7628 69.943 75.5893C70.3535 75.4116 70.8253 75.3227 71.3585 75.3227ZM70.6793 80.7563C70.5185 80.879 70.3767 81.006 70.254 81.1371C70.1355 81.2683 70.0445 81.408 69.9811 81.5561C69.9176 81.7042 69.8858 81.8671 69.8858 82.0449C69.8858 82.4173 70.0255 82.7092 70.3048 82.9208C70.5841 83.1324 70.9311 83.2382 71.3458 83.2382C71.6251 83.2382 71.8854 83.2044 72.1266 83.1367C72.3678 83.0689 72.5878 82.9737 72.7867 82.851L70.6793 80.7563ZM71.3458 76.8207C71.13 76.8207 70.9226 76.8758 70.7237 76.9858C70.5291 77.0958 70.4317 77.301 70.4317 77.6015C70.4317 77.8131 70.4868 78.0204 70.5968 78.2236C70.7068 78.4225 70.8528 78.6256 71.0348 78.8329C71.3987 78.6341 71.678 78.4352 71.8727 78.2363C72.0673 78.0331 72.1647 77.8025 72.1647 77.5444C72.1647 77.2862 72.0758 77.1022 71.8981 76.9921C71.7245 76.8779 71.5405 76.8207 71.3458 76.8207ZM80.1817 84.7363H78.2457V75.456H83.565V77.0683H80.1817V79.4614H83.3302V81.0673H80.1817V84.7363Z" fill="#09B3F1"/>
<path d="M51.3253 98.7363L50.5572 96.5556H47.5548L46.7867 98.7363H45.4278L48.3497 90.8515H49.7784L52.6949 98.7363H51.3253ZM50.2242 95.4492L49.4776 93.3007C49.449 93.2076 49.4078 93.0769 49.3541 92.9086C49.3004 92.7368 49.2467 92.5631 49.193 92.3876C49.1393 92.2086 49.0945 92.0582 49.0587 91.9365C49.0229 92.0833 48.9781 92.248 48.9244 92.4306C48.8743 92.6096 48.8242 92.7779 48.774 92.9355C48.7275 93.093 48.6917 93.2148 48.6666 93.3007L47.9147 95.4492H50.2242ZM55.9981 98.8437C55.436 98.8437 54.949 98.7345 54.5372 98.5161C54.1254 98.2976 53.8085 97.9628 53.5865 97.5117C53.3645 97.0605 53.2535 96.4876 53.2535 95.7929C53.2535 95.0696 53.3753 94.4788 53.6188 94.0204C53.8622 93.5621 54.1988 93.2237 54.6285 93.0053C55.0618 92.7869 55.5577 92.6777 56.1163 92.6777C56.4708 92.6777 56.7913 92.7135 57.0777 92.7851C57.3678 92.8531 57.6131 92.9373 57.8136 93.0375L57.4376 94.0473C57.2192 93.9578 56.9954 93.8826 56.7662 93.8217C56.537 93.7608 56.3168 93.7304 56.1056 93.7304C55.7582 93.7304 55.4682 93.8074 55.2355 93.9614C55.0063 94.1153 54.8344 94.3445 54.7198 94.6489C54.6088 94.9532 54.5533 95.331 54.5533 95.7822C54.5533 96.219 54.6106 96.5878 54.7252 96.8886C54.8398 97.1858 55.0099 97.4114 55.2355 97.5654C55.461 97.7158 55.7385 97.791 56.068 97.791C56.3938 97.791 56.6856 97.7516 56.9435 97.6728C57.2013 97.594 57.4448 97.492 57.6739 97.3666V98.4623C57.4483 98.5912 57.2066 98.6861 56.9488 98.747C56.691 98.8115 56.3741 98.8437 55.9981 98.8437ZM61.2833 97.8232C61.448 97.8232 61.6109 97.8089 61.7721 97.7802C61.9332 97.748 62.08 97.7104 62.2125 97.6674V98.6235C62.0729 98.6843 61.892 98.7363 61.67 98.7792C61.448 98.8222 61.2171 98.8437 60.9772 98.8437C60.6406 98.8437 60.338 98.7882 60.0694 98.6772C59.8009 98.5626 59.5878 98.3675 59.4303 98.0917C59.2727 97.816 59.194 97.4347 59.194 96.9477V93.7519H58.3829V93.1879L59.253 92.7421L59.6666 91.4692H60.4615V92.7905H62.1642V93.7519H60.4615V96.9316C60.4615 97.2324 60.5367 97.4562 60.6871 97.603C60.8375 97.7498 61.0362 97.8232 61.2833 97.8232ZM64.6832 92.7905V98.7363H63.421V92.7905H64.6832ZM64.0602 90.5131C64.2535 90.5131 64.42 90.565 64.5597 90.6689C64.7029 90.7727 64.7745 90.9518 64.7745 91.206C64.7745 91.4566 64.7029 91.6357 64.5597 91.7431C64.42 91.8469 64.2535 91.8989 64.0602 91.8989C63.8596 91.8989 63.6896 91.8469 63.5499 91.7431C63.4138 91.6357 63.3458 91.4566 63.3458 91.206C63.3458 90.9518 63.4138 90.7727 63.5499 90.6689C63.6896 90.565 63.8596 90.5131 64.0602 90.5131ZM67.8522 98.7363L65.5909 92.7905H66.9283L68.1529 96.2817C68.2317 96.5037 68.3033 96.7436 68.3678 97.0014C68.4322 97.2592 68.477 97.4759 68.5021 97.6513H68.545C68.5701 97.4687 68.6184 97.2503 68.69 96.996C68.7617 96.7382 68.8351 96.5001 68.9103 96.2817L70.1349 92.7905H71.4669L69.2057 98.7363H67.8522ZM74.7003 92.6777C75.4523 92.6777 76.0198 92.8442 76.4029 93.1772C76.7897 93.5102 76.983 94.0294 76.983 94.7348V98.7363H76.086L75.8443 97.893H75.8014C75.6331 98.1078 75.4594 98.2851 75.2804 98.4247C75.1013 98.5644 74.8937 98.6682 74.6573 98.7363C74.4246 98.8079 74.1399 98.8437 73.8033 98.8437C73.4488 98.8437 73.1319 98.7792 72.8526 98.6503C72.5733 98.5178 72.3531 98.3173 72.192 98.0488C72.0309 97.7802 71.9503 97.44 71.9503 97.0283C71.9503 96.416 72.1777 95.9558 72.6324 95.6479C73.0908 95.3399 73.7818 95.1699 74.7057 95.1376L75.7369 95.1V94.7885C75.7369 94.3767 75.6402 94.0831 75.4469 93.9077C75.2571 93.7322 74.9885 93.6445 74.6412 93.6445C74.344 93.6445 74.0558 93.6874 73.7765 93.7734C73.4972 93.8593 73.225 93.9649 72.9601 94.0903L72.5519 93.1987C72.8419 93.0447 73.1713 92.9194 73.5401 92.8227C73.9125 92.726 74.2993 92.6777 74.7003 92.6777ZM75.7315 95.895L74.9635 95.9218C74.3333 95.9433 73.8911 96.0507 73.6368 96.2441C73.3826 96.4374 73.2555 96.7024 73.2555 97.039C73.2555 97.3326 73.3432 97.5475 73.5187 97.6835C73.6941 97.816 73.9251 97.8823 74.2115 97.8823C74.6484 97.8823 75.01 97.7587 75.2965 97.5117C75.5865 97.261 75.7315 96.894 75.7315 96.4106V95.895ZM80.963 97.8232C81.1277 97.8232 81.2906 97.8089 81.4518 97.7802C81.6129 97.748 81.7597 97.7104 81.8922 97.6674V98.6235C81.7525 98.6843 81.5717 98.7363 81.3497 98.7792C81.1277 98.8222 80.8968 98.8437 80.6568 98.8437C80.3203 98.8437 80.0177 98.7882 79.7491 98.6772C79.4806 98.5626 79.2675 98.3675 79.11 98.0917C78.9524 97.816 78.8736 97.4347 78.8736 96.9477V93.7519H78.0626V93.1879L78.9327 92.7421L79.3463 91.4692H80.1412V92.7905H81.8439V93.7519H80.1412V96.9316C80.1412 97.2324 80.2164 97.4562 80.3668 97.603C80.5172 97.7498 80.7159 97.8232 80.963 97.8232ZM84.3629 92.7905V98.7363H83.1007V92.7905H84.3629ZM83.7398 90.5131C83.9332 90.5131 84.0997 90.565 84.2394 90.6689C84.3826 90.7727 84.4542 90.9518 84.4542 91.206C84.4542 91.4566 84.3826 91.6357 84.2394 91.7431C84.0997 91.8469 83.9332 91.8989 83.7398 91.8989C83.5393 91.8989 83.3692 91.8469 83.2296 91.7431C83.0935 91.6357 83.0255 91.4566 83.0255 91.206C83.0255 90.9518 83.0935 90.7727 83.2296 90.6689C83.3692 90.565 83.5393 90.5131 83.7398 90.5131ZM91.4366 95.7499C91.4366 96.2441 91.3722 96.6827 91.2433 97.0659C91.1144 97.449 90.9264 97.7731 90.6793 98.038C90.4322 98.2994 90.135 98.4999 89.7877 98.6396C89.4404 98.7757 89.0483 98.8437 88.6114 98.8437C88.2032 98.8437 87.829 98.7757 87.4889 98.6396C87.1487 98.4999 86.8533 98.2994 86.6026 98.038C86.3556 97.7731 86.164 97.449 86.0279 97.0659C85.8919 96.6827 85.8238 96.2441 85.8238 95.7499C85.8238 95.0947 85.9366 94.5397 86.1622 94.0849C86.3914 93.6266 86.7172 93.2774 87.1398 93.0375C87.5623 92.7976 88.0654 92.6777 88.649 92.6777C89.1969 92.6777 89.6803 92.7976 90.0992 93.0375C90.5182 93.2774 90.8458 93.6266 91.0821 94.0849C91.3185 94.5432 91.4366 95.0982 91.4366 95.7499ZM87.1236 95.7499C87.1236 96.1832 87.1756 96.5538 87.2794 96.8618C87.3868 97.1697 87.5515 97.406 87.7735 97.5707C87.9955 97.7319 88.282 97.8124 88.6329 97.8124C88.9838 97.8124 89.2703 97.7319 89.4923 97.5707C89.7143 97.406 89.8772 97.1697 89.9811 96.8618C90.0849 96.5538 90.1368 96.1832 90.1368 95.7499C90.1368 95.3167 90.0849 94.9496 89.9811 94.6489C89.8772 94.3445 89.7143 94.1135 89.4923 93.956C89.2703 93.7949 88.982 93.7143 88.6275 93.7143C88.1048 93.7143 87.7234 93.8898 87.4835 94.2407C87.2436 94.5916 87.1236 95.0947 87.1236 95.7499ZM95.9859 92.6777C96.6555 92.6777 97.1765 92.8513 97.5489 93.1987C97.9249 93.5424 98.1129 94.0956 98.1129 94.8583V98.7363H96.8507V95.0947C96.8507 94.6328 96.7558 94.2872 96.566 94.058C96.3762 93.8253 96.0826 93.7089 95.6852 93.7089C95.1087 93.7089 94.7076 93.8862 94.482 94.2407C94.26 94.5952 94.149 95.109 94.149 95.7822V98.7363H92.8868V92.7905H93.8697L94.047 93.5961H94.1168C94.2457 93.3884 94.4051 93.2184 94.5948 93.0859C94.7882 92.9498 95.003 92.8478 95.2394 92.7797C95.4793 92.7117 95.7281 92.6777 95.9859 92.6777Z" fill="#303030"/>
<path d="M72.6444 24.0659C69.3691 24.0659 66.1673 25.0372 63.4439 26.8569C60.7206 28.6765 58.598 31.2629 57.3446 34.2889C56.0912 37.315 55.7632 40.6447 56.4022 43.8571C57.0412 47.0695 58.6184 50.0203 60.9344 52.3363C63.2504 54.6524 66.2012 56.2296 69.4136 56.8686C72.6261 57.5076 75.9558 57.1796 78.9818 55.9262C82.0079 54.6728 84.5942 52.5502 86.4139 49.8268C88.2336 47.1035 89.2049 43.9017 89.2049 40.6264C89.1964 36.2368 87.449 32.0295 84.3451 28.9257C81.2413 25.8218 77.0339 24.0743 72.6444 24.0659ZM72.6444 54.639C69.873 54.639 67.1638 53.8172 64.8594 52.2775C62.555 50.7377 60.759 48.5493 59.6984 45.9888C58.6378 43.4283 58.3603 40.6108 58.901 37.8926C59.4417 35.1744 60.7763 32.6776 62.736 30.7179C64.6957 28.7582 67.1925 27.4236 69.9107 26.8829C72.6289 26.3422 75.4464 26.6197 78.0068 27.6803C80.5673 28.7409 82.7558 30.537 84.2955 32.8413C85.8353 35.1457 86.6571 37.8549 86.6571 40.6264C86.6529 44.3414 85.1752 47.9032 82.5482 50.5302C79.9213 53.1571 76.3595 54.6348 72.6444 54.639Z" fill="#303030"/>
<path d="M71.5882 35.1845L72.0197 32.5211H75.5346C75.7578 32.5211 75.972 32.432 76.1299 32.2735C76.2877 32.1149 76.3764 31.8998 76.3764 31.6756C76.3764 31.4514 76.2877 31.2363 76.1299 31.0777C75.972 30.9192 75.7578 30.8301 75.5346 30.8301H71.3041C71.1044 30.8299 70.9112 30.901 70.7589 31.0308C70.6066 31.1605 70.5052 31.3403 70.4727 31.5382L69.6519 36.6324C69.6232 36.8084 69.6507 36.9889 69.7303 37.1482C69.8099 37.3076 69.9376 37.4375 70.0952 37.5196C70.2528 37.6016 70.4321 37.6316 70.6077 37.6051C70.7832 37.5787 70.9459 37.4972 71.0726 37.3723C71.27 37.1737 71.5046 37.0163 71.7629 36.9093C72.0212 36.8022 72.298 36.7477 72.5774 36.7487C72.8553 36.7479 73.1305 36.8026 73.387 36.9097C73.6436 37.0167 73.8763 37.174 74.0718 37.3723C74.2684 37.567 74.4246 37.799 74.5311 38.0548C74.6377 38.3106 74.6926 38.5852 74.6926 38.8625C74.6926 39.1398 74.6377 39.4144 74.5311 39.6702C74.4246 39.926 74.2684 40.158 74.0718 40.3527C73.8763 40.551 73.6436 40.7083 73.387 40.8153C73.1305 40.9224 72.8553 40.9771 72.5774 40.9763C72.298 40.9773 72.0212 40.9228 71.7629 40.8157C71.5046 40.7087 71.27 40.5513 71.0726 40.3527C70.9952 40.2686 70.9017 40.2012 70.7976 40.1545C70.6935 40.1078 70.5811 40.0828 70.4671 40.0811C70.3531 40.0793 70.24 40.1008 70.1345 40.1443C70.0291 40.1877 69.9335 40.2523 69.8536 40.3339C69.7738 40.4156 69.7112 40.5127 69.6698 40.6194C69.6284 40.726 69.609 40.84 69.6128 40.9544C69.6165 41.0688 69.6434 41.1813 69.6917 41.285C69.7401 41.3887 69.8089 41.4814 69.8939 41.5576C70.3348 41.9988 70.877 42.3241 71.4728 42.5048C72.0686 42.6855 72.6995 42.7161 73.3098 42.5937C73.9201 42.4713 74.491 42.1999 74.972 41.8033C75.453 41.4067 75.8293 40.8972 76.0677 40.3198C76.3061 39.7424 76.3991 39.115 76.3387 38.4929C76.2782 37.8708 76.0661 37.2733 75.7211 36.7531C75.3761 36.2329 74.9088 35.8061 74.3605 35.5104C73.8122 35.2147 73.1998 35.0592 72.5774 35.0577C72.2437 35.0575 71.9113 35.1002 71.5882 35.1845Z" fill="#303030"/>
<path d="M67.4855 47.8674C67.4855 48.1348 67.428 48.3887 67.3129 48.6292C67.1978 48.8674 67.0184 49.0607 66.7748 49.209C66.5331 49.3573 66.2204 49.4314 65.8368 49.4314C65.6449 49.4314 65.4761 49.4213 65.3303 49.4011C65.1865 49.3809 65.0522 49.3483 64.9275 49.3034C64.8028 49.2562 64.6733 49.1955 64.5391 49.1213V47.9348C64.7673 48.0696 64.9975 48.173 65.2296 48.2449C65.4617 48.3146 65.6718 48.3494 65.8598 48.3494C65.973 48.3494 66.065 48.3337 66.136 48.3022C66.2089 48.2708 66.2626 48.2281 66.2971 48.1741C66.3317 48.1179 66.3489 48.0539 66.3489 47.982C66.3489 47.8966 66.323 47.8247 66.2712 47.7663C66.2214 47.7056 66.1408 47.6427 66.0295 47.5775C65.9183 47.5123 65.7715 47.4314 65.5893 47.3348C65.4339 47.2494 65.2929 47.1617 65.1663 47.0719C65.0416 46.982 64.9342 46.8797 64.8441 46.7651C64.7558 46.6483 64.6877 46.5123 64.6398 46.3572C64.5918 46.2022 64.5678 46.019 64.5678 45.8078C64.5678 45.4909 64.634 45.2258 64.7664 45.0123C64.9007 44.7965 65.0867 44.6347 65.3246 44.5269C65.5644 44.419 65.8406 44.3651 66.1533 44.3651C66.4276 44.3651 66.6741 44.401 66.8928 44.4729C67.1134 44.5449 67.3109 44.6269 67.4855 44.719L67.1373 45.7471C66.957 45.6505 66.7796 45.5741 66.605 45.5179C66.4305 45.4595 66.2684 45.4303 66.1187 45.4303C66.0209 45.4303 65.9403 45.4449 65.877 45.4741C65.8157 45.5011 65.7696 45.5381 65.7389 45.5853C65.7102 45.6325 65.6958 45.6864 65.6958 45.7471C65.6958 45.8235 65.7207 45.8921 65.7706 45.9527C65.8224 46.0134 65.9077 46.0797 66.0267 46.1516C66.1475 46.2213 66.3115 46.3123 66.5187 46.4247C66.724 46.5325 66.8985 46.6494 67.0424 46.7752C67.1863 46.8988 67.2956 47.0483 67.3704 47.2235C67.4471 47.3966 67.4855 47.6112 67.4855 47.8674Z" fill="#303030"/>
<path d="M70.009 45.4572C69.8747 45.4572 69.7548 45.4909 69.6493 45.5584C69.5438 45.6235 69.4536 45.719 69.3788 45.8449C69.304 45.9707 69.2465 46.1247 69.2062 46.3067C69.1678 46.4865 69.1486 46.691 69.1486 46.9202C69.1486 47.2303 69.1822 47.491 69.2493 47.7022C69.3165 47.9134 69.4181 48.073 69.5543 48.1809C69.6924 48.2887 69.8651 48.3427 70.0723 48.3427C70.2603 48.3427 70.4406 48.3123 70.6132 48.2517C70.7878 48.191 70.9633 48.1179 71.1398 48.0325V49.1584C70.9537 49.255 70.7628 49.3247 70.5672 49.3674C70.3734 49.4101 70.1672 49.4314 69.9485 49.4314C69.492 49.4314 69.1179 49.3258 68.8264 49.1146C68.5367 48.9011 68.3228 48.6056 68.1847 48.2281C68.0485 47.8505 67.9804 47.4123 67.9804 46.9134C67.9804 46.5404 68.0245 46.1988 68.1128 45.8887C68.2029 45.5786 68.3343 45.31 68.507 45.0831C68.6796 44.8539 68.8925 44.6774 69.1457 44.5538C69.4009 44.428 69.6924 44.3651 70.0205 44.3651C70.2238 44.3651 70.4377 44.3932 70.6621 44.4493C70.8885 44.5033 71.1091 44.5909 71.3239 44.7123L70.9758 45.7606C70.8223 45.6752 70.6669 45.6033 70.5096 45.5449C70.3523 45.4864 70.1854 45.4572 70.009 45.4572Z" fill="#303030"/>
<path d="M75.899 46.8932C75.899 47.273 75.8596 47.6191 75.781 47.9314C75.7043 48.2415 75.5834 48.509 75.4184 48.7337C75.2535 48.9584 75.0415 49.1314 74.7825 49.2528C74.5236 49.3719 74.2138 49.4314 73.8531 49.4314C73.5002 49.4314 73.1942 49.3719 72.9353 49.2528C72.6782 49.1314 72.4662 48.9595 72.2994 48.7371C72.1325 48.5123 72.0087 48.2438 71.9282 47.9314C71.8476 47.6191 71.8073 47.2707 71.8073 46.8865C71.8073 46.3741 71.8793 45.9291 72.0231 45.5516C72.1689 45.1718 72.3933 44.8786 72.6964 44.6718C72.9995 44.4628 73.387 44.3583 73.8589 44.3583C74.3385 44.3583 74.7279 44.4628 75.0271 44.6718C75.3283 44.8808 75.5489 45.1752 75.6889 45.555C75.8289 45.9348 75.899 46.3808 75.899 46.8932ZM73.0043 46.8932C73.0043 47.1898 73.0331 47.4449 73.0906 47.6584C73.1482 47.8719 73.2393 48.0359 73.364 48.1505C73.4887 48.2651 73.6517 48.3224 73.8531 48.3224C74.0622 48.3224 74.2282 48.2651 74.3509 48.1505C74.4756 48.0359 74.5648 47.8719 74.6185 47.6584C74.6742 47.4449 74.702 47.1898 74.702 46.8932C74.702 46.4483 74.6387 46.0966 74.5121 45.8381C74.3855 45.5797 74.1677 45.4505 73.8589 45.4505C73.6536 45.4505 73.4877 45.5089 73.3611 45.6258C73.2364 45.7426 73.1453 45.9089 73.0878 46.1247C73.0321 46.3404 73.0043 46.5966 73.0043 46.8932Z" fill="#303030"/>
<path d="M78.4915 49.364L77.6311 45.8145H77.6052C77.6129 45.9067 77.6206 46.0314 77.6283 46.1887C77.6379 46.346 77.6465 46.5157 77.6542 46.6977C77.6618 46.8797 77.6657 47.055 77.6657 47.2235V49.364H76.6586V44.4359H78.1721L79.0497 47.9348H79.0727L79.933 44.4359H81.4494V49.364H80.4049V47.2033C80.4049 47.0483 80.4069 46.882 80.4107 46.7044C80.4164 46.5247 80.4222 46.3561 80.428 46.1988C80.4356 46.0393 80.4423 45.9134 80.4481 45.8213H80.4222L79.5734 49.364H78.4915Z" fill="#303030"/>
<defs>
<filter id="filter0_d_127_606" x="0.713867" y="0" width="142.978" height="142.978" filterUnits="userSpaceOnUse" color-interpolation-filters="sRGB">
<feFlood flood-opacity="0" result="BackgroundImageFix"/>
<feColorMatrix in="SourceAlpha" type="matrix" values="0 0 0 0 0 0 0 0 0 0 0 0 0 0 0 0 0 0 127 0" result="hardAlpha"/>
<feOffset/>
<feGaussianBlur stdDeviation="3"/>
<feComposite in2="hardAlpha" operator="out"/>
<feColorMatrix type="matrix" values="0 0 0 0 0 0 0 0 0 0 0 0 0 0 0 0 0 0 0.25 0"/>
<feBlend mode="normal" in2="BackgroundImageFix" result="effect1_dropShadow_127_606"/>
<feBlend mode="normal" in="SourceGraphic" in2="effect1_dropShadow_127_606" result="shape"/>
</filter>
</defs>
</svg>
