<svg width="144" height="143" viewBox="0 0 144 143" fill="none" xmlns="http://www.w3.org/2000/svg">
<g filter="url(#filter0_d_127_602)">
<rect x="6.93359" y="6" width="130.978" height="130.978" rx="15" fill="white"/>
</g>
<path d="M65.7772 82.1591C65.7772 82.7092 65.6439 83.1874 65.3773 83.5937C65.1107 83.9999 64.7214 84.3131 64.2093 84.5331C63.7015 84.7532 63.0837 84.8632 62.3558 84.8632C62.0342 84.8632 61.7189 84.8421 61.41 84.7997C61.1053 84.7574 60.8112 84.6961 60.5277 84.6157C60.2484 84.531 59.9818 84.4273 59.7279 84.3046V82.4765C60.168 82.6712 60.625 82.8468 61.099 83.0034C61.5729 83.1599 62.0427 83.2382 62.5082 83.2382C62.8298 83.2382 63.0879 83.1959 63.2826 83.1113C63.4815 83.0266 63.6254 82.9103 63.7142 82.7621C63.8031 82.614 63.8475 82.4448 63.8475 82.2543C63.8475 82.0216 63.7692 81.8227 63.6127 81.6577C63.4561 81.4926 63.2403 81.3382 62.9652 81.1943C62.6944 81.0504 62.3876 80.8959 62.0448 80.7309C61.829 80.6293 61.5941 80.5066 61.3402 80.3627C61.0863 80.2146 60.8451 80.0348 60.6166 79.8232C60.3881 79.6116 60.1997 79.3556 60.0516 79.0551C59.9077 78.7504 59.8358 78.3865 59.8358 77.9633C59.8358 77.409 59.9628 76.935 60.2167 76.5414C60.4706 76.1479 60.8324 75.8474 61.3021 75.6401C61.7761 75.4285 62.3347 75.3227 62.9779 75.3227C63.4603 75.3227 63.9195 75.3798 64.3553 75.4941C64.7954 75.6041 65.2546 75.7649 65.7328 75.9765L65.098 77.5063C64.6706 77.3328 64.2876 77.1995 63.9491 77.1064C63.6105 77.0091 63.2657 76.9604 62.9144 76.9604C62.669 76.9604 62.4595 77.0006 62.286 77.081C62.1125 77.1572 61.9813 77.2672 61.8924 77.4111C61.8036 77.5507 61.7591 77.7136 61.7591 77.8998C61.7591 78.1199 61.8226 78.3061 61.9496 78.4584C62.0808 78.6065 62.2754 78.7504 62.5336 78.8901C62.7959 79.0297 63.1218 79.1926 63.5111 79.3788C63.9851 79.6031 64.3892 79.838 64.7235 80.0834C65.062 80.3246 65.3223 80.6103 65.5043 80.9404C65.6862 81.2662 65.7772 81.6725 65.7772 82.1591ZM71.3885 84.7363L69.1542 77.4555H69.097C69.1055 77.629 69.1182 77.8914 69.1351 78.2426C69.1563 78.5896 69.1753 78.9599 69.1922 79.3535C69.2092 79.747 69.2176 80.1025 69.2176 80.4199V84.7363H67.4593V75.456H70.1381L72.3343 82.5527H72.3724L74.702 75.456H77.3807V84.7363H75.5463V80.3437C75.5463 80.0517 75.5505 79.7153 75.5589 79.3344C75.5716 78.9536 75.5865 78.5917 75.6034 78.249C75.6203 77.902 75.633 77.6417 75.6415 77.4682H75.5843L73.1913 84.7363H71.3885ZM85.201 82.1591C85.201 82.7092 85.0677 83.1874 84.8011 83.5937C84.5345 83.9999 84.1452 84.3131 83.6332 84.5331C83.1254 84.7532 82.5075 84.8632 81.7797 84.8632C81.458 84.8632 81.1428 84.8421 80.8339 84.7997C80.5292 84.7574 80.2351 84.6961 79.9515 84.6157C79.6722 84.531 79.4056 84.4273 79.1517 84.3046V82.4765C79.5918 82.6712 80.0489 82.8468 80.5228 83.0034C80.9968 83.1599 81.4665 83.2382 81.932 83.2382C82.2536 83.2382 82.5117 83.1959 82.7064 83.1113C82.9053 83.0266 83.0492 82.9103 83.1381 82.7621C83.2269 82.614 83.2714 82.4448 83.2714 82.2543C83.2714 82.0216 83.1931 81.8227 83.0365 81.6577C82.8799 81.4926 82.6641 81.3382 82.389 81.1943C82.1182 81.0504 81.8114 80.8959 81.4686 80.7309C81.2528 80.6293 81.0179 80.5066 80.764 80.3627C80.5101 80.2146 80.2689 80.0348 80.0404 79.8232C79.8119 79.6116 79.6236 79.3556 79.4755 79.0551C79.3316 78.7504 79.2596 78.3865 79.2596 77.9633C79.2596 77.409 79.3866 76.935 79.6405 76.5414C79.8944 76.1479 80.2562 75.8474 80.7259 75.6401C81.1999 75.4285 81.7585 75.3227 82.4017 75.3227C82.8841 75.3227 83.3433 75.3798 83.7792 75.4941C84.2193 75.6041 84.6784 75.7649 85.1566 75.9765L84.5218 77.5063C84.0944 77.3328 83.7115 77.1995 83.3729 77.1064C83.0344 77.0091 82.6895 76.9604 82.3382 76.9604C82.0928 76.9604 81.8833 77.0006 81.7098 77.081C81.5363 77.1572 81.4051 77.2672 81.3163 77.4111C81.2274 77.5507 81.183 77.7136 81.183 77.8998C81.183 78.1199 81.2464 78.3061 81.3734 78.4584C81.5046 78.6065 81.6992 78.7504 81.9574 78.8901C82.2198 79.0297 82.5456 79.1926 82.9349 79.3788C83.4089 79.6031 83.813 79.838 84.1473 80.0834C84.4859 80.3246 84.7461 80.6103 84.9281 80.9404C85.1101 81.2662 85.201 81.6725 85.201 82.1591Z" fill="#09B3F1"/>
<path d="M38.5799 98.7363V90.8837H39.869V98.7363H38.5799ZM44.9125 92.6777C45.5821 92.6777 46.1031 92.8513 46.4755 93.1987C46.8514 93.5424 47.0394 94.0956 47.0394 94.8583V98.7363H45.7772V95.0947C45.7772 94.6328 45.6823 94.2872 45.4925 94.058C45.3028 93.8253 45.0091 93.7089 44.6117 93.7089C44.0352 93.7089 43.6341 93.8862 43.4086 94.2407C43.1866 94.5952 43.0756 95.109 43.0756 95.7822V98.7363H41.8133V92.7905H42.7963L42.9735 93.5961H43.0433C43.1722 93.3884 43.3316 93.2184 43.5214 93.0859C43.7147 92.9498 43.9296 92.8478 44.1659 92.7797C44.4058 92.7117 44.6547 92.6777 44.9125 92.6777ZM51.0194 97.8232C51.1841 97.8232 51.347 97.8089 51.5082 97.7802C51.6693 97.748 51.8161 97.7104 51.9486 97.6674V98.6235C51.8089 98.6843 51.6281 98.7363 51.4061 98.7792C51.1841 98.8222 50.9532 98.8437 50.7132 98.8437C50.3767 98.8437 50.0741 98.7882 49.8055 98.6772C49.537 98.5626 49.3239 98.3675 49.1664 98.0917C49.0088 97.816 48.93 97.4347 48.93 96.9477V93.7519H48.119V93.1879L48.9891 92.7421L49.4027 91.4692H50.1976V92.7905H51.9003V93.7519H50.1976V96.9316C50.1976 97.2324 50.2728 97.4562 50.4232 97.603C50.5736 97.7498 50.7723 97.8232 51.0194 97.8232ZM55.5257 92.6777C56.0557 92.6777 56.5104 92.7869 56.89 93.0053C57.2696 93.2237 57.5614 93.5335 57.7655 93.9345C57.9696 94.3356 58.0716 94.8154 58.0716 95.374V96.0507H54.1024C54.1167 96.6272 54.2707 97.0712 54.5643 97.3828C54.8615 97.6943 55.2769 97.85 55.8104 97.85C56.19 97.85 56.5301 97.8142 56.8309 97.7426C57.1353 97.6674 57.4486 97.5582 57.7709 97.415V98.4409C57.4737 98.5805 57.1711 98.6826 56.8631 98.747C56.5552 98.8115 56.1864 98.8437 55.7567 98.8437C55.173 98.8437 54.6592 98.7309 54.2152 98.5053C53.7748 98.2761 53.4292 97.936 53.1786 97.4848C52.9315 97.0336 52.808 96.4732 52.808 95.8036C52.808 95.1376 52.9208 94.5719 53.1464 94.1064C53.3719 93.6409 53.6888 93.2864 54.097 93.0429C54.5052 92.7994 54.9815 92.6777 55.5257 92.6777ZM55.5257 93.6284C55.1283 93.6284 54.806 93.7573 54.5589 94.0151C54.3155 94.2729 54.1722 94.6507 54.1293 95.1484H56.8363C56.8327 94.8512 56.7826 94.588 56.6859 94.3588C56.5928 94.1297 56.4496 93.9506 56.2562 93.8217C56.0664 93.6928 55.8229 93.6284 55.5257 93.6284ZM62.5082 92.6777C62.6084 92.6777 62.7176 92.683 62.8358 92.6938C62.954 92.7045 63.056 92.7189 63.142 92.7368L63.0238 93.9184C62.9486 93.8969 62.8555 93.8808 62.7445 93.8701C62.6371 93.8593 62.5404 93.8539 62.4545 93.8539C62.2289 93.8539 62.014 93.8915 61.8099 93.9667C61.6058 94.0384 61.425 94.1494 61.2674 94.2997C61.1099 94.4466 60.9864 94.631 60.8968 94.853C60.8073 95.075 60.7626 95.3328 60.7626 95.6264V98.7363H59.495V92.7905H60.4833L60.6551 93.8378H60.7142C60.8324 93.6266 60.9792 93.4332 61.1547 93.2578C61.3301 93.0823 61.5306 92.9426 61.7562 92.8388C61.9854 92.7314 62.236 92.6777 62.5082 92.6777ZM67.3422 92.6777C68.0117 92.6777 68.5327 92.8513 68.9051 93.1987C69.2811 93.5424 69.4691 94.0956 69.4691 94.8583V98.7363H68.2069V95.0947C68.2069 94.6328 68.112 94.2872 67.9222 94.058C67.7325 93.8253 67.4388 93.7089 67.0414 93.7089C66.4649 93.7089 66.0638 93.8862 65.8382 94.2407C65.6162 94.5952 65.5052 95.109 65.5052 95.7822V98.7363H64.243V92.7905H65.2259L65.4032 93.5961H65.473C65.6019 93.3884 65.7613 93.2184 65.951 93.0859C66.1444 92.9498 66.3592 92.8478 66.5956 92.7797C66.8355 92.7117 67.0843 92.6777 67.3422 92.6777ZM73.5672 92.6777C74.3192 92.6777 74.8867 92.8442 75.2699 93.1772C75.6566 93.5102 75.85 94.0294 75.85 94.7348V98.7363H74.953L74.7113 97.893H74.6683C74.5 98.1078 74.3264 98.2851 74.1473 98.4247C73.9683 98.5644 73.7606 98.6682 73.5243 98.7363C73.2915 98.8079 73.0069 98.8437 72.6703 98.8437C72.3158 98.8437 71.9989 98.7792 71.7196 98.6503C71.4403 98.5178 71.2201 98.3173 71.0589 98.0488C70.8978 97.7802 70.8172 97.44 70.8172 97.0283C70.8172 96.416 71.0446 95.9558 71.4994 95.6479C71.9577 95.3399 72.6488 95.1699 73.5726 95.1376L74.6039 95.1V94.7885C74.6039 94.3767 74.5072 94.0831 74.3138 93.9077C74.1241 93.7322 73.8555 93.6445 73.5082 93.6445C73.211 93.6445 72.9227 93.6874 72.6434 93.7734C72.3641 93.8593 72.092 93.9649 71.827 94.0903L71.4188 93.1987C71.7089 93.0447 72.0383 92.9194 72.4071 92.8227C72.7795 92.726 73.1662 92.6777 73.5672 92.6777ZM74.5985 95.895L73.8304 95.9218C73.2002 95.9433 72.758 96.0507 72.5038 96.2441C72.2495 96.4374 72.1224 96.7024 72.1224 97.039C72.1224 97.3326 72.2102 97.5475 72.3856 97.6835C72.5611 97.816 72.792 97.8823 73.0785 97.8823C73.5153 97.8823 73.877 97.7587 74.1634 97.5117C74.4535 97.261 74.5985 96.894 74.5985 96.4106V95.895ZM79.8299 97.8232C79.9947 97.8232 80.1576 97.8089 80.3187 97.7802C80.4798 97.748 80.6267 97.7104 80.7591 97.6674V98.6235C80.6195 98.6843 80.4387 98.7363 80.2167 98.7792C79.9947 98.8222 79.7637 98.8437 79.5238 98.8437C79.1872 98.8437 78.8846 98.7882 78.6161 98.6772C78.3475 98.5626 78.1345 98.3675 77.9769 98.0917C77.8194 97.816 77.7406 97.4347 77.7406 96.9477V93.7519H76.9296V93.1879L77.7997 92.7421L78.2132 91.4692H79.0082V92.7905H80.7108V93.7519H79.0082V96.9316C79.0082 97.2324 79.0834 97.4562 79.2338 97.603C79.3841 97.7498 79.5829 97.8232 79.8299 97.8232ZM83.2298 92.7905V98.7363H81.9676V92.7905H83.2298ZM82.6068 90.5131C82.8002 90.5131 82.9667 90.565 83.1063 90.6689C83.2495 90.7727 83.3212 90.9518 83.3212 91.206C83.3212 91.4566 83.2495 91.6357 83.1063 91.7431C82.9667 91.8469 82.8002 91.8989 82.6068 91.8989C82.4063 91.8989 82.2362 91.8469 82.0965 91.7431C81.9605 91.6357 81.8924 91.4566 81.8924 91.206C81.8924 90.9518 81.9605 90.7727 82.0965 90.6689C82.2362 90.565 82.4063 90.5131 82.6068 90.5131ZM90.3036 95.7499C90.3036 96.2441 90.2391 96.6827 90.1102 97.0659C89.9813 97.449 89.7933 97.7731 89.5462 98.038C89.2992 98.2994 89.002 98.4999 88.6546 98.6396C88.3073 98.7757 87.9152 98.8437 87.4784 98.8437C87.0702 98.8437 86.696 98.7757 86.3558 98.6396C86.0157 98.4999 85.7202 98.2994 85.4696 98.038C85.2225 97.7731 85.0309 97.449 84.8949 97.0659C84.7588 96.6827 84.6908 96.2441 84.6908 95.7499C84.6908 95.0947 84.8036 94.5397 85.0292 94.0849C85.2583 93.6266 85.5842 93.2774 86.0067 93.0375C86.4292 92.7976 86.9323 92.6777 87.516 92.6777C88.0638 92.6777 88.5472 92.7976 88.9662 93.0375C89.3851 93.2774 89.7128 93.6266 89.9491 94.0849C90.1854 94.5432 90.3036 95.0982 90.3036 95.7499ZM85.9906 95.7499C85.9906 96.1832 86.0425 96.5538 86.1463 96.8618C86.2538 97.1697 86.4185 97.406 86.6405 97.5707C86.8625 97.7319 87.149 97.8124 87.4999 97.8124C87.8508 97.8124 88.1372 97.7319 88.3592 97.5707C88.5812 97.406 88.7442 97.1697 88.848 96.8618C88.9518 96.5538 89.0038 96.1832 89.0038 95.7499C89.0038 95.3167 88.9518 94.9496 88.848 94.6489C88.7442 94.3445 88.5812 94.1135 88.3592 93.956C88.1372 93.7949 87.849 93.7143 87.4945 93.7143C86.9717 93.7143 86.5904 93.8898 86.3504 94.2407C86.1105 94.5916 85.9906 95.0947 85.9906 95.7499ZM94.8529 92.6777C95.5225 92.6777 96.0435 92.8513 96.4159 93.1987C96.7919 93.5424 96.9798 94.0956 96.9798 94.8583V98.7363H95.7176V95.0947C95.7176 94.6328 95.6227 94.2872 95.433 94.058C95.2432 93.8253 94.9496 93.7089 94.5521 93.7089C93.9756 93.7089 93.5746 93.8862 93.349 94.2407C93.127 94.5952 93.016 95.109 93.016 95.7822V98.7363H91.7538V92.7905H92.7367L92.9139 93.5961H92.9837C93.1127 93.3884 93.272 93.2184 93.4618 93.0859C93.6551 92.9498 93.87 92.8478 94.1063 92.7797C94.3462 92.7117 94.5951 92.6777 94.8529 92.6777ZM101.078 92.6777C101.83 92.6777 102.397 92.8442 102.781 93.1772C103.167 93.5102 103.361 94.0294 103.361 94.7348V98.7363H102.464L102.222 97.893H102.179C102.011 98.1078 101.837 98.2851 101.658 98.4247C101.479 98.5644 101.271 98.6682 101.035 98.7363C100.802 98.8079 100.518 98.8437 100.181 98.8437C99.8265 98.8437 99.5096 98.7792 99.2303 98.6503C98.951 98.5178 98.7308 98.3173 98.5697 98.0488C98.4086 97.7802 98.328 97.44 98.328 97.0283C98.328 96.416 98.5554 95.9558 99.0101 95.6479C99.4684 95.3399 100.16 95.1699 101.083 95.1376L102.115 95.1V94.7885C102.115 94.3767 102.018 94.0831 101.825 93.9077C101.635 93.7322 101.366 93.6445 101.019 93.6445C100.722 93.6445 100.433 93.6874 100.154 93.7734C99.8749 93.8593 99.6027 93.9649 99.3378 94.0903L98.9296 93.1987C99.2196 93.0447 99.549 92.9194 99.9178 92.8227C100.29 92.726 100.677 92.6777 101.078 92.6777ZM102.109 95.895L101.341 95.9218C100.711 95.9433 100.269 96.0507 100.015 96.2441C99.7603 96.4374 99.6332 96.7024 99.6332 97.039C99.6332 97.3326 99.7209 97.5475 99.8963 97.6835C100.072 97.816 100.303 97.8823 100.589 97.8823C101.026 97.8823 101.388 97.7587 101.674 97.5117C101.964 97.261 102.109 96.894 102.109 96.4106V95.895ZM106.395 98.7363H105.128V90.3788H106.395V98.7363Z" fill="#303030"/>
<path d="M73.6172 59.5747C82.1758 59.5747 89.1134 52.6371 89.1134 44.0785C89.1134 35.52 82.1758 28.5824 73.6172 28.5824C65.0587 28.5824 58.1211 35.52 58.1211 44.0785C58.1211 52.6371 65.0587 59.5747 73.6172 59.5747Z" stroke="#303030" stroke-width="1.5"/>
<path d="M59.6699 49.4912C61.7092 50.3086 63.1775 50.3086 64.0739 49.4912C65.419 48.2639 64.2583 44.5418 66.1427 43.5151C68.0254 42.4885 70.8961 47.039 73.5785 45.542C76.2609 44.0443 73.3259 40.051 75.187 38.4324C77.0489 36.813 79.4693 38.6393 79.8924 35.9321C80.3154 33.2257 77.9182 34.3995 77.458 31.8411C77.1519 30.1365 77.1519 29.2401 77.458 29.1525M77.506 59.0709C76.0548 57.5849 75.5318 56.2041 75.9386 54.9273C76.5483 53.0119 77.5548 53.1251 77.9933 51.9412C78.4319 50.7573 77.193 49.0705 79.942 47.6294C81.7752 46.6686 84.2956 47.7812 87.5033 50.9696" stroke="#303030" stroke-width="1.5" stroke-linecap="round"/>
<defs>
<filter id="filter0_d_127_602" x="0.933594" y="0" width="142.978" height="142.978" filterUnits="userSpaceOnUse" color-interpolation-filters="sRGB">
<feFlood flood-opacity="0" result="BackgroundImageFix"/>
<feColorMatrix in="SourceAlpha" type="matrix" values="0 0 0 0 0 0 0 0 0 0 0 0 0 0 0 0 0 0 127 0" result="hardAlpha"/>
<feOffset/>
<feGaussianBlur stdDeviation="3"/>
<feComposite in2="hardAlpha" operator="out"/>
<feColorMatrix type="matrix" values="0 0 0 0 0 0 0 0 0 0 0 0 0 0 0 0 0 0 0.25 0"/>
<feBlend mode="normal" in2="BackgroundImageFix" result="effect1_dropShadow_127_602"/>
<feBlend mode="normal" in="SourceGraphic" in2="effect1_dropShadow_127_602" result="shape"/>
</filter>
</defs>
</svg>
