<svg width="265" height="281" viewBox="0 0 265 281" fill="none" xmlns="http://www.w3.org/2000/svg">
<rect x="0.304688" y="0.0625" width="263.945" height="280.938" rx="10" fill="#F6F6F6"/>
<path d="M13.3262 21.5557C13.3262 20.348 13.5016 19.2178 13.8525 18.165C14.208 17.1123 14.7184 16.1895 15.3838 15.3965H16.4912C15.835 16.276 15.3405 17.2422 15.0078 18.2949C14.6797 19.3477 14.5156 20.43 14.5156 21.542C14.5156 22.6357 14.6842 23.7044 15.0215 24.748C15.3587 25.7917 15.8441 26.7441 16.4775 27.6055H15.3838C14.7139 26.8307 14.2035 25.9261 13.8525 24.8916C13.5016 23.8571 13.3262 22.7451 13.3262 21.5557ZM24.5645 25.3906L23.3203 22.2119H19.3145L18.084 25.3906H16.9082L20.8594 15.3555H21.8369L25.7676 25.3906H24.5645ZM22.958 21.166L21.7959 18.0693C21.6455 17.6774 21.4906 17.1966 21.3311 16.627C21.2308 17.0645 21.0872 17.5452 20.9004 18.0693L19.7246 21.166H22.958ZM25.6855 28.0225C25.2572 28.0225 24.9199 27.9609 24.6738 27.8379V26.8467C24.9974 26.9378 25.3346 26.9834 25.6855 26.9834C26.1367 26.9834 26.4785 26.8467 26.7109 26.5732C26.9479 26.2998 27.0664 25.9056 27.0664 25.3906V15.3965H28.2285V25.2949C28.2285 26.1608 28.0098 26.8307 27.5723 27.3047C27.1348 27.7832 26.5059 28.0225 25.6855 28.0225ZM32.3438 17.3857C32.3438 17.7002 32.4258 18.001 32.5898 18.2881C32.7539 18.5706 33.0342 18.9124 33.4307 19.3135C34.0186 18.9717 34.4264 18.6572 34.6543 18.3701C34.8867 18.0785 35.0029 17.7435 35.0029 17.3652C35.0029 17.0143 34.8844 16.7295 34.6475 16.5107C34.415 16.2874 34.1029 16.1758 33.7109 16.1758C33.3053 16.1758 32.9749 16.2852 32.7197 16.5039C32.4691 16.7227 32.3438 17.0166 32.3438 17.3857ZM33.4033 24.5088C34.5016 24.5088 35.4131 24.1579 36.1377 23.4561L33.1504 20.5576C32.6445 20.8675 32.2868 21.125 32.0771 21.3301C31.8675 21.5306 31.7126 21.7471 31.6123 21.9795C31.512 22.2119 31.4619 22.4762 31.4619 22.7725C31.4619 23.3057 31.6374 23.7295 31.9883 24.0439C32.3438 24.3538 32.8154 24.5088 33.4033 24.5088ZM30.2861 22.7998C30.2861 22.2074 30.4434 21.6833 30.7578 21.2275C31.0768 20.7718 31.6465 20.3115 32.4668 19.8467C32.0794 19.4137 31.8151 19.0856 31.6738 18.8623C31.5371 18.639 31.4277 18.4066 31.3457 18.165C31.2637 17.9235 31.2227 17.6729 31.2227 17.4131C31.2227 16.7295 31.446 16.1963 31.8926 15.8135C32.3392 15.4307 32.9613 15.2393 33.7588 15.2393C34.4971 15.2393 35.0781 15.4307 35.502 15.8135C35.9258 16.1917 36.1377 16.7204 36.1377 17.3994C36.1377 17.887 35.9827 18.3382 35.6729 18.7529C35.363 19.1631 34.8503 19.5801 34.1348 20.0039L36.917 22.6768C37.1722 22.3942 37.375 22.0638 37.5254 21.6855C37.6803 21.3027 37.8102 20.8857 37.915 20.4346H39.0635C38.7536 21.738 38.2865 22.7269 37.6621 23.4014L39.7061 25.3906H38.1406L36.876 24.1738C36.3382 24.6569 35.7913 25.0033 35.2354 25.2129C34.6794 25.4225 34.0596 25.5273 33.376 25.5273C32.3962 25.5273 31.6351 25.2858 31.0928 24.8027C30.555 24.3197 30.2861 23.652 30.2861 22.7998ZM48.333 25.3906H46.9658L43.3223 20.5439L42.2764 21.4736V25.3906H41.1143V15.3965H42.2764V20.3525L46.8086 15.3965H48.1826L44.1631 19.7373L48.333 25.3906ZM56.4404 19.9834H59.2568V20.9268H56.4404V23.8389H55.4902V20.9268H52.6875V19.9834H55.4902V17.0576H56.4404V19.9834ZM65.7578 20.1543H69.1553V25.0146C68.6266 25.1833 68.0889 25.3109 67.542 25.3975C66.9951 25.484 66.3617 25.5273 65.6416 25.5273C64.1286 25.5273 62.9505 25.0785 62.1074 24.1807C61.2643 23.2783 60.8428 22.016 60.8428 20.3936C60.8428 19.3545 61.0501 18.4453 61.4648 17.666C61.8841 16.8822 62.4857 16.2852 63.2695 15.875C64.0534 15.4603 64.9717 15.2529 66.0244 15.2529C67.0908 15.2529 68.0843 15.4489 69.0049 15.8408L68.5537 16.8662C67.6514 16.4834 66.7832 16.292 65.9492 16.292C64.7324 16.292 63.7822 16.6543 63.0986 17.3789C62.415 18.1035 62.0732 19.1084 62.0732 20.3936C62.0732 21.7425 62.4014 22.7656 63.0576 23.4629C63.7184 24.1602 64.6868 24.5088 65.9629 24.5088C66.6556 24.5088 67.3324 24.429 67.9932 24.2695V21.1934H65.7578V20.1543ZM71.5615 15.3965H74.3848C75.7109 15.3965 76.6702 15.5947 77.2627 15.9912C77.8551 16.3877 78.1514 17.0143 78.1514 17.8711C78.1514 18.4635 77.985 18.9535 77.6523 19.3408C77.3242 19.7236 76.8434 19.972 76.21 20.0859V20.1543C77.7275 20.4141 78.4863 21.2116 78.4863 22.5469C78.4863 23.4401 78.1833 24.1374 77.5771 24.6387C76.9756 25.14 76.1325 25.3906 75.0479 25.3906H71.5615V15.3965ZM72.7236 19.6758H74.6377C75.458 19.6758 76.0482 19.5482 76.4082 19.293C76.7682 19.0332 76.9482 18.598 76.9482 17.9873C76.9482 17.4268 76.7477 17.0234 76.3467 16.7773C75.9456 16.5267 75.3076 16.4014 74.4326 16.4014H72.7236V19.6758ZM72.7236 20.6602V24.3994H74.8086C75.6152 24.3994 76.2214 24.2445 76.627 23.9346C77.0371 23.6201 77.2422 23.1302 77.2422 22.4648C77.2422 21.8451 77.0326 21.3893 76.6133 21.0977C76.1986 20.806 75.5651 20.6602 74.7129 20.6602H72.7236ZM82.8477 21.5557C82.8477 22.7542 82.6699 23.8708 82.3145 24.9053C81.9635 25.9398 81.4554 26.8398 80.79 27.6055H79.6963C80.3298 26.7487 80.8151 25.7985 81.1523 24.7549C81.4896 23.7067 81.6582 22.6357 81.6582 21.542C81.6582 20.43 81.4919 19.3477 81.1592 18.2949C80.8311 17.2422 80.3389 16.276 79.6826 15.3965H80.79C81.46 16.194 81.9704 17.1214 82.3213 18.1787C82.6722 19.2314 82.8477 20.3571 82.8477 21.5557Z" fill="#D99956"/>
<path d="M21.1953 46.3906L20.3672 43.6719H16.2031L15.375 46.3906H12.7656L16.7969 34.9219H19.7578L23.8047 46.3906H21.1953ZM19.7891 41.6406C19.0234 39.1771 18.5911 37.7839 18.4922 37.4609C18.3984 37.138 18.3307 36.8828 18.2891 36.6953C18.1172 37.362 17.625 39.0104 16.8125 41.6406H19.7891ZM31.1406 46.3906H24.2422V44.9844L28.2891 39.4766H24.4844V37.6562H31V39.2031L27.0625 44.5703H31.1406V46.3906ZM38.4219 46.3906L37.9609 45.2031H37.8984C37.4974 45.7083 37.0833 46.0599 36.6562 46.2578C36.2344 46.4505 35.6823 46.5469 35 46.5469C34.1615 46.5469 33.5 46.3073 33.0156 45.8281C32.5365 45.349 32.2969 44.6667 32.2969 43.7812C32.2969 42.8542 32.6198 42.1719 33.2656 41.7344C33.9167 41.2917 34.8958 41.0469 36.2031 41L37.7188 40.9531V40.5703C37.7188 39.6849 37.2656 39.2422 36.3594 39.2422C35.6615 39.2422 34.8411 39.4531 33.8984 39.875L33.1094 38.2656C34.1146 37.7396 35.2292 37.4766 36.4531 37.4766C37.625 37.4766 38.5234 37.7318 39.1484 38.2422C39.7734 38.7526 40.0859 39.5286 40.0859 40.5703V46.3906H38.4219ZM37.7188 42.3438L36.7969 42.375C36.1042 42.3958 35.5885 42.5208 35.25 42.75C34.9115 42.9792 34.7422 43.3281 34.7422 43.7969C34.7422 44.4688 35.1276 44.8047 35.8984 44.8047C36.4505 44.8047 36.8906 44.6458 37.2188 44.3281C37.5521 44.0104 37.7188 43.5885 37.7188 43.0625V42.3438ZM45.3125 46.5469C44.2865 46.5469 43.4792 46.1484 42.8906 45.3516C42.3073 44.5547 42.0156 43.4505 42.0156 42.0391C42.0156 40.6068 42.3125 39.4922 42.9062 38.6953C43.5052 37.8932 44.3281 37.4922 45.375 37.4922C46.474 37.4922 47.3125 37.9193 47.8906 38.7734H47.9688C47.849 38.1224 47.7891 37.5417 47.7891 37.0312V34.2344H50.1797V46.3906H48.3516L47.8906 45.2578H47.7891C47.2474 46.1172 46.4219 46.5469 45.3125 46.5469ZM46.1484 44.6484C46.7578 44.6484 47.2031 44.4714 47.4844 44.1172C47.7708 43.763 47.9271 43.1615 47.9531 42.3125V42.0547C47.9531 41.1172 47.8073 40.4453 47.5156 40.0391C47.2292 39.6328 46.7604 39.4297 46.1094 39.4297C45.5781 39.4297 45.1641 39.6562 44.8672 40.1094C44.5755 40.5573 44.4297 41.2109 44.4297 42.0703C44.4297 42.9297 44.5781 43.5755 44.875 44.0078C45.1719 44.4349 45.5964 44.6484 46.1484 44.6484ZM52.5703 35.3984C52.5703 34.6224 53.0026 34.2344 53.8672 34.2344C54.7318 34.2344 55.1641 34.6224 55.1641 35.3984C55.1641 35.7682 55.0547 36.0573 54.8359 36.2656C54.6224 36.4688 54.2995 36.5703 53.8672 36.5703C53.0026 36.5703 52.5703 36.1797 52.5703 35.3984ZM55.0547 46.3906H52.6719V37.6562H55.0547V46.3906ZM64.3281 40.3438H65.125C65.8698 40.3438 66.4271 40.1979 66.7969 39.9062C67.1667 39.6094 67.3516 39.1797 67.3516 38.6172C67.3516 38.0495 67.1953 37.6302 66.8828 37.3594C66.5755 37.0885 66.0911 36.9531 65.4297 36.9531H64.3281V40.3438ZM69.7969 38.5312C69.7969 39.7604 69.4115 40.7005 68.6406 41.3516C67.875 42.0026 66.7839 42.3281 65.3672 42.3281H64.3281V46.3906H61.9062V34.9688H65.5547C66.9401 34.9688 67.9922 35.2682 68.7109 35.8672C69.4349 36.4609 69.7969 37.349 69.7969 38.5312ZM77.3125 46.3906L76.8516 45.2031H76.7891C76.388 45.7083 75.974 46.0599 75.5469 46.2578C75.125 46.4505 74.5729 46.5469 73.8906 46.5469C73.0521 46.5469 72.3906 46.3073 71.9062 45.8281C71.4271 45.349 71.1875 44.6667 71.1875 43.7812C71.1875 42.8542 71.5104 42.1719 72.1562 41.7344C72.8073 41.2917 73.7865 41.0469 75.0938 41L76.6094 40.9531V40.5703C76.6094 39.6849 76.1562 39.2422 75.25 39.2422C74.5521 39.2422 73.7318 39.4531 72.7891 39.875L72 38.2656C73.0052 37.7396 74.1198 37.4766 75.3438 37.4766C76.5156 37.4766 77.4141 37.7318 78.0391 38.2422C78.6641 38.7526 78.9766 39.5286 78.9766 40.5703V46.3906H77.3125ZM76.6094 42.3438L75.6875 42.375C74.9948 42.3958 74.4792 42.5208 74.1406 42.75C73.8021 42.9792 73.6328 43.3281 73.6328 43.7969C73.6328 44.4688 74.0182 44.8047 74.7891 44.8047C75.3411 44.8047 75.7812 44.6458 76.1094 44.3281C76.4427 44.0104 76.6094 43.5885 76.6094 43.0625V42.3438ZM84.9844 46.5469C82.2656 46.5469 80.9062 45.0547 80.9062 42.0703C80.9062 40.5859 81.276 39.4531 82.0156 38.6719C82.7552 37.8854 83.8151 37.4922 85.1953 37.4922C86.2057 37.4922 87.112 37.6901 87.9141 38.0859L87.2109 39.9297C86.8359 39.7786 86.487 39.6562 86.1641 39.5625C85.8411 39.4635 85.5182 39.4141 85.1953 39.4141C83.9557 39.4141 83.3359 40.2943 83.3359 42.0547C83.3359 43.763 83.9557 44.6172 85.1953 44.6172C85.6536 44.6172 86.0781 44.5573 86.4688 44.4375C86.8594 44.3125 87.25 44.1198 87.6406 43.8594V45.8984C87.2552 46.1432 86.8646 46.3125 86.4688 46.4062C86.0781 46.5 85.5833 46.5469 84.9844 46.5469ZM91.9609 41.6406L93 40.3125L95.4453 37.6562H98.1328L94.6641 41.4453L98.3438 46.3906H95.5938L93.0781 42.8516L92.0547 43.6719V46.3906H89.6719V34.2344H92.0547V39.6562L91.9297 41.6406H91.9609ZM105.141 46.3906L104.68 45.2031H104.617C104.216 45.7083 103.802 46.0599 103.375 46.2578C102.953 46.4505 102.401 46.5469 101.719 46.5469C100.88 46.5469 100.219 46.3073 99.7344 45.8281C99.2552 45.349 99.0156 44.6667 99.0156 43.7812C99.0156 42.8542 99.3385 42.1719 99.9844 41.7344C100.635 41.2917 101.615 41.0469 102.922 41L104.438 40.9531V40.5703C104.438 39.6849 103.984 39.2422 103.078 39.2422C102.38 39.2422 101.56 39.4531 100.617 39.875L99.8281 38.2656C100.833 37.7396 101.948 37.4766 103.172 37.4766C104.344 37.4766 105.242 37.7318 105.867 38.2422C106.492 38.7526 106.805 39.5286 106.805 40.5703V46.3906H105.141ZM104.438 42.3438L103.516 42.375C102.823 42.3958 102.307 42.5208 101.969 42.75C101.63 42.9792 101.461 43.3281 101.461 43.7969C101.461 44.4688 101.846 44.8047 102.617 44.8047C103.169 44.8047 103.609 44.6458 103.938 44.3281C104.271 44.0104 104.438 43.5885 104.438 43.0625V42.3438ZM116.867 37.6562V38.8672L115.5 39.2188C115.75 39.6094 115.875 40.0469 115.875 40.5312C115.875 41.4688 115.547 42.2005 114.891 42.7266C114.24 43.2474 113.333 43.5078 112.172 43.5078L111.742 43.4844L111.391 43.4453C111.146 43.6328 111.023 43.8411 111.023 44.0703C111.023 44.4141 111.461 44.5859 112.336 44.5859H113.82C114.779 44.5859 115.508 44.7917 116.008 45.2031C116.513 45.6146 116.766 46.2188 116.766 47.0156C116.766 48.0365 116.339 48.8281 115.484 49.3906C114.635 49.9531 113.414 50.2344 111.82 50.2344C110.602 50.2344 109.669 50.0208 109.023 49.5938C108.383 49.1719 108.062 48.5781 108.062 47.8125C108.062 47.2865 108.227 46.8464 108.555 46.4922C108.883 46.138 109.365 45.8854 110 45.7344C109.755 45.6302 109.542 45.4609 109.359 45.2266C109.177 44.987 109.086 44.7344 109.086 44.4688C109.086 44.1354 109.182 43.8594 109.375 43.6406C109.568 43.4167 109.846 43.1979 110.211 42.9844C109.753 42.7865 109.388 42.4688 109.117 42.0312C108.852 41.5938 108.719 41.0781 108.719 40.4844C108.719 39.5312 109.029 38.7943 109.648 38.2734C110.268 37.7526 111.154 37.4922 112.305 37.4922C112.549 37.4922 112.839 37.5156 113.172 37.5625C113.51 37.6042 113.727 37.6354 113.82 37.6562H116.867ZM110.125 47.625C110.125 47.9531 110.281 48.2109 110.594 48.3984C110.911 48.5859 111.354 48.6797 111.922 48.6797C112.776 48.6797 113.445 48.5625 113.93 48.3281C114.414 48.0938 114.656 47.7734 114.656 47.3672C114.656 47.0391 114.513 46.8125 114.227 46.6875C113.94 46.5625 113.497 46.5 112.898 46.5H111.664C111.227 46.5 110.859 46.6016 110.562 46.8047C110.271 47.013 110.125 47.2865 110.125 47.625ZM110.992 40.5156C110.992 40.9896 111.099 41.3646 111.312 41.6406C111.531 41.9167 111.862 42.0547 112.305 42.0547C112.753 42.0547 113.081 41.9167 113.289 41.6406C113.497 41.3646 113.602 40.9896 113.602 40.5156C113.602 39.4635 113.169 38.9375 112.305 38.9375C111.43 38.9375 110.992 39.4635 110.992 40.5156ZM121.93 39.1875C121.424 39.1875 121.029 39.349 120.742 39.6719C120.456 39.9896 120.292 40.4427 120.25 41.0312H123.594C123.583 40.4427 123.43 39.9896 123.133 39.6719C122.836 39.349 122.435 39.1875 121.93 39.1875ZM122.266 46.5469C120.859 46.5469 119.76 46.1589 118.969 45.3828C118.177 44.6068 117.781 43.5078 117.781 42.0859C117.781 40.6224 118.146 39.4922 118.875 38.6953C119.609 37.8932 120.622 37.4922 121.914 37.4922C123.148 37.4922 124.109 37.8438 124.797 38.5469C125.484 39.25 125.828 40.2214 125.828 41.4609V42.6172H120.195C120.221 43.2943 120.422 43.8229 120.797 44.2031C121.172 44.5833 121.698 44.7734 122.375 44.7734C122.901 44.7734 123.398 44.7188 123.867 44.6094C124.336 44.5 124.826 44.3255 125.336 44.0859V45.9297C124.919 46.138 124.474 46.2917 124 46.3906C123.526 46.4948 122.948 46.5469 122.266 46.5469Z" fill="#303030"/>
<path d="M17.5312 224.273C18.5677 224.273 19.4219 224.398 20.0938 224.648C20.7708 224.898 21.2734 225.276 21.6016 225.781C21.9297 226.286 22.0938 226.924 22.0938 227.695C22.0938 228.216 21.9948 228.672 21.7969 229.062C21.599 229.453 21.3385 229.784 21.0156 230.055C20.6927 230.326 20.3438 230.547 19.9688 230.719L23.3281 235.695H20.6406L17.9141 231.312H16.625V235.695H14.2031V224.273H17.5312ZM17.3594 226.258H16.625V229.344H17.4062C18.2083 229.344 18.7812 229.211 19.125 228.945C19.474 228.674 19.6484 228.279 19.6484 227.758C19.6484 227.216 19.4609 226.831 19.0859 226.602C18.7161 226.372 18.1406 226.258 17.3594 226.258ZM30.6719 233.102C30.6719 233.695 30.5312 234.198 30.25 234.609C29.974 235.016 29.5599 235.326 29.0078 235.539C28.4557 235.747 27.7682 235.852 26.9453 235.852C26.3359 235.852 25.8125 235.812 25.375 235.734C24.9427 235.656 24.5052 235.526 24.0625 235.344V233.375C24.5365 233.589 25.0443 233.766 25.5859 233.906C26.1328 234.042 26.612 234.109 27.0234 234.109C27.487 234.109 27.8177 234.042 28.0156 233.906C28.2188 233.766 28.3203 233.583 28.3203 233.359C28.3203 233.214 28.2786 233.083 28.1953 232.969C28.1172 232.849 27.9453 232.716 27.6797 232.57C27.4141 232.419 26.9974 232.224 26.4297 231.984C25.8828 231.755 25.4323 231.523 25.0781 231.289C24.7292 231.055 24.4688 230.779 24.2969 230.461C24.1302 230.138 24.0469 229.729 24.0469 229.234C24.0469 228.427 24.3594 227.82 24.9844 227.414C25.6146 227.003 26.4557 226.797 27.5078 226.797C28.0495 226.797 28.5651 226.852 29.0547 226.961C29.5495 227.07 30.0573 227.245 30.5781 227.484L29.8594 229.203C29.4271 229.016 29.0182 228.862 28.6328 228.742C28.2526 228.622 27.8646 228.562 27.4688 228.562C27.1198 228.562 26.8568 228.609 26.6797 228.703C26.5026 228.797 26.4141 228.94 26.4141 229.133C26.4141 229.273 26.4583 229.398 26.5469 229.508C26.6406 229.617 26.8177 229.74 27.0781 229.875C27.3438 230.005 27.7318 230.174 28.2422 230.383C28.737 230.586 29.1667 230.799 29.5312 231.023C29.8958 231.242 30.1771 231.516 30.375 231.844C30.5729 232.167 30.6719 232.586 30.6719 233.102ZM32.1953 234.578C32.1953 234.089 32.3281 233.745 32.5938 233.547C32.8646 233.349 33.1901 233.25 33.5703 233.25C33.9401 233.25 34.2578 233.349 34.5234 233.547C34.7943 233.745 34.9297 234.089 34.9297 234.578C34.9297 235.047 34.7943 235.385 34.5234 235.594C34.2578 235.802 33.9401 235.906 33.5703 235.906C33.1901 235.906 32.8646 235.802 32.5938 235.594C32.3281 235.385 32.1953 235.047 32.1953 234.578ZM48.1797 226.828C48.1797 227.354 48.0703 227.81 47.8516 228.195C47.6328 228.581 47.3359 228.896 46.9609 229.141C46.5911 229.385 46.1745 229.565 45.7109 229.68V229.727C46.6276 229.841 47.3229 230.122 47.7969 230.57C48.276 231.018 48.5156 231.617 48.5156 232.367C48.5156 233.034 48.3516 233.63 48.0234 234.156C47.7005 234.682 47.2005 235.096 46.5234 235.398C45.8464 235.701 44.974 235.852 43.9062 235.852C43.276 235.852 42.6875 235.799 42.1406 235.695C41.599 235.596 41.0885 235.443 40.6094 235.234V233.18C41.099 233.43 41.612 233.62 42.1484 233.75C42.6849 233.875 43.1849 233.938 43.6484 233.938C44.513 233.938 45.1172 233.789 45.4609 233.492C45.8099 233.19 45.9844 232.768 45.9844 232.227C45.9844 231.909 45.9036 231.641 45.7422 231.422C45.5807 231.203 45.2995 231.036 44.8984 230.922C44.5026 230.807 43.9479 230.75 43.2344 230.75H42.3672V228.898H43.25C43.9531 228.898 44.487 228.833 44.8516 228.703C45.2214 228.568 45.4714 228.385 45.6016 228.156C45.737 227.922 45.8047 227.656 45.8047 227.359C45.8047 226.953 45.6797 226.635 45.4297 226.406C45.1797 226.177 44.763 226.062 44.1797 226.062C43.8151 226.062 43.4818 226.109 43.1797 226.203C42.8828 226.292 42.6146 226.401 42.375 226.531C42.1354 226.656 41.9245 226.779 41.7422 226.898L40.625 225.234C41.0729 224.911 41.5964 224.643 42.1953 224.43C42.7995 224.216 43.5182 224.109 44.3516 224.109C45.5286 224.109 46.4609 224.346 47.1484 224.82C47.8359 225.294 48.1797 225.964 48.1797 226.828ZM50.0703 234.578C50.0703 234.089 50.2031 233.745 50.4688 233.547C50.7396 233.349 51.0651 233.25 51.4453 233.25C51.8151 233.25 52.1328 233.349 52.3984 233.547C52.6693 233.745 52.8047 234.089 52.8047 234.578C52.8047 235.047 52.6693 235.385 52.3984 235.594C52.1328 235.802 51.8151 235.906 51.4453 235.906C51.0651 235.906 50.7396 235.802 50.4688 235.594C50.2031 235.385 50.0703 235.047 50.0703 234.578ZM62.2812 229.984C62.2812 230.906 62.2083 231.729 62.0625 232.453C61.9219 233.177 61.6927 233.792 61.375 234.297C61.0625 234.802 60.651 235.188 60.1406 235.453C59.6302 235.719 59.0104 235.852 58.2812 235.852C57.3646 235.852 56.612 235.62 56.0234 235.156C55.4349 234.688 55 234.016 54.7188 233.141C54.4375 232.26 54.2969 231.208 54.2969 229.984C54.2969 228.75 54.4245 227.695 54.6797 226.82C54.9401 225.94 55.362 225.266 55.9453 224.797C56.5286 224.328 57.3073 224.094 58.2812 224.094C59.1927 224.094 59.9427 224.328 60.5312 224.797C61.125 225.26 61.5651 225.932 61.8516 226.812C62.138 227.688 62.2812 228.745 62.2812 229.984ZM56.6953 229.984C56.6953 230.854 56.7422 231.581 56.8359 232.164C56.9349 232.742 57.099 233.177 57.3281 233.469C57.5573 233.76 57.875 233.906 58.2812 233.906C58.6823 233.906 58.9974 233.763 59.2266 233.477C59.4609 233.185 59.6276 232.75 59.7266 232.172C59.8255 231.589 59.875 230.859 59.875 229.984C59.875 229.115 59.8255 228.388 59.7266 227.805C59.6276 227.221 59.4609 226.784 59.2266 226.492C58.9974 226.195 58.6823 226.047 58.2812 226.047C57.875 226.047 57.5573 226.195 57.3281 226.492C57.099 226.784 56.9349 227.221 56.8359 227.805C56.7422 228.388 56.6953 229.115 56.6953 229.984ZM71.4375 229.984C71.4375 230.906 71.3646 231.729 71.2188 232.453C71.0781 233.177 70.849 233.792 70.5312 234.297C70.2188 234.802 69.8073 235.188 69.2969 235.453C68.7865 235.719 68.1667 235.852 67.4375 235.852C66.5208 235.852 65.7682 235.62 65.1797 235.156C64.5911 234.688 64.1562 234.016 63.875 233.141C63.5938 232.26 63.4531 231.208 63.4531 229.984C63.4531 228.75 63.5807 227.695 63.8359 226.82C64.0964 225.94 64.5182 225.266 65.1016 224.797C65.6849 224.328 66.4635 224.094 67.4375 224.094C68.349 224.094 69.099 224.328 69.6875 224.797C70.2812 225.26 70.7214 225.932 71.0078 226.812C71.2943 227.688 71.4375 228.745 71.4375 229.984ZM65.8516 229.984C65.8516 230.854 65.8984 231.581 65.9922 232.164C66.0911 232.742 66.2552 233.177 66.4844 233.469C66.7135 233.76 67.0312 233.906 67.4375 233.906C67.8385 233.906 68.1536 233.763 68.3828 233.477C68.6172 233.185 68.7839 232.75 68.8828 232.172C68.9818 231.589 69.0312 230.859 69.0312 229.984C69.0312 229.115 68.9818 228.388 68.8828 227.805C68.7839 227.221 68.6172 226.784 68.3828 226.492C68.1536 226.195 67.8385 226.047 67.4375 226.047C67.0312 226.047 66.7135 226.195 66.4844 226.492C66.2552 226.784 66.0911 227.221 65.9922 227.805C65.8984 228.388 65.8516 229.115 65.8516 229.984ZM78.5625 224.273L74.3047 235.695H72.1406L76.3984 224.273H78.5625ZM89.5547 229.875C89.5547 231.161 89.3073 232.237 88.8125 233.102C88.3229 233.961 87.612 234.609 86.6797 235.047C85.7474 235.479 84.625 235.695 83.3125 235.695H80.0781V224.273H83.6641C84.862 224.273 85.901 224.487 86.7812 224.914C87.6615 225.336 88.3438 225.964 88.8281 226.797C89.3125 227.625 89.5547 228.651 89.5547 229.875ZM87.0391 229.938C87.0391 229.094 86.9141 228.401 86.6641 227.859C86.4193 227.312 86.0547 226.909 85.5703 226.648C85.0911 226.388 84.4974 226.258 83.7891 226.258H82.5V233.695H83.5391C84.7214 233.695 85.599 233.38 86.1719 232.75C86.75 232.12 87.0391 231.182 87.0391 229.938ZM95.3125 226.781C96.4844 226.781 97.3828 227.036 98.0078 227.547C98.6328 228.057 98.9453 228.833 98.9453 229.875V235.695H97.2812L96.8203 234.508H96.7578C96.5078 234.82 96.2526 235.076 95.9922 235.273C95.7318 235.471 95.4323 235.617 95.0938 235.711C94.7552 235.805 94.3438 235.852 93.8594 235.852C93.3438 235.852 92.8802 235.753 92.4688 235.555C92.0625 235.357 91.7422 235.055 91.5078 234.648C91.2734 234.237 91.1562 233.716 91.1562 233.086C91.1562 232.159 91.4818 231.477 92.1328 231.039C92.7839 230.596 93.7604 230.352 95.0625 230.305L96.5781 230.258V229.875C96.5781 229.417 96.4583 229.081 96.2188 228.867C95.9792 228.654 95.6458 228.547 95.2188 228.547C94.7969 228.547 94.3828 228.607 93.9766 228.727C93.5703 228.846 93.1641 228.997 92.7578 229.18L91.9688 227.57C92.4323 227.326 92.9505 227.133 93.5234 226.992C94.1016 226.852 94.6979 226.781 95.3125 226.781ZM96.5781 231.648L95.6562 231.68C94.8854 231.701 94.349 231.839 94.0469 232.094C93.75 232.349 93.6016 232.685 93.6016 233.102C93.6016 233.466 93.7083 233.727 93.9219 233.883C94.1354 234.034 94.4141 234.109 94.7578 234.109C95.2682 234.109 95.6979 233.958 96.0469 233.656C96.401 233.354 96.5781 232.924 96.5781 232.367V231.648ZM100.156 226.961H102.766L104.414 231.875C104.466 232.031 104.51 232.19 104.547 232.352C104.583 232.513 104.615 232.68 104.641 232.852C104.667 233.023 104.688 233.203 104.703 233.391H104.75C104.781 233.109 104.823 232.846 104.875 232.602C104.932 232.357 105.003 232.115 105.086 231.875L106.703 226.961H109.258L105.562 236.812C105.339 237.417 105.047 237.919 104.688 238.32C104.328 238.727 103.914 239.031 103.445 239.234C102.982 239.438 102.471 239.539 101.914 239.539C101.643 239.539 101.409 239.523 101.211 239.492C101.013 239.466 100.844 239.438 100.703 239.406V237.516C100.812 237.542 100.951 237.565 101.117 237.586C101.284 237.607 101.458 237.617 101.641 237.617C101.974 237.617 102.26 237.547 102.5 237.406C102.74 237.266 102.94 237.076 103.102 236.836C103.263 236.602 103.391 236.344 103.484 236.062L103.625 235.633L100.156 226.961Z" fill="#007643"/>
<path d="M17.1968 242.536C16.7635 242.536 16.3732 242.611 16.0259 242.761C15.6821 242.908 15.3885 243.123 15.145 243.406C14.9051 243.685 14.7207 244.023 14.5918 244.421C14.4629 244.818 14.3984 245.266 14.3984 245.764C14.3984 246.423 14.5005 246.995 14.7046 247.482C14.9123 247.966 15.2202 248.34 15.6284 248.605C16.0402 248.87 16.554 249.002 17.1699 249.002C17.5208 249.002 17.8503 248.974 18.1582 248.917C18.4697 248.856 18.7723 248.78 19.0659 248.691V249.486C18.7795 249.593 18.4787 249.672 18.1636 249.722C17.8485 249.776 17.4743 249.803 17.041 249.803C16.2425 249.803 15.5747 249.638 15.0376 249.309C14.5041 248.976 14.103 248.507 13.8345 247.901C13.5695 247.296 13.437 246.582 13.437 245.758C13.437 245.164 13.5194 244.621 13.6841 244.131C13.8524 243.637 14.0959 243.211 14.4146 242.853C14.7368 242.494 15.1307 242.219 15.5962 242.025C16.0653 241.828 16.6024 241.73 17.2075 241.73C17.605 241.73 17.9881 241.769 18.3569 241.848C18.7257 241.927 19.0588 242.04 19.356 242.187L18.9907 242.96C18.7401 242.845 18.4644 242.747 18.1636 242.665C17.8664 242.579 17.5441 242.536 17.1968 242.536ZM25.71 246.741C25.71 247.225 25.6473 247.656 25.522 248.036C25.3966 248.415 25.2158 248.736 24.9795 248.997C24.7432 249.258 24.4567 249.459 24.1201 249.599C23.7871 249.735 23.4093 249.803 22.9868 249.803C22.5929 249.803 22.2313 249.735 21.9019 249.599C21.576 249.459 21.2931 249.258 21.0532 248.997C20.8169 248.736 20.6325 248.415 20.5 248.036C20.3711 247.656 20.3066 247.225 20.3066 246.741C20.3066 246.097 20.4159 245.549 20.6343 245.098C20.8527 244.643 21.1642 244.297 21.5688 244.061C21.9771 243.821 22.4622 243.701 23.0244 243.701C23.5615 243.701 24.0306 243.821 24.4316 244.061C24.8363 244.301 25.1496 244.648 25.3716 245.103C25.5972 245.554 25.71 246.1 25.71 246.741ZM21.2305 246.741C21.2305 247.214 21.2931 247.624 21.4185 247.971C21.5438 248.319 21.7371 248.587 21.9985 248.777C22.2599 248.967 22.5965 249.062 23.0083 249.062C23.4165 249.062 23.7513 248.967 24.0127 248.777C24.2777 248.587 24.4728 248.319 24.5981 247.971C24.7235 247.624 24.7861 247.214 24.7861 246.741C24.7861 246.272 24.7235 245.868 24.5981 245.527C24.4728 245.184 24.2795 244.919 24.0181 244.732C23.7567 244.546 23.4183 244.453 23.0029 244.453C22.3906 244.453 21.9412 244.655 21.6548 245.06C21.3719 245.465 21.2305 246.025 21.2305 246.741ZM30.0391 243.701C30.7373 243.701 31.2655 243.873 31.6235 244.217C31.9816 244.557 32.1606 245.105 32.1606 245.86V249.695H31.2798V245.919C31.2798 245.429 31.167 245.062 30.9414 244.818C30.7194 244.575 30.3774 244.453 29.9155 244.453C29.2638 244.453 28.8055 244.638 28.5405 245.006C28.2756 245.375 28.1431 245.91 28.1431 246.612V249.695H27.2515V243.809H27.9712L28.1055 244.657H28.1538C28.2791 244.45 28.4385 244.276 28.6318 244.136C28.8252 243.993 29.0418 243.886 29.2817 243.814C29.5216 243.739 29.7741 243.701 30.0391 243.701ZM37.8057 248.084C37.8057 248.46 37.7108 248.777 37.521 249.035C37.3348 249.289 37.0662 249.48 36.7153 249.609C36.368 249.738 35.9526 249.803 35.4692 249.803C35.0575 249.803 34.7012 249.771 34.4004 249.706C34.0996 249.642 33.8364 249.55 33.6108 249.432V248.61C33.8507 248.729 34.1372 248.836 34.4702 248.933C34.8032 249.029 35.1434 249.078 35.4907 249.078C35.9992 249.078 36.368 248.995 36.5972 248.831C36.8263 248.666 36.9409 248.442 36.9409 248.159C36.9409 247.998 36.8944 247.857 36.8013 247.735C36.7118 247.61 36.5596 247.49 36.3447 247.375C36.1299 247.257 35.8327 247.128 35.4531 246.988C35.0771 246.845 34.7513 246.704 34.4756 246.564C34.2035 246.421 33.9922 246.247 33.8418 246.043C33.695 245.839 33.6216 245.574 33.6216 245.248C33.6216 244.75 33.8221 244.369 34.2231 244.104C34.6278 243.835 35.1577 243.701 35.813 243.701C36.1675 243.701 36.4987 243.737 36.8066 243.809C37.1182 243.877 37.4082 243.97 37.6768 244.088L37.376 244.802C37.1325 244.698 36.8729 244.611 36.5972 244.539C36.3215 244.467 36.0404 244.432 35.7539 244.432C35.3421 244.432 35.0252 244.5 34.8032 244.636C34.5848 244.772 34.4756 244.958 34.4756 245.194C34.4756 245.377 34.5257 245.527 34.626 245.646C34.7298 245.764 34.8945 245.875 35.1201 245.979C35.3457 246.082 35.6429 246.204 36.0117 246.344C36.3805 246.48 36.6992 246.621 36.9678 246.768C37.2363 246.911 37.4422 247.087 37.5854 247.294C37.7323 247.499 37.8057 247.762 37.8057 248.084ZM44.1006 243.809V249.695H43.3701L43.2412 248.868H43.1929C43.0711 249.072 42.9136 249.244 42.7202 249.384C42.5269 249.523 42.3084 249.627 42.0649 249.695C41.825 249.767 41.569 249.803 41.2969 249.803C40.8314 249.803 40.4411 249.728 40.126 249.577C39.8109 249.427 39.5728 249.194 39.4116 248.879C39.2541 248.564 39.1753 248.159 39.1753 247.665V243.809H40.0776V247.601C40.0776 248.091 40.1886 248.458 40.4106 248.702C40.6326 248.942 40.971 249.062 41.4258 249.062C41.8626 249.062 42.21 248.979 42.4678 248.814C42.7292 248.65 42.9172 248.408 43.0317 248.089C43.1463 247.767 43.2036 247.373 43.2036 246.908V243.809H44.1006ZM52.3774 243.701C53.0256 243.701 53.5143 243.871 53.8438 244.211C54.1732 244.548 54.3379 245.09 54.3379 245.839V249.695H53.457V245.882C53.457 245.406 53.3532 245.049 53.1455 244.813C52.9414 244.573 52.637 244.453 52.2324 244.453C51.6631 244.453 51.2495 244.618 50.9917 244.947C50.7339 245.277 50.605 245.762 50.605 246.403V249.695H49.7188V245.882C49.7188 245.563 49.6722 245.298 49.5791 245.087C49.4896 244.876 49.3535 244.718 49.1709 244.614C48.9919 244.507 48.7645 244.453 48.4888 244.453C48.0985 244.453 47.7852 244.534 47.5488 244.695C47.3125 244.856 47.1406 245.096 47.0332 245.415C46.9294 245.73 46.8774 246.118 46.8774 246.58V249.695H45.9858V243.809H46.7056L46.8398 244.641H46.8882C47.0063 244.437 47.1549 244.265 47.334 244.125C47.513 243.986 47.7135 243.88 47.9355 243.809C48.1576 243.737 48.3939 243.701 48.6445 243.701C49.0921 243.701 49.4663 243.785 49.7671 243.954C50.0715 244.118 50.2917 244.371 50.4277 244.711H50.4761C50.6694 244.371 50.9344 244.118 51.271 243.954C51.6076 243.785 51.9764 243.701 52.3774 243.701ZM58.436 243.701C58.9373 243.701 59.367 243.812 59.7251 244.034C60.0832 244.256 60.3571 244.568 60.5469 244.969C60.7367 245.366 60.8315 245.832 60.8315 246.365V246.918H56.7656C56.7764 247.61 56.9482 248.136 57.2812 248.498C57.6143 248.859 58.0833 249.04 58.6885 249.04C59.0609 249.04 59.3903 249.006 59.6768 248.938C59.9632 248.87 60.2604 248.77 60.5684 248.637V249.421C60.2712 249.554 59.9757 249.651 59.6821 249.711C59.3921 249.772 59.0483 249.803 58.6509 249.803C58.0851 249.803 57.591 249.688 57.1685 249.459C56.7495 249.226 56.4237 248.886 56.1909 248.438C55.9582 247.991 55.8418 247.443 55.8418 246.795C55.8418 246.161 55.9474 245.613 56.1587 245.151C56.3735 244.686 56.6743 244.328 57.061 244.077C57.4513 243.826 57.9097 243.701 58.436 243.701ZM58.4253 244.432C57.9491 244.432 57.5695 244.587 57.2866 244.899C57.0037 245.21 56.8354 245.646 56.7817 246.204H59.897C59.8934 245.853 59.8379 245.545 59.7305 245.28C59.6266 245.012 59.4673 244.804 59.2524 244.657C59.0376 244.507 58.7619 244.432 58.4253 244.432ZM65.021 243.701C65.1392 243.701 65.2627 243.708 65.3916 243.723C65.5205 243.733 65.6351 243.75 65.7354 243.771L65.6226 244.598C65.5259 244.573 65.4185 244.553 65.3003 244.539C65.1821 244.525 65.0711 244.518 64.9673 244.518C64.731 244.518 64.5072 244.566 64.2959 244.663C64.0882 244.756 63.9056 244.892 63.748 245.071C63.5905 245.246 63.467 245.459 63.3774 245.71C63.2879 245.957 63.2432 246.233 63.2432 246.537V249.695H62.3462V243.809H63.0874L63.1841 244.894H63.2217C63.3434 244.675 63.4902 244.476 63.6621 244.297C63.834 244.115 64.0327 243.97 64.2583 243.862C64.4875 243.755 64.7417 243.701 65.021 243.701ZM71.8906 241.843C72.904 241.843 73.6434 242.042 74.1089 242.439C74.578 242.833 74.8125 243.399 74.8125 244.136C74.8125 244.469 74.757 244.786 74.646 245.087C74.5386 245.384 74.3631 245.647 74.1196 245.876C73.8761 246.102 73.5557 246.281 73.1582 246.414C72.7643 246.542 72.2809 246.607 71.708 246.607H70.752V249.695H69.8389V241.843H71.8906ZM71.8047 242.622H70.752V245.823H71.606C72.1073 245.823 72.5244 245.769 72.8574 245.662C73.194 245.554 73.4465 245.381 73.6147 245.141C73.783 244.897 73.8672 244.575 73.8672 244.174C73.8672 243.651 73.7007 243.263 73.3677 243.008C73.0347 242.75 72.5137 242.622 71.8047 242.622ZM78.9966 243.701C79.1147 243.701 79.2383 243.708 79.3672 243.723C79.4961 243.733 79.6107 243.75 79.7109 243.771L79.5981 244.598C79.5015 244.573 79.394 244.553 79.2759 244.539C79.1577 244.525 79.0467 244.518 78.9429 244.518C78.7065 244.518 78.4827 244.566 78.2715 244.663C78.0638 244.756 77.8812 244.892 77.7236 245.071C77.5661 245.246 77.4425 245.459 77.353 245.71C77.2635 245.957 77.2188 246.233 77.2188 246.537V249.695H76.3218V243.809H77.063L77.1597 244.894H77.1973C77.319 244.675 77.4658 244.476 77.6377 244.297C77.8096 244.115 78.0083 243.97 78.2339 243.862C78.4631 243.755 78.7173 243.701 78.9966 243.701ZM81.7144 243.809V249.695H80.8228V243.809H81.7144ZM81.2793 241.606C81.4261 241.606 81.5514 241.655 81.6553 241.751C81.7627 241.845 81.8164 241.991 81.8164 242.192C81.8164 242.389 81.7627 242.536 81.6553 242.632C81.5514 242.729 81.4261 242.777 81.2793 242.777C81.1253 242.777 80.9964 242.729 80.8926 242.632C80.7923 242.536 80.7422 242.389 80.7422 242.192C80.7422 241.991 80.7923 241.845 80.8926 241.751C80.9964 241.655 81.1253 241.606 81.2793 241.606ZM85.9629 249.803C85.4329 249.803 84.9657 249.694 84.561 249.475C84.1564 249.257 83.8413 248.924 83.6157 248.476C83.3901 248.028 83.2773 247.465 83.2773 246.784C83.2773 246.072 83.3955 245.49 83.6318 245.039C83.8717 244.584 84.2012 244.247 84.6201 244.029C85.0391 243.81 85.5153 243.701 86.0488 243.701C86.3424 243.701 86.6253 243.732 86.8975 243.792C87.1732 243.85 87.3988 243.923 87.5742 244.013L87.3057 244.759C87.1266 244.688 86.9189 244.623 86.6826 244.566C86.4499 244.509 86.2314 244.48 86.0273 244.48C85.6191 244.48 85.279 244.568 85.0068 244.743C84.7383 244.919 84.536 245.176 84.3999 245.517C84.2674 245.857 84.2012 246.276 84.2012 246.773C84.2012 247.25 84.2656 247.656 84.3945 247.993C84.527 248.329 84.7222 248.587 84.98 248.766C85.2414 248.942 85.5672 249.029 85.9575 249.029C86.269 249.029 86.5501 248.997 86.8008 248.933C87.0514 248.865 87.2788 248.786 87.4829 248.696V249.491C87.286 249.591 87.0658 249.668 86.8223 249.722C86.5824 249.776 86.2959 249.803 85.9629 249.803ZM91.146 243.701C91.6473 243.701 92.077 243.812 92.4351 244.034C92.7931 244.256 93.0671 244.568 93.2568 244.969C93.4466 245.366 93.5415 245.832 93.5415 246.365V246.918H89.4756C89.4863 247.61 89.6582 248.136 89.9912 248.498C90.3242 248.859 90.7933 249.04 91.3984 249.04C91.7708 249.04 92.1003 249.006 92.3867 248.938C92.6732 248.87 92.9704 248.77 93.2783 248.637V249.421C92.9811 249.554 92.6857 249.651 92.3921 249.711C92.1021 249.772 91.7583 249.803 91.3608 249.803C90.7951 249.803 90.3009 249.688 89.8784 249.459C89.4595 249.226 89.1336 248.886 88.9009 248.438C88.6681 247.991 88.5518 247.443 88.5518 246.795C88.5518 246.161 88.6574 245.613 88.8687 245.151C89.0835 244.686 89.3843 244.328 89.771 244.077C90.1613 243.826 90.6196 243.701 91.146 243.701ZM91.1353 244.432C90.659 244.432 90.2795 244.587 89.9966 244.899C89.7137 245.21 89.5454 245.646 89.4917 246.204H92.6069C92.6034 245.853 92.5479 245.545 92.4404 245.28C92.3366 245.012 92.1772 244.804 91.9624 244.657C91.7476 244.507 91.4718 244.432 91.1353 244.432Z" fill="#303030"/>
<path d="M30.6099 137.131C30.6099 137.711 30.4342 138.204 30.083 138.61C29.7318 139.017 29.2388 139.296 28.604 139.448V139.486C29.353 139.579 29.9201 139.808 30.3052 140.172C30.6903 140.532 30.8828 141.018 30.8828 141.632C30.8828 142.525 30.5591 143.221 29.9116 143.72C29.2642 144.215 28.3395 144.463 27.1377 144.463C26.1305 144.463 25.2376 144.296 24.459 143.961V142.292C24.8187 142.474 25.2144 142.622 25.646 142.736C26.0776 142.851 26.505 142.908 26.9282 142.908C27.5757 142.908 28.0539 142.798 28.3628 142.578C28.6717 142.358 28.8262 142.004 28.8262 141.518C28.8262 141.082 28.6484 140.773 28.293 140.591C27.9375 140.409 27.3704 140.318 26.5918 140.318H25.8872V138.813H26.6045C27.3239 138.813 27.8486 138.72 28.1787 138.534C28.513 138.344 28.6802 138.02 28.6802 137.563C28.6802 136.861 28.2401 136.509 27.3599 136.509C27.0552 136.509 26.7441 136.56 26.4268 136.662C26.1136 136.763 25.7645 136.939 25.3794 137.188L24.4717 135.836C25.318 135.227 26.3273 134.922 27.4995 134.922C28.4601 134.922 29.2176 135.117 29.772 135.506C30.3306 135.896 30.6099 136.437 30.6099 137.131ZM38.3477 139.696C38.3477 141.317 38.0811 142.516 37.5479 143.295C37.0189 144.074 36.2021 144.463 35.0977 144.463C34.027 144.463 33.2188 144.061 32.6729 143.257C32.1312 142.453 31.8604 141.266 31.8604 139.696C31.8604 138.058 32.1248 136.852 32.6538 136.078C33.1828 135.299 33.9974 134.91 35.0977 134.91C36.1683 134.91 36.9766 135.316 37.5225 136.128C38.0726 136.941 38.3477 138.13 38.3477 139.696ZM33.8091 139.696C33.8091 140.834 33.9064 141.651 34.1011 142.146C34.3 142.637 34.6322 142.882 35.0977 142.882C35.5547 142.882 35.8848 142.633 36.0879 142.133C36.291 141.634 36.3926 140.821 36.3926 139.696C36.3926 138.557 36.2889 137.741 36.0815 137.246C35.8784 136.746 35.5505 136.497 35.0977 136.497C34.6364 136.497 34.3063 136.746 34.1074 137.246C33.9085 137.741 33.8091 138.557 33.8091 139.696ZM45.7744 139.696C45.7744 141.317 45.5078 142.516 44.9746 143.295C44.4456 144.074 43.6289 144.463 42.5244 144.463C41.4538 144.463 40.6455 144.061 40.0996 143.257C39.5579 142.453 39.2871 141.266 39.2871 139.696C39.2871 138.058 39.5516 136.852 40.0806 136.078C40.6095 135.299 41.4242 134.91 42.5244 134.91C43.5951 134.91 44.4033 135.316 44.9492 136.128C45.4993 136.941 45.7744 138.13 45.7744 139.696ZM41.2358 139.696C41.2358 140.834 41.3332 141.651 41.5278 142.146C41.7267 142.637 42.0589 142.882 42.5244 142.882C42.9814 142.882 43.3115 142.633 43.5146 142.133C43.7178 141.634 43.8193 140.821 43.8193 139.696C43.8193 138.557 43.7157 137.741 43.5083 137.246C43.3052 136.746 42.9772 136.497 42.5244 136.497C42.0632 136.497 41.7331 136.746 41.5342 137.246C41.3353 137.741 41.2358 138.557 41.2358 139.696ZM54.7183 144.336L52.4839 137.055H52.4268C52.5072 138.536 52.5474 139.524 52.5474 140.02V144.336H50.7891V135.056H53.4678L55.6641 142.152H55.7021L58.0317 135.056H60.7104V144.336H58.876V139.943C58.876 139.736 58.8781 139.497 58.8823 139.226C58.8908 138.955 58.9204 138.236 58.9712 137.068H58.9141L56.521 144.336H54.7183ZM62.8179 135.405C62.8179 134.774 63.1691 134.459 63.8716 134.459C64.5741 134.459 64.9253 134.774 64.9253 135.405C64.9253 135.705 64.8364 135.94 64.6587 136.109C64.4852 136.274 64.2228 136.357 63.8716 136.357C63.1691 136.357 62.8179 136.04 62.8179 135.405ZM64.8364 144.336H62.9004V137.239H64.8364V144.336ZM73.4248 144.336H71.4888V140.191C71.4888 139.679 71.3978 139.296 71.2158 139.042C71.0339 138.784 70.744 138.655 70.3462 138.655C69.8045 138.655 69.4131 138.837 69.1719 139.201C68.9307 139.56 68.8101 140.159 68.8101 140.997V144.336H66.874V137.239H68.353L68.6133 138.147H68.7212C68.937 137.804 69.2332 137.546 69.6099 137.373C69.9907 137.195 70.4224 137.106 70.9048 137.106C71.73 137.106 72.3563 137.33 72.7837 137.779C73.2111 138.223 73.4248 138.866 73.4248 139.708V144.336ZM80.3691 142.229C80.3691 142.956 80.1152 143.511 79.6074 143.892C79.1038 144.272 78.3485 144.463 77.3413 144.463C76.825 144.463 76.3849 144.427 76.021 144.355C75.6571 144.287 75.3164 144.186 74.999 144.05V142.451C75.3587 142.62 75.7629 142.762 76.2114 142.876C76.6642 142.99 77.062 143.047 77.4048 143.047C78.1073 143.047 78.4585 142.844 78.4585 142.438C78.4585 142.286 78.4119 142.163 78.3188 142.07C78.2257 141.972 78.0649 141.865 77.8364 141.746C77.6079 141.623 77.3032 141.482 76.9224 141.321C76.3765 141.092 75.9744 140.881 75.7163 140.686C75.4624 140.491 75.2762 140.269 75.1577 140.02C75.0435 139.766 74.9863 139.455 74.9863 139.086C74.9863 138.456 75.2297 137.969 75.7163 137.626C76.2072 137.279 76.9012 137.106 77.7983 137.106C78.6532 137.106 79.4847 137.292 80.293 137.665L79.709 139.061C79.3535 138.909 79.0213 138.784 78.7124 138.687C78.4035 138.589 78.0882 138.541 77.7666 138.541C77.1953 138.541 76.9097 138.695 76.9097 139.004C76.9097 139.177 77.0007 139.328 77.1826 139.455C77.3688 139.582 77.7729 139.77 78.395 140.02C78.9494 140.244 79.3556 140.453 79.6138 140.648C79.8719 140.843 80.0623 141.067 80.1851 141.321C80.3078 141.575 80.3691 141.877 80.3691 142.229Z" fill="black"/>
<path d="M40.6997 154.399C40.6997 155.004 40.6227 155.556 40.4688 156.053C40.3184 156.547 40.091 156.973 39.7866 157.332C39.4823 157.686 39.1009 157.96 38.6426 158.153C38.1842 158.347 37.6471 158.443 37.0312 158.443C36.4046 158.443 35.8604 158.347 35.3984 158.153C34.9401 157.96 34.5588 157.684 34.2544 157.326C33.9536 156.968 33.728 156.54 33.5776 156.042C33.4272 155.545 33.3521 154.993 33.3521 154.388C33.3521 153.579 33.4845 152.874 33.7495 152.272C34.0181 151.667 34.4245 151.198 34.9688 150.865C35.5166 150.528 36.2077 150.36 37.042 150.36C37.8584 150.36 38.5369 150.526 39.0776 150.859C39.6183 151.192 40.0229 151.661 40.2915 152.267C40.5636 152.868 40.6997 153.579 40.6997 154.399ZM34.7056 154.399C34.7056 155.004 34.7879 155.529 34.9526 155.973C35.1174 156.413 35.3698 156.753 35.71 156.993C36.0537 157.229 36.4941 157.348 37.0312 157.348C37.5719 157.348 38.0124 157.229 38.3525 156.993C38.6927 156.753 38.9434 156.413 39.1045 155.973C39.2656 155.529 39.3462 155.004 39.3462 154.399C39.3462 153.479 39.1618 152.759 38.793 152.24C38.4277 151.717 37.8441 151.456 37.042 151.456C36.5049 151.456 36.0627 151.574 35.7153 151.81C35.3716 152.046 35.1174 152.385 34.9526 152.825C34.7879 153.262 34.7056 153.787 34.7056 154.399ZM48.939 158.336H47.3545L43.5088 152.068H43.4604C43.4748 152.279 43.4873 152.503 43.498 152.739C43.5124 152.976 43.5231 153.219 43.5303 153.47C43.541 153.72 43.55 153.975 43.5571 154.232V158.336H42.3862V150.483H43.96L47.8003 156.708H47.8379C47.8307 156.526 47.8218 156.316 47.811 156.08C47.8003 155.844 47.7896 155.6 47.7788 155.35C47.7716 155.095 47.7663 154.85 47.7627 154.614V150.483H48.939V158.336ZM60.4116 158.336H58.8271L54.9814 152.068H54.9331C54.9474 152.279 54.96 152.503 54.9707 152.739C54.985 152.976 54.9958 153.219 55.0029 153.47C55.0137 153.72 55.0226 153.975 55.0298 154.232V158.336H53.8589V150.483H55.4326L59.2729 156.708H59.3105C59.3034 156.526 59.2944 156.316 59.2837 156.08C59.2729 155.844 59.2622 155.6 59.2515 155.35C59.2443 155.095 59.2389 154.85 59.2354 154.614V150.483H60.4116V158.336ZM64.7139 152.277C65.2438 152.277 65.6986 152.387 66.0781 152.605C66.4577 152.823 66.7495 153.133 66.9536 153.534C67.1577 153.935 67.2598 154.415 67.2598 154.974V155.65H63.2905C63.3049 156.227 63.4588 156.671 63.7524 156.982C64.0496 157.294 64.465 157.45 64.9985 157.45C65.3781 157.45 65.7183 157.414 66.019 157.342C66.3234 157.267 66.6367 157.158 66.959 157.015V158.041C66.6618 158.18 66.3592 158.282 66.0513 158.347C65.7433 158.411 65.3745 158.443 64.9448 158.443C64.3612 158.443 63.8473 158.331 63.4033 158.105C62.9629 157.876 62.6174 157.536 62.3667 157.084C62.1196 156.633 61.9961 156.073 61.9961 155.403C61.9961 154.737 62.1089 154.172 62.3345 153.706C62.5601 153.241 62.877 152.886 63.2852 152.643C63.6934 152.399 64.1696 152.277 64.7139 152.277ZM64.7139 153.228C64.3164 153.228 63.9941 153.357 63.7471 153.615C63.5036 153.873 63.3604 154.25 63.3174 154.748H66.0244C66.0208 154.451 65.9707 154.188 65.874 153.958C65.7809 153.729 65.6377 153.55 65.4443 153.421C65.2546 153.292 65.0111 153.228 64.7139 153.228ZM70.896 157.423C71.0607 157.423 71.2236 157.409 71.3848 157.38C71.5459 157.348 71.6927 157.31 71.8252 157.267V158.223C71.6855 158.284 71.5047 158.336 71.2827 158.379C71.0607 158.422 70.8298 158.443 70.5898 158.443C70.2533 158.443 69.9507 158.388 69.6821 158.277C69.4136 158.162 69.2005 157.967 69.043 157.691C68.8854 157.416 68.8066 157.034 68.8066 156.547V153.352H67.9956V152.788L68.8657 152.342L69.2793 151.069H70.0742V152.39H71.7769V153.352H70.0742V156.531C70.0742 156.832 70.1494 157.056 70.2998 157.203C70.4502 157.349 70.6489 157.423 70.896 157.423ZM22.8569 172.336L25.9399 165.59H21.8633V164.483H27.2988V165.348L24.2158 172.336H22.8569ZM30.9941 166.277C31.7461 166.277 32.3136 166.444 32.6968 166.777C33.0835 167.11 33.2769 167.629 33.2769 168.334V172.336H32.3799L32.1382 171.493H32.0952C31.9269 171.708 31.7533 171.885 31.5742 172.024C31.3952 172.164 31.1875 172.268 30.9512 172.336C30.7184 172.408 30.4338 172.443 30.0972 172.443C29.7427 172.443 29.4258 172.379 29.1465 172.25C28.8672 172.118 28.647 171.917 28.4858 171.648C28.3247 171.38 28.2441 171.04 28.2441 170.628C28.2441 170.016 28.4715 169.556 28.9263 169.248C29.3846 168.94 30.0757 168.77 30.9995 168.737L32.0308 168.7V168.388C32.0308 167.976 31.9341 167.683 31.7407 167.507C31.5509 167.332 31.2824 167.244 30.9351 167.244C30.6379 167.244 30.3496 167.287 30.0703 167.373C29.791 167.459 29.5189 167.565 29.2539 167.69L28.8457 166.798C29.1357 166.644 29.4652 166.519 29.834 166.422C30.2064 166.326 30.5931 166.277 30.9941 166.277ZM32.0254 169.495L31.2573 169.521C30.6271 169.543 30.1849 169.65 29.9307 169.844C29.6764 170.037 29.5493 170.302 29.5493 170.639C29.5493 170.932 29.637 171.147 29.8125 171.283C29.988 171.416 30.2189 171.482 30.5054 171.482C30.9422 171.482 31.3039 171.358 31.5903 171.111C31.8804 170.861 32.0254 170.494 32.0254 170.01V169.495ZM41.7632 166.277C42.4292 166.277 42.9305 166.449 43.2671 166.793C43.6073 167.137 43.7773 167.688 43.7773 168.447V172.336H42.5151V168.673C42.5151 168.222 42.4274 167.882 42.252 167.652C42.0765 167.423 41.8097 167.309 41.4517 167.309C40.9504 167.309 40.5887 167.47 40.3667 167.792C40.1483 168.111 40.0391 168.574 40.0391 169.183V172.336H38.7769V168.673C38.7769 168.372 38.7375 168.121 38.6587 167.921C38.5835 167.717 38.4671 167.565 38.3096 167.464C38.152 167.361 37.9533 167.309 37.7134 167.309C37.366 167.309 37.0885 167.387 36.8809 167.545C36.6768 167.702 36.5299 167.935 36.4404 168.243C36.3509 168.548 36.3062 168.922 36.3062 169.366V172.336H35.0439V166.39H36.0269L36.2041 167.19H36.2739C36.3957 166.983 36.5461 166.813 36.7251 166.68C36.9077 166.544 37.11 166.444 37.332 166.379C37.554 166.311 37.785 166.277 38.0249 166.277C38.4689 166.277 38.8431 166.356 39.1475 166.514C39.4518 166.668 39.6792 166.904 39.8296 167.223H39.9263C40.1125 166.9 40.3721 166.662 40.7051 166.508C41.0381 166.354 41.3908 166.277 41.7632 166.277ZM47.8809 169.919V168.85H50.6523V169.919H47.8809ZM58.1021 172.336H56.8345V167.282C56.8345 167.113 56.8363 166.945 56.8398 166.777C56.8434 166.609 56.847 166.444 56.8506 166.283C56.8577 166.122 56.8667 165.968 56.8774 165.821C56.8022 165.903 56.7091 165.993 56.5981 166.089C56.4907 166.186 56.3761 166.286 56.2544 166.39L55.3521 167.11L54.7183 166.31L57.0493 164.483H58.1021V172.336ZM66.0029 168.404C66.0029 169.038 65.9528 169.606 65.8525 170.107C65.7559 170.605 65.6019 171.027 65.3906 171.375C65.1794 171.722 64.9036 171.987 64.5635 172.169C64.2233 172.352 63.8115 172.443 63.3281 172.443C62.723 172.443 62.2235 172.284 61.8296 171.965C61.4357 171.643 61.1439 171.181 60.9541 170.58C60.7643 169.974 60.6694 169.249 60.6694 168.404C60.6694 167.559 60.7554 166.836 60.9272 166.234C61.1027 165.629 61.3856 165.166 61.7759 164.843C62.1662 164.521 62.6836 164.36 63.3281 164.36C63.9368 164.36 64.4382 164.521 64.832 164.843C65.2295 165.162 65.5231 165.624 65.7129 166.229C65.9062 166.831 66.0029 167.556 66.0029 168.404ZM61.9424 168.404C61.9424 169.067 61.9854 169.62 62.0713 170.064C62.1608 170.508 62.3076 170.841 62.5117 171.063C62.7158 171.281 62.988 171.391 63.3281 171.391C63.6683 171.391 63.9404 171.281 64.1445 171.063C64.3486 170.845 64.4954 170.513 64.585 170.069C64.6781 169.625 64.7246 169.07 64.7246 168.404C64.7246 167.745 64.6799 167.194 64.5903 166.75C64.5008 166.306 64.354 165.973 64.1499 165.751C63.9458 165.525 63.6719 165.413 63.3281 165.413C62.9844 165.413 62.7104 165.525 62.5063 165.751C62.3058 165.973 62.1608 166.306 62.0713 166.75C61.9854 167.194 61.9424 167.745 61.9424 168.404ZM69.7197 166.277C70.4717 166.277 71.0392 166.444 71.4224 166.777C71.8091 167.11 72.0024 167.629 72.0024 168.334V172.336H71.1055L70.8638 171.493H70.8208C70.6525 171.708 70.4788 171.885 70.2998 172.024C70.1208 172.164 69.9131 172.268 69.6768 172.336C69.444 172.408 69.1593 172.443 68.8228 172.443C68.4683 172.443 68.1514 172.379 67.8721 172.25C67.5928 172.118 67.3726 171.917 67.2114 171.648C67.0503 171.38 66.9697 171.04 66.9697 170.628C66.9697 170.016 67.1971 169.556 67.6519 169.248C68.1102 168.94 68.8013 168.77 69.7251 168.737L70.7563 168.7V168.388C70.7563 167.976 70.6597 167.683 70.4663 167.507C70.2765 167.332 70.008 167.244 69.6606 167.244C69.3634 167.244 69.0752 167.287 68.7959 167.373C68.5166 167.459 68.2445 167.565 67.9795 167.69L67.5713 166.798C67.8613 166.644 68.1908 166.519 68.5596 166.422C68.932 166.326 69.3187 166.277 69.7197 166.277ZM70.751 169.495L69.9829 169.521C69.3527 169.543 68.9105 169.65 68.6562 169.844C68.402 170.037 68.2749 170.302 68.2749 170.639C68.2749 170.932 68.3626 171.147 68.5381 171.283C68.7135 171.416 68.9445 171.482 69.231 171.482C69.6678 171.482 70.0295 171.358 70.3159 171.111C70.606 170.861 70.751 170.494 70.751 170.01V169.495ZM80.4888 166.277C81.1548 166.277 81.6561 166.449 81.9927 166.793C82.3328 167.137 82.5029 167.688 82.5029 168.447V172.336H81.2407V168.673C81.2407 168.222 81.153 167.882 80.9775 167.652C80.8021 167.423 80.5353 167.309 80.1772 167.309C79.6759 167.309 79.3143 167.47 79.0923 167.792C78.8739 168.111 78.7646 168.574 78.7646 169.183V172.336H77.5024V168.673C77.5024 168.372 77.4631 168.121 77.3843 167.921C77.3091 167.717 77.1927 167.565 77.0352 167.464C76.8776 167.361 76.6789 167.309 76.439 167.309C76.0916 167.309 75.8141 167.387 75.6064 167.545C75.4023 167.702 75.2555 167.935 75.166 168.243C75.0765 168.548 75.0317 168.922 75.0317 169.366V172.336H73.7695V166.39H74.7524L74.9297 167.19H74.9995C75.1213 166.983 75.2716 166.813 75.4507 166.68C75.6333 166.544 75.8356 166.444 76.0576 166.379C76.2796 166.311 76.5106 166.277 76.7505 166.277C77.1945 166.277 77.5687 166.356 77.873 166.514C78.1774 166.668 78.4048 166.904 78.5552 167.223H78.6519C78.8381 166.9 79.0977 166.662 79.4307 166.508C79.7637 166.354 80.1164 166.277 80.4888 166.277Z" fill="#303030"/>
<path d="M117.693 145.469H115.732V140.099L115.751 139.216L115.783 138.251C115.457 138.577 115.23 138.791 115.104 138.893L114.037 139.75L113.091 138.569L116.081 136.188H117.693V145.469ZM126.707 140.829C126.707 142.449 126.44 143.649 125.907 144.428C125.378 145.206 124.562 145.596 123.457 145.596C122.386 145.596 121.578 145.194 121.032 144.39C120.491 143.586 120.22 142.399 120.22 140.829C120.22 139.191 120.484 137.985 121.013 137.21C121.542 136.432 122.357 136.042 123.457 136.042C124.528 136.042 125.336 136.449 125.882 137.261C126.432 138.074 126.707 139.263 126.707 140.829ZM122.168 140.829C122.168 141.967 122.266 142.784 122.46 143.279C122.659 143.77 122.992 144.015 123.457 144.015C123.914 144.015 124.244 143.765 124.447 143.266C124.65 142.767 124.752 141.954 124.752 140.829C124.752 139.69 124.648 138.874 124.441 138.378C124.238 137.879 123.91 137.629 123.457 137.629C122.996 137.629 122.666 137.879 122.467 138.378C122.268 138.874 122.168 139.69 122.168 140.829ZM134.134 140.829C134.134 142.449 133.867 143.649 133.334 144.428C132.805 145.206 131.988 145.596 130.884 145.596C129.813 145.596 129.005 145.194 128.459 144.39C127.917 143.586 127.646 142.399 127.646 140.829C127.646 139.191 127.911 137.985 128.44 137.21C128.969 136.432 129.784 136.042 130.884 136.042C131.954 136.042 132.763 136.449 133.309 137.261C133.859 138.074 134.134 139.263 134.134 140.829ZM129.595 140.829C129.595 141.967 129.693 142.784 129.887 143.279C130.086 143.77 130.418 144.015 130.884 144.015C131.341 144.015 131.671 143.765 131.874 143.266C132.077 142.767 132.179 141.954 132.179 140.829C132.179 139.69 132.075 138.874 131.868 138.378C131.665 137.879 131.337 137.629 130.884 137.629C130.423 137.629 130.092 137.879 129.894 138.378C129.695 138.874 129.595 139.69 129.595 140.829ZM143.078 145.469L140.843 138.188H140.786C140.867 139.669 140.907 140.657 140.907 141.152V145.469H139.148V136.188H141.827L144.023 143.285H144.062L146.391 136.188H149.07V145.469H147.235V141.076C147.235 140.869 147.237 140.63 147.242 140.359C147.25 140.088 147.28 139.369 147.331 138.201H147.273L144.88 145.469H143.078ZM151.177 136.538C151.177 135.907 151.528 135.592 152.231 135.592C152.933 135.592 153.285 135.907 153.285 136.538C153.285 136.838 153.196 137.073 153.018 137.242C152.845 137.407 152.582 137.49 152.231 137.49C151.528 137.49 151.177 137.172 151.177 136.538ZM153.196 145.469H151.26V138.372H153.196V145.469ZM161.784 145.469H159.848V141.324C159.848 140.812 159.757 140.429 159.575 140.175C159.393 139.917 159.103 139.788 158.706 139.788C158.164 139.788 157.772 139.97 157.531 140.333C157.29 140.693 157.169 141.292 157.169 142.13V145.469H155.233V138.372H156.712L156.973 139.28H157.081C157.296 138.937 157.593 138.679 157.969 138.505C158.35 138.328 158.782 138.239 159.264 138.239C160.089 138.239 160.716 138.463 161.143 138.912C161.57 139.356 161.784 139.999 161.784 140.841V145.469ZM168.729 143.361C168.729 144.089 168.475 144.644 167.967 145.024C167.463 145.405 166.708 145.596 165.701 145.596C165.184 145.596 164.744 145.56 164.38 145.488C164.016 145.42 163.676 145.319 163.358 145.183V143.583C163.718 143.753 164.122 143.895 164.571 144.009C165.024 144.123 165.421 144.18 165.764 144.18C166.467 144.18 166.818 143.977 166.818 143.571C166.818 143.418 166.771 143.296 166.678 143.203C166.585 143.105 166.424 142.997 166.196 142.879C165.967 142.756 165.663 142.614 165.282 142.454C164.736 142.225 164.334 142.014 164.076 141.819C163.822 141.624 163.636 141.402 163.517 141.152C163.403 140.898 163.346 140.587 163.346 140.219C163.346 139.589 163.589 139.102 164.076 138.759C164.567 138.412 165.261 138.239 166.158 138.239C167.013 138.239 167.844 138.425 168.652 138.797L168.068 140.194C167.713 140.042 167.381 139.917 167.072 139.819C166.763 139.722 166.448 139.673 166.126 139.673C165.555 139.673 165.269 139.828 165.269 140.137C165.269 140.31 165.36 140.46 165.542 140.587C165.728 140.714 166.132 140.903 166.754 141.152C167.309 141.377 167.715 141.586 167.973 141.781C168.231 141.975 168.422 142.2 168.544 142.454C168.667 142.708 168.729 143.01 168.729 143.361Z" fill="black"/>
<path d="M127.501 155.532C127.501 156.137 127.424 156.688 127.271 157.186C127.12 157.68 126.893 158.106 126.588 158.464C126.284 158.819 125.903 159.093 125.444 159.286C124.986 159.479 124.449 159.576 123.833 159.576C123.206 159.576 122.662 159.479 122.2 159.286C121.742 159.093 121.361 158.817 121.056 158.459C120.755 158.101 120.53 157.673 120.379 157.175C120.229 156.678 120.154 156.126 120.154 155.521C120.154 154.712 120.286 154.006 120.551 153.405C120.82 152.8 121.226 152.331 121.771 151.998C122.318 151.661 123.009 151.493 123.844 151.493C124.66 151.493 125.339 151.659 125.879 151.992C126.42 152.325 126.825 152.794 127.093 153.399C127.365 154.001 127.501 154.712 127.501 155.532ZM121.507 155.532C121.507 156.137 121.59 156.661 121.754 157.105C121.919 157.546 122.172 157.886 122.512 158.126C122.855 158.362 123.296 158.48 123.833 158.48C124.374 158.48 124.814 158.362 125.154 158.126C125.494 157.886 125.745 157.546 125.906 157.105C126.067 156.661 126.148 156.137 126.148 155.532C126.148 154.611 125.964 153.892 125.595 153.373C125.229 152.85 124.646 152.588 123.844 152.588C123.307 152.588 122.864 152.707 122.517 152.943C122.173 153.179 121.919 153.518 121.754 153.958C121.59 154.395 121.507 154.919 121.507 155.532ZM130.466 159.469H129.188V151.616H133.625V152.701H130.466V155.15H133.42V156.23H130.466V159.469ZM136.332 159.469H135.053V151.616H139.49V152.701H136.332V155.15H139.286V156.23H136.332V159.469ZM150.329 159.469H148.744L144.898 153.201H144.85C144.864 153.412 144.877 153.636 144.888 153.872C144.902 154.108 144.913 154.352 144.92 154.603C144.931 154.853 144.94 155.107 144.947 155.365V159.469H143.776V151.616H145.35L149.19 157.841H149.228C149.22 157.659 149.211 157.449 149.201 157.213C149.19 156.977 149.179 156.733 149.168 156.482C149.161 156.228 149.156 155.983 149.152 155.747V151.616H150.329V159.469ZM154.631 153.41C155.161 153.41 155.616 153.519 155.995 153.738C156.375 153.956 156.667 154.266 156.871 154.667C157.075 155.068 157.177 155.548 157.177 156.106V156.783H153.208C153.222 157.36 153.376 157.804 153.669 158.115C153.967 158.427 154.382 158.583 154.916 158.583C155.295 158.583 155.635 158.547 155.936 158.475C156.24 158.4 156.554 158.291 156.876 158.147V159.173C156.579 159.313 156.276 159.415 155.968 159.479C155.66 159.544 155.292 159.576 154.862 159.576C154.278 159.576 153.764 159.463 153.32 159.238C152.88 159.009 152.534 158.668 152.284 158.217C152.037 157.766 151.913 157.206 151.913 156.536C151.913 155.87 152.026 155.304 152.251 154.839C152.477 154.373 152.794 154.019 153.202 153.775C153.61 153.532 154.087 153.41 154.631 153.41ZM154.631 154.361C154.233 154.361 153.911 154.49 153.664 154.748C153.421 155.005 153.277 155.383 153.234 155.881H155.941C155.938 155.584 155.888 155.32 155.791 155.091C155.698 154.862 155.555 154.683 155.361 154.554C155.172 154.425 154.928 154.361 154.631 154.361ZM160.813 158.556C160.978 158.556 161.141 158.541 161.302 158.513C161.463 158.48 161.61 158.443 161.742 158.4V159.356C161.603 159.417 161.422 159.469 161.2 159.512C160.978 159.555 160.747 159.576 160.507 159.576C160.17 159.576 159.868 159.521 159.599 159.41C159.331 159.295 159.118 159.1 158.96 158.824C158.802 158.549 158.724 158.167 158.724 157.68V154.484H157.913V153.92L158.783 153.475L159.196 152.202H159.991V153.523H161.694V154.484H159.991V157.664C159.991 157.965 160.066 158.189 160.217 158.335C160.367 158.482 160.566 158.556 160.813 158.556ZM113.794 173.469H112.527V168.415C112.527 168.246 112.529 168.078 112.532 167.91C112.536 167.741 112.539 167.577 112.543 167.416C112.55 167.254 112.559 167.1 112.57 166.954C112.495 167.036 112.402 167.125 112.291 167.222C112.183 167.319 112.069 167.419 111.947 167.523L111.044 168.243L110.411 167.442L112.742 165.616H113.794V173.469ZM121.695 169.537C121.695 170.171 121.645 170.738 121.545 171.24C121.448 171.737 121.294 172.16 121.083 172.507C120.872 172.855 120.596 173.12 120.256 173.302C119.916 173.485 119.504 173.576 119.021 173.576C118.415 173.576 117.916 173.417 117.522 173.098C117.128 172.776 116.836 172.314 116.646 171.712C116.457 171.107 116.362 170.382 116.362 169.537C116.362 168.692 116.448 167.969 116.62 167.367C116.795 166.762 117.078 166.298 117.468 165.976C117.859 165.654 118.376 165.493 119.021 165.493C119.629 165.493 120.131 165.654 120.524 165.976C120.922 166.295 121.215 166.757 121.405 167.362C121.599 167.963 121.695 168.688 121.695 169.537ZM117.635 169.537C117.635 170.2 117.678 170.753 117.764 171.197C117.853 171.641 118 171.974 118.204 172.196C118.408 172.414 118.68 172.523 119.021 172.523C119.361 172.523 119.633 172.414 119.837 172.196C120.041 171.977 120.188 171.646 120.277 171.202C120.37 170.758 120.417 170.203 120.417 169.537C120.417 168.878 120.372 168.327 120.283 167.883C120.193 167.439 120.046 167.106 119.842 166.884C119.638 166.658 119.364 166.545 119.021 166.545C118.677 166.545 118.403 166.658 118.199 166.884C117.998 167.106 117.853 167.439 117.764 167.883C117.678 168.327 117.635 168.878 117.635 169.537ZM126.132 167.41C126.837 167.41 127.403 167.668 127.829 168.184C128.259 168.699 128.474 169.465 128.474 170.482C128.474 171.156 128.373 171.723 128.173 172.185C127.976 172.643 127.698 172.991 127.34 173.227C126.986 173.46 126.572 173.576 126.1 173.576C125.799 173.576 125.537 173.537 125.315 173.458C125.093 173.379 124.904 173.277 124.746 173.152C124.589 173.023 124.456 172.883 124.349 172.733H124.273C124.291 172.876 124.307 173.035 124.322 173.211C124.34 173.383 124.349 173.54 124.349 173.684V176.106H123.081V167.523H124.112L124.29 168.345H124.349C124.46 168.176 124.594 168.021 124.751 167.877C124.913 167.734 125.106 167.621 125.332 167.539C125.561 167.453 125.827 167.41 126.132 167.41ZM125.793 168.441C125.446 168.441 125.167 168.511 124.956 168.651C124.748 168.787 124.596 168.993 124.499 169.269C124.406 169.544 124.356 169.89 124.349 170.305V170.482C124.349 170.923 124.393 171.297 124.483 171.605C124.576 171.909 124.728 172.142 124.939 172.303C125.154 172.461 125.444 172.54 125.81 172.54C126.118 172.54 126.372 172.455 126.572 172.287C126.776 172.119 126.929 171.879 127.029 171.567C127.129 171.256 127.179 170.889 127.179 170.466C127.179 169.825 127.065 169.328 126.835 168.973C126.61 168.619 126.263 168.441 125.793 168.441ZM136.654 167.41C137.32 167.41 137.821 167.582 138.158 167.926C138.498 168.27 138.668 168.821 138.668 169.58V173.469H137.406V169.806C137.406 169.354 137.318 169.014 137.143 168.785C136.967 168.556 136.7 168.441 136.342 168.441C135.841 168.441 135.479 168.603 135.257 168.925C135.039 169.243 134.93 169.707 134.93 170.316V173.469H133.667V169.806C133.667 169.505 133.628 169.254 133.549 169.054C133.474 168.85 133.358 168.697 133.2 168.597C133.043 168.493 132.844 168.441 132.604 168.441C132.257 168.441 131.979 168.52 131.771 168.678C131.567 168.835 131.421 169.068 131.331 169.376C131.242 169.68 131.197 170.055 131.197 170.499V173.469H129.935V167.523H130.917L131.095 168.323H131.165C131.286 168.116 131.437 167.945 131.616 167.813C131.798 167.677 132.001 167.577 132.223 167.512C132.445 167.444 132.676 167.41 132.916 167.41C133.36 167.41 133.734 167.489 134.038 167.646C134.342 167.8 134.57 168.037 134.72 168.355H134.817C135.003 168.033 135.263 167.795 135.596 167.641C135.929 167.487 136.281 167.41 136.654 167.41ZM142.771 171.052V169.983H145.543V171.052H142.771ZM150.178 173.469L153.261 166.723H149.185V165.616H154.62V166.481L151.537 173.469H150.178ZM158.315 167.41C159.067 167.41 159.635 167.577 160.018 167.91C160.405 168.243 160.598 168.762 160.598 169.467V173.469H159.701L159.459 172.625H159.417C159.248 172.84 159.075 173.018 158.896 173.157C158.716 173.297 158.509 173.401 158.272 173.469C158.04 173.54 157.755 173.576 157.418 173.576C157.064 173.576 156.747 173.512 156.468 173.383C156.188 173.25 155.968 173.05 155.807 172.781C155.646 172.513 155.565 172.173 155.565 171.761C155.565 171.148 155.793 170.688 156.248 170.38C156.706 170.072 157.397 169.902 158.321 169.87L159.352 169.833V169.521C159.352 169.109 159.255 168.816 159.062 168.64C158.872 168.465 158.604 168.377 158.256 168.377C157.959 168.377 157.671 168.42 157.392 168.506C157.112 168.592 156.84 168.697 156.575 168.823L156.167 167.931C156.457 167.777 156.786 167.652 157.155 167.555C157.528 167.458 157.914 167.41 158.315 167.41ZM159.347 170.627L158.579 170.654C157.948 170.676 157.506 170.783 157.252 170.977C156.998 171.17 156.871 171.435 156.871 171.771C156.871 172.065 156.958 172.28 157.134 172.416C157.309 172.549 157.54 172.615 157.827 172.615C158.264 172.615 158.625 172.491 158.912 172.244C159.202 171.993 159.347 171.626 159.347 171.143V170.627ZM169.084 167.41C169.75 167.41 170.252 167.582 170.588 167.926C170.929 168.27 171.099 168.821 171.099 169.58V173.469H169.836V169.806C169.836 169.354 169.749 169.014 169.573 168.785C169.398 168.556 169.131 168.441 168.773 168.441C168.272 168.441 167.91 168.603 167.688 168.925C167.47 169.243 167.36 169.707 167.36 170.316V173.469H166.098V169.806C166.098 169.505 166.059 169.254 165.98 169.054C165.905 168.85 165.788 168.697 165.631 168.597C165.473 168.493 165.275 168.441 165.035 168.441C164.687 168.441 164.41 168.52 164.202 168.678C163.998 168.835 163.851 169.068 163.762 169.376C163.672 169.68 163.627 170.055 163.627 170.499V173.469H162.365V167.523H163.348L163.525 168.323H163.595C163.717 168.116 163.867 167.945 164.046 167.813C164.229 167.677 164.431 167.577 164.653 167.512C164.875 167.444 165.106 167.41 165.346 167.41C165.79 167.41 166.164 167.489 166.469 167.646C166.773 167.8 167 168.037 167.151 168.355H167.248C167.434 168.033 167.693 167.795 168.026 167.641C168.359 167.487 168.712 167.41 169.084 167.41Z" fill="#303030"/>
<path d="M203.79 145.469H201.829V140.099L201.848 139.216L201.879 138.251C201.554 138.577 201.327 138.791 201.2 138.893L200.134 139.75L199.188 138.569L202.178 136.188H203.79V145.469ZM212.804 140.829C212.804 142.449 212.537 143.649 212.004 144.428C211.475 145.206 210.658 145.596 209.554 145.596C208.483 145.596 207.675 145.194 207.129 144.39C206.587 143.586 206.316 142.399 206.316 140.829C206.316 139.191 206.581 137.985 207.11 137.21C207.639 136.432 208.453 136.042 209.554 136.042C210.624 136.042 211.433 136.449 211.979 137.261C212.529 138.074 212.804 139.263 212.804 140.829ZM208.265 140.829C208.265 141.967 208.362 142.784 208.557 143.279C208.756 143.77 209.088 144.015 209.554 144.015C210.011 144.015 210.341 143.765 210.544 143.266C210.747 142.767 210.849 141.954 210.849 140.829C210.849 139.69 210.745 138.874 210.538 138.378C210.334 137.879 210.007 137.629 209.554 137.629C209.092 137.629 208.762 137.879 208.563 138.378C208.365 138.874 208.265 139.69 208.265 140.829ZM220.23 140.829C220.23 142.449 219.964 143.649 219.431 144.428C218.902 145.206 218.085 145.596 216.98 145.596C215.91 145.596 215.102 145.194 214.556 144.39C214.014 143.586 213.743 142.399 213.743 140.829C213.743 139.191 214.008 137.985 214.537 137.21C215.066 136.432 215.88 136.042 216.98 136.042C218.051 136.042 218.859 136.449 219.405 137.261C219.955 138.074 220.23 139.263 220.23 140.829ZM215.692 140.829C215.692 141.967 215.789 142.784 215.984 143.279C216.183 143.77 216.515 144.015 216.98 144.015C217.438 144.015 217.768 143.765 217.971 143.266C218.174 142.767 218.275 141.954 218.275 140.829C218.275 139.69 218.172 138.874 217.964 138.378C217.761 137.879 217.433 137.629 216.98 137.629C216.519 137.629 216.189 137.879 215.99 138.378C215.791 138.874 215.692 139.69 215.692 140.829ZM227.657 140.829C227.657 142.449 227.391 143.649 226.857 144.428C226.328 145.206 225.512 145.596 224.407 145.596C223.337 145.596 222.528 145.194 221.982 144.39C221.441 143.586 221.17 142.399 221.17 140.829C221.17 139.191 221.434 137.985 221.963 137.21C222.492 136.432 223.307 136.042 224.407 136.042C225.478 136.042 226.286 136.449 226.832 137.261C227.382 138.074 227.657 139.263 227.657 140.829ZM223.119 140.829C223.119 141.967 223.216 142.784 223.411 143.279C223.61 143.77 223.942 144.015 224.407 144.015C224.864 144.015 225.194 143.765 225.397 143.266C225.601 142.767 225.702 141.954 225.702 140.829C225.702 139.69 225.598 138.874 225.391 138.378C225.188 137.879 224.86 137.629 224.407 137.629C223.946 137.629 223.616 137.879 223.417 138.378C223.218 138.874 223.119 139.69 223.119 140.829Z" fill="black"/>
<path d="M207.72 157.331C207.72 157.797 207.605 158.198 207.376 158.534C207.15 158.871 206.825 159.129 206.398 159.308C205.976 159.487 205.471 159.576 204.884 159.576C204.597 159.576 204.323 159.56 204.062 159.528C203.801 159.496 203.554 159.449 203.321 159.388C203.092 159.324 202.882 159.247 202.692 159.157V157.943C203.011 158.083 203.367 158.21 203.761 158.325C204.155 158.436 204.556 158.491 204.964 158.491C205.297 158.491 205.573 158.448 205.792 158.362C206.014 158.273 206.178 158.147 206.286 157.986C206.393 157.822 206.447 157.63 206.447 157.412C206.447 157.179 206.384 156.982 206.259 156.821C206.133 156.66 205.944 156.513 205.689 156.38C205.439 156.244 205.124 156.099 204.744 155.945C204.486 155.841 204.239 155.723 204.003 155.591C203.77 155.458 203.562 155.303 203.38 155.124C203.197 154.944 203.052 154.733 202.945 154.49C202.841 154.243 202.789 153.953 202.789 153.62C202.789 153.176 202.895 152.796 203.106 152.481C203.321 152.166 203.622 151.924 204.008 151.756C204.399 151.588 204.853 151.503 205.373 151.503C205.784 151.503 206.171 151.546 206.533 151.632C206.898 151.718 207.256 151.84 207.607 151.998L207.199 153.034C206.876 152.902 206.563 152.796 206.259 152.717C205.958 152.639 205.65 152.599 205.335 152.599C205.063 152.599 204.832 152.64 204.642 152.723C204.452 152.805 204.307 152.921 204.207 153.072C204.11 153.219 204.062 153.394 204.062 153.598C204.062 153.827 204.118 154.021 204.229 154.178C204.343 154.332 204.519 154.474 204.755 154.603C204.995 154.731 205.303 154.875 205.679 155.032C206.112 155.211 206.479 155.399 206.78 155.596C207.084 155.793 207.317 156.029 207.478 156.305C207.639 156.577 207.72 156.919 207.72 157.331ZM212.624 159.469L210.362 152.911H210.314C210.325 153.057 210.337 153.258 210.352 153.512C210.366 153.766 210.378 154.039 210.389 154.329C210.4 154.619 210.405 154.896 210.405 155.161V159.469H209.234V151.616H211.044L213.22 157.884H213.252L215.502 151.616H217.307V159.469H216.077V155.097C216.077 154.857 216.081 154.597 216.088 154.318C216.099 154.039 216.109 153.774 216.12 153.523C216.134 153.272 216.145 153.072 216.152 152.921H216.109L213.762 159.469H212.624ZM223.908 157.331C223.908 157.797 223.794 158.198 223.564 158.534C223.339 158.871 223.013 159.129 222.587 159.308C222.164 159.487 221.66 159.576 221.072 159.576C220.786 159.576 220.512 159.56 220.25 159.528C219.989 159.496 219.742 159.449 219.509 159.388C219.28 159.324 219.071 159.247 218.881 159.157V157.943C219.2 158.083 219.556 158.21 219.95 158.325C220.344 158.436 220.745 158.491 221.153 158.491C221.486 158.491 221.762 158.448 221.98 158.362C222.202 158.273 222.367 158.147 222.474 157.986C222.582 157.822 222.635 157.63 222.635 157.412C222.635 157.179 222.573 156.982 222.447 156.821C222.322 156.66 222.132 156.513 221.878 156.38C221.627 156.244 221.312 156.099 220.933 155.945C220.675 155.841 220.428 155.723 220.191 155.591C219.959 155.458 219.751 155.303 219.568 155.124C219.386 154.944 219.241 154.733 219.133 154.49C219.029 154.243 218.978 153.953 218.978 153.62C218.978 153.176 219.083 152.796 219.294 152.481C219.509 152.166 219.81 151.924 220.197 151.756C220.587 151.588 221.042 151.503 221.561 151.503C221.973 151.503 222.36 151.546 222.721 151.632C223.086 151.718 223.444 151.84 223.795 151.998L223.387 153.034C223.065 152.902 222.752 152.796 222.447 152.717C222.146 152.639 221.839 152.599 221.523 152.599C221.251 152.599 221.02 152.64 220.831 152.723C220.641 152.805 220.496 152.921 220.396 153.072C220.299 153.219 220.25 153.394 220.25 153.598C220.25 153.827 220.306 154.021 220.417 154.178C220.532 154.332 220.707 154.474 220.943 154.603C221.183 154.731 221.491 154.875 221.867 155.032C222.3 155.211 222.667 155.399 222.968 155.596C223.273 155.793 223.505 156.029 223.667 156.305C223.828 156.577 223.908 156.919 223.908 157.331ZM202.171 173.469H196.854V172.518L198.89 170.456C199.284 170.055 199.608 169.709 199.862 169.419C200.116 169.125 200.304 168.848 200.426 168.586C200.551 168.325 200.614 168.04 200.614 167.732C200.614 167.353 200.505 167.066 200.286 166.873C200.068 166.676 199.779 166.578 199.421 166.578C199.081 166.578 198.766 166.646 198.476 166.782C198.19 166.914 197.892 167.104 197.584 167.351L196.892 166.519C197.11 166.332 197.343 166.162 197.59 166.008C197.84 165.854 198.12 165.733 198.428 165.643C198.736 165.55 199.087 165.503 199.48 165.503C199.978 165.503 200.408 165.593 200.77 165.772C201.131 165.947 201.409 166.193 201.602 166.508C201.799 166.823 201.897 167.19 201.897 167.609C201.897 168.031 201.813 168.422 201.645 168.78C201.477 169.138 201.237 169.492 200.925 169.843C200.614 170.191 200.243 170.568 199.813 170.977L198.455 172.303V172.362H202.171V173.469ZM208.751 171.745H207.688V173.469H206.441V171.745H202.87V170.789L206.458 165.595H207.688V170.697H208.751V171.745ZM206.441 170.697V168.748C206.441 168.586 206.443 168.424 206.447 168.259C206.454 168.09 206.461 167.929 206.468 167.775C206.475 167.621 206.483 167.48 206.49 167.351C206.497 167.219 206.502 167.109 206.506 167.023H206.463C206.395 167.167 206.32 167.313 206.237 167.464C206.155 167.611 206.067 167.754 205.974 167.894L204.041 170.697H206.441ZM219.031 173.469H217.748V169.924H214.127V173.469H212.838V165.616H214.127V168.828H217.748V165.616H219.031V173.469ZM223.994 167.41C224.094 167.41 224.204 167.416 224.322 167.426C224.44 167.437 224.542 167.451 224.628 167.469L224.51 168.651C224.435 168.629 224.341 168.613 224.23 168.603C224.123 168.592 224.026 168.586 223.94 168.586C223.715 168.586 223.5 168.624 223.296 168.699C223.092 168.771 222.911 168.882 222.753 169.032C222.596 169.179 222.472 169.363 222.383 169.585C222.293 169.807 222.249 170.065 222.249 170.359V173.469H220.981V167.523H221.969L222.141 168.57H222.2C222.318 168.359 222.465 168.166 222.641 167.99C222.816 167.815 223.017 167.675 223.242 167.571C223.471 167.464 223.722 167.41 223.994 167.41ZM229.725 171.771C229.725 172.162 229.63 172.491 229.44 172.76C229.251 173.028 228.973 173.232 228.608 173.372C228.246 173.508 227.802 173.576 227.276 173.576C226.861 173.576 226.502 173.546 226.202 173.485C225.904 173.428 225.623 173.338 225.358 173.216V172.126C225.641 172.258 225.958 172.373 226.309 172.47C226.664 172.566 226.998 172.615 227.313 172.615C227.729 172.615 228.028 172.55 228.21 172.421C228.393 172.289 228.484 172.113 228.484 171.895C228.484 171.766 228.447 171.652 228.372 171.551C228.3 171.447 228.164 171.342 227.963 171.234C227.766 171.123 227.476 170.991 227.093 170.837C226.717 170.687 226.4 170.536 226.143 170.386C225.885 170.235 225.69 170.055 225.557 169.843C225.425 169.628 225.358 169.354 225.358 169.021C225.358 168.495 225.566 168.096 225.981 167.824C226.4 167.548 226.954 167.41 227.641 167.41C228.006 167.41 228.35 167.448 228.672 167.523C228.998 167.595 229.317 167.7 229.628 167.84L229.231 168.791C228.962 168.672 228.692 168.576 228.42 168.5C228.151 168.422 227.877 168.382 227.598 168.382C227.272 168.382 227.023 168.432 226.852 168.533C226.683 168.633 226.599 168.776 226.599 168.962C226.599 169.102 226.64 169.22 226.723 169.317C226.805 169.414 226.946 169.51 227.147 169.607C227.351 169.704 227.634 169.824 227.996 169.967C228.35 170.103 228.656 170.246 228.914 170.396C229.175 170.543 229.376 170.724 229.516 170.939C229.655 171.154 229.725 171.431 229.725 171.771Z" fill="#303030"/>
<rect x="145.305" y="228.891" width="109.883" height="29.4531" rx="14.7266" fill="#D99956"/>
<path d="M172.414 239.551L169.42 248.117H167.932L164.938 239.551H166.379L168.184 244.918C168.238 245.074 168.297 245.264 168.359 245.486C168.426 245.709 168.486 245.934 168.541 246.16C168.6 246.387 168.645 246.588 168.676 246.764C168.707 246.588 168.75 246.387 168.805 246.16C168.863 245.934 168.924 245.709 168.986 245.486C169.049 245.264 169.107 245.072 169.162 244.912L170.973 239.551H172.414ZM174.775 241.631V248.117H173.398V241.631H174.775ZM174.096 239.146C174.307 239.146 174.488 239.203 174.641 239.316C174.797 239.43 174.875 239.625 174.875 239.902C174.875 240.176 174.797 240.371 174.641 240.488C174.488 240.602 174.307 240.658 174.096 240.658C173.877 240.658 173.691 240.602 173.539 240.488C173.391 240.371 173.316 240.176 173.316 239.902C173.316 239.625 173.391 239.43 173.539 239.316C173.691 239.203 173.877 239.146 174.096 239.146ZM179.334 241.508C179.912 241.508 180.408 241.627 180.822 241.865C181.236 242.104 181.555 242.441 181.777 242.879C182 243.316 182.111 243.84 182.111 244.449V245.188H177.781C177.797 245.816 177.965 246.301 178.285 246.641C178.609 246.98 179.062 247.15 179.645 247.15C180.059 247.15 180.43 247.111 180.758 247.033C181.09 246.951 181.432 246.832 181.783 246.676V247.795C181.459 247.947 181.129 248.059 180.793 248.129C180.457 248.199 180.055 248.234 179.586 248.234C178.949 248.234 178.389 248.111 177.904 247.865C177.424 247.615 177.047 247.244 176.773 246.752C176.504 246.26 176.369 245.648 176.369 244.918C176.369 244.191 176.492 243.574 176.738 243.066C176.984 242.559 177.33 242.172 177.775 241.906C178.221 241.641 178.74 241.508 179.334 241.508ZM179.334 242.545C178.9 242.545 178.549 242.686 178.279 242.967C178.014 243.248 177.857 243.66 177.811 244.203H180.764C180.76 243.879 180.705 243.592 180.6 243.342C180.498 243.092 180.342 242.896 180.131 242.756C179.924 242.615 179.658 242.545 179.334 242.545ZM188.967 248.111L188.146 245.094C188.107 244.945 188.061 244.766 188.006 244.555C187.951 244.344 187.896 244.127 187.842 243.904C187.787 243.678 187.736 243.469 187.689 243.277C187.646 243.086 187.613 242.938 187.59 242.832H187.543C187.523 242.938 187.492 243.086 187.449 243.277C187.406 243.469 187.357 243.678 187.303 243.904C187.248 244.131 187.193 244.352 187.139 244.566C187.088 244.781 187.041 244.965 186.998 245.117L186.137 248.111H184.625L182.809 241.625H184.203L185.047 244.848C185.102 245.066 185.154 245.303 185.205 245.557C185.26 245.811 185.307 246.053 185.346 246.283C185.385 246.514 185.414 246.703 185.434 246.852H185.48C185.496 246.746 185.518 246.613 185.545 246.453C185.572 246.289 185.604 246.119 185.639 245.943C185.674 245.764 185.709 245.596 185.744 245.439C185.779 245.279 185.812 245.15 185.844 245.053L186.84 241.625H188.346L189.301 245.053C189.344 245.201 189.391 245.389 189.441 245.615C189.492 245.838 189.537 246.062 189.576 246.289C189.619 246.512 189.646 246.697 189.658 246.846H189.705C189.721 246.713 189.748 246.533 189.787 246.307C189.83 246.076 189.879 245.832 189.934 245.574C189.988 245.312 190.045 245.07 190.104 244.848L190.965 241.625H192.336L190.508 248.111H188.967ZM203.662 243.752C203.662 244.717 203.482 245.523 203.123 246.172C202.764 246.816 202.242 247.303 201.559 247.631C200.875 247.955 200.051 248.117 199.086 248.117H196.707V239.551H199.344C200.23 239.551 200.996 239.711 201.641 240.031C202.285 240.348 202.783 240.818 203.135 241.443C203.486 242.064 203.662 242.834 203.662 243.752ZM202.197 243.793C202.197 243.09 202.086 242.512 201.863 242.059C201.645 241.605 201.32 241.27 200.891 241.051C200.465 240.828 199.939 240.717 199.314 240.717H198.113V246.939H199.109C200.145 246.939 200.918 246.676 201.43 246.148C201.941 245.621 202.197 244.836 202.197 243.793ZM207.951 241.508C208.529 241.508 209.025 241.627 209.439 241.865C209.854 242.104 210.172 242.441 210.395 242.879C210.617 243.316 210.729 243.84 210.729 244.449V245.188H206.398C206.414 245.816 206.582 246.301 206.902 246.641C207.227 246.98 207.68 247.15 208.262 247.15C208.676 247.15 209.047 247.111 209.375 247.033C209.707 246.951 210.049 246.832 210.4 246.676V247.795C210.076 247.947 209.746 248.059 209.41 248.129C209.074 248.199 208.672 248.234 208.203 248.234C207.566 248.234 207.006 248.111 206.521 247.865C206.041 247.615 205.664 247.244 205.391 246.752C205.121 246.26 204.986 245.648 204.986 244.918C204.986 244.191 205.109 243.574 205.355 243.066C205.602 242.559 205.947 242.172 206.393 241.906C206.838 241.641 207.357 241.508 207.951 241.508ZM207.951 242.545C207.518 242.545 207.166 242.686 206.896 242.967C206.631 243.248 206.475 243.66 206.428 244.203H209.381C209.377 243.879 209.322 243.592 209.217 243.342C209.115 243.092 208.959 242.896 208.748 242.756C208.541 242.615 208.275 242.545 207.951 242.545ZM214.695 247.121C214.875 247.121 215.053 247.105 215.229 247.074C215.404 247.039 215.564 246.998 215.709 246.951V247.994C215.557 248.061 215.359 248.117 215.117 248.164C214.875 248.211 214.623 248.234 214.361 248.234C213.994 248.234 213.664 248.174 213.371 248.053C213.078 247.928 212.846 247.715 212.674 247.414C212.502 247.113 212.416 246.697 212.416 246.166V242.68H211.531V242.064L212.48 241.578L212.932 240.189H213.799V241.631H215.656V242.68H213.799V246.148C213.799 246.477 213.881 246.721 214.045 246.881C214.209 247.041 214.426 247.121 214.695 247.121ZM219.57 241.508C220.391 241.508 221.01 241.689 221.428 242.053C221.85 242.416 222.061 242.982 222.061 243.752V248.117H221.082L220.818 247.197H220.771C220.588 247.432 220.398 247.625 220.203 247.777C220.008 247.93 219.781 248.043 219.523 248.117C219.27 248.195 218.959 248.234 218.592 248.234C218.205 248.234 217.859 248.164 217.555 248.023C217.25 247.879 217.01 247.66 216.834 247.367C216.658 247.074 216.57 246.703 216.57 246.254C216.57 245.586 216.818 245.084 217.314 244.748C217.814 244.412 218.568 244.227 219.576 244.191L220.701 244.15V243.811C220.701 243.361 220.596 243.041 220.385 242.85C220.178 242.658 219.885 242.562 219.506 242.562C219.182 242.562 218.867 242.609 218.562 242.703C218.258 242.797 217.961 242.912 217.672 243.049L217.227 242.076C217.543 241.908 217.902 241.771 218.305 241.666C218.711 241.561 219.133 241.508 219.57 241.508ZM220.695 245.018L219.857 245.047C219.17 245.07 218.688 245.188 218.41 245.398C218.133 245.609 217.994 245.898 217.994 246.266C217.994 246.586 218.09 246.82 218.281 246.969C218.473 247.113 218.725 247.186 219.037 247.186C219.514 247.186 219.908 247.051 220.221 246.781C220.537 246.508 220.695 246.107 220.695 245.58V245.018ZM225.365 241.631V248.117H223.988V241.631H225.365ZM224.686 239.146C224.896 239.146 225.078 239.203 225.23 239.316C225.387 239.43 225.465 239.625 225.465 239.902C225.465 240.176 225.387 240.371 225.23 240.488C225.078 240.602 224.896 240.658 224.686 240.658C224.467 240.658 224.281 240.602 224.129 240.488C223.98 240.371 223.906 240.176 223.906 239.902C223.906 239.625 223.98 239.43 224.129 239.316C224.281 239.203 224.467 239.146 224.686 239.146ZM228.723 248.117H227.34V239H228.723V248.117ZM235.051 246.266C235.051 246.691 234.947 247.051 234.74 247.344C234.533 247.637 234.23 247.859 233.832 248.012C233.438 248.16 232.953 248.234 232.379 248.234C231.926 248.234 231.535 248.201 231.207 248.135C230.883 248.072 230.576 247.975 230.287 247.842V246.652C230.596 246.797 230.941 246.922 231.324 247.027C231.711 247.133 232.076 247.186 232.42 247.186C232.873 247.186 233.199 247.115 233.398 246.975C233.598 246.83 233.697 246.639 233.697 246.4C233.697 246.26 233.656 246.135 233.574 246.025C233.496 245.912 233.348 245.797 233.129 245.68C232.914 245.559 232.598 245.414 232.18 245.246C231.77 245.082 231.424 244.918 231.143 244.754C230.861 244.59 230.648 244.393 230.504 244.162C230.359 243.928 230.287 243.629 230.287 243.266C230.287 242.691 230.514 242.256 230.967 241.959C231.424 241.658 232.027 241.508 232.777 241.508C233.176 241.508 233.551 241.549 233.902 241.631C234.258 241.709 234.605 241.824 234.945 241.977L234.512 243.014C234.219 242.885 233.924 242.779 233.627 242.697C233.334 242.611 233.035 242.568 232.73 242.568C232.375 242.568 232.104 242.623 231.916 242.732C231.732 242.842 231.641 242.998 231.641 243.201C231.641 243.354 231.686 243.482 231.775 243.588C231.865 243.693 232.02 243.799 232.238 243.904C232.461 244.01 232.77 244.141 233.164 244.297C233.551 244.445 233.885 244.602 234.166 244.766C234.451 244.926 234.67 245.123 234.822 245.357C234.975 245.592 235.051 245.895 235.051 246.266Z" fill="white"/>
<path d="M59.3931 103.933H57.6503C57.6496 103.24 57.374 102.575 56.8839 102.085C56.3938 101.595 55.7292 101.319 55.0361 101.318V99.5757C56.1912 99.5771 57.2987 100.037 58.1154 100.853C58.9322 101.67 59.3917 102.778 59.3931 103.933Z" fill="#303030"/>
<path d="M62.8785 103.933H61.1357C61.1339 102.316 60.4906 100.765 59.3471 99.6215C58.2036 98.478 56.6531 97.8348 55.0359 97.8329V96.0901C57.1152 96.0925 59.1086 96.9195 60.5789 98.3897C62.0492 99.86 62.8762 101.853 62.8785 103.933ZM61.1357 117.875H60.9876C43.8647 116.89 41.4335 102.443 41.0936 98.0334C41.0405 97.3421 41.2641 96.6581 41.7153 96.1317C42.1665 95.6054 42.8083 95.2798 43.4995 95.2266C43.5687 95.2214 43.6381 95.2188 43.7078 95.2188H48.3001C48.6491 95.2184 48.9902 95.3229 49.2792 95.5187C49.5682 95.7144 49.7917 95.9924 49.9209 96.3167L51.2454 99.5757C51.3729 99.8925 51.4045 100.24 51.3364 100.574C51.2682 100.909 51.1032 101.216 50.862 101.458L49.0059 103.331C49.2946 104.98 50.0833 106.499 51.2648 107.684C52.4464 108.868 53.9637 109.661 55.6111 109.954L57.502 108.081C57.7473 107.842 58.0574 107.681 58.3937 107.617C58.7299 107.554 59.0775 107.591 59.3929 107.723L62.6781 109.039C62.9974 109.172 63.2699 109.398 63.4608 109.686C63.6517 109.975 63.7523 110.314 63.7499 110.66V115.261C63.7499 115.954 63.4745 116.619 62.9842 117.109C62.4939 117.6 61.829 117.875 61.1357 117.875ZM43.7078 96.9615C43.5934 96.9612 43.48 96.9834 43.3741 97.0269C43.2683 97.0703 43.172 97.1342 43.0909 97.2149C43.0097 97.2956 42.9452 97.3915 42.9011 97.497C42.857 97.6026 42.8341 97.7159 42.8338 97.8303C42.8338 97.8547 42.8347 97.8788 42.8364 97.9026C43.2373 103.061 45.8079 115.261 61.0834 116.132C61.314 116.146 61.5407 116.068 61.7136 115.914C61.8865 115.761 61.9914 115.545 62.0053 115.315L62.0071 115.261V110.66L58.7219 109.344L56.221 111.828L55.8028 111.775C48.2216 110.825 47.1934 103.244 47.1934 103.166L47.1411 102.748L49.6159 100.247L48.3088 96.9615H43.7078Z" fill="#303030"/>
<path d="M146.62 103.933H144.877C144.876 103.24 144.601 102.575 144.11 102.085C143.62 101.595 142.956 101.319 142.263 101.318V99.5757C143.418 99.5771 144.525 100.037 145.342 100.853C146.159 101.67 146.618 102.778 146.62 103.933Z" fill="#303030"/>
<path d="M150.105 103.933H148.362C148.36 102.316 147.717 100.765 146.574 99.6215C145.43 98.478 143.88 97.8348 142.262 97.8329V96.0901C144.342 96.0925 146.335 96.9195 147.805 98.3897C149.276 99.86 150.103 101.853 150.105 103.933ZM148.362 117.875H148.214C131.091 116.89 128.66 102.443 128.32 98.0334C128.267 97.3421 128.491 96.6581 128.942 96.1317C129.393 95.6054 130.035 95.2798 130.726 95.2266C130.795 95.2214 130.865 95.2188 130.934 95.2188H135.527C135.876 95.2184 136.217 95.3229 136.506 95.5187C136.795 95.7144 137.018 95.9924 137.147 96.3167L138.472 99.5757C138.599 99.8925 138.631 100.24 138.563 100.574C138.495 100.909 138.33 101.216 138.089 101.458L136.232 103.331C136.521 104.98 137.31 106.499 138.491 107.684C139.673 108.868 141.19 109.661 142.838 109.954L144.729 108.081C144.974 107.842 145.284 107.681 145.62 107.617C145.956 107.554 146.304 107.591 146.619 107.723L149.905 109.039C150.224 109.172 150.497 109.398 150.687 109.686C150.878 109.975 150.979 110.314 150.976 110.66V115.261C150.976 115.954 150.701 116.619 150.211 117.109C149.721 117.6 149.056 117.875 148.362 117.875ZM130.934 96.9615C130.82 96.9612 130.707 96.9834 130.601 97.0269C130.495 97.0703 130.399 97.1342 130.317 97.2149C130.236 97.2956 130.172 97.3915 130.128 97.497C130.084 97.6026 130.061 97.7159 130.06 97.8303C130.06 97.8547 130.061 97.8788 130.063 97.9026C130.464 103.061 133.034 115.261 148.31 116.132C148.541 116.146 148.767 116.068 148.94 115.914C149.113 115.761 149.218 115.545 149.232 115.315L149.234 115.261V110.66L145.948 109.344L143.448 111.828L143.029 111.775C135.448 110.825 134.42 103.244 134.42 103.166L134.368 102.748L136.842 100.247L135.535 96.9615H130.934Z" fill="#303030"/>
<path d="M201.945 101.449C201.945 100.698 202.259 99.9778 202.816 99.4467C203.374 98.9156 204.13 98.6172 204.919 98.6172H222.761C223.549 98.6172 224.306 98.9156 224.863 99.4467C225.421 99.9778 225.734 100.698 225.734 101.449V112.777C225.734 113.528 225.421 114.249 224.863 114.78C224.306 115.311 223.549 115.609 222.761 115.609H204.919C204.13 115.609 203.374 115.311 202.816 114.78C202.259 114.249 201.945 113.528 201.945 112.777V101.449ZM204.919 100.033C204.525 100.033 204.146 100.182 203.868 100.448C203.589 100.713 203.432 101.074 203.432 101.449V101.756L213.84 107.704L224.248 101.756V101.449C224.248 101.074 224.091 100.713 223.812 100.448C223.533 100.182 223.155 100.033 222.761 100.033H204.919ZM224.248 103.408L217.248 107.408L224.248 111.51V103.408ZM224.197 113.144L215.811 108.229L213.84 109.355L211.868 108.229L203.483 113.143C203.567 113.444 203.754 113.71 204.013 113.9C204.273 114.09 204.591 114.193 204.919 114.193H222.761C223.088 114.193 223.406 114.091 223.666 113.901C223.926 113.711 224.112 113.445 224.197 113.144ZM203.432 111.51L210.432 107.408L203.432 103.408V111.51Z" fill="#303030"/>
</svg>
