<svg width="922" height="15" viewBox="0 0 922 15" fill="none" xmlns="http://www.w3.org/2000/svg">
<path d="M4.58008 0.363281L4.30664 2.97461L6.93164 2.22949L7.13672 3.68555L4.68262 3.9043L6.27539 6.03027L4.94922 6.74805L3.79395 4.45801L2.76172 6.74121L1.38086 6.03027L2.95996 3.9043L0.519531 3.67871L0.751953 2.22949L3.3291 2.97461L3.05566 0.363281H4.58008ZM13.0156 5.57227H16.748V10.5898C16.224 10.763 15.6816 10.8975 15.1211 10.9932C14.5605 11.0889 13.9316 11.1367 13.2344 11.1367C12.2181 11.1367 11.3568 10.9362 10.6504 10.5352C9.94857 10.1296 9.41536 9.54395 9.05078 8.77832C8.6862 8.00814 8.50391 7.08073 8.50391 5.99609C8.50391 4.95247 8.70671 4.04785 9.1123 3.28223C9.5179 2.51204 10.1081 1.91732 10.8828 1.49805C11.6576 1.07422 12.5964 0.862305 13.6992 0.862305C14.2415 0.862305 14.7656 0.916992 15.2715 1.02637C15.7819 1.13118 16.249 1.27702 16.6729 1.46387L16.0986 2.81738C15.7614 2.65788 15.3831 2.52344 14.9639 2.41406C14.5446 2.30469 14.1094 2.25 13.6582 2.25C12.9427 2.25 12.3252 2.40495 11.8057 2.71484C11.2907 3.02474 10.8942 3.46224 10.6162 4.02734C10.3382 4.58789 10.1992 5.25098 10.1992 6.0166C10.1992 6.75944 10.3109 7.41113 10.5342 7.97168C10.7575 8.53223 11.1061 8.96973 11.5801 9.28418C12.0586 9.59408 12.6761 9.74902 13.4326 9.74902C13.8109 9.74902 14.1322 9.72852 14.3965 9.6875C14.6608 9.64648 14.9046 9.60091 15.1279 9.55078V6.97363H13.0156V5.57227ZM24.9102 8.2793C24.9102 8.87174 24.7643 9.38216 24.4727 9.81055C24.1855 10.2389 23.7708 10.5671 23.2285 10.7949C22.6908 11.0228 22.0482 11.1367 21.3008 11.1367C20.9362 11.1367 20.5876 11.1162 20.2549 11.0752C19.9222 11.0342 19.6077 10.9749 19.3115 10.8975C19.0199 10.8154 18.7533 10.7174 18.5117 10.6035V9.05859C18.9173 9.23633 19.3708 9.39811 19.8721 9.54395C20.3734 9.68522 20.8838 9.75586 21.4033 9.75586C21.8271 9.75586 22.1781 9.70117 22.4561 9.5918C22.7386 9.47786 22.9482 9.31836 23.085 9.11328C23.2217 8.90365 23.29 8.65983 23.29 8.38184C23.29 8.08561 23.2103 7.83496 23.0508 7.62988C22.8913 7.4248 22.6497 7.23796 22.3262 7.06934C22.0072 6.89616 21.6061 6.71159 21.123 6.51562C20.7949 6.38346 20.4805 6.23307 20.1797 6.06445C19.8835 5.89583 19.6191 5.69759 19.3867 5.46973C19.1543 5.24186 18.9697 4.97298 18.833 4.66309C18.7008 4.34863 18.6348 3.97949 18.6348 3.55566C18.6348 2.99056 18.7692 2.50749 19.0381 2.10645C19.3115 1.7054 19.6943 1.39779 20.1865 1.18359C20.6833 0.969401 21.262 0.862305 21.9229 0.862305C22.4469 0.862305 22.9391 0.916992 23.3994 1.02637C23.8643 1.13574 24.32 1.29069 24.7666 1.49121L24.2471 2.81055C23.8369 2.64193 23.4382 2.50749 23.0508 2.40723C22.668 2.30697 22.276 2.25684 21.875 2.25684C21.5286 2.25684 21.2347 2.30924 20.9932 2.41406C20.7516 2.51888 20.5671 2.66699 20.4395 2.8584C20.3164 3.04525 20.2549 3.26855 20.2549 3.52832C20.2549 3.81999 20.3255 4.06608 20.4668 4.2666C20.6126 4.46257 20.8359 4.64258 21.1367 4.80664C21.4421 4.9707 21.834 5.15299 22.3125 5.35352C22.8639 5.58138 23.3311 5.82064 23.7139 6.07129C24.1012 6.32194 24.3975 6.62272 24.6025 6.97363C24.8076 7.31999 24.9102 7.75521 24.9102 8.2793ZM30.3037 11H28.6562V2.40039H25.7305V1.00586H33.2227V2.40039H30.3037V11ZM37.6387 7.16504C37.6387 6.39941 37.7116 5.65202 37.8574 4.92285C38.0078 4.19368 38.2357 3.4987 38.541 2.83789C38.8464 2.17708 39.2314 1.56641 39.6963 1.00586H41.0977C40.446 1.8763 39.9538 2.84017 39.6211 3.89746C39.293 4.95475 39.1289 6.03939 39.1289 7.15137C39.1289 7.87598 39.2018 8.59375 39.3477 9.30469C39.4935 10.0156 39.7122 10.6992 40.0039 11.3555C40.2956 12.0163 40.6556 12.6361 41.084 13.2148H39.6963C39.2314 12.668 38.8464 12.071 38.541 11.4238C38.2357 10.7767 38.0078 10.0931 37.8574 9.37305C37.7116 8.65299 37.6387 7.91699 37.6387 7.16504ZM46.874 11H45.2607V4.56738C45.2607 4.35319 45.263 4.139 45.2676 3.9248C45.2721 3.71061 45.2767 3.50098 45.2812 3.2959C45.2904 3.09082 45.3018 2.89486 45.3154 2.70801C45.2197 2.81283 45.1012 2.92676 44.96 3.0498C44.8232 3.17285 44.6774 3.30046 44.5225 3.43262L43.374 4.34863L42.5674 3.33008L45.5342 1.00586H46.874V11ZM51.3037 11L55.2275 2.41406H50.0391V1.00586H56.957V2.10645L53.0332 11H51.3037ZM60.3066 0.862305C61.0404 0.862305 61.5964 1.13574 61.9746 1.68262C62.3529 2.22493 62.542 2.99284 62.542 3.98633C62.542 4.97526 62.3597 5.74772 61.9951 6.30371C61.6351 6.8597 61.0723 7.1377 60.3066 7.1377C59.5911 7.1377 59.0465 6.8597 58.6729 6.30371C58.2992 5.74772 58.1123 4.97526 58.1123 3.98633C58.1123 2.99284 58.2878 2.22493 58.6387 1.68262C58.9941 1.13574 59.5501 0.862305 60.3066 0.862305ZM60.3135 1.9834C60.0173 1.9834 59.7985 2.14974 59.6572 2.48242C59.5205 2.8151 59.4521 3.31868 59.4521 3.99316C59.4521 4.66309 59.5205 5.16895 59.6572 5.51074C59.7985 5.84798 60.0173 6.0166 60.3135 6.0166C60.6143 6.0166 60.8376 5.84798 60.9834 5.51074C61.1338 5.1735 61.209 4.66764 61.209 3.99316C61.209 3.32324 61.1361 2.82194 60.9902 2.48926C60.8444 2.15202 60.6188 1.9834 60.3135 1.9834ZM67.0195 1.00586L61.4756 11H60.1562L65.7002 1.00586H67.0195ZM66.835 4.86133C67.5687 4.86133 68.1247 5.13477 68.5029 5.68164C68.8857 6.22396 69.0771 6.99186 69.0771 7.98535C69.0771 8.96973 68.8949 9.73991 68.5303 10.2959C68.1702 10.8519 67.6051 11.1299 66.835 11.1299C66.1195 11.1299 65.5749 10.8519 65.2012 10.2959C64.8275 9.73991 64.6406 8.96973 64.6406 7.98535C64.6406 6.99186 64.8161 6.22396 65.167 5.68164C65.5225 5.13477 66.0785 4.86133 66.835 4.86133ZM66.8418 5.98242C66.5456 5.98242 66.3268 6.14876 66.1855 6.48145C66.0488 6.81413 65.9805 7.31771 65.9805 7.99219C65.9805 8.66211 66.0488 9.16797 66.1855 9.50977C66.3268 9.84701 66.5456 10.0156 66.8418 10.0156C67.1471 10.0156 67.3727 9.84928 67.5186 9.5166C67.6644 9.17936 67.7373 8.67122 67.7373 7.99219C67.7373 7.32227 67.6644 6.82096 67.5186 6.48828C67.3727 6.15104 67.1471 5.98242 66.8418 5.98242ZM73.5205 7.1582C73.5205 7.91471 73.4476 8.65299 73.3018 9.37305C73.1559 10.0931 72.9303 10.7767 72.625 11.4238C72.3242 12.071 71.9368 12.668 71.4629 13.2148H70.082C70.5104 12.6361 70.8704 12.0163 71.1621 11.3555C71.4538 10.6947 71.6725 10.0088 71.8184 9.29785C71.9642 8.58691 72.0371 7.86914 72.0371 7.14453C72.0371 6.40625 71.9619 5.67708 71.8115 4.95703C71.6657 4.23698 71.4469 3.54427 71.1553 2.87891C70.8636 2.20898 70.5013 1.58464 70.0684 1.00586H71.4629C71.9368 1.56641 72.3242 2.17708 72.625 2.83789C72.9303 3.4987 73.1559 4.19368 73.3018 4.92285C73.4476 5.64746 73.5205 6.39258 73.5205 7.1582ZM80.4795 3.43262V11H78.873V3.43262H80.4795ZM79.6865 0.53418C79.9326 0.53418 80.1445 0.60026 80.3223 0.732422C80.5046 0.864583 80.5957 1.09245 80.5957 1.41602C80.5957 1.73503 80.5046 1.96289 80.3223 2.09961C80.1445 2.23177 79.9326 2.29785 79.6865 2.29785C79.4313 2.29785 79.2148 2.23177 79.0371 2.09961C78.8639 1.96289 78.7773 1.73503 78.7773 1.41602C78.7773 1.09245 78.8639 0.864583 79.0371 0.732422C79.2148 0.60026 79.4313 0.53418 79.6865 0.53418ZM87.8691 8.83984C87.8691 9.33659 87.7484 9.75586 87.5068 10.0977C87.2653 10.4395 86.9121 10.6992 86.4473 10.877C85.987 11.0501 85.4219 11.1367 84.752 11.1367C84.2233 11.1367 83.7676 11.098 83.3848 11.0205C83.0065 10.9476 82.6488 10.8337 82.3115 10.6787V9.29102C82.6715 9.45964 83.0749 9.60547 83.5215 9.72852C83.9727 9.85156 84.3988 9.91309 84.7998 9.91309C85.3285 9.91309 85.709 9.83105 85.9414 9.66699C86.1738 9.49837 86.29 9.27507 86.29 8.99707C86.29 8.83301 86.2422 8.68717 86.1465 8.55957C86.0553 8.42741 85.8822 8.29297 85.627 8.15625C85.3763 8.01497 85.0072 7.84635 84.5195 7.65039C84.041 7.45898 83.6377 7.26758 83.3096 7.07617C82.9814 6.88477 82.7331 6.65462 82.5645 6.38574C82.3958 6.1123 82.3115 5.76367 82.3115 5.33984C82.3115 4.66992 82.5758 4.16178 83.1045 3.81543C83.6377 3.46452 84.3418 3.28906 85.2168 3.28906C85.6816 3.28906 86.1191 3.33691 86.5293 3.43262C86.944 3.52376 87.3496 3.6582 87.7461 3.83594L87.2402 5.0459C86.8984 4.89551 86.5544 4.77246 86.208 4.67676C85.8662 4.5765 85.5176 4.52637 85.1621 4.52637C84.7474 4.52637 84.4307 4.59017 84.2119 4.71777C83.9977 4.84538 83.8906 5.02767 83.8906 5.26465C83.8906 5.44238 83.943 5.59277 84.0479 5.71582C84.1527 5.83887 84.3327 5.96191 84.5879 6.08496C84.8477 6.20801 85.2077 6.36068 85.668 6.54297C86.1191 6.71615 86.5088 6.89844 86.8369 7.08984C87.1696 7.27669 87.4248 7.50684 87.6025 7.78027C87.7803 8.05371 87.8691 8.4069 87.8691 8.83984ZM96.209 3.28906C97.166 3.28906 97.8883 3.50098 98.376 3.9248C98.8682 4.34863 99.1143 5.00944 99.1143 5.90723V11H97.9727L97.665 9.92676H97.6104C97.3962 10.2002 97.1751 10.4258 96.9473 10.6035C96.7194 10.7812 96.4551 10.9134 96.1543 11C95.8581 11.0911 95.4958 11.1367 95.0674 11.1367C94.6162 11.1367 94.2129 11.0547 93.8574 10.8906C93.502 10.722 93.2217 10.4668 93.0166 10.125C92.8115 9.7832 92.709 9.35026 92.709 8.82617C92.709 8.04688 92.9984 7.46126 93.5771 7.06934C94.1605 6.67741 95.04 6.46094 96.2158 6.41992L97.5283 6.37207V5.97559C97.5283 5.4515 97.4053 5.0778 97.1592 4.85449C96.9176 4.63118 96.5758 4.51953 96.1338 4.51953C95.7555 4.51953 95.3887 4.57422 95.0332 4.68359C94.6777 4.79297 94.3314 4.92741 93.9941 5.08691L93.4746 3.95215C93.8438 3.75618 94.263 3.59668 94.7324 3.47363C95.2064 3.35059 95.6986 3.28906 96.209 3.28906ZM97.5215 7.38379L96.5439 7.41797C95.7419 7.44531 95.179 7.58203 94.8555 7.82812C94.5319 8.07422 94.3701 8.41146 94.3701 8.83984C94.3701 9.21354 94.4818 9.48698 94.7051 9.66016C94.9284 9.82878 95.2223 9.91309 95.5869 9.91309C96.1429 9.91309 96.6032 9.75586 96.9678 9.44141C97.3369 9.1224 97.5215 8.65527 97.5215 8.04004V7.38379ZM105.246 3.28906C106.144 3.28906 106.864 3.61719 107.406 4.27344C107.953 4.92969 108.227 5.90495 108.227 7.19922C108.227 8.05599 108.099 8.77832 107.844 9.36621C107.593 9.94954 107.24 10.3916 106.784 10.6924C106.333 10.9886 105.807 11.1367 105.205 11.1367C104.822 11.1367 104.49 11.0866 104.207 10.9863C103.924 10.8861 103.683 10.7562 103.482 10.5967C103.282 10.4326 103.113 10.2549 102.977 10.0635H102.881C102.904 10.2458 102.924 10.4486 102.942 10.6719C102.965 10.8906 102.977 11.0911 102.977 11.2734V14.3564H101.363V3.43262H102.676L102.901 4.47852H102.977C103.118 4.26432 103.289 4.06608 103.489 3.88379C103.694 3.7015 103.94 3.55794 104.228 3.45312C104.519 3.34375 104.859 3.28906 105.246 3.28906ZM104.815 4.60156C104.373 4.60156 104.018 4.69043 103.749 4.86816C103.485 5.04134 103.291 5.30339 103.168 5.6543C103.049 6.00521 102.986 6.44499 102.977 6.97363V7.19922C102.977 7.75977 103.034 8.236 103.147 8.62793C103.266 9.0153 103.46 9.31152 103.729 9.5166C104.002 9.71712 104.371 9.81738 104.836 9.81738C105.228 9.81738 105.551 9.71029 105.807 9.49609C106.066 9.2819 106.26 8.97656 106.388 8.58008C106.515 8.18359 106.579 7.71647 106.579 7.17871C106.579 6.36296 106.433 5.72949 106.142 5.27832C105.854 4.82715 105.412 4.60156 104.815 4.60156ZM113.969 3.28906C114.867 3.28906 115.587 3.61719 116.129 4.27344C116.676 4.92969 116.949 5.90495 116.949 7.19922C116.949 8.05599 116.822 8.77832 116.566 9.36621C116.316 9.94954 115.963 10.3916 115.507 10.6924C115.056 10.9886 114.529 11.1367 113.928 11.1367C113.545 11.1367 113.212 11.0866 112.93 10.9863C112.647 10.8861 112.406 10.7562 112.205 10.5967C112.005 10.4326 111.836 10.2549 111.699 10.0635H111.604C111.626 10.2458 111.647 10.4486 111.665 10.6719C111.688 10.8906 111.699 11.0911 111.699 11.2734V14.3564H110.086V3.43262H111.398L111.624 4.47852H111.699C111.84 4.26432 112.011 4.06608 112.212 3.88379C112.417 3.7015 112.663 3.55794 112.95 3.45312C113.242 3.34375 113.581 3.28906 113.969 3.28906ZM113.538 4.60156C113.096 4.60156 112.741 4.69043 112.472 4.86816C112.207 5.04134 112.014 5.30339 111.891 5.6543C111.772 6.00521 111.708 6.44499 111.699 6.97363V7.19922C111.699 7.75977 111.756 8.236 111.87 8.62793C111.989 9.0153 112.182 9.31152 112.451 9.5166C112.725 9.71712 113.094 9.81738 113.559 9.81738C113.951 9.81738 114.274 9.71029 114.529 9.49609C114.789 9.2819 114.983 8.97656 115.11 8.58008C115.238 8.18359 115.302 7.71647 115.302 7.17871C115.302 6.36296 115.156 5.72949 114.864 5.27832C114.577 4.82715 114.135 4.60156 113.538 4.60156ZM120.422 11H118.809V0.363281H120.422V11ZM124.325 3.43262V11H122.719V3.43262H124.325ZM123.532 0.53418C123.778 0.53418 123.99 0.60026 124.168 0.732422C124.35 0.864583 124.441 1.09245 124.441 1.41602C124.441 1.73503 124.35 1.96289 124.168 2.09961C123.99 2.23177 123.778 2.29785 123.532 2.29785C123.277 2.29785 123.061 2.23177 122.883 2.09961C122.71 1.96289 122.623 1.73503 122.623 1.41602C122.623 1.09245 122.71 0.864583 122.883 0.732422C123.061 0.60026 123.277 0.53418 123.532 0.53418ZM129.644 3.28906C130.318 3.28906 130.897 3.42806 131.38 3.70605C131.863 3.98405 132.234 4.37826 132.494 4.88867C132.754 5.39909 132.884 6.00977 132.884 6.7207V7.58203H127.832C127.85 8.31576 128.046 8.88086 128.42 9.27734C128.798 9.67383 129.327 9.87207 130.006 9.87207C130.489 9.87207 130.922 9.8265 131.305 9.73535C131.692 9.63965 132.091 9.50065 132.501 9.31836V10.624C132.123 10.8018 131.738 10.9316 131.346 11.0137C130.954 11.0957 130.484 11.1367 129.938 11.1367C129.195 11.1367 128.541 10.9932 127.976 10.7061C127.415 10.4144 126.975 9.98145 126.656 9.40723C126.342 8.83301 126.185 8.11979 126.185 7.26758C126.185 6.41992 126.328 5.69987 126.615 5.10742C126.902 4.51497 127.306 4.0638 127.825 3.75391C128.345 3.44401 128.951 3.28906 129.644 3.28906ZM129.644 4.49902C129.138 4.49902 128.728 4.66309 128.413 4.99121C128.103 5.31934 127.921 5.80013 127.866 6.43359H131.312C131.307 6.05534 131.243 5.72038 131.12 5.42871C131.002 5.13704 130.819 4.90918 130.573 4.74512C130.332 4.58105 130.022 4.49902 129.644 4.49902ZM137.238 11.1367C136.336 11.1367 135.611 10.8086 135.064 10.1523C134.522 9.49154 134.251 8.51855 134.251 7.2334C134.251 5.93457 134.527 4.95247 135.078 4.28711C135.634 3.62174 136.366 3.28906 137.272 3.28906C137.655 3.28906 137.99 3.34147 138.277 3.44629C138.564 3.54655 138.811 3.68327 139.016 3.85645C139.225 4.02962 139.403 4.22331 139.549 4.4375H139.624C139.601 4.29622 139.574 4.09342 139.542 3.8291C139.515 3.56022 139.501 3.31185 139.501 3.08398V0.363281H141.114V11H139.856L139.569 9.96777H139.501C139.364 10.1865 139.191 10.3848 138.981 10.5625C138.776 10.7357 138.53 10.8747 138.243 10.9795C137.961 11.0843 137.626 11.1367 137.238 11.1367ZM137.689 9.83105C138.378 9.83105 138.863 9.63281 139.146 9.23633C139.428 8.83984 139.574 8.24512 139.583 7.45215V7.24023C139.583 6.39258 139.446 5.74316 139.173 5.29199C138.899 4.83626 138.4 4.6084 137.676 4.6084C137.097 4.6084 136.655 4.8431 136.35 5.3125C136.049 5.77734 135.898 6.42676 135.898 7.26074C135.898 8.09473 136.049 8.73275 136.35 9.1748C136.655 9.6123 137.102 9.83105 137.689 9.83105ZM153.754 7.19922C153.754 7.82812 153.672 8.38639 153.508 8.87402C153.344 9.36165 153.104 9.77409 152.79 10.1113C152.476 10.444 152.097 10.6992 151.655 10.877C151.213 11.0501 150.714 11.1367 150.158 11.1367C149.639 11.1367 149.162 11.0501 148.729 10.877C148.297 10.6992 147.921 10.444 147.602 10.1113C147.287 9.77409 147.043 9.36165 146.87 8.87402C146.697 8.38639 146.61 7.82812 146.61 7.19922C146.61 6.36523 146.754 5.65885 147.041 5.08008C147.333 4.49674 147.747 4.05241 148.285 3.74707C148.823 3.44173 149.463 3.28906 150.206 3.28906C150.903 3.28906 151.519 3.44173 152.052 3.74707C152.585 4.05241 153.002 4.49674 153.303 5.08008C153.604 5.66341 153.754 6.36979 153.754 7.19922ZM148.265 7.19922C148.265 7.75065 148.331 8.22233 148.463 8.61426C148.6 9.00618 148.809 9.30697 149.092 9.5166C149.374 9.72168 149.739 9.82422 150.186 9.82422C150.632 9.82422 150.997 9.72168 151.279 9.5166C151.562 9.30697 151.769 9.00618 151.901 8.61426C152.034 8.22233 152.1 7.75065 152.1 7.19922C152.1 6.64779 152.034 6.18066 151.901 5.79785C151.769 5.41048 151.562 5.11654 151.279 4.91602C150.997 4.71094 150.63 4.6084 150.179 4.6084C149.513 4.6084 149.028 4.83171 148.723 5.27832C148.417 5.72493 148.265 6.36523 148.265 7.19922ZM159.544 3.28906C160.396 3.28906 161.059 3.51009 161.533 3.95215C162.012 4.38965 162.251 5.09375 162.251 6.06445V11H160.645V6.36523C160.645 5.77734 160.524 5.33757 160.282 5.0459C160.041 4.74967 159.667 4.60156 159.161 4.60156C158.427 4.60156 157.917 4.82715 157.63 5.27832C157.347 5.72949 157.206 6.38346 157.206 7.24023V11H155.6V3.43262H156.851L157.076 4.45801H157.165C157.329 4.19368 157.532 3.97721 157.773 3.80859C158.02 3.63542 158.293 3.50553 158.594 3.41895C158.899 3.33236 159.216 3.28906 159.544 3.28906ZM171.104 3.28906C172.061 3.28906 172.783 3.50098 173.271 3.9248C173.763 4.34863 174.009 5.00944 174.009 5.90723V11H172.867L172.56 9.92676H172.505C172.291 10.2002 172.07 10.4258 171.842 10.6035C171.614 10.7812 171.35 10.9134 171.049 11C170.753 11.0911 170.39 11.1367 169.962 11.1367C169.511 11.1367 169.107 11.0547 168.752 10.8906C168.396 10.722 168.116 10.4668 167.911 10.125C167.706 9.7832 167.604 9.35026 167.604 8.82617C167.604 8.04688 167.893 7.46126 168.472 7.06934C169.055 6.67741 169.935 6.46094 171.11 6.41992L172.423 6.37207V5.97559C172.423 5.4515 172.3 5.0778 172.054 4.85449C171.812 4.63118 171.47 4.51953 171.028 4.51953C170.65 4.51953 170.283 4.57422 169.928 4.68359C169.572 4.79297 169.226 4.92741 168.889 5.08691L168.369 3.95215C168.738 3.75618 169.158 3.59668 169.627 3.47363C170.101 3.35059 170.593 3.28906 171.104 3.28906ZM172.416 7.38379L171.438 7.41797C170.636 7.44531 170.074 7.58203 169.75 7.82812C169.426 8.07422 169.265 8.41146 169.265 8.83984C169.265 9.21354 169.376 9.48698 169.6 9.66016C169.823 9.82878 170.117 9.91309 170.481 9.91309C171.037 9.91309 171.498 9.75586 171.862 9.44141C172.231 9.1224 172.416 8.65527 172.416 8.04004V7.38379ZM177.871 11H176.258V0.363281H177.871V11ZM181.781 11H180.168V0.363281H181.781V11ZM190.531 9.83789C190.741 9.83789 190.948 9.81966 191.153 9.7832C191.358 9.74219 191.545 9.69434 191.714 9.63965V10.8564C191.536 10.9339 191.306 11 191.023 11.0547C190.741 11.1094 190.447 11.1367 190.142 11.1367C189.713 11.1367 189.328 11.0661 188.986 10.9248C188.645 10.779 188.373 10.5306 188.173 10.1797C187.972 9.82878 187.872 9.34342 187.872 8.72363V4.65625H186.84V3.93848L187.947 3.37109L188.474 1.75098H189.485V3.43262H191.652V4.65625H189.485V8.70312C189.485 9.08594 189.581 9.37077 189.772 9.55762C189.964 9.74447 190.217 9.83789 190.531 9.83789ZM196.219 3.28906C197.176 3.28906 197.898 3.50098 198.386 3.9248C198.878 4.34863 199.124 5.00944 199.124 5.90723V11H197.982L197.675 9.92676H197.62C197.406 10.2002 197.185 10.4258 196.957 10.6035C196.729 10.7812 196.465 10.9134 196.164 11C195.868 11.0911 195.506 11.1367 195.077 11.1367C194.626 11.1367 194.223 11.0547 193.867 10.8906C193.512 10.722 193.231 10.4668 193.026 10.125C192.821 9.7832 192.719 9.35026 192.719 8.82617C192.719 8.04688 193.008 7.46126 193.587 7.06934C194.17 6.67741 195.05 6.46094 196.226 6.41992L197.538 6.37207V5.97559C197.538 5.4515 197.415 5.0778 197.169 4.85449C196.927 4.63118 196.586 4.51953 196.144 4.51953C195.765 4.51953 195.398 4.57422 195.043 4.68359C194.688 4.79297 194.341 4.92741 194.004 5.08691L193.484 3.95215C193.854 3.75618 194.273 3.59668 194.742 3.47363C195.216 3.35059 195.708 3.28906 196.219 3.28906ZM197.531 7.38379L196.554 7.41797C195.752 7.44531 195.189 7.58203 194.865 7.82812C194.542 8.07422 194.38 8.41146 194.38 8.83984C194.38 9.21354 194.492 9.48698 194.715 9.66016C194.938 9.82878 195.232 9.91309 195.597 9.91309C196.153 9.91309 196.613 9.75586 196.978 9.44141C197.347 9.1224 197.531 8.65527 197.531 8.04004V7.38379ZM205.208 3.28906C205.336 3.28906 205.475 3.2959 205.625 3.30957C205.775 3.32324 205.905 3.34147 206.015 3.36426L205.864 4.86816C205.769 4.84082 205.65 4.82031 205.509 4.80664C205.372 4.79297 205.249 4.78613 205.14 4.78613C204.853 4.78613 204.579 4.83398 204.319 4.92969C204.06 5.02083 203.829 5.16211 203.629 5.35352C203.428 5.54036 203.271 5.77507 203.157 6.05762C203.043 6.34017 202.986 6.66829 202.986 7.04199V11H201.373V3.43262H202.631L202.85 4.76562H202.925C203.075 4.49674 203.262 4.25065 203.485 4.02734C203.709 3.80404 203.964 3.6263 204.251 3.49414C204.543 3.35742 204.862 3.28906 205.208 3.28906ZM209.022 3.43262V11H207.416V3.43262H209.022ZM208.229 0.53418C208.476 0.53418 208.688 0.60026 208.865 0.732422C209.048 0.864583 209.139 1.09245 209.139 1.41602C209.139 1.73503 209.048 1.96289 208.865 2.09961C208.688 2.23177 208.476 2.29785 208.229 2.29785C207.974 2.29785 207.758 2.23177 207.58 2.09961C207.407 1.96289 207.32 1.73503 207.32 1.41602C207.32 1.09245 207.407 0.864583 207.58 0.732422C207.758 0.60026 207.974 0.53418 208.229 0.53418ZM215.106 4.65625H213.268V11H211.661V4.65625H210.424V3.88379L211.661 3.41211V2.88574C211.661 2.24316 211.761 1.73275 211.962 1.35449C212.167 0.976237 212.459 0.705078 212.837 0.541016C213.22 0.372396 213.675 0.288086 214.204 0.288086C214.55 0.288086 214.867 0.317708 215.154 0.376953C215.441 0.431641 215.683 0.495443 215.879 0.568359L215.462 1.78516C215.307 1.73503 215.134 1.68945 214.942 1.64844C214.751 1.60286 214.546 1.58008 214.327 1.58008C213.963 1.58008 213.694 1.69401 213.521 1.92188C213.352 2.14974 213.268 2.48242 213.268 2.91992V3.43262H215.106V4.65625ZM220.172 4.65625H218.333V11H216.727V4.65625H215.489V3.88379L216.727 3.41211V2.88574C216.727 2.24316 216.827 1.73275 217.027 1.35449C217.232 0.976237 217.524 0.705078 217.902 0.541016C218.285 0.372396 218.741 0.288086 219.27 0.288086C219.616 0.288086 219.933 0.317708 220.22 0.376953C220.507 0.431641 220.748 0.495443 220.944 0.568359L220.527 1.78516C220.372 1.73503 220.199 1.68945 220.008 1.64844C219.816 1.60286 219.611 1.58008 219.393 1.58008C219.028 1.58008 218.759 1.69401 218.586 1.92188C218.417 2.14974 218.333 2.48242 218.333 2.91992V3.43262H220.172V4.65625ZM226.543 8.83984C226.543 9.33659 226.422 9.75586 226.181 10.0977C225.939 10.4395 225.586 10.6992 225.121 10.877C224.661 11.0501 224.096 11.1367 223.426 11.1367C222.897 11.1367 222.441 11.098 222.059 11.0205C221.68 10.9476 221.323 10.8337 220.985 10.6787V9.29102C221.345 9.45964 221.749 9.60547 222.195 9.72852C222.646 9.85156 223.073 9.91309 223.474 9.91309C224.002 9.91309 224.383 9.83105 224.615 9.66699C224.848 9.49837 224.964 9.27507 224.964 8.99707C224.964 8.83301 224.916 8.68717 224.82 8.55957C224.729 8.42741 224.556 8.29297 224.301 8.15625C224.05 8.01497 223.681 7.84635 223.193 7.65039C222.715 7.45898 222.312 7.26758 221.983 7.07617C221.655 6.88477 221.407 6.65462 221.238 6.38574C221.07 6.1123 220.985 5.76367 220.985 5.33984C220.985 4.66992 221.25 4.16178 221.778 3.81543C222.312 3.46452 223.016 3.28906 223.891 3.28906C224.355 3.28906 224.793 3.33691 225.203 3.43262C225.618 3.52376 226.023 3.6582 226.42 3.83594L225.914 5.0459C225.572 4.89551 225.228 4.77246 224.882 4.67676C224.54 4.5765 224.191 4.52637 223.836 4.52637C223.421 4.52637 223.104 4.59017 222.886 4.71777C222.672 4.84538 222.564 5.02767 222.564 5.26465C222.564 5.44238 222.617 5.59277 222.722 5.71582C222.826 5.83887 223.007 5.96191 223.262 6.08496C223.521 6.20801 223.882 6.36068 224.342 6.54297C224.793 6.71615 225.183 6.89844 225.511 7.08984C225.843 7.27669 226.099 7.50684 226.276 7.78027C226.454 8.05371 226.543 8.4069 226.543 8.83984ZM234.883 3.28906C235.84 3.28906 236.562 3.50098 237.05 3.9248C237.542 4.34863 237.788 5.00944 237.788 5.90723V11H236.646L236.339 9.92676H236.284C236.07 10.2002 235.849 10.4258 235.621 10.6035C235.393 10.7812 235.129 10.9134 234.828 11C234.532 11.0911 234.17 11.1367 233.741 11.1367C233.29 11.1367 232.887 11.0547 232.531 10.8906C232.176 10.722 231.896 10.4668 231.69 10.125C231.485 9.7832 231.383 9.35026 231.383 8.82617C231.383 8.04688 231.672 7.46126 232.251 7.06934C232.834 6.67741 233.714 6.46094 234.89 6.41992L236.202 6.37207V5.97559C236.202 5.4515 236.079 5.0778 235.833 4.85449C235.591 4.63118 235.25 4.51953 234.808 4.51953C234.429 4.51953 234.062 4.57422 233.707 4.68359C233.352 4.79297 233.005 4.92741 232.668 5.08691L232.148 3.95215C232.518 3.75618 232.937 3.59668 233.406 3.47363C233.88 3.35059 234.372 3.28906 234.883 3.28906ZM236.195 7.38379L235.218 7.41797C234.416 7.44531 233.853 7.58203 233.529 7.82812C233.206 8.07422 233.044 8.41146 233.044 8.83984C233.044 9.21354 233.156 9.48698 233.379 9.66016C233.602 9.82878 233.896 9.91309 234.261 9.91309C234.817 9.91309 235.277 9.75586 235.642 9.44141C236.011 9.1224 236.195 8.65527 236.195 8.04004V7.38379ZM245.123 8.83984C245.123 9.33659 245.002 9.75586 244.761 10.0977C244.519 10.4395 244.166 10.6992 243.701 10.877C243.241 11.0501 242.676 11.1367 242.006 11.1367C241.477 11.1367 241.021 11.098 240.639 11.0205C240.26 10.9476 239.903 10.8337 239.565 10.6787V9.29102C239.925 9.45964 240.329 9.60547 240.775 9.72852C241.227 9.85156 241.653 9.91309 242.054 9.91309C242.582 9.91309 242.963 9.83105 243.195 9.66699C243.428 9.49837 243.544 9.27507 243.544 8.99707C243.544 8.83301 243.496 8.68717 243.4 8.55957C243.309 8.42741 243.136 8.29297 242.881 8.15625C242.63 8.01497 242.261 7.84635 241.773 7.65039C241.295 7.45898 240.892 7.26758 240.563 7.07617C240.235 6.88477 239.987 6.65462 239.818 6.38574C239.65 6.1123 239.565 5.76367 239.565 5.33984C239.565 4.66992 239.83 4.16178 240.358 3.81543C240.892 3.46452 241.596 3.28906 242.471 3.28906C242.936 3.28906 243.373 3.33691 243.783 3.43262C244.198 3.52376 244.604 3.6582 245 3.83594L244.494 5.0459C244.152 4.89551 243.808 4.77246 243.462 4.67676C243.12 4.5765 242.771 4.52637 242.416 4.52637C242.001 4.52637 241.685 4.59017 241.466 4.71777C241.252 4.84538 241.145 5.02767 241.145 5.26465C241.145 5.44238 241.197 5.59277 241.302 5.71582C241.407 5.83887 241.587 5.96191 241.842 6.08496C242.102 6.20801 242.462 6.36068 242.922 6.54297C243.373 6.71615 243.763 6.89844 244.091 7.08984C244.424 7.27669 244.679 7.50684 244.856 7.78027C245.034 8.05371 245.123 8.4069 245.123 8.83984ZM254.379 3.28906C255.277 3.28906 255.997 3.61719 256.539 4.27344C257.086 4.92969 257.359 5.90495 257.359 7.19922C257.359 8.05599 257.232 8.77832 256.977 9.36621C256.726 9.94954 256.373 10.3916 255.917 10.6924C255.466 10.9886 254.939 11.1367 254.338 11.1367C253.955 11.1367 253.622 11.0866 253.34 10.9863C253.057 10.8861 252.816 10.7562 252.615 10.5967C252.415 10.4326 252.246 10.2549 252.109 10.0635H252.014C252.036 10.2458 252.057 10.4486 252.075 10.6719C252.098 10.8906 252.109 11.0911 252.109 11.2734V14.3564H250.496V3.43262H251.809L252.034 4.47852H252.109C252.251 4.26432 252.422 4.06608 252.622 3.88379C252.827 3.7015 253.073 3.55794 253.36 3.45312C253.652 3.34375 253.992 3.28906 254.379 3.28906ZM253.948 4.60156C253.506 4.60156 253.151 4.69043 252.882 4.86816C252.618 5.04134 252.424 5.30339 252.301 5.6543C252.182 6.00521 252.118 6.44499 252.109 6.97363V7.19922C252.109 7.75977 252.166 8.236 252.28 8.62793C252.399 9.0153 252.592 9.31152 252.861 9.5166C253.135 9.71712 253.504 9.81738 253.969 9.81738C254.361 9.81738 254.684 9.71029 254.939 9.49609C255.199 9.2819 255.393 8.97656 255.521 8.58008C255.648 8.18359 255.712 7.71647 255.712 7.17871C255.712 6.36296 255.566 5.72949 255.274 5.27832C254.987 4.82715 254.545 4.60156 253.948 4.60156ZM262.233 3.28906C262.908 3.28906 263.487 3.42806 263.97 3.70605C264.453 3.98405 264.824 4.37826 265.084 4.88867C265.344 5.39909 265.474 6.00977 265.474 6.7207V7.58203H260.422C260.44 8.31576 260.636 8.88086 261.01 9.27734C261.388 9.67383 261.917 9.87207 262.596 9.87207C263.079 9.87207 263.512 9.8265 263.895 9.73535C264.282 9.63965 264.681 9.50065 265.091 9.31836V10.624C264.713 10.8018 264.327 10.9316 263.936 11.0137C263.544 11.0957 263.074 11.1367 262.527 11.1367C261.785 11.1367 261.131 10.9932 260.565 10.7061C260.005 10.4144 259.565 9.98145 259.246 9.40723C258.932 8.83301 258.774 8.11979 258.774 7.26758C258.774 6.41992 258.918 5.69987 259.205 5.10742C259.492 4.51497 259.896 4.0638 260.415 3.75391C260.935 3.44401 261.541 3.28906 262.233 3.28906ZM262.233 4.49902C261.728 4.49902 261.317 4.66309 261.003 4.99121C260.693 5.31934 260.511 5.80013 260.456 6.43359H263.901C263.897 6.05534 263.833 5.72038 263.71 5.42871C263.591 5.13704 263.409 4.90918 263.163 4.74512C262.922 4.58105 262.612 4.49902 262.233 4.49902ZM271.12 3.28906C271.248 3.28906 271.387 3.2959 271.537 3.30957C271.688 3.32324 271.817 3.34147 271.927 3.36426L271.776 4.86816C271.681 4.84082 271.562 4.82031 271.421 4.80664C271.284 4.79297 271.161 4.78613 271.052 4.78613C270.765 4.78613 270.491 4.83398 270.231 4.92969C269.972 5.02083 269.742 5.16211 269.541 5.35352C269.34 5.54036 269.183 5.77507 269.069 6.05762C268.955 6.34017 268.898 6.66829 268.898 7.04199V11H267.285V3.43262H268.543L268.762 4.76562H268.837C268.987 4.49674 269.174 4.25065 269.397 4.02734C269.621 3.80404 269.876 3.6263 270.163 3.49414C270.455 3.35742 270.774 3.28906 271.12 3.28906ZM280.848 3.28906C281.745 3.28906 282.465 3.61719 283.008 4.27344C283.555 4.92969 283.828 5.90495 283.828 7.19922C283.828 8.05599 283.701 8.77832 283.445 9.36621C283.195 9.94954 282.841 10.3916 282.386 10.6924C281.935 10.9886 281.408 11.1367 280.807 11.1367C280.424 11.1367 280.091 11.0866 279.809 10.9863C279.526 10.8861 279.285 10.7562 279.084 10.5967C278.883 10.4326 278.715 10.2549 278.578 10.0635H278.482C278.505 10.2458 278.526 10.4486 278.544 10.6719C278.567 10.8906 278.578 11.0911 278.578 11.2734V14.3564H276.965V3.43262H278.277L278.503 4.47852H278.578C278.719 4.26432 278.89 4.06608 279.091 3.88379C279.296 3.7015 279.542 3.55794 279.829 3.45312C280.121 3.34375 280.46 3.28906 280.848 3.28906ZM280.417 4.60156C279.975 4.60156 279.619 4.69043 279.351 4.86816C279.086 5.04134 278.893 5.30339 278.77 5.6543C278.651 6.00521 278.587 6.44499 278.578 6.97363V7.19922C278.578 7.75977 278.635 8.236 278.749 8.62793C278.868 9.0153 279.061 9.31152 279.33 9.5166C279.604 9.71712 279.973 9.81738 280.438 9.81738C280.829 9.81738 281.153 9.71029 281.408 9.49609C281.668 9.2819 281.862 8.97656 281.989 8.58008C282.117 8.18359 282.181 7.71647 282.181 7.17871C282.181 6.36296 282.035 5.72949 281.743 5.27832C281.456 4.82715 281.014 4.60156 280.417 4.60156ZM292.387 7.19922C292.387 7.82812 292.305 8.38639 292.141 8.87402C291.977 9.36165 291.737 9.77409 291.423 10.1113C291.108 10.444 290.73 10.6992 290.288 10.877C289.846 11.0501 289.347 11.1367 288.791 11.1367C288.271 11.1367 287.795 11.0501 287.362 10.877C286.929 10.6992 286.553 10.444 286.234 10.1113C285.92 9.77409 285.676 9.36165 285.503 8.87402C285.33 8.38639 285.243 7.82812 285.243 7.19922C285.243 6.36523 285.387 5.65885 285.674 5.08008C285.965 4.49674 286.38 4.05241 286.918 3.74707C287.456 3.44173 288.096 3.28906 288.839 3.28906C289.536 3.28906 290.151 3.44173 290.685 3.74707C291.218 4.05241 291.635 4.49674 291.936 5.08008C292.236 5.66341 292.387 6.36979 292.387 7.19922ZM286.897 7.19922C286.897 7.75065 286.964 8.22233 287.096 8.61426C287.232 9.00618 287.442 9.30697 287.725 9.5166C288.007 9.72168 288.372 9.82422 288.818 9.82422C289.265 9.82422 289.63 9.72168 289.912 9.5166C290.195 9.30697 290.402 9.00618 290.534 8.61426C290.666 8.22233 290.732 7.75065 290.732 7.19922C290.732 6.64779 290.666 6.18066 290.534 5.79785C290.402 5.41048 290.195 5.11654 289.912 4.91602C289.63 4.71094 289.263 4.6084 288.812 4.6084C288.146 4.6084 287.661 4.83171 287.355 5.27832C287.05 5.72493 286.897 6.36523 286.897 7.19922ZM295.846 11H294.232V0.363281H295.846V11ZM299.749 3.43262V11H298.143V3.43262H299.749ZM298.956 0.53418C299.202 0.53418 299.414 0.60026 299.592 0.732422C299.774 0.864583 299.865 1.09245 299.865 1.41602C299.865 1.73503 299.774 1.96289 299.592 2.09961C299.414 2.23177 299.202 2.29785 298.956 2.29785C298.701 2.29785 298.484 2.23177 298.307 2.09961C298.133 1.96289 298.047 1.73503 298.047 1.41602C298.047 1.09245 298.133 0.864583 298.307 0.732422C298.484 0.60026 298.701 0.53418 298.956 0.53418ZM305.102 11.1367C304.386 11.1367 303.766 10.9977 303.242 10.7197C302.718 10.4417 302.315 10.0156 302.032 9.44141C301.75 8.86719 301.608 8.13802 301.608 7.25391C301.608 6.33333 301.763 5.58138 302.073 4.99805C302.383 4.41471 302.812 3.98405 303.358 3.70605C303.91 3.42806 304.541 3.28906 305.252 3.28906C305.703 3.28906 306.111 3.33464 306.476 3.42578C306.845 3.51237 307.157 3.61947 307.412 3.74707L306.934 5.03223C306.656 4.91829 306.371 4.82259 306.079 4.74512C305.787 4.66764 305.507 4.62891 305.238 4.62891C304.796 4.62891 304.427 4.72689 304.131 4.92285C303.839 5.11882 303.62 5.41048 303.475 5.79785C303.333 6.18522 303.263 6.66602 303.263 7.24023C303.263 7.79622 303.336 8.26562 303.481 8.64844C303.627 9.02669 303.844 9.3138 304.131 9.50977C304.418 9.70117 304.771 9.79688 305.19 9.79688C305.605 9.79688 305.977 9.74674 306.305 9.64648C306.633 9.54622 306.943 9.41634 307.234 9.25684V10.6514C306.947 10.8154 306.64 10.9362 306.312 11.0137C305.983 11.0957 305.58 11.1367 305.102 11.1367ZM307.87 3.43262H309.62L311.172 7.75293C311.24 7.94889 311.302 8.14258 311.356 8.33398C311.416 8.52083 311.466 8.7054 311.507 8.8877C311.552 9.06999 311.589 9.25228 311.616 9.43457H311.657C311.703 9.19759 311.767 8.93327 311.849 8.6416C311.935 8.34538 312.031 8.04915 312.136 7.75293L313.626 3.43262H315.355L312.108 12.0391C311.922 12.5312 311.691 12.9505 311.418 13.2969C311.149 13.6478 310.83 13.9121 310.461 14.0898C310.092 14.2721 309.67 14.3633 309.196 14.3633C308.968 14.3633 308.77 14.3496 308.602 14.3223C308.433 14.2995 308.289 14.2744 308.171 14.2471V12.9619C308.267 12.9847 308.387 13.0052 308.533 13.0234C308.679 13.0417 308.829 13.0508 308.984 13.0508C309.271 13.0508 309.52 12.9938 309.729 12.8799C309.939 12.766 310.117 12.6042 310.263 12.3945C310.409 12.1895 310.529 11.9548 310.625 11.6904L310.892 10.9795L307.87 3.43262ZM321.747 3.43262V11H320.141V3.43262H321.747ZM320.954 0.53418C321.2 0.53418 321.412 0.60026 321.59 0.732422C321.772 0.864583 321.863 1.09245 321.863 1.41602C321.863 1.73503 321.772 1.96289 321.59 2.09961C321.412 2.23177 321.2 2.29785 320.954 2.29785C320.699 2.29785 320.482 2.23177 320.305 2.09961C320.132 1.96289 320.045 1.73503 320.045 1.41602C320.045 1.09245 320.132 0.864583 320.305 0.732422C320.482 0.60026 320.699 0.53418 320.954 0.53418ZM327.995 3.28906C328.847 3.28906 329.51 3.51009 329.984 3.95215C330.463 4.38965 330.702 5.09375 330.702 6.06445V11H329.096V6.36523C329.096 5.77734 328.975 5.33757 328.733 5.0459C328.492 4.74967 328.118 4.60156 327.612 4.60156C326.879 4.60156 326.368 4.82715 326.081 5.27832C325.799 5.72949 325.657 6.38346 325.657 7.24023V11H324.051V3.43262H325.302L325.527 4.45801H325.616C325.78 4.19368 325.983 3.97721 326.225 3.80859C326.471 3.63542 326.744 3.50553 327.045 3.41895C327.35 3.33236 327.667 3.28906 327.995 3.28906ZM342.945 11L341.968 8.22461H338.146L337.169 11H335.439L339.158 0.964844H340.977L344.688 11H342.945ZM341.544 6.81641L340.594 4.08203C340.557 3.96354 340.505 3.7972 340.437 3.58301C340.368 3.36426 340.3 3.14323 340.231 2.91992C340.163 2.69206 340.106 2.50065 340.061 2.3457C340.015 2.53255 339.958 2.74219 339.89 2.97461C339.826 3.20247 339.762 3.41667 339.698 3.61719C339.639 3.81771 339.593 3.97266 339.562 4.08203L338.604 6.81641H341.544ZM344.764 13.7822C344.513 13.7822 344.294 13.7663 344.107 13.7344C343.916 13.707 343.752 13.6683 343.615 13.6182V12.2441C343.761 12.2806 343.918 12.3125 344.087 12.3398C344.256 12.3672 344.436 12.3809 344.627 12.3809C344.878 12.3809 345.105 12.333 345.311 12.2373C345.516 12.1416 345.677 11.9684 345.796 11.7178C345.919 11.4671 345.98 11.1139 345.98 10.6582V1.00586H347.621V10.6035C347.621 11.3464 347.503 11.9502 347.266 12.415C347.029 12.8844 346.696 13.2285 346.268 13.4473C345.839 13.6706 345.338 13.7822 344.764 13.7822ZM353.192 0.855469C353.707 0.855469 354.159 0.939779 354.546 1.1084C354.938 1.27702 355.243 1.52311 355.462 1.84668C355.681 2.16569 355.79 2.55534 355.79 3.01562C355.79 3.63086 355.599 4.15039 355.216 4.57422C354.833 4.99805 354.35 5.3763 353.767 5.70898L356.125 8.00586C356.348 7.70052 356.533 7.36556 356.679 7.00098C356.825 6.63184 356.95 6.24447 357.055 5.83887H358.716C358.575 6.40397 358.379 6.96224 358.128 7.51367C357.877 8.06055 357.561 8.56185 357.178 9.01758L359.208 11H357.15L356.139 10.0088C355.856 10.2367 355.553 10.4349 355.229 10.6035C354.91 10.7721 354.562 10.9043 354.184 11C353.805 11.0911 353.388 11.1367 352.933 11.1367C352.235 11.1367 351.634 11.0251 351.128 10.8018C350.622 10.5785 350.232 10.2594 349.959 9.84473C349.69 9.42546 349.556 8.92871 349.556 8.35449C349.556 7.87598 349.635 7.46582 349.795 7.12402C349.959 6.77767 350.191 6.47461 350.492 6.21484C350.793 5.95052 351.153 5.69987 351.572 5.46289C351.344 5.20312 351.146 4.9502 350.978 4.7041C350.809 4.45801 350.679 4.20508 350.588 3.94531C350.501 3.68099 350.458 3.39844 350.458 3.09766C350.458 2.63281 350.572 2.23405 350.8 1.90137C351.028 1.56413 351.347 1.30664 351.757 1.12891C352.167 0.946615 352.646 0.855469 353.192 0.855469ZM352.522 6.44043C352.258 6.60905 352.03 6.77995 351.839 6.95312C351.647 7.12174 351.499 7.30859 351.395 7.51367C351.294 7.71875 351.244 7.95801 351.244 8.23145C351.244 8.70085 351.408 9.07227 351.736 9.3457C352.069 9.61914 352.497 9.75586 353.021 9.75586C353.482 9.75586 353.885 9.6875 354.231 9.55078C354.582 9.40951 354.888 9.23405 355.147 9.02441L352.522 6.44043ZM353.165 2.12695C352.841 2.12695 352.561 2.21126 352.324 2.37988C352.092 2.5485 351.976 2.81055 351.976 3.16602C351.976 3.45312 352.051 3.72428 352.201 3.97949C352.356 4.23014 352.57 4.5013 352.844 4.79297C353.322 4.52865 353.678 4.26888 353.91 4.01367C354.147 3.75846 354.266 3.46224 354.266 3.125C354.266 2.80599 354.159 2.5599 353.944 2.38672C353.73 2.21354 353.47 2.12695 353.165 2.12695ZM368.177 11H366.29L363.18 6.46094L362.195 7.26074V11H360.555V1.00586H362.195V5.78418C362.396 5.53809 362.599 5.29199 362.804 5.0459C363.009 4.7998 363.214 4.55371 363.419 4.30762L366.235 1.00586H368.088L364.355 5.38086L368.177 11ZM369.1 10.1523C369.1 9.77865 369.195 9.5166 369.387 9.36621C369.583 9.21126 369.82 9.13379 370.098 9.13379C370.376 9.13379 370.613 9.21126 370.809 9.36621C371.009 9.5166 371.109 9.77865 371.109 10.1523C371.109 10.5169 371.009 10.7812 370.809 10.9453C370.613 11.1048 370.376 11.1846 370.098 11.1846C369.82 11.1846 369.583 11.1048 369.387 10.9453C369.195 10.7812 369.1 10.5169 369.1 10.1523ZM380.242 0.363281L379.969 2.97461L382.594 2.22949L382.799 3.68555L380.345 3.9043L381.938 6.03027L380.611 6.74805L379.456 4.45801L378.424 6.74121L377.043 6.03027L378.622 3.9043L376.182 3.67871L376.414 2.22949L378.991 2.97461L378.718 0.363281H380.242ZM387.912 0.363281L387.639 2.97461L390.264 2.22949L390.469 3.68555L388.015 3.9043L389.607 6.03027L388.281 6.74805L387.126 4.45801L386.094 6.74121L384.713 6.03027L386.292 3.9043L383.852 3.67871L384.084 2.22949L386.661 2.97461L386.388 0.363281H387.912ZM395.124 1.00586C395.985 1.00586 396.696 1.11068 397.257 1.32031C397.822 1.52995 398.241 1.84896 398.515 2.27734C398.793 2.70573 398.932 3.25033 398.932 3.91113C398.932 4.40332 398.84 4.82259 398.658 5.16895C398.476 5.5153 398.237 5.80241 397.94 6.03027C397.644 6.25814 397.327 6.44043 396.99 6.57715L399.827 11H397.975L395.562 6.99414H393.955V11H392.314V1.00586H395.124ZM395.015 2.37305H393.955V5.64062H395.09C395.851 5.64062 396.402 5.49935 396.744 5.2168C397.09 4.93424 397.264 4.51725 397.264 3.96582C397.264 3.38704 397.079 2.97689 396.71 2.73535C396.345 2.49382 395.78 2.37305 395.015 2.37305ZM406.178 8.83984C406.178 9.33659 406.057 9.75586 405.815 10.0977C405.574 10.4395 405.221 10.6992 404.756 10.877C404.296 11.0501 403.73 11.1367 403.061 11.1367C402.532 11.1367 402.076 11.098 401.693 11.0205C401.315 10.9476 400.957 10.8337 400.62 10.6787V9.29102C400.98 9.45964 401.383 9.60547 401.83 9.72852C402.281 9.85156 402.707 9.91309 403.108 9.91309C403.637 9.91309 404.018 9.83105 404.25 9.66699C404.482 9.49837 404.599 9.27507 404.599 8.99707C404.599 8.83301 404.551 8.68717 404.455 8.55957C404.364 8.42741 404.191 8.29297 403.936 8.15625C403.685 8.01497 403.316 7.84635 402.828 7.65039C402.35 7.45898 401.946 7.26758 401.618 7.07617C401.29 6.88477 401.042 6.65462 400.873 6.38574C400.704 6.1123 400.62 5.76367 400.62 5.33984C400.62 4.66992 400.884 4.16178 401.413 3.81543C401.946 3.46452 402.65 3.28906 403.525 3.28906C403.99 3.28906 404.428 3.33691 404.838 3.43262C405.253 3.52376 405.658 3.6582 406.055 3.83594L405.549 5.0459C405.207 4.89551 404.863 4.77246 404.517 4.67676C404.175 4.5765 403.826 4.52637 403.471 4.52637C403.056 4.52637 402.739 4.59017 402.521 4.71777C402.306 4.84538 402.199 5.02767 402.199 5.26465C402.199 5.44238 402.252 5.59277 402.356 5.71582C402.461 5.83887 402.641 5.96191 402.896 6.08496C403.156 6.20801 403.516 6.36068 403.977 6.54297C404.428 6.71615 404.817 6.89844 405.146 7.08984C405.478 7.27669 405.733 7.50684 405.911 7.78027C406.089 8.05371 406.178 8.4069 406.178 8.83984ZM417.799 5.99609C417.799 6.80273 417.735 7.52507 417.607 8.16309C417.484 8.79655 417.288 9.33431 417.02 9.77637C416.751 10.2184 416.4 10.5557 415.967 10.7881C415.534 11.0205 415.01 11.1367 414.395 11.1367C413.624 11.1367 412.989 10.9339 412.487 10.5283C411.986 10.1182 411.615 9.53027 411.373 8.76465C411.132 7.99447 411.011 7.07161 411.011 5.99609C411.011 4.92057 411.12 4 411.339 3.23438C411.562 2.46419 411.922 1.87402 412.419 1.46387C412.916 1.05371 413.574 0.848633 414.395 0.848633C415.169 0.848633 415.807 1.05371 416.309 1.46387C416.814 1.86947 417.188 2.45736 417.43 3.22754C417.676 3.99316 417.799 4.91602 417.799 5.99609ZM412.631 5.99609C412.631 6.83919 412.686 7.54329 412.795 8.1084C412.909 8.6735 413.096 9.09733 413.355 9.37988C413.615 9.65788 413.962 9.79688 414.395 9.79688C414.827 9.79688 415.174 9.65788 415.434 9.37988C415.693 9.10189 415.88 8.68034 415.994 8.11523C416.113 7.55013 416.172 6.84375 416.172 5.99609C416.172 5.15755 416.115 4.45573 416.001 3.89062C415.887 3.32552 415.7 2.90169 415.44 2.61914C415.181 2.33203 414.832 2.18848 414.395 2.18848C413.957 2.18848 413.608 2.33203 413.349 2.61914C413.093 2.90169 412.909 3.32552 412.795 3.89062C412.686 4.45573 412.631 5.15755 412.631 5.99609ZM419.33 10.1523C419.33 9.77865 419.426 9.5166 419.617 9.36621C419.813 9.21126 420.05 9.13379 420.328 9.13379C420.606 9.13379 420.843 9.21126 421.039 9.36621C421.24 9.5166 421.34 9.77865 421.34 10.1523C421.34 10.5169 421.24 10.7812 421.039 10.9453C420.843 11.1048 420.606 11.1846 420.328 11.1846C420.05 11.1846 419.813 11.1048 419.617 10.9453C419.426 10.7812 419.33 10.5169 419.33 10.1523ZM430.015 8.80566H428.661V11H427.075V8.80566H422.529V7.58887L427.096 0.978516H428.661V7.47266H430.015V8.80566ZM427.075 7.47266V4.99121C427.075 4.78613 427.077 4.57878 427.082 4.36914C427.091 4.15495 427.1 3.94987 427.109 3.75391C427.118 3.55794 427.128 3.37793 427.137 3.21387C427.146 3.04525 427.153 2.90625 427.157 2.79688H427.103C427.016 2.97917 426.92 3.16602 426.815 3.35742C426.711 3.54427 426.599 3.72656 426.48 3.9043L424.02 7.47266H427.075ZM434.294 4.75195C434.937 4.75195 435.502 4.86816 435.989 5.10059C436.481 5.32845 436.864 5.66569 437.138 6.1123C437.411 6.55436 437.548 7.09668 437.548 7.73926C437.548 8.44108 437.4 9.0472 437.104 9.55762C436.807 10.0635 436.372 10.4531 435.798 10.7266C435.224 11 434.524 11.1367 433.699 11.1367C433.175 11.1367 432.685 11.0911 432.229 11C431.778 10.9089 431.389 10.7721 431.061 10.5898V9.14062C431.402 9.33203 431.812 9.48926 432.291 9.6123C432.77 9.73079 433.228 9.79004 433.665 9.79004C434.13 9.79004 434.529 9.72168 434.861 9.58496C435.194 9.44824 435.449 9.23861 435.627 8.95605C435.809 8.6735 435.9 8.31576 435.9 7.88281C435.9 7.30859 435.716 6.86654 435.347 6.55664C434.982 6.24219 434.41 6.08496 433.631 6.08496C433.357 6.08496 433.066 6.11003 432.756 6.16016C432.451 6.20573 432.195 6.25586 431.99 6.31055L431.286 5.89355L431.662 1.00586H436.857V2.4209H433.077L432.858 4.90918C433.022 4.87272 433.218 4.83854 433.446 4.80664C433.674 4.77018 433.957 4.75195 434.294 4.75195ZM446.134 1.00586C447.424 1.00586 448.365 1.27018 448.957 1.79883C449.549 2.32747 449.846 3.06803 449.846 4.02051C449.846 4.45345 449.777 4.86589 449.641 5.25781C449.508 5.64518 449.29 5.98926 448.984 6.29004C448.679 6.58626 448.276 6.82096 447.774 6.99414C447.278 7.16732 446.665 7.25391 445.936 7.25391H444.869V11H443.229V1.00586H446.134ZM446.024 2.36621H444.869V5.88672H445.765C446.28 5.88672 446.717 5.82747 447.077 5.70898C447.437 5.58594 447.711 5.39225 447.897 5.12793C448.084 4.86361 448.178 4.51497 448.178 4.08203C448.178 3.50326 448.002 3.07259 447.651 2.79004C447.305 2.50749 446.763 2.36621 446.024 2.36621ZM454.692 3.28906C455.367 3.28906 455.946 3.42806 456.429 3.70605C456.912 3.98405 457.283 4.37826 457.543 4.88867C457.803 5.39909 457.933 6.00977 457.933 6.7207V7.58203H452.881C452.899 8.31576 453.095 8.88086 453.469 9.27734C453.847 9.67383 454.376 9.87207 455.055 9.87207C455.538 9.87207 455.971 9.8265 456.354 9.73535C456.741 9.63965 457.14 9.50065 457.55 9.31836V10.624C457.172 10.8018 456.786 10.9316 456.395 11.0137C456.003 11.0957 455.533 11.1367 454.986 11.1367C454.243 11.1367 453.59 10.9932 453.024 10.7061C452.464 10.4144 452.024 9.98145 451.705 9.40723C451.391 8.83301 451.233 8.11979 451.233 7.26758C451.233 6.41992 451.377 5.69987 451.664 5.10742C451.951 4.51497 452.354 4.0638 452.874 3.75391C453.394 3.44401 454 3.28906 454.692 3.28906ZM454.692 4.49902C454.187 4.49902 453.776 4.66309 453.462 4.99121C453.152 5.31934 452.97 5.80013 452.915 6.43359H456.36C456.356 6.05534 456.292 5.72038 456.169 5.42871C456.05 5.13704 455.868 4.90918 455.622 4.74512C455.381 4.58105 455.071 4.49902 454.692 4.49902ZM463.579 3.28906C463.707 3.28906 463.846 3.2959 463.996 3.30957C464.146 3.32324 464.276 3.34147 464.386 3.36426L464.235 4.86816C464.14 4.84082 464.021 4.82031 463.88 4.80664C463.743 4.79297 463.62 4.78613 463.511 4.78613C463.224 4.78613 462.95 4.83398 462.69 4.92969C462.431 5.02083 462.201 5.16211 462 5.35352C461.799 5.54036 461.642 5.77507 461.528 6.05762C461.414 6.34017 461.357 6.66829 461.357 7.04199V11H459.744V3.43262H461.002L461.221 4.76562H461.296C461.446 4.49674 461.633 4.25065 461.856 4.02734C462.08 3.80404 462.335 3.6263 462.622 3.49414C462.914 3.35742 463.233 3.28906 463.579 3.28906ZM473.901 11L471.023 2.65332H470.962C470.976 2.84017 470.992 3.09538 471.01 3.41895C471.028 3.74251 471.044 4.08887 471.058 4.45801C471.071 4.82715 471.078 5.18034 471.078 5.51758V11H469.588V1.00586H471.892L474.66 8.9834H474.701L477.565 1.00586H479.862V11H478.297V5.43555C478.297 5.13021 478.301 4.7998 478.311 4.44434C478.324 4.08887 478.338 3.75163 478.352 3.43262C478.37 3.11361 478.383 2.8584 478.393 2.66699H478.338L475.351 11H473.901ZM483.937 3.43262V11H482.33V3.43262H483.937ZM483.144 0.53418C483.39 0.53418 483.602 0.60026 483.779 0.732422C483.962 0.864583 484.053 1.09245 484.053 1.41602C484.053 1.73503 483.962 1.96289 483.779 2.09961C483.602 2.23177 483.39 2.29785 483.144 2.29785C482.888 2.29785 482.672 2.23177 482.494 2.09961C482.321 1.96289 482.234 1.73503 482.234 1.41602C482.234 1.09245 482.321 0.864583 482.494 0.732422C482.672 0.60026 482.888 0.53418 483.144 0.53418ZM490.185 3.28906C491.037 3.28906 491.7 3.51009 492.174 3.95215C492.652 4.38965 492.892 5.09375 492.892 6.06445V11H491.285V6.36523C491.285 5.77734 491.164 5.33757 490.923 5.0459C490.681 4.74967 490.308 4.60156 489.802 4.60156C489.068 4.60156 488.558 4.82715 488.271 5.27832C487.988 5.72949 487.847 6.38346 487.847 7.24023V11H486.24V3.43262H487.491L487.717 4.45801H487.806C487.97 4.19368 488.173 3.97721 488.414 3.80859C488.66 3.63542 488.934 3.50553 489.234 3.41895C489.54 3.33236 489.856 3.28906 490.185 3.28906ZM501.737 3.43262V11H500.473L500.254 9.98145H500.165C500.006 10.2412 499.803 10.4577 499.557 10.6309C499.311 10.7995 499.037 10.9248 498.736 11.0068C498.436 11.0934 498.119 11.1367 497.786 11.1367C497.216 11.1367 496.729 11.041 496.323 10.8496C495.922 10.6536 495.615 10.3529 495.4 9.94727C495.186 9.54167 495.079 9.01758 495.079 8.375V3.43262H496.692V8.07422C496.692 8.66211 496.811 9.10189 497.048 9.39355C497.289 9.68522 497.663 9.83105 498.169 9.83105C498.657 9.83105 499.044 9.73079 499.331 9.53027C499.618 9.32975 499.821 9.03353 499.939 8.6416C500.062 8.24967 500.124 7.76888 500.124 7.19922V3.43262H501.737ZM506.857 9.83789C507.067 9.83789 507.274 9.81966 507.479 9.7832C507.685 9.74219 507.871 9.69434 508.04 9.63965V10.8564C507.862 10.9339 507.632 11 507.35 11.0547C507.067 11.1094 506.773 11.1367 506.468 11.1367C506.039 11.1367 505.654 11.0661 505.312 10.9248C504.971 10.779 504.7 10.5306 504.499 10.1797C504.299 9.82878 504.198 9.34342 504.198 8.72363V4.65625H503.166V3.93848L504.273 3.37109L504.8 1.75098H505.812V3.43262H507.979V4.65625H505.812V8.70312C505.812 9.08594 505.907 9.37077 506.099 9.55762C506.29 9.74447 506.543 9.83789 506.857 9.83789ZM512.593 3.28906C513.267 3.28906 513.846 3.42806 514.329 3.70605C514.812 3.98405 515.184 4.37826 515.443 4.88867C515.703 5.39909 515.833 6.00977 515.833 6.7207V7.58203H510.781C510.799 8.31576 510.995 8.88086 511.369 9.27734C511.747 9.67383 512.276 9.87207 512.955 9.87207C513.438 9.87207 513.871 9.8265 514.254 9.73535C514.641 9.63965 515.04 9.50065 515.45 9.31836V10.624C515.072 10.8018 514.687 10.9316 514.295 11.0137C513.903 11.0957 513.434 11.1367 512.887 11.1367C512.144 11.1367 511.49 10.9932 510.925 10.7061C510.364 10.4144 509.924 9.98145 509.605 9.40723C509.291 8.83301 509.134 8.11979 509.134 7.26758C509.134 6.41992 509.277 5.69987 509.564 5.10742C509.852 4.51497 510.255 4.0638 510.774 3.75391C511.294 3.44401 511.9 3.28906 512.593 3.28906ZM512.593 4.49902C512.087 4.49902 511.677 4.66309 511.362 4.99121C511.052 5.31934 510.87 5.80013 510.815 6.43359H514.261C514.256 6.05534 514.192 5.72038 514.069 5.42871C513.951 5.13704 513.769 4.90918 513.522 4.74512C513.281 4.58105 512.971 4.49902 512.593 4.49902ZM524.255 1.00586C525.116 1.00586 525.827 1.11068 526.388 1.32031C526.953 1.52995 527.372 1.84896 527.646 2.27734C527.924 2.70573 528.062 3.25033 528.062 3.91113C528.062 4.40332 527.971 4.82259 527.789 5.16895C527.607 5.5153 527.368 5.80241 527.071 6.03027C526.775 6.25814 526.458 6.44043 526.121 6.57715L528.958 11H527.105L524.692 6.99414H523.086V11H521.445V1.00586H524.255ZM524.146 2.37305H523.086V5.64062H524.221C524.982 5.64062 525.533 5.49935 525.875 5.2168C526.221 4.93424 526.395 4.51725 526.395 3.96582C526.395 3.38704 526.21 2.97689 525.841 2.73535C525.476 2.49382 524.911 2.37305 524.146 2.37305ZM536.922 7.19922C536.922 7.82812 536.84 8.38639 536.676 8.87402C536.512 9.36165 536.272 9.77409 535.958 10.1113C535.644 10.444 535.265 10.6992 534.823 10.877C534.381 11.0501 533.882 11.1367 533.326 11.1367C532.807 11.1367 532.33 11.0501 531.897 10.877C531.465 10.6992 531.089 10.444 530.77 10.1113C530.455 9.77409 530.211 9.36165 530.038 8.87402C529.865 8.38639 529.778 7.82812 529.778 7.19922C529.778 6.36523 529.922 5.65885 530.209 5.08008C530.501 4.49674 530.915 4.05241 531.453 3.74707C531.991 3.44173 532.631 3.28906 533.374 3.28906C534.071 3.28906 534.687 3.44173 535.22 3.74707C535.753 4.05241 536.17 4.49674 536.471 5.08008C536.771 5.66341 536.922 6.36979 536.922 7.19922ZM531.433 7.19922C531.433 7.75065 531.499 8.22233 531.631 8.61426C531.768 9.00618 531.977 9.30697 532.26 9.5166C532.542 9.72168 532.907 9.82422 533.354 9.82422C533.8 9.82422 534.165 9.72168 534.447 9.5166C534.73 9.30697 534.937 9.00618 535.069 8.61426C535.201 8.22233 535.268 7.75065 535.268 7.19922C535.268 6.64779 535.201 6.18066 535.069 5.79785C534.937 5.41048 534.73 5.11654 534.447 4.91602C534.165 4.71094 533.798 4.6084 533.347 4.6084C532.681 4.6084 532.196 4.83171 531.891 5.27832C531.585 5.72493 531.433 6.36523 531.433 7.19922ZM541.734 3.28906C542.691 3.28906 543.414 3.50098 543.901 3.9248C544.394 4.34863 544.64 5.00944 544.64 5.90723V11H543.498L543.19 9.92676H543.136C542.922 10.2002 542.701 10.4258 542.473 10.6035C542.245 10.7812 541.98 10.9134 541.68 11C541.383 11.0911 541.021 11.1367 540.593 11.1367C540.142 11.1367 539.738 11.0547 539.383 10.8906C539.027 10.722 538.747 10.4668 538.542 10.125C538.337 9.7832 538.234 9.35026 538.234 8.82617C538.234 8.04688 538.524 7.46126 539.103 7.06934C539.686 6.67741 540.565 6.46094 541.741 6.41992L543.054 6.37207V5.97559C543.054 5.4515 542.931 5.0778 542.685 4.85449C542.443 4.63118 542.101 4.51953 541.659 4.51953C541.281 4.51953 540.914 4.57422 540.559 4.68359C540.203 4.79297 539.857 4.92741 539.52 5.08691L539 3.95215C539.369 3.75618 539.788 3.59668 540.258 3.47363C540.732 3.35059 541.224 3.28906 541.734 3.28906ZM543.047 7.38379L542.069 7.41797C541.267 7.44531 540.704 7.58203 540.381 7.82812C540.057 8.07422 539.896 8.41146 539.896 8.83984C539.896 9.21354 540.007 9.48698 540.23 9.66016C540.454 9.82878 540.748 9.91309 541.112 9.91309C541.668 9.91309 542.129 9.75586 542.493 9.44141C542.862 9.1224 543.047 8.65527 543.047 8.04004V7.38379ZM555.44 3.28906C556.288 3.28906 556.926 3.50781 557.354 3.94531C557.787 4.38281 558.004 5.08464 558.004 6.05078V11H556.397V6.33789C556.397 5.76367 556.286 5.33073 556.062 5.03906C555.839 4.7474 555.5 4.60156 555.044 4.60156C554.406 4.60156 553.946 4.80664 553.663 5.2168C553.385 5.6224 553.246 6.21257 553.246 6.9873V11H551.64V6.33789C551.64 5.95508 551.59 5.63607 551.489 5.38086C551.394 5.12109 551.245 4.92741 551.045 4.7998C550.844 4.66764 550.591 4.60156 550.286 4.60156C549.844 4.60156 549.491 4.70182 549.227 4.90234C548.967 5.10286 548.78 5.39909 548.666 5.79102C548.552 6.17839 548.495 6.65462 548.495 7.21973V11H546.889V3.43262H548.14L548.365 4.45117H548.454C548.609 4.18685 548.8 3.97038 549.028 3.80176C549.261 3.62858 549.518 3.50098 549.801 3.41895C550.083 3.33236 550.377 3.28906 550.683 3.28906C551.248 3.28906 551.724 3.38932 552.111 3.58984C552.499 3.78581 552.788 4.08659 552.979 4.49219H553.103C553.34 4.08203 553.67 3.77897 554.094 3.58301C554.518 3.38704 554.966 3.28906 555.44 3.28906ZM561.853 3.43262V11H560.246V3.43262H561.853ZM561.06 0.53418C561.306 0.53418 561.518 0.60026 561.695 0.732422C561.878 0.864583 561.969 1.09245 561.969 1.41602C561.969 1.73503 561.878 1.96289 561.695 2.09961C561.518 2.23177 561.306 2.29785 561.06 2.29785C560.804 2.29785 560.588 2.23177 560.41 2.09961C560.237 1.96289 560.15 1.73503 560.15 1.41602C560.15 1.09245 560.237 0.864583 560.41 0.732422C560.588 0.60026 560.804 0.53418 561.06 0.53418ZM568.101 3.28906C568.953 3.28906 569.616 3.51009 570.09 3.95215C570.568 4.38965 570.808 5.09375 570.808 6.06445V11H569.201V6.36523C569.201 5.77734 569.08 5.33757 568.839 5.0459C568.597 4.74967 568.224 4.60156 567.718 4.60156C566.984 4.60156 566.474 4.82715 566.187 5.27832C565.904 5.72949 565.763 6.38346 565.763 7.24023V11H564.156V3.43262H565.407L565.633 4.45801H565.722C565.886 4.19368 566.089 3.97721 566.33 3.80859C566.576 3.63542 566.85 3.50553 567.15 3.41895C567.456 3.33236 567.772 3.28906 568.101 3.28906ZM575.217 14.3633C574.191 14.3633 573.405 14.1787 572.858 13.8096C572.312 13.4404 572.038 12.9232 572.038 12.2578C572.038 11.793 572.184 11.3988 572.476 11.0752C572.767 10.7562 573.184 10.5352 573.727 10.4121C573.521 10.321 573.344 10.1797 573.193 9.98828C573.048 9.79232 572.975 9.57585 572.975 9.33887C572.975 9.05632 573.054 8.81478 573.214 8.61426C573.373 8.41374 573.613 8.22005 573.932 8.0332C573.535 7.86458 573.216 7.59115 572.975 7.21289C572.738 6.83008 572.619 6.38118 572.619 5.86621C572.619 5.31934 572.735 4.85449 572.968 4.47168C573.2 4.08431 573.54 3.79036 573.986 3.58984C574.433 3.38477 574.973 3.28223 575.606 3.28223C575.743 3.28223 575.891 3.29134 576.051 3.30957C576.215 3.32324 576.365 3.34147 576.502 3.36426C576.643 3.38249 576.75 3.40299 576.823 3.42578H579.441V4.32129L578.156 4.56055C578.279 4.73372 578.377 4.93197 578.45 5.15527C578.523 5.37402 578.56 5.61328 578.56 5.87305C578.56 6.6569 578.288 7.27441 577.746 7.72559C577.208 8.1722 576.465 8.39551 575.518 8.39551C575.29 8.38639 575.069 8.36816 574.854 8.34082C574.69 8.44108 574.565 8.55273 574.479 8.67578C574.392 8.79427 574.349 8.92871 574.349 9.0791C574.349 9.20215 574.392 9.30241 574.479 9.37988C574.565 9.4528 574.693 9.50749 574.861 9.54395C575.035 9.5804 575.244 9.59863 575.49 9.59863H576.796C577.625 9.59863 578.259 9.77409 578.696 10.125C579.134 10.4759 579.353 10.9909 579.353 11.6699C579.353 12.5312 578.997 13.1943 578.286 13.6592C577.575 14.1286 576.552 14.3633 575.217 14.3633ZM575.278 13.2354C575.839 13.2354 576.311 13.1807 576.693 13.0713C577.076 12.9619 577.366 12.8047 577.562 12.5996C577.757 12.3991 577.855 12.1598 577.855 11.8818C577.855 11.6357 577.794 11.4466 577.671 11.3145C577.548 11.1823 577.363 11.0911 577.117 11.041C576.871 10.9909 576.566 10.9658 576.201 10.9658H575.012C574.715 10.9658 574.453 11.0114 574.226 11.1025C573.998 11.1982 573.82 11.335 573.692 11.5127C573.569 11.6904 573.508 11.9046 573.508 12.1553C573.508 12.5016 573.66 12.7682 573.966 12.9551C574.276 13.1419 574.713 13.2354 575.278 13.2354ZM575.593 7.34277C576.062 7.34277 576.411 7.21517 576.639 6.95996C576.867 6.7002 576.98 6.33561 576.98 5.86621C576.98 5.35579 576.862 4.97298 576.625 4.71777C576.393 4.46257 576.046 4.33496 575.586 4.33496C575.135 4.33496 574.791 4.46484 574.554 4.72461C574.321 4.98438 574.205 5.36947 574.205 5.87988C574.205 6.34017 574.321 6.7002 574.554 6.95996C574.791 7.21517 575.137 7.34277 575.593 7.34277ZM588.882 2.25684C588.403 2.25684 587.975 2.34342 587.597 2.5166C587.223 2.68978 586.906 2.94043 586.646 3.26855C586.387 3.59212 586.188 3.98633 586.052 4.45117C585.915 4.91146 585.847 5.43099 585.847 6.00977C585.847 6.78451 585.956 7.45215 586.175 8.0127C586.394 8.56868 586.726 8.99707 587.173 9.29785C587.619 9.59408 588.185 9.74219 588.868 9.74219C589.292 9.74219 589.704 9.70117 590.105 9.61914C590.507 9.53711 590.921 9.42546 591.35 9.28418V10.6787C590.944 10.8382 590.534 10.9544 590.119 11.0273C589.704 11.1003 589.226 11.1367 588.684 11.1367C587.663 11.1367 586.815 10.9248 586.141 10.501C585.471 10.0771 584.969 9.48014 584.637 8.70996C584.309 7.93978 584.145 7.03743 584.145 6.00293C584.145 5.24642 584.249 4.55371 584.459 3.9248C584.669 3.2959 584.974 2.75358 585.375 2.29785C585.776 1.83757 586.271 1.48438 586.858 1.23828C587.451 0.98763 588.128 0.862305 588.889 0.862305C589.39 0.862305 589.882 0.919271 590.365 1.0332C590.853 1.14258 591.304 1.2998 591.719 1.50488L591.145 2.8584C590.798 2.69434 590.436 2.55306 590.058 2.43457C589.679 2.31608 589.287 2.25684 588.882 2.25684ZM594.938 0.363281V3.03613C594.938 3.31413 594.929 3.58529 594.911 3.84961C594.897 4.11393 594.882 4.31901 594.863 4.46484H594.952C595.112 4.20052 595.308 3.98405 595.54 3.81543C595.772 3.64225 596.032 3.51237 596.319 3.42578C596.611 3.33919 596.921 3.2959 597.249 3.2959C597.828 3.2959 598.32 3.39388 598.726 3.58984C599.131 3.78125 599.441 4.07975 599.655 4.48535C599.874 4.89095 599.983 5.41732 599.983 6.06445V11H598.377V6.36523C598.377 5.77734 598.256 5.33757 598.015 5.0459C597.773 4.74967 597.399 4.60156 596.894 4.60156C596.406 4.60156 596.019 4.7041 595.731 4.90918C595.449 5.1097 595.246 5.4082 595.123 5.80469C595 6.19661 594.938 6.67513 594.938 7.24023V11H593.332V0.363281H594.938ZM605.199 3.28906C606.156 3.28906 606.879 3.50098 607.366 3.9248C607.858 4.34863 608.104 5.00944 608.104 5.90723V11H606.963L606.655 9.92676H606.601C606.386 10.2002 606.165 10.4258 605.938 10.6035C605.71 10.7812 605.445 10.9134 605.145 11C604.848 11.0911 604.486 11.1367 604.058 11.1367C603.606 11.1367 603.203 11.0547 602.848 10.8906C602.492 10.722 602.212 10.4668 602.007 10.125C601.802 9.7832 601.699 9.35026 601.699 8.82617C601.699 8.04688 601.989 7.46126 602.567 7.06934C603.151 6.67741 604.03 6.46094 605.206 6.41992L606.519 6.37207V5.97559C606.519 5.4515 606.396 5.0778 606.149 4.85449C605.908 4.63118 605.566 4.51953 605.124 4.51953C604.746 4.51953 604.379 4.57422 604.023 4.68359C603.668 4.79297 603.322 4.92741 602.984 5.08691L602.465 3.95215C602.834 3.75618 603.253 3.59668 603.723 3.47363C604.197 3.35059 604.689 3.28906 605.199 3.28906ZM606.512 7.38379L605.534 7.41797C604.732 7.44531 604.169 7.58203 603.846 7.82812C603.522 8.07422 603.36 8.41146 603.36 8.83984C603.36 9.21354 603.472 9.48698 603.695 9.66016C603.919 9.82878 604.213 9.91309 604.577 9.91309C605.133 9.91309 605.593 9.75586 605.958 9.44141C606.327 9.1224 606.512 8.65527 606.512 8.04004V7.38379ZM614.188 3.28906C614.316 3.28906 614.455 3.2959 614.605 3.30957C614.756 3.32324 614.886 3.34147 614.995 3.36426L614.845 4.86816C614.749 4.84082 614.631 4.82031 614.489 4.80664C614.353 4.79297 614.229 4.78613 614.12 4.78613C613.833 4.78613 613.56 4.83398 613.3 4.92969C613.04 5.02083 612.81 5.16211 612.609 5.35352C612.409 5.54036 612.252 5.77507 612.138 6.05762C612.024 6.34017 611.967 6.66829 611.967 7.04199V11H610.354V3.43262H611.611L611.83 4.76562H611.905C612.056 4.49674 612.243 4.25065 612.466 4.02734C612.689 3.80404 612.944 3.6263 613.231 3.49414C613.523 3.35742 613.842 3.28906 614.188 3.28906ZM618.557 14.3633C617.531 14.3633 616.745 14.1787 616.198 13.8096C615.651 13.4404 615.378 12.9232 615.378 12.2578C615.378 11.793 615.524 11.3988 615.815 11.0752C616.107 10.7562 616.524 10.5352 617.066 10.4121C616.861 10.321 616.684 10.1797 616.533 9.98828C616.387 9.79232 616.314 9.57585 616.314 9.33887C616.314 9.05632 616.394 8.81478 616.554 8.61426C616.713 8.41374 616.952 8.22005 617.271 8.0332C616.875 7.86458 616.556 7.59115 616.314 7.21289C616.077 6.83008 615.959 6.38118 615.959 5.86621C615.959 5.31934 616.075 4.85449 616.308 4.47168C616.54 4.08431 616.88 3.79036 617.326 3.58984C617.773 3.38477 618.313 3.28223 618.946 3.28223C619.083 3.28223 619.231 3.29134 619.391 3.30957C619.555 3.32324 619.705 3.34147 619.842 3.36426C619.983 3.38249 620.09 3.40299 620.163 3.42578H622.781V4.32129L621.496 4.56055C621.619 4.73372 621.717 4.93197 621.79 5.15527C621.863 5.37402 621.899 5.61328 621.899 5.87305C621.899 6.6569 621.628 7.27441 621.086 7.72559C620.548 8.1722 619.805 8.39551 618.857 8.39551C618.63 8.38639 618.409 8.36816 618.194 8.34082C618.03 8.44108 617.905 8.55273 617.818 8.67578C617.732 8.79427 617.688 8.92871 617.688 9.0791C617.688 9.20215 617.732 9.30241 617.818 9.37988C617.905 9.4528 618.033 9.50749 618.201 9.54395C618.374 9.5804 618.584 9.59863 618.83 9.59863H620.136C620.965 9.59863 621.599 9.77409 622.036 10.125C622.474 10.4759 622.692 10.9909 622.692 11.6699C622.692 12.5312 622.337 13.1943 621.626 13.6592C620.915 14.1286 619.892 14.3633 618.557 14.3633ZM618.618 13.2354C619.179 13.2354 619.65 13.1807 620.033 13.0713C620.416 12.9619 620.705 12.8047 620.901 12.5996C621.097 12.3991 621.195 12.1598 621.195 11.8818C621.195 11.6357 621.134 11.4466 621.011 11.3145C620.888 11.1823 620.703 11.0911 620.457 11.041C620.211 10.9909 619.906 10.9658 619.541 10.9658H618.352C618.055 10.9658 617.793 11.0114 617.565 11.1025C617.338 11.1982 617.16 11.335 617.032 11.5127C616.909 11.6904 616.848 11.9046 616.848 12.1553C616.848 12.5016 617 12.7682 617.306 12.9551C617.616 13.1419 618.053 13.2354 618.618 13.2354ZM618.933 7.34277C619.402 7.34277 619.751 7.21517 619.979 6.95996C620.206 6.7002 620.32 6.33561 620.32 5.86621C620.32 5.35579 620.202 4.97298 619.965 4.71777C619.732 4.46257 619.386 4.33496 618.926 4.33496C618.475 4.33496 618.131 4.46484 617.894 4.72461C617.661 4.98438 617.545 5.36947 617.545 5.87988C617.545 6.34017 617.661 6.7002 617.894 6.95996C618.131 7.21517 618.477 7.34277 618.933 7.34277ZM627.177 3.28906C627.851 3.28906 628.43 3.42806 628.913 3.70605C629.396 3.98405 629.768 4.37826 630.027 4.88867C630.287 5.39909 630.417 6.00977 630.417 6.7207V7.58203H625.365C625.383 8.31576 625.579 8.88086 625.953 9.27734C626.331 9.67383 626.86 9.87207 627.539 9.87207C628.022 9.87207 628.455 9.8265 628.838 9.73535C629.225 9.63965 629.624 9.50065 630.034 9.31836V10.624C629.656 10.8018 629.271 10.9316 628.879 11.0137C628.487 11.0957 628.018 11.1367 627.471 11.1367C626.728 11.1367 626.074 10.9932 625.509 10.7061C624.948 10.4144 624.508 9.98145 624.189 9.40723C623.875 8.83301 623.718 8.11979 623.718 7.26758C623.718 6.41992 623.861 5.69987 624.148 5.10742C624.436 4.51497 624.839 4.0638 625.358 3.75391C625.878 3.44401 626.484 3.28906 627.177 3.28906ZM627.177 4.49902C626.671 4.49902 626.261 4.66309 625.946 4.99121C625.636 5.31934 625.454 5.80013 625.399 6.43359H628.845C628.84 6.05534 628.776 5.72038 628.653 5.42871C628.535 5.13704 628.353 4.90918 628.106 4.74512C627.865 4.58105 627.555 4.49902 627.177 4.49902ZM637.314 8.83984C637.314 9.33659 637.194 9.75586 636.952 10.0977C636.711 10.4395 636.357 10.6992 635.893 10.877C635.432 11.0501 634.867 11.1367 634.197 11.1367C633.669 11.1367 633.213 11.098 632.83 11.0205C632.452 10.9476 632.094 10.8337 631.757 10.6787V9.29102C632.117 9.45964 632.52 9.60547 632.967 9.72852C633.418 9.85156 633.844 9.91309 634.245 9.91309C634.774 9.91309 635.154 9.83105 635.387 9.66699C635.619 9.49837 635.735 9.27507 635.735 8.99707C635.735 8.83301 635.688 8.68717 635.592 8.55957C635.501 8.42741 635.327 8.29297 635.072 8.15625C634.822 8.01497 634.452 7.84635 633.965 7.65039C633.486 7.45898 633.083 7.26758 632.755 7.07617C632.427 6.88477 632.178 6.65462 632.01 6.38574C631.841 6.1123 631.757 5.76367 631.757 5.33984C631.757 4.66992 632.021 4.16178 632.55 3.81543C633.083 3.46452 633.787 3.28906 634.662 3.28906C635.127 3.28906 635.564 3.33691 635.975 3.43262C636.389 3.52376 636.795 3.6582 637.191 3.83594L636.686 5.0459C636.344 4.89551 636 4.77246 635.653 4.67676C635.312 4.5765 634.963 4.52637 634.607 4.52637C634.193 4.52637 633.876 4.59017 633.657 4.71777C633.443 4.84538 633.336 5.02767 633.336 5.26465C633.336 5.44238 633.388 5.59277 633.493 5.71582C633.598 5.83887 633.778 5.96191 634.033 6.08496C634.293 6.20801 634.653 6.36068 635.113 6.54297C635.564 6.71615 635.954 6.89844 636.282 7.08984C636.615 7.27669 636.87 7.50684 637.048 7.78027C637.226 8.05371 637.314 8.4069 637.314 8.83984ZM649.387 7.19922C649.387 7.82812 649.305 8.38639 649.141 8.87402C648.977 9.36165 648.737 9.77409 648.423 10.1113C648.108 10.444 647.73 10.6992 647.288 10.877C646.846 11.0501 646.347 11.1367 645.791 11.1367C645.271 11.1367 644.795 11.0501 644.362 10.877C643.929 10.6992 643.553 10.444 643.234 10.1113C642.92 9.77409 642.676 9.36165 642.503 8.87402C642.33 8.38639 642.243 7.82812 642.243 7.19922C642.243 6.36523 642.387 5.65885 642.674 5.08008C642.965 4.49674 643.38 4.05241 643.918 3.74707C644.456 3.44173 645.096 3.28906 645.839 3.28906C646.536 3.28906 647.151 3.44173 647.685 3.74707C648.218 4.05241 648.635 4.49674 648.936 5.08008C649.236 5.66341 649.387 6.36979 649.387 7.19922ZM643.897 7.19922C643.897 7.75065 643.964 8.22233 644.096 8.61426C644.232 9.00618 644.442 9.30697 644.725 9.5166C645.007 9.72168 645.372 9.82422 645.818 9.82422C646.265 9.82422 646.63 9.72168 646.912 9.5166C647.195 9.30697 647.402 9.00618 647.534 8.61426C647.666 8.22233 647.732 7.75065 647.732 7.19922C647.732 6.64779 647.666 6.18066 647.534 5.79785C647.402 5.41048 647.195 5.11654 646.912 4.91602C646.63 4.71094 646.263 4.6084 645.812 4.6084C645.146 4.6084 644.661 4.83171 644.355 5.27832C644.05 5.72493 643.897 6.36523 643.897 7.19922ZM655.177 3.28906C656.029 3.28906 656.692 3.51009 657.166 3.95215C657.645 4.38965 657.884 5.09375 657.884 6.06445V11H656.277V6.36523C656.277 5.77734 656.157 5.33757 655.915 5.0459C655.674 4.74967 655.3 4.60156 654.794 4.60156C654.06 4.60156 653.55 4.82715 653.263 5.27832C652.98 5.72949 652.839 6.38346 652.839 7.24023V11H651.232V3.43262H652.483L652.709 4.45801H652.798C652.962 4.19368 653.165 3.97721 653.406 3.80859C653.652 3.63542 653.926 3.50553 654.227 3.41895C654.532 3.33236 654.849 3.28906 655.177 3.28906ZM666.736 3.28906C667.693 3.28906 668.416 3.50098 668.903 3.9248C669.396 4.34863 669.642 5.00944 669.642 5.90723V11H668.5L668.192 9.92676H668.138C667.924 10.2002 667.702 10.4258 667.475 10.6035C667.247 10.7812 666.982 10.9134 666.682 11C666.385 11.0911 666.023 11.1367 665.595 11.1367C665.144 11.1367 664.74 11.0547 664.385 10.8906C664.029 10.722 663.749 10.4668 663.544 10.125C663.339 9.7832 663.236 9.35026 663.236 8.82617C663.236 8.04688 663.526 7.46126 664.104 7.06934C664.688 6.67741 665.567 6.46094 666.743 6.41992L668.056 6.37207V5.97559C668.056 5.4515 667.933 5.0778 667.687 4.85449C667.445 4.63118 667.103 4.51953 666.661 4.51953C666.283 4.51953 665.916 4.57422 665.561 4.68359C665.205 4.79297 664.859 4.92741 664.521 5.08691L664.002 3.95215C664.371 3.75618 664.79 3.59668 665.26 3.47363C665.734 3.35059 666.226 3.28906 666.736 3.28906ZM668.049 7.38379L667.071 7.41797C666.269 7.44531 665.706 7.58203 665.383 7.82812C665.059 8.07422 664.897 8.41146 664.897 8.83984C664.897 9.21354 665.009 9.48698 665.232 9.66016C665.456 9.82878 665.75 9.91309 666.114 9.91309C666.67 9.91309 667.131 9.75586 667.495 9.44141C667.864 9.1224 668.049 8.65527 668.049 8.04004V7.38379ZM673.504 11H671.891V0.363281H673.504V11ZM677.414 11H675.801V0.363281H677.414V11ZM687.183 3.28906C687.31 3.28906 687.449 3.2959 687.6 3.30957C687.75 3.32324 687.88 3.34147 687.989 3.36426L687.839 4.86816C687.743 4.84082 687.625 4.82031 687.483 4.80664C687.347 4.79297 687.224 4.78613 687.114 4.78613C686.827 4.78613 686.554 4.83398 686.294 4.92969C686.034 5.02083 685.804 5.16211 685.604 5.35352C685.403 5.54036 685.246 5.77507 685.132 6.05762C685.018 6.34017 684.961 6.66829 684.961 7.04199V11H683.348V3.43262H684.605L684.824 4.76562H684.899C685.05 4.49674 685.237 4.25065 685.46 4.02734C685.683 3.80404 685.938 3.6263 686.226 3.49414C686.517 3.35742 686.836 3.28906 687.183 3.28906ZM696.09 7.19922C696.09 7.82812 696.008 8.38639 695.844 8.87402C695.68 9.36165 695.44 9.77409 695.126 10.1113C694.812 10.444 694.433 10.6992 693.991 10.877C693.549 11.0501 693.05 11.1367 692.494 11.1367C691.975 11.1367 691.498 11.0501 691.065 10.877C690.632 10.6992 690.257 10.444 689.938 10.1113C689.623 9.77409 689.379 9.36165 689.206 8.87402C689.033 8.38639 688.946 7.82812 688.946 7.19922C688.946 6.36523 689.09 5.65885 689.377 5.08008C689.669 4.49674 690.083 4.05241 690.621 3.74707C691.159 3.44173 691.799 3.28906 692.542 3.28906C693.239 3.28906 693.854 3.44173 694.388 3.74707C694.921 4.05241 695.338 4.49674 695.639 5.08008C695.939 5.66341 696.09 6.36979 696.09 7.19922ZM690.601 7.19922C690.601 7.75065 690.667 8.22233 690.799 8.61426C690.936 9.00618 691.145 9.30697 691.428 9.5166C691.71 9.72168 692.075 9.82422 692.521 9.82422C692.968 9.82422 693.333 9.72168 693.615 9.5166C693.898 9.30697 694.105 9.00618 694.237 8.61426C694.369 8.22233 694.436 7.75065 694.436 7.19922C694.436 6.64779 694.369 6.18066 694.237 5.79785C694.105 5.41048 693.898 5.11654 693.615 4.91602C693.333 4.71094 692.966 4.6084 692.515 4.6084C691.849 4.6084 691.364 4.83171 691.059 5.27832C690.753 5.72493 690.601 6.36523 690.601 7.19922ZM700.902 3.28906C701.859 3.28906 702.582 3.50098 703.069 3.9248C703.562 4.34863 703.808 5.00944 703.808 5.90723V11H702.666L702.358 9.92676H702.304C702.09 10.2002 701.868 10.4258 701.641 10.6035C701.413 10.7812 701.148 10.9134 700.848 11C700.551 11.0911 700.189 11.1367 699.761 11.1367C699.31 11.1367 698.906 11.0547 698.551 10.8906C698.195 10.722 697.915 10.4668 697.71 10.125C697.505 9.7832 697.402 9.35026 697.402 8.82617C697.402 8.04688 697.692 7.46126 698.271 7.06934C698.854 6.67741 699.733 6.46094 700.909 6.41992L702.222 6.37207V5.97559C702.222 5.4515 702.099 5.0778 701.853 4.85449C701.611 4.63118 701.269 4.51953 700.827 4.51953C700.449 4.51953 700.082 4.57422 699.727 4.68359C699.371 4.79297 699.025 4.92741 698.688 5.08691L698.168 3.95215C698.537 3.75618 698.956 3.59668 699.426 3.47363C699.9 3.35059 700.392 3.28906 700.902 3.28906ZM702.215 7.38379L701.237 7.41797C700.435 7.44531 699.872 7.58203 699.549 7.82812C699.225 8.07422 699.063 8.41146 699.063 8.83984C699.063 9.21354 699.175 9.48698 699.398 9.66016C699.622 9.82878 699.916 9.91309 700.28 9.91309C700.836 9.91309 701.297 9.75586 701.661 9.44141C702.03 9.1224 702.215 8.65527 702.215 8.04004V7.38379ZM714.608 3.28906C715.456 3.28906 716.094 3.50781 716.522 3.94531C716.955 4.38281 717.172 5.08464 717.172 6.05078V11H715.565V6.33789C715.565 5.76367 715.454 5.33073 715.23 5.03906C715.007 4.7474 714.668 4.60156 714.212 4.60156C713.574 4.60156 713.114 4.80664 712.831 5.2168C712.553 5.6224 712.414 6.21257 712.414 6.9873V11H710.808V6.33789C710.808 5.95508 710.757 5.63607 710.657 5.38086C710.562 5.12109 710.413 4.92741 710.213 4.7998C710.012 4.66764 709.759 4.60156 709.454 4.60156C709.012 4.60156 708.659 4.70182 708.395 4.90234C708.135 5.10286 707.948 5.39909 707.834 5.79102C707.72 6.17839 707.663 6.65462 707.663 7.21973V11H706.057V3.43262H707.308L707.533 4.45117H707.622C707.777 4.18685 707.968 3.97038 708.196 3.80176C708.429 3.62858 708.686 3.50098 708.969 3.41895C709.251 3.33236 709.545 3.28906 709.851 3.28906C710.416 3.28906 710.892 3.38932 711.279 3.58984C711.667 3.78581 711.956 4.08659 712.147 4.49219H712.271C712.507 4.08203 712.838 3.77897 713.262 3.58301C713.686 3.38704 714.134 3.28906 714.608 3.28906ZM721.021 3.43262V11H719.414V3.43262H721.021ZM720.228 0.53418C720.474 0.53418 720.686 0.60026 720.863 0.732422C721.046 0.864583 721.137 1.09245 721.137 1.41602C721.137 1.73503 721.046 1.96289 720.863 2.09961C720.686 2.23177 720.474 2.29785 720.228 2.29785C719.972 2.29785 719.756 2.23177 719.578 2.09961C719.405 1.96289 719.318 1.73503 719.318 1.41602C719.318 1.09245 719.405 0.864583 719.578 0.732422C719.756 0.60026 719.972 0.53418 720.228 0.53418ZM727.269 3.28906C728.121 3.28906 728.784 3.51009 729.258 3.95215C729.736 4.38965 729.976 5.09375 729.976 6.06445V11H728.369V6.36523C728.369 5.77734 728.248 5.33757 728.007 5.0459C727.765 4.74967 727.392 4.60156 726.886 4.60156C726.152 4.60156 725.642 4.82715 725.354 5.27832C725.072 5.72949 724.931 6.38346 724.931 7.24023V11H723.324V3.43262H724.575L724.801 4.45801H724.89C725.054 4.19368 725.257 3.97721 725.498 3.80859C725.744 3.63542 726.018 3.50553 726.318 3.41895C726.624 3.33236 726.94 3.28906 727.269 3.28906ZM734.385 14.3633C733.359 14.3633 732.573 14.1787 732.026 13.8096C731.479 13.4404 731.206 12.9232 731.206 12.2578C731.206 11.793 731.352 11.3988 731.644 11.0752C731.935 10.7562 732.352 10.5352 732.895 10.4121C732.689 10.321 732.512 10.1797 732.361 9.98828C732.215 9.79232 732.143 9.57585 732.143 9.33887C732.143 9.05632 732.222 8.81478 732.382 8.61426C732.541 8.41374 732.781 8.22005 733.1 8.0332C732.703 7.86458 732.384 7.59115 732.143 7.21289C731.906 6.83008 731.787 6.38118 731.787 5.86621C731.787 5.31934 731.903 4.85449 732.136 4.47168C732.368 4.08431 732.708 3.79036 733.154 3.58984C733.601 3.38477 734.141 3.28223 734.774 3.28223C734.911 3.28223 735.059 3.29134 735.219 3.30957C735.383 3.32324 735.533 3.34147 735.67 3.36426C735.811 3.38249 735.918 3.40299 735.991 3.42578H738.609V4.32129L737.324 4.56055C737.447 4.73372 737.545 4.93197 737.618 5.15527C737.691 5.37402 737.728 5.61328 737.728 5.87305C737.728 6.6569 737.456 7.27441 736.914 7.72559C736.376 8.1722 735.633 8.39551 734.686 8.39551C734.458 8.38639 734.237 8.36816 734.022 8.34082C733.858 8.44108 733.733 8.55273 733.646 8.67578C733.56 8.79427 733.517 8.92871 733.517 9.0791C733.517 9.20215 733.56 9.30241 733.646 9.37988C733.733 9.4528 733.861 9.50749 734.029 9.54395C734.202 9.5804 734.412 9.59863 734.658 9.59863H735.964C736.793 9.59863 737.427 9.77409 737.864 10.125C738.302 10.4759 738.521 10.9909 738.521 11.6699C738.521 12.5312 738.165 13.1943 737.454 13.6592C736.743 14.1286 735.72 14.3633 734.385 14.3633ZM734.446 13.2354C735.007 13.2354 735.479 13.1807 735.861 13.0713C736.244 12.9619 736.534 12.8047 736.729 12.5996C736.925 12.3991 737.023 12.1598 737.023 11.8818C737.023 11.6357 736.962 11.4466 736.839 11.3145C736.716 11.1823 736.531 11.0911 736.285 11.041C736.039 10.9909 735.734 10.9658 735.369 10.9658H734.18C733.883 10.9658 733.621 11.0114 733.394 11.1025C733.166 11.1982 732.988 11.335 732.86 11.5127C732.737 11.6904 732.676 11.9046 732.676 12.1553C732.676 12.5016 732.828 12.7682 733.134 12.9551C733.444 13.1419 733.881 13.2354 734.446 13.2354ZM734.761 7.34277C735.23 7.34277 735.579 7.21517 735.807 6.95996C736.035 6.7002 736.148 6.33561 736.148 5.86621C736.148 5.35579 736.03 4.97298 735.793 4.71777C735.561 4.46257 735.214 4.33496 734.754 4.33496C734.303 4.33496 733.959 4.46484 733.722 4.72461C733.489 4.98438 733.373 5.36947 733.373 5.87988C733.373 6.34017 733.489 6.7002 733.722 6.95996C733.959 7.21517 734.305 7.34277 734.761 7.34277ZM748.713 8.83984C748.713 9.33659 748.592 9.75586 748.351 10.0977C748.109 10.4395 747.756 10.6992 747.291 10.877C746.831 11.0501 746.266 11.1367 745.596 11.1367C745.067 11.1367 744.611 11.098 744.229 11.0205C743.85 10.9476 743.493 10.8337 743.155 10.6787V9.29102C743.515 9.45964 743.919 9.60547 744.365 9.72852C744.816 9.85156 745.243 9.91309 745.644 9.91309C746.172 9.91309 746.553 9.83105 746.785 9.66699C747.018 9.49837 747.134 9.27507 747.134 8.99707C747.134 8.83301 747.086 8.68717 746.99 8.55957C746.899 8.42741 746.726 8.29297 746.471 8.15625C746.22 8.01497 745.851 7.84635 745.363 7.65039C744.885 7.45898 744.481 7.26758 744.153 7.07617C743.825 6.88477 743.577 6.65462 743.408 6.38574C743.24 6.1123 743.155 5.76367 743.155 5.33984C743.155 4.66992 743.42 4.16178 743.948 3.81543C744.481 3.46452 745.186 3.28906 746.061 3.28906C746.525 3.28906 746.963 3.33691 747.373 3.43262C747.788 3.52376 748.193 3.6582 748.59 3.83594L748.084 5.0459C747.742 4.89551 747.398 4.77246 747.052 4.67676C746.71 4.5765 746.361 4.52637 746.006 4.52637C745.591 4.52637 745.274 4.59017 745.056 4.71777C744.841 4.84538 744.734 5.02767 744.734 5.26465C744.734 5.44238 744.787 5.59277 744.892 5.71582C744.996 5.83887 745.176 5.96191 745.432 6.08496C745.691 6.20801 746.051 6.36068 746.512 6.54297C746.963 6.71615 747.353 6.89844 747.681 7.08984C748.013 7.27669 748.269 7.50684 748.446 7.78027C748.624 8.05371 748.713 8.4069 748.713 8.83984ZM757.046 3.43262V11H755.781L755.562 9.98145H755.474C755.314 10.2412 755.111 10.4577 754.865 10.6309C754.619 10.7995 754.346 10.9248 754.045 11.0068C753.744 11.0934 753.427 11.1367 753.095 11.1367C752.525 11.1367 752.037 11.041 751.632 10.8496C751.231 10.6536 750.923 10.3529 750.709 9.94727C750.495 9.54167 750.388 9.01758 750.388 8.375V3.43262H752.001V8.07422C752.001 8.66211 752.119 9.10189 752.356 9.39355C752.598 9.68522 752.972 9.83105 753.478 9.83105C753.965 9.83105 754.353 9.73079 754.64 9.53027C754.927 9.32975 755.13 9.03353 755.248 8.6416C755.371 8.24967 755.433 7.76888 755.433 7.19922V3.43262H757.046ZM760.956 0.363281V2.92676C760.956 3.22298 760.947 3.51465 760.929 3.80176C760.915 4.08431 760.901 4.30534 760.888 4.46484H760.956C761.161 4.13672 761.446 3.861 761.811 3.6377C762.18 3.40983 762.651 3.2959 763.226 3.2959C764.123 3.2959 764.846 3.6263 765.393 4.28711C765.939 4.94336 766.213 5.91634 766.213 7.20605C766.213 8.06283 766.088 8.78288 765.837 9.36621C765.586 9.94954 765.233 10.3916 764.777 10.6924C764.326 10.9886 763.795 11.1367 763.185 11.1367C762.61 11.1367 762.146 11.0319 761.79 10.8223C761.439 10.6081 761.163 10.3597 760.963 10.0771H760.847L760.553 11H759.35V0.363281H760.956ZM762.802 4.60156C762.346 4.60156 761.984 4.69271 761.715 4.875C761.451 5.05729 761.259 5.33073 761.141 5.69531C761.022 6.05534 760.961 6.51335 760.956 7.06934V7.21289C760.956 8.05599 761.088 8.70085 761.353 9.14746C761.621 9.59408 762.109 9.81738 762.815 9.81738C763.376 9.81738 763.807 9.5918 764.107 9.14062C764.408 8.6849 764.559 8.0332 764.559 7.18555C764.559 6.32878 764.408 5.68392 764.107 5.25098C763.811 4.81803 763.376 4.60156 762.802 4.60156ZM773.158 8.83984C773.158 9.33659 773.037 9.75586 772.796 10.0977C772.554 10.4395 772.201 10.6992 771.736 10.877C771.276 11.0501 770.711 11.1367 770.041 11.1367C769.512 11.1367 769.057 11.098 768.674 11.0205C768.296 10.9476 767.938 10.8337 767.601 10.6787V9.29102C767.961 9.45964 768.364 9.60547 768.811 9.72852C769.262 9.85156 769.688 9.91309 770.089 9.91309C770.618 9.91309 770.998 9.83105 771.23 9.66699C771.463 9.49837 771.579 9.27507 771.579 8.99707C771.579 8.83301 771.531 8.68717 771.436 8.55957C771.344 8.42741 771.171 8.29297 770.916 8.15625C770.665 8.01497 770.296 7.84635 769.809 7.65039C769.33 7.45898 768.927 7.26758 768.599 7.07617C768.271 6.88477 768.022 6.65462 767.854 6.38574C767.685 6.1123 767.601 5.76367 767.601 5.33984C767.601 4.66992 767.865 4.16178 768.394 3.81543C768.927 3.46452 769.631 3.28906 770.506 3.28906C770.971 3.28906 771.408 3.33691 771.818 3.43262C772.233 3.52376 772.639 3.6582 773.035 3.83594L772.529 5.0459C772.188 4.89551 771.843 4.77246 771.497 4.67676C771.155 4.5765 770.807 4.52637 770.451 4.52637C770.036 4.52637 769.72 4.59017 769.501 4.71777C769.287 4.84538 769.18 5.02767 769.18 5.26465C769.18 5.44238 769.232 5.59277 769.337 5.71582C769.442 5.83887 769.622 5.96191 769.877 6.08496C770.137 6.20801 770.497 6.36068 770.957 6.54297C771.408 6.71615 771.798 6.89844 772.126 7.08984C772.459 7.27669 772.714 7.50684 772.892 7.78027C773.069 8.05371 773.158 8.4069 773.158 8.83984ZM777.943 11.1367C777.228 11.1367 776.608 10.9977 776.084 10.7197C775.56 10.4417 775.157 10.0156 774.874 9.44141C774.591 8.86719 774.45 8.13802 774.45 7.25391C774.45 6.33333 774.605 5.58138 774.915 4.99805C775.225 4.41471 775.653 3.98405 776.2 3.70605C776.752 3.42806 777.383 3.28906 778.094 3.28906C778.545 3.28906 778.953 3.33464 779.317 3.42578C779.687 3.51237 779.999 3.61947 780.254 3.74707L779.775 5.03223C779.497 4.91829 779.213 4.82259 778.921 4.74512C778.629 4.66764 778.349 4.62891 778.08 4.62891C777.638 4.62891 777.269 4.72689 776.973 4.92285C776.681 5.11882 776.462 5.41048 776.316 5.79785C776.175 6.18522 776.104 6.66602 776.104 7.24023C776.104 7.79622 776.177 8.26562 776.323 8.64844C776.469 9.02669 776.686 9.3138 776.973 9.50977C777.26 9.70117 777.613 9.79688 778.032 9.79688C778.447 9.79688 778.818 9.74674 779.146 9.64648C779.475 9.54622 779.785 9.41634 780.076 9.25684V10.6514C779.789 10.8154 779.481 10.9362 779.153 11.0137C778.825 11.0957 778.422 11.1367 777.943 11.1367ZM785.688 3.28906C785.816 3.28906 785.955 3.2959 786.105 3.30957C786.256 3.32324 786.386 3.34147 786.495 3.36426L786.345 4.86816C786.249 4.84082 786.131 4.82031 785.989 4.80664C785.853 4.79297 785.729 4.78613 785.62 4.78613C785.333 4.78613 785.06 4.83398 784.8 4.92969C784.54 5.02083 784.31 5.16211 784.109 5.35352C783.909 5.54036 783.752 5.77507 783.638 6.05762C783.524 6.34017 783.467 6.66829 783.467 7.04199V11H781.854V3.43262H783.111L783.33 4.76562H783.405C783.556 4.49674 783.743 4.25065 783.966 4.02734C784.189 3.80404 784.444 3.6263 784.731 3.49414C785.023 3.35742 785.342 3.28906 785.688 3.28906ZM789.503 3.43262V11H787.896V3.43262H789.503ZM788.71 0.53418C788.956 0.53418 789.168 0.60026 789.346 0.732422C789.528 0.864583 789.619 1.09245 789.619 1.41602C789.619 1.73503 789.528 1.96289 789.346 2.09961C789.168 2.23177 788.956 2.29785 788.71 2.29785C788.455 2.29785 788.238 2.23177 788.061 2.09961C787.887 1.96289 787.801 1.73503 787.801 1.41602C787.801 1.09245 787.887 0.864583 788.061 0.732422C788.238 0.60026 788.455 0.53418 788.71 0.53418ZM793.413 0.363281V2.92676C793.413 3.22298 793.404 3.51465 793.386 3.80176C793.372 4.08431 793.358 4.30534 793.345 4.46484H793.413C793.618 4.13672 793.903 3.861 794.268 3.6377C794.637 3.40983 795.108 3.2959 795.683 3.2959C796.58 3.2959 797.303 3.6263 797.85 4.28711C798.396 4.94336 798.67 5.91634 798.67 7.20605C798.67 8.06283 798.545 8.78288 798.294 9.36621C798.043 9.94954 797.69 10.3916 797.234 10.6924C796.783 10.9886 796.252 11.1367 795.642 11.1367C795.067 11.1367 794.603 11.0319 794.247 10.8223C793.896 10.6081 793.62 10.3597 793.42 10.0771H793.304L793.01 11H791.807V0.363281H793.413ZM795.259 4.60156C794.803 4.60156 794.441 4.69271 794.172 4.875C793.908 5.05729 793.716 5.33073 793.598 5.69531C793.479 6.05534 793.418 6.51335 793.413 7.06934V7.21289C793.413 8.05599 793.545 8.70085 793.81 9.14746C794.078 9.59408 794.566 9.81738 795.272 9.81738C795.833 9.81738 796.264 9.5918 796.564 9.14062C796.865 8.6849 797.016 8.0332 797.016 7.18555C797.016 6.32878 796.865 5.68392 796.564 5.25098C796.268 4.81803 795.833 4.60156 795.259 4.60156ZM803.544 3.28906C804.218 3.28906 804.797 3.42806 805.28 3.70605C805.763 3.98405 806.135 4.37826 806.395 4.88867C806.654 5.39909 806.784 6.00977 806.784 6.7207V7.58203H801.732C801.751 8.31576 801.947 8.88086 802.32 9.27734C802.699 9.67383 803.227 9.87207 803.906 9.87207C804.389 9.87207 804.822 9.8265 805.205 9.73535C805.592 9.63965 805.991 9.50065 806.401 9.31836V10.624C806.023 10.8018 805.638 10.9316 805.246 11.0137C804.854 11.0957 804.385 11.1367 803.838 11.1367C803.095 11.1367 802.441 10.9932 801.876 10.7061C801.315 10.4144 800.876 9.98145 800.557 9.40723C800.242 8.83301 800.085 8.11979 800.085 7.26758C800.085 6.41992 800.229 5.69987 800.516 5.10742C800.803 4.51497 801.206 4.0638 801.726 3.75391C802.245 3.44401 802.851 3.28906 803.544 3.28906ZM803.544 4.49902C803.038 4.49902 802.628 4.66309 802.313 4.99121C802.004 5.31934 801.821 5.80013 801.767 6.43359H805.212C805.207 6.05534 805.144 5.72038 805.021 5.42871C804.902 5.13704 804.72 4.90918 804.474 4.74512C804.232 4.58105 803.922 4.49902 803.544 4.49902ZM812.431 3.28906C812.558 3.28906 812.697 3.2959 812.848 3.30957C812.998 3.32324 813.128 3.34147 813.237 3.36426L813.087 4.86816C812.991 4.84082 812.873 4.82031 812.731 4.80664C812.595 4.79297 812.472 4.78613 812.362 4.78613C812.075 4.78613 811.802 4.83398 811.542 4.92969C811.282 5.02083 811.052 5.16211 810.852 5.35352C810.651 5.54036 810.494 5.77507 810.38 6.05762C810.266 6.34017 810.209 6.66829 810.209 7.04199V11H808.596V3.43262H809.854L810.072 4.76562H810.147C810.298 4.49674 810.485 4.25065 810.708 4.02734C810.931 3.80404 811.187 3.6263 811.474 3.49414C811.765 3.35742 812.084 3.28906 812.431 3.28906ZM819.882 3.43262V11H818.275V3.43262H819.882ZM819.089 0.53418C819.335 0.53418 819.547 0.60026 819.725 0.732422C819.907 0.864583 819.998 1.09245 819.998 1.41602C819.998 1.73503 819.907 1.96289 819.725 2.09961C819.547 2.23177 819.335 2.29785 819.089 2.29785C818.834 2.29785 818.617 2.23177 818.439 2.09961C818.266 1.96289 818.18 1.73503 818.18 1.41602C818.18 1.09245 818.266 0.864583 818.439 0.732422C818.617 0.60026 818.834 0.53418 819.089 0.53418ZM826.13 3.28906C826.982 3.28906 827.645 3.51009 828.119 3.95215C828.598 4.38965 828.837 5.09375 828.837 6.06445V11H827.23V6.36523C827.23 5.77734 827.11 5.33757 826.868 5.0459C826.627 4.74967 826.253 4.60156 825.747 4.60156C825.013 4.60156 824.503 4.82715 824.216 5.27832C823.933 5.72949 823.792 6.38346 823.792 7.24023V11H822.186V3.43262H823.437L823.662 4.45801H823.751C823.915 4.19368 824.118 3.97721 824.359 3.80859C824.605 3.63542 824.879 3.50553 825.18 3.41895C825.485 3.33236 825.802 3.28906 826.13 3.28906ZM841.08 11L840.103 8.22461H836.281L835.304 11H833.574L837.293 0.964844H839.111L842.823 11H841.08ZM839.679 6.81641L838.729 4.08203C838.692 3.96354 838.64 3.7972 838.571 3.58301C838.503 3.36426 838.435 3.14323 838.366 2.91992C838.298 2.69206 838.241 2.50065 838.195 2.3457C838.15 2.53255 838.093 2.74219 838.024 2.97461C837.961 3.20247 837.897 3.41667 837.833 3.61719C837.774 3.81771 837.728 3.97266 837.696 4.08203L836.739 6.81641H839.679ZM842.898 13.7822C842.648 13.7822 842.429 13.7663 842.242 13.7344C842.051 13.707 841.887 13.6683 841.75 13.6182V12.2441C841.896 12.2806 842.053 12.3125 842.222 12.3398C842.39 12.3672 842.57 12.3809 842.762 12.3809C843.012 12.3809 843.24 12.333 843.445 12.2373C843.65 12.1416 843.812 11.9684 843.931 11.7178C844.054 11.4671 844.115 11.1139 844.115 10.6582V1.00586H845.756V10.6035C845.756 11.3464 845.637 11.9502 845.4 12.415C845.163 12.8844 844.831 13.2285 844.402 13.4473C843.974 13.6706 843.473 13.7822 842.898 13.7822ZM851.327 0.855469C851.842 0.855469 852.293 0.939779 852.681 1.1084C853.073 1.27702 853.378 1.52311 853.597 1.84668C853.815 2.16569 853.925 2.55534 853.925 3.01562C853.925 3.63086 853.733 4.15039 853.351 4.57422C852.968 4.99805 852.485 5.3763 851.901 5.70898L854.26 8.00586C854.483 7.70052 854.668 7.36556 854.813 7.00098C854.959 6.63184 855.085 6.24447 855.189 5.83887H856.851C856.709 6.40397 856.513 6.96224 856.263 7.51367C856.012 8.06055 855.695 8.56185 855.312 9.01758L857.343 11H855.285L854.273 10.0088C853.991 10.2367 853.688 10.4349 853.364 10.6035C853.045 10.7721 852.697 10.9043 852.318 11C851.94 11.0911 851.523 11.1367 851.067 11.1367C850.37 11.1367 849.769 11.0251 849.263 10.8018C848.757 10.5785 848.367 10.2594 848.094 9.84473C847.825 9.42546 847.69 8.92871 847.69 8.35449C847.69 7.87598 847.77 7.46582 847.93 7.12402C848.094 6.77767 848.326 6.47461 848.627 6.21484C848.928 5.95052 849.288 5.69987 849.707 5.46289C849.479 5.20312 849.281 4.9502 849.112 4.7041C848.944 4.45801 848.814 4.20508 848.723 3.94531C848.636 3.68099 848.593 3.39844 848.593 3.09766C848.593 2.63281 848.707 2.23405 848.935 1.90137C849.162 1.56413 849.481 1.30664 849.892 1.12891C850.302 0.946615 850.78 0.855469 851.327 0.855469ZM850.657 6.44043C850.393 6.60905 850.165 6.77995 849.974 6.95312C849.782 7.12174 849.634 7.30859 849.529 7.51367C849.429 7.71875 849.379 7.95801 849.379 8.23145C849.379 8.70085 849.543 9.07227 849.871 9.3457C850.204 9.61914 850.632 9.75586 851.156 9.75586C851.617 9.75586 852.02 9.6875 852.366 9.55078C852.717 9.40951 853.022 9.23405 853.282 9.02441L850.657 6.44043ZM851.3 2.12695C850.976 2.12695 850.696 2.21126 850.459 2.37988C850.227 2.5485 850.11 2.81055 850.11 3.16602C850.11 3.45312 850.186 3.72428 850.336 3.97949C850.491 4.23014 850.705 4.5013 850.979 4.79297C851.457 4.52865 851.812 4.26888 852.045 4.01367C852.282 3.75846 852.4 3.46224 852.4 3.125C852.4 2.80599 852.293 2.5599 852.079 2.38672C851.865 2.21354 851.605 2.12695 851.3 2.12695ZM866.312 11H864.425L861.314 6.46094L860.33 7.26074V11H858.689V1.00586H860.33V5.78418C860.531 5.53809 860.733 5.29199 860.938 5.0459C861.144 4.7998 861.349 4.55371 861.554 4.30762L864.37 1.00586H866.223L862.49 5.38086L866.312 11ZM874.07 3.28906C875.027 3.28906 875.75 3.50098 876.237 3.9248C876.729 4.34863 876.976 5.00944 876.976 5.90723V11H875.834L875.526 9.92676H875.472C875.257 10.2002 875.036 10.4258 874.809 10.6035C874.581 10.7812 874.316 10.9134 874.016 11C873.719 11.0911 873.357 11.1367 872.929 11.1367C872.478 11.1367 872.074 11.0547 871.719 10.8906C871.363 10.722 871.083 10.4668 870.878 10.125C870.673 9.7832 870.57 9.35026 870.57 8.82617C870.57 8.04688 870.86 7.46126 871.438 7.06934C872.022 6.67741 872.901 6.46094 874.077 6.41992L875.39 6.37207V5.97559C875.39 5.4515 875.267 5.0778 875.021 4.85449C874.779 4.63118 874.437 4.51953 873.995 4.51953C873.617 4.51953 873.25 4.57422 872.895 4.68359C872.539 4.79297 872.193 4.92741 871.855 5.08691L871.336 3.95215C871.705 3.75618 872.124 3.59668 872.594 3.47363C873.068 3.35059 873.56 3.28906 874.07 3.28906ZM875.383 7.38379L874.405 7.41797C873.603 7.44531 873.04 7.58203 872.717 7.82812C872.393 8.07422 872.231 8.41146 872.231 8.83984C872.231 9.21354 872.343 9.48698 872.566 9.66016C872.79 9.82878 873.084 9.91309 873.448 9.91309C874.004 9.91309 874.465 9.75586 874.829 9.44141C875.198 9.1224 875.383 8.65527 875.383 8.04004V7.38379ZM883.169 3.28906C884.021 3.28906 884.684 3.51009 885.158 3.95215C885.637 4.38965 885.876 5.09375 885.876 6.06445V11H884.27V6.36523C884.27 5.77734 884.149 5.33757 883.907 5.0459C883.666 4.74967 883.292 4.60156 882.786 4.60156C882.052 4.60156 881.542 4.82715 881.255 5.27832C880.972 5.72949 880.831 6.38346 880.831 7.24023V11H879.225V3.43262H880.476L880.701 4.45801H880.79C880.954 4.19368 881.157 3.97721 881.398 3.80859C881.645 3.63542 881.918 3.50553 882.219 3.41895C882.524 3.33236 882.841 3.28906 883.169 3.28906ZM890.668 11.1367C889.766 11.1367 889.041 10.8086 888.494 10.1523C887.952 9.49154 887.681 8.51855 887.681 7.2334C887.681 5.93457 887.956 4.95247 888.508 4.28711C889.064 3.62174 889.795 3.28906 890.702 3.28906C891.085 3.28906 891.42 3.34147 891.707 3.44629C891.994 3.54655 892.24 3.68327 892.445 3.85645C892.655 4.02962 892.833 4.22331 892.979 4.4375H893.054C893.031 4.29622 893.004 4.09342 892.972 3.8291C892.944 3.56022 892.931 3.31185 892.931 3.08398V0.363281H894.544V11H893.286L892.999 9.96777H892.931C892.794 10.1865 892.621 10.3848 892.411 10.5625C892.206 10.7357 891.96 10.8747 891.673 10.9795C891.39 11.0843 891.055 11.1367 890.668 11.1367ZM891.119 9.83105C891.807 9.83105 892.293 9.63281 892.575 9.23633C892.858 8.83984 893.004 8.24512 893.013 7.45215V7.24023C893.013 6.39258 892.876 5.74316 892.603 5.29199C892.329 4.83626 891.83 4.6084 891.105 4.6084C890.527 4.6084 890.085 4.8431 889.779 5.3125C889.479 5.77734 889.328 6.42676 889.328 7.26074C889.328 8.09473 889.479 8.73275 889.779 9.1748C890.085 9.6123 890.531 9.83105 891.119 9.83105ZM904.682 5.57227H908.414V10.5898C907.89 10.763 907.348 10.8975 906.787 10.9932C906.227 11.0889 905.598 11.1367 904.9 11.1367C903.884 11.1367 903.023 10.9362 902.316 10.5352C901.615 10.1296 901.081 9.54395 900.717 8.77832C900.352 8.00814 900.17 7.08073 900.17 5.99609C900.17 4.95247 900.373 4.04785 900.778 3.28223C901.184 2.51204 901.774 1.91732 902.549 1.49805C903.324 1.07422 904.262 0.862305 905.365 0.862305C905.908 0.862305 906.432 0.916992 906.938 1.02637C907.448 1.13118 907.915 1.27702 908.339 1.46387L907.765 2.81738C907.427 2.65788 907.049 2.52344 906.63 2.41406C906.211 2.30469 905.775 2.25 905.324 2.25C904.609 2.25 903.991 2.40495 903.472 2.71484C902.957 3.02474 902.56 3.46224 902.282 4.02734C902.004 4.58789 901.865 5.25098 901.865 6.0166C901.865 6.75944 901.977 7.41113 902.2 7.97168C902.424 8.53223 902.772 8.96973 903.246 9.28418C903.725 9.59408 904.342 9.74902 905.099 9.74902C905.477 9.74902 905.798 9.72852 906.062 9.6875C906.327 9.64648 906.571 9.60091 906.794 9.55078V6.97363H904.682V5.57227ZM910.807 1.00586H913.78C915.07 1.00586 916.043 1.19271 916.699 1.56641C917.355 1.9401 917.684 2.58496 917.684 3.50098C917.684 3.88379 917.615 4.23014 917.479 4.54004C917.346 4.84538 917.153 5.09831 916.897 5.29883C916.642 5.49479 916.328 5.62695 915.954 5.69531V5.76367C916.341 5.83203 916.686 5.9528 916.986 6.12598C917.292 6.29915 917.531 6.54753 917.704 6.87109C917.882 7.19466 917.971 7.61393 917.971 8.12891C917.971 8.73958 917.825 9.25911 917.533 9.6875C917.246 10.1159 916.834 10.4417 916.296 10.665C915.763 10.8883 915.129 11 914.396 11H910.807V1.00586ZM912.447 5.12793H914.02C914.762 5.12793 915.277 5.00716 915.564 4.76562C915.852 4.52409 915.995 4.1709 915.995 3.70605C915.995 3.2321 915.824 2.8903 915.482 2.68066C915.145 2.47103 914.607 2.36621 913.869 2.36621H912.447V5.12793ZM912.447 6.4541V9.62598H914.177C914.942 9.62598 915.48 9.47786 915.79 9.18164C916.1 8.88542 916.255 8.48438 916.255 7.97852C916.255 7.66862 916.184 7.39974 916.043 7.17188C915.906 6.94401 915.681 6.76855 915.366 6.64551C915.052 6.5179 914.628 6.4541 914.095 6.4541H912.447ZM919.639 10.1523C919.639 9.77865 919.734 9.5166 919.926 9.36621C920.122 9.21126 920.359 9.13379 920.637 9.13379C920.915 9.13379 921.152 9.21126 921.348 9.36621C921.548 9.5166 921.648 9.77865 921.648 10.1523C921.648 10.5169 921.548 10.7812 921.348 10.9453C921.152 11.1048 920.915 11.1846 920.637 11.1846C920.359 11.1846 920.122 11.1048 919.926 10.9453C919.734 10.7812 919.639 10.5169 919.639 10.1523Z" fill="#303030"/>
</svg>
