<svg width="205" height="37" viewBox="0 0 205 37" fill="none" xmlns="http://www.w3.org/2000/svg">
<path fill-rule="evenodd" clip-rule="evenodd" d="M24.3786 36.8458C31.9255 36.4519 36.5145 35.7662 41.1374 32.5654C53.5438 23.9785 51.2888 9.48317 38.9199 3.12541C35.9808 1.61402 34.1505 1.57317 31.1738 0.5578C29.802 1.09466 30.3056 2.46309 30.58 4.98693C30.7266 6.33201 30.6702 8.46196 31.4256 9.56195C32.944 10.2505 35.7967 9.62322 37.8788 9.83622C39.5814 11.1813 41.0923 13.18 41.8026 15.5141C43.3623 20.6406 40.5774 25.239 36.2552 28.3201C32.9365 30.6864 30.9897 28.1596 27.5545 27.862L23.1309 36.1134" fill="#007643"/>
<path fill-rule="evenodd" clip-rule="evenodd" d="M13.8139 10.4781C8.69122 3.53388 13.5358 -0.0841233 25.2695 0.750351C19.2147 1.52647 13.066 2.50975 18.23 8.80916C24.0067 15.8555 31.9595 17.5857 39.4725 20.2029C38.8374 21.3759 38.1984 22.5488 37.5633 23.7247C28.0695 20.7281 18.9141 17.3815 13.8177 10.4781" fill="#3E4095"/>
<path fill-rule="evenodd" clip-rule="evenodd" d="M2.00131 12.6081C0.00183904 7.14609 7.24804 5.01906 10.3562 5.29041C7.59757 6.37872 4.34279 9.80415 8.08992 13.9999C12.2768 18.6887 19.2261 22.152 25.5139 25.1165C24.9576 26.3507 24.0406 27.3077 23.4843 28.5448C15.6067 25.3645 4.71112 20.0075 2.00507 12.611" fill="#D99956"/>
<path fill-rule="evenodd" clip-rule="evenodd" d="M19.9026 35.6757C13.145 33.0556 6.93613 29.5893 3.43706 25.948C-0.606976 21.7318 -1.56913 18.0497 3.43706 16.6871C2.12162 24.6233 12.7692 28.6031 21.4548 32.898C20.9362 33.8259 20.4213 34.7508 19.9026 35.6757Z" fill="#00AFEF"/>
<path fill-rule="evenodd" clip-rule="evenodd" d="M99.9831 2.60312H70.3594C70.3594 2.60312 57.3516 2.60312 57.3516 12.4476C57.3516 22.292 68.6493 22.7676 71.7838 22.7676H91.7221C91.7221 22.7676 97.8333 22.1053 103.084 28.2209C108.699 34.7683 117.836 34.9696 129.513 34.9696C148.35 34.9696 152.206 33.6771 156.194 24.6087C160.181 15.5404 161.606 10.0959 172.43 10.0959C183.254 10.0959 195.029 9.13011 195.029 18.3443C195.029 27.5586 184.491 27.9262 177.654 27.9262C170.818 27.9262 162.775 26.9517 159.993 24.6087C159.993 24.6087 159.234 28.0721 155.912 31.4625C155.912 31.4625 159.806 34.9667 177.56 34.9667C195.315 34.9667 205 29.0291 205 18.7849C205 8.54072 197.499 2.60312 177.181 2.60312C156.863 2.60312 154.014 7.14021 149.075 18.7849C146.418 25.2711 145.088 27.3368 137.3 27.3368H120.872C120.872 27.3368 113.848 28.075 108.436 21.4401C102.727 14.4433 95.3415 15.2486 92.5866 15.2486H70.2654C70.2654 15.2486 66.8077 15.4704 66.8077 12.6693C66.8077 10.0988 70.2654 10.0988 70.2654 10.0988H93.5262C93.5262 10.0988 95.9954 6.02855 99.9831 2.60604V2.60312Z" fill="#007643"/>
<path fill-rule="evenodd" clip-rule="evenodd" d="M149.165 2.60311H120.015C120.015 2.60311 106.534 1.90577 100.171 13.7751C100.171 13.7751 104.824 14.5104 108.811 18.7878C108.811 18.7878 109.383 10.6911 120.489 10.6911H141.664C141.664 10.6911 144.986 5.95268 149.165 2.60311Z" fill="#D99956"/>
<path fill-rule="evenodd" clip-rule="evenodd" d="M62.9515 27.188C62.9515 27.188 59.9147 31.5442 55.7354 34.9667H91.91C91.91 34.9667 101.122 35.0017 104.73 32.7142C104.73 32.7142 100.077 28.4397 98.7465 26.7445C98.7465 26.7445 98.1752 27.3339 91.1508 27.3339L62.9515 27.1851V27.188Z" fill="#D99956"/>
</svg>
