<svg width="223" height="31" viewBox="0 0 223 31" fill="none" xmlns="http://www.w3.org/2000/svg">
<rect x="0.5" y="0.5" width="222" height="29.7586" rx="14.8793" fill="white" stroke="#DFDFDF"/>
<path d="M204.703 19.7048C207.49 19.7048 209.749 17.4454 209.749 14.6584C209.749 11.8714 207.49 9.61209 204.703 9.61209C201.916 9.61209 199.656 11.8714 199.656 14.6584C199.656 17.4454 201.916 19.7048 204.703 19.7048Z" stroke="#197745" stroke-width="1.5" stroke-linecap="round" stroke-linejoin="round"/>
<path d="M208.271 18.2269L211.191 21.1466" stroke="#197745" stroke-width="1.5" stroke-linecap="round" stroke-linejoin="round"/>
<path d="M18.1543 16.062C18.1543 16.5699 18.0293 17.0074 17.7793 17.3745C17.5332 17.7417 17.1777 18.023 16.7129 18.2183C16.252 18.4136 15.7012 18.5113 15.0605 18.5113C14.748 18.5113 14.4492 18.4937 14.1641 18.4585C13.8789 18.4234 13.6094 18.3726 13.3555 18.3062C13.1055 18.2359 12.877 18.1519 12.6699 18.0542V16.73C13.0176 16.8824 13.4062 17.021 13.8359 17.146C14.2656 17.2671 14.7031 17.3277 15.1484 17.3277C15.5117 17.3277 15.8125 17.2808 16.0508 17.187C16.293 17.0894 16.4727 16.9527 16.5898 16.7769C16.707 16.5972 16.7656 16.3882 16.7656 16.1499C16.7656 15.896 16.6973 15.6812 16.5605 15.5054C16.4238 15.3296 16.2168 15.1695 15.9395 15.0249C15.666 14.8765 15.3223 14.7183 14.9082 14.5503C14.627 14.437 14.3574 14.3081 14.0996 14.1636C13.8457 14.0191 13.6191 13.8492 13.4199 13.6538C13.2207 13.4585 13.0625 13.2281 12.9453 12.9624C12.832 12.6929 12.7754 12.3765 12.7754 12.0132C12.7754 11.5288 12.8906 11.1148 13.1211 10.771C13.3555 10.4273 13.6836 10.1636 14.1055 9.98001C14.5312 9.79642 15.0273 9.70462 15.5938 9.70462C16.043 9.70462 16.4648 9.7515 16.8594 9.84525C17.2578 9.939 17.6484 10.0718 18.0312 10.2437L17.5859 11.3745C17.2344 11.23 16.8926 11.1148 16.5605 11.0288C16.2324 10.9429 15.8965 10.8999 15.5527 10.8999C15.2559 10.8999 15.0039 10.9449 14.7969 11.0347C14.5898 11.1245 14.4316 11.2515 14.3223 11.4156C14.2168 11.5757 14.1641 11.7671 14.1641 11.9898C14.1641 12.2398 14.2246 12.4507 14.3457 12.6226C14.4707 12.7906 14.6621 12.9449 14.9199 13.0855C15.1816 13.2261 15.5176 13.3824 15.9277 13.5542C16.4004 13.7495 16.8008 13.9546 17.1289 14.1695C17.4609 14.3843 17.7148 14.6421 17.8906 14.9429C18.0664 15.2398 18.1543 15.6128 18.1543 16.062ZM22.25 11.7847C22.8281 11.7847 23.3242 11.9038 23.7383 12.1421C24.1523 12.3804 24.4707 12.7183 24.6934 13.1558C24.916 13.5933 25.0273 14.1167 25.0273 14.7261V15.4644H20.6973C20.7129 16.0933 20.8809 16.5777 21.2012 16.9175C21.5254 17.2574 21.9785 17.4273 22.5605 17.4273C22.9746 17.4273 23.3457 17.3882 23.6738 17.3101C24.0059 17.2281 24.3477 17.1089 24.6992 16.9527V18.0718C24.375 18.2242 24.0449 18.3355 23.709 18.4058C23.373 18.4761 22.9707 18.5113 22.502 18.5113C21.8652 18.5113 21.3047 18.3882 20.8203 18.1421C20.3398 17.8921 19.9629 17.521 19.6895 17.0288C19.4199 16.5367 19.2852 15.9253 19.2852 15.1949C19.2852 14.4683 19.4082 13.8511 19.6543 13.3433C19.9004 12.8355 20.2461 12.4488 20.6914 12.1831C21.1367 11.9175 21.6562 11.7847 22.25 11.7847ZM22.25 12.8218C21.8164 12.8218 21.4648 12.9624 21.1953 13.2437C20.9297 13.5249 20.7734 13.937 20.7266 14.48H23.6797C23.6758 14.1558 23.6211 13.8687 23.5156 13.6187C23.4141 13.3687 23.2578 13.1734 23.0469 13.0327C22.8398 12.8921 22.5742 12.8218 22.25 12.8218ZM29.123 11.7847C29.9434 11.7847 30.5625 11.9663 30.9805 12.3296C31.4023 12.6929 31.6133 13.2593 31.6133 14.0288V18.3941H30.6348L30.3711 17.4742H30.3242C30.1406 17.7085 29.9512 17.9019 29.7559 18.0542C29.5605 18.2066 29.334 18.3199 29.0762 18.3941C28.8223 18.4722 28.5117 18.5113 28.1445 18.5113C27.7578 18.5113 27.4121 18.4409 27.1074 18.3003C26.8027 18.1558 26.5625 17.937 26.3867 17.6441C26.2109 17.3511 26.123 16.98 26.123 16.5308C26.123 15.8628 26.3711 15.3609 26.8672 15.0249C27.3672 14.689 28.1211 14.5034 29.1289 14.4683L30.2539 14.4273V14.0874C30.2539 13.6382 30.1484 13.3179 29.9375 13.1265C29.7305 12.9351 29.4375 12.8394 29.0586 12.8394C28.7344 12.8394 28.4199 12.8863 28.1152 12.98C27.8105 13.0738 27.5137 13.189 27.2246 13.3257L26.7793 12.3531C27.0957 12.1851 27.4551 12.0484 27.8574 11.9429C28.2637 11.8374 28.6855 11.7847 29.123 11.7847ZM30.248 15.2945L29.4102 15.3238C28.7227 15.3472 28.2402 15.4644 27.9629 15.6753C27.6855 15.8863 27.5469 16.1753 27.5469 16.5425C27.5469 16.8628 27.6426 17.0972 27.834 17.2456C28.0254 17.3902 28.2773 17.4624 28.5898 17.4624C29.0664 17.4624 29.4609 17.3277 29.7734 17.0581C30.0898 16.7847 30.248 16.3843 30.248 15.857V15.2945ZM36.8281 11.7847C36.9375 11.7847 37.0566 11.7906 37.1855 11.8023C37.3145 11.814 37.4258 11.8296 37.5195 11.8492L37.3906 13.1382C37.3086 13.1148 37.207 13.0972 37.0859 13.0855C36.9688 13.0738 36.8633 13.0679 36.7695 13.0679C36.5234 13.0679 36.2891 13.1089 36.0664 13.1909C35.8438 13.2691 35.6465 13.3902 35.4746 13.5542C35.3027 13.7144 35.168 13.9156 35.0703 14.1577C34.9727 14.3999 34.9238 14.6812 34.9238 15.0015V18.3941H33.541V11.9077H34.6191L34.8066 13.0503H34.8711C35 12.8199 35.1602 12.6089 35.3516 12.4175C35.543 12.2261 35.7617 12.0738 36.0078 11.9605C36.2578 11.8433 36.5312 11.7847 36.8281 11.7847ZM41.334 18.5113C40.7207 18.5113 40.1895 18.3921 39.7402 18.1538C39.291 17.9156 38.9453 17.5503 38.7031 17.0581C38.4609 16.5659 38.3398 15.9409 38.3398 15.1831C38.3398 14.3941 38.4727 13.7495 38.7383 13.2495C39.0039 12.7495 39.3711 12.3804 39.8398 12.1421C40.3125 11.9038 40.8535 11.7847 41.4629 11.7847C41.8496 11.7847 42.1992 11.8238 42.5117 11.9019C42.8281 11.9761 43.0957 12.0679 43.3145 12.1773L42.9043 13.2788C42.666 13.1812 42.4219 13.0992 42.1719 13.0327C41.9219 12.9663 41.6816 12.9331 41.4512 12.9331C41.0723 12.9331 40.7559 13.0171 40.502 13.1851C40.252 13.3531 40.0645 13.6031 39.9395 13.9351C39.8184 14.2671 39.7578 14.6792 39.7578 15.1714C39.7578 15.648 39.8203 16.0503 39.9453 16.3784C40.0703 16.7027 40.2559 16.9488 40.502 17.1167C40.748 17.2808 41.0508 17.3628 41.4102 17.3628C41.7656 17.3628 42.084 17.3199 42.3652 17.2339C42.6465 17.148 42.9121 17.0367 43.1621 16.8999V18.0952C42.916 18.2359 42.6523 18.3394 42.3711 18.4058C42.0898 18.4761 41.7441 18.5113 41.334 18.5113ZM46.0625 9.27689V11.5679C46.0625 11.8062 46.0547 12.0386 46.0391 12.2652C46.0273 12.4917 46.0137 12.6675 45.998 12.7925H46.0742C46.2109 12.5659 46.3789 12.3804 46.5781 12.2359C46.7773 12.0874 47 11.9761 47.2461 11.9019C47.4961 11.8277 47.7617 11.7906 48.043 11.7906C48.5391 11.7906 48.9609 11.8745 49.3086 12.0425C49.6562 12.2066 49.9219 12.4624 50.1055 12.8101C50.293 13.1577 50.3867 13.6089 50.3867 14.1636V18.3941H49.0098V14.4214C49.0098 13.9175 48.9062 13.5406 48.6992 13.2906C48.4922 13.0367 48.1719 12.9097 47.7383 12.9097C47.3203 12.9097 46.9883 12.9976 46.7422 13.1734C46.5 13.3452 46.3262 13.6011 46.2207 13.9409C46.1152 14.2769 46.0625 14.687 46.0625 15.1714V18.3941H44.6855V9.27689H46.0625Z" fill="#B2B7C2"/>
</svg>
