<svg width="240" height="47" viewBox="0 0 240 47" fill="none" xmlns="http://www.w3.org/2000/svg">
<path d="M6.82617 14.5714H4.47266V2.28625H0.292969V0.294067H10.9961V2.28625H6.82617V14.5714ZM21.2695 14.5714H13.1836V0.294067H21.2695V2.26672H15.5273V6.14368H20.9082V8.10657H15.5273V12.589H21.2695V14.5714ZM28.3691 0.294067C29.5996 0.294067 30.6152 0.443807 31.416 0.743286C32.2233 1.04277 32.8223 1.49849 33.2129 2.11047C33.61 2.72245 33.8086 3.50045 33.8086 4.44446C33.8086 5.14758 33.6784 5.74654 33.418 6.24133C33.1576 6.73612 32.8158 7.14628 32.3926 7.4718C31.9694 7.79732 31.5169 8.05774 31.0352 8.25305L35.0879 14.5714H32.4414L28.9941 8.84875H26.6992V14.5714H24.3555V0.294067H28.3691ZM28.2129 2.24719H26.6992V6.91516H28.3203C29.4076 6.91516 30.1953 6.71334 30.6836 6.30969C31.1784 5.90605 31.4258 5.31034 31.4258 4.52258C31.4258 3.69576 31.1621 3.10982 30.6348 2.76477C30.1139 2.41972 29.3066 2.24719 28.2129 2.24719ZM43.291 14.5714L39.1797 2.64758H39.0918C39.1113 2.91451 39.1341 3.27909 39.1602 3.74133C39.1862 4.20357 39.209 4.69836 39.2285 5.22571C39.248 5.75305 39.2578 6.25761 39.2578 6.73938V14.5714H37.1289V0.294067H40.4199L44.375 11.6906H44.4336L48.5254 0.294067H51.8066V14.5714H49.5703V6.62219C49.5703 6.18599 49.5768 5.71399 49.5898 5.20618C49.6094 4.69836 49.6289 4.21659 49.6484 3.76086C49.6745 3.30514 49.694 2.94055 49.707 2.66711H49.6289L45.3613 14.5714H43.291ZM63.8086 10.6847C63.8086 11.531 63.6003 12.2602 63.1836 12.8722C62.7734 13.4842 62.181 13.9529 61.4062 14.2784C60.638 14.604 59.7201 14.7667 58.6523 14.7667C58.1315 14.7667 57.6335 14.7374 57.1582 14.6788C56.6829 14.6202 56.2337 14.5356 55.8105 14.4249C55.3939 14.3077 55.013 14.1678 54.668 14.005V11.798C55.2474 12.0519 55.8952 12.283 56.6113 12.4913C57.3275 12.6932 58.0566 12.7941 58.7988 12.7941C59.4043 12.7941 59.9056 12.7159 60.3027 12.5597C60.7064 12.3969 61.0059 12.1691 61.2012 11.8761C61.3965 11.5766 61.4941 11.2283 61.4941 10.8312C61.4941 10.408 61.3802 10.0499 61.1523 9.75696C60.9245 9.46399 60.5794 9.19706 60.1172 8.95618C59.6615 8.70878 59.0885 8.44511 58.3984 8.16516C57.9297 7.97636 57.4805 7.76152 57.0508 7.52063C56.6276 7.27974 56.25 6.99654 55.918 6.67102C55.5859 6.3455 55.3223 5.96139 55.127 5.51868C54.9382 5.06946 54.8438 4.54211 54.8438 3.93665C54.8438 3.12935 55.0358 2.43925 55.4199 1.86633C55.8105 1.29342 56.3574 0.853963 57.0605 0.547974C57.7702 0.241984 58.597 0.0889893 59.541 0.0889893C60.2897 0.0889893 60.9928 0.167114 61.6504 0.323364C62.3145 0.479614 62.9655 0.700968 63.6035 0.987427L62.8613 2.87219C62.2754 2.63131 61.7057 2.43925 61.1523 2.29602C60.6055 2.15279 60.0456 2.08118 59.4727 2.08118C58.9779 2.08118 58.5579 2.15605 58.2129 2.30579C57.8678 2.45553 57.6042 2.66711 57.4219 2.94055C57.2461 3.20748 57.1582 3.52649 57.1582 3.89758C57.1582 4.31425 57.2591 4.66581 57.4609 4.95227C57.6693 5.23222 57.9883 5.48938 58.418 5.72375C58.8542 5.95813 59.4141 6.21855 60.0977 6.505C60.8854 6.83053 61.5527 7.17232 62.0996 7.5304C62.653 7.88847 63.0762 8.31816 63.3691 8.81946C63.6621 9.31425 63.8086 9.93599 63.8086 10.6847ZM76.0254 0.0792236C76.7611 0.0792236 77.4056 0.199666 77.959 0.440552C78.5189 0.681437 78.9551 1.033 79.2676 1.49524C79.5801 1.95097 79.7363 2.50761 79.7363 3.16516C79.7363 4.04407 79.4629 4.78625 78.916 5.39172C78.3691 5.99719 77.679 6.53756 76.8457 7.01282L80.2148 10.2941C80.5339 9.85787 80.7975 9.37935 81.0059 8.85852C81.2142 8.33118 81.3932 7.77779 81.543 7.19836H83.916C83.7142 8.00566 83.4342 8.80318 83.0762 9.59094C82.7181 10.3722 82.2656 11.0883 81.7188 11.7394L84.6191 14.5714H81.6797L80.2344 13.1554C79.8307 13.4809 79.3978 13.7641 78.9355 14.005C78.4798 14.2459 77.9818 14.4347 77.4414 14.5714C76.901 14.7016 76.3053 14.7667 75.6543 14.7667C74.6582 14.7667 73.7988 14.6072 73.0762 14.2882C72.3535 13.9692 71.7969 13.5135 71.4062 12.921C71.0221 12.3221 70.8301 11.6124 70.8301 10.7921C70.8301 10.1085 70.944 9.52258 71.1719 9.0343C71.4062 8.53951 71.7383 8.10657 72.168 7.73547C72.5977 7.35787 73.112 6.9998 73.7109 6.66125C73.3854 6.29016 73.1022 5.92883 72.8613 5.57727C72.6204 5.22571 72.4349 4.86438 72.3047 4.49329C72.181 4.11568 72.1191 3.71204 72.1191 3.28235C72.1191 2.61829 72.2819 2.04862 72.6074 1.57336C72.9329 1.09159 73.3887 0.723755 73.9746 0.469849C74.5605 0.209432 75.2441 0.0792236 76.0254 0.0792236ZM75.0684 8.05774C74.6908 8.29862 74.3652 8.54277 74.0918 8.79016C73.8184 9.03105 73.6068 9.29797 73.457 9.59094C73.3138 9.88391 73.2422 10.2257 73.2422 10.6163C73.2422 11.2869 73.4766 11.8175 73.9453 12.2081C74.4206 12.5988 75.0326 12.7941 75.7812 12.7941C76.4388 12.7941 77.015 12.6964 77.5098 12.5011C78.0111 12.2993 78.4473 12.0486 78.8184 11.7491L75.0684 8.05774ZM75.9863 1.89563C75.5241 1.89563 75.1237 2.01607 74.7852 2.25696C74.4531 2.49784 74.2871 2.87219 74.2871 3.38C74.2871 3.79016 74.3945 4.17753 74.6094 4.54211C74.8307 4.90019 75.1367 5.28756 75.5273 5.70422C76.2109 5.32662 76.7188 4.95553 77.0508 4.59094C77.3893 4.22636 77.5586 3.80318 77.5586 3.32141C77.5586 2.86568 77.4056 2.51412 77.0996 2.26672C76.7936 2.01933 76.4225 1.89563 75.9863 1.89563ZM97.8223 2.08118C97.1387 2.08118 96.5267 2.20487 95.9863 2.45227C95.4525 2.69967 95 3.05774 94.6289 3.52649C94.2578 3.98873 93.9746 4.55188 93.7793 5.21594C93.584 5.87349 93.4863 6.61568 93.4863 7.4425C93.4863 8.54928 93.6426 9.50305 93.9551 10.3038C94.2676 11.0981 94.7428 11.7101 95.3809 12.1398C96.0189 12.5629 96.8262 12.7745 97.8027 12.7745C98.4082 12.7745 98.9974 12.7159 99.5703 12.5988C100.143 12.4816 100.736 12.3221 101.348 12.1202V14.1124C100.768 14.3403 100.182 14.5063 99.5898 14.6105C98.9974 14.7146 98.3138 14.7667 97.5391 14.7667C96.0807 14.7667 94.8698 14.464 93.9062 13.8585C92.9492 13.2531 92.2331 12.4002 91.7578 11.2999C91.2891 10.1997 91.0547 8.9106 91.0547 7.43274C91.0547 6.35201 91.2044 5.36243 91.5039 4.46399C91.8034 3.56555 92.2396 2.79081 92.8125 2.13977C93.3854 1.48222 94.0918 0.977661 94.9316 0.626099C95.778 0.268026 96.7448 0.0889893 97.832 0.0889893C98.5482 0.0889893 99.2513 0.170369 99.9414 0.33313C100.638 0.48938 101.283 0.713989 101.875 1.00696L101.055 2.94055C100.56 2.70618 100.042 2.50435 99.502 2.33508C98.9616 2.16581 98.4017 2.08118 97.8223 2.08118ZM117.09 7.41321C117.09 8.51347 116.95 9.51607 116.67 10.421C116.396 11.3195 115.983 12.0942 115.43 12.7452C114.876 13.3898 114.183 13.8878 113.35 14.2394C112.516 14.5909 111.54 14.7667 110.42 14.7667C109.281 14.7667 108.291 14.5909 107.451 14.2394C106.618 13.8878 105.924 13.3865 105.371 12.7355C104.824 12.0844 104.414 11.3064 104.141 10.4015C103.867 9.49654 103.73 8.49394 103.73 7.39368C103.73 5.92232 103.971 4.63977 104.453 3.54602C104.941 2.44576 105.68 1.5929 106.67 0.987427C107.666 0.375448 108.923 0.069458 110.439 0.069458C111.924 0.069458 113.158 0.372192 114.141 0.977661C115.124 1.58313 115.859 2.43599 116.348 3.53625C116.842 4.63 117.09 5.92232 117.09 7.41321ZM106.191 7.41321C106.191 8.51347 106.341 9.46724 106.641 10.2745C106.94 11.0753 107.399 11.6938 108.018 12.13C108.643 12.5597 109.443 12.7745 110.42 12.7745C111.403 12.7745 112.204 12.5597 112.822 12.13C113.441 11.6938 113.896 11.0753 114.189 10.2745C114.482 9.46724 114.629 8.51347 114.629 7.41321C114.629 5.74003 114.294 4.43144 113.623 3.48743C112.959 2.53691 111.898 2.06165 110.439 2.06165C109.463 2.06165 108.659 2.27649 108.027 2.70618C107.402 3.13586 106.94 3.7511 106.641 4.55188C106.341 5.34615 106.191 6.29993 106.191 7.41321ZM132.07 14.5714H129.189L122.197 3.17493H122.109C122.135 3.55904 122.158 3.96594 122.178 4.39563C122.204 4.82532 122.223 5.26803 122.236 5.72375C122.256 6.17948 122.272 6.64172 122.285 7.11047V14.5714H120.156V0.294067H123.018L130 11.6124H130.068C130.055 11.2804 130.039 10.8995 130.02 10.4698C130 10.0402 129.98 9.59745 129.961 9.14172C129.948 8.67948 129.938 8.23352 129.932 7.80383V0.294067H132.07V14.5714ZM147.412 7.29602C147.412 8.90409 147.113 10.2485 146.514 11.3292C145.915 12.4034 145.046 13.214 143.906 13.7609C142.767 14.3012 141.393 14.5714 139.785 14.5714H135.82V0.294067H140.215C141.693 0.294067 142.969 0.560994 144.043 1.09485C145.117 1.62219 145.947 2.4067 146.533 3.44836C147.119 4.48352 147.412 5.76607 147.412 7.29602ZM144.971 7.36438C144.971 6.1925 144.785 5.22896 144.414 4.47375C144.049 3.71855 143.509 3.15865 142.793 2.79407C142.083 2.42297 141.208 2.23743 140.166 2.23743H138.164V12.6085H139.824C141.549 12.6085 142.839 12.1691 143.691 11.2902C144.544 10.4113 144.971 9.10266 144.971 7.36438ZM150.488 14.5714V0.294067H152.832V14.5714H150.488ZM161.553 14.5714H159.199V2.28625H155.02V0.294067H165.723V2.28625H161.553V14.5714ZM167.91 14.5714V0.294067H170.254V14.5714H167.91ZM186.699 7.41321C186.699 8.51347 186.559 9.51607 186.279 10.421C186.006 11.3195 185.592 12.0942 185.039 12.7452C184.486 13.3898 183.792 13.8878 182.959 14.2394C182.126 14.5909 181.149 14.7667 180.029 14.7667C178.89 14.7667 177.9 14.5909 177.061 14.2394C176.227 13.8878 175.534 13.3865 174.98 12.7355C174.434 12.0844 174.023 11.3064 173.75 10.4015C173.477 9.49654 173.34 8.49394 173.34 7.39368C173.34 5.92232 173.581 4.63977 174.062 3.54602C174.551 2.44576 175.29 1.5929 176.279 0.987427C177.275 0.375448 178.532 0.069458 180.049 0.069458C181.533 0.069458 182.767 0.372192 183.75 0.977661C184.733 1.58313 185.469 2.43599 185.957 3.53625C186.452 4.63 186.699 5.92232 186.699 7.41321ZM175.801 7.41321C175.801 8.51347 175.951 9.46724 176.25 10.2745C176.549 11.0753 177.008 11.6938 177.627 12.13C178.252 12.5597 179.053 12.7745 180.029 12.7745C181.012 12.7745 181.813 12.5597 182.432 12.13C183.05 11.6938 183.506 11.0753 183.799 10.2745C184.092 9.46724 184.238 8.51347 184.238 7.41321C184.238 5.74003 183.903 4.43144 183.232 3.48743C182.568 2.53691 181.507 2.06165 180.049 2.06165C179.072 2.06165 178.268 2.27649 177.637 2.70618C177.012 3.13586 176.549 3.7511 176.25 4.55188C175.951 5.34615 175.801 6.29993 175.801 7.41321ZM201.68 14.5714H198.799L191.807 3.17493H191.719C191.745 3.55904 191.768 3.96594 191.787 4.39563C191.813 4.82532 191.833 5.26803 191.846 5.72375C191.865 6.17948 191.882 6.64172 191.895 7.11047V14.5714H189.766V0.294067H192.627L199.609 11.6124H199.678C199.665 11.2804 199.648 10.8995 199.629 10.4698C199.609 10.0402 199.59 9.59745 199.57 9.14172C199.557 8.67948 199.548 8.23352 199.541 7.80383V0.294067H201.68V14.5714ZM213.672 10.6847C213.672 11.531 213.464 12.2602 213.047 12.8722C212.637 13.4842 212.044 13.9529 211.27 14.2784C210.501 14.604 209.583 14.7667 208.516 14.7667C207.995 14.7667 207.497 14.7374 207.021 14.6788C206.546 14.6202 206.097 14.5356 205.674 14.4249C205.257 14.3077 204.876 14.1678 204.531 14.005V11.798C205.111 12.0519 205.758 12.283 206.475 12.4913C207.191 12.6932 207.92 12.7941 208.662 12.7941C209.268 12.7941 209.769 12.7159 210.166 12.5597C210.57 12.3969 210.869 12.1691 211.064 11.8761C211.26 11.5766 211.357 11.2283 211.357 10.8312C211.357 10.408 211.243 10.0499 211.016 9.75696C210.788 9.46399 210.443 9.19706 209.98 8.95618C209.525 8.70878 208.952 8.44511 208.262 8.16516C207.793 7.97636 207.344 7.76152 206.914 7.52063C206.491 7.27974 206.113 6.99654 205.781 6.67102C205.449 6.3455 205.186 5.96139 204.99 5.51868C204.801 5.06946 204.707 4.54211 204.707 3.93665C204.707 3.12935 204.899 2.43925 205.283 1.86633C205.674 1.29342 206.221 0.853963 206.924 0.547974C207.633 0.241984 208.46 0.0889893 209.404 0.0889893C210.153 0.0889893 210.856 0.167114 211.514 0.323364C212.178 0.479614 212.829 0.700968 213.467 0.987427L212.725 2.87219C212.139 2.63131 211.569 2.43925 211.016 2.29602C210.469 2.15279 209.909 2.08118 209.336 2.08118C208.841 2.08118 208.421 2.15605 208.076 2.30579C207.731 2.45553 207.467 2.66711 207.285 2.94055C207.109 3.20748 207.021 3.52649 207.021 3.89758C207.021 4.31425 207.122 4.66581 207.324 4.95227C207.533 5.23222 207.852 5.48938 208.281 5.72375C208.717 5.95813 209.277 6.21855 209.961 6.505C210.749 6.83053 211.416 7.17232 211.963 7.5304C212.516 7.88847 212.939 8.31816 213.232 8.81946C213.525 9.31425 213.672 9.93599 213.672 10.6847ZM10.7227 46.5714L9.32617 42.6066H3.86719L2.4707 46.5714H0L5.3125 32.2355H7.91016L13.2129 46.5714H10.7227ZM8.7207 40.5948L7.36328 36.6886C7.3112 36.5193 7.23633 36.2817 7.13867 35.9757C7.04102 35.6632 6.94336 35.3475 6.8457 35.0284C6.74805 34.7029 6.66667 34.4295 6.60156 34.2081C6.53646 34.4751 6.45508 34.7745 6.35742 35.1066C6.26628 35.4321 6.17513 35.7381 6.08398 36.0245C5.99935 36.311 5.93424 36.5323 5.88867 36.6886L4.52148 40.5948H8.7207ZM21.1816 34.0812C20.498 34.0812 19.8861 34.2049 19.3457 34.4523C18.8118 34.6997 18.3594 35.0577 17.9883 35.5265C17.6172 35.9887 17.334 36.5519 17.1387 37.2159C16.9434 37.8735 16.8457 38.6157 16.8457 39.4425C16.8457 40.5493 17.002 41.5031 17.3145 42.3038C17.627 43.0981 18.1022 43.7101 18.7402 44.1398C19.3783 44.5629 20.1855 44.7745 21.1621 44.7745C21.7676 44.7745 22.3568 44.7159 22.9297 44.5988C23.5026 44.4816 24.0951 44.3221 24.707 44.1202V46.1124C24.1276 46.3403 23.5417 46.5063 22.9492 46.6105C22.3568 46.7146 21.6732 46.7667 20.8984 46.7667C19.4401 46.7667 18.2292 46.464 17.2656 45.8585C16.3086 45.2531 15.5924 44.4002 15.1172 43.2999C14.6484 42.1997 14.4141 40.9106 14.4141 39.4327C14.4141 38.352 14.5638 37.3624 14.8633 36.464C15.1628 35.5656 15.599 34.7908 16.1719 34.1398C16.7448 33.4822 17.4512 32.9777 18.291 32.6261C19.1374 32.268 20.1042 32.089 21.1914 32.089C21.9076 32.089 22.6107 32.1704 23.3008 32.3331C23.9974 32.4894 24.6419 32.714 25.2344 33.007L24.4141 34.9406C23.9193 34.7062 23.4017 34.5044 22.8613 34.3351C22.321 34.1658 21.7611 34.0812 21.1816 34.0812ZM32.7246 46.5714H30.3711V34.2863H26.1914V32.2941H36.8945V34.2863H32.7246V46.5714ZM39.082 46.5714V32.2941H41.4258V46.5714H39.082ZM55.7812 32.2941L50.791 46.5714H48.3105L43.3203 32.2941H45.7227L48.7305 41.2394C48.8216 41.4998 48.9193 41.8156 49.0234 42.1866C49.1341 42.5577 49.235 42.9321 49.3262 43.3097C49.4238 43.6873 49.4987 44.0226 49.5508 44.3156C49.6029 44.0226 49.6745 43.6873 49.7656 43.3097C49.8633 42.9321 49.9642 42.5577 50.0684 42.1866C50.1725 41.8156 50.2702 41.4965 50.3613 41.2296L53.3789 32.2941H55.7812ZM66.5039 46.5714L65.1074 42.6066H59.6484L58.252 46.5714H55.7812L61.0938 32.2355H63.6914L68.9941 46.5714H66.5039ZM64.502 40.5948L63.1445 36.6886C63.0924 36.5193 63.0176 36.2817 62.9199 35.9757C62.8223 35.6632 62.7246 35.3475 62.627 35.0284C62.5293 34.7029 62.4479 34.4295 62.3828 34.2081C62.3177 34.4751 62.2363 34.7745 62.1387 35.1066C62.0475 35.4321 61.9564 35.7381 61.8652 36.0245C61.7806 36.311 61.7155 36.5323 61.6699 36.6886L60.3027 40.5948H64.502ZM75.8301 46.5714H73.4766V34.2863H69.2969V32.2941H80V34.2863H75.8301V46.5714ZM82.1875 46.5714V32.2941H84.5312V46.5714H82.1875ZM100.977 39.4132C100.977 40.5135 100.837 41.5161 100.557 42.421C100.283 43.3195 99.8698 44.0942 99.3164 44.7452C98.763 45.3898 98.0697 45.8878 97.2363 46.2394C96.403 46.5909 95.4264 46.7667 94.3066 46.7667C93.1673 46.7667 92.1777 46.5909 91.3379 46.2394C90.5046 45.8878 89.8112 45.3865 89.2578 44.7355C88.7109 44.0844 88.3008 43.3064 88.0273 42.4015C87.7539 41.4965 87.6172 40.4939 87.6172 39.3937C87.6172 37.9223 87.8581 36.6398 88.3398 35.546C88.8281 34.4458 89.5671 33.5929 90.5566 32.9874C91.5527 32.3754 92.8092 32.0695 94.3262 32.0695C95.8105 32.0695 97.0443 32.3722 98.0273 32.9777C99.0104 33.5831 99.7461 34.436 100.234 35.5363C100.729 36.63 100.977 37.9223 100.977 39.4132ZM90.0781 39.4132C90.0781 40.5135 90.2279 41.4672 90.5273 42.2745C90.8268 43.0753 91.2858 43.6938 91.9043 44.13C92.5293 44.5597 93.3301 44.7745 94.3066 44.7745C95.2897 44.7745 96.0905 44.5597 96.709 44.13C97.3275 43.6938 97.7832 43.0753 98.0762 42.2745C98.3691 41.4672 98.5156 40.5135 98.5156 39.4132C98.5156 37.74 98.1803 36.4314 97.5098 35.4874C96.8457 34.5369 95.7845 34.0616 94.3262 34.0616C93.3496 34.0616 92.5456 34.2765 91.9141 34.7062C91.2891 35.1359 90.8268 35.7511 90.5273 36.5519C90.2279 37.3462 90.0781 38.2999 90.0781 39.4132ZM115.957 46.5714H113.076L106.084 35.1749H105.996C106.022 35.559 106.045 35.9659 106.064 36.3956C106.09 36.8253 106.11 37.268 106.123 37.7238C106.143 38.1795 106.159 38.6417 106.172 39.1105V46.5714H104.043V32.2941H106.904L113.887 43.6124H113.955C113.942 43.2804 113.926 42.8995 113.906 42.4698C113.887 42.0402 113.867 41.5975 113.848 41.1417C113.835 40.6795 113.825 40.2335 113.818 39.8038V32.2941H115.957V46.5714ZM129.053 32.2941C130.895 32.2941 132.24 32.6717 133.086 33.4269C133.932 34.1821 134.355 35.24 134.355 36.6007C134.355 37.2192 134.258 37.8084 134.062 38.3683C133.874 38.9217 133.561 39.4132 133.125 39.8429C132.689 40.2661 132.113 40.6014 131.396 40.8488C130.687 41.0962 129.811 41.2198 128.77 41.2198H127.246V46.5714H124.902V32.2941H129.053ZM128.896 34.2374H127.246V39.2667H128.525C129.261 39.2667 129.886 39.1821 130.4 39.0128C130.915 38.837 131.305 38.5603 131.572 38.1827C131.839 37.8051 131.973 37.3071 131.973 36.6886C131.973 35.8618 131.722 35.2465 131.221 34.8429C130.726 34.4392 129.951 34.2374 128.896 34.2374ZM141.221 32.2941C142.451 32.2941 143.467 32.4438 144.268 32.7433C145.075 33.0428 145.674 33.4985 146.064 34.1105C146.462 34.7225 146.66 35.5004 146.66 36.4445C146.66 37.1476 146.53 37.7465 146.27 38.2413C146.009 38.7361 145.667 39.1463 145.244 39.4718C144.821 39.7973 144.368 40.0577 143.887 40.2531L147.939 46.5714H145.293L141.846 40.8488H139.551V46.5714H137.207V32.2941H141.221ZM141.064 34.2472H139.551V38.9152H141.172C142.259 38.9152 143.047 38.7133 143.535 38.3097C144.03 37.906 144.277 37.3103 144.277 36.5226C144.277 35.6958 144.014 35.1098 143.486 34.7648C142.965 34.4197 142.158 34.2472 141.064 34.2472ZM162.656 39.4132C162.656 40.5135 162.516 41.5161 162.236 42.421C161.963 43.3195 161.549 44.0942 160.996 44.7452C160.443 45.3898 159.749 45.8878 158.916 46.2394C158.083 46.5909 157.106 46.7667 155.986 46.7667C154.847 46.7667 153.857 46.5909 153.018 46.2394C152.184 45.8878 151.491 45.3865 150.938 44.7355C150.391 44.0844 149.98 43.3064 149.707 42.4015C149.434 41.4965 149.297 40.4939 149.297 39.3937C149.297 37.9223 149.538 36.6398 150.02 35.546C150.508 34.4458 151.247 33.5929 152.236 32.9874C153.232 32.3754 154.489 32.0695 156.006 32.0695C157.49 32.0695 158.724 32.3722 159.707 32.9777C160.69 33.5831 161.426 34.436 161.914 35.5363C162.409 36.63 162.656 37.9223 162.656 39.4132ZM151.758 39.4132C151.758 40.5135 151.908 41.4672 152.207 42.2745C152.507 43.0753 152.965 43.6938 153.584 44.13C154.209 44.5597 155.01 44.7745 155.986 44.7745C156.969 44.7745 157.77 44.5597 158.389 44.13C159.007 43.6938 159.463 43.0753 159.756 42.2745C160.049 41.4672 160.195 40.5135 160.195 39.4132C160.195 37.74 159.86 36.4314 159.189 35.4874C158.525 34.5369 157.464 34.0616 156.006 34.0616C155.029 34.0616 154.225 34.2765 153.594 34.7062C152.969 35.1359 152.507 35.7511 152.207 36.5519C151.908 37.3462 151.758 38.2999 151.758 39.4132ZM171.807 34.0812C171.123 34.0812 170.511 34.2049 169.971 34.4523C169.437 34.6997 168.984 35.0577 168.613 35.5265C168.242 35.9887 167.959 36.5519 167.764 37.2159C167.568 37.8735 167.471 38.6157 167.471 39.4425C167.471 40.5493 167.627 41.5031 167.939 42.3038C168.252 43.0981 168.727 43.7101 169.365 44.1398C170.003 44.5629 170.811 44.7745 171.787 44.7745C172.393 44.7745 172.982 44.7159 173.555 44.5988C174.128 44.4816 174.72 44.3221 175.332 44.1202V46.1124C174.753 46.3403 174.167 46.5063 173.574 46.6105C172.982 46.7146 172.298 46.7667 171.523 46.7667C170.065 46.7667 168.854 46.464 167.891 45.8585C166.934 45.2531 166.217 44.4002 165.742 43.2999C165.273 42.1997 165.039 40.9106 165.039 39.4327C165.039 38.352 165.189 37.3624 165.488 36.464C165.788 35.5656 166.224 34.7908 166.797 34.1398C167.37 33.4822 168.076 32.9777 168.916 32.6261C169.762 32.268 170.729 32.089 171.816 32.089C172.533 32.089 173.236 32.1704 173.926 32.3331C174.622 32.4894 175.267 32.714 175.859 33.007L175.039 34.9406C174.544 34.7062 174.027 34.5044 173.486 34.3351C172.946 34.1658 172.386 34.0812 171.807 34.0812ZM186.484 46.5714H178.398V32.2941H186.484V34.2667H180.742V38.1437H186.123V40.1066H180.742V44.589H186.484V46.5714ZM201.162 39.296C201.162 40.9041 200.863 42.2485 200.264 43.3292C199.665 44.4034 198.796 45.214 197.656 45.7609C196.517 46.3012 195.143 46.5714 193.535 46.5714H189.57V32.2941H193.965C195.443 32.2941 196.719 32.561 197.793 33.0948C198.867 33.6222 199.697 34.4067 200.283 35.4484C200.869 36.4835 201.162 37.7661 201.162 39.296ZM198.721 39.3644C198.721 38.1925 198.535 37.229 198.164 36.4738C197.799 35.7185 197.259 35.1587 196.543 34.7941C195.833 34.423 194.958 34.2374 193.916 34.2374H191.914V44.6085H193.574C195.299 44.6085 196.589 44.1691 197.441 43.2902C198.294 42.4113 198.721 41.1027 198.721 39.3644ZM215.449 32.2941V41.5323C215.449 42.5284 215.238 43.4204 214.814 44.2081C214.398 44.9959 213.766 45.6209 212.92 46.0831C212.074 46.5389 211.009 46.7667 209.727 46.7667C207.897 46.7667 206.504 46.2882 205.547 45.3312C204.596 44.3676 204.121 43.0883 204.121 41.4933V32.2941H206.465V41.2882C206.465 42.4796 206.745 43.3585 207.305 43.9249C207.865 44.4913 208.701 44.7745 209.814 44.7745C210.583 44.7745 211.208 44.6411 211.689 44.3741C212.178 44.1007 212.536 43.7036 212.764 43.1827C212.998 42.6554 213.115 42.0206 213.115 41.2784V32.2941H215.449ZM223.115 32.2941C224.346 32.2941 225.361 32.4438 226.162 32.7433C226.969 33.0428 227.568 33.4985 227.959 34.1105C228.356 34.7225 228.555 35.5004 228.555 36.4445C228.555 37.1476 228.424 37.7465 228.164 38.2413C227.904 38.7361 227.562 39.1463 227.139 39.4718C226.715 39.7973 226.263 40.0577 225.781 40.2531L229.834 46.5714H227.188L223.74 40.8488H221.445V46.5714H219.102V32.2941H223.115ZM222.959 34.2472H221.445V38.9152H223.066C224.154 38.9152 224.941 38.7133 225.43 38.3097C225.924 37.906 226.172 37.3103 226.172 36.5226C226.172 35.6958 225.908 35.1098 225.381 34.7648C224.86 34.4197 224.053 34.2472 222.959 34.2472ZM239.961 46.5714H231.875V32.2941H239.961V34.2667H234.219V38.1437H239.6V40.1066H234.219V44.589H239.961V46.5714Z" fill="#197745"/>
</svg>
