<svg width="110" height="31" viewBox="0 0 110 31" fill="none" xmlns="http://www.w3.org/2000/svg">
<rect y="0.828125" width="109.883" height="29.4531" rx="14.7266" fill="#3E4095"/>
<path d="M27.1094 11.4883L24.1152 20.0547H22.627L19.6328 11.4883H21.0742L22.8789 16.8555C22.9336 17.0117 22.9922 17.2012 23.0547 17.4238C23.1211 17.6465 23.1816 17.8711 23.2363 18.0977C23.2949 18.3242 23.3398 18.5254 23.3711 18.7012C23.4023 18.5254 23.4453 18.3242 23.5 18.0977C23.5586 17.8711 23.6191 17.6465 23.6816 17.4238C23.7441 17.2012 23.8027 17.0098 23.8574 16.8496L25.668 11.4883H27.1094ZM29.4707 13.5684V20.0547H28.0938V13.5684H29.4707ZM28.791 11.084C29.002 11.084 29.1836 11.1406 29.3359 11.2539C29.4922 11.3672 29.5703 11.5625 29.5703 11.8398C29.5703 12.1133 29.4922 12.3086 29.3359 12.4258C29.1836 12.5391 29.002 12.5957 28.791 12.5957C28.5723 12.5957 28.3867 12.5391 28.2344 12.4258C28.0859 12.3086 28.0117 12.1133 28.0117 11.8398C28.0117 11.5625 28.0859 11.3672 28.2344 11.2539C28.3867 11.1406 28.5723 11.084 28.791 11.084ZM34.0293 13.4453C34.6074 13.4453 35.1035 13.5645 35.5176 13.8027C35.9316 14.041 36.25 14.3789 36.4727 14.8164C36.6953 15.2539 36.8066 15.7773 36.8066 16.3867V17.125H32.4766C32.4922 17.7539 32.6602 18.2383 32.9805 18.5781C33.3047 18.918 33.7578 19.0879 34.3398 19.0879C34.7539 19.0879 35.125 19.0488 35.4531 18.9707C35.7852 18.8887 36.127 18.7695 36.4785 18.6133V19.7324C36.1543 19.8848 35.8242 19.9961 35.4883 20.0664C35.1523 20.1367 34.75 20.1719 34.2812 20.1719C33.6445 20.1719 33.084 20.0488 32.5996 19.8027C32.1191 19.5527 31.7422 19.1816 31.4688 18.6895C31.1992 18.1973 31.0645 17.5859 31.0645 16.8555C31.0645 16.1289 31.1875 15.5117 31.4336 15.0039C31.6797 14.4961 32.0254 14.1094 32.4707 13.8438C32.916 13.5781 33.4355 13.4453 34.0293 13.4453ZM34.0293 14.4824C33.5957 14.4824 33.2441 14.623 32.9746 14.9043C32.709 15.1855 32.5527 15.5977 32.5059 16.1406H35.459C35.4551 15.8164 35.4004 15.5293 35.2949 15.2793C35.1934 15.0293 35.0371 14.834 34.8262 14.6934C34.6191 14.5527 34.3535 14.4824 34.0293 14.4824ZM43.6621 20.0488L42.8418 17.0312C42.8027 16.8828 42.7559 16.7031 42.7012 16.4922C42.6465 16.2812 42.5918 16.0645 42.5371 15.8418C42.4824 15.6152 42.4316 15.4062 42.3848 15.2148C42.3418 15.0234 42.3086 14.875 42.2852 14.7695H42.2383C42.2188 14.875 42.1875 15.0234 42.1445 15.2148C42.1016 15.4062 42.0527 15.6152 41.998 15.8418C41.9434 16.0684 41.8887 16.2891 41.834 16.5039C41.7832 16.7188 41.7363 16.9023 41.6934 17.0547L40.832 20.0488H39.3203L37.5039 13.5625H38.8984L39.7422 16.7852C39.7969 17.0039 39.8496 17.2402 39.9004 17.4941C39.9551 17.748 40.002 17.9902 40.041 18.2207C40.0801 18.4512 40.1094 18.6406 40.1289 18.7891H40.1758C40.1914 18.6836 40.2129 18.5508 40.2402 18.3906C40.2676 18.2266 40.2988 18.0566 40.334 17.8809C40.3691 17.7012 40.4043 17.5332 40.4395 17.377C40.4746 17.2168 40.5078 17.0879 40.5391 16.9902L41.5352 13.5625H43.041L43.9961 16.9902C44.0391 17.1387 44.0859 17.3262 44.1367 17.5527C44.1875 17.7754 44.2324 18 44.2715 18.2266C44.3145 18.4492 44.3418 18.6348 44.3535 18.7832H44.4004C44.416 18.6504 44.4434 18.4707 44.4824 18.2441C44.5254 18.0137 44.5742 17.7695 44.6289 17.5117C44.6836 17.25 44.7402 17.0078 44.7988 16.7852L45.6602 13.5625H47.0312L45.2031 20.0488H43.6621ZM58.3574 15.6895C58.3574 16.6543 58.1777 17.4609 57.8184 18.1094C57.459 18.7539 56.9375 19.2402 56.2539 19.5684C55.5703 19.8926 54.7461 20.0547 53.7812 20.0547H51.4023V11.4883H54.0391C54.9258 11.4883 55.6914 11.6484 56.3359 11.9688C56.9805 12.2852 57.4785 12.7559 57.8301 13.3809C58.1816 14.002 58.3574 14.7715 58.3574 15.6895ZM56.8926 15.7305C56.8926 15.0273 56.7812 14.4492 56.5586 13.9961C56.3398 13.543 56.0156 13.207 55.5859 12.9883C55.1602 12.7656 54.6348 12.6543 54.0098 12.6543H52.8086V18.877H53.8047C54.8398 18.877 55.6133 18.6133 56.125 18.0859C56.6367 17.5586 56.8926 16.7734 56.8926 15.7305ZM62.6465 13.4453C63.2246 13.4453 63.7207 13.5645 64.1348 13.8027C64.5488 14.041 64.8672 14.3789 65.0898 14.8164C65.3125 15.2539 65.4238 15.7773 65.4238 16.3867V17.125H61.0938C61.1094 17.7539 61.2773 18.2383 61.5977 18.5781C61.9219 18.918 62.375 19.0879 62.957 19.0879C63.3711 19.0879 63.7422 19.0488 64.0703 18.9707C64.4023 18.8887 64.7441 18.7695 65.0957 18.6133V19.7324C64.7715 19.8848 64.4414 19.9961 64.1055 20.0664C63.7695 20.1367 63.3672 20.1719 62.8984 20.1719C62.2617 20.1719 61.7012 20.0488 61.2168 19.8027C60.7363 19.5527 60.3594 19.1816 60.0859 18.6895C59.8164 18.1973 59.6816 17.5859 59.6816 16.8555C59.6816 16.1289 59.8047 15.5117 60.0508 15.0039C60.2969 14.4961 60.6426 14.1094 61.0879 13.8438C61.5332 13.5781 62.0527 13.4453 62.6465 13.4453ZM62.6465 14.4824C62.2129 14.4824 61.8613 14.623 61.5918 14.9043C61.3262 15.1855 61.1699 15.5977 61.123 16.1406H64.0762C64.0723 15.8164 64.0176 15.5293 63.9121 15.2793C63.8105 15.0293 63.6543 14.834 63.4434 14.6934C63.2363 14.5527 62.9707 14.4824 62.6465 14.4824ZM69.3906 19.0586C69.5703 19.0586 69.748 19.043 69.9238 19.0117C70.0996 18.9766 70.2598 18.9355 70.4043 18.8887V19.9316C70.252 19.998 70.0547 20.0547 69.8125 20.1016C69.5703 20.1484 69.3184 20.1719 69.0566 20.1719C68.6895 20.1719 68.3594 20.1113 68.0664 19.9902C67.7734 19.8652 67.541 19.6523 67.3691 19.3516C67.1973 19.0508 67.1113 18.6348 67.1113 18.1035V14.6172H66.2266V14.002L67.1758 13.5156L67.627 12.127H68.4941V13.5684H70.3516V14.6172H68.4941V18.0859C68.4941 18.4141 68.5762 18.6582 68.7402 18.8184C68.9043 18.9785 69.1211 19.0586 69.3906 19.0586ZM74.2656 13.4453C75.0859 13.4453 75.7051 13.627 76.123 13.9902C76.5449 14.3535 76.7559 14.9199 76.7559 15.6895V20.0547H75.7773L75.5137 19.1348H75.4668C75.2832 19.3691 75.0938 19.5625 74.8984 19.7148C74.7031 19.8672 74.4766 19.9805 74.2188 20.0547C73.9648 20.1328 73.6543 20.1719 73.2871 20.1719C72.9004 20.1719 72.5547 20.1016 72.25 19.9609C71.9453 19.8164 71.7051 19.5977 71.5293 19.3047C71.3535 19.0117 71.2656 18.6406 71.2656 18.1914C71.2656 17.5234 71.5137 17.0215 72.0098 16.6855C72.5098 16.3496 73.2637 16.1641 74.2715 16.1289L75.3965 16.0879V15.748C75.3965 15.2988 75.291 14.9785 75.0801 14.7871C74.873 14.5957 74.5801 14.5 74.2012 14.5C73.877 14.5 73.5625 14.5469 73.2578 14.6406C72.9531 14.7344 72.6562 14.8496 72.3672 14.9863L71.9219 14.0137C72.2383 13.8457 72.5977 13.709 73 13.6035C73.4062 13.498 73.8281 13.4453 74.2656 13.4453ZM75.3906 16.9551L74.5527 16.9844C73.8652 17.0078 73.3828 17.125 73.1055 17.3359C72.8281 17.5469 72.6895 17.8359 72.6895 18.2031C72.6895 18.5234 72.7852 18.7578 72.9766 18.9062C73.168 19.0508 73.4199 19.123 73.7324 19.123C74.209 19.123 74.6035 18.9883 74.916 18.7188C75.2324 18.4453 75.3906 18.0449 75.3906 17.5176V16.9551ZM80.0605 13.5684V20.0547H78.6836V13.5684H80.0605ZM79.3809 11.084C79.5918 11.084 79.7734 11.1406 79.9258 11.2539C80.082 11.3672 80.1602 11.5625 80.1602 11.8398C80.1602 12.1133 80.082 12.3086 79.9258 12.4258C79.7734 12.5391 79.5918 12.5957 79.3809 12.5957C79.1621 12.5957 78.9766 12.5391 78.8242 12.4258C78.6758 12.3086 78.6016 12.1133 78.6016 11.8398C78.6016 11.5625 78.6758 11.3672 78.8242 11.2539C78.9766 11.1406 79.1621 11.084 79.3809 11.084ZM83.418 20.0547H82.0352V10.9375H83.418V20.0547ZM89.7461 18.2031C89.7461 18.6289 89.6426 18.9883 89.4355 19.2812C89.2285 19.5742 88.9258 19.7969 88.5273 19.9492C88.1328 20.0977 87.6484 20.1719 87.0742 20.1719C86.6211 20.1719 86.2305 20.1387 85.9023 20.0723C85.5781 20.0098 85.2715 19.9121 84.9824 19.7793V18.5898C85.291 18.7344 85.6367 18.8594 86.0195 18.9648C86.4062 19.0703 86.7715 19.123 87.1152 19.123C87.5684 19.123 87.8945 19.0527 88.0938 18.9121C88.293 18.7676 88.3926 18.5762 88.3926 18.3379C88.3926 18.1973 88.3516 18.0723 88.2695 17.9629C88.1914 17.8496 88.043 17.7344 87.8242 17.6172C87.6094 17.4961 87.293 17.3516 86.875 17.1836C86.4648 17.0195 86.1191 16.8555 85.8379 16.6914C85.5566 16.5273 85.3438 16.3301 85.1992 16.0996C85.0547 15.8652 84.9824 15.5664 84.9824 15.2031C84.9824 14.6289 85.209 14.1934 85.6621 13.8965C86.1191 13.5957 86.7227 13.4453 87.4727 13.4453C87.8711 13.4453 88.2461 13.4863 88.5977 13.5684C88.9531 13.6465 89.3008 13.7617 89.6406 13.9141L89.207 14.9512C88.9141 14.8223 88.6191 14.7168 88.3223 14.6348C88.0293 14.5488 87.7305 14.5059 87.4258 14.5059C87.0703 14.5059 86.7988 14.5605 86.6113 14.6699C86.4277 14.7793 86.3359 14.9355 86.3359 15.1387C86.3359 15.291 86.3809 15.4199 86.4707 15.5254C86.5605 15.6309 86.7148 15.7363 86.9336 15.8418C87.1562 15.9473 87.4648 16.0781 87.8594 16.2344C88.2461 16.3828 88.5801 16.5391 88.8613 16.7031C89.1465 16.8633 89.3652 17.0605 89.5176 17.2949C89.6699 17.5293 89.7461 17.832 89.7461 18.2031Z" fill="white"/>
</svg>
