<svg width="258" height="58" viewBox="0 0 258 58" fill="none" xmlns="http://www.w3.org/2000/svg">
<rect width="258" height="58" rx="6" fill="#197745"/>
<path d="M61.3438 39V21.1533H64.2734V36.5098H71.854V39H61.3438ZM80.0327 25.2305C81.2371 25.2305 82.2707 25.4787 83.1333 25.9751C83.9959 26.4715 84.6592 27.1755 85.123 28.0869C85.5869 28.9984 85.8188 30.0889 85.8188 31.3584V32.8965H76.7979C76.8304 34.2067 77.1803 35.2158 77.8477 35.9238C78.5231 36.6318 79.4671 36.9858 80.6797 36.9858C81.5423 36.9858 82.3154 36.9045 82.999 36.7417C83.6908 36.5708 84.4028 36.3226 85.1353 35.9971V38.3286C84.4598 38.646 83.7721 38.8779 83.0723 39.0244C82.3724 39.1709 81.5342 39.2441 80.5576 39.2441C79.2311 39.2441 78.0633 38.9878 77.0542 38.4751C76.0532 37.9543 75.2679 37.1812 74.6982 36.1558C74.1367 35.1304 73.856 33.8568 73.856 32.335C73.856 30.8213 74.1123 29.5355 74.625 28.4775C75.1377 27.4196 75.8579 26.6139 76.7856 26.0605C77.7134 25.5072 78.7957 25.2305 80.0327 25.2305ZM80.0327 27.3911C79.1294 27.3911 78.397 27.6841 77.8354 28.27C77.2821 28.856 76.9565 29.7145 76.8589 30.8457H83.0112C83.0031 30.1702 82.8892 29.5721 82.6694 29.0513C82.4578 28.5304 82.1323 28.1235 81.6929 27.8306C81.2616 27.5376 80.7082 27.3911 80.0327 27.3911ZM94.3516 25.2305C96.0605 25.2305 97.3504 25.6089 98.2212 26.3657C99.1001 27.1226 99.5396 28.3026 99.5396 29.9058V39H97.501L96.9517 37.0835H96.854C96.4715 37.5718 96.0768 37.9746 95.6699 38.292C95.263 38.6094 94.791 38.8454 94.2539 39C93.7249 39.1628 93.078 39.2441 92.313 39.2441C91.5073 39.2441 90.7871 39.0977 90.1523 38.8047C89.5176 38.5036 89.0171 38.0479 88.6509 37.4375C88.2847 36.8271 88.1016 36.054 88.1016 35.1182C88.1016 33.7266 88.6183 32.6808 89.6519 31.981C90.6935 31.2811 92.2642 30.8945 94.3638 30.8213L96.7075 30.7358V30.0278C96.7075 29.092 96.4878 28.4246 96.0483 28.0259C95.617 27.6271 95.0067 27.4277 94.2173 27.4277C93.5418 27.4277 92.8867 27.5254 92.252 27.7207C91.6172 27.916 90.9987 28.1561 90.3965 28.4409L89.4688 26.4146C90.1279 26.0646 90.8766 25.7798 91.7148 25.5601C92.5612 25.3403 93.4401 25.2305 94.3516 25.2305ZM96.6953 32.5425L94.9497 32.6035C93.5174 32.6523 92.5124 32.8965 91.9346 33.3359C91.3568 33.7754 91.0679 34.3776 91.0679 35.1426C91.0679 35.8099 91.2673 36.2982 91.666 36.6074C92.0648 36.9085 92.5897 37.0591 93.2407 37.0591C94.2336 37.0591 95.0555 36.7783 95.7065 36.2168C96.3657 35.6471 96.6953 34.813 96.6953 33.7144V32.5425ZM110.404 25.2305C110.632 25.2305 110.88 25.2427 111.148 25.2671C111.417 25.2915 111.649 25.3241 111.844 25.3647L111.576 28.0503C111.405 28.0015 111.193 27.9648 110.941 27.9404C110.697 27.916 110.477 27.9038 110.282 27.9038C109.769 27.9038 109.281 27.9893 108.817 28.1602C108.353 28.3229 107.942 28.5752 107.584 28.917C107.226 29.2507 106.945 29.6698 106.742 30.1743C106.538 30.6789 106.437 31.2648 106.437 31.9321V39H103.556V25.4868H105.802L106.192 27.8672H106.327C106.595 27.387 106.929 26.9476 107.328 26.5488C107.726 26.1501 108.182 25.8327 108.695 25.5967C109.216 25.3525 109.785 25.2305 110.404 25.2305ZM121.39 25.2305C122.912 25.2305 124.096 25.6252 124.942 26.4146C125.797 27.1958 126.224 28.4531 126.224 30.1865V39H123.355V30.7236C123.355 29.6738 123.14 28.8885 122.708 28.3677C122.277 27.8387 121.61 27.5742 120.707 27.5742C119.396 27.5742 118.485 27.9771 117.972 28.7827C117.468 29.5884 117.215 30.7562 117.215 32.2861V39H114.347V25.4868H116.581L116.983 27.3179H117.142C117.435 26.8459 117.797 26.4593 118.229 26.1582C118.668 25.849 119.156 25.617 119.693 25.4624C120.239 25.3078 120.804 25.2305 121.39 25.2305ZM144.73 39L139.591 24.0952H139.481C139.505 24.4289 139.534 24.8846 139.566 25.4624C139.599 26.0402 139.627 26.6587 139.652 27.3179C139.676 27.9771 139.688 28.6077 139.688 29.21V39H137.027V21.1533H141.141L146.085 35.3989H146.158L151.273 21.1533H155.375V39H152.579V29.0635C152.579 28.5182 152.587 27.9282 152.604 27.2935C152.628 26.6587 152.652 26.0565 152.677 25.4868C152.709 24.9172 152.734 24.4614 152.75 24.1196H152.652L147.318 39H144.73ZM171.744 32.2129C171.744 33.3359 171.598 34.3328 171.305 35.2036C171.012 36.0744 170.584 36.8109 170.023 37.4131C169.461 38.0072 168.786 38.4629 167.997 38.7803C167.207 39.0895 166.316 39.2441 165.323 39.2441C164.396 39.2441 163.545 39.0895 162.772 38.7803C161.999 38.4629 161.327 38.0072 160.758 37.4131C160.196 36.8109 159.761 36.0744 159.452 35.2036C159.142 34.3328 158.988 33.3359 158.988 32.2129C158.988 30.7236 159.244 29.4622 159.757 28.4287C160.278 27.387 161.018 26.5936 161.979 26.0483C162.939 25.5031 164.082 25.2305 165.409 25.2305C166.654 25.2305 167.752 25.5031 168.705 26.0483C169.657 26.5936 170.401 27.387 170.938 28.4287C171.476 29.4704 171.744 30.7318 171.744 32.2129ZM161.942 32.2129C161.942 33.1976 162.06 34.0399 162.296 34.7397C162.54 35.4396 162.914 35.9767 163.419 36.3511C163.924 36.7173 164.575 36.9004 165.372 36.9004C166.17 36.9004 166.821 36.7173 167.325 36.3511C167.83 35.9767 168.2 35.4396 168.436 34.7397C168.672 34.0399 168.79 33.1976 168.79 32.2129C168.79 31.2282 168.672 30.394 168.436 29.7104C168.2 29.0187 167.83 28.4938 167.325 28.1357C166.821 27.7695 166.166 27.5864 165.36 27.5864C164.172 27.5864 163.305 27.9852 162.76 28.7827C162.215 29.5802 161.942 30.7236 161.942 32.2129ZM181.888 25.2305C182.116 25.2305 182.364 25.2427 182.633 25.2671C182.901 25.2915 183.133 25.3241 183.329 25.3647L183.06 28.0503C182.889 28.0015 182.678 27.9648 182.425 27.9404C182.181 27.916 181.961 27.9038 181.766 27.9038C181.253 27.9038 180.765 27.9893 180.301 28.1602C179.837 28.3229 179.426 28.5752 179.068 28.917C178.71 29.2507 178.43 29.6698 178.226 30.1743C178.023 30.6789 177.921 31.2648 177.921 31.9321V39H175.04V25.4868H177.286L177.677 27.8672H177.811C178.08 27.387 178.413 26.9476 178.812 26.5488C179.211 26.1501 179.667 25.8327 180.179 25.5967C180.7 25.3525 181.27 25.2305 181.888 25.2305ZM191.214 25.2305C192.419 25.2305 193.452 25.4787 194.315 25.9751C195.178 26.4715 195.841 27.1755 196.305 28.0869C196.769 28.9984 197 30.0889 197 31.3584V32.8965H187.979C188.012 34.2067 188.362 35.2158 189.029 35.9238C189.705 36.6318 190.649 36.9858 191.861 36.9858C192.724 36.9858 193.497 36.9045 194.181 36.7417C194.872 36.5708 195.584 36.3226 196.317 35.9971V38.3286C195.641 38.646 194.954 38.8779 194.254 39.0244C193.554 39.1709 192.716 39.2441 191.739 39.2441C190.413 39.2441 189.245 38.9878 188.236 38.4751C187.235 37.9543 186.45 37.1812 185.88 36.1558C185.318 35.1304 185.038 33.8568 185.038 32.335C185.038 30.8213 185.294 29.5355 185.807 28.4775C186.319 27.4196 187.04 26.6139 187.967 26.0605C188.895 25.5072 189.977 25.2305 191.214 25.2305ZM191.214 27.3911C190.311 27.3911 189.579 27.6841 189.017 28.27C188.464 28.856 188.138 29.7145 188.041 30.8457H194.193C194.185 30.1702 194.071 29.5721 193.851 29.0513C193.639 28.5304 193.314 28.1235 192.875 27.8306C192.443 27.5376 191.89 27.3911 191.214 27.3911Z" fill="white"/>
</svg>
