<svg width="24" height="23" viewBox="0 0 24 23" fill="none" xmlns="http://www.w3.org/2000/svg">
<path d="M19.0884 8.87022H17.3456C17.3449 8.1771 17.0693 7.51258 16.5792 7.02247C16.0891 6.53237 15.4246 6.25673 14.7314 6.25603V4.51324C15.8866 4.51463 16.994 4.97411 17.8108 5.7909C18.6276 6.60769 19.087 7.7151 19.0884 8.87022Z" fill="#303030"/>
<path d="M22.5738 8.87019H20.831C20.8292 7.253 20.1859 5.70258 19.0424 4.55905C17.8989 3.41552 16.3484 2.77228 14.7312 2.77043V1.02765C16.8105 1.02995 18.804 1.85696 20.2742 3.32722C21.7445 4.79748 22.5715 6.79093 22.5738 8.87019ZM20.831 22.8125H20.6829C3.55997 21.8278 1.12878 7.38011 0.78894 2.97085C0.735825 2.27962 0.959457 1.59559 1.41065 1.06923C1.86184 0.542871 2.50363 0.217286 3.19486 0.164093C3.26399 0.158865 3.33341 0.156251 3.40312 0.156251H7.99537C8.34441 0.155913 8.68552 0.260391 8.9745 0.456151C9.26348 0.651912 9.48702 0.929935 9.61616 1.25421L10.9407 4.51322C11.0682 4.83001 11.0999 5.17729 11.0317 5.51192C10.9635 5.84654 10.7986 6.15377 10.5573 6.39543L8.7012 8.26893C8.98995 9.91702 9.77858 11.4364 10.9601 12.6211C12.1417 13.8058 13.659 14.5984 15.3064 14.8915L17.1973 13.018C17.4426 12.7794 17.7527 12.6183 18.089 12.5547C18.4252 12.4912 18.7728 12.5281 19.0882 12.6608L22.3734 13.9766C22.6928 14.1098 22.9653 14.3351 23.1561 14.6237C23.347 14.9124 23.4476 15.2513 23.4452 15.5974V20.1983C23.4452 20.8916 23.1698 21.5566 22.6795 22.0468C22.1893 22.5371 21.5243 22.8125 20.831 22.8125ZM3.40312 1.89904C3.28869 1.8987 3.17531 1.92089 3.06945 1.96437C2.9636 2.00784 2.86735 2.07174 2.78619 2.15242C2.70503 2.23309 2.64055 2.32896 2.59644 2.43455C2.55234 2.54014 2.52946 2.65339 2.52911 2.76782C2.52911 2.79222 2.52999 2.81633 2.53173 2.84014C2.93257 7.9988 5.50318 20.1983 20.7787 21.0697C21.0094 21.0835 21.236 21.0052 21.4089 20.8519C21.5818 20.6986 21.6867 20.483 21.7007 20.2523L21.7024 20.1983V15.5974L18.4172 14.2815L15.9163 16.765L15.4981 16.7127C7.91694 15.7629 6.8887 8.18179 6.8887 8.10337L6.83642 7.6851L9.31118 5.1842L8.00408 1.89904H3.40312Z" fill="#303030"/>
</svg>
