<svg width="24" height="23" viewBox="0 0 24 23" fill="none" xmlns="http://www.w3.org/2000/svg">
<path d="M12.0902 0.15625C5.83711 0.15625 0.773438 5.23125 0.773438 11.4844C0.773438 17.7375 5.83711 22.8125 12.0902 22.8125C18.3547 22.8125 23.4297 17.7375 23.4297 11.4844C23.4297 5.23125 18.3547 0.15625 12.0902 0.15625ZM12.1016 20.5469C7.09453 20.5469 3.03906 16.4914 3.03906 11.4844C3.03906 6.47734 7.09453 2.42188 12.1016 2.42188C17.1086 2.42188 21.1641 6.47734 21.1641 11.4844C21.1641 16.4914 17.1086 20.5469 12.1016 20.5469ZM12.668 5.82031H10.9688V12.6172L16.916 16.1855L17.7656 14.7922L12.668 11.7676V5.82031Z" fill="#303030"/>
</svg>
