<svg width="18" height="12" viewBox="0 0 18 12" fill="none" xmlns="http://www.w3.org/2000/svg">
<path d="M0.355732 0.952473C0.592886 0.698431 0.873676 0.57141 1.1981 0.57141C1.5219 0.57141 1.80237 0.698431 2.03953 0.952473L8.98814 8.39589L15.9605 0.927069C16.1818 0.689964 16.4585 0.571411 16.7905 0.571411C17.1225 0.571411 17.4071 0.698432 17.6443 0.952474C17.8814 1.20652 18 1.5073 18 1.85483C18 2.20168 17.8814 2.50213 17.6443 2.75617L9.65217 11.292C9.55731 11.3936 9.45455 11.4657 9.34387 11.5084C9.2332 11.5504 9.11462 11.5714 8.98814 11.5714C8.86166 11.5714 8.74308 11.5504 8.63241 11.5084C8.52174 11.4657 8.41897 11.3936 8.32411 11.292L0.332016 2.73076C0.110672 2.49366 -7.12613e-08 2.20168 -5.61e-08 1.85483C-4.0909e-08 1.5073 0.118578 1.20651 0.355732 0.952473Z" fill="#197745"/>
</svg>
