<svg width="27" height="29" viewBox="0 0 27 29" fill="none" xmlns="http://www.w3.org/2000/svg">
<path d="M24.4379 13.3126L3.32536 1.65039C3.14752 1.5535 2.94398 1.51233 2.74182 1.53236C2.53967 1.55239 2.3485 1.63268 2.19376 1.76253C2.03902 1.89238 1.92806 2.06563 1.87565 2.25922C1.82323 2.45282 1.83185 2.65756 1.90036 2.8462L5.87536 13.8427C5.96293 14.0562 5.96293 14.2949 5.87536 14.5084L1.90036 25.5048C1.83185 25.6935 1.82323 25.8982 1.87565 26.0918C1.92806 26.2854 2.03902 26.4587 2.19376 26.5885C2.3485 26.7184 2.53967 26.7987 2.74182 26.8187C2.94398 26.8387 3.14752 26.7975 3.32536 26.7007L24.4379 15.0385C24.5942 14.9532 24.7244 14.8282 24.8152 14.6764C24.9059 14.5246 24.9537 14.3517 24.9537 14.1755C24.9537 13.9994 24.9059 13.8264 24.8152 13.6746C24.7244 13.5229 24.5942 13.3979 24.4379 13.3126V13.3126Z" stroke="white" stroke-width="3" stroke-linecap="round" stroke-linejoin="round"/>
</svg>
