<svg width="20" height="20" viewBox="0 0 20 20" fill="none" xmlns="http://www.w3.org/2000/svg">
<path d="M19 0H1C0.734784 0 0.480429 0.105357 0.292892 0.292893C0.105356 0.48043 0 0.734784 0 1V19C0 19.2652 0.105356 19.5196 0.292892 19.7071C0.480429 19.8946 0.734784 20 1 20H19C19.2652 20 19.5196 19.8946 19.7071 19.7071C19.8946 19.5196 20 19.2652 20 19V1C20 0.734784 19.8946 0.48043 19.7071 0.292893C19.5196 0.105357 19.2652 0 19 0ZM18 18H2V2H18V18Z" fill="#197745"/>
<path d="M14 11C14.5523 11 15 10.5523 15 10C15 9.44771 14.5523 9 14 9H6C5.44772 9 5 9.44771 5 10C5 10.5523 5.44772 11 6 11H14Z" fill="#197745"/>
</svg>
