<svg width="25" height="18" viewBox="0 0 25 18" fill="none" xmlns="http://www.w3.org/2000/svg">
<path d="M0.71875 3.38672C0.71875 2.63562 1.03204 1.91528 1.58971 1.38417C2.14737 0.853061 2.90373 0.554688 3.69238 0.554688H21.5342C22.3228 0.554688 23.0792 0.853061 23.6369 1.38417C24.1945 1.91528 24.5078 2.63562 24.5078 3.38672V14.7148C24.5078 15.4659 24.1945 16.1863 23.6369 16.7174C23.0792 17.2485 22.3228 17.5469 21.5342 17.5469H3.69238C2.90373 17.5469 2.14737 17.2485 1.58971 16.7174C1.03204 16.1863 0.71875 15.4659 0.71875 14.7148V3.38672ZM3.69238 1.9707C3.29805 1.9707 2.91988 2.11989 2.64104 2.38544C2.36221 2.651 2.20557 3.01117 2.20557 3.38672V3.69399L12.6133 9.64126L23.021 3.69399V3.38672C23.021 3.01117 22.8643 2.651 22.5855 2.38544C22.3067 2.11989 21.9285 1.9707 21.5342 1.9707H3.69238ZM23.021 5.34507L16.0211 9.34531L23.021 13.4475V5.34507ZM22.9704 15.0816L14.5848 10.1666L12.6133 11.2923L10.6418 10.1666L2.25612 15.0802C2.34061 15.3815 2.52719 15.6478 2.7869 15.8378C3.0466 16.0278 3.3649 16.1308 3.69238 16.1309H21.5342C21.8615 16.1309 22.1796 16.0281 22.4393 15.8384C22.699 15.6487 22.8857 15.3827 22.9704 15.0816ZM2.20557 13.4475L9.2055 9.34531L2.20557 5.34507V13.4475Z" fill="#303030"/>
</svg>
