<svg width="24" height="18" viewBox="0 0 24 18" fill="none" xmlns="http://www.w3.org/2000/svg">
<path d="M0.687213 6.90127C1.26495 7.479 2.18253 7.53564 2.80557 7.01455C8.09581 2.66455 15.7763 2.66455 21.0778 7.00322C21.7122 7.52432 22.6411 7.479 23.2189 6.90127C23.8872 6.23291 23.8419 5.12275 23.1056 4.52236C16.6372 -0.767871 7.28018 -0.767871 0.800494 4.52236C0.0641661 5.11143 0.00752522 6.22158 0.687213 6.90127ZM9.47784 15.6919L11.1431 17.3571C11.5849 17.7989 12.2985 17.7989 12.7403 17.3571L14.4056 15.6919C14.938 15.1595 14.8247 14.2419 14.145 13.8907C13.4598 13.5389 12.7006 13.3554 11.9304 13.3554C11.1601 13.3554 10.4009 13.5389 9.71573 13.8907C9.07003 14.2419 8.94542 15.1595 9.47784 15.6919ZM5.25245 11.4665C5.80753 12.0216 6.67979 12.0782 7.32549 11.6138C8.67699 10.6576 10.2918 10.1441 11.9474 10.1441C13.6029 10.1441 15.2177 10.6576 16.5692 11.6138C17.2149 12.0669 18.0872 12.0216 18.6423 11.4665L18.6536 11.4552C19.3333 10.7755 19.288 9.62002 18.5064 9.06494C14.6095 6.24424 9.29659 6.24424 5.38838 9.06494C4.60674 9.63135 4.56143 10.7755 5.25245 11.4665Z" fill="#303030"/>
</svg>
